# https://github.com/mikedh/trimesh
v -0.05450000 0.00661900 0.01706600
v -0.05200000 0.00661900 0.01706600
v -0.05450000 0.00682900 0.01755800
v -0.05200000 0.00690000 0.01806000
v -0.05450000 0.00690000 0.01806000
v -0.05450000 -0.00690000 0.01806000
v -0.05200000 -0.00690000 0.01806000
v -0.05450000 -0.00682900 0.01755800
v -0.05200000 -0.00661900 0.01706600
v -0.05450000 -0.00661900 0.01706600
v -0.05200000 0.00447900 0.01473600
v -0.05450000 0.00447900 0.01473600
v -0.05200000 0.00447900 0.01473600
v -0.05450000 0.00447900 0.01473600
v -0.05450000 0.00447900 0.01473600
v -0.05200000 0.00158200 0.01346400
v -0.05200000 0.00158200 0.01346400
v -0.05450000 0.00158200 0.01346400
v -0.05200000 0.00158200 0.01346400
v -0.05450000 0.00158200 0.01346400
v -0.05200000 -0.00158200 0.01346400
v -0.05450000 -0.00158200 0.01346400
v -0.05200000 -0.00158200 0.01346400
v -0.05450000 -0.00158200 0.01346400
v -0.05450000 -0.00158200 0.01346400
v -0.05200000 -0.00447900 0.01473600
v -0.05200000 -0.00447900 0.01473600
v -0.05450000 -0.00447900 0.01473600
v -0.05200000 -0.00447900 0.01473600
v -0.05450000 -0.00447900 0.01473600
v -0.05450000 0.00661900 0.01706600
v -0.05500000 0.00704900 0.01681100
v -0.05450000 0.00447900 0.01473600
v -0.05500000 0.00476900 0.01433000
v -0.05450000 0.00158200 0.01346400
v -0.05500000 0.00168500 0.01297500
v -0.05450000 -0.00158200 0.01346400
v -0.05500000 -0.00168500 0.01297500
v -0.05450000 -0.00447900 0.01473600
v -0.05500000 -0.00476900 0.01433000
v -0.05450000 -0.00661900 0.01706600
v -0.05500000 -0.00704900 0.01681100
v -0.05450000 -0.00682900 0.01755800
v -0.05500000 -0.00731100 0.01742600
v -0.05450000 -0.00690000 0.01806000
v -0.05500000 -0.00740000 0.01808800
v -0.05451200 -0.00691200 0.01808800
v -0.05451200 0.00691200 0.01808800
v -0.05500000 0.00740000 0.01808800
v -0.05450000 0.00690000 0.01806000
v -0.05500000 0.00731100 0.01742600
v -0.05450000 0.00682900 0.01755800
v -0.05500000 -0.00740000 0.01977900
v -0.05500000 0.00740000 0.01977900
v -0.05500000 0.00740000 0.01808800
v -0.05500000 0.00740000 0.01808800
v -0.05500000 0.00740000 0.01977900
v -0.05500000 0.00638000 0.01705700
v -0.05500000 0.00638000 0.01705700
v -0.05500000 0.00731100 0.01742600
v -0.05500000 -0.00638000 0.01705700
v -0.05500000 -0.00638000 0.01705700
v -0.05500000 -0.00740000 0.01977900
v -0.05500000 -0.00740000 0.01808800
v -0.05500000 -0.00740000 0.01808800
v -0.05500000 -0.00731100 0.01742600
v -0.05500000 -0.00704900 0.01681100
v -0.05500000 -0.00704900 0.01681100
v -0.05500000 -0.00429900 0.01485400
v -0.05500000 -0.00429900 0.01485400
v -0.05500000 -0.00476900 0.01433000
v -0.05500000 -0.00476900 0.01433000
v -0.05500000 -0.00151500 0.01365500
v -0.05500000 -0.00168500 0.01297500
v -0.05500000 0.00151500 0.01365500
v -0.05500000 0.00168500 0.01297500
v -0.05500000 0.00168500 0.01297500
v -0.05500000 0.00429900 0.01485400
v -0.05500000 0.00429900 0.01485400
v -0.05500000 0.00476900 0.01433000
v -0.05500000 0.00476900 0.01433000
v -0.05500000 0.00704900 0.01681100
v -0.05200000 0.00638000 0.01705700
v -0.05200000 0.00690000 0.01806000
v -0.05200000 0.00661900 0.01706600
v -0.05200000 0.00661900 0.01706600
v -0.05200000 0.00429900 0.01485400
v -0.05200000 0.00429900 0.01485400
v -0.05200000 0.00429900 0.01485400
v -0.05200000 0.00447900 0.01473600
v -0.05200000 0.00447900 0.01473600
v -0.05200000 0.00447900 0.01473600
v -0.05200000 0.00151500 0.01365500
v -0.05200000 0.00151500 0.01365500
v -0.05200000 0.00158200 0.01346400
v -0.05200000 0.00158200 0.01346400
v -0.05200000 -0.00151500 0.01365500
v -0.05200000 -0.00158200 0.01346400
v -0.05200000 -0.00158200 0.01346400
v -0.05200000 -0.00429900 0.01485400
v -0.05200000 -0.00447900 0.01473600
v -0.05200000 -0.00447900 0.01473600
v -0.05200000 -0.00638000 0.01705700
v -0.05200000 -0.00638000 0.01705700
v -0.05200000 -0.00661900 0.01706600
v -0.05200000 -0.00661900 0.01706600
v -0.05200000 -0.00690000 0.01806000
v -0.05450000 0.00690000 0.01806000
v -0.05200000 0.00690000 0.01806000
v -0.05200000 0.00638000 0.01705700
v -0.05500000 0.00638000 0.01705700
v -0.05451200 0.00691200 0.01808800
v -0.05500000 0.00740000 0.01977900
v -0.05500000 -0.00740000 0.01977900
v -0.05500000 -0.00638000 0.01705700
v -0.05451200 -0.00691200 0.01808800
v -0.05450000 -0.00690000 0.01806000
v -0.05200000 0.00429900 0.01485400
v -0.05500000 0.00429900 0.01485400
v -0.05500000 0.00429900 0.01485400
v -0.05500000 0.00429900 0.01485400
v -0.05200000 0.00429900 0.01485400
v -0.05200000 0.00151500 0.01365500
v -0.05200000 0.00151500 0.01365500
v -0.05500000 0.00151500 0.01365500
v -0.05500000 0.00151500 0.01365500
v -0.05200000 0.00151500 0.01365500
v -0.05200000 -0.00151500 0.01365500
v -0.05500000 -0.00151500 0.01365500
v -0.05500000 -0.00151500 0.01365500
v -0.05500000 -0.00151500 0.01365500
v -0.05200000 -0.00151500 0.01365500
v -0.05200000 -0.00429900 0.01485400
v -0.05200000 -0.00429900 0.01485400
v -0.05500000 -0.00429900 0.01485400
v -0.05500000 -0.00429900 0.01485400
v -0.05200000 -0.00429900 0.01485400
v -0.05200000 -0.00638000 0.01705700
v -0.05200000 -0.00690000 0.01806000
v -0.05450000 -0.00661900 0.02493400
v -0.05200000 -0.00661900 0.02493400
v -0.05450000 -0.00682900 0.02444200
v -0.05200000 -0.00690000 0.02394000
v -0.05450000 -0.00690000 0.02394000
v -0.05450000 0.00690000 0.02394000
v -0.05200000 0.00690000 0.02394000
v -0.05450000 0.00682900 0.02444200
v -0.05200000 0.00661900 0.02493400
v -0.05450000 0.00661900 0.02493400
v -0.05200000 -0.00447900 0.02726300
v -0.05450000 -0.00447900 0.02726300
v -0.05200000 -0.00447900 0.02726300
v -0.05450000 -0.00447900 0.02726300
v -0.05450000 -0.00447900 0.02726300
v -0.05200000 -0.00158200 0.02853600
v -0.05200000 -0.00158200 0.02853600
v -0.05450000 -0.00158200 0.02853600
v -0.05200000 -0.00158200 0.02853600
v -0.05450000 -0.00158200 0.02853600
v -0.05200000 0.00158200 0.02853600
v -0.05450000 0.00158200 0.02853600
v -0.05200000 0.00158200 0.02853600
v -0.05450000 0.00158200 0.02853600
v -0.05450000 0.00158200 0.02853600
v -0.05200000 0.00447900 0.02726300
v -0.05200000 0.00447900 0.02726300
v -0.05450000 0.00447900 0.02726300
v -0.05200000 0.00447900 0.02726300
v -0.05450000 0.00447900 0.02726300
v -0.05451200 -0.00691200 0.02391200
v -0.05500000 -0.00740000 0.02391200
v -0.05450000 -0.00690000 0.02394000
v -0.05500000 -0.00731100 0.02457400
v -0.05500000 -0.00704900 0.02518900
v -0.05450000 -0.00661900 0.02493400
v -0.05450000 -0.00682900 0.02444200
v -0.05450000 0.00661900 0.02493400
v -0.05500000 0.00704900 0.02518900
v -0.05450000 0.00682900 0.02444200
v -0.05500000 0.00731100 0.02457400
v -0.05450000 0.00690000 0.02394000
v -0.05500000 0.00740000 0.02391200
v -0.05451200 0.00691200 0.02391200
v -0.05450000 -0.00447900 0.02726300
v -0.05500000 -0.00476900 0.02767000
v -0.05450000 -0.00158200 0.02853600
v -0.05500000 -0.00168500 0.02902500
v -0.05450000 0.00158200 0.02853600
v -0.05500000 0.00168500 0.02902500
v -0.05450000 0.00447900 0.02726300
v -0.05500000 0.00476900 0.02767000
v -0.05500000 -0.00740000 0.02222100
v -0.05500000 0.00740000 0.02222100
v -0.05200000 0.00661900 0.02493400
v -0.05200000 0.00661900 0.02493400
v -0.05200000 0.00690000 0.02394000
v -0.05200000 0.00638000 0.02494300
v -0.05200000 0.00638000 0.02494300
v -0.05200000 0.00447900 0.02726300
v -0.05200000 0.00429900 0.02714600
v -0.05200000 0.00158200 0.02853600
v -0.05200000 0.00151500 0.02834500
v -0.05200000 -0.00158200 0.02853600
v -0.05200000 -0.00151500 0.02834500
v -0.05200000 -0.00447900 0.02726300
v -0.05200000 -0.00447900 0.02726300
v -0.05200000 -0.00429900 0.02714600
v -0.05200000 -0.00429900 0.02714600
v -0.05200000 -0.00429900 0.02714600
v -0.05200000 -0.00661900 0.02493400
v -0.05200000 -0.00661900 0.02493400
v -0.05200000 -0.00661900 0.02493400
v -0.05200000 -0.00638000 0.02494300
v -0.05200000 -0.00638000 0.02494300
v -0.05200000 -0.00690000 0.02394000
v -0.05500000 -0.00740000 0.02391200
v -0.05500000 -0.00740000 0.02391200
v -0.05500000 -0.00740000 0.02222100
v -0.05500000 -0.00638000 0.02494300
v -0.05500000 -0.00638000 0.02494300
v -0.05500000 -0.00638000 0.02494300
v -0.05500000 -0.00731100 0.02457400
v -0.05500000 -0.00731100 0.02457400
v -0.05500000 0.00638000 0.02494300
v -0.05500000 0.00638000 0.02494300
v -0.05500000 0.00638000 0.02494300
v -0.05500000 0.00740000 0.02222100
v -0.05500000 0.00740000 0.02391200
v -0.05500000 0.00740000 0.02391200
v -0.05500000 0.00731100 0.02457400
v -0.05500000 0.00731100 0.02457400
v -0.05500000 0.00704900 0.02518900
v -0.05500000 0.00704900 0.02518900
v -0.05500000 0.00429900 0.02714600
v -0.05500000 0.00476900 0.02767000
v -0.05500000 0.00476900 0.02767000
v -0.05500000 0.00151500 0.02834500
v -0.05500000 0.00151500 0.02834500
v -0.05500000 0.00168500 0.02902500
v -0.05500000 0.00168500 0.02902500
v -0.05500000 -0.00151500 0.02834500
v -0.05500000 -0.00168500 0.02902500
v -0.05500000 -0.00168500 0.02902500
v -0.05500000 -0.00429900 0.02714600
v -0.05500000 -0.00429900 0.02714600
v -0.05500000 -0.00476900 0.02767000
v -0.05500000 -0.00476900 0.02767000
v -0.05500000 -0.00704900 0.02518900
v -0.05500000 -0.00704900 0.02518900
v -0.05450000 -0.00690000 0.02394000
v -0.05200000 -0.00690000 0.02394000
v -0.05200000 -0.00638000 0.02494300
v -0.05500000 -0.00638000 0.02494300
v -0.05451200 -0.00691200 0.02391200
v -0.05451200 -0.00691200 0.02391200
v -0.05500000 -0.00638000 0.02494300
v -0.05500000 -0.00740000 0.02222100
v -0.05500000 0.00740000 0.02222100
v -0.05500000 0.00638000 0.02494300
v -0.05451200 0.00691200 0.02391200
v -0.05450000 0.00690000 0.02394000
v -0.05200000 -0.00429900 0.02714600
v -0.05500000 -0.00429900 0.02714600
v -0.05500000 -0.00429900 0.02714600
v -0.05500000 -0.00429900 0.02714600
v -0.05200000 -0.00429900 0.02714600
v -0.05200000 -0.00151500 0.02834500
v -0.05200000 -0.00151500 0.02834500
v -0.05500000 -0.00151500 0.02834500
v -0.05500000 -0.00151500 0.02834500
v -0.05200000 -0.00151500 0.02834500
v -0.05200000 0.00151500 0.02834500
v -0.05500000 0.00151500 0.02834500
v -0.05500000 0.00151500 0.02834500
v -0.05500000 0.00151500 0.02834500
v -0.05200000 0.00151500 0.02834500
v -0.05200000 0.00429900 0.02714600
v -0.05200000 0.00429900 0.02714600
v -0.05500000 0.00429900 0.02714600
v -0.05500000 0.00429900 0.02714600
v -0.05200000 0.00429900 0.02714600
v -0.05200000 0.00638000 0.02494300
v -0.05200000 0.00690000 0.02394000
vn 0.00000000 -0.80805400 0.58910800
vn -0.00921300 -0.89024900 0.45538000
vn -0.00903300 -0.96299800 0.26935600
vn -0.01358500 -0.97834800 0.20651800
vn 0.00000000 -0.99007600 0.14053400
vn 0.00000000 0.99007600 0.14053400
vn -0.01358500 0.97834800 0.20651800
vn -0.00903300 0.96299800 0.26935600
vn -0.00692800 0.85713000 0.51505400
vn 0.00000000 0.84047000 0.54185800
vn 0.00000000 -0.73635400 0.67659600
vn 0.00000000 -0.73635400 0.67659600
vn 0.00000000 -0.40212300 0.91558600
vn 0.00000000 -0.40212100 0.91558700
vn 0.00000000 -0.40212300 0.91558600
vn 0.00000000 -0.40212300 0.91558600
vn 0.00000000 -0.40212100 0.91558700
vn 0.00000000 -0.40212100 0.91558700
vn 0.00000000 0.00000000 1.00000000
vn 0.00000000 0.00000000 1.00000000
vn 0.00000000 0.00000000 1.00000000
vn 0.00000000 0.00000000 1.00000000
vn 0.00000000 0.40212300 0.91558600
vn 0.00000000 0.40212300 0.91558600
vn 0.00000000 0.40212100 0.91558700
vn 0.00000000 0.40212100 0.91558700
vn 0.00000000 0.40212300 0.91558600
vn 0.00000000 0.40212100 0.91558700
vn 0.00000000 0.73635400 0.67659600
vn 0.00000000 0.73635400 0.67659600
vn -0.70703400 -0.61515900 0.34882800
vn -0.70553200 -0.57245000 0.41776200
vn -0.70624400 -0.45096000 0.54576000
vn -0.70624300 -0.37058800 0.60322900
vn -0.70624400 -0.19343100 0.68103200
vn -0.70624300 -0.09673400 0.70133000
vn -0.70624600 0.09675900 0.70132300
vn -0.70624500 0.19345500 0.68102400
vn -0.70624600 0.37061200 0.60321100
vn -0.70624200 0.45098300 0.54574500
vn -0.70553300 0.57245000 0.41776100
vn -0.70703300 0.61517200 0.34880800
vn -0.70671100 0.67261700 0.21942300
vn -0.70594300 0.69034900 0.15831500
vn -0.70491700 0.70615100 0.06665300
vn -0.70587100 0.70755000 0.03345000
vn -0.70710500 0.70710500 0.00226200
vn -0.70710500 -0.70710500 0.00226200
vn -0.70587100 -0.70755000 0.03345000
vn -0.70491300 -0.70615000 0.06670000
vn -0.70634900 -0.68233800 0.18837600
vn -0.70710400 -0.68115000 0.18983800
vn -0.70710700 0.70710700 0.00000000
vn -0.70710700 -0.70710700 0.00000000
vn 1.00000000 -0.00001700 0.00000000
vn 1.00000000 0.00000000 0.00000000
vn 1.00000000 -0.00001700 0.00000000
vn 1.00000000 -0.00001700 0.00000000
vn 1.00000000 0.00000000 0.00000000
vn 1.00000000 0.00000000 0.00000000
vn 1.00000000 0.00000000 0.00000000
vn 1.00000000 0.00001700 0.00000000
vn 1.00000000 0.00001700 0.00000000
vn 1.00000000 0.00000000 0.00000000
vn 1.00000000 0.00001700 0.00000000
vn 1.00000000 0.00000000 0.00000000
vn 1.00000000 0.00000000 0.00000000
vn 1.00000000 0.00001200 0.00000000
vn 1.00000000 0.00000000 0.00000000
vn 1.00000000 0.00001200 0.00000000
vn 1.00000000 0.00001200 0.00000000
vn 1.00000000 0.00000000 0.00000000
vn 1.00000000 0.00000000 0.00000000
vn 1.00000000 0.00000000 0.00000000
vn 1.00000000 0.00000000 0.00000000
vn 1.00000000 0.00000000 0.00000000
vn 1.00000000 0.00000600 0.00000000
vn 1.00000000 0.00000000 0.00000000
vn 1.00000000 0.00000600 0.00000000
vn 1.00000000 0.00000000 0.00000000
vn 1.00000000 0.00000600 0.00000000
vn 1.00000000 0.00000000 0.00000000
vn -1.00000000 0.00000000 0.00000000
vn -1.00000000 0.00000000 0.00000000
vn -1.00000000 0.00000000 0.00000000
vn -1.00000000 0.00002200 0.00000000
vn -1.00000000 0.00002200 0.00000000
vn -1.00000000 0.00000000 0.00000000
vn -1.00000000 -0.00001300 0.00000000
vn -1.00000000 0.00002200 0.00000000
vn -1.00000000 0.00000000 0.00000000
vn -1.00000000 -0.00001300 0.00000000
vn -1.00000000 -0.00001300 0.00000000
vn -1.00000000 0.00000000 0.00000000
vn -1.00000000 0.00000000 0.00000000
vn -1.00000000 0.00000000 0.00000000
vn -1.00000000 0.00000000 0.00000000
vn -1.00000000 0.00000000 0.00000000
vn -1.00000000 0.00000000 0.00000000
vn -1.00000000 0.00000000 0.00000000
vn -1.00000000 -0.00002700 0.00000000
vn -1.00000000 0.00000000 0.00000000
vn -1.00000000 0.00000000 0.00000000
vn -1.00000000 -0.00002700 0.00000000
vn -1.00000000 -0.00002700 0.00000000
vn -1.00000000 0.00000000 0.00000000
vn -1.00000000 0.00000000 0.00000000
vn -0.03108800 0.89367000 -0.44764700
vn 0.00000000 0.88785000 -0.46013300
vn 0.00000000 0.84144500 -0.54034300
vn -0.07372000 0.84554200 -0.52879400
vn -0.18167000 0.90641000 -0.38133600
vn -0.26840000 0.90206700 -0.33798800
vn -0.26839700 -0.90206900 -0.33798700
vn -0.07337100 -0.87407900 -0.48021200
vn -0.18166800 -0.90641100 -0.38133500
vn -0.04668100 -0.89620200 -0.44118400
vn 0.00000000 0.72692200 -0.68672000
vn 0.00000000 0.72692200 -0.68672000
vn 0.00000000 0.39577900 -0.91834600
vn 0.00000000 0.39577800 -0.91834600
vn 0.00000000 0.39577900 -0.91834600
vn 0.00000000 0.39577900 -0.91834600
vn 0.00000000 0.39577800 -0.91834600
vn 0.00000000 0.39577800 -0.91834600
vn 0.00000000 0.00000000 -1.00000000
vn 0.00000000 0.00000000 -1.00000000
vn 0.00000000 0.00000000 -1.00000000
vn 0.00000000 0.00000000 -1.00000000
vn 0.00000000 -0.39577900 -0.91834600
vn 0.00000000 -0.39577800 -0.91834600
vn 0.00000000 -0.39577900 -0.91834600
vn 0.00000000 -0.39577800 -0.91834600
vn 0.00000000 -0.39577900 -0.91834600
vn 0.00000000 -0.39577800 -0.91834600
vn 0.00000000 -0.72692200 -0.68672000
vn 0.00000000 -0.72692300 -0.68671900
vn 0.00000000 -0.78737200 -0.61647900
vn 0.00000000 -0.88785000 -0.46013200
vn 0.00000000 0.80805500 -0.58910700
vn -0.00921300 0.89024900 -0.45538100
vn -0.00903300 0.96299800 -0.26935600
vn -0.01358500 0.97834800 -0.20652000
vn 0.00000000 0.99007600 -0.14053500
vn 0.00000000 -0.99007600 -0.14053500
vn -0.01358500 -0.97834800 -0.20652000
vn -0.00903300 -0.96299800 -0.26935600
vn -0.00692800 -0.85713000 -0.51505400
vn 0.00000000 -0.84047000 -0.54185800
vn 0.00000000 0.73635400 -0.67659600
vn 0.00000000 0.73635400 -0.67659600
vn 0.00000000 0.40212300 -0.91558600
vn 0.00000000 0.40212300 -0.91558600
vn 0.00000000 0.40212100 -0.91558700
vn 0.00000000 0.40212300 -0.91558600
vn 0.00000000 0.40212100 -0.91558700
vn 0.00000000 0.40212100 -0.91558700
vn 0.00000000 0.00000000 -1.00000000
vn 0.00000000 0.00000000 -1.00000000
vn 0.00000000 0.00000000 -1.00000000
vn 0.00000000 0.00000000 -1.00000000
vn 0.00000000 -0.40212300 -0.91558600
vn 0.00000000 -0.40212300 -0.91558600
vn 0.00000000 -0.40212100 -0.91558700
vn 0.00000000 -0.40212300 -0.91558600
vn 0.00000000 -0.40212100 -0.91558700
vn 0.00000000 -0.40212100 -0.91558700
vn 0.00000000 -0.73635400 -0.67659600
vn 0.00000000 -0.73635400 -0.67659600
vn -0.70710500 0.70710500 -0.00226200
vn -0.70587100 0.70755000 -0.03345000
vn -0.70491700 0.70615100 -0.06665300
vn -0.70635200 0.68233500 -0.18837700
vn -0.70553400 0.57244500 -0.41776600
vn -0.70703400 0.61518000 -0.34879300
vn -0.70710300 0.68115100 -0.18983800
vn -0.70553200 -0.57245000 -0.41776200
vn -0.70703400 -0.61517100 -0.34880900
vn -0.70671100 -0.67261600 -0.21942300
vn -0.70594400 -0.69034700 -0.15831700
vn -0.70491700 -0.70615100 -0.06665400
vn -0.70587100 -0.70755000 -0.03345000
vn -0.70710500 -0.70710500 -0.00226200
vn -0.70624400 0.45096000 -0.54576000
vn -0.70624300 0.37058900 -0.60322800
vn -0.70624600 0.19342900 -0.68103000
vn -0.70624600 0.09673300 -0.70132700
vn -0.70624600 -0.09675900 -0.70132300
vn -0.70624200 -0.19345600 -0.68102600
vn -0.70624400 -0.37060900 -0.60321500
vn -0.70624300 -0.45097900 -0.54574600
vn -0.70710800 0.70710500 0.00000000
vn -0.70710800 -0.70710500 0.00000000
vn -1.00000000 -0.00003100 0.00000000
vn -1.00000000 0.00000000 0.00000000
vn -1.00000000 -0.00003100 0.00000000
vn -1.00000000 0.00000000 0.00000000
vn -1.00000000 -0.00003100 0.00000000
vn -1.00000000 0.00000000 0.00000000
vn -1.00000000 0.00000000 0.00000000
vn -1.00000000 0.00000000 0.00000000
vn -1.00000000 0.00000000 0.00000000
vn -1.00000000 0.00000000 0.00000000
vn -1.00000000 0.00000000 0.00000000
vn -1.00000000 0.00002200 0.00000000
vn -1.00000000 0.00000000 0.00000000
vn -1.00000000 0.00002200 0.00000000
vn -1.00000000 0.00000000 0.00000000
vn -1.00000000 -0.00002900 0.00000000
vn -1.00000000 -0.00002900 0.00000000
vn -1.00000000 0.00002200 0.00000000
vn -1.00000000 0.00003100 0.00000000
vn -1.00000000 0.00003100 0.00000000
vn -1.00000000 -0.00002900 0.00000000
vn -1.00000000 0.00003100 0.00000000
vn 1.00000000 0.00000000 0.00000000
vn 1.00000000 0.00001700 0.00000000
vn 1.00000000 0.00001700 0.00000000
vn 1.00000000 0.00000000 0.00000000
vn 1.00000000 0.00001700 0.00000000
vn 1.00000000 0.00001500 0.00000000
vn 1.00000000 0.00001500 0.00000000
vn 1.00000000 0.00000000 0.00000000
vn 1.00000000 0.00000000 0.00000000
vn 1.00000000 -0.00001500 0.00000000
vn 1.00000000 -0.00001700 0.00000000
vn 1.00000000 -0.00001700 0.00000000
vn 1.00000000 0.00000000 0.00000000
vn 1.00000000 -0.00001700 0.00000000
vn 1.00000000 -0.00001500 0.00000000
vn 1.00000000 0.00000000 0.00000000
vn 1.00000000 0.00000000 0.00000000
vn 1.00000000 -0.00001500 0.00000000
vn 1.00000000 0.00000000 0.00000000
vn 1.00000000 0.00000000 0.00000000
vn 1.00000000 0.00000600 0.00000000
vn 1.00000000 0.00000000 0.00000000
vn 1.00000000 0.00000600 0.00000000
vn 1.00000000 0.00000000 0.00000000
vn 1.00000000 0.00000600 0.00000000
vn 1.00000000 0.00000000 0.00000000
vn 1.00000000 0.00000000 0.00000000
vn 1.00000000 -0.00000600 0.00000000
vn 1.00000000 -0.00000600 0.00000000
vn 1.00000000 0.00000000 0.00000000
vn 1.00000000 0.00000000 0.00000000
vn 1.00000000 -0.00000600 0.00000000
vn 1.00000000 0.00001500 0.00000000
vn 1.00000000 0.00000000 0.00000000
vn -0.03110300 -0.89367200 0.44764100
vn 0.00000000 -0.88785000 0.46013300
vn 0.00000000 -0.84144500 0.54034300
vn -0.02357300 -0.82090100 0.57058400
vn -0.18165600 -0.90640500 0.38135400
vn -0.18168600 -0.90641100 0.38132600
vn -0.26840000 -0.90206700 0.33798800
vn -0.26840000 -0.90206700 0.33798800
vn -0.26839800 0.90206800 0.33798700
vn -0.07337100 0.87407900 0.48021200
vn -0.18165600 0.90641100 0.38134000
vn -0.04665200 0.89619700 0.44119600
vn 0.00000000 -0.72692200 0.68672000
vn 0.00000000 -0.72692300 0.68671900
vn 0.00000000 -0.39577800 0.91834600
vn 0.00000000 -0.39577900 0.91834600
vn 0.00000000 -0.39577900 0.91834600
vn 0.00000000 -0.39577800 0.91834600
vn 0.00000000 -0.39577900 0.91834600
vn 0.00000000 -0.39577800 0.91834600
vn 0.00000000 0.00000000 1.00000000
vn 0.00000000 0.00000000 1.00000000
vn 0.00000000 0.00000000 1.00000000
vn 0.00000000 0.00000000 1.00000000
vn 0.00000000 0.39577900 0.91834600
vn 0.00000000 0.39577800 0.91834600
vn 0.00000000 0.39577900 0.91834600
vn 0.00000000 0.39577800 0.91834600
vn 0.00000000 0.39577900 0.91834600
vn 0.00000000 0.39577800 0.91834600
vn 0.00000000 0.72692200 0.68672000
vn 0.00000000 0.72692200 0.68672000
vn 0.00000000 0.78737200 0.61647900
vn 0.00000000 0.88785000 0.46013300
f 1//1 2//2 3//3
f 3//3 2//2 4//4
f 3//3 4//4 5//5
f 6//6 7//7 8//8
f 8//8 7//7 9//9
f 8//8 9//9 10//10
f 2//2 1//1 11//11
f 11//11 1//1 12//12
f 13//13 15//15 16//16
f 17//17 14//14 18//18
f 19//19 20//20 21//21
f 21//21 20//20 22//22
f 23//23 24//24 27//27
f 26//26 25//25 28//28
f 29//29 30//30 9//9
f 9//9 30//30 10//10
f 31//31 32//32 33//33
f 33//33 32//32 34//34
f 33//33 34//34 35//35
f 35//35 34//34 36//36
f 35//35 36//36 37//37
f 37//37 36//36 38//38
f 37//37 38//38 39//39
f 39//39 38//38 40//40
f 39//39 40//40 41//41
f 41//41 40//40 42//42
f 41//41 42//42 43//43
f 43//43 42//42 44//44
f 43//43 44//44 45//45
f 45//45 44//44 46//46
f 45//45 46//46 47//47
f 48//48 49//49 50//50
f 50//50 49//49 51//51
f 32//32 31//31 51//51
f 51//51 31//31 52//52
f 51//51 52//52 50//50
f 47//47 46//46 53//53
f 54//54 49//49 48//48
f 55//55 57//57 58//58
f 56//56 59//59 60//60
f 62//62 63//63 65//65
f 64//64 66//66 61//61
f 61//61 66//66 67//67
f 61//61 67//67 69//69
f 70//70 68//68 71//71
f 69//69 72//72 73//73
f 73//73 72//72 74//74
f 73//73 74//74 75//75
f 75//75 74//74 76//76
f 75//75 76//76 78//78
f 79//79 77//77 81//81
f 78//78 80//80 59//59
f 59//59 80//80 82//82
f 59//59 82//82 60//60
f 83//83 84//84 85//85
f 83//83 85//85 88//88
f 87//87 86//86 90//90
f 89//89 92//92 93//93
f 94//94 91//91 95//95
f 94//94 96//96 97//97
f 97//97 96//96 98//98
f 97//97 99//99 100//100
f 100//100 99//99 102//102
f 100//100 102//102 103//103
f 104//104 101//101 105//105
f 103//103 106//106 107//107
f 108//108 109//109 110//110
f 108//108 111//111 112//112
f 112//112 111//111 113//113
f 114//114 115//115 116//116
f 116//116 115//115 117//117
f 108//108 110//110 111//111
f 111//111 110//110 118//118
f 111//111 118//118 119//119
f 120//120 122//122 123//123
f 121//121 124//124 125//125
f 126//126 127//127 128//128
f 126//126 128//128 129//129
f 130//130 132//132 134//134
f 131//131 133//133 135//135
f 136//136 137//137 138//138
f 136//136 138//138 115//115
f 115//115 138//138 139//139
f 115//115 139//139 117//117
f 140//140 141//141 142//142
f 142//142 141//141 143//143
f 142//142 143//143 144//144
f 145//145 146//146 147//147
f 147//147 146//146 148//148
f 147//147 148//148 149//149
f 141//141 140//140 150//150
f 150//150 140//140 151//151
f 152//152 153//153 155//155
f 156//156 154//154 157//157
f 158//158 159//159 160//160
f 160//160 159//159 161//161
f 162//162 163//163 165//165
f 166//166 164//164 167//167
f 168//168 169//169 148//148
f 148//148 169//169 149//149
f 170//170 171//171 172//172
f 172//172 171//171 173//173
f 174//174 175//175 173//173
f 173//173 175//175 176//176
f 173//173 176//176 172//172
f 177//177 178//178 179//179
f 179//179 178//178 180//180
f 179//179 180//180 181//181
f 181//181 180//180 182//182
f 181//181 182//182 183//183
f 175//175 174//174 184//184
f 184//184 174//174 185//185
f 184//184 185//185 186//186
f 186//186 185//185 187//187
f 186//186 187//187 188//188
f 188//188 187//187 189//189
f 188//188 189//189 190//190
f 190//190 189//189 191//191
f 190//190 191//191 177//177
f 177//177 191//191 178//178
f 192//192 171//171 170//170
f 183//183 182//182 193//193
f 194//194 196//196 198//198
f 195//195 197//197 199//199
f 199//199 197//197 200//200
f 199//199 200//200 201//201
f 201//201 200//200 202//202
f 201//201 202//202 203//203
f 203//203 202//202 204//204
f 203//203 204//204 206//206
f 206//206 204//204 208//208
f 205//205 207//207 211//211
f 210//210 209//209 214//214
f 212//212 213//213 215//215
f 217//217 218//218 220//220
f 216//216 219//219 223//223
f 226//226 227//227 229//229
f 228//228 231//231 224//224
f 225//225 230//230 233//233
f 224//224 232//232 234//234
f 234//234 232//232 235//235
f 234//234 235//235 237//237
f 238//238 236//236 240//240
f 237//237 239//239 241//241
f 241//241 239//239 242//242
f 241//241 242//242 245//245
f 244//244 243//243 247//247
f 245//245 246//246 219//219
f 219//219 246//246 249//249
f 221//221 248//248 222//222
f 250//250 251//251 252//252
f 250//250 253//253 254//254
f 255//255 256//256 257//257
f 258//258 259//259 260//260
f 260//260 259//259 261//261
f 250//250 252//252 253//253
f 253//253 252//252 262//262
f 253//253 262//262 263//263
f 265//265 266//266 268//268
f 264//264 267//267 269//269
f 270//270 271//271 272//272
f 270//270 272//272 273//273
f 274//274 276//276 278//278
f 275//275 277//277 279//279
f 280//280 281//281 282//282
f 280//280 282//282 259//259
f 259//259 282//282 283//283
f 259//259 283//283 261//261

