# https://github.com/mikedh/trimesh
v 0.11283600 -0.01112100 -0.02050000
v 0.11283600 -0.01112100 -0.02040000
v 0.11278700 -0.01098800 -0.02040000
v 0.11278700 -0.01098800 -0.02050000
v 0.11278300 -0.01084800 -0.02040000
v 0.11278300 -0.01084800 -0.02050000
v 0.11281900 -0.01072400 -0.02040000
v 0.11281900 -0.01072400 -0.02050000
v 0.11289100 -0.01061300 -0.02040000
v 0.11289100 -0.01061300 -0.02050000
v 0.11300000 -0.01052400 -0.02040000
v 0.11300000 -0.01052400 -0.02050000
v 0.11313200 -0.01047400 -0.02040000
v 0.11313200 -0.01047400 -0.02050000
v 0.11327600 -0.01046900 -0.02040000
v 0.11327600 -0.01046900 -0.02050000
v 0.11338200 -0.01049600 -0.02040000
v 0.11338200 -0.01049600 -0.02050000
v 0.11343500 -0.01052000 -0.02040000
v 0.11343500 -0.01052000 -0.02050000
v 0.11354300 -0.01060500 -0.02040000
v 0.11354300 -0.01060500 -0.02050000
v 0.11360000 -0.01068100 -0.02040000
v 0.11360000 -0.01068100 -0.02050000
v 0.11471600 -0.01254700 -0.02050000
v 0.11471600 -0.01254700 -0.02040000
v 0.11641400 -0.01121900 -0.02050000
v 0.11471600 -0.01254700 -0.02050000
v 0.11641400 -0.01121900 -0.02040000
v 0.11471600 -0.01254700 -0.02040000
v 0.11653700 -0.01115200 -0.02040000
v 0.11653700 -0.01115200 -0.02050000
v 0.11667000 -0.01112800 -0.02040000
v 0.11667000 -0.01112800 -0.02050000
v 0.11675800 -0.01113400 -0.02040000
v 0.11675800 -0.01113400 -0.02050000
v 0.11688400 -0.01117600 -0.02040000
v 0.11688400 -0.01117600 -0.02050000
v 0.11699700 -0.01125900 -0.02040000
v 0.11699700 -0.01125900 -0.02050000
v 0.11707900 -0.01137400 -0.02040000
v 0.11707900 -0.01137400 -0.02050000
v 0.11712100 -0.01151000 -0.02040000
v 0.11712100 -0.01151000 -0.02050000
v 0.11711700 -0.01165000 -0.02040000
v 0.11711700 -0.01165000 -0.02050000
v 0.11708500 -0.01175100 -0.02040000
v 0.11708500 -0.01175100 -0.02050000
v 0.11700800 -0.01186700 -0.02040000
v 0.11700800 -0.01186700 -0.02050000
v 0.11690400 -0.01195000 -0.02040000
v 0.11690400 -0.01195000 -0.02050000
v 0.11688400 -0.01196100 -0.02040000
v 0.11688400 -0.01196100 -0.02050000
v 0.11516300 -0.01329400 -0.02050000
v 0.11516300 -0.01329400 -0.02040000
v 0.11633700 -0.01525200 -0.02050000
v 0.11516300 -0.01329400 -0.02050000
v 0.11633700 -0.01525200 -0.02040000
v 0.11516300 -0.01329400 -0.02040000
v 0.11638600 -0.01538200 -0.02040000
v 0.11638600 -0.01538200 -0.02050000
v 0.11639000 -0.01552300 -0.02040000
v 0.11639000 -0.01552300 -0.02050000
v 0.11635600 -0.01564500 -0.02040000
v 0.11635600 -0.01564500 -0.02050000
v 0.11628500 -0.01575600 -0.02040000
v 0.11628500 -0.01575600 -0.02050000
v 0.11617700 -0.01584600 -0.02040000
v 0.11617700 -0.01584600 -0.02050000
v 0.11604600 -0.01589800 -0.02040000
v 0.11604600 -0.01589800 -0.02050000
v 0.11590200 -0.01590400 -0.02040000
v 0.11590200 -0.01590400 -0.02050000
v 0.11579400 -0.01587800 -0.02040000
v 0.11579400 -0.01587800 -0.02050000
v 0.11573000 -0.01584700 -0.02040000
v 0.11573000 -0.01584700 -0.02050000
v 0.11562400 -0.01576100 -0.02040000
v 0.11562400 -0.01576100 -0.02050000
v 0.11557300 -0.01569100 -0.02040000
v 0.11557300 -0.01569100 -0.02050000
v 0.11445700 -0.01382500 -0.02050000
v 0.11445700 -0.01382500 -0.02040000
v 0.11275900 -0.01515300 -0.02050000
v 0.11445700 -0.01382500 -0.02050000
v 0.11275900 -0.01515300 -0.02040000
v 0.11445700 -0.01382500 -0.02040000
v 0.11263600 -0.01522000 -0.02040000
v 0.11263600 -0.01522000 -0.02050000
v 0.11249600 -0.01524500 -0.02040000
v 0.11249600 -0.01524500 -0.02050000
v 0.11240700 -0.01523700 -0.02040000
v 0.11240700 -0.01523700 -0.02050000
v 0.11228200 -0.01519300 -0.02040000
v 0.11228200 -0.01519300 -0.02050000
v 0.11217400 -0.01511200 -0.02040000
v 0.11217400 -0.01511200 -0.02050000
v 0.11209300 -0.01499700 -0.02040000
v 0.11209300 -0.01499700 -0.02050000
v 0.11205200 -0.01486100 -0.02040000
v 0.11205200 -0.01486100 -0.02050000
v 0.11205700 -0.01472100 -0.02040000
v 0.11205700 -0.01472100 -0.02050000
v 0.11210400 -0.01459100 -0.02040000
v 0.11210400 -0.01459100 -0.02050000
v 0.11218500 -0.01448500 -0.02040000
v 0.11218500 -0.01448500 -0.02050000
v 0.11229000 -0.01441200 -0.02040000
v 0.11229000 -0.01441200 -0.02050000
v 0.11401000 -0.01307800 -0.02050000
v 0.11401000 -0.01307800 -0.02040000
v 0.11401000 -0.01307800 -0.02050000
v 0.11401000 -0.01307800 -0.02040000
v 0.11516300 -0.01329400 -0.02050000
v 0.11471600 -0.01254700 -0.02050000
v 0.11641400 -0.01121900 -0.02050000
v 0.11641400 -0.01121900 -0.02050000
v 0.11633700 -0.01525200 -0.02050000
v 0.11633700 -0.01525200 -0.02050000
v 0.11633700 -0.01525200 -0.02050000
v 0.11579400 -0.01587800 -0.02050000
v 0.11579400 -0.01587800 -0.02050000
v 0.11573000 -0.01584700 -0.02050000
v 0.11573000 -0.01584700 -0.02050000
v 0.11263600 -0.01522000 -0.02050000
v 0.11263600 -0.01522000 -0.02050000
v 0.11229000 -0.01441200 -0.02050000
v 0.11229000 -0.01441200 -0.02050000
v 0.11229000 -0.01441200 -0.02050000
v 0.11229000 -0.01441200 -0.02050000
v 0.11229000 -0.01441200 -0.02050000
v 0.11275900 -0.01515300 -0.02050000
v 0.11275900 -0.01515300 -0.02050000
v 0.11275900 -0.01515300 -0.02050000
v 0.11401000 -0.01307800 -0.02050000
v 0.11401000 -0.01307800 -0.02050000
v 0.11401000 -0.01307800 -0.02050000
v 0.11401000 -0.01307800 -0.02050000
v 0.11401000 -0.01307800 -0.02050000
v 0.11445700 -0.01382500 -0.02050000
v 0.11445700 -0.01382500 -0.02050000
v 0.11283600 -0.01112100 -0.02050000
v 0.11283600 -0.01112100 -0.02050000
v 0.11283600 -0.01112100 -0.02050000
v 0.11283600 -0.01112100 -0.02050000
v 0.11283600 -0.01112100 -0.02050000
v 0.11338200 -0.01049600 -0.02050000
v 0.11338200 -0.01049600 -0.02050000
v 0.11343500 -0.01052000 -0.02050000
v 0.11343500 -0.01052000 -0.02050000
v 0.11653700 -0.01115200 -0.02050000
v 0.11653700 -0.01115200 -0.02050000
v 0.11690400 -0.01195000 -0.02050000
v 0.11690400 -0.01195000 -0.02050000
v 0.11690400 -0.01195000 -0.02050000
v 0.11690400 -0.01195000 -0.02050000
v 0.11690400 -0.01195000 -0.02050000
v 0.11641400 -0.01121900 -0.02050000
v 0.11688400 -0.01196100 -0.02050000
v 0.11688400 -0.01196100 -0.02050000
v 0.11562400 -0.01576100 -0.02050000
v 0.11562400 -0.01576100 -0.02050000
v 0.11633700 -0.01525200 -0.02050000
v 0.11633700 -0.01525200 -0.02050000
v 0.11557300 -0.01569100 -0.02050000
v 0.11557300 -0.01569100 -0.02050000
v 0.11471600 -0.01254700 -0.02050000
v 0.11471600 -0.01254700 -0.02050000
v 0.11360000 -0.01068100 -0.02050000
v 0.11360000 -0.01068100 -0.02050000
v 0.11360000 -0.01068100 -0.02050000
v 0.11354300 -0.01060500 -0.02050000
v 0.11354300 -0.01060500 -0.02050000
v 0.11675800 -0.01113400 -0.02050000
v 0.11675800 -0.01113400 -0.02050000
v 0.11675800 -0.01113400 -0.02050000
v 0.11711700 -0.01165000 -0.02050000
v 0.11711700 -0.01165000 -0.02050000
v 0.11711700 -0.01165000 -0.02050000
v 0.11711700 -0.01165000 -0.02050000
v 0.11708500 -0.01175100 -0.02050000
v 0.11708500 -0.01175100 -0.02050000
v 0.11667000 -0.01112800 -0.02050000
v 0.11667000 -0.01112800 -0.02050000
v 0.11675800 -0.01113400 -0.02050000
v 0.11675800 -0.01113400 -0.02050000
v 0.11700800 -0.01186700 -0.02050000
v 0.11700800 -0.01186700 -0.02050000
v 0.11590200 -0.01590400 -0.02050000
v 0.11590200 -0.01590400 -0.02050000
v 0.11590200 -0.01590400 -0.02050000
v 0.11590200 -0.01590400 -0.02050000
v 0.11638600 -0.01538200 -0.02050000
v 0.11638600 -0.01538200 -0.02050000
v 0.11639000 -0.01552300 -0.02050000
v 0.11639000 -0.01552300 -0.02050000
v 0.11617700 -0.01584600 -0.02050000
v 0.11604600 -0.01589800 -0.02050000
v 0.11604600 -0.01589800 -0.02050000
v 0.11628500 -0.01575600 -0.02050000
v 0.11628500 -0.01575600 -0.02050000
v 0.11635600 -0.01564500 -0.02050000
v 0.11327600 -0.01046900 -0.02050000
v 0.11327600 -0.01046900 -0.02050000
v 0.11327600 -0.01046900 -0.02050000
v 0.11327600 -0.01046900 -0.02050000
v 0.11327600 -0.01046900 -0.02050000
v 0.11278700 -0.01098800 -0.02050000
v 0.11278700 -0.01098800 -0.02050000
v 0.11278300 -0.01084800 -0.02050000
v 0.11278300 -0.01084800 -0.02050000
v 0.11300000 -0.01052400 -0.02050000
v 0.11313200 -0.01047400 -0.02050000
v 0.11313200 -0.01047400 -0.02050000
v 0.11289100 -0.01061300 -0.02050000
v 0.11289100 -0.01061300 -0.02050000
v 0.11289100 -0.01061300 -0.02050000
v 0.11281900 -0.01072400 -0.02050000
v 0.11707900 -0.01137400 -0.02050000
v 0.11712100 -0.01151000 -0.02050000
v 0.11712100 -0.01151000 -0.02050000
v 0.11699700 -0.01125900 -0.02050000
v 0.11699700 -0.01125900 -0.02050000
v 0.11688400 -0.01117600 -0.02050000
v 0.11688400 -0.01117600 -0.02050000
v 0.11217400 -0.01511200 -0.02050000
v 0.11209300 -0.01499700 -0.02050000
v 0.11205200 -0.01486100 -0.02050000
v 0.11249600 -0.01524500 -0.02050000
v 0.11249600 -0.01524500 -0.02050000
v 0.11240700 -0.01523700 -0.02050000
v 0.11240700 -0.01523700 -0.02050000
v 0.11218500 -0.01448500 -0.02050000
v 0.11218500 -0.01448500 -0.02050000
v 0.11218500 -0.01448500 -0.02050000
v 0.11240700 -0.01523700 -0.02050000
v 0.11228200 -0.01519300 -0.02050000
v 0.11228200 -0.01519300 -0.02050000
v 0.11210400 -0.01459100 -0.02050000
v 0.11210400 -0.01459100 -0.02050000
v 0.11210400 -0.01459100 -0.02050000
v 0.11228200 -0.01519300 -0.02050000
v 0.11217400 -0.01511200 -0.02050000
v 0.11217400 -0.01511200 -0.02050000
v 0.11205700 -0.01472100 -0.02050000
v 0.11205700 -0.01472100 -0.02050000
v 0.11401000 -0.01307800 -0.02040000
v 0.11401000 -0.01307800 -0.02040000
v 0.11401000 -0.01307800 -0.02040000
v 0.11401000 -0.01307800 -0.02040000
v 0.11229000 -0.01441200 -0.02040000
v 0.11229000 -0.01441200 -0.02040000
v 0.11229000 -0.01441200 -0.02040000
v 0.11275900 -0.01515300 -0.02040000
v 0.11275900 -0.01515300 -0.02040000
v 0.11275900 -0.01515300 -0.02040000
v 0.11516300 -0.01329400 -0.02040000
v 0.11516300 -0.01329400 -0.02040000
v 0.11688400 -0.01196100 -0.02040000
v 0.11688400 -0.01196100 -0.02040000
v 0.11641400 -0.01121900 -0.02040000
v 0.11641400 -0.01121900 -0.02040000
v 0.11641400 -0.01121900 -0.02040000
v 0.11690400 -0.01195000 -0.02040000
v 0.11690400 -0.01195000 -0.02040000
v 0.11690400 -0.01195000 -0.02040000
v 0.11354300 -0.01060500 -0.02040000
v 0.11354300 -0.01060500 -0.02040000
v 0.11343500 -0.01052000 -0.02040000
v 0.11343500 -0.01052000 -0.02040000
v 0.11283600 -0.01112100 -0.02040000
v 0.11283600 -0.01112100 -0.02040000
v 0.11283600 -0.01112100 -0.02040000
v 0.11283600 -0.01112100 -0.02040000
v 0.11283600 -0.01112100 -0.02040000
v 0.11283600 -0.01112100 -0.02040000
v 0.11283600 -0.01112100 -0.02040000
v 0.11338200 -0.01049600 -0.02040000
v 0.11338200 -0.01049600 -0.02040000
v 0.11327600 -0.01046900 -0.02040000
v 0.11327600 -0.01046900 -0.02040000
v 0.11327600 -0.01046900 -0.02040000
v 0.11327600 -0.01046900 -0.02040000
v 0.11327600 -0.01046900 -0.02040000
v 0.11562400 -0.01576100 -0.02040000
v 0.11562400 -0.01576100 -0.02040000
v 0.11573000 -0.01584700 -0.02040000
v 0.11573000 -0.01584700 -0.02040000
v 0.11633700 -0.01525200 -0.02040000
v 0.11633700 -0.01525200 -0.02040000
v 0.11633700 -0.01525200 -0.02040000
v 0.11633700 -0.01525200 -0.02040000
v 0.11633700 -0.01525200 -0.02040000
v 0.11579400 -0.01587800 -0.02040000
v 0.11579400 -0.01587800 -0.02040000
v 0.11590200 -0.01590400 -0.02040000
v 0.11590200 -0.01590400 -0.02040000
v 0.11590200 -0.01590400 -0.02040000
v 0.11590200 -0.01590400 -0.02040000
v 0.11688400 -0.01117600 -0.02040000
v 0.11688400 -0.01117600 -0.02040000
v 0.11675800 -0.01113400 -0.02040000
v 0.11675800 -0.01113400 -0.02040000
v 0.11711700 -0.01165000 -0.02040000
v 0.11711700 -0.01165000 -0.02040000
v 0.11711700 -0.01165000 -0.02040000
v 0.11445700 -0.01382500 -0.02040000
v 0.11445700 -0.01382500 -0.02040000
v 0.11445700 -0.01382500 -0.02040000
v 0.11471600 -0.01254700 -0.02040000
v 0.11471600 -0.01254700 -0.02040000
v 0.11471600 -0.01254700 -0.02040000
v 0.11360000 -0.01068100 -0.02040000
v 0.11360000 -0.01068100 -0.02040000
v 0.11557300 -0.01569100 -0.02040000
v 0.11557300 -0.01569100 -0.02040000
v 0.11708500 -0.01175100 -0.02040000
v 0.11313200 -0.01047400 -0.02040000
v 0.11300000 -0.01052400 -0.02040000
v 0.11289100 -0.01061300 -0.02040000
v 0.11289100 -0.01061300 -0.02040000
v 0.11278700 -0.01098800 -0.02040000
v 0.11278300 -0.01084800 -0.02040000
v 0.11278300 -0.01084800 -0.02040000
v 0.11278300 -0.01084800 -0.02040000
v 0.11281900 -0.01072400 -0.02040000
v 0.11281900 -0.01072400 -0.02040000
v 0.11604600 -0.01589800 -0.02040000
v 0.11617700 -0.01584600 -0.02040000
v 0.11628500 -0.01575600 -0.02040000
v 0.11628500 -0.01575600 -0.02040000
v 0.11638600 -0.01538200 -0.02040000
v 0.11639000 -0.01552300 -0.02040000
v 0.11639000 -0.01552300 -0.02040000
v 0.11635600 -0.01564500 -0.02040000
v 0.11635600 -0.01564500 -0.02040000
v 0.11653700 -0.01115200 -0.02040000
v 0.11667000 -0.01112800 -0.02040000
v 0.11700800 -0.01186700 -0.02040000
v 0.11700800 -0.01186700 -0.02040000
v 0.11712100 -0.01151000 -0.02040000
v 0.11707900 -0.01137400 -0.02040000
v 0.11707900 -0.01137400 -0.02040000
v 0.11699700 -0.01125900 -0.02040000
v 0.11699700 -0.01125900 -0.02040000
v 0.11205200 -0.01486100 -0.02040000
v 0.11209300 -0.01499700 -0.02040000
v 0.11205700 -0.01472100 -0.02040000
v 0.11217400 -0.01511200 -0.02040000
v 0.11217400 -0.01511200 -0.02040000
v 0.11210400 -0.01459100 -0.02040000
v 0.11210400 -0.01459100 -0.02040000
v 0.11210400 -0.01459100 -0.02040000
v 0.11228200 -0.01519300 -0.02040000
v 0.11228200 -0.01519300 -0.02040000
v 0.11228200 -0.01519300 -0.02040000
v 0.11218500 -0.01448500 -0.02040000
v 0.11218500 -0.01448500 -0.02040000
v 0.11218500 -0.01448500 -0.02040000
v 0.11240700 -0.01523700 -0.02040000
v 0.11240700 -0.01523700 -0.02040000
v 0.11240700 -0.01523700 -0.02040000
v 0.11249600 -0.01524500 -0.02040000
v 0.11249600 -0.01524500 -0.02040000
v 0.11249600 -0.01524500 -0.02040000
v 0.11263600 -0.01522000 -0.02040000
vn -0.91556600 -0.40216700 0.00000000
vn -0.88833100 -0.45920300 -0.00001200
vn -0.97041600 -0.24144100 0.00000000
vn -0.99081800 -0.13520400 0.00000000
vn -0.99730100 0.07341500 -0.00001800
vn -0.98445500 0.17563500 -0.00000200
vn -0.92952400 0.36876100 0.00000000
vn -0.88812300 0.45960500 0.00002400
vn -0.77768800 0.62865100 0.00000000
vn -0.70805000 0.70616200 0.00000000
vn -0.54565500 0.83801000 0.00000000
vn -0.45266100 0.89168300 0.00001800
vn -0.25222900 0.96766800 0.00000000
vn -0.14480200 0.98946100 0.00000000
vn 0.05837100 0.99829500 0.00000000
vn 0.15382900 0.98809700 0.00001800
vn 0.30758100 0.95152200 0.00000000
vn 0.36709800 0.93018200 0.00000000
vn 0.49103600 0.87113900 0.00000000
vn 0.55470400 0.83204800 0.00001300
vn 0.68230900 0.73106400 -0.00001700
vn 0.74470900 0.66738900 0.00000000
vn 0.82094500 0.57100700 0.00000000
vn 0.84009000 0.54244600 0.00000600
vn 0.85827100 0.51319700 0.00000000
vn 0.85827000 0.51319800 0.00000000
vn -0.52601800 0.85047300 0.00000000
vn -0.61595600 0.78778000 0.00000000
vn -0.57189400 0.82032700 0.00000000
vn -0.61595500 0.78778100 0.00000000
vn -0.38404600 0.92331400 0.00000000
vn -0.28411500 0.95879000 0.00002500
vn -0.09824600 0.99516200 0.00000000
vn -0.01320800 0.99991300 0.00001500
vn 0.15335400 0.98817100 -0.00001600
vn 0.23485700 0.97203000 0.00000000
vn 0.41093500 0.91166500 0.00000000
vn 0.50415800 0.86361100 0.00002000
vn 0.67322500 0.73943800 -0.00002600
vn 0.74867800 0.66293400 0.00002600
vn 0.87197500 0.48955100 0.00000000
vn 0.91966600 0.39270200 0.00000000
vn 0.98209800 0.18837000 0.00002100
vn 0.99671900 0.08093900 -0.00001800
vn 0.99290900 -0.11888100 -0.00001800
vn 0.97744100 -0.21120800 0.00001800
vn 0.92136100 -0.38870800 0.00001500
vn 0.88063800 -0.47379100 0.00000000
vn 0.77107100 -0.63674900 0.00000000
vn 0.70069000 -0.71346600 0.00000000
vn 0.57653800 -0.81707000 -0.00001000
vn 0.52742800 -0.84960000 0.00000000
vn 0.52350300 -0.85202400 0.00000000
vn 0.56894900 -0.82237300 0.00000000
vn 0.61263800 -0.79036400 0.00000000
vn 0.61263800 -0.79036400 0.00000000
vn 0.91447200 0.40465000 0.00000000
vn 0.85764200 0.51424800 0.00000000
vn 0.88770400 0.46041500 -0.00001200
vn 0.85764200 0.51424800 0.00000000
vn 0.96942400 0.24539300 0.00000200
vn 0.99025900 0.13923700 0.00000000
vn 0.99766500 -0.06830400 -0.00002600
vn 0.98553000 -0.16950200 0.00000000
vn 0.93252300 -0.36111000 0.00000000
vn 0.89227100 -0.45150000 0.00000000
vn 0.78390900 -0.62087500 0.00000000
vn 0.71503100 -0.69909200 0.00000000
vn 0.55401000 -0.83251000 0.00000000
vn 0.46165900 -0.88705800 0.00000000
vn 0.26214800 -0.96502800 -0.00002600
vn 0.15499000 -0.98791600 0.00000000
vn -0.04843900 -0.99882600 -0.00001800
vn -0.14438400 -0.98952200 0.00000000
vn -0.30429700 -0.95257700 0.00000000
vn -0.36918400 -0.92935600 0.00000000
vn -0.50225100 -0.86472200 -0.00001500
vn -0.56967000 -0.82187400 0.00001500
vn -0.69630000 -0.71775100 0.00000200
vn -0.75487600 -0.65586700 0.00000000
vn -0.82527400 -0.56473300 0.00000000
vn -0.84218300 -0.53919200 0.00000800
vn -0.85827100 -0.51319700 0.00000000
vn -0.85827000 -0.51319800 0.00000000
vn 0.52606900 -0.85044200 0.00000000
vn 0.61598700 -0.78775600 0.00000000
vn 0.57194800 -0.82029000 0.00000000
vn 0.61598800 -0.78775600 0.00000000
vn 0.38141600 -0.92440400 -0.00002600
vn 0.27858200 -0.96041200 0.00002700
vn 0.08659200 -0.99624400 -0.00001900
vn -0.00172400 -0.99999900 -0.00000200
vn -0.17161100 -0.98516500 0.00000000
vn -0.25315900 -0.96742500 0.00001800
vn -0.42626500 -0.90459900 0.00000000
vn -0.51649600 -0.85629000 0.00002500
vn -0.68029700 -0.73293600 0.00000000
vn -0.75334000 -0.65763200 0.00002100
vn -0.87428500 -0.48541300 -0.00002100
vn -0.92150400 -0.38836800 0.00000000
vn -0.98296600 -0.18378700 0.00000000
vn -0.99707900 -0.07637500 0.00000000
vn -0.99081600 0.13521700 0.00000000
vn -0.97095500 0.23926200 0.00000000
vn -0.90029500 0.43528100 0.00000000
vn -0.84972900 0.52721900 0.00000000
vn -0.72633800 0.68733800 0.00000200
vn -0.65448300 0.75607600 0.00000000
vn -0.58891700 0.80819300 0.00000000
vn -0.60081800 0.79938600 0.00000000
vn -0.61267500 0.79033500 0.00000000
vn -0.61267500 0.79033500 0.00000000
vn -0.85764500 -0.51424200 0.00000000
vn -0.85764500 -0.51424200 0.00000000
vn 0.00000000 0.00000000 -1.00000000
vn 0.00000000 0.00000000 -1.00000000
vn 0.00000000 0.00000000 -1.00000000
vn -0.00002800 0.00000300 -1.00000000
vn 0.00000200 -0.00000000 -1.00000000
vn 0.00000000 0.00000000 -1.00000000
vn -0.00002200 0.00000200 -1.00000000
vn 0.00000200 -0.00000000 -1.00000000
vn -0.00002200 0.00000200 -1.00000000
vn 0.00000200 -0.00000000 -1.00000000
vn 0.00000000 0.00000000 -1.00000000
vn -0.00001500 0.00000100 -1.00000000
vn 0.00000000 0.00000000 -1.00000000
vn 0.00000000 0.00000000 -1.00000000
vn -0.00001500 0.00000100 -1.00000000
vn -0.00001900 0.00000200 -1.00000000
vn 0.00003000 -0.00000300 -1.00000000
vn 0.00000800 -0.00000100 -1.00000000
vn -0.00000300 0.00000000 -1.00000000
vn 0.00000800 -0.00000100 -1.00000000
vn -0.00001500 0.00000100 -1.00000000
vn 0.00000000 0.00000000 -1.00000000
vn 0.00000800 -0.00000100 -1.00000000
vn -0.00000300 0.00000000 -1.00000000
vn -0.00000400 0.00000000 -1.00000000
vn 0.00000400 -0.00000000 -1.00000000
vn -0.00000300 0.00000000 -1.00000000
vn 0.00000000 0.00000000 -1.00000000
vn -0.00003500 0.00000400 -1.00000000
vn -0.00000400 0.00000000 -1.00000000
vn 0.00000000 0.00000000 -1.00000000
vn 0.00002200 -0.00000200 -1.00000000
vn 0.00001600 -0.00000200 -1.00000000
vn 0.00000000 0.00000000 -1.00000000
vn 0.00002200 -0.00000200 -1.00000000
vn 0.00001600 -0.00000200 -1.00000000
vn 0.00000000 0.00000000 -1.00000000
vn 0.00000000 0.00000000 -1.00000000
vn -0.00001500 0.00000100 -1.00000000
vn 0.00000000 0.00000000 -1.00000000
vn -0.00001500 0.00000100 -1.00000000
vn -0.00001000 0.00000100 -1.00000000
vn -0.00002800 0.00000300 -1.00000000
vn -0.00001900 0.00000200 -1.00000000
vn -0.00001500 0.00000100 -1.00000000
vn 0.00000000 0.00000000 -1.00000000
vn -0.00002800 0.00000300 -1.00000000
vn -0.00000900 0.00000100 -1.00000000
vn 0.00000000 0.00000000 -1.00000000
vn -0.00000900 0.00000100 -1.00000000
vn 0.00000000 0.00000000 -1.00000000
vn 0.00000000 0.00000000 -1.00000000
vn -0.00000900 0.00000100 -1.00000000
vn 0.00000400 -0.00000000 -1.00000000
vn 0.00000000 0.00000000 -1.00000000
vn 0.00000400 -0.00000000 -1.00000000
vn 0.00000000 0.00000000 -1.00000000
vn -0.00000400 0.00000000 -1.00000000
vn 0.00001600 -0.00000200 -1.00000000
vn 0.00000000 0.00000000 -1.00000000
vn 0.00003600 -0.00000400 -1.00000000
vn 0.00002100 -0.00000200 -1.00000000
vn -0.00001700 0.00000200 -1.00000000
vn 0.00000000 0.00000000 -1.00000000
vn -0.00002500 0.00000300 -1.00000000
vn 0.00003600 -0.00000400 -1.00000000
vn -0.00001700 0.00000200 -1.00000000
vn 0.00002100 -0.00000200 -1.00000000
vn -0.00001700 0.00000200 -1.00000000
vn 0.00000000 0.00000000 -1.00000000
vn -0.00001000 0.00000100 -1.00000000
vn -0.00001000 0.00000100 -1.00000000
vn -0.00001900 0.00000200 -1.00000000
vn -0.00001900 0.00000200 -1.00000000
vn 0.00002100 -0.00000200 -1.00000000
vn -0.00002200 0.00000200 -1.00000000
vn 0.00000000 0.00000000 -1.00000000
vn -0.00001800 0.00000200 -1.00000000
vn 0.00001900 -0.00000200 -1.00000000
vn 0.00000000 0.00000000 -1.00000000
vn 0.00001900 -0.00000200 -1.00000000
vn 0.00001900 -0.00000200 -1.00000000
vn 0.00000000 0.00000000 -1.00000000
vn 0.00000000 0.00000000 -1.00000000
vn 0.00000000 0.00000000 -1.00000000
vn -0.00001800 0.00000200 -1.00000000
vn -0.00001800 0.00000200 -1.00000000
vn 0.00000000 0.00000000 -1.00000000
vn 0.00000000 0.00000000 -1.00000000
vn -0.00003500 0.00000400 -1.00000000
vn 0.00000000 0.00000000 -1.00000000
vn 0.00002600 -0.00000300 -1.00000000
vn -0.00000300 0.00000000 -1.00000000
vn 0.00002200 -0.00000200 -1.00000000
vn 0.00002600 -0.00000300 -1.00000000
vn -0.00003500 0.00000400 -1.00000000
vn 0.00002600 -0.00000300 -1.00000000
vn 0.00000000 0.00000000 -1.00000000
vn 0.00007200 -0.00000700 -1.00000000
vn -0.00000300 0.00000000 -1.00000000
vn 0.00007200 -0.00000700 -1.00000000
vn 0.00007200 -0.00000700 -1.00000000
vn 0.00000000 0.00000000 -1.00000000
vn -0.00000300 0.00000000 -1.00000000
vn 0.00000000 0.00000000 -1.00000000
vn 0.00000000 0.00000000 -1.00000000
vn -0.00002500 0.00000300 -1.00000000
vn 0.00000000 0.00000000 -1.00000000
vn 0.00000000 0.00000000 -1.00000000
vn -0.00002500 0.00000300 -1.00000000
vn 0.00003600 -0.00000400 -1.00000000
vn 0.00000000 0.00000000 -1.00000000
vn 0.00000000 0.00000000 -1.00000000
vn 0.00000000 0.00000000 -1.00000000
vn 0.00000000 0.00000000 -1.00000000
vn 0.00000000 0.00000000 -1.00000000
vn 0.00003000 -0.00000300 -1.00000000
vn -0.00001900 0.00000200 -1.00000000
vn 0.00003000 -0.00000300 -1.00000000
vn 0.00002700 -0.00000300 -1.00000000
vn -0.00000700 0.00000100 -1.00000000
vn -0.00001900 0.00000200 -1.00000000
vn -0.00000700 0.00000100 -1.00000000
vn 0.00002700 -0.00000300 -1.00000000
vn -0.00000700 0.00000100 -1.00000000
vn 0.00002700 -0.00000300 -1.00000000
vn -0.00003100 0.00000300 -1.00000000
vn 0.00005400 -0.00000500 -1.00000000
vn -0.00003100 0.00000300 -1.00000000
vn -0.00003100 0.00000300 -1.00000000
vn 0.00005400 -0.00000500 -1.00000000
vn 0.00000000 0.00000000 -1.00000000
vn 0.00005400 -0.00000500 -1.00000000
vn 0.00000100 -0.00000000 1.00000000
vn 0.00000500 -0.00000000 1.00000000
vn -0.00000200 0.00000000 1.00000000
vn 0.00000000 0.00000000 1.00000000
vn 0.00000100 -0.00000000 1.00000000
vn 0.00000000 0.00000000 1.00000000
vn -0.00001500 0.00000100 1.00000000
vn 0.00001800 -0.00000200 1.00000000
vn 0.00000000 0.00000000 1.00000000
vn 0.00000100 -0.00000000 1.00000000
vn 0.00000000 0.00000000 1.00000000
vn -0.00000100 0.00000000 1.00000000
vn 0.00002800 -0.00000300 1.00000000
vn -0.00000100 0.00000000 1.00000000
vn 0.00000000 0.00000000 1.00000000
vn -0.00000100 0.00000000 1.00000000
vn 0.00002800 -0.00000300 1.00000000
vn 0.00002800 -0.00000300 1.00000000
vn -0.00001200 0.00000100 1.00000000
vn 0.00000000 0.00000000 1.00000000
vn 0.00000800 -0.00000100 1.00000000
vn -0.00003100 0.00000300 1.00000000
vn -0.00003100 0.00000300 1.00000000
vn 0.00001900 -0.00000200 1.00000000
vn -0.00002000 0.00000200 1.00000000
vn 0.00001900 -0.00000200 1.00000000
vn -0.00003100 0.00000300 1.00000000
vn -0.00000200 0.00000000 1.00000000
vn 0.00000000 0.00000000 1.00000000
vn 0.00001200 -0.00000100 1.00000000
vn 0.00000800 -0.00000100 1.00000000
vn 0.00001900 -0.00000200 1.00000000
vn -0.00002000 0.00000200 1.00000000
vn -0.00002000 0.00000200 1.00000000
vn 0.00000000 0.00000000 1.00000000
vn 0.00001900 -0.00000200 1.00000000
vn 0.00001200 -0.00000100 1.00000000
vn -0.00001400 0.00000100 1.00000000
vn 0.00000000 0.00000000 1.00000000
vn 0.00001200 -0.00000100 1.00000000
vn -0.00000200 0.00000000 1.00000000
vn 0.00000000 0.00000000 1.00000000
vn -0.00000200 0.00000000 1.00000000
vn 0.00000000 0.00000000 1.00000000
vn 0.00000400 -0.00000000 1.00000000
vn -0.00000400 0.00000000 1.00000000
vn 0.00001200 -0.00000100 1.00000000
vn -0.00000200 0.00000000 1.00000000
vn 0.00000400 -0.00000000 1.00000000
vn -0.00001900 0.00000200 1.00000000
vn 0.00000400 -0.00000000 1.00000000
vn 0.00001400 -0.00000100 1.00000000
vn 0.00000000 0.00000000 1.00000000
vn 0.00000000 0.00000000 1.00000000
vn 0.00001300 -0.00000100 1.00000000
vn -0.00001200 0.00000100 1.00000000
vn 0.00000000 0.00000000 1.00000000
vn 0.00000000 0.00000000 1.00000000
vn -0.00002500 0.00000300 1.00000000
vn 0.00001300 -0.00000100 1.00000000
vn 0.00000000 0.00000000 1.00000000
vn 0.00000500 -0.00000000 1.00000000
vn -0.00000400 0.00000000 1.00000000
vn 0.00000500 -0.00000000 1.00000000
vn -0.00000200 0.00000000 1.00000000
vn 0.00000000 0.00000000 1.00000000
vn 0.00000800 -0.00000100 1.00000000
vn 0.00000000 0.00000000 1.00000000
vn -0.00000400 0.00000000 1.00000000
vn 0.00001200 -0.00000100 1.00000000
vn 0.00000000 0.00000000 1.00000000
vn 0.00000000 0.00000000 1.00000000
vn 0.00000000 0.00000000 1.00000000
vn 0.00000000 0.00000000 1.00000000
vn -0.00001400 0.00000100 1.00000000
vn 0.00000000 0.00000000 1.00000000
vn 0.00000000 0.00000000 1.00000000
vn 0.00001900 -0.00000200 1.00000000
vn 0.00001200 -0.00000100 1.00000000
vn 0.00001900 -0.00000200 1.00000000
vn -0.00001400 0.00000100 1.00000000
vn 0.00000000 0.00000000 1.00000000
vn 0.00000000 0.00000000 1.00000000
vn 0.00001400 -0.00000100 1.00000000
vn 0.00000000 0.00000000 1.00000000
vn 0.00000000 0.00000000 1.00000000
vn -0.00001900 0.00000200 1.00000000
vn 0.00000000 0.00000000 1.00000000
vn -0.00001900 0.00000200 1.00000000
vn 0.00001400 -0.00000100 1.00000000
vn 0.00000000 0.00000000 1.00000000
vn 0.00000000 0.00000000 1.00000000
vn 0.00000000 0.00000000 1.00000000
vn -0.00001200 0.00000100 1.00000000
vn 0.00000000 0.00000000 1.00000000
vn 0.00000000 0.00000000 1.00000000
vn -0.00002500 0.00000300 1.00000000
vn -0.00002500 0.00000300 1.00000000
vn 0.00001300 -0.00000100 1.00000000
vn 0.00000000 0.00000000 1.00000000
vn 0.00000000 0.00000000 1.00000000
vn 0.00000000 0.00000000 1.00000000
vn 0.00000400 -0.00000000 1.00000000
vn 0.00000000 0.00000000 1.00000000
vn 0.00000000 0.00000000 1.00000000
vn 0.00000400 -0.00000000 1.00000000
vn -0.00002700 0.00000300 1.00000000
vn 0.00000100 -0.00000000 1.00000000
vn -0.00002700 0.00000300 1.00000000
vn 0.00000400 -0.00000000 1.00000000
vn 0.00000100 -0.00000000 1.00000000
vn 0.00000000 0.00000000 1.00000000
vn -0.00002700 0.00000300 1.00000000
vn 0.00000100 -0.00000000 1.00000000
vn -0.00001500 0.00000100 1.00000000
vn 0.00000000 0.00000000 1.00000000
vn 0.00000000 0.00000000 1.00000000
vn 0.00001800 -0.00000200 1.00000000
vn -0.00001500 0.00000100 1.00000000
vn 0.00001800 -0.00000200 1.00000000
f 1//1 2//2 3//3
f 1//1 3//3 4//4
f 4//4 3//3 5//5
f 4//4 5//5 6//6
f 6//6 5//5 7//7
f 6//6 7//7 8//8
f 8//8 7//7 9//9
f 8//8 9//9 10//10
f 10//10 9//9 11//11
f 10//10 11//11 12//12
f 12//12 11//11 13//13
f 12//12 13//13 14//14
f 14//14 13//13 15//15
f 14//14 15//15 16//16
f 16//16 15//15 17//17
f 16//16 17//17 18//18
f 18//18 17//17 19//19
f 18//18 19//19 20//20
f 20//20 19//19 21//21
f 20//20 21//21 22//22
f 22//22 21//21 23//23
f 22//22 23//23 24//24
f 25//25 24//24 26//26
f 26//26 24//24 23//23
f 27//27 28//28 29//29
f 29//29 28//28 30//30
f 27//27 29//29 31//31
f 27//27 31//31 32//32
f 32//32 31//31 33//33
f 32//32 33//33 34//34
f 34//34 33//33 35//35
f 34//34 35//35 36//36
f 36//36 35//35 37//37
f 36//36 37//37 38//38
f 38//38 37//37 39//39
f 38//38 39//39 40//40
f 40//40 39//39 41//41
f 40//40 41//41 42//42
f 42//42 41//41 43//43
f 42//42 43//43 44//44
f 44//44 43//43 45//45
f 44//44 45//45 46//46
f 46//46 45//45 47//47
f 46//46 47//47 48//48
f 48//48 47//47 49//49
f 48//48 49//49 50//50
f 50//50 49//49 51//51
f 50//50 51//51 52//52
f 52//52 51//51 53//53
f 52//52 53//53 54//54
f 55//55 54//54 56//56
f 56//56 54//54 53//53
f 57//57 58//58 59//59
f 59//59 58//58 60//60
f 57//57 59//59 61//61
f 57//57 61//61 62//62
f 62//62 61//61 63//63
f 62//62 63//63 64//64
f 64//64 63//63 65//65
f 64//64 65//65 66//66
f 66//66 65//65 67//67
f 66//66 67//67 68//68
f 68//68 67//67 69//69
f 68//68 69//69 70//70
f 70//70 69//69 71//71
f 70//70 71//71 72//72
f 72//72 71//71 73//73
f 72//72 73//73 74//74
f 74//74 73//73 75//75
f 74//74 75//75 76//76
f 76//76 75//75 77//77
f 76//76 77//77 78//78
f 78//78 77//77 79//79
f 78//78 79//79 80//80
f 80//80 79//79 81//81
f 80//80 81//81 82//82
f 83//83 82//82 84//84
f 84//84 82//82 81//81
f 85//85 86//86 87//87
f 87//87 86//86 88//88
f 85//85 87//87 89//89
f 85//85 89//89 90//90
f 90//90 89//89 91//91
f 90//90 91//91 92//92
f 92//92 91//91 93//93
f 92//92 93//93 94//94
f 94//94 93//93 95//95
f 94//94 95//95 96//96
f 96//96 95//95 97//97
f 96//96 97//97 98//98
f 98//98 97//97 99//99
f 98//98 99//99 100//100
f 100//100 99//99 101//101
f 100//100 101//101 102//102
f 102//102 101//101 103//103
f 102//102 103//103 104//104
f 104//104 103//103 105//105
f 104//104 105//105 106//106
f 106//106 105//105 107//107
f 106//106 107//107 108//108
f 108//108 107//107 109//109
f 108//108 109//109 110//110
f 111//111 110//110 112//112
f 112//112 110//110 109//109
f 1//1 113//113 2//2
f 2//2 113//113 114//114
f 115//115 116//116 117//117
f 119//119 122//122 124//124
f 126//126 129//129 135//135
f 134//134 132//132 137//137
f 133//133 138//138 141//141
f 145//145 148//148 151//151
f 153//153 155//155 159//159
f 118//118 157//157 161//161
f 117//117 160//160 115//115
f 125//125 163//163 165//165
f 164//164 162//162 167//167
f 165//165 166//166 115//115
f 115//115 166//166 142//142
f 115//115 142//142 169//169
f 169//169 142//142 136//136
f 168//168 140//140 170//170
f 172//172 139//139 144//144
f 171//171 145//145 174//174
f 173//173 147//147 150//150
f 177//177 181//181 183//183
f 152//152 184//184 154//154
f 156//156 185//185 186//186
f 158//158 187//187 188//188
f 189//189 176//176 182//182
f 123//123 121//121 190//190
f 191//191 120//120 194//194
f 193//193 195//195 196//196
f 198//198 199//199 202//202
f 201//201 200//200 192//192
f 202//202 191//191 203//203
f 203//203 191//191 197//197
f 149//149 146//146 208//208
f 204//204 143//143 210//210
f 206//206 209//209 211//211
f 213//213 215//215 216//216
f 218//218 214//214 207//207
f 217//217 205//205 219//219
f 219//219 205//205 212//212
f 220//220 222//222 223//223
f 224//224 221//221 179//179
f 223//223 178//178 226//226
f 225//225 180//180 175//175
f 227//227 228//228 229//229
f 127//127 230//230 128//128
f 131//131 231//231 233//233
f 130//130 232//232 236//236
f 235//235 237//237 239//239
f 234//234 238//238 240//240
f 241//241 243//243 244//244
f 242//242 245//245 247//247
f 246//246 227//227 229//229
f 248//248 252//252 257//257
f 259//259 261//261 263//263
f 264//264 260//260 265//265
f 269//269 270//270 274//274
f 273//273 271//271 279//279
f 272//272 280//280 281//281
f 286//286 289//289 291//291
f 290//290 288//288 295//295
f 292//292 296//296 298//298
f 301//301 304//304 305//305
f 256//256 308//308 251//251
f 249//249 309//309 311//311
f 250//250 312//312 275//275
f 276//276 313//313 315//315
f 278//278 314//314 268//268
f 262//262 313//313 258//258
f 258//258 313//313 308//308
f 258//258 308//308 291//291
f 293//293 310//310 316//316
f 294//294 317//317 287//287
f 305//305 304//304 318//318
f 319//319 320//320 282//282
f 282//282 320//320 321//321
f 323//323 276//276 324//324
f 326//326 277//277 284//284
f 325//325 283//283 327//327
f 328//328 285//285 322//322
f 329//329 330//330 300//300
f 300//300 330//330 332//332
f 333//333 291//291 335//335
f 335//335 291//291 300//300
f 334//334 297//297 336//336
f 337//337 299//299 331//331
f 338//338 262//262 339//339
f 339//339 262//262 267//267
f 339//339 267//267 304//304
f 303//303 266//266 341//341
f 304//304 340//340 318//318
f 342//342 343//343 305//305
f 306//306 344//344 345//345
f 307//307 346//346 302//302
f 347//347 348//348 349//349
f 349//349 348//348 351//351
f 349//349 351//351 352//352
f 353//353 350//350 357//357
f 354//354 356//356 360//360
f 358//358 355//355 361//361
f 359//359 363//363 253//253
f 254//254 362//362 366//366
f 253//253 364//364 256//256
f 255//255 365//365 367//367

