# https://github.com/mikedh/trimesh
v -0.02309900 -0.09408700 -0.01984600
v -0.02309900 -0.09408700 -0.01984600
v -0.02309900 -0.09408700 -0.01984600
v -0.02309300 -0.09258100 -0.01996700
v -0.02309300 -0.09258100 -0.01996700
v -0.02309300 -0.09258100 -0.01996700
v -0.02309300 -0.09258100 -0.01996700
v -0.02309300 -0.09258100 -0.01996700
v -0.02309300 -0.09258100 -0.01996700
v -0.02309300 -0.09258100 -0.01996700
v -0.02280400 -0.09266500 -0.01996000
v -0.02280400 -0.09266500 -0.01996000
v -0.02280400 -0.09266500 -0.01996000
v -0.02280400 -0.09266500 -0.01996000
v -0.02192300 -0.09090200 -0.02010100
v -0.02192300 -0.09090200 -0.02010100
v -0.02192300 -0.09090200 -0.02010100
v -0.02192300 -0.09090200 -0.02010100
v -0.02192900 -0.09089500 -0.02010100
v -0.02192900 -0.09089500 -0.02010100
v -0.02212600 -0.08950000 -0.02021300
v -0.02212600 -0.08950000 -0.02021300
v -0.02212600 -0.08950000 -0.02021300
v -0.02212600 -0.08950000 -0.02021300
v -0.02212600 -0.08950000 -0.02021300
v -0.02212600 -0.08950000 -0.02021300
v -0.02212600 -0.08950000 -0.02021300
v -0.02319700 -0.09407600 -0.01984800
v -0.02319700 -0.09407600 -0.01984800
v -0.02329500 -0.09406300 -0.01984900
v -0.02329500 -0.09406300 -0.01984900
v -0.02368800 -0.09395700 -0.01985700
v -0.02368800 -0.09395700 -0.01985700
v -0.01983100 -0.08921800 -0.02023400
v -0.01983100 -0.08921800 -0.02023400
v -0.01983100 -0.08921800 -0.02023400
v -0.01983100 -0.08921800 -0.02023400
v -0.01922700 -0.08914400 -0.02024000
v -0.01922700 -0.08914400 -0.02024000
v -0.01922700 -0.08914400 -0.02024000
v -0.01933800 -0.09056700 -0.02012700
v -0.01933800 -0.09056700 -0.02012700
v -0.01933800 -0.09056700 -0.02012700
v -0.02458700 -0.08982700 -0.02018700
v -0.02458700 -0.08982700 -0.02018700
v -0.02451400 -0.08979500 -0.02019000
v -0.02451400 -0.08979500 -0.02019000
v -0.02451400 -0.08979500 -0.02019000
v -0.02337700 -0.09108900 -0.02008600
v -0.02337700 -0.09108900 -0.02008600
v -0.02337700 -0.09108900 -0.02008600
v -0.02337700 -0.09108900 -0.02008600
v -0.02403900 -0.09375000 -0.01987400
v -0.02403900 -0.09375000 -0.01987400
v -0.02438300 -0.09335800 -0.01990500
v -0.02438300 -0.09335800 -0.01990500
v -0.02438300 -0.09335800 -0.01990500
v -0.02329600 -0.09236100 -0.01998400
v -0.02329600 -0.09236100 -0.01998400
v -0.02329600 -0.09236100 -0.01998400
v -0.02329600 -0.09236100 -0.01998400
v -0.02463200 -0.09246400 -0.01997700
v -0.02463200 -0.09246400 -0.01997700
v -0.02463200 -0.09246400 -0.01997700
v -0.02463200 -0.09246400 -0.01997700
v -0.02463200 -0.09246400 -0.01997700
v -0.02463200 -0.09246400 -0.01997700
v -0.02463200 -0.09246400 -0.01997700
v -0.02336300 -0.09218200 -0.01999900
v -0.02336300 -0.09218200 -0.01999900
v -0.02336300 -0.09218200 -0.01999900
v -0.02463200 -0.09251500 -0.01997300
v -0.02463200 -0.09251500 -0.01997300
v -0.02463200 -0.09251500 -0.01997300
v -0.02457500 -0.09287300 -0.01994400
v -0.02457500 -0.09287300 -0.01994400
v -0.01864400 -0.09048300 -0.02013300
v -0.01864400 -0.09048300 -0.02013300
v -0.01864400 -0.09048300 -0.02013300
v -0.01862300 -0.08906900 -0.02024600
v -0.01862300 -0.08906900 -0.02024600
v -0.01862300 -0.08906900 -0.02024600
v -0.01862200 -0.09048000 -0.02013300
v -0.01862200 -0.09048000 -0.02013300
v -0.01862200 -0.09048000 -0.02013300
v -0.01862200 -0.09048000 -0.02013300
v -0.02003200 -0.09065100 -0.02012000
v -0.02003200 -0.09065100 -0.02012000
v -0.02034800 -0.09068900 -0.02011700
v -0.02034800 -0.09068900 -0.02011700
v -0.02034800 -0.09068900 -0.02011700
v -0.02091000 -0.08935100 -0.02022400
v -0.02091000 -0.08935100 -0.02022400
v -0.02091000 -0.08935100 -0.02022400
v -0.02091000 -0.08935100 -0.02022400
v -0.02283000 -0.09408700 -0.01984600
v -0.02283000 -0.09408700 -0.01984600
v -0.02285200 -0.09408700 -0.01984600
v -0.02285200 -0.09408700 -0.01984600
v -0.02287300 -0.09408700 -0.01984600
v -0.02287300 -0.09408700 -0.01984600
v -0.02192400 -0.09192600 -0.02001900
v -0.02192400 -0.09192600 -0.02001900
v -0.02075600 -0.09187600 -0.02002200
v -0.02075600 -0.09187600 -0.02002200
v -0.02075600 -0.09187600 -0.02002200
v -0.02075600 -0.09187600 -0.02002200
v -0.02075600 -0.09187600 -0.02002200
v -0.02202500 -0.09225400 -0.01999300
v -0.02202500 -0.09225400 -0.01999300
v -0.02202500 -0.09225400 -0.01999300
v -0.02086800 -0.09259700 -0.01996500
v -0.02086800 -0.09259700 -0.01996500
v -0.02086800 -0.09259700 -0.01996500
v -0.02225200 -0.09251100 -0.01997200
v -0.02225200 -0.09251100 -0.01997200
v -0.02225200 -0.09251100 -0.01997200
v -0.02120400 -0.09324600 -0.01991300
v -0.02120400 -0.09324600 -0.01991300
v -0.02120400 -0.09324600 -0.01991300
v -0.02251400 -0.09263700 -0.01996200
v -0.02251400 -0.09263700 -0.01996200
v -0.02251400 -0.09263700 -0.01996200
v -0.02251400 -0.09263700 -0.01996200
v -0.02336500 -0.09107200 -0.02008700
v -0.02336500 -0.09107200 -0.02008700
v -0.02336500 -0.09107200 -0.02008700
v -0.02448500 -0.08979000 -0.02019000
v -0.02448500 -0.08979000 -0.02019000
v -0.02448500 -0.08979000 -0.02019000
v -0.02333600 -0.09105800 -0.02008800
v -0.02333600 -0.09105800 -0.02008800
v -0.02333600 -0.09105800 -0.02008800
v -0.02390700 -0.08972000 -0.02019600
v -0.02390700 -0.08972000 -0.02019600
v -0.02390700 -0.08972000 -0.02019600
v -0.02331400 -0.09105400 -0.02008900
v -0.02331400 -0.09105400 -0.02008900
v -0.02331400 -0.09105400 -0.02008900
v -0.02332900 -0.08964900 -0.02020100
v -0.02332900 -0.08964900 -0.02020100
v -0.02332900 -0.08964900 -0.02020100
v -0.02332900 -0.08964900 -0.02020100
v -0.02332900 -0.08964900 -0.02020100
v -0.02329800 -0.09105100 -0.02008900
v -0.02329800 -0.09105100 -0.02008900
v -0.02338300 -0.09137400 -0.02006300
v -0.02338300 -0.09137400 -0.02006300
v -0.02338300 -0.09168400 -0.02003900
v -0.02338300 -0.09168400 -0.02003900
v -0.02338300 -0.09199300 -0.02001400
v -0.02338300 -0.09199300 -0.02001400
v -0.01851100 -0.08910400 -0.02024300
v -0.01851100 -0.08910400 -0.02024300
v -0.01851100 -0.08910400 -0.02024300
v -0.01851100 -0.08910400 -0.02024300
v -0.01849700 -0.08912500 -0.02024100
v -0.01849600 -0.09039500 -0.02014000
v -0.01849600 -0.09039500 -0.02014000
v -0.02066400 -0.09072600 -0.02011400
v -0.02066400 -0.09072600 -0.02011400
v -0.02072400 -0.09073900 -0.02011300
v -0.02072400 -0.09073900 -0.02011300
v -0.02072400 -0.09073900 -0.02011300
v -0.02074200 -0.09075300 -0.02011200
v -0.02074200 -0.09075300 -0.02011200
v -0.02074200 -0.09075300 -0.02011200
v -0.02075100 -0.09077600 -0.02011000
v -0.02075100 -0.09077600 -0.02011000
v -0.02075100 -0.09077600 -0.02011000
v -0.02191700 -0.09092200 -0.02009900
v -0.02191700 -0.09092200 -0.02009900
v -0.02191700 -0.09092200 -0.02009900
v -0.02075400 -0.09082700 -0.02010600
v -0.02075400 -0.09082700 -0.02010600
v -0.02075400 -0.09082700 -0.02010600
v -0.02075400 -0.09082700 -0.02010600
v -0.02463400 -0.08988400 -0.02018300
v -0.02463400 -0.08988400 -0.02018300
v -0.02463400 -0.08988400 -0.02018300
v -0.02338300 -0.09113300 -0.02008300
v -0.02338300 -0.09113300 -0.02008300
v -0.02338300 -0.09113300 -0.02008300
v -0.02338300 -0.09125400 -0.02007300
v -0.02338300 -0.09125400 -0.02007300
v -0.01855000 -0.08907500 -0.02024500
v -0.01855000 -0.08907500 -0.02024500
v -0.01854100 -0.09044800 -0.02013600
v -0.01854100 -0.09044800 -0.02013600
v -0.02180900 -0.09379100 -0.01987000
v -0.02180900 -0.09379100 -0.01987000
v -0.02257500 -0.09406500 -0.01984800
v -0.02257500 -0.09406500 -0.01984800
v -0.02257500 -0.09406500 -0.01984800
v -0.02280400 -0.09266500 -0.01996000
v -0.02280400 -0.09266500 -0.01996000
v -0.02280400 -0.09266500 -0.01996000
v -0.02270200 -0.09408000 -0.01984700
v -0.02270200 -0.09408000 -0.01984700
v -0.02194200 -0.09089100 -0.02010100
v -0.02194200 -0.09089100 -0.02010100
v -0.02198200 -0.09089300 -0.02010100
v -0.02198200 -0.09089300 -0.02010100
v -0.02198200 -0.09089300 -0.02010100
v -0.02272800 -0.08957500 -0.02020700
v -0.02272800 -0.08957500 -0.02020700
v -0.02272800 -0.08957500 -0.02020700
v -0.02263200 -0.09097100 -0.02009500
v -0.02263200 -0.09097100 -0.02009500
v -0.02263200 -0.09097100 -0.02009500
v -0.02328200 -0.09104900 -0.02008900
v -0.02328200 -0.09104900 -0.02008900
v -0.02191500 -0.09166600 -0.02003900
v -0.02191500 -0.09166600 -0.02003900
v -0.02191600 -0.09143300 -0.02005800
v -0.02191600 -0.09143300 -0.02005800
v -0.02191600 -0.09143300 -0.02005800
v -0.02075300 -0.09135100 -0.02006400
v -0.02075300 -0.09135100 -0.02006400
v -0.02075300 -0.09135100 -0.02006400
v -0.02191600 -0.09117800 -0.02007800
v -0.02191600 -0.09117800 -0.02007800
v -0.02191600 -0.09117800 -0.02007800
v -0.02191600 -0.09095000 -0.02009700
v -0.02191600 -0.09095000 -0.02009700
vn 0.00028200 -0.07959500 -0.99682700
vn 0.00021700 -0.07960500 -0.99682600
vn 0.00030500 -0.07959900 -0.99682700
vn 0.00028200 -0.07959500 -0.99682700
vn -0.00001400 -0.07955000 -0.99683100
vn 0.00030300 -0.07960100 -0.99682700
vn 0.00035200 -0.07965100 -0.99682300
vn 0.00021700 -0.07960500 -0.99682600
vn 0.00034900 -0.07964200 -0.99682300
vn 0.00026400 -0.07958100 -0.99682800
vn 0.00019000 -0.07961000 -0.99682600
vn 0.00028200 -0.07959500 -0.99682700
vn 0.00030500 -0.07959900 -0.99682700
vn 0.00027100 -0.07954900 -0.99683100
vn 0.00023500 -0.07966800 -0.99682100
vn 0.00032900 -0.07959300 -0.99682700
vn 0.00028600 -0.07941400 -0.99684200
vn 0.00020800 -0.07950900 -0.99683400
vn 0.00065500 -0.07952600 -0.99683300
vn 0.00023500 -0.07966900 -0.99682100
vn 0.00030500 -0.07960700 -0.99682600
vn 0.00045800 -0.07955900 -0.99683000
vn 0.00023500 -0.07966800 -0.99682100
vn 0.00056900 -0.07958600 -0.99682800
vn 0.00032900 -0.07959300 -0.99682700
vn 0.00065500 -0.07952600 -0.99683300
vn 0.00022900 -0.07960500 -0.99682600
vn 0.00021700 -0.07960500 -0.99682600
vn -0.00001400 -0.07955000 -0.99683100
vn -0.00001400 -0.07955000 -0.99683100
vn 0.00030300 -0.07960100 -0.99682700
vn 0.00030300 -0.07960100 -0.99682700
vn 0.00026400 -0.07958100 -0.99682800
vn 0.00036800 -0.07961900 -0.99682500
vn 0.00029100 -0.07961100 -0.99682600
vn 0.00035400 -0.07958600 -0.99682800
vn 0.00031800 -0.07960600 -0.99682600
vn 0.00035400 -0.07958600 -0.99682800
vn 0.00021700 -0.07961500 -0.99682600
vn 0.00029300 -0.07958500 -0.99682800
vn 0.00029300 -0.07958500 -0.99682800
vn 0.00035400 -0.07958600 -0.99682800
vn 0.00029100 -0.07961100 -0.99682600
vn 0.00036400 -0.07955200 -0.99683100
vn 0.00041700 -0.07948400 -0.99683600
vn 0.00036400 -0.07955200 -0.99683100
vn 0.00016600 -0.07977000 -0.99681300
vn 0.00036000 -0.07954900 -0.99683100
vn 0.00016600 -0.07977000 -0.99681300
vn 0.00025400 -0.07961800 -0.99682500
vn 0.00041700 -0.07948400 -0.99683600
vn 0.00036400 -0.07955200 -0.99683100
vn 0.00035200 -0.07965100 -0.99682300
vn 0.00026400 -0.07958100 -0.99682800
vn 0.00034900 -0.07964200 -0.99682300
vn 0.00035200 -0.07965100 -0.99682300
vn 0.00024800 -0.07953400 -0.99683200
vn 0.00024800 -0.07953400 -0.99683200
vn 0.00028700 -0.07964000 -0.99682400
vn 0.00034900 -0.07964200 -0.99682300
vn 0.00035500 -0.07978000 -0.99681200
vn 0.00039000 -0.07969900 -0.99681900
vn 0.00028200 -0.07952800 -0.99683300
vn 0.00037800 -0.07990500 -0.99680200
vn 0.00029000 -0.07959300 -0.99682700
vn 0.00031600 -0.07962300 -0.99682500
vn 0.00039100 -0.07969900 -0.99681900
vn 0.00029000 -0.07958600 -0.99682800
vn 0.00035500 -0.07978000 -0.99681200
vn 0.00031600 -0.07962300 -0.99682500
vn 0.00037800 -0.07990500 -0.99680200
vn 0.00037800 -0.07990500 -0.99680200
vn 0.00035500 -0.07978000 -0.99681200
vn 0.00028700 -0.07964000 -0.99682400
vn 0.00024800 -0.07953400 -0.99683200
vn 0.00028700 -0.07964000 -0.99682400
vn 0.00021700 -0.07961500 -0.99682600
vn 0.00029300 -0.07958500 -0.99682800
vn 0.00020100 -0.07962800 -0.99682500
vn 0.00021700 -0.07961500 -0.99682600
vn 0.00020100 -0.07962800 -0.99682500
vn 0.00077000 -0.07962800 -0.99682400
vn 0.00077000 -0.07962800 -0.99682400
vn 0.00020100 -0.07962800 -0.99682500
vn 0.00028800 -0.07959800 -0.99682700
vn 0.00034500 -0.07960200 -0.99682700
vn 0.00029100 -0.07961100 -0.99682600
vn 0.00036800 -0.07961900 -0.99682500
vn 0.00027000 -0.07962600 -0.99682500
vn 0.00031800 -0.07960600 -0.99682600
vn 0.00036800 -0.07961900 -0.99682500
vn 0.00048900 -0.07958900 -0.99682800
vn 0.00027000 -0.07962600 -0.99682500
vn 0.00030500 -0.07960700 -0.99682600
vn 0.00031800 -0.07960600 -0.99682600
vn 0.00027100 -0.07954900 -0.99683100
vn 0.00014200 -0.07959100 -0.99682800
vn 0.00027100 -0.07954900 -0.99683100
vn 0.00019000 -0.07961000 -0.99682600
vn 0.00030500 -0.07959900 -0.99682700
vn 0.00019000 -0.07961000 -0.99682600
vn 0.00029900 -0.07936700 -0.99684500
vn 0.00028600 -0.07955400 -0.99683100
vn 0.00028600 -0.07955400 -0.99683100
vn 0.00028600 -0.07956000 -0.99683000
vn 0.00029900 -0.07936700 -0.99684500
vn 0.00034400 -0.07941100 -0.99684200
vn 0.00028600 -0.07955800 -0.99683000
vn 0.00029200 -0.07951300 -0.99683400
vn 0.00028600 -0.07956000 -0.99683000
vn 0.00028600 -0.07955400 -0.99683100
vn 0.00029000 -0.07961600 -0.99682600
vn 0.00029200 -0.07951300 -0.99683400
vn 0.00028600 -0.07956000 -0.99683000
vn 0.00029000 -0.07961600 -0.99682600
vn 0.00029200 -0.07951300 -0.99683400
vn 0.00022600 -0.07969500 -0.99681900
vn 0.00027100 -0.07961400 -0.99682600
vn 0.00022600 -0.07969500 -0.99681900
vn 0.00029000 -0.07961600 -0.99682600
vn 0.00022600 -0.07969500 -0.99681900
vn 0.00033700 -0.07957000 -0.99682900
vn 0.00033100 -0.07956900 -0.99682900
vn 0.00027100 -0.07961400 -0.99682600
vn -0.00000300 -0.07979300 -0.99681100
vn 0.00016600 -0.07977000 -0.99681300
vn 0.00036000 -0.07954900 -0.99683100
vn -0.00000300 -0.07979300 -0.99681100
vn 0.00036000 -0.07954900 -0.99683100
vn 0.00026100 -0.07962300 -0.99682500
vn -0.00000300 -0.07979300 -0.99681100
vn 0.00047400 -0.07956400 -0.99683000
vn 0.00026100 -0.07962300 -0.99682500
vn 0.00026100 -0.07962300 -0.99682500
vn 0.00032900 -0.07959200 -0.99682700
vn 0.00047400 -0.07956400 -0.99683000
vn 0.00047400 -0.07956400 -0.99683000
vn 0.00032900 -0.07959200 -0.99682700
vn 0.00047400 -0.07958800 -0.99682800
vn 0.00031100 -0.07957500 -0.99682900
vn 0.00033400 -0.07958600 -0.99682800
vn 0.00033200 -0.07958500 -0.99682800
vn 0.00047400 -0.07958800 -0.99682800
vn 0.00032900 -0.07959200 -0.99682700
vn 0.00031100 -0.07957500 -0.99682900
vn 0.00047400 -0.07958800 -0.99682800
vn 0.00039000 -0.07969900 -0.99681900
vn 0.00029000 -0.07958600 -0.99682800
vn 0.00028200 -0.07952800 -0.99683300
vn 0.00039000 -0.07969900 -0.99681900
vn 0.00031600 -0.07962300 -0.99682500
vn 0.00028200 -0.07952800 -0.99683300
vn 0.00034500 -0.07960200 -0.99682700
vn 0.00028800 -0.07959800 -0.99682700
vn 0.00031200 -0.07958300 -0.99682800
vn 0.00017800 -0.07958700 -0.99682800
vn 0.00017800 -0.07958700 -0.99682800
vn 0.00017800 -0.07958700 -0.99682800
vn 0.00031200 -0.07958300 -0.99682800
vn 0.00027000 -0.07962600 -0.99682500
vn 0.00048900 -0.07958900 -0.99682800
vn 0.00045800 -0.07955900 -0.99683000
vn 0.00048900 -0.07958900 -0.99682800
vn 0.00030500 -0.07960700 -0.99682600
vn 0.00028500 -0.07941400 -0.99684200
vn 0.00045800 -0.07955900 -0.99683000
vn 0.00032900 -0.07959300 -0.99682700
vn 0.00029700 -0.07953200 -0.99683200
vn 0.00026000 -0.07917900 -0.99686000
vn 0.00028600 -0.07941400 -0.99684200
vn 0.00029700 -0.07953200 -0.99683200
vn 0.00026000 -0.07917900 -0.99686000
vn 0.00034200 -0.07988000 -0.99680400
vn 0.00029700 -0.07953200 -0.99683200
vn 0.00028200 -0.07966100 -0.99682200
vn 0.00034200 -0.07988000 -0.99680400
vn 0.00025600 -0.07957800 -0.99682900
vn 0.00041700 -0.07948400 -0.99683600
vn 0.00029000 -0.07959300 -0.99682700
vn 0.00025400 -0.07961800 -0.99682500
vn 0.00029000 -0.07959300 -0.99682700
vn 0.00025400 -0.07961900 -0.99682500
vn 0.00039100 -0.07969900 -0.99681900
vn 0.00039100 -0.07969900 -0.99681900
vn 0.00029000 -0.07958600 -0.99682800
vn 0.00077000 -0.07962800 -0.99682400
vn 0.00034500 -0.07960200 -0.99682700
vn 0.00028800 -0.07959800 -0.99682700
vn 0.00031200 -0.07958300 -0.99682800
vn 0.00027100 -0.07961400 -0.99682600
vn 0.00033700 -0.07957000 -0.99682900
vn 0.00033700 -0.07957000 -0.99682900
vn 0.00026500 -0.07958300 -0.99682800
vn 0.00033100 -0.07956900 -0.99682900
vn 0.00033100 -0.07956900 -0.99682900
vn 0.00014200 -0.07959100 -0.99682800
vn 0.00026500 -0.07958300 -0.99682800
vn 0.00026500 -0.07958300 -0.99682800
vn 0.00014200 -0.07959100 -0.99682800
vn 0.00065500 -0.07952600 -0.99683300
vn 0.00056900 -0.07958600 -0.99682800
vn 0.00026000 -0.07958900 -0.99682800
vn 0.00056900 -0.07958600 -0.99682800
vn 0.00022900 -0.07960500 -0.99682600
vn 0.00022900 -0.07960500 -0.99682600
vn 0.00026000 -0.07958900 -0.99682800
vn 0.00033200 -0.07958500 -0.99682800
vn 0.00026000 -0.07958900 -0.99682800
vn 0.00033400 -0.07958600 -0.99682800
vn 0.00033200 -0.07958500 -0.99682800
vn 0.00031100 -0.07957500 -0.99682900
vn 0.00033400 -0.07958600 -0.99682800
vn 0.00034400 -0.07941100 -0.99684200
vn 0.00029900 -0.07936700 -0.99684500
vn 0.00034400 -0.07941100 -0.99684200
vn 0.00028800 -0.07960200 -0.99682700
vn 0.00028600 -0.07955800 -0.99683000
vn 0.00028600 -0.07955800 -0.99683000
vn 0.00028200 -0.07966100 -0.99682200
vn 0.00028800 -0.07960200 -0.99682700
vn 0.00028200 -0.07966100 -0.99682200
vn 0.00025600 -0.07957800 -0.99682900
vn 0.00028800 -0.07960200 -0.99682700
vn 0.00025600 -0.07957800 -0.99682900
vn 0.00034200 -0.07988000 -0.99680400
f 1//1 4//4 12//12
f 15//15 20//20 23//23
f 2//2 28//28 8//8
f 5//5 29//29 30//30
f 6//6 31//31 32//32
f 36//36 38//38 42//42
f 44//44 46//46 52//52
f 33//33 54//54 10//10
f 7//7 53//53 56//56
f 9//9 55//55 60//60
f 64//64 71//71 72//72
f 73//73 69//69 61//61
f 74//74 59//59 76//76
f 75//75 58//58 57//57
f 41//41 40//40 78//78
f 77//77 39//39 80//80
f 79//79 81//81 84//84
f 43//43 87//87 35//35
f 34//34 88//88 91//91
f 37//37 90//90 95//95
f 96//96 98//98 14//14
f 11//11 99//99 101//101
f 13//13 100//100 3//3
f 103//103 104//104 111//111
f 110//110 105//105 114//114
f 109//109 113//113 116//116
f 115//115 112//112 120//120
f 117//117 119//119 121//121
f 49//49 47//47 126//126
f 127//127 48//48 129//129
f 125//125 128//128 131//131
f 133//133 130//130 134//134
f 132//132 136//136 137//137
f 138//138 135//135 144//144
f 139//139 143//143 146//146
f 147//147 150//150 62//62
f 63//63 149//149 152//152
f 66//66 151//151 70//70
f 156//156 157//157 158//158
f 89//89 160//160 93//93
f 92//92 161//161 163//163
f 94//94 164//164 21//21
f 22//22 162//162 166//166
f 25//25 167//167 16//16
f 17//17 165//165 170//170
f 18//18 169//169 172//172
f 171//171 168//168 174//174
f 45//45 51//51 178//178
f 180//180 50//50 182//182
f 179//179 181//181 65//65
f 67//67 183//183 184//184
f 68//68 185//185 148//148
f 82//82 186//186 83//83
f 86//86 187//187 153//153
f 85//85 154//154 188//188
f 189//189 155//155 159//159
f 118//118 190//190 124//124
f 122//122 191//191 192//192
f 123//123 194//194 195//195
f 197//197 193//193 198//198
f 196//196 199//199 97//97
f 19//19 200//200 26//26
f 24//24 201//201 203//203
f 27//27 204//204 205//205
f 206//206 202//202 208//208
f 207//207 210//210 142//142
f 141//141 209//209 212//212
f 140//140 211//211 145//145
f 102//102 214//214 106//106
f 107//107 213//213 215//215
f 108//108 217//217 218//218
f 220//220 216//216 223//223
f 219//219 221//221 175//175
f 177//177 222//222 224//224
f 176//176 225//225 173//173

