# https://github.com/mikedh/trimesh
v 0.14976200 -0.02292200 -0.02050000
v 0.14976200 -0.02292200 -0.02040000
v 0.14994500 -0.02269500 -0.02040000
v 0.14994500 -0.02269500 -0.02050000
v 0.15016100 -0.02251200 -0.02040000
v 0.15016100 -0.02251200 -0.02050000
v 0.15041100 -0.02237300 -0.02040000
v 0.15041100 -0.02237300 -0.02050000
v 0.15068600 -0.02228400 -0.02040000
v 0.15068600 -0.02228400 -0.02050000
v 0.15075700 -0.02227000 -0.02040000
v 0.15075700 -0.02227000 -0.02050000
v 0.15105100 -0.02224900 -0.02040000
v 0.15105100 -0.02224900 -0.02050000
v 0.15134500 -0.02228600 -0.02040000
v 0.15134500 -0.02228600 -0.02050000
v 0.15162600 -0.02238200 -0.02040000
v 0.15162600 -0.02238200 -0.02050000
v 0.15182400 -0.02249200 -0.02040000
v 0.15182400 -0.02249200 -0.02050000
v 0.15205100 -0.02267400 -0.02040000
v 0.15205100 -0.02267400 -0.02050000
v 0.15223500 -0.02289100 -0.02040000
v 0.15223500 -0.02289100 -0.02050000
v 0.15237400 -0.02314200 -0.02040000
v 0.15237400 -0.02314200 -0.02050000
v 0.15246400 -0.02342200 -0.02040000
v 0.15246400 -0.02342200 -0.02050000
v 0.15249800 -0.02371400 -0.02040000
v 0.15249800 -0.02371400 -0.02050000
v 0.15247400 -0.02400900 -0.02040000
v 0.15247400 -0.02400900 -0.02050000
v 0.15239000 -0.02429500 -0.02040000
v 0.15239000 -0.02429500 -0.02050000
v 0.15233900 -0.02441000 -0.02040000
v 0.15233900 -0.02441000 -0.02050000
v 0.15217600 -0.02479400 -0.02040000
v 0.15217600 -0.02479400 -0.02050000
v 0.15207000 -0.02519000 -0.02040000
v 0.15207000 -0.02519000 -0.02050000
v 0.15201800 -0.02559900 -0.02040000
v 0.15201800 -0.02559900 -0.02050000
v 0.15202200 -0.02601300 -0.02040000
v 0.15202200 -0.02601300 -0.02050000
v 0.15207300 -0.02638100 -0.02040000
v 0.15207300 -0.02638100 -0.02050000
v 0.15218500 -0.02678500 -0.02040000
v 0.15218500 -0.02678500 -0.02050000
v 0.15235100 -0.02717200 -0.02040000
v 0.15235100 -0.02717200 -0.02050000
v 0.15257100 -0.02753200 -0.02040000
v 0.15257100 -0.02753200 -0.02050000
v 0.15283900 -0.02785900 -0.02040000
v 0.15283900 -0.02785900 -0.02050000
v 0.15308500 -0.02809300 -0.02040000
v 0.15308500 -0.02809300 -0.02050000
v 0.15325300 -0.02827200 -0.02040000
v 0.15325300 -0.02827200 -0.02050000
v 0.15337300 -0.02847900 -0.02040000
v 0.15337300 -0.02847900 -0.02050000
v 0.15344400 -0.02871100 -0.02040000
v 0.15344400 -0.02871100 -0.02050000
v 0.15346200 -0.02893000 -0.02040000
v 0.15346200 -0.02893000 -0.02050000
v 0.15342800 -0.02917800 -0.02040000
v 0.15342800 -0.02917800 -0.02050000
v 0.15333600 -0.02941200 -0.02040000
v 0.15333600 -0.02941200 -0.02050000
v 0.15320900 -0.02959800 -0.02040000
v 0.15320900 -0.02959800 -0.02050000
v 0.15303000 -0.02976600 -0.02040000
v 0.15303000 -0.02976600 -0.02050000
v 0.15282300 -0.02988600 -0.02040000
v 0.15282300 -0.02988600 -0.02050000
v 0.15259100 -0.02995700 -0.02040000
v 0.15259100 -0.02995700 -0.02050000
v 0.15237200 -0.02997500 -0.02040000
v 0.15237200 -0.02997500 -0.02050000
v 0.15212400 -0.02994100 -0.02040000
v 0.15212400 -0.02994100 -0.02050000
v 0.15189000 -0.02984900 -0.02040000
v 0.15189000 -0.02984900 -0.02050000
v 0.15170400 -0.02972200 -0.02040000
v 0.15170400 -0.02972200 -0.02050000
v 0.15153600 -0.02954200 -0.02040000
v 0.15153600 -0.02954200 -0.02050000
v 0.15141500 -0.02933300 -0.02040000
v 0.15141500 -0.02933300 -0.02050000
v 0.15134300 -0.02909500 -0.02040000
v 0.15134300 -0.02909500 -0.02050000
v 0.15132800 -0.02884600 -0.02040000
v 0.15132800 -0.02884600 -0.02050000
v 0.15136700 -0.02861700 -0.02040000
v 0.15136700 -0.02861700 -0.02050000
v 0.15138900 -0.02854700 -0.02040000
v 0.15138900 -0.02854700 -0.02050000
v 0.15150200 -0.02814600 -0.02040000
v 0.15150200 -0.02814600 -0.02050000
v 0.15155900 -0.02773900 -0.02040000
v 0.15155900 -0.02773900 -0.02050000
v 0.15156000 -0.02732800 -0.02040000
v 0.15156000 -0.02732800 -0.02050000
v 0.15150500 -0.02691700 -0.02040000
v 0.15150500 -0.02691700 -0.02050000
v 0.15140900 -0.02655900 -0.02040000
v 0.15140900 -0.02655900 -0.02050000
v 0.15124800 -0.02617100 -0.02040000
v 0.15124800 -0.02617100 -0.02050000
v 0.15103500 -0.02580800 -0.02040000
v 0.15103500 -0.02580800 -0.02050000
v 0.15077300 -0.02547800 -0.02040000
v 0.15077300 -0.02547800 -0.02050000
v 0.15046600 -0.02518600 -0.02040000
v 0.15046600 -0.02518600 -0.02050000
v 0.15019300 -0.02498500 -0.02040000
v 0.15019300 -0.02498500 -0.02050000
v 0.14996600 -0.02480200 -0.02040000
v 0.14996600 -0.02480200 -0.02050000
v 0.14978300 -0.02458500 -0.02040000
v 0.14978300 -0.02458500 -0.02050000
v 0.14964400 -0.02433600 -0.02040000
v 0.14964400 -0.02433600 -0.02050000
v 0.14955400 -0.02406000 -0.02040000
v 0.14955400 -0.02406000 -0.02050000
v 0.14954100 -0.02399000 -0.02040000
v 0.14954100 -0.02399000 -0.02050000
v 0.14951900 -0.02369600 -0.02040000
v 0.14951900 -0.02369600 -0.02050000
v 0.14955700 -0.02340300 -0.02040000
v 0.14955700 -0.02340300 -0.02050000
v 0.14965300 -0.02312100 -0.02040000
v 0.14965300 -0.02312100 -0.02050000
v 0.15046600 -0.02518600 -0.02050000
v 0.15046600 -0.02518600 -0.02050000
v 0.15046600 -0.02518600 -0.02050000
v 0.15046600 -0.02518600 -0.02050000
v 0.15046600 -0.02518600 -0.02050000
v 0.15223500 -0.02289100 -0.02050000
v 0.15223500 -0.02289100 -0.02050000
v 0.15237400 -0.02314200 -0.02050000
v 0.15237400 -0.02314200 -0.02050000
v 0.15239000 -0.02429500 -0.02050000
v 0.15239000 -0.02429500 -0.02050000
v 0.15233900 -0.02441000 -0.02050000
v 0.15233900 -0.02441000 -0.02050000
v 0.15077300 -0.02547800 -0.02050000
v 0.15077300 -0.02547800 -0.02050000
v 0.15077300 -0.02547800 -0.02050000
v 0.15077300 -0.02547800 -0.02050000
v 0.15217600 -0.02479400 -0.02050000
v 0.15217600 -0.02479400 -0.02050000
v 0.15103500 -0.02580800 -0.02050000
v 0.15103500 -0.02580800 -0.02050000
v 0.15217600 -0.02479400 -0.02050000
v 0.15207000 -0.02519000 -0.02050000
v 0.15207000 -0.02519000 -0.02050000
v 0.15124800 -0.02617100 -0.02050000
v 0.15124800 -0.02617100 -0.02050000
v 0.15124800 -0.02617100 -0.02050000
v 0.15124800 -0.02617100 -0.02050000
v 0.15257100 -0.02753200 -0.02050000
v 0.15283900 -0.02785900 -0.02050000
v 0.15283900 -0.02785900 -0.02050000
v 0.15283900 -0.02785900 -0.02050000
v 0.15136700 -0.02861700 -0.02050000
v 0.15136700 -0.02861700 -0.02050000
v 0.14996600 -0.02480200 -0.02050000
v 0.14996600 -0.02480200 -0.02050000
v 0.14978300 -0.02458500 -0.02050000
v 0.15205100 -0.02267400 -0.02050000
v 0.15205100 -0.02267400 -0.02050000
v 0.15205100 -0.02267400 -0.02050000
v 0.15138900 -0.02854700 -0.02050000
v 0.15257100 -0.02753200 -0.02050000
v 0.15150200 -0.02814600 -0.02050000
v 0.15235100 -0.02717200 -0.02050000
v 0.15141500 -0.02933300 -0.02050000
v 0.15134300 -0.02909500 -0.02050000
v 0.15134300 -0.02909500 -0.02050000
v 0.15283900 -0.02785900 -0.02050000
v 0.15283900 -0.02785900 -0.02050000
v 0.15132800 -0.02884600 -0.02050000
v 0.15132800 -0.02884600 -0.02050000
v 0.15325300 -0.02827200 -0.02050000
v 0.15325300 -0.02827200 -0.02050000
v 0.15337300 -0.02847900 -0.02050000
v 0.15337300 -0.02847900 -0.02050000
v 0.15153600 -0.02954200 -0.02050000
v 0.15153600 -0.02954200 -0.02050000
v 0.15153600 -0.02954200 -0.02050000
v 0.15153600 -0.02954200 -0.02050000
v 0.15344400 -0.02871100 -0.02050000
v 0.15344400 -0.02871100 -0.02050000
v 0.15170400 -0.02972200 -0.02050000
v 0.15170400 -0.02972200 -0.02050000
v 0.15246400 -0.02342200 -0.02050000
v 0.15246400 -0.02342200 -0.02050000
v 0.15249800 -0.02371400 -0.02050000
v 0.15249800 -0.02371400 -0.02050000
v 0.15249800 -0.02371400 -0.02050000
v 0.15247400 -0.02400900 -0.02050000
v 0.15247400 -0.02400900 -0.02050000
v 0.15019300 -0.02498500 -0.02050000
v 0.15019300 -0.02498500 -0.02050000
v 0.14964400 -0.02433600 -0.02050000
v 0.14964400 -0.02433600 -0.02050000
v 0.15205100 -0.02267400 -0.02050000
v 0.15205100 -0.02267400 -0.02050000
v 0.14955400 -0.02406000 -0.02050000
v 0.14955400 -0.02406000 -0.02050000
v 0.14955400 -0.02406000 -0.02050000
v 0.14955400 -0.02406000 -0.02050000
v 0.14955400 -0.02406000 -0.02050000
v 0.14955400 -0.02406000 -0.02050000
v 0.14955400 -0.02406000 -0.02050000
v 0.14955400 -0.02406000 -0.02050000
v 0.15182400 -0.02249200 -0.02050000
v 0.15182400 -0.02249200 -0.02050000
v 0.15308500 -0.02809300 -0.02050000
v 0.15308500 -0.02809300 -0.02050000
v 0.15282300 -0.02988600 -0.02050000
v 0.15282300 -0.02988600 -0.02050000
v 0.15259100 -0.02995700 -0.02050000
v 0.15259100 -0.02995700 -0.02050000
v 0.15344400 -0.02871100 -0.02050000
v 0.15344400 -0.02871100 -0.02050000
v 0.15344400 -0.02871100 -0.02050000
v 0.15344400 -0.02871100 -0.02050000
v 0.15344400 -0.02871100 -0.02050000
v 0.15344400 -0.02871100 -0.02050000
v 0.15344400 -0.02871100 -0.02050000
v 0.15237200 -0.02997500 -0.02050000
v 0.15237200 -0.02997500 -0.02050000
v 0.14951900 -0.02369600 -0.02050000
v 0.14955700 -0.02340300 -0.02050000
v 0.14965300 -0.02312100 -0.02050000
v 0.14994500 -0.02269500 -0.02050000
v 0.14994500 -0.02269500 -0.02050000
v 0.15016100 -0.02251200 -0.02050000
v 0.14954100 -0.02399000 -0.02050000
v 0.14954100 -0.02399000 -0.02050000
v 0.14954100 -0.02399000 -0.02050000
v 0.14954100 -0.02399000 -0.02050000
v 0.15155900 -0.02773900 -0.02050000
v 0.15235100 -0.02717200 -0.02050000
v 0.15235100 -0.02717200 -0.02050000
v 0.15156000 -0.02732800 -0.02050000
v 0.15156000 -0.02732800 -0.02050000
v 0.15156000 -0.02732800 -0.02050000
v 0.15218500 -0.02678500 -0.02050000
v 0.15218500 -0.02678500 -0.02050000
v 0.15218500 -0.02678500 -0.02050000
v 0.15150500 -0.02691700 -0.02050000
v 0.15150500 -0.02691700 -0.02050000
v 0.15207300 -0.02638100 -0.02050000
v 0.15140900 -0.02655900 -0.02050000
v 0.15140900 -0.02655900 -0.02050000
v 0.15202200 -0.02601300 -0.02050000
v 0.15202200 -0.02601300 -0.02050000
v 0.15202200 -0.02601300 -0.02050000
v 0.15201800 -0.02559900 -0.02050000
v 0.15201800 -0.02559900 -0.02050000
v 0.15207000 -0.02519000 -0.02050000
v 0.15342800 -0.02917800 -0.02050000
v 0.15333600 -0.02941200 -0.02050000
v 0.15333600 -0.02941200 -0.02050000
v 0.15346200 -0.02893000 -0.02050000
v 0.15346200 -0.02893000 -0.02050000
v 0.15346200 -0.02893000 -0.02050000
v 0.15320900 -0.02959800 -0.02050000
v 0.15320900 -0.02959800 -0.02050000
v 0.15320900 -0.02959800 -0.02050000
v 0.15303000 -0.02976600 -0.02050000
v 0.15303000 -0.02976600 -0.02050000
v 0.14976200 -0.02292200 -0.02050000
v 0.14976200 -0.02292200 -0.02050000
v 0.15041100 -0.02237300 -0.02050000
v 0.15041100 -0.02237300 -0.02050000
v 0.15068600 -0.02228400 -0.02050000
v 0.15068600 -0.02228400 -0.02050000
v 0.15068600 -0.02228400 -0.02050000
v 0.15075700 -0.02227000 -0.02050000
v 0.15075700 -0.02227000 -0.02050000
v 0.15105100 -0.02224900 -0.02050000
v 0.15105100 -0.02224900 -0.02050000
v 0.15212400 -0.02994100 -0.02050000
v 0.15212400 -0.02994100 -0.02050000
v 0.15189000 -0.02984900 -0.02050000
v 0.15189000 -0.02984900 -0.02050000
v 0.15134500 -0.02228600 -0.02050000
v 0.15134500 -0.02228600 -0.02050000
v 0.15162600 -0.02238200 -0.02050000
v 0.15162600 -0.02238200 -0.02050000
v 0.14954100 -0.02399000 -0.02040000
v 0.14954100 -0.02399000 -0.02040000
v 0.14954100 -0.02399000 -0.02040000
v 0.14954100 -0.02399000 -0.02040000
v 0.14954100 -0.02399000 -0.02040000
v 0.14954100 -0.02399000 -0.02040000
v 0.14955400 -0.02406000 -0.02040000
v 0.14955400 -0.02406000 -0.02040000
v 0.14955400 -0.02406000 -0.02040000
v 0.14955400 -0.02406000 -0.02040000
v 0.14955400 -0.02406000 -0.02040000
v 0.14955400 -0.02406000 -0.02040000
v 0.14955400 -0.02406000 -0.02040000
v 0.14955400 -0.02406000 -0.02040000
v 0.15068600 -0.02228400 -0.02040000
v 0.15068600 -0.02228400 -0.02040000
v 0.15068600 -0.02228400 -0.02040000
v 0.15150200 -0.02814600 -0.02040000
v 0.15150200 -0.02814600 -0.02040000
v 0.15138900 -0.02854700 -0.02040000
v 0.15138900 -0.02854700 -0.02040000
v 0.15257100 -0.02753200 -0.02040000
v 0.15257100 -0.02753200 -0.02040000
v 0.15075700 -0.02227000 -0.02040000
v 0.15075700 -0.02227000 -0.02040000
v 0.14964400 -0.02433600 -0.02040000
v 0.14964400 -0.02433600 -0.02040000
v 0.14978300 -0.02458500 -0.02040000
v 0.14978300 -0.02458500 -0.02040000
v 0.15205100 -0.02267400 -0.02040000
v 0.15205100 -0.02267400 -0.02040000
v 0.15205100 -0.02267400 -0.02040000
v 0.15205100 -0.02267400 -0.02040000
v 0.15205100 -0.02267400 -0.02040000
v 0.15283900 -0.02785900 -0.02040000
v 0.15283900 -0.02785900 -0.02040000
v 0.15283900 -0.02785900 -0.02040000
v 0.15136700 -0.02861700 -0.02040000
v 0.15136700 -0.02861700 -0.02040000
v 0.15132800 -0.02884600 -0.02040000
v 0.15246400 -0.02342200 -0.02040000
v 0.15246400 -0.02342200 -0.02040000
v 0.15237400 -0.02314200 -0.02040000
v 0.15237400 -0.02314200 -0.02040000
v 0.15046600 -0.02518600 -0.02040000
v 0.15046600 -0.02518600 -0.02040000
v 0.15046600 -0.02518600 -0.02040000
v 0.15046600 -0.02518600 -0.02040000
v 0.15046600 -0.02518600 -0.02040000
v 0.15223500 -0.02289100 -0.02040000
v 0.15223500 -0.02289100 -0.02040000
v 0.15019300 -0.02498500 -0.02040000
v 0.15019300 -0.02498500 -0.02040000
v 0.14996600 -0.02480200 -0.02040000
v 0.15233900 -0.02441000 -0.02040000
v 0.15233900 -0.02441000 -0.02040000
v 0.15239000 -0.02429500 -0.02040000
v 0.15239000 -0.02429500 -0.02040000
v 0.15077300 -0.02547800 -0.02040000
v 0.15077300 -0.02547800 -0.02040000
v 0.15077300 -0.02547800 -0.02040000
v 0.15077300 -0.02547800 -0.02040000
v 0.15077300 -0.02547800 -0.02040000
v 0.15247400 -0.02400900 -0.02040000
v 0.15247400 -0.02400900 -0.02040000
v 0.15247400 -0.02400900 -0.02040000
v 0.15249800 -0.02371400 -0.02040000
v 0.15249800 -0.02371400 -0.02040000
v 0.15124800 -0.02617100 -0.02040000
v 0.15124800 -0.02617100 -0.02040000
v 0.15124800 -0.02617100 -0.02040000
v 0.15201800 -0.02559900 -0.02040000
v 0.15201800 -0.02559900 -0.02040000
v 0.15201800 -0.02559900 -0.02040000
v 0.15103500 -0.02580800 -0.02040000
v 0.15103500 -0.02580800 -0.02040000
v 0.15207000 -0.02519000 -0.02040000
v 0.15207000 -0.02519000 -0.02040000
v 0.15217600 -0.02479400 -0.02040000
v 0.15217600 -0.02479400 -0.02040000
v 0.15155900 -0.02773900 -0.02040000
v 0.15155900 -0.02773900 -0.02040000
v 0.15235100 -0.02717200 -0.02040000
v 0.15156000 -0.02732800 -0.02040000
v 0.15134300 -0.02909500 -0.02040000
v 0.15134300 -0.02909500 -0.02040000
v 0.15141500 -0.02933300 -0.02040000
v 0.15141500 -0.02933300 -0.02040000
v 0.15308500 -0.02809300 -0.02040000
v 0.15153600 -0.02954200 -0.02040000
v 0.15153600 -0.02954200 -0.02040000
v 0.15153600 -0.02954200 -0.02040000
v 0.15325300 -0.02827200 -0.02040000
v 0.15325300 -0.02827200 -0.02040000
v 0.15337300 -0.02847900 -0.02040000
v 0.15337300 -0.02847900 -0.02040000
v 0.15182400 -0.02249200 -0.02040000
v 0.15182400 -0.02249200 -0.02040000
v 0.15162600 -0.02238200 -0.02040000
v 0.15162600 -0.02238200 -0.02040000
v 0.15344400 -0.02871100 -0.02040000
v 0.15344400 -0.02871100 -0.02040000
v 0.15344400 -0.02871100 -0.02040000
v 0.15344400 -0.02871100 -0.02040000
v 0.15344400 -0.02871100 -0.02040000
v 0.15344400 -0.02871100 -0.02040000
v 0.15344400 -0.02871100 -0.02040000
v 0.15259100 -0.02995700 -0.02040000
v 0.15259100 -0.02995700 -0.02040000
v 0.15282300 -0.02988600 -0.02040000
v 0.15282300 -0.02988600 -0.02040000
v 0.15041100 -0.02237300 -0.02040000
v 0.15041100 -0.02237300 -0.02040000
v 0.15016100 -0.02251200 -0.02040000
v 0.15016100 -0.02251200 -0.02040000
v 0.14994500 -0.02269500 -0.02040000
v 0.14994500 -0.02269500 -0.02040000
v 0.14976200 -0.02292200 -0.02040000
v 0.14976200 -0.02292200 -0.02040000
v 0.14965300 -0.02312100 -0.02040000
v 0.14965300 -0.02312100 -0.02040000
v 0.14951900 -0.02369600 -0.02040000
v 0.14955700 -0.02340300 -0.02040000
v 0.15170400 -0.02972200 -0.02040000
v 0.15170400 -0.02972200 -0.02040000
v 0.15189000 -0.02984900 -0.02040000
v 0.15303000 -0.02976600 -0.02040000
v 0.15303000 -0.02976600 -0.02040000
v 0.15320900 -0.02959800 -0.02040000
v 0.15320900 -0.02959800 -0.02040000
v 0.15320900 -0.02959800 -0.02040000
v 0.15346200 -0.02893000 -0.02040000
v 0.15346200 -0.02893000 -0.02040000
v 0.15346200 -0.02893000 -0.02040000
v 0.15333600 -0.02941200 -0.02040000
v 0.15333600 -0.02941200 -0.02040000
v 0.15342800 -0.02917800 -0.02040000
v 0.15150500 -0.02691700 -0.02040000
v 0.15150500 -0.02691700 -0.02040000
v 0.15218500 -0.02678500 -0.02040000
v 0.15218500 -0.02678500 -0.02040000
v 0.15140900 -0.02655900 -0.02040000
v 0.15140900 -0.02655900 -0.02040000
v 0.15207300 -0.02638100 -0.02040000
v 0.15207300 -0.02638100 -0.02040000
v 0.15202200 -0.02601300 -0.02040000
v 0.15202200 -0.02601300 -0.02040000
v 0.15134500 -0.02228600 -0.02040000
v 0.15134500 -0.02228600 -0.02040000
v 0.15105100 -0.02224900 -0.02040000
v 0.15105100 -0.02224900 -0.02040000
v 0.15212400 -0.02994100 -0.02040000
v 0.15212400 -0.02994100 -0.02040000
v 0.15237200 -0.02997500 -0.02040000
v 0.15237200 -0.02997500 -0.02040000
vn -0.81442600 0.58026700 0.00001400
vn -0.84645600 0.53245900 -0.00001100
vn -0.73776700 0.67505600 -0.00001200
vn -0.69250600 0.72141200 0.00000000
vn -0.59427000 0.80426600 -0.00001200
vn -0.54135200 0.84079600 0.00000000
vn -0.42919400 0.90321200 -0.00001500
vn -0.37004200 0.92901500 -0.00001100
vn -0.27103100 0.96257100 -0.00001000
vn -0.23208000 0.97269700 0.00000000
vn -0.15258900 0.98829000 0.00000100
vn -0.11209600 0.99369700 0.00000000
vn -0.00533900 0.99998600 -0.00001600
vn 0.06103900 0.99813500 0.00000000
vn 0.19287400 0.98122300 -0.00001300
vn 0.25829000 0.96606700 0.00000000
vn 0.37723300 0.92611800 0.00000000
vn 0.43104400 0.90233100 0.00001300
vn 0.53262800 0.84634900 -0.00000000
vn 0.58038200 0.81434400 0.00000000
vn 0.67514700 0.73768300 0.00000100
vn 0.72150300 0.69241100 0.00001200
vn 0.80443400 0.59404200 0.00000100
vn 0.84101500 0.54101200 0.00000000
vn 0.90364000 0.42829200 0.00000000
vn 0.92958000 0.36862000 0.00001600
vn 0.96960800 0.24466600 0.00000000
vn 0.98359600 0.18038800 0.00001300
vn 0.99877100 0.04956600 0.00000100
vn 0.99985900 -0.01679900 0.00000000
vn 0.98880300 -0.14922700 0.00000000
vn 0.97658700 -0.21512300 0.00001500
vn 0.94570700 -0.32502100 0.00000000
vn 0.92925300 -0.36944400 0.00000000
vn 0.91434800 -0.40493000 0.00000000
vn 0.91785400 -0.39691900 0.00000000
vn 0.93808400 -0.34640800 0.00000000
vn 0.95287100 -0.30337700 0.00000000
vn 0.97646500 -0.21567600 0.00000000
vn 0.98523500 -0.17120800 0.00000000
vn 0.99669600 -0.08122400 0.00000000
vn 0.99935700 -0.03585000 0.00000000
vn 0.99861100 0.05268200 0.00000000
vn 0.99541200 0.09568200 0.00000000
vn 0.98343800 0.18124600 0.00000000
vn 0.97465000 0.22373600 0.00000000
vn 0.95077100 0.30989400 0.00000000
vn 0.93545600 0.35344400 0.00000000
vn 0.89880100 0.43835700 0.00000000
vn 0.87748100 0.47961200 0.00000000
vn 0.82914700 0.55903100 0.00000000
vn 0.80216900 0.59709700 0.00000000
vn 0.74629400 0.66561600 0.00000000
vn 0.71775800 0.69629300 0.00000000
vn 0.70218400 0.71199500 -0.00000500
vn 0.71615900 0.69793700 0.00000000
vn 0.77964300 0.62622400 0.00000000
vn 0.82516000 0.56489900 0.00001500
vn 0.90089800 0.43403000 -0.00000000
vn 0.93114600 0.36464700 0.00000000
vn 0.97454900 0.22417300 0.00000000
vn 0.98816800 0.15337400 0.00001400
vn 0.99995900 0.00902500 0.00000000
vn 0.99792400 -0.06439800 0.00000000
vn 0.97670300 -0.21459300 -0.00001900
vn 0.95667900 -0.29114400 0.00000000
vn 0.90094700 -0.43392800 0.00000000
vn 0.86584400 -0.50031400 0.00001400
vn 0.78281400 -0.62225600 0.00000000
vn 0.73513100 -0.67792500 0.00001600
vn 0.62640900 -0.77949500 -0.00001700
vn 0.56507500 -0.82504000 0.00000000
vn 0.43421600 -0.90080900 -0.00001800
vn 0.36484600 -0.93106800 0.00001400
vn 0.22427600 -0.97452600 0.00000000
vn 0.15336000 -0.98817000 0.00000000
vn 0.00894300 -0.99996000 0.00000000
vn -0.06447100 -0.99792000 0.00001400
vn -0.21476600 -0.97666500 0.00000000
vn -0.29136600 -0.95661200 0.00001900
vn -0.43416800 -0.90083200 0.00000000
vn -0.50058600 -0.86568700 0.00001400
vn -0.62256000 -0.78257200 0.00000000
vn -0.67817000 -0.73490500 0.00000000
vn -0.77993200 -0.62586400 0.00000000
vn -0.82556000 -0.56431500 0.00000000
vn -0.90181100 -0.43213200 0.00000000
vn -0.93234100 -0.36158100 0.00000000
vn -0.97680700 -0.21412100 -0.00001500
vn -0.99053100 -0.13728700 0.00000000
vn -0.99988300 0.01531300 0.00000000
vn -0.99585400 0.09096700 0.00001500
vn -0.97715100 0.21254800 -0.00001200
vn -0.96587500 0.25900900 0.00000000
vn -0.95585800 0.29382900 0.00000000
vn -0.95915200 0.28289100 0.00000000
vn -0.97372700 0.22771800 0.00000000
vn -0.98308000 0.18317700 0.00000000
vn -0.99563900 0.09328500 0.00000000
vn -0.99884400 0.04807600 0.00000000
vn -0.99909000 -0.04266000 0.00000000
vn -0.99612400 -0.08796400 0.00000000
vn -0.98445200 -0.17565300 0.00000000
vn -0.97595400 -0.21797800 0.00000000
vn -0.95350500 -0.30137800 0.00000000
vn -0.93954800 -0.34241700 0.00000000
vn -0.90520800 -0.42496900 0.00000000
vn -0.88464600 -0.46626300 0.00000000
vn -0.83778500 -0.54600000 0.00000000
vn -0.81152900 -0.58431300 0.00000000
vn -0.75374300 -0.65716900 0.00000000
vn -0.72229200 -0.69158800 0.00000000
vn -0.65836400 -0.75270000 0.00000000
vn -0.62625000 -0.77962200 0.00000000
vn -0.60421000 -0.79682500 0.00000000
vn -0.61519000 -0.78837900 0.00000000
vn -0.67509600 -0.73773000 0.00000000
vn -0.72142400 -0.69249400 0.00000000
vn -0.80430700 -0.59421400 0.00000100
vn -0.84082100 -0.54131300 0.00000000
vn -0.90323100 -0.42915400 0.00000000
vn -0.92901100 -0.37005300 0.00001200
vn -0.96254600 -0.27111900 0.00000000
vn -0.97266800 -0.23220100 0.00000800
vn -0.98825000 -0.15284400 0.00000000
vn -0.99366800 -0.11235200 0.00000000
vn -0.99998400 -0.00562400 0.00000000
vn -0.99815900 0.06065100 0.00000000
vn -0.98128700 0.19255100 -0.00001200
vn -0.96618300 0.25785900 0.00000000
vn -0.92624900 0.37691200 0.00000000
vn -0.90246400 0.43076600 0.00001100
vn -0.00000400 0.00000000 -1.00000000
vn -0.00000600 0.00000100 -1.00000000
vn 0.00000000 0.00000000 -1.00000000
vn -0.00000400 0.00000000 -1.00000000
vn 0.00001000 -0.00000100 -1.00000000
vn -0.00000600 0.00000100 -1.00000000
vn 0.00000000 0.00000000 -1.00000000
vn 0.00001000 -0.00000100 -1.00000000
vn -0.00000600 0.00000100 -1.00000000
vn 0.00000000 0.00000000 -1.00000000
vn 0.00000500 -0.00000100 -1.00000000
vn -0.00000400 0.00000000 -1.00000000
vn 0.00000000 0.00000000 -1.00000000
vn 0.00000500 -0.00000100 -1.00000000
vn -0.00000400 0.00000000 -1.00000000
vn 0.00000000 0.00000000 -1.00000000
vn 0.00000400 -0.00000000 -1.00000000
vn -0.00000400 0.00000000 -1.00000000
vn 0.00000000 0.00000000 -1.00000000
vn 0.00000000 0.00000000 -1.00000000
vn 0.00000700 -0.00000100 -1.00000000
vn 0.00000000 0.00000000 -1.00000000
vn 0.00000000 0.00000000 -1.00000000
vn 0.00000700 -0.00000100 -1.00000000
vn -0.00000300 0.00000000 -1.00000000
vn -0.00000600 0.00000100 -1.00000000
vn 0.00000700 -0.00000100 -1.00000000
vn -0.00001300 0.00000100 -1.00000000
vn 0.00000000 0.00000000 -1.00000000
vn 0.00000000 0.00000000 -1.00000000
vn -0.00000700 0.00000100 -1.00000000
vn 0.00000600 -0.00000100 -1.00000000
vn 0.00000600 -0.00000100 -1.00000000
vn 0.00000000 0.00000000 -1.00000000
vn 0.00000000 0.00000000 -1.00000000
vn 0.00000200 -0.00000000 -1.00000000
vn 0.00000000 0.00000000 -1.00000000
vn -0.00000400 0.00000000 -1.00000000
vn 0.00000200 -0.00000000 -1.00000000
vn 0.00000000 0.00000000 -1.00000000
vn 0.00000000 0.00000000 -1.00000000
vn 0.00000000 0.00000000 -1.00000000
vn 0.00000000 0.00000000 -1.00000000
vn 0.00000000 0.00000000 -1.00000000
vn 0.00000000 0.00000000 -1.00000000
vn 0.00000000 0.00000000 -1.00000000
vn -0.00000700 0.00000100 -1.00000000
vn 0.00000600 -0.00000100 -1.00000000
vn 0.00000000 0.00000000 -1.00000000
vn 0.00000600 -0.00000100 -1.00000000
vn -0.00000700 0.00000100 -1.00000000
vn 0.00000000 0.00000000 -1.00000000
vn -0.00000400 0.00000000 -1.00000000
vn 0.00000200 -0.00000000 -1.00000000
vn 0.00000000 0.00000000 -1.00000000
vn 0.00000600 -0.00000100 -1.00000000
vn -0.00000400 0.00000000 -1.00000000
vn 0.00000000 0.00000000 -1.00000000
vn 0.00000200 -0.00000000 -1.00000000
vn 0.00000200 -0.00000000 -1.00000000
vn 0.00000000 0.00000000 -1.00000000
vn 0.00000000 0.00000000 -1.00000000
vn 0.00000100 -0.00000000 -1.00000000
vn 0.00001000 -0.00000100 -1.00000000
vn -0.00000400 0.00000000 -1.00000000
vn -0.00000400 0.00000000 -1.00000000
vn 0.00000000 0.00000000 -1.00000000
vn 0.00000400 -0.00000000 -1.00000000
vn 0.00000400 -0.00000000 -1.00000000
vn 0.00000500 -0.00000100 -1.00000000
vn -0.00000400 0.00000000 -1.00000000
vn 0.00000200 -0.00000000 -1.00000000
vn 0.00000700 -0.00000100 -1.00000000
vn 0.00000000 0.00000000 -1.00000000
vn 0.00000700 -0.00000100 -1.00000000
vn 0.00000000 0.00000000 -1.00000000
vn -0.00000300 0.00000000 -1.00000000
vn -0.00007000 0.00000700 -1.00000000
vn 0.00001200 -0.00000100 -1.00000000
vn 0.00000000 0.00000000 -1.00000000
vn 0.00001300 -0.00000100 -1.00000000
vn 0.00000700 -0.00000100 -1.00000000
vn -0.00000200 0.00000000 -1.00000000
vn -0.00000200 0.00000000 -1.00000000
vn -0.00000200 0.00000000 -1.00000000
vn 0.00000000 0.00000000 -1.00000000
vn 0.00000600 -0.00000100 -1.00000000
vn -0.00000400 0.00000000 -1.00000000
vn -0.00001900 0.00000200 -1.00000000
vn 0.00001600 -0.00000200 -1.00000000
vn -0.00000600 0.00000100 -1.00000000
vn 0.00001600 -0.00000200 -1.00000000
vn 0.00001600 -0.00000200 -1.00000000
vn 0.00000000 0.00000000 -1.00000000
vn -0.00000600 0.00000100 -1.00000000
vn 0.00000100 -0.00000000 -1.00000000
vn -0.00001900 0.00000200 -1.00000000
vn 0.00001900 -0.00000200 -1.00000000
vn 0.00000100 -0.00000000 -1.00000000
vn -0.00000600 0.00000100 -1.00000000
vn 0.00000000 0.00000000 -1.00000000
vn 0.00000000 0.00000000 -1.00000000
vn 0.00000000 0.00000000 -1.00000000
vn 0.00000000 0.00000000 -1.00000000
vn -0.00000600 0.00000100 -1.00000000
vn 0.00000000 0.00000000 -1.00000000
vn 0.00000000 0.00000000 -1.00000000
vn 0.00000600 -0.00000100 -1.00000000
vn -0.00007000 0.00000700 -1.00000000
vn 0.00000000 0.00000000 -1.00000000
vn -0.00000600 0.00000100 -1.00000000
vn 0.00000000 0.00000000 -1.00000000
vn 0.00000000 0.00000000 -1.00000000
vn -0.00000500 0.00000100 -1.00000000
vn -0.00000500 0.00000100 -1.00000000
vn 0.00000000 0.00000000 -1.00000000
vn 0.00000600 -0.00000100 -1.00000000
vn 0.00000000 0.00000000 -1.00000000
vn 0.00000600 -0.00000100 -1.00000000
vn -0.00000500 0.00000100 -1.00000000
vn 0.00000600 -0.00000100 -1.00000000
vn 0.00000000 0.00000000 -1.00000000
vn 0.00000000 0.00000000 -1.00000000
vn 0.00000000 0.00000000 -1.00000000
vn -0.00000300 0.00000000 -1.00000000
vn -0.00000600 0.00000100 -1.00000000
vn 0.00000000 0.00000000 -1.00000000
vn -0.00000300 0.00000000 -1.00000000
vn -0.00000600 0.00000100 -1.00000000
vn -0.00001300 0.00000100 -1.00000000
vn -0.00001300 0.00000100 -1.00000000
vn -0.00012300 0.00001200 -1.00000000
vn -0.00012300 0.00001200 -1.00000000
vn 0.00002400 -0.00000200 -1.00000000
vn -0.00012300 0.00001200 -1.00000000
vn 0.00000000 0.00000000 -1.00000000
vn 0.00002400 -0.00000200 -1.00000000
vn 0.00002400 -0.00000200 -1.00000000
vn 0.00000000 0.00000000 -1.00000000
vn 0.00001900 -0.00000200 -1.00000000
vn 0.00001900 -0.00000200 -1.00000000
vn -0.00001900 0.00000200 -1.00000000
vn 0.00000000 0.00000000 -1.00000000
vn -0.00000600 0.00000100 -1.00000000
vn 0.00000600 -0.00000100 -1.00000000
vn 0.00000000 0.00000000 -1.00000000
vn -0.00007000 0.00000700 -1.00000000
vn 0.00000600 -0.00000100 -1.00000000
vn 0.00001300 -0.00000100 -1.00000000
vn 0.00001300 -0.00000100 -1.00000000
vn -0.00000300 0.00000000 -1.00000000
vn 0.00001200 -0.00000100 -1.00000000
vn -0.00000300 0.00000000 -1.00000000
vn 0.00000000 0.00000000 -1.00000000
vn 0.00000100 -0.00000000 -1.00000000
vn 0.00000100 -0.00000000 -1.00000000
vn 0.00000100 -0.00000000 -1.00000000
vn 0.00001200 -0.00000100 -1.00000000
vn -0.00000200 0.00000000 -1.00000000
vn -0.00000200 0.00000000 -1.00000000
vn -0.00000200 0.00000000 -1.00000000
vn -0.00002000 0.00000200 1.00000000
vn 0.00007000 -0.00000700 1.00000000
vn 0.00000000 0.00000000 1.00000000
vn 0.00001300 -0.00000100 1.00000000
vn -0.00001700 0.00000200 1.00000000
vn 0.00001200 -0.00000100 1.00000000
vn 0.00000000 0.00000000 1.00000000
vn 0.00000100 -0.00000000 1.00000000
vn 0.00000100 -0.00000000 1.00000000
vn 0.00007000 -0.00000700 1.00000000
vn -0.00000900 0.00000100 1.00000000
vn -0.00000100 0.00000000 1.00000000
vn 0.00000900 -0.00000100 1.00000000
vn -0.00006600 0.00000700 1.00000000
vn -0.00006600 0.00000700 1.00000000
vn -0.00002000 0.00000200 1.00000000
vn 0.00007000 -0.00000700 1.00000000
vn 0.00000000 0.00000000 1.00000000
vn -0.00000200 0.00000000 1.00000000
vn 0.00000000 0.00000000 1.00000000
vn -0.00000500 0.00000100 1.00000000
vn 0.00000000 0.00000000 1.00000000
vn -0.00000200 0.00000000 1.00000000
vn 0.00000100 -0.00000000 1.00000000
vn -0.00006600 0.00000700 1.00000000
vn 0.00000900 -0.00000100 1.00000000
vn -0.00000900 0.00000100 1.00000000
vn 0.00000900 -0.00000100 1.00000000
vn 0.00000000 0.00000000 1.00000000
vn 0.00000300 -0.00000000 1.00000000
vn 0.00000900 -0.00000100 1.00000000
vn -0.00000100 0.00000000 1.00000000
vn 0.00000000 0.00000000 1.00000000
vn -0.00000900 0.00000100 1.00000000
vn -0.00000500 0.00000100 1.00000000
vn 0.00000400 -0.00000000 1.00000000
vn 0.00000000 0.00000000 1.00000000
vn 0.00000000 0.00000000 1.00000000
vn -0.00000500 0.00000100 1.00000000
vn 0.00000000 0.00000000 1.00000000
vn -0.00001000 0.00000100 1.00000000
vn 0.00000400 -0.00000000 1.00000000
vn 0.00000000 0.00000000 1.00000000
vn -0.00001000 0.00000100 1.00000000
vn 0.00000400 -0.00000000 1.00000000
vn -0.00001000 0.00000100 1.00000000
vn 0.00000000 0.00000000 1.00000000
vn -0.00000200 0.00000000 1.00000000
vn -0.00000400 0.00000000 1.00000000
vn 0.00000000 0.00000000 1.00000000
vn 0.00000300 -0.00000000 1.00000000
vn 0.00000300 -0.00000000 1.00000000
vn 0.00000000 0.00000000 1.00000000
vn 0.00000000 0.00000000 1.00000000
vn -0.00002900 0.00000300 1.00000000
vn 0.00000400 -0.00000000 1.00000000
vn 0.00001000 -0.00000100 1.00000000
vn -0.00002900 0.00000300 1.00000000
vn 0.00000000 0.00000000 1.00000000
vn 0.00001000 -0.00000100 1.00000000
vn 0.00000400 -0.00000000 1.00000000
vn -0.00002900 0.00000300 1.00000000
vn -0.00000400 0.00000000 1.00000000
vn 0.00001000 -0.00000100 1.00000000
vn -0.00000400 0.00000000 1.00000000
vn -0.00000200 0.00000000 1.00000000
vn 0.00000400 -0.00000000 1.00000000
vn -0.00000200 0.00000000 1.00000000
vn 0.00000000 0.00000000 1.00000000
vn 0.00000300 -0.00000000 1.00000000
vn -0.00000600 0.00000100 1.00000000
vn 0.00000500 -0.00000000 1.00000000
vn -0.00000600 0.00000100 1.00000000
vn 0.00000000 0.00000000 1.00000000
vn 0.00000500 -0.00000000 1.00000000
vn 0.00000000 0.00000000 1.00000000
vn 0.00000000 0.00000000 1.00000000
vn 0.00000500 -0.00000000 1.00000000
vn 0.00000400 -0.00000000 1.00000000
vn 0.00000000 0.00000000 1.00000000
vn -0.00000200 0.00000000 1.00000000
vn 0.00000000 0.00000000 1.00000000
vn 0.00000000 0.00000000 1.00000000
vn 0.00000000 0.00000000 1.00000000
vn 0.00000000 0.00000000 1.00000000
vn 0.00000400 -0.00000000 1.00000000
vn 0.00000000 0.00000000 1.00000000
vn 0.00000400 -0.00000000 1.00000000
vn 0.00000000 0.00000000 1.00000000
vn 0.00000000 0.00000000 1.00000000
vn -0.00000700 0.00000100 1.00000000
vn -0.00000100 0.00000000 1.00000000
vn -0.00000700 0.00000100 1.00000000
vn 0.00000000 0.00000000 1.00000000
vn 0.00000000 0.00000000 1.00000000
vn -0.00000700 0.00000100 1.00000000
vn 0.00000900 -0.00000100 1.00000000
vn -0.00000100 0.00000000 1.00000000
vn 0.00000900 -0.00000100 1.00000000
vn 0.00000000 0.00000000 1.00000000
vn -0.00000200 0.00000000 1.00000000
vn -0.00000400 0.00000000 1.00000000
vn -0.00000400 0.00000000 1.00000000
vn 0.00000600 -0.00000100 1.00000000
vn 0.00000000 0.00000000 1.00000000
vn 0.00002100 -0.00000200 1.00000000
vn -0.00000100 0.00000000 1.00000000
vn -0.00000200 0.00000000 1.00000000
vn -0.00000400 0.00000000 1.00000000
vn 0.00002100 -0.00000200 1.00000000
vn -0.00000200 0.00000000 1.00000000
vn -0.00002000 0.00000200 1.00000000
vn 0.00001300 -0.00000100 1.00000000
vn 0.00001300 -0.00000100 1.00000000
vn -0.00001700 0.00000200 1.00000000
vn -0.00001700 0.00000200 1.00000000
vn 0.00000000 0.00000000 1.00000000
vn 0.00000000 0.00000000 1.00000000
vn 0.00001200 -0.00000100 1.00000000
vn 0.00001200 -0.00000100 1.00000000
vn 0.00000000 0.00000000 1.00000000
vn 0.00000000 0.00000000 1.00000000
vn 0.00000000 0.00000000 1.00000000
vn -0.00000100 0.00000000 1.00000000
vn 0.00000000 0.00000000 1.00000000
vn 0.00000000 0.00000000 1.00000000
vn 0.00002100 -0.00000200 1.00000000
vn -0.00000400 0.00000000 1.00000000
vn -0.00004800 0.00000500 1.00000000
vn 0.00000000 0.00000000 1.00000000
vn -0.00000400 0.00000000 1.00000000
vn -0.00027300 0.00002800 1.00000000
vn 0.00000000 0.00000000 1.00000000
vn -0.00004800 0.00000500 1.00000000
vn -0.00027300 0.00002800 1.00000000
vn -0.00004800 0.00000500 1.00000000
vn -0.00027300 0.00002800 1.00000000
vn 0.00000000 0.00000000 1.00000000
vn 0.00000200 -0.00000000 1.00000000
vn 0.00000000 0.00000000 1.00000000
vn 0.00000200 -0.00000000 1.00000000
vn 0.00000200 -0.00000000 1.00000000
vn 0.00000000 0.00000000 1.00000000
vn 0.00000000 0.00000000 1.00000000
vn 0.00000300 -0.00000000 1.00000000
vn 0.00000300 -0.00000000 1.00000000
vn -0.00000600 0.00000100 1.00000000
vn 0.00000100 -0.00000000 1.00000000
vn 0.00000000 0.00000000 1.00000000
vn 0.00000100 -0.00000000 1.00000000
vn 0.00000100 -0.00000000 1.00000000
vn 0.00000000 0.00000000 1.00000000
vn 0.00000600 -0.00000100 1.00000000
vn -0.00000400 0.00000000 1.00000000
vn 0.00000600 -0.00000100 1.00000000
f 1//1 2//2 3//3
f 1//1 3//3 4//4
f 4//4 3//3 5//5
f 4//4 5//5 6//6
f 6//6 5//5 7//7
f 6//6 7//7 8//8
f 8//8 7//7 9//9
f 8//8 9//9 10//10
f 10//10 9//9 11//11
f 10//10 11//11 12//12
f 12//12 11//11 13//13
f 12//12 13//13 14//14
f 14//14 13//13 15//15
f 14//14 15//15 16//16
f 16//16 15//15 17//17
f 16//16 17//17 18//18
f 18//18 17//17 19//19
f 18//18 19//19 20//20
f 20//20 19//19 21//21
f 20//20 21//21 22//22
f 22//22 21//21 23//23
f 22//22 23//23 24//24
f 24//24 23//23 25//25
f 24//24 25//25 26//26
f 26//26 25//25 27//27
f 26//26 27//27 28//28
f 28//28 27//27 29//29
f 28//28 29//29 30//30
f 30//30 29//29 31//31
f 30//30 31//31 32//32
f 32//32 31//31 33//33
f 32//32 33//33 34//34
f 34//34 33//33 35//35
f 34//34 35//35 36//36
f 36//36 35//35 37//37
f 36//36 37//37 38//38
f 38//38 37//37 39//39
f 38//38 39//39 40//40
f 40//40 39//39 41//41
f 40//40 41//41 42//42
f 42//42 41//41 43//43
f 42//42 43//43 44//44
f 44//44 43//43 45//45
f 44//44 45//45 46//46
f 46//46 45//45 47//47
f 46//46 47//47 48//48
f 48//48 47//47 49//49
f 48//48 49//49 50//50
f 50//50 49//49 51//51
f 50//50 51//51 52//52
f 52//52 51//51 53//53
f 52//52 53//53 54//54
f 54//54 53//53 55//55
f 54//54 55//55 56//56
f 56//56 55//55 57//57
f 56//56 57//57 58//58
f 58//58 57//57 59//59
f 58//58 59//59 60//60
f 60//60 59//59 61//61
f 60//60 61//61 62//62
f 62//62 61//61 63//63
f 62//62 63//63 64//64
f 64//64 63//63 65//65
f 64//64 65//65 66//66
f 66//66 65//65 67//67
f 66//66 67//67 68//68
f 68//68 67//67 69//69
f 68//68 69//69 70//70
f 70//70 69//69 71//71
f 70//70 71//71 72//72
f 72//72 71//71 73//73
f 72//72 73//73 74//74
f 74//74 73//73 75//75
f 74//74 75//75 76//76
f 76//76 75//75 77//77
f 76//76 77//77 78//78
f 78//78 77//77 79//79
f 78//78 79//79 80//80
f 80//80 79//79 81//81
f 80//80 81//81 82//82
f 82//82 81//81 83//83
f 82//82 83//83 84//84
f 84//84 83//83 85//85
f 84//84 85//85 86//86
f 86//86 85//85 87//87
f 86//86 87//87 88//88
f 88//88 87//87 89//89
f 88//88 89//89 90//90
f 90//90 89//89 91//91
f 90//90 91//91 92//92
f 92//92 91//91 93//93
f 92//92 93//93 94//94
f 94//94 93//93 95//95
f 94//94 95//95 96//96
f 96//96 95//95 97//97
f 96//96 97//97 98//98
f 98//98 97//97 99//99
f 98//98 99//99 100//100
f 100//100 99//99 101//101
f 100//100 101//101 102//102
f 102//102 101//101 103//103
f 102//102 103//103 104//104
f 104//104 103//103 105//105
f 104//104 105//105 106//106
f 106//106 105//105 107//107
f 106//106 107//107 108//108
f 108//108 107//107 109//109
f 108//108 109//109 110//110
f 110//110 109//109 111//111
f 110//110 111//111 112//112
f 112//112 111//111 113//113
f 112//112 113//113 114//114
f 114//114 113//113 115//115
f 114//114 115//115 116//116
f 116//116 115//115 117//117
f 116//116 117//117 118//118
f 118//118 117//117 119//119
f 118//118 119//119 120//120
f 120//120 119//119 121//121
f 120//120 121//121 122//122
f 122//122 121//121 123//123
f 122//122 123//123 124//124
f 124//124 123//123 125//125
f 124//124 125//125 126//126
f 126//126 125//125 127//127
f 126//126 127//127 128//128
f 128//128 127//127 129//129
f 128//128 129//129 130//130
f 130//130 129//129 131//131
f 130//130 131//131 132//132
f 132//132 131//131 2//2
f 132//132 2//2 1//1
f 134//134 138//138 141//141
f 142//142 145//145 148//148
f 147//147 144//144 150//150
f 148//148 151//151 152//152
f 152//152 154//154 155//155
f 153//153 156//156 159//159
f 161//161 162//162 166//166
f 167//167 169//169 172//172
f 166//166 173//173 174//174
f 174//174 173//173 175//175
f 174//174 175//175 176//176
f 177//177 178//178 181//181
f 163//163 179//179 183//183
f 164//164 182//182 165//165
f 184//184 187//187 190//190
f 191//191 186//186 192//192
f 190//190 193//193 194//194
f 140//140 196//196 137//137
f 133//133 197//197 198//198
f 135//135 199//199 148//148
f 149//149 200//200 201//201
f 146//146 202//202 143//143
f 139//139 135//135 172//172
f 170//170 136//136 203//203
f 171//171 204//204 168//168
f 169//169 206//206 208//208
f 207//207 205//205 214//214
f 208//208 212//212 218//218
f 177//177 181//181 190//190
f 188//188 180//180 219//219
f 189//189 220//220 185//185
f 222//222 224//224 225//225
f 227//227 223//223 232//232
f 234//234 235//235 236//236
f 238//238 239//239 242//242
f 175//175 244//244 245//245
f 245//245 244//244 248//248
f 246//246 247//247 252//252
f 251//251 249//249 253//253
f 250//250 254//254 255//255
f 255//255 254//254 256//256
f 255//255 256//256 259//259
f 260//260 257//257 157//157
f 258//258 158//158 261//261
f 262//262 160//160 263//263
f 264//264 265//265 267//267
f 269//269 266//266 270//270
f 268//268 271//271 226//226
f 230//230 272//272 273//273
f 229//229 274//274 221//221
f 234//234 236//236 242//242
f 242//242 236//236 275//275
f 243//243 276//276 237//237
f 239//239 278//278 242//242
f 240//240 277//277 280//280
f 241//241 279//279 210//210
f 213//213 281//281 282//282
f 209//209 283//283 285//285
f 233//233 286//286 226//226
f 231//231 287//287 289//289
f 228//228 288//288 195//195
f 284//284 290//290 211//211
f 216//216 291//291 293//293
f 215//215 292//292 217//217
f 295//295 303//303 310//310
f 311//311 313//313 315//315
f 308//308 307//307 318//318
f 319//319 321//321 324//324
f 315//315 313//313 330//330
f 328//328 314//314 332//332
f 330//330 331//331 333//333
f 334//334 337//337 339//339
f 340//340 336//336 343//343
f 340//340 343//343 346//346
f 345//345 344//344 323//323
f 346//346 326//326 347//347
f 347//347 326//326 322//322
f 348//348 351//351 355//355
f 353//353 350//350 357//357
f 356//356 358//358 342//342
f 341//341 359//359 361//361
f 338//338 360//360 335//335
f 362//362 367//367 369//369
f 368//368 365//365 371//371
f 369//369 370//370 352//352
f 352//352 370//370 373//373
f 354//354 372//372 349//349
f 312//312 316//316 374//374
f 375//375 315//315 376//376
f 375//375 376//376 377//377
f 333//333 378//378 330//330
f 329//329 379//379 381//381
f 330//330 380//380 382//382
f 382//382 380//380 383//383
f 382//382 383//383 387//387
f 386//386 384//384 389//389
f 320//320 327//327 304//304
f 305//305 325//325 391//391
f 306//306 390//390 392//392
f 394//394 401//401 404//404
f 309//309 405//405 294//294
f 297//297 406//406 407//407
f 298//298 408//408 409//409
f 410//410 411//411 296//296
f 299//299 412//412 413//413
f 296//296 414//414 415//415
f 415//415 414//414 416//416
f 388//388 383//383 398//398
f 400//400 385//385 417//417
f 398//398 418//418 419//419
f 403//403 420//420 399//399
f 396//396 421//421 424//424
f 398//398 423//423 426//426
f 427//427 422//422 429//429
f 425//425 428//428 430//430
f 377//377 376//376 431//431
f 431//431 376//376 433//433
f 432//432 434//434 435//435
f 436//436 433//433 437//437
f 436//436 437//437 362//362
f 363//363 438//438 439//439
f 364//364 440//440 366//366
f 393//393 442//442 300//300
f 302//302 441//441 443//443
f 301//301 444//444 317//317
f 419//419 445//445 398//398
f 397//397 446//446 448//448
f 395//395 447//447 402//402

