# https://github.com/mikedh/trimesh
v 0.27669100 0.00451500 0.04730000
v 0.27669100 0.00451500 0.04730000
v 0.27617900 0.00560300 0.04730000
v 0.27549100 0.00435100 0.04730000
v 0.29336800 -0.00467200 0.04730000
v 0.29336800 -0.00467200 0.04730000
v 0.29388000 -0.00576000 0.04730000
v 0.29456800 -0.00450800 0.04730000
v 0.29456800 -0.00450800 0.04730000
v 0.28997200 0.00805800 0.04730000
v 0.28997200 0.00805800 0.04730000
v 0.28988200 0.00925300 0.04730000
v 0.28876300 0.00867900 0.04730000
v 0.28876300 0.00867900 0.04730000
v 0.28857200 0.00982400 0.04730000
v 0.28857200 0.00982400 0.04730000
v 0.28747400 0.00912100 0.04730000
v 0.28747400 0.00912100 0.04730000
v 0.28719100 0.01021200 0.04730000
v 0.28719100 0.01021200 0.04730000
v 0.28612600 0.00937600 0.04730000
v 0.28612600 0.00937600 0.04730000
v 0.28612600 0.00937600 0.04730000
v 0.28578100 0.01040900 0.04730000
v 0.28578100 0.01040900 0.04730000
v 0.28578100 0.01040900 0.04730000
v 0.28578100 0.01040900 0.04730000
v 0.29393800 -0.00343600 0.04730000
v 0.29393800 -0.00343600 0.04730000
v 0.29508000 -0.00317300 0.04730000
v 0.29432500 -0.00212800 0.04730000
v 0.29540700 -0.00177300 0.04730000
v 0.29449800 -0.00104000 0.04730000
v 0.29549000 -0.00114100 0.04730000
v 0.29454100 0.00030600 0.04730000
v 0.29454100 0.00030600 0.04730000
v 0.29553900 0.00027500 0.04730000
v 0.29553900 0.00027500 0.04730000
v 0.29439800 0.00161500 0.04730000
v 0.29439800 0.00161500 0.04730000
v 0.29540300 0.00165300 0.04730000
v 0.29407400 0.00289200 0.04730000
v 0.29508500 0.00300200 0.04730000
v 0.29508500 0.00300200 0.04730000
v 0.29357300 0.00411900 0.04730000
v 0.29357300 0.00411900 0.04730000
v 0.29357300 0.00411900 0.04730000
v 0.29458900 0.00430400 0.04730000
v 0.29458900 0.00430400 0.04730000
v 0.29458900 0.00430400 0.04730000
v 0.29290000 0.00527300 0.04730000
v 0.29290000 0.00527300 0.04730000
v 0.29290000 0.00527300 0.04730000
v 0.29392000 0.00553700 0.04730000
v 0.29392000 0.00553700 0.04730000
v 0.29392000 0.00553700 0.04730000
v 0.29206200 0.00633500 0.04730000
v 0.29206200 0.00633500 0.04730000
v 0.29317800 0.00656700 0.04730000
v 0.29108000 0.00727000 0.04730000
v 0.29108000 0.00727000 0.04730000
v 0.29220700 0.00760600 0.04730000
v 0.29220700 0.00760600 0.04730000
v 0.29110100 0.00850800 0.04730000
v 0.28008700 -0.00821500 0.04730000
v 0.28008700 -0.00821500 0.04730000
v 0.28017700 -0.00941000 0.04730000
v 0.28017700 -0.00941000 0.04730000
v 0.28129600 -0.00883600 0.04730000
v 0.28129600 -0.00883600 0.04730000
v 0.28129600 -0.00883600 0.04730000
v 0.28148800 -0.00998100 0.04730000
v 0.28148800 -0.00998100 0.04730000
v 0.28148800 -0.00998100 0.04730000
v 0.28258500 -0.00927800 0.04730000
v 0.28258500 -0.00927800 0.04730000
v 0.28258500 -0.00927800 0.04730000
v 0.28286800 -0.01036900 0.04730000
v 0.28286800 -0.01036900 0.04730000
v 0.28286800 -0.01036900 0.04730000
v 0.28393300 -0.00953300 0.04730000
v 0.28393300 -0.00953300 0.04730000
v 0.28393300 -0.00953300 0.04730000
v 0.28427900 -0.01056600 0.04730000
v 0.28427900 -0.01056600 0.04730000
v 0.28427900 -0.01056600 0.04730000
v 0.28427900 -0.01056600 0.04730000
v 0.27612100 0.00327900 0.04730000
v 0.27612100 0.00327900 0.04730000
v 0.27497900 0.00301600 0.04730000
v 0.27497900 0.00301600 0.04730000
v 0.27497900 0.00301600 0.04730000
v 0.27573400 0.00197100 0.04730000
v 0.27573400 0.00197100 0.04730000
v 0.27573400 0.00197100 0.04730000
v 0.27465200 0.00161600 0.04730000
v 0.27465200 0.00161600 0.04730000
v 0.27465200 0.00161600 0.04730000
v 0.27556100 0.00088300 0.04730000
v 0.27556100 0.00088300 0.04730000
v 0.27456900 0.00098400 0.04730000
v 0.27456900 0.00098400 0.04730000
v 0.27551800 -0.00046300 0.04730000
v 0.27551800 -0.00046300 0.04730000
v 0.27452000 -0.00043200 0.04730000
v 0.27452000 -0.00043200 0.04730000
v 0.27566100 -0.00177200 0.04730000
v 0.27566100 -0.00177200 0.04730000
v 0.27465600 -0.00181000 0.04730000
v 0.27465600 -0.00181000 0.04730000
v 0.27598500 -0.00304900 0.04730000
v 0.27598500 -0.00304900 0.04730000
v 0.27497400 -0.00315900 0.04730000
v 0.27648600 -0.00427600 0.04730000
v 0.27547000 -0.00446100 0.04730000
v 0.27715900 -0.00543000 0.04730000
v 0.27715900 -0.00543000 0.04730000
v 0.27613900 -0.00569400 0.04730000
v 0.27613900 -0.00569400 0.04730000
v 0.27799800 -0.00649200 0.04730000
v 0.27799800 -0.00649200 0.04730000
v 0.27799800 -0.00649200 0.04730000
v 0.27688100 -0.00672400 0.04730000
v 0.27688100 -0.00672400 0.04730000
v 0.27898000 -0.00742700 0.04730000
v 0.27898000 -0.00742700 0.04730000
v 0.27898000 -0.00742700 0.04730000
v 0.27785300 -0.00776300 0.04730000
v 0.27785300 -0.00776300 0.04730000
v 0.27895800 -0.00866500 0.04730000
v 0.27703100 0.00674800 0.04730000
v 0.27703100 0.00674800 0.04730000
v 0.27743100 0.00565500 0.04730000
v 0.27743100 0.00565500 0.04730000
v 0.27802800 0.00776600 0.04730000
v 0.27832400 0.00667600 0.04730000
v 0.27915100 0.00863900 0.04730000
v 0.27935100 0.00756000 0.04730000
v 0.27935100 0.00756000 0.04730000
v 0.28036500 0.00934600 0.04730000
v 0.28036500 0.00934600 0.04730000
v 0.28047900 0.00828200 0.04730000
v 0.28047900 0.00828200 0.04730000
v 0.28047900 0.00828200 0.04730000
v 0.28165300 0.00988200 0.04730000
v 0.28165300 0.00988200 0.04730000
v 0.28165300 0.00988200 0.04730000
v 0.28168700 0.00883500 0.04730000
v 0.28168700 0.00883500 0.04730000
v 0.28168700 0.00883500 0.04730000
v 0.28299300 0.01024000 0.04730000
v 0.28299300 0.01024000 0.04730000
v 0.28299300 0.01024000 0.04730000
v 0.28295100 0.00921200 0.04730000
v 0.28295100 0.00921200 0.04730000
v 0.28295100 0.00921200 0.04730000
v 0.28436700 0.01041700 0.04730000
v 0.28436700 0.01041700 0.04730000
v 0.28436700 0.01041700 0.04730000
v 0.28425200 0.00940900 0.04730000
v 0.28425200 0.00940900 0.04730000
v 0.28425200 0.00940900 0.04730000
v 0.28558900 0.00942300 0.04730000
v 0.28558900 0.00942300 0.04730000
v 0.29302800 -0.00690500 0.04730000
v 0.29262800 -0.00581200 0.04730000
v 0.29203100 -0.00792300 0.04730000
v 0.29173500 -0.00683300 0.04730000
v 0.29090800 -0.00879600 0.04730000
v 0.29090800 -0.00879600 0.04730000
v 0.29070800 -0.00771700 0.04730000
v 0.29070800 -0.00771700 0.04730000
v 0.29070800 -0.00771700 0.04730000
v 0.28969400 -0.00950300 0.04730000
v 0.28969400 -0.00950300 0.04730000
v 0.28969400 -0.00950300 0.04730000
v 0.28958000 -0.00843900 0.04730000
v 0.28958000 -0.00843900 0.04730000
v 0.28958000 -0.00843900 0.04730000
v 0.28840600 -0.01003900 0.04730000
v 0.28840600 -0.01003900 0.04730000
v 0.28837200 -0.00899200 0.04730000
v 0.28837200 -0.00899200 0.04730000
v 0.28837200 -0.00899200 0.04730000
v 0.28706600 -0.01039700 0.04730000
v 0.28706600 -0.01039700 0.04730000
v 0.28710800 -0.00936900 0.04730000
v 0.28710800 -0.00936900 0.04730000
v 0.28710800 -0.00936900 0.04730000
v 0.28569200 -0.01057400 0.04730000
v 0.28569200 -0.01057400 0.04730000
v 0.28580700 -0.00956600 0.04730000
v 0.28580700 -0.00956600 0.04730000
v 0.28580700 -0.00956600 0.04730000
v 0.28447000 -0.00958000 0.04730000
v 0.28447000 -0.00958000 0.04730000
v 0.28008700 -0.00821500 0.04720000
v 0.28008700 -0.00821500 0.04720000
v 0.28008700 -0.00821500 0.04720000
v 0.28129600 -0.00883600 0.04720000
v 0.28129600 -0.00883600 0.04720000
v 0.28129600 -0.00883600 0.04720000
v 0.28148800 -0.00998100 0.04720000
v 0.28148800 -0.00998100 0.04720000
v 0.28148800 -0.00998100 0.04720000
v 0.28997200 0.00805800 0.04720000
v 0.28876300 0.00867900 0.04720000
v 0.28876300 0.00867900 0.04720000
v 0.28857200 0.00982400 0.04720000
v 0.28286800 -0.01036900 0.04720000
v 0.28286800 -0.01036900 0.04720000
v 0.28258500 -0.00927800 0.04720000
v 0.28258500 -0.00927800 0.04720000
v 0.28258500 -0.00927800 0.04720000
v 0.28427900 -0.01056600 0.04720000
v 0.28427900 -0.01056600 0.04720000
v 0.28427900 -0.01056600 0.04720000
v 0.28719100 0.01021200 0.04720000
v 0.28719100 0.01021200 0.04720000
v 0.28719100 0.01021200 0.04720000
v 0.28747400 0.00912100 0.04720000
v 0.28747400 0.00912100 0.04720000
v 0.28747400 0.00912100 0.04720000
v 0.28578100 0.01040900 0.04720000
v 0.28578100 0.01040900 0.04720000
v 0.28578100 0.01040900 0.04720000
v 0.28017700 -0.00941000 0.04720000
v 0.28017700 -0.00941000 0.04720000
v 0.27895800 -0.00866500 0.04720000
v 0.27898000 -0.00742700 0.04720000
v 0.27785300 -0.00776300 0.04720000
v 0.27799800 -0.00649200 0.04720000
v 0.27688100 -0.00672400 0.04720000
v 0.27715900 -0.00543000 0.04720000
v 0.27715900 -0.00543000 0.04720000
v 0.27613900 -0.00569400 0.04720000
v 0.27613900 -0.00569400 0.04720000
v 0.27648600 -0.00427600 0.04720000
v 0.27648600 -0.00427600 0.04720000
v 0.27547000 -0.00446100 0.04720000
v 0.27547000 -0.00446100 0.04720000
v 0.27598500 -0.00304900 0.04720000
v 0.27598500 -0.00304900 0.04720000
v 0.27497400 -0.00315900 0.04720000
v 0.27497400 -0.00315900 0.04720000
v 0.27566100 -0.00177200 0.04720000
v 0.27465600 -0.00181000 0.04720000
v 0.27551800 -0.00046300 0.04720000
v 0.27452000 -0.00043200 0.04720000
v 0.27556100 0.00088300 0.04720000
v 0.27456900 0.00098400 0.04720000
v 0.27573400 0.00197100 0.04720000
v 0.27465200 0.00161600 0.04720000
v 0.27612100 0.00327900 0.04720000
v 0.27497900 0.00301600 0.04720000
v 0.27497900 0.00301600 0.04720000
v 0.27669100 0.00451500 0.04720000
v 0.27669100 0.00451500 0.04720000
v 0.27669100 0.00451500 0.04720000
v 0.28988200 0.00925300 0.04720000
v 0.29110100 0.00850800 0.04720000
v 0.29108000 0.00727000 0.04720000
v 0.29220700 0.00760600 0.04720000
v 0.29206200 0.00633500 0.04720000
v 0.29317800 0.00656700 0.04720000
v 0.29317800 0.00656700 0.04720000
v 0.29290000 0.00527300 0.04720000
v 0.29290000 0.00527300 0.04720000
v 0.29392000 0.00553700 0.04720000
v 0.29392000 0.00553700 0.04720000
v 0.29357300 0.00411900 0.04720000
v 0.29458900 0.00430400 0.04720000
v 0.29458900 0.00430400 0.04720000
v 0.29407400 0.00289200 0.04720000
v 0.29407400 0.00289200 0.04720000
v 0.29508500 0.00300200 0.04720000
v 0.29508500 0.00300200 0.04720000
v 0.29439800 0.00161500 0.04720000
v 0.29540300 0.00165300 0.04720000
v 0.29540300 0.00165300 0.04720000
v 0.29454100 0.00030600 0.04720000
v 0.29454100 0.00030600 0.04720000
v 0.29553900 0.00027500 0.04720000
v 0.29553900 0.00027500 0.04720000
v 0.29449800 -0.00104000 0.04720000
v 0.29549000 -0.00114100 0.04720000
v 0.29432500 -0.00212800 0.04720000
v 0.29540700 -0.00177300 0.04720000
v 0.29393800 -0.00343600 0.04720000
v 0.29393800 -0.00343600 0.04720000
v 0.29508000 -0.00317300 0.04720000
v 0.29508000 -0.00317300 0.04720000
v 0.29508000 -0.00317300 0.04720000
v 0.29336800 -0.00467200 0.04720000
v 0.29336800 -0.00467200 0.04720000
v 0.29336800 -0.00467200 0.04720000
v 0.29336800 -0.00467200 0.04720000
v 0.29456800 -0.00450800 0.04720000
v 0.29456800 -0.00450800 0.04720000
v 0.29388000 -0.00576000 0.04720000
v 0.29388000 -0.00576000 0.04720000
v 0.29388000 -0.00576000 0.04720000
v 0.29262800 -0.00581200 0.04720000
v 0.29262800 -0.00581200 0.04720000
v 0.29262800 -0.00581200 0.04720000
v 0.29302800 -0.00690500 0.04720000
v 0.29302800 -0.00690500 0.04720000
v 0.29173500 -0.00683300 0.04720000
v 0.29173500 -0.00683300 0.04720000
v 0.29203100 -0.00792300 0.04720000
v 0.29203100 -0.00792300 0.04720000
v 0.29070800 -0.00771700 0.04720000
v 0.29070800 -0.00771700 0.04720000
v 0.29070800 -0.00771700 0.04720000
v 0.29090800 -0.00879600 0.04720000
v 0.29090800 -0.00879600 0.04720000
v 0.29090800 -0.00879600 0.04720000
v 0.28958000 -0.00843900 0.04720000
v 0.28958000 -0.00843900 0.04720000
v 0.28958000 -0.00843900 0.04720000
v 0.28969400 -0.00950300 0.04720000
v 0.28969400 -0.00950300 0.04720000
v 0.28969400 -0.00950300 0.04720000
v 0.28837200 -0.00899200 0.04720000
v 0.28837200 -0.00899200 0.04720000
v 0.28837200 -0.00899200 0.04720000
v 0.28840600 -0.01003900 0.04720000
v 0.28840600 -0.01003900 0.04720000
v 0.28840600 -0.01003900 0.04720000
v 0.28710800 -0.00936900 0.04720000
v 0.28710800 -0.00936900 0.04720000
v 0.28710800 -0.00936900 0.04720000
v 0.28706600 -0.01039700 0.04720000
v 0.28706600 -0.01039700 0.04720000
v 0.28580700 -0.00956600 0.04720000
v 0.28569200 -0.01057400 0.04720000
v 0.28569200 -0.01057400 0.04720000
v 0.28447000 -0.00958000 0.04720000
v 0.28447000 -0.00958000 0.04720000
v 0.28393300 -0.00953300 0.04720000
v 0.28393300 -0.00953300 0.04720000
v 0.27549100 0.00435100 0.04720000
v 0.27549100 0.00435100 0.04720000
v 0.27617900 0.00560300 0.04720000
v 0.27617900 0.00560300 0.04720000
v 0.27743100 0.00565500 0.04720000
v 0.27743100 0.00565500 0.04720000
v 0.27743100 0.00565500 0.04720000
v 0.27703100 0.00674800 0.04720000
v 0.27703100 0.00674800 0.04720000
v 0.27703100 0.00674800 0.04720000
v 0.27832400 0.00667600 0.04720000
v 0.27832400 0.00667600 0.04720000
v 0.27832400 0.00667600 0.04720000
v 0.27802800 0.00776600 0.04720000
v 0.27802800 0.00776600 0.04720000
v 0.27802800 0.00776600 0.04720000
v 0.27935100 0.00756000 0.04720000
v 0.27935100 0.00756000 0.04720000
v 0.27915100 0.00863900 0.04720000
v 0.28047900 0.00828200 0.04720000
v 0.28036500 0.00934600 0.04720000
v 0.28168700 0.00883500 0.04720000
v 0.28168700 0.00883500 0.04720000
v 0.28165300 0.00988200 0.04720000
v 0.28165300 0.00988200 0.04720000
v 0.28165300 0.00988200 0.04720000
v 0.28295100 0.00921200 0.04720000
v 0.28295100 0.00921200 0.04720000
v 0.28295100 0.00921200 0.04720000
v 0.28299300 0.01024000 0.04720000
v 0.28299300 0.01024000 0.04720000
v 0.28299300 0.01024000 0.04720000
v 0.28425200 0.00940900 0.04720000
v 0.28425200 0.00940900 0.04720000
v 0.28436700 0.01041700 0.04720000
v 0.28436700 0.01041700 0.04720000
v 0.28436700 0.01041700 0.04720000
v 0.28558900 0.00942300 0.04720000
v 0.28558900 0.00942300 0.04720000
v 0.28612600 0.00937600 0.04720000
v 0.29549000 -0.00114100 0.04730000
v 0.29549000 -0.00114100 0.04720000
v 0.29553900 0.00027500 0.04720000
v 0.29553900 0.00027500 0.04730000
v 0.29540300 0.00165300 0.04720000
v 0.29540300 0.00165300 0.04730000
v 0.29508500 0.00300200 0.04720000
v 0.29508500 0.00300200 0.04730000
v 0.29458900 0.00430400 0.04720000
v 0.29458900 0.00430400 0.04730000
v 0.29392000 0.00553700 0.04720000
v 0.29392000 0.00553700 0.04730000
v 0.29317800 0.00656700 0.04720000
v 0.29317800 0.00656700 0.04730000
v 0.29220700 0.00760600 0.04720000
v 0.29220700 0.00760600 0.04730000
v 0.29110100 0.00850800 0.04720000
v 0.29110100 0.00850800 0.04730000
v 0.28988200 0.00925300 0.04720000
v 0.28988200 0.00925300 0.04730000
v 0.28857200 0.00982400 0.04720000
v 0.28857200 0.00982400 0.04730000
v 0.28719100 0.01021200 0.04720000
v 0.28719100 0.01021200 0.04730000
v 0.28578100 0.01040900 0.04720000
v 0.28578100 0.01040900 0.04730000
v 0.28436700 0.01041700 0.04720000
v 0.28436700 0.01041700 0.04730000
v 0.28299300 0.01024000 0.04720000
v 0.28299300 0.01024000 0.04730000
v 0.28165300 0.00988200 0.04720000
v 0.28165300 0.00988200 0.04730000
v 0.28036500 0.00934600 0.04720000
v 0.28036500 0.00934600 0.04730000
v 0.27915100 0.00863900 0.04720000
v 0.27915100 0.00863900 0.04730000
v 0.27802800 0.00776600 0.04720000
v 0.27802800 0.00776600 0.04730000
v 0.27703100 0.00674800 0.04720000
v 0.27703100 0.00674800 0.04730000
v 0.27617900 0.00560300 0.04720000
v 0.27617900 0.00560300 0.04730000
v 0.27549100 0.00435100 0.04720000
v 0.27549100 0.00435100 0.04730000
v 0.27497900 0.00301600 0.04720000
v 0.27497900 0.00301600 0.04730000
v 0.27465200 0.00161600 0.04720000
v 0.27465200 0.00161600 0.04730000
v 0.27456900 0.00098400 0.04720000
v 0.27456900 0.00098400 0.04730000
v 0.27452000 -0.00043200 0.04720000
v 0.27452000 -0.00043200 0.04730000
v 0.27465600 -0.00181000 0.04720000
v 0.27465600 -0.00181000 0.04730000
v 0.27497400 -0.00315900 0.04720000
v 0.27497400 -0.00315900 0.04730000
v 0.27547000 -0.00446100 0.04720000
v 0.27547000 -0.00446100 0.04730000
v 0.27613900 -0.00569400 0.04720000
v 0.27613900 -0.00569400 0.04730000
v 0.27688100 -0.00672400 0.04720000
v 0.27688100 -0.00672400 0.04730000
v 0.27785300 -0.00776300 0.04720000
v 0.27785300 -0.00776300 0.04730000
v 0.27895800 -0.00866500 0.04720000
v 0.27895800 -0.00866500 0.04730000
v 0.28017700 -0.00941000 0.04720000
v 0.28017700 -0.00941000 0.04730000
v 0.28148800 -0.00998100 0.04720000
v 0.28148800 -0.00998100 0.04730000
v 0.28286800 -0.01036900 0.04720000
v 0.28286800 -0.01036900 0.04730000
v 0.28427900 -0.01056600 0.04720000
v 0.28427900 -0.01056600 0.04730000
v 0.28569200 -0.01057400 0.04720000
v 0.28569200 -0.01057400 0.04730000
v 0.28706600 -0.01039700 0.04720000
v 0.28706600 -0.01039700 0.04730000
v 0.28840600 -0.01003900 0.04720000
v 0.28840600 -0.01003900 0.04730000
v 0.28969400 -0.00950300 0.04720000
v 0.28969400 -0.00950300 0.04730000
v 0.29090800 -0.00879600 0.04720000
v 0.29090800 -0.00879600 0.04730000
v 0.29203100 -0.00792300 0.04720000
v 0.29203100 -0.00792300 0.04730000
v 0.29302800 -0.00690500 0.04720000
v 0.29302800 -0.00690500 0.04730000
v 0.29388000 -0.00576000 0.04720000
v 0.29388000 -0.00576000 0.04730000
v 0.29456800 -0.00450800 0.04720000
v 0.29456800 -0.00450800 0.04730000
v 0.29508000 -0.00317300 0.04720000
v 0.29508000 -0.00317300 0.04730000
v 0.29540700 -0.00177300 0.04720000
v 0.29540700 -0.00177300 0.04730000
v 0.27556100 0.00088300 0.04730000
v 0.27556100 0.00088300 0.04720000
v 0.27556100 0.00088300 0.04720000
v 0.27573400 0.00197100 0.04720000
v 0.27573400 0.00197100 0.04730000
v 0.27612100 0.00327900 0.04720000
v 0.27612100 0.00327900 0.04730000
v 0.27669100 0.00451500 0.04720000
v 0.27669100 0.00451500 0.04730000
v 0.27743100 0.00565500 0.04720000
v 0.27743100 0.00565500 0.04730000
v 0.27832400 0.00667600 0.04720000
v 0.27832400 0.00667600 0.04730000
v 0.27935100 0.00756000 0.04720000
v 0.27935100 0.00756000 0.04730000
v 0.28047900 0.00828200 0.04720000
v 0.28047900 0.00828200 0.04730000
v 0.28168700 0.00883500 0.04720000
v 0.28168700 0.00883500 0.04730000
v 0.28295100 0.00921200 0.04720000
v 0.28295100 0.00921200 0.04730000
v 0.28425200 0.00940900 0.04720000
v 0.28425200 0.00940900 0.04730000
v 0.28558900 0.00942300 0.04720000
v 0.28558900 0.00942300 0.04720000
v 0.28558900 0.00942300 0.04730000
v 0.28558900 0.00942300 0.04730000
v 0.28612600 0.00937600 0.04720000
v 0.28612600 0.00937600 0.04730000
v 0.28747400 0.00912100 0.04720000
v 0.28747400 0.00912100 0.04730000
v 0.28876300 0.00867900 0.04720000
v 0.28876300 0.00867900 0.04730000
v 0.28997200 0.00805800 0.04720000
v 0.28997200 0.00805800 0.04730000
v 0.29108000 0.00727000 0.04720000
v 0.29108000 0.00727000 0.04730000
v 0.29206200 0.00633500 0.04720000
v 0.29206200 0.00633500 0.04730000
v 0.29290000 0.00527300 0.04720000
v 0.29290000 0.00527300 0.04730000
v 0.29357300 0.00411900 0.04720000
v 0.29357300 0.00411900 0.04730000
v 0.29407400 0.00289200 0.04720000
v 0.29407400 0.00289200 0.04730000
v 0.29439800 0.00161500 0.04720000
v 0.29439800 0.00161500 0.04730000
v 0.29454100 0.00030600 0.04720000
v 0.29454100 0.00030600 0.04730000
v 0.29449800 -0.00104000 0.04720000
v 0.29449800 -0.00104000 0.04730000
v 0.29432500 -0.00212800 0.04720000
v 0.29432500 -0.00212800 0.04730000
v 0.29393800 -0.00343600 0.04720000
v 0.29393800 -0.00343600 0.04730000
v 0.29336800 -0.00467200 0.04720000
v 0.29336800 -0.00467200 0.04730000
v 0.29262800 -0.00581200 0.04720000
v 0.29262800 -0.00581200 0.04730000
v 0.29173500 -0.00683300 0.04720000
v 0.29173500 -0.00683300 0.04730000
v 0.29070800 -0.00771700 0.04720000
v 0.29070800 -0.00771700 0.04730000
v 0.28958000 -0.00843900 0.04720000
v 0.28958000 -0.00843900 0.04730000
v 0.28837200 -0.00899200 0.04720000
v 0.28837200 -0.00899200 0.04730000
v 0.28710800 -0.00936900 0.04720000
v 0.28710800 -0.00936900 0.04730000
v 0.28580700 -0.00956600 0.04720000
v 0.28580700 -0.00956600 0.04730000
v 0.28447000 -0.00958000 0.04720000
v 0.28447000 -0.00958000 0.04720000
v 0.28447000 -0.00958000 0.04730000
v 0.28447000 -0.00958000 0.04730000
v 0.28393300 -0.00953300 0.04720000
v 0.28393300 -0.00953300 0.04730000
v 0.28258500 -0.00927800 0.04720000
v 0.28258500 -0.00927800 0.04730000
v 0.28129600 -0.00883600 0.04720000
v 0.28129600 -0.00883600 0.04730000
v 0.28008700 -0.00821500 0.04720000
v 0.28008700 -0.00821500 0.04730000
v 0.27898000 -0.00742700 0.04720000
v 0.27898000 -0.00742700 0.04730000
v 0.27799800 -0.00649200 0.04720000
v 0.27799800 -0.00649200 0.04730000
v 0.27715900 -0.00543000 0.04720000
v 0.27715900 -0.00543000 0.04730000
v 0.27648600 -0.00427600 0.04720000
v 0.27648600 -0.00427600 0.04730000
v 0.27598500 -0.00304900 0.04720000
v 0.27598500 -0.00304900 0.04730000
v 0.27566100 -0.00177200 0.04720000
v 0.27566100 -0.00177200 0.04730000
v 0.27551800 -0.00046300 0.04720000
v 0.27551800 -0.00046300 0.04730000
v 0.27556100 0.00088300 0.04730000
vn 0.00000000 0.00000000 1.00000000
vn -0.00000600 0.00000100 1.00000000
vn 0.00000000 0.00000000 1.00000000
vn 0.00000000 0.00000000 1.00000000
vn -0.00000500 0.00000100 1.00000000
vn 0.00000000 0.00000000 1.00000000
vn 0.00000000 0.00000000 1.00000000
vn -0.00000500 0.00000100 1.00000000
vn 0.00000000 0.00000000 1.00000000
vn 0.00000000 0.00000000 1.00000000
vn -0.00000300 0.00000000 1.00000000
vn 0.00000000 0.00000000 1.00000000
vn 0.00000000 0.00000000 1.00000000
vn -0.00000500 0.00000100 1.00000000
vn -0.00000500 0.00000100 1.00000000
vn 0.00000000 0.00000000 1.00000000
vn 0.00000000 0.00000000 1.00000000
vn -0.00000500 0.00000100 1.00000000
vn 0.00000400 -0.00000000 1.00000000
vn 0.00000000 0.00000000 1.00000000
vn 0.00000000 0.00000000 1.00000000
vn 0.00000400 -0.00000000 1.00000000
vn -0.00000400 0.00000000 1.00000000
vn 0.00000400 -0.00000000 1.00000000
vn -0.00000400 0.00000000 1.00000000
vn 0.00000100 -0.00000000 1.00000000
vn -0.00000500 0.00000100 1.00000000
vn 0.00000000 0.00000000 1.00000000
vn -0.00000500 0.00000100 1.00000000
vn 0.00000000 0.00000000 1.00000000
vn 0.00000000 0.00000000 1.00000000
vn 0.00000000 0.00000000 1.00000000
vn 0.00000000 0.00000000 1.00000000
vn 0.00000000 0.00000000 1.00000000
vn -0.00000600 0.00000100 1.00000000
vn 0.00000000 0.00000000 1.00000000
vn 0.00000000 0.00000000 1.00000000
vn -0.00000600 0.00000100 1.00000000
vn -0.00000600 0.00000100 1.00000000
vn 0.00000000 0.00000000 1.00000000
vn 0.00000000 0.00000000 1.00000000
vn 0.00000000 0.00000000 1.00000000
vn 0.00000000 0.00000000 1.00000000
vn 0.00000500 -0.00000100 1.00000000
vn 0.00000500 -0.00000100 1.00000000
vn -0.00000600 0.00000100 1.00000000
vn 0.00000000 0.00000000 1.00000000
vn 0.00000500 -0.00000100 1.00000000
vn -0.00000600 0.00000100 1.00000000
vn 0.00000500 -0.00000100 1.00000000
vn -0.00000600 0.00000100 1.00000000
vn 0.00000500 -0.00000100 1.00000000
vn -0.00000300 0.00000000 1.00000000
vn 0.00000500 -0.00000100 1.00000000
vn 0.00000000 0.00000000 1.00000000
vn -0.00000300 0.00000000 1.00000000
vn -0.00000300 0.00000000 1.00000000
vn 0.00000000 0.00000000 1.00000000
vn 0.00000000 0.00000000 1.00000000
vn 0.00000000 0.00000000 1.00000000
vn -0.00000300 0.00000000 1.00000000
vn -0.00000300 0.00000000 1.00000000
vn 0.00000000 0.00000000 1.00000000
vn 0.00000000 0.00000000 1.00000000
vn 0.00000000 0.00000000 1.00000000
vn -0.00000300 0.00000000 1.00000000
vn 0.00000300 -0.00000000 1.00000000
vn 0.00000000 0.00000000 1.00000000
vn -0.00000500 0.00000100 1.00000000
vn 0.00000300 -0.00000000 1.00000000
vn 0.00000000 0.00000000 1.00000000
vn 0.00000300 -0.00000000 1.00000000
vn 0.00000100 -0.00000000 1.00000000
vn -0.00000500 0.00000100 1.00000000
vn 0.00000100 -0.00000000 1.00000000
vn -0.00000500 0.00000100 1.00000000
vn 0.00000000 0.00000000 1.00000000
vn 0.00000000 0.00000000 1.00000000
vn 0.00000100 -0.00000000 1.00000000
vn 0.00000100 -0.00000000 1.00000000
vn 0.00000100 -0.00000000 1.00000000
vn -0.00000900 0.00000100 1.00000000
vn 0.00000000 0.00000000 1.00000000
vn -0.00000900 0.00000100 1.00000000
vn -0.00000100 0.00000000 1.00000000
vn 0.00000100 -0.00000000 1.00000000
vn 0.00000000 0.00000000 1.00000000
vn 0.00000500 -0.00000100 1.00000000
vn 0.00000000 0.00000000 1.00000000
vn 0.00000000 0.00000000 1.00000000
vn 0.00001000 -0.00000100 1.00000000
vn 0.00000500 -0.00000100 1.00000000
vn 0.00000500 -0.00000100 1.00000000
vn -0.00000300 0.00000000 1.00000000
vn 0.00001000 -0.00000100 1.00000000
vn 0.00000000 0.00000000 1.00000000
vn -0.00000300 0.00000000 1.00000000
vn 0.00001000 -0.00000100 1.00000000
vn -0.00000300 0.00000000 1.00000000
vn 0.00000000 0.00000000 1.00000000
vn 0.00000000 0.00000000 1.00000000
vn 0.00001000 -0.00000100 1.00000000
vn 0.00001000 -0.00000100 1.00000000
vn 0.00000000 0.00000000 1.00000000
vn 0.00000000 0.00000000 1.00000000
vn 0.00001000 -0.00000100 1.00000000
vn 0.00000000 0.00000000 1.00000000
vn 0.00000600 -0.00000100 1.00000000
vn 0.00000600 -0.00000100 1.00000000
vn 0.00000000 0.00000000 1.00000000
vn 0.00000600 -0.00000100 1.00000000
vn 0.00000000 0.00000000 1.00000000
vn 0.00000000 0.00000000 1.00000000
vn 0.00000000 0.00000000 1.00000000
vn 0.00000000 0.00000000 1.00000000
vn 0.00000000 0.00000000 1.00000000
vn 0.00000300 -0.00000000 1.00000000
vn 0.00000300 -0.00000000 1.00000000
vn 0.00000000 0.00000000 1.00000000
vn -0.00000300 0.00000000 1.00000000
vn 0.00000000 0.00000000 1.00000000
vn 0.00000300 -0.00000000 1.00000000
vn 0.00000000 0.00000000 1.00000000
vn -0.00000300 0.00000000 1.00000000
vn -0.00000300 0.00000000 1.00000000
vn 0.00000000 0.00000000 1.00000000
vn -0.00000300 0.00000000 1.00000000
vn -0.00000300 0.00000000 1.00000000
vn 0.00000000 0.00000000 1.00000000
vn 0.00000000 0.00000000 1.00000000
vn 0.00000000 0.00000000 1.00000000
vn -0.00000600 0.00000100 1.00000000
vn 0.00000000 0.00000000 1.00000000
vn -0.00000600 0.00000100 1.00000000
vn 0.00000000 0.00000000 1.00000000
vn 0.00000000 0.00000000 1.00000000
vn 0.00000000 0.00000000 1.00000000
vn 0.00000000 0.00000000 1.00000000
vn -0.00000600 0.00000100 1.00000000
vn -0.00000600 0.00000100 1.00000000
vn 0.00000000 0.00000000 1.00000000
vn 0.00000000 0.00000000 1.00000000
vn -0.00000600 0.00000100 1.00000000
vn 0.00000600 -0.00000100 1.00000000
vn 0.00000600 -0.00000100 1.00000000
vn -0.00001000 0.00000100 1.00000000
vn 0.00000000 0.00000000 1.00000000
vn -0.00001000 0.00000100 1.00000000
vn 0.00000600 -0.00000100 1.00000000
vn 0.00000300 -0.00000000 1.00000000
vn -0.00001000 0.00000100 1.00000000
vn 0.00000000 0.00000000 1.00000000
vn 0.00000300 -0.00000000 1.00000000
vn 0.00000300 -0.00000000 1.00000000
vn 0.00000300 -0.00000000 1.00000000
vn 0.00000000 0.00000000 1.00000000
vn -0.00000500 0.00000100 1.00000000
vn 0.00000300 -0.00000000 1.00000000
vn 0.00000000 0.00000000 1.00000000
vn -0.00000500 0.00000100 1.00000000
vn 0.00000100 -0.00000000 1.00000000
vn 0.00000300 -0.00000000 1.00000000
vn -0.00000400 0.00000000 1.00000000
vn 0.00000100 -0.00000000 1.00000000
vn 0.00000000 0.00000000 1.00000000
vn 0.00000000 0.00000000 1.00000000
vn 0.00000000 0.00000000 1.00000000
vn 0.00000000 0.00000000 1.00000000
vn -0.00001000 0.00000100 1.00000000
vn 0.00000000 0.00000000 1.00000000
vn 0.00000000 0.00000000 1.00000000
vn -0.00001000 0.00000100 1.00000000
vn 0.00000600 -0.00000100 1.00000000
vn -0.00001000 0.00000100 1.00000000
vn 0.00000600 -0.00000100 1.00000000
vn 0.00000000 0.00000000 1.00000000
vn -0.00000600 0.00000100 1.00000000
vn 0.00000600 -0.00000100 1.00000000
vn 0.00000000 0.00000000 1.00000000
vn -0.00000600 0.00000100 1.00000000
vn 0.00000000 0.00000000 1.00000000
vn 0.00000000 0.00000000 1.00000000
vn -0.00000600 0.00000100 1.00000000
vn 0.00000300 -0.00000000 1.00000000
vn 0.00000300 -0.00000000 1.00000000
vn 0.00000000 0.00000000 1.00000000
vn 0.00000000 0.00000000 1.00000000
vn 0.00000300 -0.00000000 1.00000000
vn -0.00000300 0.00000000 1.00000000
vn 0.00000000 0.00000000 1.00000000
vn -0.00000300 0.00000000 1.00000000
vn 0.00000000 0.00000000 1.00000000
vn -0.00000300 0.00000000 1.00000000
vn -0.00000100 0.00000000 1.00000000
vn -0.00000900 0.00000100 1.00000000
vn -0.00000100 0.00000000 1.00000000
vn -0.00000500 0.00000000 -1.00000000
vn 0.00000600 -0.00000100 -1.00000000
vn 0.00000000 0.00000000 -1.00000000
vn -0.00000100 0.00000000 -1.00000000
vn 0.00000000 0.00000000 -1.00000000
vn 0.00000600 -0.00000100 -1.00000000
vn -0.00000500 0.00000000 -1.00000000
vn 0.00000600 -0.00000100 -1.00000000
vn 0.00000000 0.00000000 -1.00000000
vn 0.00000000 0.00000000 -1.00000000
vn 0.00000000 0.00000000 -1.00000000
vn 0.00000100 -0.00000000 -1.00000000
vn 0.00000000 0.00000000 -1.00000000
vn -0.00000100 0.00000000 -1.00000000
vn 0.00000000 0.00000000 -1.00000000
vn 0.00000000 0.00000000 -1.00000000
vn -0.00000100 0.00000000 -1.00000000
vn -0.00000600 0.00000100 -1.00000000
vn 0.00000000 0.00000000 -1.00000000
vn -0.00000600 0.00000100 -1.00000000
vn 0.00000200 -0.00000000 -1.00000000
vn 0.00000100 -0.00000000 -1.00000000
vn -0.00000500 0.00000000 -1.00000000
vn 0.00000000 0.00000000 -1.00000000
vn -0.00000500 0.00000000 -1.00000000
vn 0.00000100 -0.00000000 -1.00000000
vn 0.00000000 0.00000000 -1.00000000
vn 0.00000000 0.00000000 -1.00000000
vn -0.00000100 0.00000000 -1.00000000
vn -0.00000500 0.00000000 -1.00000000
vn 0.00000000 0.00000000 -1.00000000
vn -0.00000500 0.00000000 -1.00000000
vn 0.00000000 0.00000000 -1.00000000
vn 0.00000000 0.00000000 -1.00000000
vn 0.00000000 0.00000000 -1.00000000
vn 0.00000000 0.00000000 -1.00000000
vn 0.00000000 0.00000000 -1.00000000
vn -0.00001100 0.00000100 -1.00000000
vn 0.00000000 0.00000000 -1.00000000
vn -0.00001100 0.00000100 -1.00000000
vn 0.00000000 0.00000000 -1.00000000
vn 0.00000000 0.00000000 -1.00000000
vn -0.00001100 0.00000100 -1.00000000
vn 0.00000000 0.00000000 -1.00000000
vn 0.00000500 -0.00000100 -1.00000000
vn 0.00000500 -0.00000100 -1.00000000
vn 0.00000000 0.00000000 -1.00000000
vn 0.00000000 0.00000000 -1.00000000
vn 0.00000500 -0.00000100 -1.00000000
vn 0.00000000 0.00000000 -1.00000000
vn 0.00000000 0.00000000 -1.00000000
vn 0.00000000 0.00000000 -1.00000000
vn 0.00000000 0.00000000 -1.00000000
vn 0.00000000 0.00000000 -1.00000000
vn 0.00000000 0.00000000 -1.00000000
vn 0.00000000 0.00000000 -1.00000000
vn 0.00000000 0.00000000 -1.00000000
vn 0.00000000 0.00000000 -1.00000000
vn 0.00000200 -0.00000000 -1.00000000
vn 0.00000000 0.00000000 -1.00000000
vn 0.00000000 0.00000000 -1.00000000
vn -0.00000300 0.00000000 -1.00000000
vn 0.00000200 -0.00000000 -1.00000000
vn 0.00000000 0.00000000 -1.00000000
vn 0.00000000 0.00000000 -1.00000000
vn 0.00000000 0.00000000 -1.00000000
vn 0.00000000 0.00000000 -1.00000000
vn 0.00000000 0.00000000 -1.00000000
vn 0.00000600 -0.00000100 -1.00000000
vn 0.00000000 0.00000000 -1.00000000
vn 0.00000000 0.00000000 -1.00000000
vn 0.00000600 -0.00000100 -1.00000000
vn 0.00000600 -0.00000100 -1.00000000
vn 0.00000000 0.00000000 -1.00000000
vn 0.00000000 0.00000000 -1.00000000
vn 0.00000000 0.00000000 -1.00000000
vn -0.00000500 0.00000100 -1.00000000
vn 0.00000000 0.00000000 -1.00000000
vn -0.00000500 0.00000100 -1.00000000
vn -0.00000500 0.00000100 -1.00000000
vn 0.00000000 0.00000000 -1.00000000
vn 0.00000000 0.00000000 -1.00000000
vn 0.00000000 0.00000000 -1.00000000
vn 0.00001100 -0.00000100 -1.00000000
vn 0.00001100 -0.00000100 -1.00000000
vn 0.00000000 0.00000000 -1.00000000
vn 0.00000000 0.00000000 -1.00000000
vn 0.00001100 -0.00000100 -1.00000000
vn 0.00000000 0.00000000 -1.00000000
vn 0.00000000 0.00000000 -1.00000000
vn 0.00000000 0.00000000 -1.00000000
vn 0.00000000 0.00000000 -1.00000000
vn 0.00000000 0.00000000 -1.00000000
vn 0.00001100 -0.00000100 -1.00000000
vn -0.00000700 0.00000100 -1.00000000
vn 0.00000000 0.00000000 -1.00000000
vn 0.00001100 -0.00000100 -1.00000000
vn 0.00000000 0.00000000 -1.00000000
vn -0.00000700 0.00000100 -1.00000000
vn 0.00000300 -0.00000000 -1.00000000
vn 0.00001100 -0.00000100 -1.00000000
vn -0.00000700 0.00000100 -1.00000000
vn 0.00000000 0.00000000 -1.00000000
vn 0.00000000 0.00000000 -1.00000000
vn 0.00000500 -0.00000100 -1.00000000
vn 0.00000300 -0.00000000 -1.00000000
vn 0.00000500 -0.00000100 -1.00000000
vn 0.00000000 0.00000000 -1.00000000
vn 0.00000300 -0.00000000 -1.00000000
vn 0.00000000 0.00000000 -1.00000000
vn 0.00000500 -0.00000100 -1.00000000
vn -0.00000400 0.00000000 -1.00000000
vn 0.00000000 0.00000000 -1.00000000
vn 0.00000000 0.00000000 -1.00000000
vn -0.00000400 0.00000000 -1.00000000
vn -0.00000400 0.00000000 -1.00000000
vn 0.00000500 -0.00000100 -1.00000000
vn 0.00000000 0.00000000 -1.00000000
vn -0.00000500 0.00000100 -1.00000000
vn 0.00000000 0.00000000 -1.00000000
vn 0.00000500 -0.00000100 -1.00000000
vn 0.00000300 -0.00000000 -1.00000000
vn 0.00000500 -0.00000100 -1.00000000
vn -0.00000500 0.00000100 -1.00000000
vn -0.00000500 0.00000100 -1.00000000
vn 0.00000500 -0.00000100 -1.00000000
vn 0.00000300 -0.00000000 -1.00000000
vn 0.00000500 -0.00000100 -1.00000000
vn 0.00000300 -0.00000000 -1.00000000
vn -0.00000300 0.00000000 -1.00000000
vn -0.00000300 0.00000000 -1.00000000
vn -0.00000300 0.00000000 -1.00000000
vn 0.00000500 -0.00000100 -1.00000000
vn -0.00000300 0.00000000 -1.00000000
vn 0.00000000 0.00000000 -1.00000000
vn -0.00000300 0.00000000 -1.00000000
vn -0.00000300 0.00000000 -1.00000000
vn 0.00000000 0.00000000 -1.00000000
vn 0.00000000 0.00000000 -1.00000000
vn 0.00000200 -0.00000000 -1.00000000
vn 0.00000000 0.00000000 -1.00000000
vn 0.00000000 0.00000000 -1.00000000
vn 0.00000200 -0.00000000 -1.00000000
vn -0.00000600 0.00000100 -1.00000000
vn 0.00000000 0.00000000 -1.00000000
vn 0.00000000 0.00000000 -1.00000000
vn 0.00000200 -0.00000000 -1.00000000
vn -0.00000300 0.00000000 -1.00000000
vn 0.00000000 0.00000000 -1.00000000
vn 0.00000000 0.00000000 -1.00000000
vn -0.00000300 0.00000000 -1.00000000
vn 0.00000300 -0.00000000 -1.00000000
vn 0.00000300 -0.00000000 -1.00000000
vn 0.00000000 0.00000000 -1.00000000
vn -0.00000500 0.00000100 -1.00000000
vn 0.00000300 -0.00000000 -1.00000000
vn 0.00000200 -0.00000000 -1.00000000
vn -0.00000500 0.00000100 -1.00000000
vn 0.00000200 -0.00000000 -1.00000000
vn 0.00000000 0.00000000 -1.00000000
vn -0.00000500 0.00000100 -1.00000000
vn 0.00000200 -0.00000000 -1.00000000
vn 0.00000000 0.00000000 -1.00000000
vn 0.00000000 0.00000000 -1.00000000
vn 0.00000000 0.00000000 -1.00000000
vn 0.00000000 0.00000000 -1.00000000
vn -0.00000300 0.00000000 -1.00000000
vn 0.00000000 0.00000000 -1.00000000
vn 0.00000000 0.00000000 -1.00000000
vn -0.00000300 0.00000000 -1.00000000
vn 0.00000300 -0.00000000 -1.00000000
vn -0.00000300 0.00000000 -1.00000000
vn 0.00000300 -0.00000000 -1.00000000
vn 0.00000000 0.00000000 -1.00000000
vn -0.00000100 0.00000000 -1.00000000
vn 0.00000000 0.00000000 -1.00000000
vn 0.00000300 -0.00000000 -1.00000000
vn -0.00000100 0.00000000 -1.00000000
vn 0.00000000 0.00000000 -1.00000000
vn -0.00000100 0.00000000 -1.00000000
vn 0.00000000 0.00000000 -1.00000000
vn -0.00000100 0.00000000 -1.00000000
vn -0.00000100 0.00000000 -1.00000000
vn 0.00000000 0.00000000 -1.00000000
vn 0.00000000 0.00000000 -1.00000000
vn 0.99776700 -0.06678700 0.00000000
vn 0.99511300 -0.09874300 0.00001000
vn 0.99995300 0.00969600 -0.00000100
vn 0.99853600 0.05408500 0.00000000
vn 0.98983000 0.14225800 0.00001100
vn 0.98255600 0.18596800 -0.00001300
vn 0.96225200 0.27216000 0.00000000
vn 0.94923400 0.31457200 0.00000900
vn 0.91764800 0.39739500 0.00001100
vn 0.89909700 0.43775000 -0.00001100
vn 0.85786600 0.51387300 0.00000800
vn 0.83543600 0.54958700 -0.00001000
vn 0.78595600 0.61828300 0.00000000
vn 0.75899100 0.65110100 -0.00000700
vn 0.69923300 0.71489400 0.00000900
vn 0.66630500 0.74567900 0.00000000
vn 0.59631200 0.80275300 0.00000000
vn 0.55923400 0.82901000 0.00000000
vn 0.48164300 0.87636700 0.00000000
vn 0.44115500 0.89743100 0.00000000
vn 0.35749800 0.93391400 0.00000000
vn 0.31441700 0.94928500 -0.00001000
vn 0.22706100 0.97388000 -0.00000100
vn 0.18279400 0.98315100 0.00000000
vn 0.09411500 0.99556100 0.00001000
vn 0.04971600 0.99876300 0.00000100
vn -0.03914200 0.99923400 0.00000000
vn -0.08357100 0.99650200 0.00000000
vn -0.17154000 0.98517700 0.00000800
vn -0.21501400 0.97661100 0.00000000
vn -0.30056500 0.95376100 0.00000000
vn -0.34261600 0.93947600 0.00000000
vn -0.42451600 0.90542000 0.00001000
vn -0.46425500 0.88570100 0.00000000
vn -0.54117100 0.84091300 0.00000000
vn -0.57814100 0.81593700 0.00000000
vn -0.64883100 0.76093200 -0.00000900
vn -0.68231300 0.73106000 -0.00001100
vn -0.74530600 0.66672300 0.00000900
vn -0.77462500 0.63242000 -0.00000900
vn -0.82869700 0.55969800 0.00001000
vn -0.85326400 0.52148000 -0.00001100
vn -0.89716600 0.44169300 0.00000900
vn -0.91642500 0.40020700 0.00000000
vn -0.94909800 0.31498000 -0.00000100
vn -0.96250800 0.27125200 0.00000000
vn -0.98078800 0.19507600 0.00000600
vn -0.98662800 0.16298600 0.00000000
vn -0.99511000 0.09876800 0.00000600
vn -0.99776900 0.06676200 0.00000000
vn -0.99995300 -0.00971600 0.00000000
vn -0.99853500 -0.05410700 0.00000000
vn -0.98982300 -0.14230700 0.00001100
vn -0.98255600 -0.18596700 0.00000700
vn -0.96225600 -0.27214500 0.00000800
vn -0.94925500 -0.31450800 -0.00000800
vn -0.91764400 -0.39740500 0.00000000
vn -0.89909300 -0.43775800 0.00000000
vn -0.85789300 -0.51382800 0.00000000
vn -0.83541100 -0.54962500 -0.00000000
vn -0.78596100 -0.61827600 0.00000900
vn -0.75899600 -0.65109600 0.00000100
vn -0.69924500 -0.71488200 0.00000000
vn -0.66631900 -0.74566700 0.00000000
vn -0.59632600 -0.80274200 0.00000000
vn -0.55924800 -0.82900000 0.00000100
vn -0.48162400 -0.87637800 0.00000900
vn -0.44117900 -0.89741900 -0.00001100
vn -0.35750600 -0.93391100 0.00000900
vn -0.31442500 -0.94928200 0.00000000
vn -0.22705500 -0.97388200 0.00000000
vn -0.18278700 -0.98315300 0.00000000
vn -0.09411200 -0.99556200 0.00000800
vn -0.04971400 -0.99876400 0.00000000
vn 0.03914200 -0.99923400 0.00000000
vn 0.08357200 -0.99650200 0.00000000
vn 0.17154400 -0.98517600 0.00000000
vn 0.21501900 -0.97661000 0.00000000
vn 0.30057000 -0.95376000 0.00000000
vn 0.34262000 -0.93947400 0.00000900
vn 0.42448900 -0.90543300 0.00000000
vn 0.46427200 -0.88569200 -0.00000900
vn 0.54118500 -0.84090300 0.00001100
vn 0.57819700 -0.81589700 -0.00000900
vn 0.64882700 -0.76093600 0.00000900
vn 0.68234600 -0.73102900 -0.00000000
vn 0.74529800 -0.66673100 0.00000000
vn 0.77465000 -0.63239000 0.00000000
vn 0.82866800 -0.55974100 0.00000000
vn 0.85328800 -0.52143900 -0.00000900
vn 0.89717300 -0.44167800 0.00000900
vn 0.91641100 -0.40023900 -0.00000900
vn 0.94908500 -0.31502100 0.00000000
vn 0.96249600 -0.27129400 0.00000000
vn 0.98078200 -0.19510600 0.00000000
vn 0.98663100 -0.16296800 0.00000000
vn 0.98749100 -0.15767700 0.00000000
vn 0.99729400 -0.07351700 0.00000000
vn 0.99728700 -0.07360800 0.00000000
vn 0.97977600 -0.20010000 0.00000000
vn 0.97023900 -0.24215000 0.00000000
vn 0.94416700 -0.32946800 0.00000000
vn 0.92723400 -0.37448200 0.00000000
vn 0.88706500 -0.46164500 0.00000000
vn 0.86393300 -0.50360600 0.00000000
vn 0.81195300 -0.58372300 0.00000000
vn 0.78322600 -0.62173700 0.00000000
vn 0.72077700 -0.69316700 0.00000000
vn 0.68720100 -0.72646700 0.00000000
vn 0.61583200 -0.78787800 0.00000000
vn 0.57811200 -0.81595700 0.00000000
vn 0.49938700 -0.86637900 0.00000000
vn 0.45838800 -0.88875200 0.00000000
vn 0.37368200 -0.92755700 0.00000000
vn 0.33008900 -0.94395000 0.00000000
vn 0.24089000 -0.97055200 0.00000000
vn 0.19543900 -0.98071600 0.00000000
vn 0.10344100 -0.99463600 0.00000000
vn 0.05692900 -0.99837800 0.00000000
vn -0.02223600 -0.99975300 0.00000000
vn -0.02216800 -0.99975400 0.00000000
vn 0.01033100 -0.99994700 0.00000000
vn -0.08717900 -0.99619300 0.00000000
vn -0.12016400 -0.99275400 0.00000000
vn -0.15285200 -0.98824900 0.00000000
vn -0.23236000 -0.97263000 0.00000000
vn -0.27881200 -0.96034600 0.00000000
vn -0.36954500 -0.92921300 0.00000000
vn -0.41383400 -0.91035200 0.00000000
vn -0.49904600 -0.86657600 0.00000000
vn -0.53998200 -0.84167700 0.00000000
vn -0.61763800 -0.78646300 0.00000000
vn -0.65432900 -0.75621000 0.00000000
vn -0.72286900 -0.69098500 0.00000000
vn -0.75469600 -0.65607500 0.00000000
vn -0.81300700 -0.58225400 0.00000000
vn -0.83942800 -0.54347100 0.00000000
vn -0.88649000 -0.46274700 0.00000000
vn -0.90711200 -0.42088900 0.00000000
vn -0.94232800 -0.33469100 0.00000000
vn -0.95690300 -0.29040900 0.00000000
vn -0.97974400 -0.20025500 0.00000000
vn -0.98799100 -0.15451100 0.00000000
vn -0.99807800 -0.06197000 0.00000000
vn -0.99988200 -0.01534200 0.00000000
vn -0.99729100 0.07355500 0.00000000
vn -0.99328300 0.11571100 0.00000000
vn -0.97979100 0.20002500 0.00000000
vn -0.97024700 0.24211700 0.00000000
vn -0.94418000 0.32942900 0.00000000
vn -0.92723300 0.37448500 0.00000000
vn -0.88705400 0.46166500 0.00000000
vn -0.86392200 0.50362500 0.00000000
vn -0.81195900 0.58371400 0.00000000
vn -0.78320500 0.62176400 0.00000000
vn -0.72079700 0.69314700 0.00000000
vn -0.68722300 0.72644600 0.00000000
vn -0.61581300 0.78789200 0.00000000
vn -0.57813100 0.81594400 0.00000000
vn -0.49936600 0.86639100 0.00000000
vn -0.45836300 0.88876500 0.00000000
vn -0.37365700 0.92756700 0.00000000
vn -0.33002300 0.94397300 0.00000000
vn -0.24087600 0.97055600 0.00000000
vn -0.19547300 0.98070900 0.00000000
vn -0.10346600 0.99463300 0.00000000
vn -0.05695600 0.99837700 0.00000000
vn 0.02223700 0.99975300 0.00000000
vn 0.02216800 0.99975400 0.00000000
vn -0.01033100 0.99994700 0.00000000
vn 0.08718100 0.99619300 0.00000000
vn 0.12016400 0.99275400 0.00000000
vn 0.15285200 0.98824900 0.00000000
vn 0.23236500 0.97262900 0.00000000
vn 0.27881700 0.96034400 0.00000000
vn 0.36954000 0.92921500 0.00000000
vn 0.41383000 0.91035400 0.00000000
vn 0.49906300 0.86656600 0.00000000
vn 0.53999800 0.84166600 0.00000000
vn 0.61760700 0.78648700 0.00000000
vn 0.65430000 0.75623500 0.00000000
vn 0.72286200 0.69099300 0.00000000
vn 0.75471900 0.65604800 0.00000000
vn 0.81299500 0.58227100 0.00000000
vn 0.83944100 0.54345100 0.00000000
vn 0.88651000 0.46271000 0.00000000
vn 0.90712900 0.42085300 0.00000000
vn 0.94232800 0.33469000 0.00000000
vn 0.95690200 0.29041100 0.00000000
vn 0.97974200 0.20026300 0.00000000
vn 0.98799700 0.15447600 0.00000000
vn 0.99807900 0.06196100 0.00000000
vn 0.99988200 0.01533500 0.00000000
vn 0.99951000 -0.03129800 0.00000000
f 1//1 3//3 4//4
f 6//6 7//7 9//9
f 10//10 12//12 13//13
f 13//13 12//12 16//16
f 14//14 15//15 18//18
f 17//17 16//16 20//20
f 17//17 20//20 21//21
f 22//22 19//19 24//24
f 5//5 8//8 29//29
f 28//28 9//9 30//30
f 28//28 30//30 31//31
f 31//31 30//30 32//32
f 31//31 32//32 33//33
f 33//33 32//32 34//34
f 33//33 34//34 36//36
f 36//36 34//34 37//37
f 35//35 38//38 39//39
f 40//40 37//37 41//41
f 40//40 41//41 42//42
f 42//42 41//41 43//43
f 42//42 43//43 47//47
f 45//45 44//44 48//48
f 46//46 49//49 51//51
f 52//52 50//50 54//54
f 53//53 56//56 57//57
f 58//58 55//55 59//59
f 58//58 59//59 60//60
f 60//60 59//59 63//63
f 61//61 62//62 11//11
f 10//10 63//63 64//64
f 10//10 64//64 12//12
f 65//65 68//68 71//71
f 70//70 67//67 72//72
f 69//69 74//74 76//76
f 75//75 73//73 80//80
f 77//77 78//78 83//83
f 81//81 79//79 86//86
f 1//1 4//4 89//89
f 89//89 4//4 90//90
f 88//88 92//92 93//93
f 95//95 91//91 98//98
f 94//94 97//97 99//99
f 100//100 96//96 101//101
f 100//100 101//101 104//104
f 103//103 102//102 106//106
f 104//104 105//105 107//107
f 107//107 105//105 110//110
f 108//108 109//109 111//111
f 112//112 110//110 113//113
f 112//112 113//113 114//114
f 114//114 113//113 115//115
f 114//114 115//115 116//116
f 116//116 115//115 119//119
f 117//117 118//118 122//122
f 121//121 119//119 123//123
f 120//120 124//124 127//127
f 126//126 123//123 129//129
f 125//125 128//128 66//66
f 65//65 129//129 130//130
f 65//65 130//130 68//68
f 3//3 1//1 131//131
f 132//132 2//2 134//134
f 131//131 133//133 135//135
f 135//135 133//133 136//136
f 135//135 136//136 137//137
f 137//137 136//136 138//138
f 137//137 138//138 141//141
f 140//140 139//139 143//143
f 141//141 142//142 147//147
f 145//145 144//144 149//149
f 146//146 148//148 151//151
f 153//153 150//150 155//155
f 152//152 156//156 159//159
f 158//158 154//154 162//162
f 157//157 160//160 27//27
f 26//26 161//161 164//164
f 25//25 163//163 23//23
f 7//7 6//6 165//165
f 165//165 6//6 166//166
f 165//165 166//166 167//167
f 167//167 166//166 168//168
f 167//167 168//168 170//170
f 170//170 168//168 171//171
f 169//169 172//172 174//174
f 175//175 173//173 178//178
f 176//176 179//179 181//181
f 180//180 177//177 183//183
f 181//181 182//182 186//186
f 185//185 184//184 188//188
f 186//186 187//187 190//190
f 191//191 189//189 193//193
f 190//190 192//192 87//87
f 85//85 194//194 196//196
f 84//84 195//195 82//82
f 198//198 202//202 204//204
f 206//206 207//207 209//209
f 205//205 201//201 211//211
f 210//210 200//200 213//213
f 211//211 212//212 215//215
f 209//209 207//207 220//220
f 218//218 208//208 222//222
f 219//219 221//221 226//226
f 203//203 228//228 197//197
f 199//199 227//227 229//229
f 199//199 229//229 230//230
f 230//230 229//229 231//231
f 230//230 231//231 232//232
f 232//232 231//231 233//233
f 232//232 233//233 235//235
f 235//235 233//233 237//237
f 234//234 236//236 239//239
f 238//238 237//237 240//240
f 238//238 240//240 243//243
f 242//242 241//241 245//245
f 243//243 244//244 246//246
f 246//246 244//244 247//247
f 246//246 247//247 248//248
f 248//248 247//247 249//249
f 248//248 249//249 250//250
f 250//250 249//249 251//251
f 250//250 251//251 252//252
f 252//252 251//251 253//253
f 252//252 253//253 254//254
f 254//254 253//253 256//256
f 254//254 256//256 257//257
f 209//209 260//260 206//206
f 206//206 260//260 261//261
f 206//206 261//261 262//262
f 262//262 261//261 263//263
f 262//262 263//263 264//264
f 264//264 263//263 266//266
f 264//264 266//266 267//267
f 268//268 265//265 269//269
f 267//267 270//270 271//271
f 271//271 270//270 272//272
f 271//271 272//272 274//274
f 275//275 273//273 276//276
f 274//274 277//277 278//278
f 278//278 277//277 279//279
f 278//278 279//279 282//282
f 281//281 280//280 284//284
f 282//282 283//283 285//285
f 285//285 283//283 286//286
f 285//285 286//286 287//287
f 287//287 286//286 288//288
f 287//287 288//288 289//289
f 289//289 288//288 292//292
f 290//290 293//293 297//297
f 291//291 298//298 295//295
f 294//294 299//299 300//300
f 296//296 302//302 305//305
f 303//303 301//301 307//307
f 304//304 306//306 309//309
f 309//309 306//306 310//310
f 308//308 311//311 312//312
f 314//314 310//310 316//316
f 313//313 317//317 319//319
f 320//320 315//315 321//321
f 318//318 323//323 325//325
f 324//324 322//322 329//329
f 326//326 328//328 332//332
f 330//330 327//327 333//333
f 331//331 334//334 335//335
f 335//335 334//334 337//337
f 335//335 337//337 338//338
f 339//339 336//336 217//217
f 338//338 215//215 341//341
f 340//340 216//216 214//214
f 255//255 343//343 259//259
f 257//257 342//342 345//345
f 258//258 344//344 347//347
f 346//346 345//345 350//350
f 348//348 349//349 352//352
f 354//354 351//351 357//357
f 353//353 355//355 358//358
f 359//359 356//356 360//360
f 359//359 360//360 361//361
f 361//361 360//360 362//362
f 361//361 362//362 364//364
f 364//364 362//362 365//365
f 363//363 366//366 368//368
f 369//369 367//367 373//373
f 370//370 372//372 375//375
f 374//374 371//371 378//378
f 375//375 377//377 380//380
f 379//379 376//376 225//225
f 380//380 224//224 381//381
f 381//381 224//224 223//223
f 382//382 383//383 384//384
f 382//382 384//384 385//385
f 385//385 384//384 386//386
f 385//385 386//386 387//387
f 387//387 386//386 388//388
f 387//387 388//388 389//389
f 389//389 388//388 390//390
f 389//389 390//390 391//391
f 391//391 390//390 392//392
f 391//391 392//392 393//393
f 393//393 392//392 394//394
f 393//393 394//394 395//395
f 395//395 394//394 396//396
f 395//395 396//396 397//397
f 397//397 396//396 398//398
f 397//397 398//398 399//399
f 399//399 398//398 400//400
f 399//399 400//400 401//401
f 401//401 400//400 402//402
f 401//401 402//402 403//403
f 403//403 402//402 404//404
f 403//403 404//404 405//405
f 405//405 404//404 406//406
f 405//405 406//406 407//407
f 407//407 406//406 408//408
f 407//407 408//408 409//409
f 409//409 408//408 410//410
f 409//409 410//410 411//411
f 411//411 410//410 412//412
f 411//411 412//412 413//413
f 413//413 412//412 414//414
f 413//413 414//414 415//415
f 415//415 414//414 416//416
f 415//415 416//416 417//417
f 417//417 416//416 418//418
f 417//417 418//418 419//419
f 419//419 418//418 420//420
f 419//419 420//420 421//421
f 421//421 420//420 422//422
f 421//421 422//422 423//423
f 423//423 422//422 424//424
f 423//423 424//424 425//425
f 425//425 424//424 426//426
f 425//425 426//426 427//427
f 427//427 426//426 428//428
f 427//427 428//428 429//429
f 429//429 428//428 430//430
f 429//429 430//430 431//431
f 431//431 430//430 432//432
f 431//431 432//432 433//433
f 433//433 432//432 434//434
f 433//433 434//434 435//435
f 435//435 434//434 436//436
f 435//435 436//436 437//437
f 437//437 436//436 438//438
f 437//437 438//438 439//439
f 439//439 438//438 440//440
f 439//439 440//440 441//441
f 441//441 440//440 442//442
f 441//441 442//442 443//443
f 443//443 442//442 444//444
f 443//443 444//444 445//445
f 445//445 444//444 446//446
f 445//445 446//446 447//447
f 447//447 446//446 448//448
f 447//447 448//448 449//449
f 449//449 448//448 450//450
f 449//449 450//450 451//451
f 451//451 450//450 452//452
f 451//451 452//452 453//453
f 453//453 452//452 454//454
f 453//453 454//454 455//455
f 455//455 454//454 456//456
f 455//455 456//456 457//457
f 457//457 456//456 458//458
f 457//457 458//458 459//459
f 459//459 458//458 460//460
f 459//459 460//460 461//461
f 461//461 460//460 462//462
f 461//461 462//462 463//463
f 463//463 462//462 464//464
f 463//463 464//464 465//465
f 465//465 464//464 466//466
f 465//465 466//466 467//467
f 467//467 466//466 468//468
f 467//467 468//468 469//469
f 469//469 468//468 470//470
f 469//469 470//470 471//471
f 471//471 470//470 472//472
f 471//471 472//472 473//473
f 473//473 472//472 474//474
f 473//473 474//474 475//475
f 475//475 474//474 476//476
f 475//475 476//476 477//477
f 477//477 476//476 383//383
f 477//477 383//383 382//382
f 478//478 480//480 481//481
f 478//478 481//481 482//482
f 482//482 481//481 483//483
f 482//482 483//483 484//484
f 484//484 483//483 485//485
f 484//484 485//485 486//486
f 486//486 485//485 487//487
f 486//486 487//487 488//488
f 488//488 487//487 489//489
f 488//488 489//489 490//490
f 490//490 489//489 491//491
f 490//490 491//491 492//492
f 492//492 491//491 493//493
f 492//492 493//493 494//494
f 494//494 493//493 495//495
f 494//494 495//495 496//496
f 496//496 495//495 497//497
f 496//496 497//497 498//498
f 498//498 497//497 499//499
f 498//498 499//499 500//500
f 500//500 499//499 502//502
f 500//500 502//502 503//503
f 504//504 501//501 505//505
f 504//504 505//505 506//506
f 506//506 505//505 507//507
f 506//506 507//507 508//508
f 508//508 507//507 509//509
f 508//508 509//509 510//510
f 510//510 509//509 511//511
f 510//510 511//511 512//512
f 512//512 511//511 513//513
f 512//512 513//513 514//514
f 514//514 513//513 515//515
f 514//514 515//515 516//516
f 516//516 515//515 517//517
f 516//516 517//517 518//518
f 518//518 517//517 519//519
f 518//518 519//519 520//520
f 520//520 519//519 521//521
f 520//520 521//521 522//522
f 522//522 521//521 523//523
f 522//522 523//523 524//524
f 524//524 523//523 525//525
f 524//524 525//525 526//526
f 526//526 525//525 527//527
f 526//526 527//527 528//528
f 528//528 527//527 529//529
f 528//528 529//529 530//530
f 530//530 529//529 531//531
f 530//530 531//531 532//532
f 532//532 531//531 533//533
f 532//532 533//533 534//534
f 534//534 533//533 535//535
f 534//534 535//535 536//536
f 536//536 535//535 537//537
f 536//536 537//537 538//538
f 538//538 537//537 539//539
f 538//538 539//539 540//540
f 540//540 539//539 541//541
f 540//540 541//541 542//542
f 542//542 541//541 543//543
f 542//542 543//543 544//544
f 544//544 543//543 545//545
f 544//544 545//545 546//546
f 546//546 545//545 547//547
f 546//546 547//547 548//548
f 548//548 547//547 550//550
f 548//548 550//550 551//551
f 552//552 549//549 553//553
f 552//552 553//553 554//554
f 554//554 553//553 555//555
f 554//554 555//555 556//556
f 556//556 555//555 557//557
f 556//556 557//557 558//558
f 558//558 557//557 559//559
f 558//558 559//559 560//560
f 560//560 559//559 561//561
f 560//560 561//561 562//562
f 562//562 561//561 563//563
f 562//562 563//563 564//564
f 564//564 563//563 565//565
f 564//564 565//565 566//566
f 566//566 565//565 567//567
f 566//566 567//567 568//568
f 568//568 567//567 569//569
f 568//568 569//569 570//570
f 570//570 569//569 571//571
f 570//570 571//571 572//572
f 572//572 571//571 573//573
f 572//572 573//573 574//574
f 574//574 573//573 479//479
f 574//574 479//479 575//575

