# https://github.com/mikedh/trimesh
v 0.29222000 0.01236400 0.04730000
v 0.29222000 0.01236400 0.04720000
v 0.29222100 0.01239500 0.04720000
v 0.29222100 0.01239500 0.04730000
v 0.29221800 0.01242500 0.04720000
v 0.29221800 0.01242500 0.04730000
v 0.29221100 0.01245400 0.04720000
v 0.29221100 0.01245400 0.04730000
v 0.29220000 0.01248200 0.04720000
v 0.29220000 0.01248200 0.04730000
v 0.29218500 0.01250900 0.04720000
v 0.29218500 0.01250900 0.04730000
v 0.29216600 0.01253400 0.04720000
v 0.29216600 0.01253400 0.04730000
v 0.29214400 0.01255600 0.04720000
v 0.29214400 0.01255600 0.04730000
v 0.29212000 0.01257500 0.04720000
v 0.29212000 0.01257500 0.04730000
v 0.29209300 0.01259100 0.04720000
v 0.29209300 0.01259100 0.04730000
v 0.29206400 0.01260200 0.04720000
v 0.29206400 0.01260200 0.04730000
v 0.29203300 0.01260900 0.04720000
v 0.29203300 0.01260900 0.04730000
v 0.29201800 0.01261100 0.04720000
v 0.29201800 0.01261100 0.04730000
v 0.29200200 0.01261300 0.04730000
v 0.29200200 0.01261300 0.04720000
v 0.29197100 0.01261400 0.04720000
v 0.29197100 0.01261400 0.04730000
v 0.29194100 0.01261100 0.04720000
v 0.29194100 0.01261100 0.04730000
v 0.29191200 0.01260400 0.04720000
v 0.29191200 0.01260400 0.04730000
v 0.29188400 0.01259300 0.04720000
v 0.29188400 0.01259300 0.04730000
v 0.29185700 0.01257800 0.04720000
v 0.29185700 0.01257800 0.04730000
v 0.29183700 0.01256300 0.04720000
v 0.29183700 0.01256300 0.04730000
v 0.29181400 0.01254300 0.04720000
v 0.29181400 0.01254300 0.04730000
v 0.29179500 0.01251900 0.04720000
v 0.29179500 0.01251900 0.04730000
v 0.29177900 0.01249200 0.04720000
v 0.29177900 0.01249200 0.04730000
v 0.29176600 0.01246400 0.04720000
v 0.29176600 0.01246400 0.04730000
v 0.29175800 0.01243400 0.04720000
v 0.29175800 0.01243400 0.04730000
v 0.29175500 0.01241200 0.04720000
v 0.29175500 0.01241200 0.04730000
v 0.29175400 0.01238100 0.04720000
v 0.29175400 0.01238100 0.04730000
v 0.29175700 0.01235100 0.04720000
v 0.29175700 0.01235100 0.04730000
v 0.29176400 0.01232100 0.04720000
v 0.29176400 0.01232100 0.04730000
v 0.29177500 0.01229300 0.04720000
v 0.29177500 0.01229300 0.04730000
v 0.29179000 0.01226600 0.04720000
v 0.29179000 0.01226600 0.04730000
v 0.29180800 0.01224100 0.04720000
v 0.29180800 0.01224100 0.04730000
v 0.29183000 0.01221900 0.04720000
v 0.29183000 0.01221900 0.04730000
v 0.29185500 0.01220000 0.04720000
v 0.29185500 0.01220000 0.04730000
v 0.29188200 0.01218500 0.04720000
v 0.29188200 0.01218500 0.04730000
v 0.29191100 0.01217300 0.04720000
v 0.29191100 0.01217300 0.04730000
v 0.29194100 0.01216600 0.04720000
v 0.29194100 0.01216600 0.04730000
v 0.29195600 0.01216400 0.04720000
v 0.29195600 0.01216400 0.04730000
v 0.29197300 0.01216200 0.04730000
v 0.29197300 0.01216200 0.04720000
v 0.29200300 0.01216100 0.04720000
v 0.29200300 0.01216100 0.04730000
v 0.29203300 0.01216400 0.04720000
v 0.29203300 0.01216400 0.04730000
v 0.29206300 0.01217100 0.04720000
v 0.29206300 0.01217100 0.04730000
v 0.29209100 0.01218200 0.04720000
v 0.29209100 0.01218200 0.04730000
v 0.29211800 0.01219700 0.04720000
v 0.29211800 0.01219700 0.04730000
v 0.29213800 0.01221200 0.04720000
v 0.29213800 0.01221200 0.04730000
v 0.29216100 0.01223400 0.04720000
v 0.29216100 0.01223400 0.04730000
v 0.29218100 0.01225800 0.04720000
v 0.29218100 0.01225800 0.04730000
v 0.29219700 0.01228600 0.04720000
v 0.29219700 0.01228600 0.04730000
v 0.29220900 0.01231500 0.04720000
v 0.29220900 0.01231500 0.04730000
v 0.29221700 0.01234500 0.04720000
v 0.29221700 0.01234500 0.04730000
v 0.29197300 0.01216200 0.04730000
v 0.29197300 0.01216200 0.04730000
v 0.29197300 0.01216200 0.04730000
v 0.29197300 0.01216200 0.04730000
v 0.29197300 0.01216200 0.04730000
v 0.29197300 0.01216200 0.04730000
v 0.29197300 0.01216200 0.04730000
v 0.29197300 0.01216200 0.04730000
v 0.29197300 0.01216200 0.04730000
v 0.29197300 0.01216200 0.04730000
v 0.29197300 0.01216200 0.04730000
v 0.29201800 0.01261100 0.04730000
v 0.29201800 0.01261100 0.04730000
v 0.29195600 0.01216400 0.04730000
v 0.29195600 0.01216400 0.04730000
v 0.29201800 0.01261100 0.04730000
v 0.29200200 0.01261300 0.04730000
v 0.29200200 0.01261300 0.04730000
v 0.29200200 0.01261300 0.04730000
v 0.29206300 0.01217100 0.04730000
v 0.29206300 0.01217100 0.04730000
v 0.29209100 0.01218200 0.04730000
v 0.29209100 0.01218200 0.04730000
v 0.29221700 0.01234500 0.04730000
v 0.29221700 0.01234500 0.04730000
v 0.29221700 0.01234500 0.04730000
v 0.29221700 0.01234500 0.04730000
v 0.29221700 0.01234500 0.04730000
v 0.29221700 0.01234500 0.04730000
v 0.29221700 0.01234500 0.04730000
v 0.29221700 0.01234500 0.04730000
v 0.29221100 0.01245400 0.04730000
v 0.29221100 0.01245400 0.04730000
v 0.29220000 0.01248200 0.04730000
v 0.29220000 0.01248200 0.04730000
v 0.29218500 0.01250900 0.04730000
v 0.29218500 0.01250900 0.04730000
v 0.29216600 0.01253400 0.04730000
v 0.29216600 0.01253400 0.04730000
v 0.29175500 0.01241200 0.04730000
v 0.29175500 0.01241200 0.04730000
v 0.29175400 0.01238100 0.04730000
v 0.29175400 0.01238100 0.04730000
v 0.29200200 0.01261300 0.04730000
v 0.29200200 0.01261300 0.04730000
v 0.29200200 0.01261300 0.04730000
v 0.29200200 0.01261300 0.04730000
v 0.29200200 0.01261300 0.04730000
v 0.29200200 0.01261300 0.04730000
v 0.29200200 0.01261300 0.04730000
v 0.29200200 0.01261300 0.04730000
v 0.29200200 0.01261300 0.04730000
v 0.29175700 0.01235100 0.04730000
v 0.29175700 0.01235100 0.04730000
v 0.29176400 0.01232100 0.04730000
v 0.29176400 0.01232100 0.04730000
v 0.29203300 0.01216400 0.04730000
v 0.29203300 0.01216400 0.04730000
v 0.29211800 0.01219700 0.04730000
v 0.29211800 0.01219700 0.04730000
v 0.29213800 0.01221200 0.04730000
v 0.29213800 0.01221200 0.04730000
v 0.29216100 0.01223400 0.04730000
v 0.29216100 0.01223400 0.04730000
v 0.29222000 0.01236400 0.04730000
v 0.29222100 0.01239500 0.04730000
v 0.29222100 0.01239500 0.04730000
v 0.29221800 0.01242500 0.04730000
v 0.29221800 0.01242500 0.04730000
v 0.29175800 0.01243400 0.04730000
v 0.29175800 0.01243400 0.04730000
v 0.29175800 0.01243400 0.04730000
v 0.29175800 0.01243400 0.04730000
v 0.29175800 0.01243400 0.04730000
v 0.29175800 0.01243400 0.04730000
v 0.29175800 0.01243400 0.04730000
v 0.29185700 0.01257800 0.04730000
v 0.29185700 0.01257800 0.04730000
v 0.29183700 0.01256300 0.04730000
v 0.29183700 0.01256300 0.04730000
v 0.29218100 0.01225800 0.04730000
v 0.29218100 0.01225800 0.04730000
v 0.29219700 0.01228600 0.04730000
v 0.29219700 0.01228600 0.04730000
v 0.29220900 0.01231500 0.04730000
v 0.29194100 0.01261100 0.04730000
v 0.29191200 0.01260400 0.04730000
v 0.29191200 0.01260400 0.04730000
v 0.29188400 0.01259300 0.04730000
v 0.29188400 0.01259300 0.04730000
v 0.29200300 0.01216100 0.04730000
v 0.29200300 0.01216100 0.04730000
v 0.29214400 0.01255600 0.04730000
v 0.29214400 0.01255600 0.04730000
v 0.29212000 0.01257500 0.04730000
v 0.29212000 0.01257500 0.04730000
v 0.29209300 0.01259100 0.04730000
v 0.29209300 0.01259100 0.04730000
v 0.29177500 0.01229300 0.04730000
v 0.29177500 0.01229300 0.04730000
v 0.29179000 0.01226600 0.04730000
v 0.29179000 0.01226600 0.04730000
v 0.29180800 0.01224100 0.04730000
v 0.29180800 0.01224100 0.04730000
v 0.29206400 0.01260200 0.04730000
v 0.29206400 0.01260200 0.04730000
v 0.29203300 0.01260900 0.04730000
v 0.29203300 0.01260900 0.04730000
v 0.29197100 0.01261400 0.04730000
v 0.29197100 0.01261400 0.04730000
v 0.29181400 0.01254300 0.04730000
v 0.29181400 0.01254300 0.04730000
v 0.29179500 0.01251900 0.04730000
v 0.29179500 0.01251900 0.04730000
v 0.29176600 0.01246400 0.04730000
v 0.29176600 0.01246400 0.04730000
v 0.29179500 0.01251900 0.04730000
v 0.29177900 0.01249200 0.04730000
v 0.29183000 0.01221900 0.04730000
v 0.29183000 0.01221900 0.04730000
v 0.29185500 0.01220000 0.04730000
v 0.29185500 0.01220000 0.04730000
v 0.29188200 0.01218500 0.04730000
v 0.29188200 0.01218500 0.04730000
v 0.29191100 0.01217300 0.04730000
v 0.29191100 0.01217300 0.04730000
v 0.29194100 0.01216600 0.04730000
v 0.29194100 0.01216600 0.04730000
v 0.29197300 0.01216200 0.04720000
v 0.29197300 0.01216200 0.04720000
v 0.29197300 0.01216200 0.04720000
v 0.29197300 0.01216200 0.04720000
v 0.29197300 0.01216200 0.04720000
v 0.29197300 0.01216200 0.04720000
v 0.29197300 0.01216200 0.04720000
v 0.29197300 0.01216200 0.04720000
v 0.29197300 0.01216200 0.04720000
v 0.29197300 0.01216200 0.04720000
v 0.29201800 0.01261100 0.04720000
v 0.29201800 0.01261100 0.04720000
v 0.29203300 0.01260900 0.04720000
v 0.29203300 0.01260900 0.04720000
v 0.29200200 0.01261300 0.04720000
v 0.29200200 0.01261300 0.04720000
v 0.29200200 0.01261300 0.04720000
v 0.29200200 0.01261300 0.04720000
v 0.29200200 0.01261300 0.04720000
v 0.29200200 0.01261300 0.04720000
v 0.29200200 0.01261300 0.04720000
v 0.29200200 0.01261300 0.04720000
v 0.29200200 0.01261300 0.04720000
v 0.29200200 0.01261300 0.04720000
v 0.29200200 0.01261300 0.04720000
v 0.29195600 0.01216400 0.04720000
v 0.29195600 0.01216400 0.04720000
v 0.29194100 0.01216600 0.04720000
v 0.29194100 0.01216600 0.04720000
v 0.29218500 0.01250900 0.04720000
v 0.29218500 0.01250900 0.04720000
v 0.29220000 0.01248200 0.04720000
v 0.29220000 0.01248200 0.04720000
v 0.29175700 0.01235100 0.04720000
v 0.29175700 0.01235100 0.04720000
v 0.29175400 0.01238100 0.04720000
v 0.29175400 0.01238100 0.04720000
v 0.29183700 0.01256300 0.04720000
v 0.29183700 0.01256300 0.04720000
v 0.29185700 0.01257800 0.04720000
v 0.29185700 0.01257800 0.04720000
v 0.29175800 0.01243400 0.04720000
v 0.29175800 0.01243400 0.04720000
v 0.29175800 0.01243400 0.04720000
v 0.29175800 0.01243400 0.04720000
v 0.29175800 0.01243400 0.04720000
v 0.29175800 0.01243400 0.04720000
v 0.29175800 0.01243400 0.04720000
v 0.29175800 0.01243400 0.04720000
v 0.29179000 0.01226600 0.04720000
v 0.29179000 0.01226600 0.04720000
v 0.29177500 0.01229300 0.04720000
v 0.29177500 0.01229300 0.04720000
v 0.29176400 0.01232100 0.04720000
v 0.29176400 0.01232100 0.04720000
v 0.29181400 0.01254300 0.04720000
v 0.29181400 0.01254300 0.04720000
v 0.29212000 0.01257500 0.04720000
v 0.29212000 0.01257500 0.04720000
v 0.29214400 0.01255600 0.04720000
v 0.29214400 0.01255600 0.04720000
v 0.29216600 0.01253400 0.04720000
v 0.29216600 0.01253400 0.04720000
v 0.29221100 0.01245400 0.04720000
v 0.29221100 0.01245400 0.04720000
v 0.29221800 0.01242500 0.04720000
v 0.29221800 0.01242500 0.04720000
v 0.29222100 0.01239500 0.04720000
v 0.29222100 0.01239500 0.04720000
v 0.29211800 0.01219700 0.04720000
v 0.29221700 0.01234500 0.04720000
v 0.29221700 0.01234500 0.04720000
v 0.29221700 0.01234500 0.04720000
v 0.29221700 0.01234500 0.04720000
v 0.29221700 0.01234500 0.04720000
v 0.29221700 0.01234500 0.04720000
v 0.29221700 0.01234500 0.04720000
v 0.29213800 0.01221200 0.04720000
v 0.29216100 0.01223400 0.04720000
v 0.29216100 0.01223400 0.04720000
v 0.29220900 0.01231500 0.04720000
v 0.29219700 0.01228600 0.04720000
v 0.29219700 0.01228600 0.04720000
v 0.29218100 0.01225800 0.04720000
v 0.29218100 0.01225800 0.04720000
v 0.29209100 0.01218200 0.04720000
v 0.29209100 0.01218200 0.04720000
v 0.29206300 0.01217100 0.04720000
v 0.29206300 0.01217100 0.04720000
v 0.29203300 0.01216400 0.04720000
v 0.29203300 0.01216400 0.04720000
v 0.29188400 0.01259300 0.04720000
v 0.29188400 0.01259300 0.04720000
v 0.29191200 0.01260400 0.04720000
v 0.29191200 0.01260400 0.04720000
v 0.29194100 0.01261100 0.04720000
v 0.29194100 0.01261100 0.04720000
v 0.29222000 0.01236400 0.04720000
v 0.29222000 0.01236400 0.04720000
v 0.29200300 0.01216100 0.04720000
v 0.29185500 0.01220000 0.04720000
v 0.29185500 0.01220000 0.04720000
v 0.29183000 0.01221900 0.04720000
v 0.29183000 0.01221900 0.04720000
v 0.29180800 0.01224100 0.04720000
v 0.29180800 0.01224100 0.04720000
v 0.29179500 0.01251900 0.04720000
v 0.29179500 0.01251900 0.04720000
v 0.29179500 0.01251900 0.04720000
v 0.29176600 0.01246400 0.04720000
v 0.29176600 0.01246400 0.04720000
v 0.29177900 0.01249200 0.04720000
v 0.29175500 0.01241200 0.04720000
v 0.29175500 0.01241200 0.04720000
v 0.29197100 0.01261400 0.04720000
v 0.29206400 0.01260200 0.04720000
v 0.29206400 0.01260200 0.04720000
v 0.29209300 0.01259100 0.04720000
v 0.29209300 0.01259100 0.04720000
v 0.29191100 0.01217300 0.04720000
v 0.29191100 0.01217300 0.04720000
v 0.29188200 0.01218500 0.04720000
v 0.29188200 0.01218500 0.04720000
vn 0.99753900 -0.07011200 0.00000100
vn 0.99425900 -0.10700400 0.00000800
vn 0.99992700 0.01210100 0.00000000
vn 0.99835500 0.05733300 0.00000000
vn 0.98917800 0.14672300 0.00000000
vn 0.98162700 0.19081200 0.00000000
vn 0.96047800 0.27835400 0.00000000
vn 0.94684200 0.32170000 0.00000000
vn 0.91407400 0.40554800 0.00000900
vn 0.89509400 0.44587700 -0.00000800
vn 0.85144200 0.52444900 -0.00000100
vn 0.82675100 0.56256800 0.00000000
vn 0.77259100 0.63490400 0.00000000
vn 0.74314100 0.66913400 -0.00000700
vn 0.67932900 0.73383400 0.00000000
vn 0.64498900 0.76419200 0.00000000
vn 0.57202000 0.82024000 0.00000800
vn 0.53349800 0.84580200 -0.00000900
vn 0.45307600 0.89147200 0.00000000
vn 0.41131000 0.91149500 -0.00001100
vn 0.32498700 0.94571800 -0.00000100
vn 0.28050800 0.95985200 -0.00000900
vn 0.20210000 0.97936500 0.00000000
vn 0.16834000 0.98572900 0.00000000
vn 0.12326300 0.99237400 0.00000200
vn 0.11223800 0.99368100 0.00000000
vn 0.05633700 0.99841200 0.00000000
vn 0.07871100 0.99689700 0.00000400
vn -0.01125000 0.99993700 0.00000000
vn -0.05645900 0.99840500 0.00000000
vn -0.14596800 0.98928900 0.00000000
vn -0.19021600 0.98174200 -0.00001000
vn -0.27725500 0.96079600 0.00000000
vn -0.31993900 0.94743800 0.00000000
vn -0.40322000 0.91510300 0.00000000
vn -0.44370500 0.89617300 0.00000000
vn -0.51812600 0.85530400 0.00000000
vn -0.55221000 0.83370500 0.00000000
vn -0.61808600 0.78611100 0.00000000
vn -0.64984300 0.76006900 0.00000000
vn -0.71365000 0.70050200 0.00001100
vn -0.74524900 0.66678600 0.00000000
vn -0.80362000 0.59514300 0.00000000
vn -0.83026400 0.55737000 0.00000000
vn -0.87812800 0.47842700 0.00000000
vn -0.89931200 0.43730700 -0.00000900
vn -0.93580600 0.35251500 0.00000000
vn -0.95107600 0.30895700 0.00000000
vn -0.97394500 0.22678300 0.00000000
vn -0.98207000 0.18851600 0.00000000
vn -0.99378400 0.11132300 0.00000700
vn -0.99736500 0.07254400 -0.00000700
vn -0.99993700 -0.01121600 0.00000000
vn -0.99842300 -0.05614200 -0.00000800
vn -0.98934900 -0.14556000 -0.00000100
vn -0.98179700 -0.18993300 -0.00000800
vn -0.96089600 -0.27690900 0.00001000
vn -0.94761200 -0.31942500 0.00000000
vn -0.91519600 -0.40300800 0.00000000
vn -0.89605000 -0.44395300 0.00000000
vn -0.85223800 -0.52315500 0.00000900
vn -0.82761800 -0.56129200 0.00000000
vn -0.77328300 -0.63406100 0.00001100
vn -0.74367300 -0.66854300 0.00000000
vn -0.67973100 -0.73346200 0.00001100
vn -0.64545600 -0.76379800 0.00000000
vn -0.57256300 -0.81986100 0.00000900
vn -0.53407300 -0.84543800 0.00000000
vn -0.45367300 -0.89116800 0.00000000
vn -0.41177400 -0.91128600 0.00000000
vn -0.32535200 -0.94559300 0.00001400
vn -0.28090600 -0.95973500 -0.00000900
vn -0.20234600 -0.97931400 0.00000000
vn -0.16859900 -0.98568500 -0.00000800
vn -0.12337800 -0.99236000 0.00000000
vn -0.11226900 -0.99367800 -0.00000200
vn -0.05579000 -0.99844200 0.00000000
vn -0.07839300 -0.99692300 0.00000400
vn 0.01189100 -0.99992900 0.00000000
vn 0.05685600 -0.99838200 -0.00001100
vn 0.14615000 -0.98926200 0.00000800
vn 0.19044300 -0.98169800 -0.00000800
vn 0.27725400 -0.96079700 -0.00000100
vn 0.31970900 -0.94751600 0.00000000
vn 0.40268100 -0.91534100 0.00000000
vn 0.44305600 -0.89649400 0.00000000
vn 0.51755200 -0.85565200 0.00001000
vn 0.55176300 -0.83400100 -0.00000700
vn 0.62191800 -0.78308300 0.00000000
vn 0.65757400 -0.75339000 -0.00001100
vn 0.72354900 -0.69027300 0.00000000
vn 0.75387800 -0.65701400 0.00000100
vn 0.81000900 -0.58641800 0.00000000
vn 0.83567700 -0.54922200 0.00000000
vn 0.88237900 -0.47053900 0.00000000
vn 0.90327200 -0.42906800 -0.00000900
vn 0.93914800 -0.34351300 0.00000000
vn 0.95411000 -0.29945700 0.00000000
vn 0.97592200 -0.21812000 0.00000600
vn 0.98347000 -0.18107000 0.00000000
vn 0.00000000 0.00000000 1.00000000
vn 0.00033400 -0.00003400 1.00000000
vn -0.00011500 0.00001200 1.00000000
vn 0.00021600 -0.00002200 1.00000000
vn 0.00021000 -0.00002100 1.00000000
vn 0.00013900 -0.00001400 1.00000000
vn -0.00005900 0.00000600 1.00000000
vn -0.00012200 0.00001200 1.00000000
vn -0.00005600 0.00000600 1.00000000
vn 0.00010000 -0.00001000 1.00000000
vn 0.00006300 -0.00000600 1.00000000
vn 0.00021600 -0.00002200 1.00000000
vn 0.00000000 0.00000000 1.00000000
vn -0.00021100 0.00002100 1.00000000
vn 0.00000000 0.00000000 1.00000000
vn 0.00000000 0.00000000 1.00000000
vn -0.00026500 0.00002700 1.00000000
vn 0.00000000 0.00000000 1.00000000
vn -0.00021100 0.00002100 1.00000000
vn -0.00001500 0.00000200 1.00000000
vn 0.00000000 0.00000000 1.00000000
vn -0.00001500 0.00000200 1.00000000
vn -0.00002800 0.00000300 1.00000000
vn 0.00023000 -0.00002300 1.00000000
vn -0.00022200 0.00002300 1.00000000
vn -0.00001600 0.00000200 1.00000000
vn 0.00000000 0.00000000 1.00000000
vn 0.00021000 -0.00002100 1.00000000
vn -0.00007300 0.00000700 1.00000000
vn -0.00001200 0.00000100 1.00000000
vn -0.00002800 0.00000300 1.00000000
vn 0.00033400 -0.00003400 1.00000000
vn 0.00010000 -0.00001000 1.00000000
vn 0.00006300 -0.00000600 1.00000000
vn 0.00033400 -0.00003400 1.00000000
vn 0.00006300 -0.00000600 1.00000000
vn -0.00011500 0.00001200 1.00000000
vn -0.00011500 0.00001200 1.00000000
vn 0.00000000 0.00000000 1.00000000
vn 0.00009800 -0.00001000 1.00000000
vn 0.00000000 0.00000000 1.00000000
vn 0.00000000 0.00000000 1.00000000
vn 0.00011100 -0.00001100 1.00000000
vn -0.00002500 0.00000300 1.00000000
vn 0.00009800 -0.00001000 1.00000000
vn 0.00011100 -0.00001100 1.00000000
vn 0.00010000 -0.00001000 1.00000000
vn 0.00000000 0.00000000 1.00000000
vn 0.00025500 -0.00002600 1.00000000
vn 0.00014600 -0.00001500 1.00000000
vn -0.00003900 0.00000400 1.00000000
vn 0.00005900 -0.00000600 1.00000000
vn 0.00011100 -0.00001100 1.00000000
vn -0.00002500 0.00000300 1.00000000
vn 0.00000000 0.00000000 1.00000000
vn -0.00002500 0.00000300 1.00000000
vn -0.00022200 0.00002300 1.00000000
vn 0.00000000 0.00000000 1.00000000
vn -0.00002800 0.00000300 1.00000000
vn -0.00007300 0.00000700 1.00000000
vn 0.00023000 -0.00002300 1.00000000
vn -0.00007300 0.00000700 1.00000000
vn 0.00000000 0.00000000 1.00000000
vn 0.00023000 -0.00002300 1.00000000
vn 0.00000000 0.00000000 1.00000000
vn -0.00005600 0.00000600 1.00000000
vn 0.00000000 0.00000000 1.00000000
vn 0.00010000 -0.00001000 1.00000000
vn -0.00005600 0.00000600 1.00000000
vn -0.00005200 0.00000500 1.00000000
vn -0.00006300 0.00000600 1.00000000
vn 0.00009800 -0.00001000 1.00000000
vn 0.00010000 -0.00001000 1.00000000
vn 0.00000000 0.00000000 1.00000000
vn 0.00002500 -0.00000300 1.00000000
vn -0.00008900 0.00000900 1.00000000
vn 0.00000000 0.00000000 1.00000000
vn -0.00008900 0.00000900 1.00000000
vn -0.00005200 0.00000500 1.00000000
vn 0.00000000 0.00000000 1.00000000
vn 0.00000000 0.00000000 1.00000000
vn -0.00001200 0.00000100 1.00000000
vn -0.00001200 0.00000100 1.00000000
vn 0.00000000 0.00000000 1.00000000
vn 0.00000000 0.00000000 1.00000000
vn 0.00000000 0.00000000 1.00000000
vn 0.00000000 0.00000000 1.00000000
vn -0.00006400 0.00000600 1.00000000
vn -0.00006400 0.00000600 1.00000000
vn -0.00008900 0.00000900 1.00000000
vn 0.00021000 -0.00002100 1.00000000
vn -0.00022200 0.00002300 1.00000000
vn 0.00013900 -0.00001400 1.00000000
vn 0.00000000 0.00000000 1.00000000
vn -0.00005900 0.00000600 1.00000000
vn 0.00013900 -0.00001400 1.00000000
vn 0.00000000 0.00000000 1.00000000
vn -0.00005900 0.00000600 1.00000000
vn 0.00014600 -0.00001500 1.00000000
vn 0.00000000 0.00000000 1.00000000
vn 0.00014600 -0.00001500 1.00000000
vn -0.00003900 0.00000400 1.00000000
vn 0.00000000 0.00000000 1.00000000
vn -0.00003900 0.00000400 1.00000000
vn -0.00012200 0.00001200 1.00000000
vn 0.00000000 0.00000000 1.00000000
vn -0.00012200 0.00001200 1.00000000
vn 0.00021600 -0.00002200 1.00000000
vn 0.00000000 0.00000000 1.00000000
vn 0.00010000 -0.00001000 1.00000000
vn -0.00005200 0.00000500 1.00000000
vn 0.00000000 0.00000000 1.00000000
vn 0.00000000 0.00000000 1.00000000
vn 0.00002500 -0.00000300 1.00000000
vn 0.00002500 -0.00000300 1.00000000
vn 0.00000000 0.00000000 1.00000000
vn 0.00000000 0.00000000 1.00000000
vn 0.00000000 0.00000000 1.00000000
vn 0.00000000 0.00000000 1.00000000
vn 0.00025500 -0.00002600 1.00000000
vn 0.00025500 -0.00002600 1.00000000
vn 0.00005900 -0.00000600 1.00000000
vn 0.00005900 -0.00000600 1.00000000
vn 0.00000000 0.00000000 1.00000000
vn 0.00000000 0.00000000 1.00000000
vn -0.00026500 0.00002700 1.00000000
vn -0.00021100 0.00002100 1.00000000
vn -0.00026500 0.00002700 1.00000000
vn 0.00010200 -0.00001000 -1.00000000
vn -0.00014300 0.00001500 -1.00000000
vn 0.00000000 0.00000000 -1.00000000
vn -0.00026300 0.00002700 -1.00000000
vn -0.00015200 0.00001500 -1.00000000
vn 0.00016200 -0.00001700 -1.00000000
vn -0.00011500 0.00001200 -1.00000000
vn 0.00007300 -0.00000700 -1.00000000
vn -0.00017500 0.00001800 -1.00000000
vn 0.00019500 -0.00002000 -1.00000000
vn -0.00026300 0.00002700 -1.00000000
vn 0.00000000 0.00000000 -1.00000000
vn 0.00000000 0.00000000 -1.00000000
vn -0.00026300 0.00002700 -1.00000000
vn -0.00012600 0.00001300 -1.00000000
vn -0.00017400 0.00001800 -1.00000000
vn 0.00015200 -0.00001500 -1.00000000
vn -0.00025800 0.00002600 -1.00000000
vn -0.00002800 0.00000300 -1.00000000
vn 0.00025600 -0.00002600 -1.00000000
vn -0.00002500 0.00000300 -1.00000000
vn 0.00002700 -0.00000300 -1.00000000
vn 0.00001900 -0.00000200 -1.00000000
vn 0.00000000 0.00000000 -1.00000000
vn -0.00009500 0.00001000 -1.00000000
vn 0.00000000 0.00000000 -1.00000000
vn 0.00025600 -0.00002600 -1.00000000
vn 0.00025600 -0.00002600 -1.00000000
vn -0.00025800 0.00002600 -1.00000000
vn -0.00011500 0.00001200 -1.00000000
vn 0.00000000 0.00000000 -1.00000000
vn 0.00000000 0.00000000 -1.00000000
vn -0.00015200 0.00001500 -1.00000000
vn -0.00002500 0.00000300 -1.00000000
vn -0.00002800 0.00000300 -1.00000000
vn 0.00000000 0.00000000 -1.00000000
vn -0.00002800 0.00000300 -1.00000000
vn -0.00002800 0.00000300 -1.00000000
vn -0.00005200 0.00000500 -1.00000000
vn -0.00002800 0.00000300 -1.00000000
vn 0.00000000 0.00000000 -1.00000000
vn 0.00000000 0.00000000 -1.00000000
vn -0.00005200 0.00000500 -1.00000000
vn -0.00002800 0.00000300 -1.00000000
vn -0.00000300 0.00000000 -1.00000000
vn 0.00002300 -0.00000200 -1.00000000
vn -0.00008700 0.00000900 -1.00000000
vn -0.00004100 0.00000400 -1.00000000
vn -0.00009500 0.00001000 -1.00000000
vn 0.00001900 -0.00000200 -1.00000000
vn 0.00000000 0.00000000 -1.00000000
vn 0.00000000 0.00000000 -1.00000000
vn 0.00015200 -0.00001500 -1.00000000
vn 0.00015200 -0.00001500 -1.00000000
vn -0.00002500 0.00000300 -1.00000000
vn -0.00000300 0.00000000 -1.00000000
vn -0.00005200 0.00000500 -1.00000000
vn -0.00014300 0.00001500 -1.00000000
vn 0.00000000 0.00000000 -1.00000000
vn 0.00000000 0.00000000 -1.00000000
vn 0.00007300 -0.00000700 -1.00000000
vn 0.00007300 -0.00000700 -1.00000000
vn -0.00011500 0.00001200 -1.00000000
vn -0.00017500 0.00001800 -1.00000000
vn -0.00015200 0.00001500 -1.00000000
vn -0.00017500 0.00001800 -1.00000000
vn 0.00019500 -0.00002000 -1.00000000
vn 0.00019500 -0.00002000 -1.00000000
vn 0.00000000 0.00000000 -1.00000000
vn 0.00000000 0.00000000 -1.00000000
vn 0.00040300 -0.00004100 -1.00000000
vn 0.00000400 -0.00000000 -1.00000000
vn -0.00001200 0.00000100 -1.00000000
vn 0.00016200 -0.00001700 -1.00000000
vn -0.00005700 0.00000600 -1.00000000
vn 0.00005500 -0.00000600 -1.00000000
vn 0.00000000 0.00000000 -1.00000000
vn 0.00000000 0.00000000 -1.00000000
vn 0.00005500 -0.00000600 -1.00000000
vn 0.00000000 0.00000000 -1.00000000
vn 0.00000500 -0.00000000 -1.00000000
vn 0.00000700 -0.00000100 -1.00000000
vn -0.00001200 0.00000100 -1.00000000
vn -0.00001200 0.00000100 -1.00000000
vn 0.00005500 -0.00000600 -1.00000000
vn 0.00000000 0.00000000 -1.00000000
vn 0.00040300 -0.00004100 -1.00000000
vn 0.00040300 -0.00004100 -1.00000000
vn -0.00005700 0.00000600 -1.00000000
vn 0.00000000 0.00000000 -1.00000000
vn -0.00005700 0.00000600 -1.00000000
vn 0.00000000 0.00000000 -1.00000000
vn -0.00004100 0.00000400 -1.00000000
vn -0.00004100 0.00000400 -1.00000000
vn -0.00008700 0.00000900 -1.00000000
vn 0.00000000 0.00000000 -1.00000000
vn -0.00008700 0.00000900 -1.00000000
vn 0.00016200 -0.00001700 -1.00000000
vn 0.00000000 0.00000000 -1.00000000
vn 0.00000000 0.00000000 -1.00000000
vn -0.00012600 0.00001300 -1.00000000
vn 0.00000000 0.00000000 -1.00000000
vn 0.00002700 -0.00000300 -1.00000000
vn 0.00000000 0.00000000 -1.00000000
vn 0.00002700 -0.00000300 -1.00000000
vn 0.00001900 -0.00000200 -1.00000000
vn -0.00000300 0.00000000 -1.00000000
vn 0.00002300 -0.00000200 -1.00000000
vn -0.00000400 0.00000100 -1.00000000
vn -0.00000200 0.00000000 -1.00000000
vn 0.00002300 -0.00000200 -1.00000000
vn -0.00000300 0.00000000 -1.00000000
vn 0.00000000 0.00000000 -1.00000000
vn -0.00009500 0.00001000 -1.00000000
vn 0.00000000 0.00000000 -1.00000000
vn 0.00000000 0.00000000 -1.00000000
vn 0.00010200 -0.00001000 -1.00000000
vn 0.00010200 -0.00001000 -1.00000000
vn -0.00014300 0.00001500 -1.00000000
vn -0.00025800 0.00002600 -1.00000000
vn -0.00017400 0.00001800 -1.00000000
vn -0.00012600 0.00001300 -1.00000000
vn -0.00017400 0.00001800 -1.00000000
f 1//1 2//2 3//3
f 1//1 3//3 4//4
f 4//4 3//3 5//5
f 4//4 5//5 6//6
f 6//6 5//5 7//7
f 6//6 7//7 8//8
f 8//8 7//7 9//9
f 8//8 9//9 10//10
f 10//10 9//9 11//11
f 10//10 11//11 12//12
f 12//12 11//11 13//13
f 12//12 13//13 14//14
f 14//14 13//13 15//15
f 14//14 15//15 16//16
f 16//16 15//15 17//17
f 16//16 17//17 18//18
f 18//18 17//17 19//19
f 18//18 19//19 20//20
f 20//20 19//19 21//21
f 20//20 21//21 22//22
f 22//22 21//21 23//23
f 22//22 23//23 24//24
f 24//24 23//23 25//25
f 24//24 25//25 26//26
f 27//27 26//26 28//28
f 28//28 26//26 25//25
f 27//27 28//28 29//29
f 27//27 29//29 30//30
f 30//30 29//29 31//31
f 30//30 31//31 32//32
f 32//32 31//31 33//33
f 32//32 33//33 34//34
f 34//34 33//33 35//35
f 34//34 35//35 36//36
f 36//36 35//35 37//37
f 36//36 37//37 38//38
f 38//38 37//37 39//39
f 38//38 39//39 40//40
f 40//40 39//39 41//41
f 40//40 41//41 42//42
f 42//42 41//41 43//43
f 42//42 43//43 44//44
f 44//44 43//43 45//45
f 44//44 45//45 46//46
f 46//46 45//45 47//47
f 46//46 47//47 48//48
f 48//48 47//47 49//49
f 48//48 49//49 50//50
f 50//50 49//49 51//51
f 50//50 51//51 52//52
f 52//52 51//51 53//53
f 52//52 53//53 54//54
f 54//54 53//53 55//55
f 54//54 55//55 56//56
f 56//56 55//55 57//57
f 56//56 57//57 58//58
f 58//58 57//57 59//59
f 58//58 59//59 60//60
f 60//60 59//59 61//61
f 60//60 61//61 62//62
f 62//62 61//61 63//63
f 62//62 63//63 64//64
f 64//64 63//63 65//65
f 64//64 65//65 66//66
f 66//66 65//65 67//67
f 66//66 67//67 68//68
f 68//68 67//67 69//69
f 68//68 69//69 70//70
f 70//70 69//69 71//71
f 70//70 71//71 72//72
f 72//72 71//71 73//73
f 72//72 73//73 74//74
f 74//74 73//73 75//75
f 74//74 75//75 76//76
f 77//77 76//76 78//78
f 78//78 76//76 75//75
f 77//77 78//78 79//79
f 77//77 79//79 80//80
f 80//80 79//79 81//81
f 80//80 81//81 82//82
f 82//82 81//81 83//83
f 82//82 83//83 84//84
f 84//84 83//83 85//85
f 84//84 85//85 86//86
f 86//86 85//85 87//87
f 86//86 87//87 88//88
f 88//88 87//87 89//89
f 88//88 89//89 90//90
f 90//90 89//89 91//91
f 90//90 91//91 92//92
f 92//92 91//91 93//93
f 92//92 93//93 94//94
f 94//94 93//93 95//95
f 94//94 95//95 96//96
f 96//96 95//95 97//97
f 96//96 97//97 98//98
f 98//98 97//97 99//99
f 98//98 99//99 100//100
f 100//100 99//99 2//2
f 100//100 2//2 1//1
f 101//101 113//113 115//115
f 115//115 116//116 118//118
f 120//120 122//122 126//126
f 132//132 135//135 102//102
f 111//111 134//134 136//136
f 103//103 137//137 138//138
f 141//141 142//142 148//148
f 146//146 143//143 153//153
f 144//144 154//154 156//156
f 121//121 127//127 158//158
f 123//123 159//159 131//131
f 129//129 160//160 162//162
f 124//124 161//161 164//164
f 165//165 167//167 101//101
f 109//109 166//166 169//169
f 110//110 168//168 133//133
f 174//174 177//177 180//180
f 163//163 181//181 127//127
f 130//130 182//182 183//183
f 127//127 184//184 185//185
f 186//186 187//187 174//174
f 171//171 188//188 189//189
f 176//176 190//190 178//178
f 165//165 101//101 127//127
f 128//128 105//105 191//191
f 125//125 192//192 157//157
f 139//139 194//194 101//101
f 106//106 193//193 196//196
f 107//107 195//195 198//198
f 155//155 200//200 148//148
f 150//150 199//199 201//201
f 151//151 202//202 204//204
f 197//197 206//206 101//101
f 108//108 205//205 207//207
f 104//104 208//208 112//112
f 140//140 145//145 172//172
f 173//173 147//147 210//210
f 174//174 209//209 186//186
f 179//179 211//211 170//170
f 174//174 212//212 213//213
f 175//175 214//214 215//215
f 216//216 217//217 218//218
f 203//203 219//219 148//148
f 149//149 220//220 221//221
f 152//152 222//222 223//223
f 224//224 225//225 148//148
f 117//117 226//226 228//228
f 119//119 227//227 114//114
f 232//232 239//239 242//242
f 240//240 231//231 252//252
f 252//252 231//231 254//254
f 248//248 255//255 256//256
f 259//259 260//260 231//231
f 247//247 263//263 265//265
f 266//266 268//268 272//272
f 279//279 280//280 252//252
f 245//245 281//281 282//282
f 249//249 283//283 262//262
f 267//267 271//271 285//285
f 287//287 288//288 231//231
f 236//236 289//289 290//290
f 235//235 291//291 258//258
f 261//261 293//293 233//233
f 237//237 292//292 294//294
f 238//238 295//295 296//296
f 298//298 305//305 306//306
f 306//306 305//305 308//308
f 309//309 310//310 300//300
f 301//301 311//311 312//312
f 304//304 313//313 307//307
f 298//298 314//314 305//305
f 299//299 315//315 316//316
f 303//303 317//317 319//319
f 269//269 320//320 270//270
f 276//276 321//321 322//322
f 275//275 323//323 325//325
f 297//297 327//327 231//231
f 234//234 326//326 302//302
f 231//231 305//305 328//328
f 328//328 305//305 318//318
f 330//330 332//332 252//252
f 250//250 331//331 333//333
f 251//251 334//334 278//278
f 284//284 273//273 335//335
f 336//336 274//274 339//339
f 337//337 338//338 340//340
f 264//264 341//341 252//252
f 253//253 342//342 277//277
f 252//252 270//270 343//343
f 343//343 270//270 324//324
f 241//241 344//344 231//231
f 229//229 345//345 346//346
f 230//230 347//347 286//286
f 257//257 348//348 246//246
f 244//244 349//349 351//351
f 243//243 350//350 329//329

