# https://github.com/mikedh/trimesh
v 0.28055300 0.01338800 -0.04730000
v 0.28055300 0.01338800 -0.04720000
v 0.28053500 0.01341400 -0.04720000
v 0.28053500 0.01341400 -0.04730000
v 0.28052100 0.01344300 -0.04720000
v 0.28052100 0.01344300 -0.04730000
v 0.28051000 0.01347300 -0.04720000
v 0.28051000 0.01347300 -0.04730000
v 0.28050400 0.01350400 -0.04720000
v 0.28050400 0.01350400 -0.04730000
v 0.28050200 0.01353500 -0.04720000
v 0.28050200 0.01353500 -0.04730000
v 0.28050400 0.01355400 -0.04720000
v 0.28050400 0.01355400 -0.04730000
v 0.28050900 0.01358500 -0.04720000
v 0.28050900 0.01358500 -0.04730000
v 0.28051800 0.01361300 -0.04720000
v 0.28051800 0.01361300 -0.04730000
v 0.28053000 0.01364000 -0.04720000
v 0.28053000 0.01364000 -0.04730000
v 0.28054700 0.01366600 -0.04720000
v 0.28054700 0.01366600 -0.04730000
v 0.28056700 0.01368900 -0.04720000
v 0.28056700 0.01368900 -0.04730000
v 0.28059000 0.01371000 -0.04720000
v 0.28059000 0.01371000 -0.04730000
v 0.28061600 0.01372700 -0.04720000
v 0.28061600 0.01372700 -0.04730000
v 0.28064400 0.01374100 -0.04720000
v 0.28064400 0.01374100 -0.04730000
v 0.28067400 0.01375000 -0.04720000
v 0.28067400 0.01375000 -0.04730000
v 0.28070400 0.01375600 -0.04720000
v 0.28070400 0.01375600 -0.04730000
v 0.28073600 0.01375700 -0.04720000
v 0.28073600 0.01375700 -0.04730000
v 0.28075100 0.01375600 -0.04720000
v 0.28075100 0.01375600 -0.04730000
v 0.28076700 0.01375400 -0.04730000
v 0.28076700 0.01375400 -0.04720000
v 0.28079800 0.01374900 -0.04720000
v 0.28079800 0.01374900 -0.04730000
v 0.28082600 0.01374000 -0.04720000
v 0.28082600 0.01374000 -0.04730000
v 0.28085300 0.01372700 -0.04720000
v 0.28085300 0.01372700 -0.04730000
v 0.28087900 0.01371100 -0.04720000
v 0.28087900 0.01371100 -0.04730000
v 0.28090200 0.01369100 -0.04720000
v 0.28090200 0.01369100 -0.04730000
v 0.28091900 0.01367200 -0.04720000
v 0.28091900 0.01367200 -0.04730000
v 0.28093700 0.01364700 -0.04720000
v 0.28093700 0.01364700 -0.04730000
v 0.28095100 0.01362000 -0.04720000
v 0.28095100 0.01362000 -0.04730000
v 0.28096100 0.01359100 -0.04720000
v 0.28096100 0.01359100 -0.04730000
v 0.28096800 0.01356100 -0.04720000
v 0.28096800 0.01356100 -0.04730000
v 0.28097000 0.01353000 -0.04720000
v 0.28097000 0.01353000 -0.04730000
v 0.28096900 0.01350700 -0.04720000
v 0.28096900 0.01350700 -0.04730000
v 0.28096400 0.01347700 -0.04720000
v 0.28096400 0.01347700 -0.04730000
v 0.28095400 0.01344800 -0.04720000
v 0.28095400 0.01344800 -0.04730000
v 0.28094200 0.01342000 -0.04720000
v 0.28094200 0.01342000 -0.04730000
v 0.28092500 0.01339500 -0.04720000
v 0.28092500 0.01339500 -0.04730000
v 0.28090500 0.01337100 -0.04720000
v 0.28090500 0.01337100 -0.04730000
v 0.28088200 0.01335100 -0.04720000
v 0.28088200 0.01335100 -0.04730000
v 0.28085600 0.01333400 -0.04720000
v 0.28085600 0.01333400 -0.04730000
v 0.28082800 0.01332000 -0.04720000
v 0.28082800 0.01332000 -0.04730000
v 0.28079900 0.01331000 -0.04720000
v 0.28079900 0.01331000 -0.04730000
v 0.28076800 0.01330500 -0.04720000
v 0.28076800 0.01330500 -0.04730000
v 0.28073700 0.01330400 -0.04720000
v 0.28073700 0.01330400 -0.04730000
v 0.28072100 0.01330500 -0.04720000
v 0.28072100 0.01330500 -0.04730000
v 0.28070500 0.01330700 -0.04730000
v 0.28070500 0.01330700 -0.04720000
v 0.28067500 0.01331200 -0.04720000
v 0.28067500 0.01331200 -0.04730000
v 0.28064600 0.01332100 -0.04720000
v 0.28064600 0.01332100 -0.04730000
v 0.28061900 0.01333300 -0.04720000
v 0.28061900 0.01333300 -0.04730000
v 0.28059300 0.01335000 -0.04720000
v 0.28059300 0.01335000 -0.04730000
v 0.28057000 0.01337000 -0.04720000
v 0.28057000 0.01337000 -0.04730000
v 0.28070500 0.01330700 -0.04730000
v 0.28070500 0.01330700 -0.04730000
v 0.28070500 0.01330700 -0.04730000
v 0.28070500 0.01330700 -0.04730000
v 0.28070500 0.01330700 -0.04730000
v 0.28070500 0.01330700 -0.04730000
v 0.28070500 0.01330700 -0.04730000
v 0.28070500 0.01330700 -0.04730000
v 0.28070500 0.01330700 -0.04730000
v 0.28070500 0.01330700 -0.04730000
v 0.28075100 0.01375600 -0.04730000
v 0.28075100 0.01375600 -0.04730000
v 0.28072100 0.01330500 -0.04730000
v 0.28072100 0.01330500 -0.04730000
v 0.28075100 0.01375600 -0.04730000
v 0.28076700 0.01375400 -0.04730000
v 0.28076700 0.01375400 -0.04730000
v 0.28076700 0.01375400 -0.04730000
v 0.28061900 0.01333300 -0.04730000
v 0.28061900 0.01333300 -0.04730000
v 0.28059300 0.01335000 -0.04730000
v 0.28059300 0.01335000 -0.04730000
v 0.28050200 0.01353500 -0.04730000
v 0.28050200 0.01353500 -0.04730000
v 0.28050200 0.01353500 -0.04730000
v 0.28050200 0.01353500 -0.04730000
v 0.28053000 0.01364000 -0.04730000
v 0.28053000 0.01364000 -0.04730000
v 0.28054700 0.01366600 -0.04730000
v 0.28054700 0.01366600 -0.04730000
v 0.28056700 0.01368900 -0.04730000
v 0.28056700 0.01368900 -0.04730000
v 0.28059000 0.01371000 -0.04730000
v 0.28059000 0.01371000 -0.04730000
v 0.28096900 0.01350700 -0.04730000
v 0.28096900 0.01350700 -0.04730000
v 0.28096400 0.01347700 -0.04730000
v 0.28096400 0.01347700 -0.04730000
v 0.28076700 0.01375400 -0.04730000
v 0.28076700 0.01375400 -0.04730000
v 0.28076700 0.01375400 -0.04730000
v 0.28076700 0.01375400 -0.04730000
v 0.28076700 0.01375400 -0.04730000
v 0.28076700 0.01375400 -0.04730000
v 0.28076700 0.01375400 -0.04730000
v 0.28076700 0.01375400 -0.04730000
v 0.28076700 0.01375400 -0.04730000
v 0.28095400 0.01344800 -0.04730000
v 0.28095400 0.01344800 -0.04730000
v 0.28094200 0.01342000 -0.04730000
v 0.28094200 0.01342000 -0.04730000
v 0.28064600 0.01332100 -0.04730000
v 0.28064600 0.01332100 -0.04730000
v 0.28057000 0.01337000 -0.04730000
v 0.28057000 0.01337000 -0.04730000
v 0.28050200 0.01353500 -0.04730000
v 0.28050200 0.01353500 -0.04730000
v 0.28050200 0.01353500 -0.04730000
v 0.28050200 0.01353500 -0.04730000
v 0.28050200 0.01353500 -0.04730000
v 0.28055300 0.01338800 -0.04730000
v 0.28055300 0.01338800 -0.04730000
v 0.28053500 0.01341400 -0.04730000
v 0.28053500 0.01341400 -0.04730000
v 0.28050400 0.01355400 -0.04730000
v 0.28050900 0.01358500 -0.04730000
v 0.28050900 0.01358500 -0.04730000
v 0.28051800 0.01361300 -0.04730000
v 0.28051800 0.01361300 -0.04730000
v 0.28097000 0.01353000 -0.04730000
v 0.28097000 0.01353000 -0.04730000
v 0.28097000 0.01353000 -0.04730000
v 0.28097000 0.01353000 -0.04730000
v 0.28097000 0.01353000 -0.04730000
v 0.28097000 0.01353000 -0.04730000
v 0.28097000 0.01353000 -0.04730000
v 0.28097000 0.01353000 -0.04730000
v 0.28090200 0.01369100 -0.04730000
v 0.28090200 0.01369100 -0.04730000
v 0.28091900 0.01367200 -0.04730000
v 0.28091900 0.01367200 -0.04730000
v 0.28052100 0.01344300 -0.04730000
v 0.28052100 0.01344300 -0.04730000
v 0.28051000 0.01347300 -0.04730000
v 0.28051000 0.01347300 -0.04730000
v 0.28050400 0.01350400 -0.04730000
v 0.28082600 0.01374000 -0.04730000
v 0.28085300 0.01372700 -0.04730000
v 0.28085300 0.01372700 -0.04730000
v 0.28087900 0.01371100 -0.04730000
v 0.28087900 0.01371100 -0.04730000
v 0.28067500 0.01331200 -0.04730000
v 0.28067500 0.01331200 -0.04730000
v 0.28061600 0.01372700 -0.04730000
v 0.28061600 0.01372700 -0.04730000
v 0.28064400 0.01374100 -0.04730000
v 0.28064400 0.01374100 -0.04730000
v 0.28067400 0.01375000 -0.04730000
v 0.28067400 0.01375000 -0.04730000
v 0.28092500 0.01339500 -0.04730000
v 0.28092500 0.01339500 -0.04730000
v 0.28090500 0.01337100 -0.04730000
v 0.28090500 0.01337100 -0.04730000
v 0.28088200 0.01335100 -0.04730000
v 0.28088200 0.01335100 -0.04730000
v 0.28070400 0.01375600 -0.04730000
v 0.28070400 0.01375600 -0.04730000
v 0.28073600 0.01375700 -0.04730000
v 0.28073600 0.01375700 -0.04730000
v 0.28079800 0.01374900 -0.04730000
v 0.28079800 0.01374900 -0.04730000
v 0.28093700 0.01364700 -0.04730000
v 0.28093700 0.01364700 -0.04730000
v 0.28095100 0.01362000 -0.04730000
v 0.28095100 0.01362000 -0.04730000
v 0.28096800 0.01356100 -0.04730000
v 0.28096800 0.01356100 -0.04730000
v 0.28095100 0.01362000 -0.04730000
v 0.28096100 0.01359100 -0.04730000
v 0.28085600 0.01333400 -0.04730000
v 0.28085600 0.01333400 -0.04730000
v 0.28082800 0.01332000 -0.04730000
v 0.28082800 0.01332000 -0.04730000
v 0.28079900 0.01331000 -0.04730000
v 0.28079900 0.01331000 -0.04730000
v 0.28076800 0.01330500 -0.04730000
v 0.28076800 0.01330500 -0.04730000
v 0.28073700 0.01330400 -0.04730000
v 0.28073700 0.01330400 -0.04730000
v 0.28070500 0.01330700 -0.04720000
v 0.28070500 0.01330700 -0.04720000
v 0.28070500 0.01330700 -0.04720000
v 0.28070500 0.01330700 -0.04720000
v 0.28070500 0.01330700 -0.04720000
v 0.28070500 0.01330700 -0.04720000
v 0.28070500 0.01330700 -0.04720000
v 0.28070500 0.01330700 -0.04720000
v 0.28070500 0.01330700 -0.04720000
v 0.28070500 0.01330700 -0.04720000
v 0.28075100 0.01375600 -0.04720000
v 0.28075100 0.01375600 -0.04720000
v 0.28073600 0.01375700 -0.04720000
v 0.28073600 0.01375700 -0.04720000
v 0.28076700 0.01375400 -0.04720000
v 0.28076700 0.01375400 -0.04720000
v 0.28076700 0.01375400 -0.04720000
v 0.28076700 0.01375400 -0.04720000
v 0.28076700 0.01375400 -0.04720000
v 0.28076700 0.01375400 -0.04720000
v 0.28076700 0.01375400 -0.04720000
v 0.28076700 0.01375400 -0.04720000
v 0.28076700 0.01375400 -0.04720000
v 0.28076700 0.01375400 -0.04720000
v 0.28076700 0.01375400 -0.04720000
v 0.28072100 0.01330500 -0.04720000
v 0.28072100 0.01330500 -0.04720000
v 0.28073700 0.01330400 -0.04720000
v 0.28073700 0.01330400 -0.04720000
v 0.28056700 0.01368900 -0.04720000
v 0.28056700 0.01368900 -0.04720000
v 0.28054700 0.01366600 -0.04720000
v 0.28054700 0.01366600 -0.04720000
v 0.28095400 0.01344800 -0.04720000
v 0.28095400 0.01344800 -0.04720000
v 0.28096400 0.01347700 -0.04720000
v 0.28096400 0.01347700 -0.04720000
v 0.28091900 0.01367200 -0.04720000
v 0.28091900 0.01367200 -0.04720000
v 0.28090200 0.01369100 -0.04720000
v 0.28090200 0.01369100 -0.04720000
v 0.28097000 0.01353000 -0.04720000
v 0.28097000 0.01353000 -0.04720000
v 0.28097000 0.01353000 -0.04720000
v 0.28097000 0.01353000 -0.04720000
v 0.28097000 0.01353000 -0.04720000
v 0.28097000 0.01353000 -0.04720000
v 0.28097000 0.01353000 -0.04720000
v 0.28097000 0.01353000 -0.04720000
v 0.28090500 0.01337100 -0.04720000
v 0.28090500 0.01337100 -0.04720000
v 0.28092500 0.01339500 -0.04720000
v 0.28092500 0.01339500 -0.04720000
v 0.28094200 0.01342000 -0.04720000
v 0.28094200 0.01342000 -0.04720000
v 0.28093700 0.01364700 -0.04720000
v 0.28093700 0.01364700 -0.04720000
v 0.28064400 0.01374100 -0.04720000
v 0.28064400 0.01374100 -0.04720000
v 0.28061600 0.01372700 -0.04720000
v 0.28061600 0.01372700 -0.04720000
v 0.28059000 0.01371000 -0.04720000
v 0.28059000 0.01371000 -0.04720000
v 0.28053000 0.01364000 -0.04720000
v 0.28053000 0.01364000 -0.04720000
v 0.28051800 0.01361300 -0.04720000
v 0.28051800 0.01361300 -0.04720000
v 0.28050900 0.01358500 -0.04720000
v 0.28050900 0.01358500 -0.04720000
v 0.28057000 0.01337000 -0.04720000
v 0.28050200 0.01353500 -0.04720000
v 0.28050200 0.01353500 -0.04720000
v 0.28050200 0.01353500 -0.04720000
v 0.28050200 0.01353500 -0.04720000
v 0.28050200 0.01353500 -0.04720000
v 0.28050200 0.01353500 -0.04720000
v 0.28050200 0.01353500 -0.04720000
v 0.28055300 0.01338800 -0.04720000
v 0.28053500 0.01341400 -0.04720000
v 0.28053500 0.01341400 -0.04720000
v 0.28050400 0.01350400 -0.04720000
v 0.28051000 0.01347300 -0.04720000
v 0.28051000 0.01347300 -0.04720000
v 0.28052100 0.01344300 -0.04720000
v 0.28052100 0.01344300 -0.04720000
v 0.28059300 0.01335000 -0.04720000
v 0.28059300 0.01335000 -0.04720000
v 0.28061900 0.01333300 -0.04720000
v 0.28061900 0.01333300 -0.04720000
v 0.28064600 0.01332100 -0.04720000
v 0.28064600 0.01332100 -0.04720000
v 0.28087900 0.01371100 -0.04720000
v 0.28087900 0.01371100 -0.04720000
v 0.28085300 0.01372700 -0.04720000
v 0.28085300 0.01372700 -0.04720000
v 0.28082600 0.01374000 -0.04720000
v 0.28082600 0.01374000 -0.04720000
v 0.28050400 0.01355400 -0.04720000
v 0.28050400 0.01355400 -0.04720000
v 0.28067500 0.01331200 -0.04720000
v 0.28082800 0.01332000 -0.04720000
v 0.28082800 0.01332000 -0.04720000
v 0.28085600 0.01333400 -0.04720000
v 0.28085600 0.01333400 -0.04720000
v 0.28088200 0.01335100 -0.04720000
v 0.28088200 0.01335100 -0.04720000
v 0.28095100 0.01362000 -0.04720000
v 0.28095100 0.01362000 -0.04720000
v 0.28095100 0.01362000 -0.04720000
v 0.28096800 0.01356100 -0.04720000
v 0.28096800 0.01356100 -0.04720000
v 0.28096100 0.01359100 -0.04720000
v 0.28096900 0.01350700 -0.04720000
v 0.28096900 0.01350700 -0.04720000
v 0.28079800 0.01374900 -0.04720000
v 0.28070400 0.01375600 -0.04720000
v 0.28070400 0.01375600 -0.04720000
v 0.28067400 0.01375000 -0.04720000
v 0.28067400 0.01375000 -0.04720000
v 0.28076800 0.01330500 -0.04720000
v 0.28076800 0.01330500 -0.04720000
v 0.28079900 0.01331000 -0.04720000
v 0.28079900 0.01331000 -0.04720000
vn -0.79562800 -0.60578500 0.00000000
vn -0.76669500 -0.64201200 0.00000000
vn -0.84755500 -0.53070800 0.00000000
vn -0.87060200 -0.49198900 0.00000000
vn -0.91136000 -0.41161100 0.00000000
vn -0.92903800 -0.36998400 0.00000800
vn -0.95897000 -0.28350700 0.00000100
vn -0.97110300 -0.23866000 0.00000000
vn -0.98903900 -0.14765300 -0.00000900
vn -0.99483500 -0.10150100 0.00000000
vn -0.99984900 -0.01739400 -0.00000700
vn -0.99979200 0.02041600 0.00000700
vn -0.99546400 0.09514200 -0.00001000
vn -0.99126400 0.13189300 0.00000000
vn -0.97707000 0.21292000 -0.00000800
vn -0.96643200 0.25692100 0.00000900
vn -0.93947600 0.34261500 0.00000000
vn -0.92321500 0.38428500 -0.00000100
vn -0.88490300 0.46577500 0.00000000
vn -0.86283100 0.50549200 0.00000000
vn -0.81389600 0.58101100 0.00000900
vn -0.78717000 0.61673700 0.00000800
vn -0.72858700 0.68495300 0.00000000
vn -0.69675400 0.71731000 0.00000000
vn -0.62909100 0.77733200 -0.00001100
vn -0.59341200 0.80489900 -0.00000100
vn -0.51788800 0.85544800 -0.00001100
vn -0.47815400 0.87827600 0.00000000
vn -0.39541700 0.91850200 0.00000000
vn -0.35249700 0.93581300 0.00000000
vn -0.26461400 0.96435400 -0.00000900
vn -0.21961100 0.97558700 0.00000000
vn -0.12818500 0.99175000 0.00000000
vn -0.08179400 0.99664900 0.00000000
vn -0.00103300 0.99999900 0.00000000
vn 0.03331100 0.99944500 -0.00000100
vn 0.07879500 0.99689100 0.00000000
vn 0.08986700 0.99595400 0.00000200
vn 0.14555600 0.98935000 0.00000400
vn 0.12335100 0.99236300 0.00000000
vn 0.21206600 0.97725500 -0.00001100
vn 0.25603400 0.96666800 0.00000900
vn 0.34192500 0.93972700 -0.00001000
vn 0.38371100 0.92345300 0.00000900
vn 0.46481000 0.88541100 0.00000000
vn 0.50390200 0.86376100 0.00000000
vn 0.57895500 0.81536000 0.00000000
vn 0.61485500 0.78864000 0.00001400
vn 0.67953700 0.73364100 0.00000000
vn 0.70856200 0.70564800 0.00000000
vn 0.76353900 0.64576200 0.00000000
vn 0.78943200 0.61383800 0.00000000
vn 0.83989200 0.54275300 -0.00001000
vn 0.86412200 0.50328200 0.00000000
vn 0.90676600 0.42163400 0.00000000
vn 0.92516000 0.37957800 0.00000800
vn 0.95623600 0.29259800 0.00000000
vn 0.96879800 0.24785000 0.00000000
vn 0.98761900 0.15687100 -0.00000800
vn 0.99384700 0.11075800 0.00000000
vn 0.99966900 0.02572500 0.00000000
vn 0.99991400 -0.01313600 0.00000000
vn 0.99587300 -0.09076300 -0.00000700
vn 0.99158700 -0.12944400 0.00000900
vn 0.97725500 -0.21206600 -0.00000900
vn 0.96674900 -0.25572900 0.00001000
vn 0.93987400 -0.34152100 0.00000000
vn 0.92353700 -0.38350900 0.00000000
vn 0.88559700 -0.46445400 -0.00001100
vn 0.86403200 -0.50343700 0.00001000
vn 0.81546500 -0.57880600 0.00000000
vn 0.78850600 -0.61502700 0.00001100
vn 0.72964100 -0.68383100 -0.00001100
vn 0.69784200 -0.71625200 0.00000000
vn 0.62999100 -0.77660300 0.00000000
vn 0.59408700 -0.80440100 0.00001000
vn 0.51836500 -0.85515900 0.00000000
vn 0.47868300 -0.87798800 0.00001100
vn 0.39605800 -0.91822600 0.00000000
vn 0.35319700 -0.93554900 0.00000000
vn 0.26521300 -0.96419000 0.00000000
vn 0.22012400 -0.97547200 0.00000900
vn 0.12858900 -0.99169800 -0.00000800
vn 0.08222100 -0.99661400 0.00001300
vn 0.00131900 -0.99999900 0.00000000
vn -0.03303500 -0.99945400 0.00000700
vn -0.07868000 -0.99690000 0.00000000
vn -0.08981400 -0.99595900 0.00000000
vn -0.14616200 -0.98926100 0.00000000
vn -0.12366700 -0.99232400 -0.00000400
vn -0.21276000 -0.97710400 -0.00000900
vn -0.25654400 -0.96653300 0.00000000
vn -0.34215100 -0.93964500 0.00000000
vn -0.38379200 -0.92341900 0.00000000
vn -0.46456900 -0.88553700 0.00000100
vn -0.50361900 -0.86392600 0.00000000
vn -0.57851200 -0.81567400 0.00000000
vn -0.61430300 -0.78907000 0.00000000
vn -0.67903900 -0.73410200 0.00000000
vn -0.70816400 -0.70604800 0.00000000
vn 0.00000000 0.00000000 -1.00000000
vn -0.00006300 0.00000600 -1.00000000
vn 0.00011500 -0.00001200 -1.00000000
vn 0.00005600 -0.00000600 -1.00000000
vn -0.00021000 0.00002100 -1.00000000
vn 0.00012100 -0.00001200 -1.00000000
vn -0.00021600 0.00002200 -1.00000000
vn 0.00005900 -0.00000600 -1.00000000
vn -0.00010000 0.00001000 -1.00000000
vn -0.00013900 0.00001400 -1.00000000
vn -0.00021600 0.00002200 -1.00000000
vn 0.00000000 0.00000000 -1.00000000
vn 0.00000000 0.00000000 -1.00000000
vn 0.00021200 -0.00002200 -1.00000000
vn 0.00000000 0.00000000 -1.00000000
vn 0.00000000 0.00000000 -1.00000000
vn -0.00006800 0.00000700 -1.00000000
vn 0.00021200 -0.00002200 -1.00000000
vn 0.00001500 -0.00000200 -1.00000000
vn 0.00000000 0.00000000 -1.00000000
vn 0.00036200 -0.00003700 -1.00000000
vn 0.00001500 -0.00000200 -1.00000000
vn 0.00001500 -0.00000200 -1.00000000
vn 0.00022200 -0.00002300 -1.00000000
vn -0.00021000 0.00002100 -1.00000000
vn 0.00000000 0.00000000 -1.00000000
vn -0.00010000 0.00001000 -1.00000000
vn 0.00000000 0.00000000 -1.00000000
vn -0.00006300 0.00000600 -1.00000000
vn 0.00000000 0.00000000 -1.00000000
vn -0.00006300 0.00000600 -1.00000000
vn 0.00011500 -0.00001200 -1.00000000
vn 0.00000000 0.00000000 -1.00000000
vn 0.00011500 -0.00001200 -1.00000000
vn -0.00009800 0.00001000 -1.00000000
vn 0.00000000 0.00000000 -1.00000000
vn -0.00011100 0.00001100 -1.00000000
vn 0.00000000 0.00000000 -1.00000000
vn -0.00009800 0.00001000 -1.00000000
vn 0.00002500 -0.00000300 -1.00000000
vn 0.00000000 0.00000000 -1.00000000
vn 0.00007900 -0.00000800 -1.00000000
vn -0.00011100 0.00001100 -1.00000000
vn 0.00018700 -0.00001900 -1.00000000
vn -0.00010000 0.00001000 -1.00000000
vn 0.00003900 -0.00000400 -1.00000000
vn -0.00005900 0.00000600 -1.00000000
vn -0.00011100 0.00001100 -1.00000000
vn 0.00002500 -0.00000300 -1.00000000
vn 0.00000000 0.00000000 -1.00000000
vn 0.00002500 -0.00000300 -1.00000000
vn 0.00022200 -0.00002300 -1.00000000
vn 0.00000000 0.00000000 -1.00000000
vn 0.00007300 -0.00000700 -1.00000000
vn 0.00036200 -0.00003700 -1.00000000
vn 0.00000000 0.00000000 -1.00000000
vn 0.00036200 -0.00003700 -1.00000000
vn 0.00007300 -0.00000700 -1.00000000
vn 0.00000600 -0.00000100 -1.00000000
vn -0.00013800 0.00001400 -1.00000000
vn -0.00013800 0.00001400 -1.00000000
vn 0.00007300 -0.00000700 -1.00000000
vn 0.00000000 0.00000000 -1.00000000
vn -0.00013800 0.00001400 -1.00000000
vn 0.00000000 0.00000000 -1.00000000
vn 0.00000000 0.00000000 -1.00000000
vn 0.00005600 -0.00000600 -1.00000000
vn 0.00005600 -0.00000600 -1.00000000
vn -0.00010000 0.00001000 -1.00000000
vn -0.00003500 0.00000400 -1.00000000
vn -0.00010000 0.00001000 -1.00000000
vn 0.00005700 -0.00000600 -1.00000000
vn -0.00033400 0.00003400 -1.00000000
vn -0.00009800 0.00001000 -1.00000000
vn -0.00003300 0.00000300 -1.00000000
vn -0.00005300 0.00000500 -1.00000000
vn 0.00000000 0.00000000 -1.00000000
vn -0.00005300 0.00000500 -1.00000000
vn 0.00000000 0.00000000 -1.00000000
vn 0.00000000 0.00000000 -1.00000000
vn 0.00005800 -0.00000600 -1.00000000
vn 0.00000000 0.00000000 -1.00000000
vn 0.00000500 -0.00000100 -1.00000000
vn 0.00000600 -0.00000100 -1.00000000
vn 0.00000000 0.00000000 -1.00000000
vn 0.00000000 0.00000000 -1.00000000
vn 0.00000000 0.00000000 -1.00000000
vn -0.00003400 0.00000400 -1.00000000
vn 0.00000000 0.00000000 -1.00000000
vn -0.00003500 0.00000400 -1.00000000
vn -0.00005300 0.00000500 -1.00000000
vn -0.00021000 0.00002100 -1.00000000
vn 0.00022200 -0.00002300 -1.00000000
vn -0.00013900 0.00001400 -1.00000000
vn 0.00000000 0.00000000 -1.00000000
vn -0.00013900 0.00001400 -1.00000000
vn 0.00005900 -0.00000600 -1.00000000
vn 0.00005900 -0.00000600 -1.00000000
vn 0.00000000 0.00000000 -1.00000000
vn 0.00018700 -0.00001900 -1.00000000
vn 0.00000000 0.00000000 -1.00000000
vn 0.00003900 -0.00000400 -1.00000000
vn 0.00018700 -0.00001900 -1.00000000
vn 0.00000000 0.00000000 -1.00000000
vn 0.00003900 -0.00000400 -1.00000000
vn 0.00012100 -0.00001200 -1.00000000
vn 0.00000000 0.00000000 -1.00000000
vn -0.00021600 0.00002200 -1.00000000
vn 0.00012100 -0.00001200 -1.00000000
vn -0.00010000 0.00001000 -1.00000000
vn 0.00000000 0.00000000 -1.00000000
vn 0.00005800 -0.00000600 -1.00000000
vn -0.00033400 0.00003400 -1.00000000
vn -0.00033400 0.00003400 -1.00000000
vn -0.00003200 0.00000300 -1.00000000
vn 0.00000000 0.00000000 -1.00000000
vn -0.00003200 0.00000300 -1.00000000
vn 0.00000000 0.00000000 -1.00000000
vn 0.00000000 0.00000000 -1.00000000
vn 0.00000000 0.00000000 -1.00000000
vn 0.00007900 -0.00000800 -1.00000000
vn 0.00007900 -0.00000800 -1.00000000
vn -0.00005900 0.00000600 -1.00000000
vn 0.00000000 0.00000000 -1.00000000
vn -0.00005900 0.00000600 -1.00000000
vn 0.00000000 0.00000000 -1.00000000
vn -0.00006800 0.00000700 -1.00000000
vn -0.00006800 0.00000700 -1.00000000
vn 0.00021200 -0.00002200 -1.00000000
vn -0.00010300 0.00001000 1.00000000
vn 0.00014300 -0.00001500 1.00000000
vn 0.00000000 0.00000000 1.00000000
vn 0.00011500 -0.00001200 1.00000000
vn -0.00016200 0.00001600 1.00000000
vn 0.00026300 -0.00002700 1.00000000
vn 0.00017600 -0.00001800 1.00000000
vn -0.00007300 0.00000700 1.00000000
vn -0.00019500 0.00002000 1.00000000
vn -0.00018100 0.00001800 1.00000000
vn 0.00026300 -0.00002700 1.00000000
vn 0.00000000 0.00000000 1.00000000
vn 0.00000000 0.00000000 1.00000000
vn 0.00026300 -0.00002700 1.00000000
vn 0.00012600 -0.00001300 1.00000000
vn 0.00017400 -0.00001800 1.00000000
vn -0.00021900 0.00002200 1.00000000
vn -0.00001900 0.00000200 1.00000000
vn 0.00002800 -0.00000300 1.00000000
vn 0.00002500 -0.00000300 1.00000000
vn -0.00015300 0.00001600 1.00000000
vn 0.00009500 -0.00001000 1.00000000
vn -0.00025800 0.00002600 1.00000000
vn -0.00002700 0.00000300 1.00000000
vn 0.00000000 0.00000000 1.00000000
vn -0.00025800 0.00002600 1.00000000
vn 0.00000000 0.00000000 1.00000000
vn -0.00025800 0.00002600 1.00000000
vn -0.00021900 0.00002200 1.00000000
vn 0.00011500 -0.00001200 1.00000000
vn 0.00000000 0.00000000 1.00000000
vn -0.00018100 0.00001800 1.00000000
vn 0.00000000 0.00000000 1.00000000
vn 0.00002800 -0.00000300 1.00000000
vn 0.00002500 -0.00000300 1.00000000
vn 0.00002800 -0.00000300 1.00000000
vn 0.00000000 0.00000000 1.00000000
vn 0.00002700 -0.00000300 1.00000000
vn 0.00005800 -0.00000600 1.00000000
vn 0.00000000 0.00000000 1.00000000
vn 0.00002700 -0.00000300 1.00000000
vn 0.00003200 -0.00000300 1.00000000
vn 0.00009500 -0.00001000 1.00000000
vn 0.00005700 -0.00000600 1.00000000
vn 0.00002700 -0.00000300 1.00000000
vn -0.00007700 0.00000800 1.00000000
vn -0.00043800 0.00004500 1.00000000
vn 0.00008700 -0.00000900 1.00000000
vn 0.00000000 0.00000000 1.00000000
vn -0.00001900 0.00000200 1.00000000
vn 0.00000000 0.00000000 1.00000000
vn 0.00000000 0.00000000 1.00000000
vn -0.00015300 0.00001600 1.00000000
vn -0.00015300 0.00001600 1.00000000
vn 0.00002500 -0.00000300 1.00000000
vn -0.00007700 0.00000800 1.00000000
vn 0.00005800 -0.00000600 1.00000000
vn 0.00000000 0.00000000 1.00000000
vn 0.00014300 -0.00001500 1.00000000
vn 0.00000000 0.00000000 1.00000000
vn -0.00007300 0.00000700 1.00000000
vn 0.00011500 -0.00001200 1.00000000
vn -0.00007300 0.00000700 1.00000000
vn 0.00017600 -0.00001800 1.00000000
vn -0.00018100 0.00001800 1.00000000
vn -0.00019500 0.00002000 1.00000000
vn 0.00017600 -0.00001800 1.00000000
vn -0.00019500 0.00002000 1.00000000
vn 0.00000000 0.00000000 1.00000000
vn 0.00000000 0.00000000 1.00000000
vn 0.00005700 -0.00000600 1.00000000
vn 0.00028300 -0.00002900 1.00000000
vn 0.00026400 -0.00002700 1.00000000
vn -0.00016200 0.00001600 1.00000000
vn -0.00002000 0.00000200 1.00000000
vn 0.00000600 -0.00000100 1.00000000
vn 0.00000000 0.00000000 1.00000000
vn 0.00000000 0.00000000 1.00000000
vn 0.00028300 -0.00002900 1.00000000
vn 0.00000000 0.00000000 1.00000000
vn -0.00002000 0.00000200 1.00000000
vn 0.00000600 -0.00000100 1.00000000
vn -0.00002300 0.00000200 1.00000000
vn 0.00000500 -0.00000100 1.00000000
vn 0.00028300 -0.00002900 1.00000000
vn 0.00000000 0.00000000 1.00000000
vn 0.00026400 -0.00002700 1.00000000
vn 0.00005700 -0.00000600 1.00000000
vn 0.00026400 -0.00002700 1.00000000
vn 0.00000000 0.00000000 1.00000000
vn 0.00005700 -0.00000600 1.00000000
vn -0.00043800 0.00004500 1.00000000
vn 0.00000000 0.00000000 1.00000000
vn -0.00043800 0.00004500 1.00000000
vn 0.00008700 -0.00000900 1.00000000
vn 0.00000000 0.00000000 1.00000000
vn 0.00008700 -0.00000900 1.00000000
vn 0.00000000 0.00000000 1.00000000
vn -0.00016200 0.00001600 1.00000000
vn 0.00000000 0.00000000 1.00000000
vn 0.00000000 0.00000000 1.00000000
vn 0.00012600 -0.00001300 1.00000000
vn 0.00000000 0.00000000 1.00000000
vn -0.00002700 0.00000300 1.00000000
vn -0.00001900 0.00000200 1.00000000
vn -0.00002700 0.00000300 1.00000000
vn 0.00003300 -0.00000300 1.00000000
vn 0.00005700 -0.00000600 1.00000000
vn -0.00007700 0.00000800 1.00000000
vn 0.00003200 -0.00000300 1.00000000
vn 0.00005600 -0.00000600 1.00000000
vn 0.00005600 -0.00000600 1.00000000
vn 0.00009500 -0.00001000 1.00000000
vn 0.00000000 0.00000000 1.00000000
vn 0.00000000 0.00000000 1.00000000
vn -0.00010300 0.00001000 1.00000000
vn 0.00000000 0.00000000 1.00000000
vn 0.00014300 -0.00001500 1.00000000
vn -0.00010300 0.00001000 1.00000000
vn 0.00017400 -0.00001800 1.00000000
vn -0.00021900 0.00002200 1.00000000
vn 0.00012600 -0.00001300 1.00000000
vn 0.00017400 -0.00001800 1.00000000
f 1//1 2//2 3//3
f 1//1 3//3 4//4
f 4//4 3//3 5//5
f 4//4 5//5 6//6
f 6//6 5//5 7//7
f 6//6 7//7 8//8
f 8//8 7//7 9//9
f 8//8 9//9 10//10
f 10//10 9//9 11//11
f 10//10 11//11 12//12
f 12//12 11//11 13//13
f 12//12 13//13 14//14
f 14//14 13//13 15//15
f 14//14 15//15 16//16
f 16//16 15//15 17//17
f 16//16 17//17 18//18
f 18//18 17//17 19//19
f 18//18 19//19 20//20
f 20//20 19//19 21//21
f 20//20 21//21 22//22
f 22//22 21//21 23//23
f 22//22 23//23 24//24
f 24//24 23//23 25//25
f 24//24 25//25 26//26
f 26//26 25//25 27//27
f 26//26 27//27 28//28
f 28//28 27//27 29//29
f 28//28 29//29 30//30
f 30//30 29//29 31//31
f 30//30 31//31 32//32
f 32//32 31//31 33//33
f 32//32 33//33 34//34
f 34//34 33//33 35//35
f 34//34 35//35 36//36
f 36//36 35//35 37//37
f 36//36 37//37 38//38
f 39//39 38//38 40//40
f 40//40 38//38 37//37
f 39//39 40//40 41//41
f 39//39 41//41 42//42
f 42//42 41//41 43//43
f 42//42 43//43 44//44
f 44//44 43//43 45//45
f 44//44 45//45 46//46
f 46//46 45//45 47//47
f 46//46 47//47 48//48
f 48//48 47//47 49//49
f 48//48 49//49 50//50
f 50//50 49//49 51//51
f 50//50 51//51 52//52
f 52//52 51//51 53//53
f 52//52 53//53 54//54
f 54//54 53//53 55//55
f 54//54 55//55 56//56
f 56//56 55//55 57//57
f 56//56 57//57 58//58
f 58//58 57//57 59//59
f 58//58 59//59 60//60
f 60//60 59//59 61//61
f 60//60 61//61 62//62
f 62//62 61//61 63//63
f 62//62 63//63 64//64
f 64//64 63//63 65//65
f 64//64 65//65 66//66
f 66//66 65//65 67//67
f 66//66 67//67 68//68
f 68//68 67//67 69//69
f 68//68 69//69 70//70
f 70//70 69//69 71//71
f 70//70 71//71 72//72
f 72//72 71//71 73//73
f 72//72 73//73 74//74
f 74//74 73//73 75//75
f 74//74 75//75 76//76
f 76//76 75//75 77//77
f 76//76 77//77 78//78
f 78//78 77//77 79//79
f 78//78 79//79 80//80
f 80//80 79//79 81//81
f 80//80 81//81 82//82
f 82//82 81//81 83//83
f 82//82 83//83 84//84
f 84//84 83//83 85//85
f 84//84 85//85 86//86
f 86//86 85//85 87//87
f 86//86 87//87 88//88
f 89//89 88//88 90//90
f 90//90 88//88 87//87
f 89//89 90//90 91//91
f 89//89 91//91 92//92
f 92//92 91//91 93//93
f 92//92 93//93 94//94
f 94//94 93//93 95//95
f 94//94 95//95 96//96
f 96//96 95//95 97//97
f 96//96 97//97 98//98
f 98//98 97//97 99//99
f 98//98 99//99 100//100
f 100//100 99//99 2//2
f 100//100 2//2 1//1
f 101//101 112//112 113//113
f 113//113 115//115 116//116
f 119//119 122//122 123//123
f 128//128 130//130 101//101
f 102//102 129//129 131//131
f 103//103 132//132 134//134
f 136//136 138//138 141//141
f 143//143 137//137 148//148
f 140//140 149//149 151//151
f 120//120 126//126 153//153
f 121//121 155//155 157//157
f 158//158 154//154 162//162
f 160//160 161//161 164//164
f 165//165 166//166 101//101
f 104//104 167//167 168//168
f 109//109 169//169 127//127
f 177//177 179//179 180//180
f 163//163 182//182 156//156
f 159//159 183//183 184//184
f 156//156 185//185 186//186
f 187//187 189//189 177//177
f 170//170 188//188 190//190
f 176//176 191//191 178//178
f 165//165 101//101 126//126
f 125//125 105//105 192//192
f 124//124 193//193 152//152
f 133//133 195//195 101//101
f 110//110 194//194 196//196
f 108//108 197//197 198//198
f 150//150 201//201 141//141
f 144//144 200//200 203//203
f 146//146 202//202 205//205
f 199//199 207//207 101//101
f 106//106 206//206 209//209
f 107//107 208//208 111//111
f 135//135 139//139 174//174
f 171//171 145//145 210//210
f 177//177 211//211 187//187
f 181//181 212//212 172//172
f 173//173 213//213 214//214
f 175//175 215//215 217//217
f 216//216 218//218 219//219
f 204//204 220//220 141//141
f 142//142 221//221 222//222
f 147//147 223//223 225//225
f 224//224 226//226 141//141
f 117//117 227//227 228//228
f 118//118 229//229 114//114
f 235//235 240//240 243//243
f 241//241 232//232 254//254
f 254//254 232//232 256//256
f 252//252 255//255 257//257
f 260//260 262//262 232//232
f 248//248 263//263 265//265
f 267//267 270//270 274//274
f 280//280 281//281 254//254
f 250//250 282//282 283//283
f 249//249 284//284 264//264
f 268//268 273//273 286//286
f 287//287 289//289 232//232
f 237//237 290//290 292//292
f 233//233 291//291 259//259
f 261//261 294//294 239//239
f 236//236 293//293 296//296
f 238//238 295//295 297//297
f 299//299 306//306 307//307
f 307//307 306//306 309//309
f 310//310 312//312 304//304
f 305//305 311//311 313//313
f 301//301 314//314 308//308
f 299//299 315//315 306//306
f 302//302 316//316 318//318
f 300//300 317//317 320//320
f 269//269 322//322 278//278
f 276//276 321//321 323//323
f 277//277 324//324 326//326
f 298//298 327//327 232//232
f 234//234 328//328 303//303
f 232//232 306//306 329//329
f 329//329 306//306 319//319
f 330//330 332//332 254//254
f 253//253 333//333 335//335
f 247//247 334//334 279//279
f 285//285 275//275 338//338
f 336//336 271//271 339//339
f 337//337 340//340 341//341
f 266//266 343//343 254//254
f 251//251 342//342 272//272
f 254//254 278//278 344//344
f 344//344 278//278 325//325
f 242//242 346//346 232//232
f 230//230 345//345 348//348
f 231//231 347//347 288//288
f 258//258 350//350 246//246
f 245//245 349//349 352//352
f 244//244 351//351 331//331

