# https://github.com/mikedh/trimesh
v -0.02455800 -0.10211900 -0.01920600
v -0.02455800 -0.10211900 -0.01920600
v -0.02451800 -0.10210800 -0.01920700
v -0.02451800 -0.10210800 -0.01920700
v -0.02336900 -0.10338700 -0.01910400
v -0.02336900 -0.10338700 -0.01910400
v -0.02336900 -0.10338700 -0.01910400
v -0.02336900 -0.10338700 -0.01910400
v -0.02336900 -0.10338700 -0.01910400
v -0.02336900 -0.10338700 -0.01910400
v -0.02336900 -0.10338700 -0.01910400
v -0.02336900 -0.10338700 -0.01910400
v -0.02447600 -0.10210300 -0.01920700
v -0.02447600 -0.10210300 -0.01920700
v -0.02447600 -0.10210300 -0.01920700
v -0.02335600 -0.10337300 -0.01910500
v -0.02335600 -0.10337300 -0.01910500
v -0.02335600 -0.10337300 -0.01910500
v -0.02335600 -0.10337300 -0.01910500
v -0.02221900 -0.10326100 -0.01911400
v -0.02221900 -0.10326100 -0.01911400
v -0.02221900 -0.10326100 -0.01911400
v -0.02221900 -0.10326100 -0.01911400
v -0.02222700 -0.10324600 -0.01911500
v -0.02222700 -0.10324600 -0.01911500
v -0.02172200 -0.10176400 -0.01923300
v -0.02172200 -0.10176400 -0.01923300
v -0.02172200 -0.10176400 -0.01923300
v -0.02172200 -0.10176400 -0.01923300
v -0.02172200 -0.10176400 -0.01923300
v -0.02172200 -0.10176400 -0.01923300
v -0.02172200 -0.10176400 -0.01923300
v -0.02223800 -0.10323900 -0.01911600
v -0.02223800 -0.10323900 -0.01911600
v -0.02223800 -0.10323900 -0.01911600
v -0.02209800 -0.10181100 -0.01923000
v -0.02209800 -0.10181100 -0.01923000
v -0.02209800 -0.10181100 -0.01923000
v -0.02227300 -0.10323600 -0.01911600
v -0.02227300 -0.10323600 -0.01911600
v -0.02227300 -0.10323600 -0.01911600
v -0.02247400 -0.10185800 -0.01922600
v -0.02247400 -0.10185800 -0.01922600
v -0.02247400 -0.10185800 -0.01922600
v -0.02247400 -0.10185800 -0.01922600
v -0.01890500 -0.10141900 -0.01926000
v -0.01890500 -0.10141900 -0.01926000
v -0.01861700 -0.10138200 -0.01926300
v -0.01861700 -0.10138200 -0.01926300
v -0.01974600 -0.10294100 -0.01913900
v -0.01974600 -0.10294100 -0.01913900
v -0.01974600 -0.10294100 -0.01913900
v -0.01974600 -0.10294100 -0.01913900
v -0.01974600 -0.10294100 -0.01913900
v -0.01974600 -0.10294100 -0.01913900
v -0.01974600 -0.10294100 -0.01913900
v -0.01855200 -0.10138500 -0.01926200
v -0.01855200 -0.10138500 -0.01926200
v -0.02462500 -0.10222600 -0.01919700
v -0.02462500 -0.10222600 -0.01919700
v -0.02462700 -0.10228600 -0.01919200
v -0.02462700 -0.10228600 -0.01919200
v -0.02462700 -0.10228600 -0.01919200
v -0.02462700 -0.10228600 -0.01919200
v -0.02462700 -0.10228600 -0.01919200
v -0.02462700 -0.10228600 -0.01919200
v -0.02462700 -0.10228600 -0.01919200
v -0.02462700 -0.10228600 -0.01919200
v -0.02462700 -0.10228600 -0.01919200
v -0.02462700 -0.10228600 -0.01919200
v -0.02337600 -0.10341200 -0.01910200
v -0.02337600 -0.10341200 -0.01910200
v -0.02337700 -0.10343800 -0.01910000
v -0.02337700 -0.10343800 -0.01910000
v -0.01973200 -0.10301400 -0.01913300
v -0.01973200 -0.10301400 -0.01913300
v -0.01973700 -0.10295900 -0.01913700
v -0.01973700 -0.10295900 -0.01913700
v -0.01849000 -0.10144000 -0.01925800
v -0.01849000 -0.10144000 -0.01925800
v -0.01849000 -0.10144000 -0.01925800
v -0.01849000 -0.10144000 -0.01925800
v -0.01849000 -0.10144000 -0.01925800
v -0.01851600 -0.10140600 -0.01926100
v -0.01851600 -0.10140600 -0.01926100
v -0.01919300 -0.10145400 -0.01925700
v -0.01919300 -0.10145400 -0.01925700
v -0.01919300 -0.10145400 -0.01925700
v -0.01975800 -0.10293300 -0.01913900
v -0.01975800 -0.10293300 -0.01913900
v -0.01975800 -0.10293300 -0.01913900
v -0.01960400 -0.10150400 -0.01925300
v -0.01960400 -0.10150400 -0.01925300
v -0.01960400 -0.10150400 -0.01925300
v -0.01978900 -0.10292900 -0.01914000
v -0.01978900 -0.10292900 -0.01914000
v -0.01978900 -0.10292900 -0.01914000
v -0.02001600 -0.10155400 -0.01924900
v -0.02001600 -0.10155400 -0.01924900
v -0.02001600 -0.10155400 -0.01924900
v -0.02001600 -0.10155400 -0.01924900
v -0.02155900 -0.10499400 -0.01897500
v -0.02155900 -0.10499400 -0.01897500
v -0.02155900 -0.10499400 -0.01897500
v -0.02188300 -0.10503300 -0.01897200
v -0.02188300 -0.10503300 -0.01897200
v -0.02221500 -0.10330900 -0.01911000
v -0.02221500 -0.10330900 -0.01911000
v -0.02221500 -0.10330900 -0.01911000
v -0.02221500 -0.10330900 -0.01911000
v -0.02221500 -0.10330900 -0.01911000
v -0.02221500 -0.10330900 -0.01911000
v -0.02199600 -0.10504700 -0.01897100
v -0.02199600 -0.10504700 -0.01897100
v -0.02199600 -0.10504700 -0.01897100
v -0.02199600 -0.10504700 -0.01897100
v -0.02349400 -0.10618600 -0.01888100
v -0.02349400 -0.10618600 -0.01888100
v -0.02349400 -0.10618600 -0.01888100
v -0.02349400 -0.10618600 -0.01888100
v -0.02361400 -0.10620300 -0.01887900
v -0.02361400 -0.10620300 -0.01887900
v -0.01973000 -0.10559000 -0.01892700
v -0.01973000 -0.10559000 -0.01892700
v -0.01973000 -0.10559000 -0.01892700
v -0.01973000 -0.10559000 -0.01892700
v -0.01973000 -0.10559000 -0.01892700
v -0.01909500 -0.10564800 -0.01892200
v -0.01909500 -0.10564800 -0.01892200
v -0.01936900 -0.10568100 -0.01892000
v -0.01936900 -0.10568100 -0.01892000
v -0.01936900 -0.10568100 -0.01892000
v -0.01936900 -0.10568100 -0.01892000
v -0.01973100 -0.10430200 -0.01903000
v -0.01973100 -0.10430200 -0.01903000
v -0.01973100 -0.10430200 -0.01903000
v -0.01973100 -0.10430200 -0.01903000
v -0.01973100 -0.10430200 -0.01903000
v -0.01973100 -0.10430200 -0.01903000
v -0.01848800 -0.10550000 -0.01893400
v -0.01848800 -0.10550000 -0.01893400
v -0.01852700 -0.10555500 -0.01893000
v -0.01852700 -0.10555500 -0.01893000
v -0.02123500 -0.10495400 -0.01897800
v -0.02123500 -0.10495400 -0.01897800
v -0.02123500 -0.10495400 -0.01897800
v -0.02098100 -0.10316900 -0.01912100
v -0.02098100 -0.10316900 -0.01912100
v -0.02098100 -0.10316900 -0.01912100
v -0.02098100 -0.10316900 -0.01912100
v -0.02098100 -0.10398600 -0.01905500
v -0.02098100 -0.10398600 -0.01905500
v -0.02098100 -0.10398600 -0.01905500
v -0.02098100 -0.10398600 -0.01905500
v -0.02097700 -0.10310800 -0.01912600
v -0.02097700 -0.10310800 -0.01912600
v -0.02097700 -0.10310800 -0.01912600
v -0.02096700 -0.10308800 -0.01912700
v -0.02096700 -0.10308800 -0.01912700
v -0.02096700 -0.10308800 -0.01912700
v -0.02416200 -0.10206500 -0.01921000
v -0.02416200 -0.10206500 -0.01921000
v -0.02384800 -0.10202700 -0.01921300
v -0.02384800 -0.10202700 -0.01921300
v -0.02384800 -0.10202700 -0.01921300
v -0.02333100 -0.10336500 -0.01910600
v -0.02333100 -0.10336500 -0.01910600
v -0.02333100 -0.10336500 -0.01910600
v -0.02353900 -0.10198800 -0.01921600
v -0.02353900 -0.10198800 -0.01921600
v -0.02353900 -0.10198800 -0.01921600
v -0.02302500 -0.10332800 -0.01910900
v -0.02302500 -0.10332800 -0.01910900
v -0.02302500 -0.10332800 -0.01910900
v -0.02322900 -0.10195000 -0.01921900
v -0.02322900 -0.10195000 -0.01921900
v -0.02322900 -0.10195000 -0.01921900
v -0.02271900 -0.10329100 -0.01911200
v -0.02271900 -0.10329100 -0.01911200
v -0.02271900 -0.10329100 -0.01911200
v -0.02285100 -0.10190400 -0.01922200
v -0.02285100 -0.10190400 -0.01922200
v -0.02285100 -0.10190400 -0.01922200
v -0.02250700 -0.10326500 -0.01911400
v -0.02250700 -0.10326500 -0.01911400
v -0.02250700 -0.10326500 -0.01911400
v -0.02229600 -0.10323900 -0.01911600
v -0.02229600 -0.10323900 -0.01911600
v -0.02460700 -0.10216200 -0.01920200
v -0.02460700 -0.10216200 -0.01920200
v -0.02457400 -0.10212700 -0.01920500
v -0.02457400 -0.10212700 -0.01920500
v -0.01858400 -0.10558500 -0.01892700
v -0.01858400 -0.10558500 -0.01892700
v -0.01861900 -0.10559100 -0.01892700
v -0.01861900 -0.10559100 -0.01892700
v -0.01861900 -0.10559100 -0.01892700
v -0.01885700 -0.10561900 -0.01892400
v -0.01885700 -0.10561900 -0.01892400
v -0.02459100 -0.10629700 -0.01887200
v -0.02461200 -0.10626600 -0.01887500
v -0.02461200 -0.10626600 -0.01887500
v -0.02455900 -0.10631200 -0.01887100
v -0.02455900 -0.10631200 -0.01887100
v -0.02455900 -0.10631200 -0.01887100
v -0.02462400 -0.10617500 -0.01888200
v -0.02462400 -0.10617500 -0.01888200
v -0.02462400 -0.10617500 -0.01888200
v -0.02446400 -0.10631200 -0.01887100
v -0.02446400 -0.10631200 -0.01887100
v -0.02446400 -0.10631200 -0.01887100
v -0.02462400 -0.10616400 -0.01888300
v -0.02462400 -0.10616400 -0.01888300
v -0.02462400 -0.10616400 -0.01888300
v -0.02409900 -0.10626400 -0.01887500
v -0.02409900 -0.10626400 -0.01887500
v -0.02409900 -0.10626400 -0.01887500
v -0.02373300 -0.10621800 -0.01887800
v -0.02373300 -0.10621800 -0.01887800
v -0.02339300 -0.10612600 -0.01888500
v -0.02342800 -0.10616200 -0.01888300
v -0.02342800 -0.10616200 -0.01888300
v -0.02337600 -0.10604500 -0.01889200
v -0.02337600 -0.10604500 -0.01889200
v -0.02337600 -0.10604500 -0.01889200
v -0.02337600 -0.10475500 -0.01899500
v -0.02337600 -0.10475500 -0.01899500
v -0.02337600 -0.10475500 -0.01899500
v -0.02337700 -0.10346500 -0.01909800
v -0.02337700 -0.10346500 -0.01909800
v -0.01982400 -0.10293200 -0.01913900
v -0.01982400 -0.10293200 -0.01913900
v -0.02000000 -0.10295500 -0.01913800
v -0.02000000 -0.10295500 -0.01913800
v -0.02000000 -0.10295500 -0.01913800
v -0.02046000 -0.10160900 -0.01924500
v -0.02046000 -0.10160900 -0.01924500
v -0.02046000 -0.10160900 -0.01924500
v -0.02017600 -0.10297600 -0.01913600
v -0.02017600 -0.10297600 -0.01913600
v -0.02017600 -0.10297600 -0.01913600
v -0.02090300 -0.10166400 -0.01924100
v -0.02090300 -0.10166400 -0.01924100
v -0.02090300 -0.10166400 -0.01924100
v -0.02053300 -0.10301900 -0.01913300
v -0.02053300 -0.10301900 -0.01913300
v -0.02053300 -0.10301900 -0.01913300
v -0.02131300 -0.10171400 -0.01923700
v -0.02131300 -0.10171400 -0.01923700
v -0.02131300 -0.10171400 -0.01923700
v -0.02089100 -0.10306300 -0.01912900
v -0.02089100 -0.10306300 -0.01912900
v -0.02089100 -0.10306300 -0.01912900
v -0.02095100 -0.10307600 -0.01912800
v -0.02095100 -0.10307600 -0.01912800
v -0.02211100 -0.10505900 -0.01897000
v -0.02211100 -0.10505900 -0.01897000
v -0.02211100 -0.10505900 -0.01897000
v -0.02211100 -0.10505900 -0.01897000
v -0.02216100 -0.10505300 -0.01897100
v -0.02219100 -0.10503200 -0.01897200
v -0.02219100 -0.10503200 -0.01897200
v -0.01964200 -0.10571300 -0.01891700
v -0.01964200 -0.10571300 -0.01891700
v -0.01964200 -0.10571300 -0.01891700
v -0.01964200 -0.10571300 -0.01891700
v -0.01968000 -0.10570800 -0.01891800
v -0.01971000 -0.10568700 -0.01891900
v -0.01971000 -0.10568700 -0.01891900
v -0.02098000 -0.10480400 -0.01899000
v -0.02098000 -0.10480400 -0.01899000
v -0.02098000 -0.10480400 -0.01899000
v -0.02098000 -0.10480400 -0.01899000
v -0.02099400 -0.10487600 -0.01898400
v -0.02102500 -0.10491200 -0.01898200
v -0.02102500 -0.10491200 -0.01898200
v -0.02221000 -0.10499400 -0.01897500
v -0.02221000 -0.10499400 -0.01897500
v -0.02221100 -0.10498800 -0.01897600
v -0.02221100 -0.10498800 -0.01897600
v -0.02221100 -0.10498800 -0.01897600
v -0.02221400 -0.10493200 -0.01898000
v -0.02221400 -0.10493200 -0.01898000
v -0.01972700 -0.10565200 -0.01892200
v -0.01972700 -0.10565200 -0.01892200
v -0.01972900 -0.10564200 -0.01892300
v -0.01972900 -0.10564200 -0.01892300
v -0.01972900 -0.10564200 -0.01892300
v -0.01973100 -0.10561600 -0.01892500
v -0.01973100 -0.10561600 -0.01892500
v -0.02108800 -0.10493600 -0.01898000
v -0.02108800 -0.10493600 -0.01898000
v -0.02109900 -0.10493800 -0.01897900
v -0.02109900 -0.10493800 -0.01897900
v -0.02109900 -0.10493800 -0.01897900
v -0.02116700 -0.10494600 -0.01897900
v -0.02116700 -0.10494600 -0.01897900
vn 0.00028400 -0.07958400 -0.99682800
vn 0.00050700 -0.07954800 -0.99683100
vn 0.00034000 -0.07961000 -0.99682600
vn 0.00028400 -0.07958400 -0.99682800
vn 0.00034000 -0.07961000 -0.99682600
vn 0.00033900 -0.07948300 -0.99683600
vn 0.00031100 -0.07953900 -0.99683200
vn 0.00028400 -0.07958400 -0.99682800
vn 0.00019300 -0.07962700 -0.99682500
vn 0.00050700 -0.07954800 -0.99683100
vn 0.00011200 -0.07976700 -0.99681400
vn -0.00004400 -0.07996100 -0.99679800
vn 0.00033800 -0.07948300 -0.99683600
vn 0.00034000 -0.07961000 -0.99682600
vn 0.00027600 -0.07961100 -0.99682600
vn 0.00033800 -0.07948300 -0.99683600
vn 0.00025300 -0.07956800 -0.99682900
vn 0.00012200 -0.07970400 -0.99681900
vn 0.00027600 -0.07961100 -0.99682600
vn 0.00036600 -0.07970200 -0.99681900
vn 0.00029400 -0.07958900 -0.99682800
vn 0.00026300 -0.07914600 -0.99686300
vn 0.00027300 -0.07949300 -0.99683500
vn 0.00036600 -0.07970200 -0.99681900
vn 0.00034900 -0.07960300 -0.99682700
vn 0.00019700 -0.07956100 -0.99683000
vn 0.00029400 -0.07958900 -0.99682800
vn 0.00039200 -0.07952100 -0.99683300
vn 0.00034900 -0.07960300 -0.99682700
vn 0.00027900 -0.07958100 -0.99682800
vn 0.00026100 -0.07960500 -0.99682600
vn 0.00036600 -0.07970200 -0.99681900
vn 0.00041200 -0.07958300 -0.99682800
vn 0.00027900 -0.07958100 -0.99682800
vn 0.00034900 -0.07960300 -0.99682700
vn 0.00042200 -0.07958800 -0.99682800
vn 0.00041200 -0.07958300 -0.99682800
vn 0.00027900 -0.07958100 -0.99682800
vn 0.00041200 -0.07958300 -0.99682800
vn 0.00057900 -0.07957500 -0.99682900
vn 0.00042200 -0.07958800 -0.99682800
vn 0.00057900 -0.07957500 -0.99682900
vn 0.00042200 -0.07958800 -0.99682800
vn 0.00024800 -0.07960900 -0.99682600
vn 0.00025700 -0.07961200 -0.99682600
vn 0.00048000 -0.07972800 -0.99681700
vn 0.00028400 -0.07961600 -0.99682600
vn 0.00048000 -0.07972800 -0.99681700
vn 0.00025600 -0.07957400 -0.99682900
vn 0.00028400 -0.07961600 -0.99682600
vn 0.00047600 -0.07969600 -0.99681900
vn 0.00048000 -0.07972800 -0.99681700
vn 0.00031600 -0.07965100 -0.99682300
vn 0.00039800 -0.07955200 -0.99683100
vn 0.00017900 -0.07948000 -0.99683600
vn 0.00025600 -0.07957400 -0.99682900
vn 0.00047600 -0.07969600 -0.99681900
vn 0.00025600 -0.07957400 -0.99682900
vn 0.00011200 -0.07976700 -0.99681400
vn 0.00031100 -0.07953900 -0.99683200
vn -0.00004400 -0.07996100 -0.99679800
vn 0.00040300 -0.07941200 -0.99684200
vn 0.00038700 -0.07955600 -0.99683000
vn 0.00031100 -0.07953900 -0.99683200
vn 0.00009600 -0.07963400 -0.99682400
vn 0.00024400 -0.07987600 -0.99680500
vn 0.00030200 -0.07958500 -0.99682800
vn 0.00029200 -0.07958700 -0.99682800
vn 0.00030200 -0.07958400 -0.99682800
vn 0.00032900 -0.07957400 -0.99682900
vn -0.00004400 -0.07996100 -0.99679800
vn 0.00040300 -0.07941200 -0.99684200
vn 0.00040300 -0.07941200 -0.99684200
vn 0.00024400 -0.07987600 -0.99680500
vn 0.00025000 -0.07956900 -0.99682900
vn 0.00041200 -0.07966400 -0.99682200
vn 0.00031600 -0.07965100 -0.99682300
vn 0.00041200 -0.07966400 -0.99682200
vn 0.00041200 -0.07966400 -0.99682200
vn 0.00031600 -0.07965100 -0.99682300
vn 0.00025000 -0.07956900 -0.99682900
vn 0.00017900 -0.07948000 -0.99683600
vn 0.00032200 -0.07960300 -0.99682700
vn 0.00047600 -0.07969600 -0.99681900
vn 0.00017900 -0.07948000 -0.99683600
vn 0.00039800 -0.07955200 -0.99683100
vn 0.00028400 -0.07961600 -0.99682600
vn 0.00029000 -0.07961700 -0.99682600
vn 0.00026000 -0.07956800 -0.99682900
vn 0.00029000 -0.07961700 -0.99682600
vn 0.00039800 -0.07955200 -0.99683100
vn 0.00026000 -0.07956800 -0.99682900
vn 0.00029000 -0.07961700 -0.99682600
vn 0.00029700 -0.07958700 -0.99682800
vn 0.00029700 -0.07958700 -0.99682800
vn 0.00026000 -0.07956800 -0.99682900
vn 0.00029900 -0.07960000 -0.99682700
vn 0.00029700 -0.07958700 -0.99682800
vn 0.00029900 -0.07960000 -0.99682700
vn 0.00032100 -0.07962100 -0.99682500
vn 0.00023600 -0.07962300 -0.99682500
vn 0.00027700 -0.07959800 -0.99682700
vn 0.00025000 -0.07962800 -0.99682500
vn 0.00031000 -0.07960300 -0.99682700
vn 0.00025000 -0.07962800 -0.99682500
vn -0.00002300 -0.07958600 -0.99682800
vn 0.00026200 -0.07915300 -0.99686200
vn 0.00026300 -0.07914600 -0.99686300
vn 0.00042600 -0.07959500 -0.99682700
vn 0.00031000 -0.07960300 -0.99682700
vn -0.00002300 -0.07958600 -0.99682800
vn 0.00025000 -0.07962800 -0.99682500
vn -0.00002300 -0.07958600 -0.99682800
vn 0.00048200 -0.07949500 -0.99683500
vn 0.00042600 -0.07959500 -0.99682700
vn 0.00026700 -0.07962400 -0.99682500
vn 0.00026200 -0.07944300 -0.99683900
vn 0.00038700 -0.07955600 -0.99683000
vn 0.00040500 -0.07957500 -0.99682900
vn 0.00032900 -0.07957400 -0.99682900
vn 0.00038700 -0.07955600 -0.99683000
vn 0.00009600 -0.07963400 -0.99682400
vn 0.00030600 -0.07955300 -0.99683100
vn 0.00027500 -0.07962000 -0.99682500
vn 0.00025700 -0.07962000 -0.99682500
vn 0.00029000 -0.07940600 -0.99684200
vn 0.00038400 -0.07905000 -0.99687100
vn 0.00038400 -0.07905000 -0.99687100
vn 0.00027500 -0.07962000 -0.99682500
vn 0.00017600 -0.07994100 -0.99680000
vn 0.00029000 -0.07940500 -0.99684200
vn 0.00030000 -0.07945400 -0.99683800
vn 0.00038400 -0.07905000 -0.99687100
vn 0.00034000 -0.07962200 -0.99682500
vn 0.00025700 -0.07962000 -0.99682500
vn 0.00020300 -0.07967100 -0.99682100
vn 0.00032200 -0.07960300 -0.99682700
vn 0.00049000 -0.07939400 -0.99684300
vn 0.00025000 -0.07956900 -0.99682900
vn 0.00032200 -0.07960300 -0.99682700
vn 0.00049000 -0.07939400 -0.99684300
vn 0.00049000 -0.07939400 -0.99684300
vn 0.00020300 -0.07967100 -0.99682100
vn 0.00027700 -0.07959800 -0.99682700
vn 0.00052900 -0.07963300 -0.99682400
vn 0.00037500 -0.07960600 -0.99682600
vn 0.00031000 -0.07960300 -0.99682700
vn 0.00052900 -0.07963300 -0.99682400
vn 0.00027700 -0.07959800 -0.99682700
vn 0.00026200 -0.07915300 -0.99686200
vn 0.00023500 -0.07960100 -0.99682700
vn 0.00052900 -0.07963300 -0.99682400
vn 0.00037500 -0.07960600 -0.99682600
vn 0.00032200 -0.07959100 -0.99682800
vn 0.00026200 -0.07915300 -0.99686200
vn 0.00026300 -0.07914600 -0.99686300
vn 0.00027300 -0.07949300 -0.99683500
vn 0.00027300 -0.07949300 -0.99683500
vn 0.00029400 -0.07958900 -0.99682800
vn 0.00019700 -0.07956100 -0.99683000
vn 0.00012200 -0.07970400 -0.99681900
vn 0.00027600 -0.07961100 -0.99682600
vn 0.00025300 -0.07956800 -0.99682900
vn 0.00012200 -0.07970400 -0.99681900
vn 0.00029000 -0.07957100 -0.99682900
vn 0.00027100 -0.07957300 -0.99682900
vn 0.00025300 -0.07956800 -0.99682900
vn 0.00029000 -0.07957100 -0.99682900
vn 0.00027100 -0.07957300 -0.99682900
vn 0.00026000 -0.07958100 -0.99682800
vn 0.00029000 -0.07957100 -0.99682900
vn 0.00027100 -0.07957300 -0.99682900
vn 0.00026000 -0.07958100 -0.99682800
vn 0.00030200 -0.07957300 -0.99682900
vn 0.00026000 -0.07958100 -0.99682800
vn 0.00030200 -0.07957300 -0.99682900
vn 0.00026700 -0.07958900 -0.99682800
vn 0.00030200 -0.07957300 -0.99682900
vn 0.00040000 -0.07957200 -0.99682900
vn 0.00026700 -0.07958900 -0.99682800
vn 0.00040000 -0.07957200 -0.99682900
vn 0.00025700 -0.07961200 -0.99682600
vn 0.00026700 -0.07958900 -0.99682800
vn 0.00040000 -0.07957200 -0.99682900
vn 0.00025700 -0.07961200 -0.99682600
vn 0.00024800 -0.07960900 -0.99682600
vn 0.00057900 -0.07957500 -0.99682900
vn 0.00024800 -0.07960900 -0.99682600
vn 0.00011200 -0.07976700 -0.99681400
vn 0.00019300 -0.07962700 -0.99682500
vn 0.00050700 -0.07954800 -0.99683100
vn 0.00019300 -0.07962700 -0.99682500
vn 0.00020300 -0.07967100 -0.99682100
vn 0.00034000 -0.07962200 -0.99682500
vn 0.00030600 -0.07955300 -0.99683100
vn 0.00025700 -0.07962000 -0.99682500
vn 0.00034000 -0.07962200 -0.99682500
vn 0.00027500 -0.07962000 -0.99682500
vn 0.00030600 -0.07955300 -0.99683100
vn 0.00036000 -0.07955500 -0.99683000
vn 0.00036000 -0.07955500 -0.99683000
vn 0.00024000 -0.07960700 -0.99682600
vn 0.00055100 -0.07939200 -0.99684300
vn 0.00036000 -0.07955500 -0.99683000
vn 0.00024000 -0.07960700 -0.99682600
vn 0.00052200 -0.07939100 -0.99684300
vn 0.00055100 -0.07939200 -0.99684300
vn 0.00024000 -0.07960700 -0.99682600
vn 0.00055100 -0.07939200 -0.99684300
vn 0.00052200 -0.07939100 -0.99684300
vn 0.00029600 -0.07957500 -0.99682900
vn 0.00052300 -0.07939100 -0.99684300
vn 0.00029600 -0.07957500 -0.99682900
vn 0.00029200 -0.07958700 -0.99682800
vn 0.00029200 -0.07958700 -0.99682800
vn 0.00030200 -0.07958500 -0.99682800
vn 0.00029600 -0.07957500 -0.99682900
vn 0.00009600 -0.07963400 -0.99682400
vn 0.00030200 -0.07958500 -0.99682800
vn 0.00035300 -0.07975100 -0.99681500
vn 0.00035300 -0.07975100 -0.99681500
vn 0.00026200 -0.07944300 -0.99683900
vn 0.00026200 -0.07944300 -0.99683900
vn 0.00040500 -0.07957500 -0.99682900
vn 0.00035300 -0.07975100 -0.99681500
vn 0.00040500 -0.07957500 -0.99682900
vn 0.00032900 -0.07957400 -0.99682900
vn 0.00030200 -0.07958400 -0.99682800
vn 0.00030200 -0.07958400 -0.99682800
vn 0.00024400 -0.07987600 -0.99680500
vn 0.00032100 -0.07962100 -0.99682500
vn 0.00029900 -0.07960000 -0.99682700
vn 0.00043300 -0.07955500 -0.99683000
vn 0.00023600 -0.07962300 -0.99682500
vn 0.00032100 -0.07962100 -0.99682500
vn 0.00043300 -0.07955500 -0.99683000
vn 0.00023600 -0.07962300 -0.99682500
vn 0.00036200 -0.07956900 -0.99682900
vn 0.00036200 -0.07956900 -0.99682900
vn 0.00030600 -0.07959900 -0.99682700
vn 0.00043300 -0.07955500 -0.99683000
vn 0.00030600 -0.07959900 -0.99682700
vn 0.00027900 -0.07961100 -0.99682600
vn 0.00036200 -0.07956900 -0.99682900
vn 0.00027900 -0.07961100 -0.99682600
vn 0.00030600 -0.07959900 -0.99682700
vn 0.00031100 -0.07958100 -0.99682800
vn 0.00026100 -0.07960500 -0.99682600
vn 0.00031100 -0.07958100 -0.99682800
vn 0.00027900 -0.07961100 -0.99682600
vn 0.00031100 -0.07958100 -0.99682800
vn 0.00039200 -0.07952100 -0.99683300
vn 0.00026100 -0.07960500 -0.99682600
vn 0.00019700 -0.07956100 -0.99683000
vn 0.00039200 -0.07952100 -0.99683300
vn 0.00024000 -0.07961400 -0.99682600
vn 0.00026300 -0.07977600 -0.99681300
vn 0.00052500 -0.07953200 -0.99683200
vn 0.00026700 -0.07962400 -0.99682500
vn 0.00024000 -0.07961400 -0.99682600
vn 0.00024000 -0.07961300 -0.99682600
vn 0.00026300 -0.07977600 -0.99681300
vn 0.00028300 -0.07959500 -0.99682700
vn 0.00034700 -0.07955200 -0.99683100
vn 0.00030000 -0.07945400 -0.99683800
vn 0.00027800 -0.07956100 -0.99683000
vn 0.00027800 -0.07956100 -0.99683000
vn 0.00027800 -0.07956100 -0.99683000
vn 0.00034600 -0.07955200 -0.99683100
vn 0.00032400 -0.07962600 -0.99682500
vn 0.00036900 -0.07959000 -0.99682800
vn 0.00032200 -0.07959100 -0.99682800
vn 0.00018400 -0.07953900 -0.99683200
vn 0.00018300 -0.07953900 -0.99683200
vn 0.00018400 -0.07953900 -0.99683200
vn 0.00036900 -0.07959000 -0.99682800
vn 0.00026300 -0.07977600 -0.99681300
vn 0.00052700 -0.07953000 -0.99683200
vn 0.00052800 -0.07952600 -0.99683300
vn 0.00048200 -0.07949500 -0.99683500
vn 0.00026700 -0.07962400 -0.99682500
vn 0.00042600 -0.07959500 -0.99682700
vn 0.00048200 -0.07949500 -0.99683500
vn 0.00034600 -0.07955200 -0.99683100
vn 0.00017200 -0.07980800 -0.99681000
vn 0.00030000 -0.07945400 -0.99683800
vn 0.00017600 -0.07994100 -0.99680000
vn 0.00028700 -0.07959800 -0.99682700
vn 0.00017600 -0.07994100 -0.99680000
vn 0.00029000 -0.07940500 -0.99684200
vn 0.00032400 -0.07962500 -0.99682500
vn 0.00036900 -0.07959000 -0.99682800
vn 0.00032200 -0.07959100 -0.99682800
vn 0.00032400 -0.07962500 -0.99682500
vn 0.00023500 -0.07960100 -0.99682700
vn 0.00023500 -0.07960100 -0.99682700
vn 0.00037500 -0.07960600 -0.99682600
f 1//1 4//4 8//8
f 5//5 3//3 14//14
f 6//6 13//13 16//16
f 20//20 24//24 32//32
f 29//29 25//25 35//35
f 30//30 34//34 38//38
f 37//37 33//33 39//39
f 36//36 41//41 43//43
f 46//46 48//48 52//52
f 56//56 49//49 58//58
f 60//60 7//7 64//64
f 61//61 12//12 71//71
f 62//62 72//72 73//73
f 76//76 78//78 79//79
f 80//80 77//77 53//53
f 82//82 55//55 85//85
f 84//84 51//51 57//57
f 47//47 50//50 87//87
f 86//86 54//54 91//91
f 88//88 90//90 93//93
f 92//92 89//89 96//96
f 94//94 95//95 98//98
f 103//103 105//105 112//112
f 111//111 106//106 113//113
f 118//118 121//121 63//63
f 127//127 128//128 133//133
f 75//75 81//81 139//139
f 137//137 83//83 140//140
f 138//138 141//141 142//142
f 145//145 148//148 152//152
f 144//144 102//102 149//149
f 147//147 104//104 110//110
f 150//150 107//107 155//155
f 156//156 108//108 22//22
f 157//157 23//23 158//158
f 159//159 21//21 27//27
f 15//15 162//162 19//19
f 18//18 161//161 164//164
f 17//17 163//163 167//167
f 168//168 165//165 171//171
f 166//166 169//169 172//172
f 173//173 170//170 175//175
f 174//174 176//176 178//178
f 180//180 177//177 183//183
f 179//179 181//181 184//184
f 185//185 182//182 45//45
f 186//186 44//44 188//188
f 187//187 42//42 40//40
f 59//59 189//189 11//11
f 9//9 190//190 192//192
f 10//10 191//191 2//2
f 143//143 193//193 136//136
f 134//134 194//194 197//197
f 135//135 196//196 125//125
f 123//123 195//195 199//199
f 124//124 198//198 129//129
f 200//200 201//201 204//204
f 205//205 202//202 208//208
f 203//203 207//207 209//209
f 210//210 206//206 212//212
f 211//211 213//213 217//217
f 215//215 214//214 68//68
f 216//216 67//67 219//219
f 218//218 65//65 122//122
f 220//220 221//221 225//225
f 223//223 222//222 117//117
f 224//224 119//119 226//226
f 227//227 120//120 70//70
f 228//228 69//69 229//229
f 230//230 66//66 74//74
f 97//97 232//232 99//99
f 100//100 231//231 235//235
f 101//101 234//234 237//237
f 236//236 233//233 241//241
f 238//238 239//239 244//244
f 242//242 240//240 246//246
f 243//243 245//245 250//250
f 249//249 247//247 251//251
f 248//248 253//253 31//31
f 28//28 252//252 255//255
f 26//26 254//254 160//160
f 256//256 260//260 261//261
f 266//266 267//267 268//268
f 273//273 274//274 275//275
f 262//262 277//277 257//257
f 258//258 278//278 279//279
f 259//259 281//281 116//116
f 114//114 280//280 283//283
f 115//115 282//282 109//109
f 269//269 284//284 264//264
f 263//263 285//285 288//288
f 265//265 286//286 132//132
f 130//130 287//287 289//289
f 131//131 290//290 126//126
f 276//276 292//292 271//271
f 270//270 291//291 294//294
f 272//272 293//293 154//154
f 151//151 295//295 296//296
f 153//153 297//297 146//146

