# https://github.com/mikedh/trimesh
v 0.27522200 -0.01040900 -0.04730000
v 0.27522200 -0.01040900 -0.04720000
v 0.27523500 -0.01038100 -0.04720000
v 0.27523500 -0.01038100 -0.04730000
v 0.27525100 -0.01035500 -0.04720000
v 0.27525100 -0.01035500 -0.04730000
v 0.27527100 -0.01033100 -0.04720000
v 0.27527100 -0.01033100 -0.04730000
v 0.27529500 -0.01031000 -0.04720000
v 0.27529500 -0.01031000 -0.04730000
v 0.27532200 -0.01029200 -0.04720000
v 0.27532200 -0.01029200 -0.04730000
v 0.27534000 -0.01028300 -0.04720000
v 0.27534000 -0.01028300 -0.04730000
v 0.27537000 -0.01027200 -0.04720000
v 0.27537000 -0.01027200 -0.04730000
v 0.27540000 -0.01026600 -0.04720000
v 0.27540000 -0.01026600 -0.04730000
v 0.27543000 -0.01026300 -0.04720000
v 0.27543000 -0.01026300 -0.04730000
v 0.27546100 -0.01026500 -0.04720000
v 0.27546100 -0.01026500 -0.04730000
v 0.27549200 -0.01027100 -0.04720000
v 0.27549200 -0.01027100 -0.04730000
v 0.27552200 -0.01028100 -0.04720000
v 0.27552200 -0.01028100 -0.04730000
v 0.27555000 -0.01029600 -0.04720000
v 0.27555000 -0.01029600 -0.04730000
v 0.27557600 -0.01031400 -0.04720000
v 0.27557600 -0.01031400 -0.04730000
v 0.27559900 -0.01033600 -0.04720000
v 0.27559900 -0.01033600 -0.04730000
v 0.27561900 -0.01036100 -0.04720000
v 0.27561900 -0.01036100 -0.04730000
v 0.27563500 -0.01038800 -0.04720000
v 0.27563500 -0.01038800 -0.04730000
v 0.27563900 -0.01039600 -0.04720000
v 0.27563900 -0.01039600 -0.04730000
v 0.27564600 -0.01041200 -0.04730000
v 0.27564600 -0.01041200 -0.04720000
v 0.27565800 -0.01044500 -0.04720000
v 0.27565800 -0.01044500 -0.04730000
v 0.27566400 -0.01048000 -0.04720000
v 0.27566400 -0.01048000 -0.04730000
v 0.27566500 -0.01051500 -0.04720000
v 0.27566500 -0.01051500 -0.04730000
v 0.27566000 -0.01055000 -0.04720000
v 0.27566000 -0.01055000 -0.04730000
v 0.27565000 -0.01058400 -0.04720000
v 0.27565000 -0.01058400 -0.04730000
v 0.27563700 -0.01061300 -0.04720000
v 0.27563700 -0.01061300 -0.04730000
v 0.27561900 -0.01064000 -0.04720000
v 0.27561900 -0.01064000 -0.04730000
v 0.27559800 -0.01066400 -0.04720000
v 0.27559800 -0.01066400 -0.04730000
v 0.27557400 -0.01068500 -0.04720000
v 0.27557400 -0.01068500 -0.04730000
v 0.27554700 -0.01070200 -0.04720000
v 0.27554700 -0.01070200 -0.04730000
v 0.27553200 -0.01071000 -0.04720000
v 0.27553200 -0.01071000 -0.04730000
v 0.27550200 -0.01072100 -0.04720000
v 0.27550200 -0.01072100 -0.04730000
v 0.27547200 -0.01072700 -0.04720000
v 0.27547200 -0.01072700 -0.04730000
v 0.27544200 -0.01073000 -0.04720000
v 0.27544200 -0.01073000 -0.04730000
v 0.27541100 -0.01072800 -0.04720000
v 0.27541100 -0.01072800 -0.04730000
v 0.27538000 -0.01072200 -0.04720000
v 0.27538000 -0.01072200 -0.04730000
v 0.27535000 -0.01071100 -0.04720000
v 0.27535000 -0.01071100 -0.04730000
v 0.27532200 -0.01069700 -0.04720000
v 0.27532200 -0.01069700 -0.04730000
v 0.27529600 -0.01067800 -0.04720000
v 0.27529600 -0.01067800 -0.04730000
v 0.27527300 -0.01065700 -0.04720000
v 0.27527300 -0.01065700 -0.04730000
v 0.27525300 -0.01063200 -0.04720000
v 0.27525300 -0.01063200 -0.04730000
v 0.27523700 -0.01060400 -0.04720000
v 0.27523700 -0.01060400 -0.04730000
v 0.27523400 -0.01059700 -0.04720000
v 0.27523400 -0.01059700 -0.04730000
v 0.27522700 -0.01058100 -0.04730000
v 0.27522700 -0.01058100 -0.04720000
v 0.27521600 -0.01055200 -0.04720000
v 0.27521600 -0.01055200 -0.04730000
v 0.27520900 -0.01052200 -0.04720000
v 0.27520900 -0.01052200 -0.04730000
v 0.27520700 -0.01049100 -0.04720000
v 0.27520700 -0.01049100 -0.04730000
v 0.27520900 -0.01046000 -0.04720000
v 0.27520900 -0.01046000 -0.04730000
v 0.27521500 -0.01043000 -0.04720000
v 0.27521500 -0.01043000 -0.04730000
v 0.27521500 -0.01043000 -0.04730000
v 0.27521500 -0.01043000 -0.04730000
v 0.27522200 -0.01040900 -0.04730000
v 0.27522200 -0.01040900 -0.04730000
v 0.27563500 -0.01038800 -0.04730000
v 0.27563500 -0.01038800 -0.04730000
v 0.27563500 -0.01038800 -0.04730000
v 0.27563500 -0.01038800 -0.04730000
v 0.27563500 -0.01038800 -0.04730000
v 0.27563500 -0.01038800 -0.04730000
v 0.27563500 -0.01038800 -0.04730000
v 0.27563500 -0.01038800 -0.04730000
v 0.27563500 -0.01038800 -0.04730000
v 0.27563500 -0.01038800 -0.04730000
v 0.27563500 -0.01038800 -0.04730000
v 0.27563500 -0.01038800 -0.04730000
v 0.27527100 -0.01033100 -0.04730000
v 0.27529500 -0.01031000 -0.04730000
v 0.27529500 -0.01031000 -0.04730000
v 0.27532200 -0.01029200 -0.04730000
v 0.27532200 -0.01029200 -0.04730000
v 0.27534000 -0.01028300 -0.04730000
v 0.27534000 -0.01028300 -0.04730000
v 0.27564600 -0.01041200 -0.04730000
v 0.27564600 -0.01041200 -0.04730000
v 0.27564600 -0.01041200 -0.04730000
v 0.27523400 -0.01059700 -0.04730000
v 0.27523400 -0.01059700 -0.04730000
v 0.27523400 -0.01059700 -0.04730000
v 0.27563900 -0.01039600 -0.04730000
v 0.27563900 -0.01039600 -0.04730000
v 0.27522700 -0.01058100 -0.04730000
v 0.27522700 -0.01058100 -0.04730000
v 0.27522700 -0.01058100 -0.04730000
v 0.27563500 -0.01038800 -0.04730000
v 0.27563500 -0.01038800 -0.04730000
v 0.27563500 -0.01038800 -0.04730000
v 0.27563500 -0.01038800 -0.04730000
v 0.27563500 -0.01038800 -0.04730000
v 0.27521600 -0.01055200 -0.04730000
v 0.27521600 -0.01055200 -0.04730000
v 0.27520900 -0.01052200 -0.04730000
v 0.27520900 -0.01052200 -0.04730000
v 0.27537000 -0.01027200 -0.04730000
v 0.27537000 -0.01027200 -0.04730000
v 0.27540000 -0.01026600 -0.04730000
v 0.27540000 -0.01026600 -0.04730000
v 0.27543000 -0.01026300 -0.04730000
v 0.27543000 -0.01026300 -0.04730000
v 0.27544200 -0.01073000 -0.04730000
v 0.27544200 -0.01073000 -0.04730000
v 0.27541100 -0.01072800 -0.04730000
v 0.27541100 -0.01072800 -0.04730000
v 0.27564600 -0.01041200 -0.04730000
v 0.27564600 -0.01041200 -0.04730000
v 0.27564600 -0.01041200 -0.04730000
v 0.27564600 -0.01041200 -0.04730000
v 0.27564600 -0.01041200 -0.04730000
v 0.27564600 -0.01041200 -0.04730000
v 0.27564600 -0.01041200 -0.04730000
v 0.27564600 -0.01041200 -0.04730000
v 0.27564600 -0.01041200 -0.04730000
v 0.27564600 -0.01041200 -0.04730000
v 0.27564600 -0.01041200 -0.04730000
v 0.27564600 -0.01041200 -0.04730000
v 0.27564600 -0.01041200 -0.04730000
v 0.27564600 -0.01041200 -0.04730000
v 0.27538000 -0.01072200 -0.04730000
v 0.27538000 -0.01072200 -0.04730000
v 0.27535000 -0.01071100 -0.04730000
v 0.27535000 -0.01071100 -0.04730000
v 0.27520700 -0.01049100 -0.04730000
v 0.27520700 -0.01049100 -0.04730000
v 0.27520900 -0.01046000 -0.04730000
v 0.27520900 -0.01046000 -0.04730000
v 0.27523500 -0.01038100 -0.04730000
v 0.27523500 -0.01038100 -0.04730000
v 0.27525100 -0.01035500 -0.04730000
v 0.27566400 -0.01048000 -0.04730000
v 0.27566400 -0.01048000 -0.04730000
v 0.27566500 -0.01051500 -0.04730000
v 0.27566000 -0.01055000 -0.04730000
v 0.27566000 -0.01055000 -0.04730000
v 0.27566000 -0.01055000 -0.04730000
v 0.27565000 -0.01058400 -0.04730000
v 0.27565000 -0.01058400 -0.04730000
v 0.27563700 -0.01061300 -0.04730000
v 0.27563700 -0.01061300 -0.04730000
v 0.27561900 -0.01064000 -0.04730000
v 0.27561900 -0.01064000 -0.04730000
v 0.27559800 -0.01066400 -0.04730000
v 0.27559800 -0.01066400 -0.04730000
v 0.27553200 -0.01071000 -0.04730000
v 0.27553200 -0.01071000 -0.04730000
v 0.27550200 -0.01072100 -0.04730000
v 0.27547200 -0.01072700 -0.04730000
v 0.27547200 -0.01072700 -0.04730000
v 0.27557400 -0.01068500 -0.04730000
v 0.27557400 -0.01068500 -0.04730000
v 0.27554700 -0.01070200 -0.04730000
v 0.27554700 -0.01070200 -0.04730000
v 0.27546100 -0.01026500 -0.04730000
v 0.27546100 -0.01026500 -0.04730000
v 0.27549200 -0.01027100 -0.04730000
v 0.27549200 -0.01027100 -0.04730000
v 0.27552200 -0.01028100 -0.04730000
v 0.27552200 -0.01028100 -0.04730000
v 0.27565800 -0.01044500 -0.04730000
v 0.27532200 -0.01069700 -0.04730000
v 0.27532200 -0.01069700 -0.04730000
v 0.27529600 -0.01067800 -0.04730000
v 0.27529600 -0.01067800 -0.04730000
v 0.27527300 -0.01065700 -0.04730000
v 0.27527300 -0.01065700 -0.04730000
v 0.27525300 -0.01063200 -0.04730000
v 0.27525300 -0.01063200 -0.04730000
v 0.27523700 -0.01060400 -0.04730000
v 0.27523700 -0.01060400 -0.04730000
v 0.27555000 -0.01029600 -0.04730000
v 0.27555000 -0.01029600 -0.04730000
v 0.27557600 -0.01031400 -0.04730000
v 0.27557600 -0.01031400 -0.04730000
v 0.27561900 -0.01036100 -0.04730000
v 0.27561900 -0.01036100 -0.04730000
v 0.27557600 -0.01031400 -0.04730000
v 0.27559900 -0.01033600 -0.04730000
v 0.27521600 -0.01055200 -0.04720000
v 0.27521600 -0.01055200 -0.04720000
v 0.27522700 -0.01058100 -0.04720000
v 0.27522700 -0.01058100 -0.04720000
v 0.27522700 -0.01058100 -0.04720000
v 0.27563500 -0.01038800 -0.04720000
v 0.27563500 -0.01038800 -0.04720000
v 0.27563500 -0.01038800 -0.04720000
v 0.27563500 -0.01038800 -0.04720000
v 0.27563500 -0.01038800 -0.04720000
v 0.27563500 -0.01038800 -0.04720000
v 0.27563500 -0.01038800 -0.04720000
v 0.27563500 -0.01038800 -0.04720000
v 0.27563500 -0.01038800 -0.04720000
v 0.27563500 -0.01038800 -0.04720000
v 0.27563500 -0.01038800 -0.04720000
v 0.27563500 -0.01038800 -0.04720000
v 0.27563900 -0.01039600 -0.04720000
v 0.27563900 -0.01039600 -0.04720000
v 0.27564600 -0.01041200 -0.04720000
v 0.27564600 -0.01041200 -0.04720000
v 0.27564600 -0.01041200 -0.04720000
v 0.27564600 -0.01041200 -0.04720000
v 0.27564600 -0.01041200 -0.04720000
v 0.27564600 -0.01041200 -0.04720000
v 0.27564600 -0.01041200 -0.04720000
v 0.27564600 -0.01041200 -0.04720000
v 0.27564600 -0.01041200 -0.04720000
v 0.27564600 -0.01041200 -0.04720000
v 0.27564600 -0.01041200 -0.04720000
v 0.27564600 -0.01041200 -0.04720000
v 0.27564600 -0.01041200 -0.04720000
v 0.27564600 -0.01041200 -0.04720000
v 0.27564600 -0.01041200 -0.04720000
v 0.27523400 -0.01059700 -0.04720000
v 0.27523400 -0.01059700 -0.04720000
v 0.27523700 -0.01060400 -0.04720000
v 0.27523700 -0.01060400 -0.04720000
v 0.27543000 -0.01026300 -0.04720000
v 0.27540000 -0.01026600 -0.04720000
v 0.27538000 -0.01072200 -0.04720000
v 0.27538000 -0.01072200 -0.04720000
v 0.27541100 -0.01072800 -0.04720000
v 0.27541100 -0.01072800 -0.04720000
v 0.27544200 -0.01073000 -0.04720000
v 0.27544200 -0.01073000 -0.04720000
v 0.27547200 -0.01072700 -0.04720000
v 0.27547200 -0.01072700 -0.04720000
v 0.27546100 -0.01026500 -0.04720000
v 0.27546100 -0.01026500 -0.04720000
v 0.27537000 -0.01027200 -0.04720000
v 0.27534000 -0.01028300 -0.04720000
v 0.27534000 -0.01028300 -0.04720000
v 0.27532200 -0.01029200 -0.04720000
v 0.27532200 -0.01029200 -0.04720000
v 0.27529500 -0.01031000 -0.04720000
v 0.27529500 -0.01031000 -0.04720000
v 0.27527100 -0.01033100 -0.04720000
v 0.27527100 -0.01033100 -0.04720000
v 0.27525100 -0.01035500 -0.04720000
v 0.27521500 -0.01043000 -0.04720000
v 0.27521500 -0.01043000 -0.04720000
v 0.27520900 -0.01046000 -0.04720000
v 0.27520900 -0.01046000 -0.04720000
v 0.27529600 -0.01067800 -0.04720000
v 0.27529600 -0.01067800 -0.04720000
v 0.27532200 -0.01069700 -0.04720000
v 0.27532200 -0.01069700 -0.04720000
v 0.27535000 -0.01071100 -0.04720000
v 0.27535000 -0.01071100 -0.04720000
v 0.27550200 -0.01072100 -0.04720000
v 0.27550200 -0.01072100 -0.04720000
v 0.27553200 -0.01071000 -0.04720000
v 0.27553200 -0.01071000 -0.04720000
v 0.27554700 -0.01070200 -0.04720000
v 0.27554700 -0.01070200 -0.04720000
v 0.27561900 -0.01064000 -0.04720000
v 0.27561900 -0.01064000 -0.04720000
v 0.27563700 -0.01061300 -0.04720000
v 0.27565000 -0.01058400 -0.04720000
v 0.27565000 -0.01058400 -0.04720000
v 0.27566000 -0.01055000 -0.04720000
v 0.27566000 -0.01055000 -0.04720000
v 0.27566000 -0.01055000 -0.04720000
v 0.27566000 -0.01055000 -0.04720000
v 0.27523500 -0.01038100 -0.04720000
v 0.27523500 -0.01038100 -0.04720000
v 0.27522200 -0.01040900 -0.04720000
v 0.27522200 -0.01040900 -0.04720000
v 0.27520700 -0.01049100 -0.04720000
v 0.27520700 -0.01049100 -0.04720000
v 0.27520900 -0.01052200 -0.04720000
v 0.27520900 -0.01052200 -0.04720000
v 0.27557400 -0.01068500 -0.04720000
v 0.27557400 -0.01068500 -0.04720000
v 0.27559800 -0.01066400 -0.04720000
v 0.27559800 -0.01066400 -0.04720000
v 0.27566500 -0.01051500 -0.04720000
v 0.27566400 -0.01048000 -0.04720000
v 0.27566400 -0.01048000 -0.04720000
v 0.27565800 -0.01044500 -0.04720000
v 0.27565800 -0.01044500 -0.04720000
v 0.27555000 -0.01029600 -0.04720000
v 0.27552200 -0.01028100 -0.04720000
v 0.27552200 -0.01028100 -0.04720000
v 0.27549200 -0.01027100 -0.04720000
v 0.27549200 -0.01027100 -0.04720000
v 0.27525300 -0.01063200 -0.04720000
v 0.27525300 -0.01063200 -0.04720000
v 0.27527300 -0.01065700 -0.04720000
v 0.27527300 -0.01065700 -0.04720000
v 0.27557600 -0.01031400 -0.04720000
v 0.27557600 -0.01031400 -0.04720000
v 0.27561900 -0.01036100 -0.04720000
v 0.27561900 -0.01036100 -0.04720000
v 0.27559900 -0.01033600 -0.04720000
vn -0.92558200 0.37854600 -0.00000100
vn -0.93825400 0.34594700 0.00000000
vn -0.89145700 0.45310500 -0.00000700
vn -0.86913600 0.49457400 -0.00000100
vn -0.81853500 0.57445700 0.00000000
vn -0.79032100 0.61269300 0.00001000
vn -0.72877200 0.68475600 0.00000000
vn -0.69555900 0.71846900 0.00000000
vn -0.62506900 0.78057000 0.00000100
vn -0.58787400 0.80895200 0.00000000
vn -0.51760500 0.85562000 0.00000000
vn -0.48506000 0.87448100 0.00000000
vn -0.41733300 0.90875400 0.00000000
vn -0.38226800 0.92405100 -0.00000100
vn -0.30342500 0.95285500 0.00000000
vn -0.25953800 0.96573300 0.00000000
vn -0.17036400 0.98538100 0.00000100
vn -0.12513400 0.99214000 0.00000900
vn -0.03388600 0.99942600 0.00000000
vn 0.01207300 0.99992700 -0.00000100
vn 0.10348500 0.99463100 0.00000000
vn 0.14898800 0.98883900 0.00000000
vn 0.23920000 0.97097000 0.00000000
vn 0.28387600 0.95886100 0.00000900
vn 0.37158900 0.92839800 0.00000000
vn 0.41454900 0.91002700 -0.00000900
vn 0.49754800 0.86743600 0.00000100
vn 0.53748000 0.84327600 -0.00000100
vn 0.61417500 0.78917000 -0.00000900
vn 0.65086300 0.75919500 0.00000000
vn 0.71964200 0.69434500 0.00000000
vn 0.75167000 0.65953900 0.00000000
vn 0.81065600 0.58552300 0.00000000
vn 0.83751500 0.54641400 0.00000000
vn 0.87683600 0.48078900 0.00000000
vn 0.89046300 0.45505500 0.00000700
vn 0.90548800 0.42437100 0.00000000
vn 0.90744000 0.42018100 0.00000000
vn 0.93178000 0.36302300 0.00000000
vn 0.92101400 0.38953000 -0.00000700
vn 0.95825100 0.28593000 -0.00001200
vn 0.97204600 0.23479000 0.00000000
vn 0.99128600 0.13172600 0.00000000
vn 0.99680000 0.07993700 0.00001200
vn 0.99969100 -0.02486600 0.00000000
vn 0.99697300 -0.07775000 0.00001300
vn 0.98335100 -0.18171900 -0.00001000
vn 0.97254400 -0.23272000 0.00001000
vn 0.94347500 -0.33144400 -0.00001000
vn 0.92535200 -0.37910800 0.00000000
vn 0.88431000 -0.46690100 0.00000000
vn 0.86193600 -0.50701700 0.00000800
vn 0.81140200 -0.58448900 -0.00000900
vn 0.78326100 -0.62169300 -0.00000100
vn 0.72169900 -0.69220700 0.00000000
vn 0.68832900 -0.72539800 0.00000000
vn 0.61655500 -0.78731200 -0.00000900
vn 0.57820400 -0.81589200 0.00000000
vn 0.50719600 -0.86183000 -0.00000900
vn 0.47512400 -0.87991900 0.00000000
vn 0.41095800 -0.91165400 0.00000000
vn 0.37895100 -0.92541700 0.00000000
vn 0.30298400 -0.95299600 -0.00000900
vn 0.25868800 -0.96596100 -0.00000100
vn 0.16890900 -0.98563200 -0.00000900
vn 0.12350700 -0.99234400 0.00000000
vn 0.03202100 -0.99948700 0.00000000
vn -0.01384300 -0.99990400 0.00000000
vn -0.10562900 -0.99440600 -0.00001000
vn -0.15128200 -0.98849100 0.00000800
vn -0.24124000 -0.97046500 0.00000000
vn -0.28543800 -0.95839700 0.00000000
vn -0.37254800 -0.92801300 -0.00000800
vn -0.41536900 -0.90965300 0.00000900
vn -0.49819200 -0.86706700 -0.00000800
vn -0.53807200 -0.84289900 0.00000000
vn -0.61453000 -0.78889400 0.00000000
vn -0.65103900 -0.75904400 0.00000000
vn -0.71963800 -0.69435000 0.00000000
vn -0.75167100 -0.65953900 0.00000000
vn -0.81063300 -0.58555500 0.00000000
vn -0.83747200 -0.54648000 0.00000000
vn -0.87676900 -0.48091100 0.00000000
vn -0.89040500 -0.45516900 -0.00000100
vn -0.90556900 -0.42419800 0.00000000
vn -0.90786300 -0.41926700 0.00000200
vn -0.92982200 -0.36801000 -0.00000000
vn -0.92026600 -0.39129400 0.00000000
vn -0.95362300 -0.30100500 0.00000000
vn -0.96642800 -0.25693900 0.00001100
vn -0.98588900 -0.16739900 -0.00000800
vn -0.99251200 -0.12214800 0.00000000
vn -0.99953900 -0.03035700 -0.00001000
vn -0.99987000 0.01611100 0.00000000
vn -0.99413100 0.10818100 -0.00001100
vn -0.98810400 0.15378500 0.00000800
vn -0.97141800 0.23737600 -0.00000800
vn -0.96134200 0.27535600 0.00000000
vn -0.00010600 0.00001100 -1.00000000
vn 0.00003600 -0.00000400 -1.00000000
vn 0.00002000 -0.00000200 -1.00000000
vn -0.00010600 0.00001100 -1.00000000
vn -0.00010600 0.00001100 -1.00000000
vn 0.00000000 0.00000000 -1.00000000
vn 0.00002100 -0.00000200 -1.00000000
vn 0.00014300 -0.00001400 -1.00000000
vn -0.00007800 0.00000800 -1.00000000
vn -0.00002800 0.00000300 -1.00000000
vn 0.00002000 -0.00000200 -1.00000000
vn 0.00003600 -0.00000400 -1.00000000
vn -0.00004900 0.00000500 -1.00000000
vn -0.00001400 0.00000100 -1.00000000
vn 0.00006500 -0.00000700 -1.00000000
vn 0.00009300 -0.00000900 -1.00000000
vn 0.00000000 0.00000000 -1.00000000
vn -0.00001400 0.00000100 -1.00000000
vn 0.00000000 0.00000000 -1.00000000
vn -0.00001400 0.00000100 -1.00000000
vn -0.00004900 0.00000500 -1.00000000
vn 0.00014300 -0.00001400 -1.00000000
vn -0.00004900 0.00000500 -1.00000000
vn 0.00007400 -0.00000800 -1.00000000
vn 0.00000000 0.00000000 -1.00000000
vn -0.00001600 0.00000200 -1.00000000
vn -0.00004500 0.00000500 -1.00000000
vn 0.00000000 0.00000000 -1.00000000
vn 0.00007400 -0.00000800 -1.00000000
vn -0.00004500 0.00000500 -1.00000000
vn 0.00000000 0.00000000 -1.00000000
vn 0.00004800 -0.00000500 -1.00000000
vn 0.00000000 0.00000000 -1.00000000
vn -0.00004500 0.00000500 -1.00000000
vn -0.00006600 0.00000700 -1.00000000
vn 0.00004800 -0.00000500 -1.00000000
vn 0.00006800 -0.00000700 -1.00000000
vn 0.00000000 0.00000000 -1.00000000
vn -0.00003500 0.00000400 -1.00000000
vn 0.00004800 -0.00000500 -1.00000000
vn -0.00006600 0.00000700 -1.00000000
vn 0.00006800 -0.00000700 -1.00000000
vn -0.00006600 0.00000700 -1.00000000
vn 0.00002100 -0.00000200 -1.00000000
vn 0.00014300 -0.00001400 -1.00000000
vn -0.00007800 0.00000800 -1.00000000
vn 0.00002100 -0.00000200 -1.00000000
vn 0.00000000 0.00000000 -1.00000000
vn -0.00007800 0.00000800 -1.00000000
vn -0.00011600 0.00001200 -1.00000000
vn 0.00000000 0.00000000 -1.00000000
vn 0.00000000 0.00000000 -1.00000000
vn 0.00009400 -0.00001000 -1.00000000
vn 0.00009400 -0.00001000 -1.00000000
vn -0.00000400 0.00000000 -1.00000000
vn -0.00014200 0.00001400 -1.00000000
vn 0.00000000 0.00000000 -1.00000000
vn 0.00013200 -0.00001300 -1.00000000
vn -0.00010800 0.00001100 -1.00000000
vn 0.00002100 -0.00000200 -1.00000000
vn -0.00000600 0.00000100 -1.00000000
vn 0.00005500 -0.00000600 -1.00000000
vn -0.00011600 0.00001200 -1.00000000
vn -0.00001700 0.00000200 -1.00000000
vn 0.00012200 -0.00001200 -1.00000000
vn 0.00007400 -0.00000800 -1.00000000
vn 0.00000800 -0.00000100 -1.00000000
vn 0.00013200 -0.00001300 -1.00000000
vn 0.00009400 -0.00001000 -1.00000000
vn -0.00014200 0.00001400 -1.00000000
vn 0.00013200 -0.00001300 -1.00000000
vn -0.00003500 0.00000400 -1.00000000
vn 0.00006800 -0.00000700 -1.00000000
vn -0.00003500 0.00000400 -1.00000000
vn 0.00003600 -0.00000400 -1.00000000
vn 0.00002000 -0.00000200 -1.00000000
vn 0.00000000 0.00000000 -1.00000000
vn 0.00000000 0.00000000 -1.00000000
vn 0.00000000 0.00000000 -1.00000000
vn -0.00003000 0.00000300 -1.00000000
vn -0.00003000 0.00000300 -1.00000000
vn 0.00000000 0.00000000 -1.00000000
vn -0.00000400 0.00000000 -1.00000000
vn -0.00003000 0.00000300 -1.00000000
vn 0.00005500 -0.00000600 -1.00000000
vn -0.00000400 0.00000000 -1.00000000
vn -0.00000600 0.00000100 -1.00000000
vn 0.00005500 -0.00000600 -1.00000000
vn -0.00010800 0.00001100 -1.00000000
vn -0.00000600 0.00000100 -1.00000000
vn 0.00002100 -0.00000200 -1.00000000
vn -0.00010800 0.00001100 -1.00000000
vn 0.00000000 0.00000000 -1.00000000
vn 0.00012200 -0.00001200 -1.00000000
vn 0.00000000 0.00000000 -1.00000000
vn 0.00000000 0.00000000 -1.00000000
vn -0.00011600 0.00001200 -1.00000000
vn 0.00002100 -0.00000200 -1.00000000
vn 0.00007400 -0.00000800 -1.00000000
vn 0.00007400 -0.00000800 -1.00000000
vn 0.00012200 -0.00001200 -1.00000000
vn 0.00000000 0.00000000 -1.00000000
vn 0.00009300 -0.00000900 -1.00000000
vn -0.00002800 0.00000300 -1.00000000
vn 0.00009300 -0.00000900 -1.00000000
vn -0.00002800 0.00000300 -1.00000000
vn 0.00000000 0.00000000 -1.00000000
vn 0.00000000 0.00000000 -1.00000000
vn -0.00001700 0.00000200 -1.00000000
vn -0.00014200 0.00001400 -1.00000000
vn 0.00000800 -0.00000100 -1.00000000
vn -0.00001700 0.00000200 -1.00000000
vn 0.00000000 0.00000000 -1.00000000
vn 0.00000800 -0.00000100 -1.00000000
vn -0.00001600 0.00000200 -1.00000000
vn 0.00000000 0.00000000 -1.00000000
vn 0.00007400 -0.00000800 -1.00000000
vn -0.00001600 0.00000200 -1.00000000
vn 0.00000000 0.00000000 -1.00000000
vn 0.00006500 -0.00000700 -1.00000000
vn 0.00006500 -0.00000700 -1.00000000
vn 0.00000000 0.00000000 -1.00000000
vn 0.00000000 0.00000000 -1.00000000
vn -0.00004200 0.00000400 -1.00000000
vn -0.00003600 0.00000400 -1.00000000
vn -0.00003900 0.00000400 -1.00000000
vn 0.00000000 0.00000000 1.00000000
vn 0.00005000 -0.00000500 1.00000000
vn 0.00002200 -0.00000200 1.00000000
vn 0.00000000 0.00000000 1.00000000
vn -0.00012000 0.00001200 1.00000000
vn 0.00002800 -0.00000300 1.00000000
vn -0.00008300 0.00000800 1.00000000
vn 0.00002200 -0.00000200 1.00000000
vn 0.00005000 -0.00000500 1.00000000
vn -0.00005600 0.00000600 1.00000000
vn 0.00004900 -0.00000500 1.00000000
vn 0.00002500 -0.00000300 1.00000000
vn -0.00001800 0.00000200 1.00000000
vn -0.00002000 0.00000200 1.00000000
vn 0.00005300 -0.00000500 1.00000000
vn -0.00001700 0.00000200 1.00000000
vn 0.00000000 0.00000000 1.00000000
vn 0.00000000 0.00000000 1.00000000
vn 0.00002200 -0.00000200 1.00000000
vn -0.00019600 0.00002000 1.00000000
vn -0.00012000 0.00001200 1.00000000
vn 0.00010000 -0.00001000 1.00000000
vn -0.00011600 0.00001200 1.00000000
vn 0.00006200 -0.00000600 1.00000000
vn 0.00004500 -0.00000500 1.00000000
vn 0.00017900 -0.00001800 1.00000000
vn -0.00005800 0.00000600 1.00000000
vn -0.00010400 0.00001100 1.00000000
vn 0.00012600 -0.00001300 1.00000000
vn 0.00000000 0.00000000 1.00000000
vn -0.00007100 0.00000700 1.00000000
vn -0.00000600 0.00000100 1.00000000
vn -0.00008900 0.00000900 1.00000000
vn 0.00005400 -0.00000500 1.00000000
vn -0.00010400 0.00001100 1.00000000
vn -0.00012000 0.00001200 1.00000000
vn -0.00010400 0.00001100 1.00000000
vn 0.00012600 -0.00001300 1.00000000
vn 0.00000000 0.00000000 1.00000000
vn 0.00000000 0.00000000 1.00000000
vn 0.00017900 -0.00001800 1.00000000
vn 0.00000000 0.00000000 1.00000000
vn 0.00000000 0.00000000 1.00000000
vn 0.00010000 -0.00001000 1.00000000
vn -0.00000600 0.00000100 1.00000000
vn 0.00010000 -0.00001000 1.00000000
vn -0.00000600 0.00000100 1.00000000
vn 0.00000000 0.00000000 1.00000000
vn 0.00000000 0.00000000 1.00000000
vn -0.00008300 0.00000800 1.00000000
vn 0.00000000 0.00000000 1.00000000
vn 0.00000000 0.00000000 1.00000000
vn 0.00004900 -0.00000500 1.00000000
vn 0.00004900 -0.00000500 1.00000000
vn -0.00005600 0.00000600 1.00000000
vn 0.00002500 -0.00000300 1.00000000
vn -0.00005600 0.00000600 1.00000000
vn 0.00002500 -0.00000300 1.00000000
vn 0.00000000 0.00000000 1.00000000
vn 0.00000000 0.00000000 1.00000000
vn 0.00005300 -0.00000500 1.00000000
vn -0.00001800 0.00000200 1.00000000
vn -0.00001800 0.00000200 1.00000000
vn 0.00000000 0.00000000 1.00000000
vn 0.00000000 0.00000000 1.00000000
vn -0.00005800 0.00000600 1.00000000
vn 0.00000000 0.00000000 1.00000000
vn -0.00007100 0.00000700 1.00000000
vn 0.00017900 -0.00001800 1.00000000
vn -0.00007100 0.00000700 1.00000000
vn 0.00000000 0.00000000 1.00000000
vn 0.00004500 -0.00000500 1.00000000
vn 0.00006200 -0.00000600 1.00000000
vn 0.00004500 -0.00000500 1.00000000
vn 0.00006200 -0.00000600 1.00000000
vn 0.00000000 0.00000000 1.00000000
vn 0.00005400 -0.00000500 1.00000000
vn 0.00000000 0.00000000 1.00000000
vn 0.00000000 0.00000000 1.00000000
vn -0.00011600 0.00001200 1.00000000
vn 0.00000000 0.00000000 1.00000000
vn 0.00000000 0.00000000 1.00000000
vn -0.00011700 0.00001200 1.00000000
vn -0.00009200 0.00000900 1.00000000
vn -0.00019600 0.00002000 1.00000000
vn -0.00002000 0.00000200 1.00000000
vn 0.00000000 0.00000000 1.00000000
vn -0.00002000 0.00000200 1.00000000
vn 0.00005300 -0.00000500 1.00000000
vn 0.00000000 0.00000000 1.00000000
vn -0.00001700 0.00000200 1.00000000
vn 0.00005000 -0.00000500 1.00000000
vn -0.00001700 0.00000200 1.00000000
vn 0.00000000 0.00000000 1.00000000
vn -0.00008900 0.00000900 1.00000000
vn 0.00005400 -0.00000500 1.00000000
vn -0.00008900 0.00000900 1.00000000
vn 0.00000000 0.00000000 1.00000000
vn -0.00009200 0.00000900 1.00000000
vn 0.00000000 0.00000000 1.00000000
vn -0.00009200 0.00000900 1.00000000
vn -0.00019600 0.00002000 1.00000000
vn 0.00000000 0.00000000 1.00000000
vn 0.00002800 -0.00000300 1.00000000
vn 0.00000000 0.00000000 1.00000000
vn -0.00008300 0.00000800 1.00000000
vn 0.00002800 -0.00000300 1.00000000
vn 0.00012600 -0.00001300 1.00000000
vn 0.00000000 0.00000000 1.00000000
vn 0.00000000 0.00000000 1.00000000
vn -0.00005800 0.00000600 1.00000000
vn 0.00004300 -0.00000500 1.00000000
vn 0.00000000 0.00000000 1.00000000
vn 0.00004100 -0.00000400 1.00000000
vn 0.00000000 0.00000000 1.00000000
vn 0.00004200 -0.00000400 1.00000000
f 1//1 2//2 3//3
f 1//1 3//3 4//4
f 4//4 3//3 5//5
f 4//4 5//5 6//6
f 6//6 5//5 7//7
f 6//6 7//7 8//8
f 8//8 7//7 9//9
f 8//8 9//9 10//10
f 10//10 9//9 11//11
f 10//10 11//11 12//12
f 12//12 11//11 13//13
f 12//12 13//13 14//14
f 14//14 13//13 15//15
f 14//14 15//15 16//16
f 16//16 15//15 17//17
f 16//16 17//17 18//18
f 18//18 17//17 19//19
f 18//18 19//19 20//20
f 20//20 19//19 21//21
f 20//20 21//21 22//22
f 22//22 21//21 23//23
f 22//22 23//23 24//24
f 24//24 23//23 25//25
f 24//24 25//25 26//26
f 26//26 25//25 27//27
f 26//26 27//27 28//28
f 28//28 27//27 29//29
f 28//28 29//29 30//30
f 30//30 29//29 31//31
f 30//30 31//31 32//32
f 32//32 31//31 33//33
f 32//32 33//33 34//34
f 34//34 33//33 35//35
f 34//34 35//35 36//36
f 36//36 35//35 37//37
f 36//36 37//37 38//38
f 39//39 38//38 40//40
f 40//40 38//38 37//37
f 39//39 40//40 41//41
f 39//39 41//41 42//42
f 42//42 41//41 43//43
f 42//42 43//43 44//44
f 44//44 43//43 45//45
f 44//44 45//45 46//46
f 46//46 45//45 47//47
f 46//46 47//47 48//48
f 48//48 47//47 49//49
f 48//48 49//49 50//50
f 50//50 49//49 51//51
f 50//50 51//51 52//52
f 52//52 51//51 53//53
f 52//52 53//53 54//54
f 54//54 53//53 55//55
f 54//54 55//55 56//56
f 56//56 55//55 57//57
f 56//56 57//57 58//58
f 58//58 57//57 59//59
f 58//58 59//59 60//60
f 60//60 59//59 61//61
f 60//60 61//61 62//62
f 62//62 61//61 63//63
f 62//62 63//63 64//64
f 64//64 63//63 65//65
f 64//64 65//65 66//66
f 66//66 65//65 67//67
f 66//66 67//67 68//68
f 68//68 67//67 69//69
f 68//68 69//69 70//70
f 70//70 69//69 71//71
f 70//70 71//71 72//72
f 72//72 71//71 73//73
f 72//72 73//73 74//74
f 74//74 73//73 75//75
f 74//74 75//75 76//76
f 76//76 75//75 77//77
f 76//76 77//77 78//78
f 78//78 77//77 79//79
f 78//78 79//79 80//80
f 80//80 79//79 81//81
f 80//80 81//81 82//82
f 82//82 81//81 83//83
f 82//82 83//83 84//84
f 84//84 83//83 85//85
f 84//84 85//85 86//86
f 87//87 86//86 88//88
f 88//88 86//86 85//85
f 87//87 88//88 89//89
f 87//87 89//89 90//90
f 90//90 89//89 91//91
f 90//90 91//91 92//92
f 92//92 91//91 93//93
f 92//92 93//93 94//94
f 94//94 93//93 95//95
f 94//94 95//95 96//96
f 96//96 95//95 97//97
f 96//96 97//97 98//98
f 98//98 97//97 2//2
f 98//98 2//2 1//1
f 99//99 102//102 103//103
f 115//115 117//117 104//104
f 112//112 116//116 118//118
f 111//111 119//119 121//121
f 123//123 126//126 129//129
f 128//128 125//125 132//132
f 129//129 131//131 136//136
f 134//134 130//130 138//138
f 133//133 139//139 141//141
f 120//120 143//143 106//106
f 105//105 142//142 145//145
f 107//107 144//144 147//147
f 149//149 150//150 155//155
f 152//152 151//151 167//167
f 156//156 166//166 169//169
f 140//140 171//171 135//135
f 137//137 170//170 172//172
f 110//110 173//173 100//100
f 101//101 174//174 109//109
f 104//104 175//175 176//176
f 104//104 176//176 115//115
f 178//178 179//179 182//182
f 183//183 186//186 160//160
f 159//159 185//185 188//188
f 157//157 187//187 190//190
f 191//191 193//193 155//155
f 155//155 193//193 194//194
f 161//161 195//195 148//148
f 189//189 196//196 158//158
f 164//164 197//197 198//198
f 163//163 199//199 192//192
f 146//146 200//200 104//104
f 114//114 201//201 203//203
f 108//108 202//202 204//204
f 184//184 153//153 181//181
f 180//180 155//155 206//206
f 180//180 206//206 177//177
f 168//168 208//208 154//154
f 162//162 207//207 210//210
f 165//165 209//209 212//212
f 211//211 214//214 155//155
f 124//124 213//213 216//216
f 122//122 215//215 127//127
f 205//205 217//217 104//104
f 113//113 218//218 219//219
f 104//104 220//220 221//221
f 222//222 223//223 224//224
f 225//225 228//228 241//241
f 232//232 227//227 243//243
f 242//242 228//228 254//254
f 245//245 229//229 260//260
f 252//252 259//259 261//261
f 263//263 264//264 241//241
f 266//266 267//267 254//254
f 246//246 268//268 270//270
f 256//256 269//269 271//271
f 263//263 241//241 273//273
f 264//264 275//275 241//241
f 241//241 275//275 276//276
f 235//235 277//277 278//278
f 279//279 281//281 234//234
f 236//236 280//280 282//282
f 241//241 283//283 284//284
f 237//237 286//286 287//287
f 289//289 291//291 254//254
f 255//255 292//292 294//294
f 250//250 293//293 265//265
f 272//272 295//295 254//254
f 249//249 296//296 298//298
f 248//248 297//297 299//299
f 302//302 303//303 254//254
f 254//254 303//303 305//305
f 247//247 304//304 307//307
f 284//284 311//311 241//241
f 238//238 310//310 312//312
f 239//239 313//313 285//285
f 288//288 314//314 241//241
f 240//240 315//315 317//317
f 233//233 316//316 226//226
f 300//300 318//318 254//254
f 257//257 319//319 321//321
f 258//258 320//320 301//301
f 322//322 324//324 306//306
f 308//308 323//323 325//325
f 309//309 326//326 244//244
f 327//327 329//329 241//241
f 230//230 328//328 331//331
f 231//231 330//330 274//274
f 262//262 332//332 253//253
f 254//254 333//333 334//334
f 251//251 335//335 290//290
f 327//327 241//241 337//337
f 337//337 241//241 339//339
f 336//336 338//338 340//340

