# https://github.com/mikedh/trimesh
v -0.02304300 -0.10641100 0.01886300
v -0.02304300 -0.10641100 0.01886300
v -0.02304300 -0.10641100 0.01886300
v -0.02302300 -0.10791600 0.01874200
v -0.02302300 -0.10791600 0.01874200
v -0.02302300 -0.10791600 0.01874200
v -0.02302300 -0.10791600 0.01874200
v -0.02302300 -0.10791600 0.01874200
v -0.02302300 -0.10791600 0.01874200
v -0.02302300 -0.10791600 0.01874200
v -0.02273500 -0.10783000 0.01874900
v -0.02273500 -0.10783000 0.01874900
v -0.02273500 -0.10783000 0.01874900
v -0.02273500 -0.10783000 0.01874900
v -0.02183800 -0.10958500 0.01860900
v -0.02183800 -0.10958500 0.01860900
v -0.02183800 -0.10958500 0.01860900
v -0.02183800 -0.10958500 0.01860900
v -0.02184400 -0.10959200 0.01860800
v -0.02184400 -0.10959200 0.01860800
v -0.02202800 -0.11098800 0.01849700
v -0.02202800 -0.11098800 0.01849700
v -0.02202800 -0.11098800 0.01849700
v -0.02202800 -0.11098800 0.01849700
v -0.02202800 -0.11098800 0.01849700
v -0.02202800 -0.11098800 0.01849700
v -0.02202800 -0.11098800 0.01849700
v -0.02314100 -0.10642300 0.01886200
v -0.02314100 -0.10642300 0.01886200
v -0.02323900 -0.10643700 0.01886100
v -0.02323900 -0.10643700 0.01886100
v -0.02363100 -0.10654600 0.01885200
v -0.02363100 -0.10654600 0.01885200
v -0.02449200 -0.11068500 0.01852200
v -0.02449200 -0.11068500 0.01852200
v -0.02441900 -0.11071600 0.01851900
v -0.02441900 -0.11071600 0.01851900
v -0.02441900 -0.11071600 0.01851900
v -0.02329400 -0.10941200 0.01862300
v -0.02329400 -0.10941200 0.01862300
v -0.02329400 -0.10941200 0.01862300
v -0.02329400 -0.10941200 0.01862300
v -0.02398000 -0.10675600 0.01883500
v -0.02398000 -0.10675600 0.01883500
v -0.02432100 -0.10715200 0.01880400
v -0.02432100 -0.10715200 0.01880400
v -0.02432100 -0.10715200 0.01880400
v -0.02322500 -0.10813900 0.01872500
v -0.02322500 -0.10813900 0.01872500
v -0.02322500 -0.10813900 0.01872500
v -0.02322500 -0.10813900 0.01872500
v -0.01853400 -0.10997700 0.01857600
v -0.01853400 -0.10997700 0.01857600
v -0.01853400 -0.10997700 0.01857600
v -0.01853400 -0.10997700 0.01857600
v -0.01855600 -0.10997400 0.01857700
v -0.01855600 -0.10997400 0.01857700
v -0.01855600 -0.10997400 0.01857700
v -0.01852200 -0.11138800 0.01846400
v -0.01852200 -0.11138800 0.01846400
v -0.01852200 -0.11138800 0.01846400
v -0.02456200 -0.10804800 0.01873200
v -0.02456200 -0.10804800 0.01873200
v -0.02456200 -0.10804800 0.01873200
v -0.02456200 -0.10804800 0.01873200
v -0.02456200 -0.10804800 0.01873200
v -0.02456200 -0.10804800 0.01873200
v -0.02456200 -0.10804800 0.01873200
v -0.02329000 -0.10831800 0.01871000
v -0.02329000 -0.10831800 0.01871000
v -0.02329000 -0.10831800 0.01871000
v -0.02456200 -0.10799700 0.01873600
v -0.02456200 -0.10799700 0.01873600
v -0.02456200 -0.10799700 0.01873600
v -0.02450800 -0.10763900 0.01876500
v -0.02450800 -0.10763900 0.01876500
v -0.01912600 -0.11131900 0.01847000
v -0.01912600 -0.11131900 0.01847000
v -0.01912600 -0.11131900 0.01847000
v -0.01925100 -0.10989700 0.01858300
v -0.01925100 -0.10989700 0.01858300
v -0.01925100 -0.10989700 0.01858300
v -0.01973100 -0.11125000 0.01847500
v -0.01973100 -0.11125000 0.01847500
v -0.01973100 -0.11125000 0.01847500
v -0.01994500 -0.10981900 0.01858900
v -0.01994500 -0.10981900 0.01858900
v -0.01994500 -0.10981900 0.01858900
v -0.02081200 -0.11112700 0.01848500
v -0.02081200 -0.11112700 0.01848500
v -0.02081200 -0.11112700 0.01848500
v -0.02081200 -0.11112700 0.01848500
v -0.02277400 -0.10640800 0.01886300
v -0.02277400 -0.10640800 0.01886300
v -0.02279600 -0.10640800 0.01886300
v -0.02279600 -0.10640800 0.01886300
v -0.02281800 -0.10640900 0.01886300
v -0.02281800 -0.10640900 0.01886300
v -0.02184800 -0.10856100 0.01869000
v -0.02184800 -0.10856100 0.01869000
v -0.02068000 -0.10860100 0.01868700
v -0.02068000 -0.10860100 0.01868700
v -0.02068000 -0.10860100 0.01868700
v -0.02068000 -0.10860100 0.01868700
v -0.02068000 -0.10860100 0.01868700
v -0.02195200 -0.10823400 0.01871700
v -0.02195200 -0.10823400 0.01871700
v -0.02195200 -0.10823400 0.01871700
v -0.02079900 -0.10788000 0.01874400
v -0.02079900 -0.10788000 0.01874400
v -0.02079900 -0.10788000 0.01874400
v -0.02218200 -0.10797900 0.01873700
v -0.02218200 -0.10797900 0.01873700
v -0.02218200 -0.10797900 0.01873700
v -0.02114000 -0.10723400 0.01879600
v -0.02114000 -0.10723400 0.01879600
v -0.02114000 -0.10723400 0.01879600
v -0.02244500 -0.10785500 0.01874700
v -0.02244500 -0.10785500 0.01874700
v -0.02244500 -0.10785500 0.01874700
v -0.02244500 -0.10785500 0.01874700
v -0.02328200 -0.10942900 0.01862200
v -0.02328200 -0.10942900 0.01862200
v -0.02328200 -0.10942900 0.01862200
v -0.02439000 -0.11072100 0.01851900
v -0.02439000 -0.11072100 0.01851900
v -0.02439000 -0.11072100 0.01851900
v -0.02325200 -0.10944200 0.01862100
v -0.02325200 -0.10944200 0.01862100
v -0.02325200 -0.10944200 0.01862100
v -0.02381200 -0.11078500 0.01851300
v -0.02381200 -0.11078500 0.01851300
v -0.02381200 -0.11078500 0.01851300
v -0.02323100 -0.10944600 0.01862000
v -0.02323100 -0.10944600 0.01862000
v -0.02323100 -0.10944600 0.01862000
v -0.02323300 -0.11085100 0.01850800
v -0.02323300 -0.11085100 0.01850800
v -0.02323300 -0.11085100 0.01850800
v -0.02323300 -0.11085100 0.01850800
v -0.02323300 -0.11085100 0.01850800
v -0.02321500 -0.10944800 0.01862000
v -0.02321500 -0.10944800 0.01862000
v -0.02330300 -0.10912600 0.01864600
v -0.02330300 -0.10912600 0.01864600
v -0.02330500 -0.10881700 0.01867000
v -0.02330500 -0.10881700 0.01867000
v -0.02330800 -0.10850800 0.01869500
v -0.02330800 -0.10850800 0.01869500
v -0.01841000 -0.11135200 0.01846700
v -0.01841000 -0.11135200 0.01846700
v -0.01841000 -0.11135200 0.01846700
v -0.01841000 -0.11135200 0.01846700
v -0.01839700 -0.11133100 0.01846800
v -0.01840700 -0.11006100 0.01857000
v -0.01840700 -0.11006100 0.01857000
v -0.02057800 -0.10975000 0.01859500
v -0.02057800 -0.10975000 0.01859500
v -0.02063800 -0.10973700 0.01859600
v -0.02063800 -0.10973700 0.01859600
v -0.02063800 -0.10973700 0.01859600
v -0.02065600 -0.10972300 0.01859700
v -0.02065600 -0.10972300 0.01859700
v -0.02065600 -0.10972300 0.01859700
v -0.02066500 -0.10970000 0.01859900
v -0.02066500 -0.10970000 0.01859900
v -0.02066500 -0.10970000 0.01859900
v -0.02183300 -0.10956500 0.01861000
v -0.02183300 -0.10956500 0.01861000
v -0.02183300 -0.10956500 0.01861000
v -0.02066900 -0.10965000 0.01860300
v -0.02066900 -0.10965000 0.01860300
v -0.02066900 -0.10965000 0.01860300
v -0.02066900 -0.10965000 0.01860300
v -0.02454000 -0.11062800 0.01852600
v -0.02454000 -0.11062800 0.01852600
v -0.02454000 -0.11062800 0.01852600
v -0.02330000 -0.10936700 0.01862700
v -0.02330000 -0.10936700 0.01862700
v -0.02330000 -0.10936700 0.01862700
v -0.02330200 -0.10924700 0.01863600
v -0.02330200 -0.10924700 0.01863600
v -0.01844900 -0.11138100 0.01846400
v -0.01844900 -0.11138100 0.01846400
v -0.01845200 -0.11000900 0.01857400
v -0.01845200 -0.11000900 0.01857400
v -0.02175000 -0.10669500 0.01883900
v -0.02175000 -0.10669500 0.01883900
v -0.02251900 -0.10642900 0.01886100
v -0.02251900 -0.10642900 0.01886100
v -0.02251900 -0.10642900 0.01886100
v -0.02273500 -0.10783000 0.01874900
v -0.02273500 -0.10783000 0.01874900
v -0.02273500 -0.10783000 0.01874900
v -0.02264600 -0.10641400 0.01886200
v -0.02264600 -0.10641400 0.01886200
v -0.02185700 -0.10959600 0.01860800
v -0.02185700 -0.10959600 0.01860800
v -0.02189700 -0.10959500 0.01860800
v -0.02189700 -0.10959500 0.01860800
v -0.02189700 -0.10959500 0.01860800
v -0.02263100 -0.11092000 0.01850200
v -0.02263100 -0.11092000 0.01850200
v -0.02263100 -0.11092000 0.01850200
v -0.02254800 -0.10952300 0.01861400
v -0.02254800 -0.10952300 0.01861400
v -0.02254800 -0.10952300 0.01861400
v -0.02319900 -0.10945000 0.01862000
v -0.02319900 -0.10945000 0.01862000
v -0.02183700 -0.10882100 0.01867000
v -0.02183700 -0.10882100 0.01867000
v -0.02183600 -0.10905400 0.01865100
v -0.02183600 -0.10905400 0.01865100
v -0.02183600 -0.10905400 0.01865100
v -0.02067200 -0.10912500 0.01864500
v -0.02067200 -0.10912500 0.01864500
v -0.02067200 -0.10912500 0.01864500
v -0.02183400 -0.10930900 0.01863100
v -0.02183400 -0.10930900 0.01863100
v -0.02183400 -0.10930900 0.01863100
v -0.02183200 -0.10953700 0.01861300
v -0.02183200 -0.10953700 0.01861300
vn 0.00026400 -0.07959000 0.99682800
vn 0.00029000 -0.07958600 0.99682800
vn 0.00015700 -0.07961300 0.99682600
vn 0.00029000 -0.07958600 0.99682800
vn 0.00027600 -0.07961100 0.99682600
vn 0.00028500 -0.07958800 0.99682800
vn 0.00031200 -0.07958600 0.99682800
vn 0.00026400 -0.07959000 0.99682800
vn 0.00032600 -0.07958500 0.99682800
vn 0.00029000 -0.07960600 0.99682600
vn 0.00020100 -0.07959400 0.99682700
vn 0.00026400 -0.07959000 0.99682800
vn 0.00038700 -0.07960300 0.99682700
vn 0.00015700 -0.07961300 0.99682600
vn 0.00029700 -0.07957900 0.99682800
vn 0.00031600 -0.07965100 0.99682300
vn 0.00031500 -0.07940100 0.99684300
vn 0.00028900 -0.07954500 0.99683100
vn 0.00045500 -0.07970200 0.99681900
vn 0.00001100 -0.07954000 0.99683200
vn 0.00045700 -0.07969100 0.99681900
vn 0.00029700 -0.07957900 0.99682800
vn 0.00050700 -0.07974700 0.99681500
vn 0.00032200 -0.07960000 0.99682700
vn 0.00029000 -0.07958000 0.99682800
vn 0.00005900 -0.07954500 0.99683100
vn 0.00001100 -0.07954000 0.99683200
vn 0.00029000 -0.07958600 0.99682800
vn 0.00028500 -0.07958800 0.99682800
vn 0.00027600 -0.07961100 0.99682600
vn 0.00028500 -0.07958800 0.99682800
vn 0.00029000 -0.07960600 0.99682600
vn 0.00027600 -0.07961100 0.99682600
vn 0.00022800 -0.07952200 0.99683300
vn 0.00022800 -0.07951600 0.99683400
vn 0.00030900 -0.07965200 0.99682300
vn 0.00022800 -0.07951600 0.99683400
vn 0.00034200 -0.07959800 0.99682700
vn 0.00030900 -0.07965200 0.99682300
vn 0.00034500 -0.07965300 0.99682300
vn 0.00022800 -0.07952200 0.99683300
vn 0.00022800 -0.07951600 0.99683400
vn 0.00029000 -0.07960600 0.99682600
vn 0.00031200 -0.07958600 0.99682800
vn 0.00030700 -0.07959000 0.99682800
vn 0.00032600 -0.07958500 0.99682800
vn 0.00031200 -0.07958600 0.99682800
vn 0.00032600 -0.07958500 0.99682800
vn 0.00030700 -0.07959000 0.99682800
vn 0.00031100 -0.07953400 0.99683200
vn 0.00030000 -0.07959400 0.99682700
vn -0.00031200 -0.07955300 0.99683100
vn 0.00001400 -0.07964300 0.99682300
vn 0.00016400 -0.07960000 0.99682700
vn 0.00042000 -0.07958800 0.99682800
vn -0.00031200 -0.07955300 0.99683100
vn 0.00033700 -0.07958900 0.99682800
vn 0.00030000 -0.07957300 0.99682900
vn -0.00031200 -0.07955300 0.99683100
vn 0.00042000 -0.07958800 0.99682800
vn 0.00030000 -0.07957300 0.99682900
vn 0.00029400 -0.07971700 0.99681700
vn 0.00027800 -0.07959900 0.99682700
vn 0.00037000 -0.07948500 0.99683600
vn 0.00027400 -0.07959700 0.99682700
vn 0.00037600 -0.07954100 0.99683200
vn 0.00034500 -0.07949700 0.99683500
vn 0.00022700 -0.07971500 0.99681800
vn 0.00027800 -0.07959900 0.99682700
vn 0.00029400 -0.07971700 0.99681700
vn 0.00031100 -0.07953400 0.99683200
vn 0.00029400 -0.07971700 0.99681700
vn 0.00031100 -0.07953400 0.99683200
vn 0.00030000 -0.07959400 0.99682700
vn 0.00030700 -0.07959000 0.99682800
vn 0.00030000 -0.07959400 0.99682700
vn 0.00030000 -0.07957300 0.99682900
vn 0.00033700 -0.07958900 0.99682800
vn 0.00026800 -0.07959600 0.99682700
vn 0.00033700 -0.07958900 0.99682800
vn 0.00026800 -0.07959600 0.99682700
vn 0.00026500 -0.07959700 0.99682700
vn 0.00026800 -0.07959600 0.99682700
vn 0.00026500 -0.07959700 0.99682700
vn 0.00029700 -0.07959100 0.99682800
vn 0.00030400 -0.07959500 0.99682700
vn 0.00026500 -0.07959700 0.99682700
vn 0.00029700 -0.07959100 0.99682800
vn 0.00029700 -0.07959100 0.99682800
vn 0.00040200 -0.07959000 0.99682800
vn 0.00032200 -0.07960000 0.99682700
vn 0.00030400 -0.07959500 0.99682700
vn 0.00020100 -0.07959400 0.99682700
vn 0.00051800 -0.07958500 0.99682800
vn 0.00038700 -0.07960300 0.99682700
vn 0.00020100 -0.07959400 0.99682700
vn 0.00015700 -0.07961300 0.99682600
vn 0.00038700 -0.07960300 0.99682700
vn 0.00032300 -0.07979900 0.99681100
vn 0.00027000 -0.07977500 0.99681300
vn 0.00032200 -0.07979900 0.99681100
vn 0.00032000 -0.07968900 0.99682000
vn 0.00032700 -0.07957100 0.99682900
vn 0.00027000 -0.07977500 0.99681300
vn 0.00027800 -0.07957100 0.99682900
vn 0.00032700 -0.07957100 0.99682900
vn 0.00028500 -0.07943300 0.99684000
vn 0.00027000 -0.07977500 0.99681300
vn 0.00029300 -0.07957700 0.99682900
vn 0.00028500 -0.07943300 0.99684000
vn 0.00032700 -0.07957100 0.99682900
vn 0.00029300 -0.07957700 0.99682900
vn 0.00033800 -0.07964300 0.99682300
vn 0.00028500 -0.07943300 0.99684000
vn 0.00033800 -0.07963400 0.99682400
vn 0.00029300 -0.07957700 0.99682900
vn 0.00033800 -0.07964300 0.99682300
vn 0.00033800 -0.07963400 0.99682400
vn 0.00033900 -0.07960300 0.99682700
vn 0.00029300 -0.07961300 0.99682600
vn 0.00033800 -0.07964300 0.99682300
vn 0.00034200 -0.07959800 0.99682700
vn 0.00030900 -0.07965200 0.99682300
vn 0.00055200 -0.07989700 0.99680300
vn 0.00023100 -0.07956900 0.99682900
vn 0.00055200 -0.07989700 0.99680300
vn 0.00034200 -0.07959800 0.99682700
vn 0.00023100 -0.07956900 0.99682900
vn 0.00055200 -0.07989700 0.99680300
vn 0.00049400 -0.07966700 0.99682100
vn 0.00031400 -0.07960100 0.99682700
vn 0.00023100 -0.07956900 0.99682900
vn 0.00049400 -0.07966700 0.99682100
vn 0.00031400 -0.07960100 0.99682700
vn 0.00036700 -0.07956400 0.99683000
vn 0.00049400 -0.07966700 0.99682100
vn 0.00031400 -0.07960100 0.99682700
vn 0.00025000 -0.07960500 0.99682600
vn 0.00028700 -0.07958100 0.99682800
vn 0.00028600 -0.07957700 0.99682900
vn 0.00036700 -0.07956400 0.99683000
vn 0.00025000 -0.07960500 0.99682600
vn 0.00036700 -0.07956400 0.99683000
vn 0.00037000 -0.07948500 0.99683600
vn 0.00034500 -0.07949700 0.99683500
vn 0.00037000 -0.07948500 0.99683600
vn 0.00022700 -0.07971500 0.99681800
vn 0.00022700 -0.07971500 0.99681800
vn 0.00027800 -0.07959900 0.99682700
vn 0.00001400 -0.07964300 0.99682300
vn 0.00016400 -0.07960000 0.99682700
vn 0.00031300 -0.07960900 0.99682600
vn 0.00030600 -0.07963500 0.99682400
vn 0.00030600 -0.07963500 0.99682400
vn 0.00030600 -0.07963500 0.99682400
vn 0.00031300 -0.07960900 0.99682600
vn 0.00040200 -0.07959000 0.99682800
vn 0.00030400 -0.07959500 0.99682700
vn 0.00032200 -0.07960000 0.99682700
vn 0.00040200 -0.07959000 0.99682800
vn 0.00050700 -0.07974700 0.99681500
vn 0.00050700 -0.07974700 0.99681500
vn 0.00029700 -0.07957900 0.99682800
vn 0.00028900 -0.07954500 0.99683100
vn 0.00028900 -0.07954500 0.99683100
vn 0.00031500 -0.07940100 0.99684300
vn 0.00029200 -0.07976100 0.99681400
vn 0.00034500 -0.07948800 0.99683600
vn 0.00031500 -0.07940100 0.99684300
vn 0.00029200 -0.07976100 0.99681400
vn 0.00034500 -0.07948800 0.99683600
vn 0.00029200 -0.07976100 0.99681400
vn 0.00031700 -0.07960200 0.99682700
vn 0.00029500 -0.07966500 0.99682200
vn 0.00034500 -0.07965300 0.99682300
vn 0.00022800 -0.07952200 0.99683300
vn 0.00027400 -0.07959700 0.99682700
vn 0.00027400 -0.07959700 0.99682700
vn 0.00034500 -0.07965300 0.99682300
vn 0.00037600 -0.07954100 0.99683200
vn 0.00037600 -0.07954000 0.99683200
vn 0.00034500 -0.07949700 0.99683500
vn 0.00001400 -0.07964300 0.99682300
vn 0.00042000 -0.07958800 0.99682800
vn 0.00031300 -0.07960900 0.99682600
vn 0.00016400 -0.07960000 0.99682700
vn 0.00029300 -0.07961300 0.99682600
vn 0.00033800 -0.07963400 0.99682400
vn 0.00029300 -0.07961300 0.99682600
vn 0.00033900 -0.07960300 0.99682700
vn -0.00002600 -0.07955000 0.99683100
vn 0.00033900 -0.07960300 0.99682700
vn 0.00051800 -0.07958500 0.99682800
vn -0.00002600 -0.07955000 0.99683100
vn -0.00002600 -0.07955000 0.99683100
vn 0.00051800 -0.07958500 0.99682800
vn 0.00005900 -0.07954500 0.99683100
vn 0.00001100 -0.07954000 0.99683200
vn 0.00029000 -0.07958000 0.99682800
vn 0.00005900 -0.07954500 0.99683100
vn 0.00029300 -0.07957900 0.99682900
vn 0.00028600 -0.07957700 0.99682900
vn 0.00029000 -0.07958000 0.99682800
vn 0.00029300 -0.07957900 0.99682900
vn 0.00029300 -0.07957900 0.99682900
vn 0.00028600 -0.07957700 0.99682900
vn 0.00028700 -0.07958100 0.99682800
vn 0.00028700 -0.07958100 0.99682800
vn 0.00025000 -0.07960500 0.99682600
vn 0.00032300 -0.07979900 0.99681100
vn 0.00032000 -0.07968900 0.99682000
vn 0.00032000 -0.07968900 0.99682000
vn 0.00027700 -0.07955600 0.99683000
vn 0.00027800 -0.07957100 0.99682900
vn 0.00027700 -0.07955600 0.99683000
vn 0.00027800 -0.07957100 0.99682900
vn 0.00029500 -0.07966500 0.99682200
vn 0.00027700 -0.07955600 0.99683000
vn 0.00029500 -0.07966500 0.99682200
vn 0.00031700 -0.07960200 0.99682700
vn 0.00031700 -0.07960200 0.99682700
vn 0.00034500 -0.07948800 0.99683600
f 1//1 8//8 12//12
f 16//16 19//19 21//21
f 2//2 28//28 4//4
f 6//6 29//29 31//31
f 5//5 30//30 33//33
f 35//35 37//37 42//42
f 32//32 43//43 10//10
f 7//7 44//44 47//47
f 9//9 46//46 48//48
f 52//52 56//56 59//59
f 62//62 70//70 72//72
f 73//73 71//71 50//50
f 74//74 51//51 76//76
f 75//75 49//49 45//45
f 61//61 58//58 77//77
f 78//78 57//57 80//80
f 79//79 81//81 83//83
f 84//84 82//82 87//87
f 85//85 88//88 89//89
f 93//93 96//96 11//11
f 13//13 95//95 98//98
f 14//14 97//97 3//3
f 100//100 104//104 108//108
f 106//106 103//103 111//111
f 107//107 110//110 114//114
f 112//112 109//109 116//116
f 113//113 117//117 121//121
f 39//39 36//36 123//123
f 122//122 38//38 127//127
f 124//124 126//126 129//129
f 128//128 125//125 132//132
f 130//130 133//133 136//136
f 134//134 131//131 137//137
f 135//135 141//141 143//143
f 144//144 146//146 64//64
f 68//68 147//147 148//148
f 63//63 149//149 69//69
f 153//153 154//154 155//155
f 86//86 158//158 92//92
f 90//90 157//157 160//160
f 91//91 159//159 24//24
f 23//23 161//161 162//162
f 22//22 163//163 15//15
f 18//18 164//164 165//165
f 17//17 166//166 169//169
f 170//170 167//167 172//172
f 34//34 41//41 176//176
f 175//175 40//40 179//179
f 177//177 178//178 65//65
f 66//66 180//180 181//181
f 67//67 182//182 145//145
f 60//60 184//184 55//55
f 53//53 183//183 150//150
f 54//54 151//151 186//186
f 185//185 152//152 156//156
f 115//115 188//188 118//118
f 120//120 187//187 189//189
f 119//119 190//190 192//192
f 194//194 191//191 195//195
f 193//193 196//196 94//94
f 20//20 198//198 27//27
f 26//26 197//197 200//200
f 25//25 199//199 203//203
f 204//204 201//201 205//205
f 202//202 206//206 140//140
f 139//139 207//207 208//208
f 138//138 209//209 142//142
f 99//99 210//210 101//101
f 102//102 211//211 212//212
f 105//105 214//214 216//216
f 215//215 213//213 218//218
f 217//217 219//219 174//174
f 173//173 220//220 221//221
f 171//171 222//222 168//168

