# https://github.com/mikedh/trimesh
v 0.01114100 0.00044700 0.02525000
v 0.01122600 -0.00010700 0.01475000
v 0.01122600 -0.00010700 0.02525000
v 0.01143200 -0.00062700 0.01475000
v 0.01143200 -0.00062700 0.02525000
v 0.01174800 -0.00108900 0.01475000
v 0.01174800 -0.00108900 0.02525000
v 0.01216000 -0.00146900 0.01475000
v 0.01216000 -0.00146900 0.02525000
v 0.01264500 -0.00174700 0.01475000
v 0.01264500 -0.00174700 0.02525000
v 0.01318100 -0.00191100 0.01475000
v 0.01318100 -0.00191100 0.02525000
v 0.01373900 -0.00195100 0.01475000
v 0.01373900 -0.00195100 0.02525000
v 0.01429300 -0.00186600 0.01475000
v 0.01429300 -0.00186600 0.02525000
v 0.01481300 -0.00166100 0.01475000
v 0.01481300 -0.00166100 0.02525000
v 0.01527500 -0.00134400 0.01475000
v 0.01527500 -0.00134400 0.02525000
v 0.01565400 -0.00093300 0.01475000
v 0.01565400 -0.00093300 0.02525000
v 0.01593300 -0.00044700 0.01475000
v 0.01593300 -0.00044700 0.02525000
v 0.01609700 0.00008800 0.01475000
v 0.01609700 0.00008800 0.02525000
v 0.01613700 0.00064700 0.01475000
v 0.01613700 0.00064700 0.02525000
v 0.01605200 0.00120000 0.01475000
v 0.01605200 0.00120000 0.02525000
v 0.01584600 0.00172100 0.01475000
v 0.01584600 0.00172100 0.02525000
v 0.01553000 0.00218200 0.01475000
v 0.01553000 0.00218200 0.02525000
v 0.01511800 0.00256200 0.01475000
v 0.01511800 0.00256200 0.02525000
v 0.01463300 0.00284100 0.01475000
v 0.01463300 0.00284100 0.02525000
v 0.01409700 0.00300400 0.01475000
v 0.01409700 0.00300400 0.02525000
v 0.01353900 0.00304500 0.01475000
v 0.01353900 0.00304500 0.02525000
v 0.01298600 0.00296000 0.01475000
v 0.01298600 0.00296000 0.02525000
v 0.01246500 0.00275400 0.01475000
v 0.01246500 0.00275400 0.02525000
v 0.01200300 0.00243700 0.01475000
v 0.01200300 0.00243700 0.02525000
v 0.01162400 0.00202600 0.01475000
v 0.01162400 0.00202600 0.02525000
v 0.01134500 0.00154000 0.01475000
v 0.01134500 0.00154000 0.02525000
v 0.01118100 0.00100500 0.01475000
v 0.01118100 0.00100500 0.02525000
v 0.01114100 0.00044700 0.01475000
v 0.01563700 0.00062700 0.01425000
v 0.01563700 0.00062700 0.01425000
v 0.01560500 0.00018000 0.01425000
v 0.01560500 0.00018000 0.01425000
v 0.01363900 0.00054700 0.01425000
v 0.01363900 0.00054700 0.01425000
v 0.01363900 0.00054700 0.01425000
v 0.01363900 0.00054700 0.01425000
v 0.01363900 0.00054700 0.01425000
v 0.01363900 0.00054700 0.01425000
v 0.01363900 0.00054700 0.01425000
v 0.01363900 0.00054700 0.01425000
v 0.01363900 0.00054700 0.01425000
v 0.01363900 0.00054700 0.01425000
v 0.01363900 0.00054700 0.01425000
v 0.01363900 0.00054700 0.01425000
v 0.01363900 0.00054700 0.01425000
v 0.01363900 0.00054700 0.01425000
v 0.01363900 0.00054700 0.01425000
v 0.01515100 0.00185500 0.01425000
v 0.01515100 0.00185500 0.01425000
v 0.01540500 0.00148600 0.01425000
v 0.01540500 0.00148600 0.01425000
v 0.01556900 0.00106900 0.01425000
v 0.01556900 0.00106900 0.01425000
v 0.01400600 0.00251300 0.01425000
v 0.01400600 0.00251300 0.01425000
v 0.01443400 0.00238200 0.01425000
v 0.01482200 0.00215900 0.01425000
v 0.01482200 0.00215900 0.01425000
v 0.01270000 0.00231200 0.01425000
v 0.01270000 0.00231200 0.01425000
v 0.01311600 0.00247700 0.01425000
v 0.01311600 0.00247700 0.01425000
v 0.01355900 0.00254500 0.01425000
v 0.01355900 0.00254500 0.01425000
v 0.01180400 0.00134200 0.01425000
v 0.01180400 0.00134200 0.01425000
v 0.01202700 0.00173000 0.01425000
v 0.01202700 0.00173000 0.01425000
v 0.01233000 0.00205900 0.01425000
v 0.01170900 0.00002400 0.01425000
v 0.01170900 0.00002400 0.01425000
v 0.01164100 0.00046700 0.01425000
v 0.01164100 0.00046700 0.01425000
v 0.01167300 0.00091300 0.01425000
v 0.01167300 0.00091300 0.01425000
v 0.01245600 -0.00106600 0.01425000
v 0.01245600 -0.00106600 0.01425000
v 0.01212700 -0.00076200 0.01425000
v 0.01212700 -0.00076200 0.01425000
v 0.01187300 -0.00039200 0.01425000
v 0.01187300 -0.00039200 0.01425000
v 0.01371900 -0.00145200 0.01425000
v 0.01327200 -0.00141900 0.01425000
v 0.01284400 -0.00128900 0.01425000
v 0.01284400 -0.00128900 0.01425000
v 0.01494800 -0.00096600 0.01425000
v 0.01494800 -0.00096600 0.01425000
v 0.01457800 -0.00121900 0.01425000
v 0.01416200 -0.00138400 0.01425000
v 0.01547400 -0.00024800 0.01425000
v 0.01547400 -0.00024800 0.01425000
v 0.01525100 -0.00063700 0.01425000
v 0.01525100 -0.00063700 0.01425000
v 0.01563700 0.00062700 0.02575000
v 0.01563700 0.00062700 0.02575000
v 0.01556900 0.00106900 0.02575000
v 0.01556900 0.00106900 0.02575000
v 0.01363900 0.00054700 0.02575000
v 0.01363900 0.00054700 0.02575000
v 0.01363900 0.00054700 0.02575000
v 0.01363900 0.00054700 0.02575000
v 0.01363900 0.00054700 0.02575000
v 0.01363900 0.00054700 0.02575000
v 0.01363900 0.00054700 0.02575000
v 0.01363900 0.00054700 0.02575000
v 0.01363900 0.00054700 0.02575000
v 0.01363900 0.00054700 0.02575000
v 0.01363900 0.00054700 0.02575000
v 0.01363900 0.00054700 0.02575000
v 0.01363900 0.00054700 0.02575000
v 0.01363900 0.00054700 0.02575000
v 0.01363900 0.00054700 0.02575000
v 0.01363900 0.00054700 0.02575000
v 0.01363900 0.00054700 0.02575000
v 0.01363900 0.00054700 0.02575000
v 0.01363900 0.00054700 0.02575000
v 0.01363900 0.00054700 0.02575000
v 0.01525100 -0.00063700 0.02575000
v 0.01525100 -0.00063700 0.02575000
v 0.01547400 -0.00024800 0.02575000
v 0.01547400 -0.00024800 0.02575000
v 0.01560500 0.00018000 0.02575000
v 0.01560500 0.00018000 0.02575000
v 0.01416200 -0.00138400 0.02575000
v 0.01457800 -0.00121900 0.02575000
v 0.01494800 -0.00096600 0.02575000
v 0.01494800 -0.00096600 0.02575000
v 0.01284400 -0.00128900 0.02575000
v 0.01284400 -0.00128900 0.02575000
v 0.01327200 -0.00141900 0.02575000
v 0.01327200 -0.00141900 0.02575000
v 0.01371900 -0.00145200 0.02575000
v 0.01371900 -0.00145200 0.02575000
v 0.01187300 -0.00039200 0.02575000
v 0.01187300 -0.00039200 0.02575000
v 0.01212700 -0.00076200 0.02575000
v 0.01212700 -0.00076200 0.02575000
v 0.01245600 -0.00106600 0.02575000
v 0.01245600 -0.00106600 0.02575000
v 0.01167300 0.00091300 0.02575000
v 0.01167300 0.00091300 0.02575000
v 0.01164100 0.00046700 0.02575000
v 0.01164100 0.00046700 0.02575000
v 0.01170900 0.00002400 0.02575000
v 0.01170900 0.00002400 0.02575000
v 0.01233000 0.00205900 0.02575000
v 0.01202700 0.00173000 0.02575000
v 0.01202700 0.00173000 0.02575000
v 0.01180400 0.00134200 0.02575000
v 0.01180400 0.00134200 0.02575000
v 0.01355900 0.00254500 0.02575000
v 0.01355900 0.00254500 0.02575000
v 0.01311600 0.00247700 0.02575000
v 0.01311600 0.00247700 0.02575000
v 0.01270000 0.00231200 0.02575000
v 0.01270000 0.00231200 0.02575000
v 0.01482200 0.00215900 0.02575000
v 0.01482200 0.00215900 0.02575000
v 0.01443400 0.00238200 0.02575000
v 0.01443400 0.00238200 0.02575000
v 0.01400600 0.00251300 0.02575000
v 0.01400600 0.00251300 0.02575000
v 0.01540500 0.00148600 0.02575000
v 0.01540500 0.00148600 0.02575000
v 0.01515100 0.00185500 0.02575000
v 0.01515100 0.00185500 0.02575000
v 0.01114100 0.00044700 0.01475000
v 0.01170900 0.00002400 0.01425000
v 0.01122600 -0.00010700 0.01475000
v 0.01187300 -0.00039200 0.01425000
v 0.01143200 -0.00062700 0.01475000
v 0.01212700 -0.00076200 0.01425000
v 0.01174800 -0.00108900 0.01475000
v 0.01245600 -0.00106600 0.01425000
v 0.01216000 -0.00146900 0.01475000
v 0.01284400 -0.00128900 0.01425000
v 0.01264500 -0.00174700 0.01475000
v 0.01327200 -0.00141900 0.01425000
v 0.01318100 -0.00191100 0.01475000
v 0.01371900 -0.00145200 0.01425000
v 0.01373900 -0.00195100 0.01475000
v 0.01416200 -0.00138400 0.01425000
v 0.01429300 -0.00186600 0.01475000
v 0.01457800 -0.00121900 0.01425000
v 0.01481300 -0.00166100 0.01475000
v 0.01494800 -0.00096600 0.01425000
v 0.01527500 -0.00134400 0.01475000
v 0.01525100 -0.00063700 0.01425000
v 0.01565400 -0.00093300 0.01475000
v 0.01547400 -0.00024800 0.01425000
v 0.01593300 -0.00044700 0.01475000
v 0.01560500 0.00018000 0.01425000
v 0.01609700 0.00008800 0.01475000
v 0.01563700 0.00062700 0.01425000
v 0.01613700 0.00064700 0.01475000
v 0.01556900 0.00106900 0.01425000
v 0.01605200 0.00120000 0.01475000
v 0.01540500 0.00148600 0.01425000
v 0.01584600 0.00172100 0.01475000
v 0.01515100 0.00185500 0.01425000
v 0.01553000 0.00218200 0.01475000
v 0.01482200 0.00215900 0.01425000
v 0.01511800 0.00256200 0.01475000
v 0.01443400 0.00238200 0.01425000
v 0.01463300 0.00284100 0.01475000
v 0.01400600 0.00251300 0.01425000
v 0.01409700 0.00300400 0.01475000
v 0.01355900 0.00254500 0.01425000
v 0.01353900 0.00304500 0.01475000
v 0.01311600 0.00247700 0.01425000
v 0.01298600 0.00296000 0.01475000
v 0.01270000 0.00231200 0.01425000
v 0.01246500 0.00275400 0.01475000
v 0.01233000 0.00205900 0.01425000
v 0.01200300 0.00243700 0.01475000
v 0.01202700 0.00173000 0.01425000
v 0.01162400 0.00202600 0.01475000
v 0.01180400 0.00134200 0.01425000
v 0.01134500 0.00154000 0.01475000
v 0.01167300 0.00091300 0.01425000
v 0.01118100 0.00100500 0.01475000
v 0.01164100 0.00046700 0.01425000
v 0.01613700 0.00064700 0.02525000
v 0.01560500 0.00018000 0.02575000
v 0.01609700 0.00008800 0.02525000
v 0.01547400 -0.00024800 0.02575000
v 0.01593300 -0.00044700 0.02525000
v 0.01525100 -0.00063700 0.02575000
v 0.01565400 -0.00093300 0.02525000
v 0.01494800 -0.00096600 0.02575000
v 0.01527500 -0.00134400 0.02525000
v 0.01457800 -0.00121900 0.02575000
v 0.01481300 -0.00166100 0.02525000
v 0.01416200 -0.00138400 0.02575000
v 0.01429300 -0.00186600 0.02525000
v 0.01371900 -0.00145200 0.02575000
v 0.01373900 -0.00195100 0.02525000
v 0.01327200 -0.00141900 0.02575000
v 0.01318100 -0.00191100 0.02525000
v 0.01284400 -0.00128900 0.02575000
v 0.01264500 -0.00174700 0.02525000
v 0.01245600 -0.00106600 0.02575000
v 0.01216000 -0.00146900 0.02525000
v 0.01212700 -0.00076200 0.02575000
v 0.01174800 -0.00108900 0.02525000
v 0.01187300 -0.00039200 0.02575000
v 0.01143200 -0.00062700 0.02525000
v 0.01170900 0.00002400 0.02575000
v 0.01122600 -0.00010700 0.02525000
v 0.01164100 0.00046700 0.02575000
v 0.01114100 0.00044700 0.02525000
v 0.01167300 0.00091300 0.02575000
v 0.01118100 0.00100500 0.02525000
v 0.01180400 0.00134200 0.02575000
v 0.01134500 0.00154000 0.02525000
v 0.01202700 0.00173000 0.02575000
v 0.01162400 0.00202600 0.02525000
v 0.01233000 0.00205900 0.02575000
v 0.01200300 0.00243700 0.02525000
v 0.01270000 0.00231200 0.02575000
v 0.01246500 0.00275400 0.02525000
v 0.01311600 0.00247700 0.02575000
v 0.01298600 0.00296000 0.02525000
v 0.01355900 0.00254500 0.02575000
v 0.01353900 0.00304500 0.02525000
v 0.01400600 0.00251300 0.02575000
v 0.01409700 0.00300400 0.02525000
v 0.01443400 0.00238200 0.02575000
v 0.01463300 0.00284100 0.02525000
v 0.01482200 0.00215900 0.02575000
v 0.01511800 0.00256200 0.02525000
v 0.01515100 0.00185500 0.02575000
v 0.01553000 0.00218200 0.02525000
v 0.01540500 0.00148600 0.02575000
v 0.01584600 0.00172100 0.02525000
v 0.01556900 0.00106900 0.02575000
v 0.01605200 0.00120000 0.02525000
v 0.01563700 0.00062700 0.02575000
vn -0.99699100 -0.07751300 0.00000000
vn -0.97435600 -0.22501200 0.00000000
vn -0.95475900 -0.29738000 -0.00001400
vn -0.89987600 -0.43614600 0.00000000
vn -0.86464400 -0.50238500 -0.00001800
vn -0.78023300 -0.62548900 -0.00000100
vn -0.73117800 -0.68218700 -0.00001800
vn -0.62149100 -0.78342200 0.00001800
vn -0.56100800 -0.82781100 0.00000000
vn -0.43160200 -0.90206400 0.00001800
vn -0.36275800 -0.93188300 -0.00001800
vn -0.22005200 -0.97548800 0.00001400
vn -0.14634700 -0.98923300 0.00000000
vn 0.00254900 -0.99999700 0.00001300
vn 0.07751100 -0.99699100 0.00000100
vn 0.22501700 -0.97435500 -0.00000100
vn 0.29738400 -0.95475800 0.00001400
vn 0.43615400 -0.89987200 0.00000000
vn 0.50239500 -0.86463800 0.00001800
vn 0.62549700 -0.78022700 0.00000000
vn 0.68223000 -0.73113700 -0.00001400
vn 0.78342700 -0.62148400 0.00000000
vn 0.82778800 -0.56104100 0.00000100
vn 0.90206400 -0.43160100 0.00000000
vn 0.93188300 -0.36275900 -0.00001800
vn 0.97548700 -0.22005500 0.00000000
vn 0.98924000 -0.14630200 0.00000000
vn 0.99999700 0.00254600 -0.00001200
vn 0.99699600 0.07745900 -0.00001300
vn 0.97435400 0.22501900 -0.00001400
vn 0.95475700 0.29738800 -0.00001400
vn 0.89985100 0.43619700 0.00000000
vn 0.86464200 0.50238900 0.00001200
vn 0.78023500 0.62548600 0.00001800
vn 0.73118000 0.68218500 -0.00001500
vn 0.62151900 0.78339900 0.00001400
vn 0.56103900 0.82779000 0.00000100
vn 0.43160800 0.90206100 0.00000000
vn 0.36276400 0.93188100 0.00000000
vn 0.22004500 0.97549000 0.00000000
vn 0.14629300 0.98924100 0.00000000
vn -0.00253300 0.99999700 0.00001400
vn -0.07749700 0.99699300 -0.00001400
vn -0.22498900 0.97436100 0.00000000
vn -0.29740500 0.95475200 0.00000000
vn -0.43616400 0.89986700 0.00001800
vn -0.50240200 0.86463400 0.00000100
vn -0.62549000 0.78023300 0.00001400
vn -0.68222400 0.73114300 0.00000000
vn -0.78341000 0.62150500 0.00000000
vn -0.82780100 0.56102200 0.00000000
vn -0.90207400 0.43158200 0.00000000
vn -0.93187300 0.36278500 0.00000000
vn -0.97549600 0.22001800 0.00000000
vn -0.98923800 0.14631400 0.00000000
vn -0.99999700 -0.00255000 0.00000000
vn 0.00000000 0.00000000 -1.00000000
vn -0.00000000 0.00000100 -1.00000000
vn -0.00000100 0.00000400 -1.00000000
vn 0.00000000 0.00000000 -1.00000000
vn -0.00000000 0.00000100 -1.00000000
vn -0.00000000 0.00000200 -1.00000000
vn 0.00000000 0.00000000 -1.00000000
vn 0.00000000 -0.00000200 -1.00000000
vn -0.00000000 0.00000100 -1.00000000
vn -0.00000100 0.00000400 -1.00000000
vn 0.00000000 -0.00000200 -1.00000000
vn -0.00000000 0.00000100 -1.00000000
vn 0.00000000 -0.00000200 -1.00000000
vn 0.00000000 -0.00000100 -1.00000000
vn -0.00000100 0.00000300 -1.00000000
vn 0.00000000 -0.00000100 -1.00000000
vn 0.00000100 -0.00000400 -1.00000000
vn -0.00000000 0.00000200 -1.00000000
vn 0.00000000 -0.00000100 -1.00000000
vn -0.00000000 0.00000200 -1.00000000
vn 0.00000000 0.00000000 -1.00000000
vn 0.00000000 0.00000000 -1.00000000
vn 0.00000000 -0.00000200 -1.00000000
vn 0.00000000 -0.00000200 -1.00000000
vn -0.00000000 0.00000100 -1.00000000
vn 0.00000000 0.00000000 -1.00000000
vn 0.00000000 -0.00000100 -1.00000000
vn 0.00000000 0.00000000 -1.00000000
vn -0.00000000 0.00000200 -1.00000000
vn 0.00000000 0.00000000 -1.00000000
vn 0.00000000 0.00000000 -1.00000000
vn -0.00000000 0.00000100 -1.00000000
vn -0.00000000 0.00000100 -1.00000000
vn 0.00000000 0.00000000 -1.00000000
vn 0.00000000 0.00000000 -1.00000000
vn 0.00000000 -0.00000100 -1.00000000
vn 0.00000100 -0.00000400 -1.00000000
vn -0.00000000 0.00000200 -1.00000000
vn 0.00000100 -0.00000400 -1.00000000
vn 0.00000000 0.00000000 -1.00000000
vn 0.00000000 0.00000000 -1.00000000
vn 0.00000000 0.00000000 -1.00000000
vn 0.00000000 -0.00000100 -1.00000000
vn 0.00000000 0.00000000 -1.00000000
vn 0.00000000 -0.00000200 -1.00000000
vn 0.00000000 -0.00000200 -1.00000000
vn -0.00000000 0.00000200 -1.00000000
vn 0.00000000 0.00000000 -1.00000000
vn 0.00000000 -0.00000100 -1.00000000
vn -0.00000100 0.00000300 -1.00000000
vn 0.00000000 0.00000000 -1.00000000
vn -0.00000100 0.00000300 -1.00000000
vn 0.00000000 -0.00000100 -1.00000000
vn 0.00000000 0.00000000 -1.00000000
vn 0.00000000 0.00000000 -1.00000000
vn 0.00000000 0.00000000 -1.00000000
vn 0.00000000 -0.00000100 -1.00000000
vn -0.00000000 0.00000100 -1.00000000
vn 0.00000000 0.00000000 -1.00000000
vn 0.00000000 0.00000000 -1.00000000
vn 0.00000000 0.00000000 -1.00000000
vn -0.00000100 0.00000400 -1.00000000
vn 0.00000000 -0.00000200 -1.00000000
vn 0.00000000 -0.00000200 -1.00000000
vn -0.00000000 0.00000100 -1.00000000
vn 0.00000000 0.00000000 1.00000000
vn -0.00000100 0.00000500 1.00000000
vn 0.00000000 0.00000000 1.00000000
vn 0.00000200 -0.00000800 1.00000000
vn -0.00000200 0.00000800 1.00000000
vn 0.00000000 0.00000000 1.00000000
vn 0.00000100 -0.00000600 1.00000000
vn 0.00000000 -0.00000100 1.00000000
vn 0.00000200 -0.00000800 1.00000000
vn -0.00000000 0.00000200 1.00000000
vn 0.00000000 -0.00000200 1.00000000
vn -0.00000000 0.00000200 1.00000000
vn 0.00000000 -0.00000200 1.00000000
vn -0.00000000 0.00000200 1.00000000
vn 0.00000200 -0.00000800 1.00000000
vn 0.00000000 -0.00000100 1.00000000
vn 0.00000000 -0.00000200 1.00000000
vn -0.00000000 0.00000200 1.00000000
vn -0.00000100 0.00000400 1.00000000
vn -0.00000100 0.00000400 1.00000000
vn 0.00000000 -0.00000200 1.00000000
vn 0.00000100 -0.00000400 1.00000000
vn -0.00000100 0.00000600 1.00000000
vn -0.00000100 0.00000500 1.00000000
vn -0.00000200 0.00000800 1.00000000
vn 0.00000000 -0.00000200 1.00000000
vn -0.00000200 0.00000800 1.00000000
vn 0.00000100 -0.00000600 1.00000000
vn 0.00000100 -0.00000600 1.00000000
vn -0.00000100 0.00000500 1.00000000
vn 0.00000000 0.00000000 1.00000000
vn 0.00000000 0.00000000 1.00000000
vn 0.00000000 -0.00000200 1.00000000
vn 0.00000000 0.00000000 1.00000000
vn 0.00000000 0.00000000 1.00000000
vn 0.00000000 -0.00000200 1.00000000
vn 0.00000000 0.00000000 1.00000000
vn -0.00000000 0.00000200 1.00000000
vn 0.00000000 0.00000000 1.00000000
vn -0.00000000 0.00000200 1.00000000
vn 0.00000200 -0.00000800 1.00000000
vn 0.00000000 0.00000000 1.00000000
vn 0.00000200 -0.00000800 1.00000000
vn -0.00000000 0.00000200 1.00000000
vn -0.00000000 0.00000200 1.00000000
vn 0.00000000 -0.00000200 1.00000000
vn 0.00000000 0.00000000 1.00000000
vn 0.00000000 -0.00000200 1.00000000
vn 0.00000000 0.00000000 1.00000000
vn -0.00000100 0.00000600 1.00000000
vn 0.00000000 0.00000000 1.00000000
vn -0.00000100 0.00000600 1.00000000
vn 0.00000000 0.00000000 1.00000000
vn -0.00000000 0.00000200 1.00000000
vn 0.00000000 0.00000000 1.00000000
vn 0.00000000 -0.00000200 1.00000000
vn -0.00000000 0.00000200 1.00000000
vn 0.00000000 -0.00000200 1.00000000
vn 0.00000000 -0.00000100 1.00000000
vn -0.00000000 0.00000200 1.00000000
vn 0.00000000 -0.00000100 1.00000000
vn 0.00000000 0.00000000 1.00000000
vn -0.00000000 0.00000200 1.00000000
vn 0.00000100 -0.00000400 1.00000000
vn 0.00000000 -0.00000100 1.00000000
vn -0.00000100 0.00000400 1.00000000
vn 0.00000100 -0.00000400 1.00000000
vn 0.00000000 -0.00000200 1.00000000
vn -0.00000100 0.00000400 1.00000000
vn -0.00000100 0.00000400 1.00000000
vn 0.00000200 -0.00000800 1.00000000
vn 0.00000000 -0.00000100 1.00000000
vn -0.00000100 0.00000400 1.00000000
vn -0.70522700 -0.05483900 -0.70685700
vn -0.68922700 -0.15912900 -0.70685500
vn -0.67534500 -0.21038800 -0.70685600
vn -0.63653000 -0.30851300 -0.70685900
vn -0.61159600 -0.35538700 -0.70686000
vn -0.55193300 -0.44239700 -0.70686200
vn -0.51716900 -0.48257800 -0.70686300
vn -0.43961900 -0.55414600 -0.70686500
vn -0.39681700 -0.58556600 -0.70685800
vn -0.30529700 -0.63808100 -0.70685600
vn -0.25657200 -0.65919000 -0.70685200
vn -0.15568300 -0.69001600 -0.70685300
vn -0.10347100 -0.69974800 -0.70685700
vn 0.00178800 -0.70734900 -0.70686200
vn 0.05484200 -0.70522300 -0.70686100
vn 0.15913200 -0.68922700 -0.70685400
vn 0.21034600 -0.67536500 -0.70685000
vn 0.30852500 -0.63653200 -0.70685200
vn 0.35536700 -0.61161000 -0.70685700
vn 0.44244700 -0.55190300 -0.70685500
vn 0.48256800 -0.51719000 -0.70685400
vn 0.55416400 -0.43961500 -0.70685200
vn 0.58555600 -0.39684900 -0.70684900
vn 0.63807800 -0.30531500 -0.70685100
vn 0.65918400 -0.25658100 -0.70685400
vn 0.69001400 -0.15568000 -0.70685500
vn 0.69975300 -0.10347100 -0.70685200
vn 0.70736000 0.00179400 -0.70685100
vn 0.70523500 0.05482900 -0.70685000
vn 0.68922300 0.15915600 -0.70685300
vn 0.67534600 0.21038200 -0.70685800
vn 0.63653600 0.30850500 -0.70685700
vn 0.61158800 0.35540800 -0.70685500
vn 0.55192600 0.44241400 -0.70685700
vn 0.51720000 0.48255600 -0.70685500
vn 0.43962600 0.55415100 -0.70685600
vn 0.39682600 0.58555900 -0.70685900
vn 0.30531500 0.63806400 -0.70686500
vn 0.25658600 0.65916900 -0.70686700
vn 0.15566000 0.69001200 -0.70686200
vn 0.10345500 0.69974900 -0.70685800
vn -0.00176200 0.70734800 -0.70686300
vn -0.05483000 0.70522200 -0.70686300
vn -0.15913300 0.68922800 -0.70685300
vn -0.21039600 0.67535000 -0.70684900
vn -0.30851000 0.63653500 -0.70685500
vn -0.35539300 0.61159200 -0.70686000
vn -0.44242900 0.55191200 -0.70685900
vn -0.48259000 0.51716600 -0.70685700
vn -0.55415000 0.43962900 -0.70685500
vn -0.58556500 0.39682200 -0.70685600
vn -0.63807700 0.30529800 -0.70685900
vn -0.65916900 0.25660200 -0.70686100
vn -0.69001400 0.15566700 -0.70685800
vn -0.69975000 0.10346600 -0.70685600
vn -0.70735500 -0.00177400 -0.70685600
vn 0.70736100 0.00178900 0.70685100
vn 0.69975300 -0.10346700 0.70685300
vn 0.69001400 -0.15568000 0.70685500
vn 0.65917800 -0.25659500 0.70685400
vn 0.63807300 -0.30532800 0.70685000
vn 0.58556800 -0.39682900 0.70685000
vn 0.55413700 -0.43965300 0.70685000
vn 0.48258200 -0.51717600 0.70685400
vn 0.44242300 -0.55191800 0.70685800
vn 0.35538800 -0.61159700 0.70685800
vn 0.30849700 -0.63654600 0.70685100
vn 0.21036200 -0.67536000 0.70685000
vn 0.15915500 -0.68922300 0.70685300
vn 0.05484900 -0.70522500 0.70685900
vn 0.00177400 -0.70734800 0.70686300
vn -0.10350500 -0.69974100 0.70685800
vn -0.15566600 -0.69001900 0.70685300
vn -0.25658900 -0.65918400 0.70685100
vn -0.30531800 -0.63807200 0.70685600
vn -0.39682000 -0.58556300 0.70685900
vn -0.43963200 -0.55413400 0.70686600
vn -0.51717600 -0.48256800 0.70686400
vn -0.55190900 -0.44242500 0.70686400
vn -0.61160800 -0.35536100 0.70686200
vn -0.63653400 -0.30850600 0.70685800
vn -0.67535400 -0.21035400 0.70685800
vn -0.68921900 -0.15915200 0.70685700
vn -0.70522700 -0.05481300 0.70686000
vn -0.70735300 -0.00178900 0.70685800
vn -0.69974500 0.10348200 0.70685800
vn -0.69001700 0.15564700 0.70685900
vn -0.65917000 0.25660200 0.70685900
vn -0.63806300 0.30532900 0.70685900
vn -0.58556300 0.39682100 0.70685800
vn -0.55413600 0.43964500 0.70685600
vn -0.48258600 0.51716600 0.70686000
vn -0.44242200 0.55191800 0.70685800
vn -0.35539900 0.61158900 0.70685900
vn -0.30850900 0.63653700 0.70685400
vn -0.21037500 0.67535700 0.70684900
vn -0.15911900 0.68923300 0.70685200
vn -0.05484100 0.70522400 0.70686100
vn -0.00177400 0.70734500 0.70686600
vn 0.10347500 0.69974200 0.70686200
vn 0.15567700 0.69000800 0.70686200
vn 0.25656900 0.65917800 0.70686400
vn 0.30530600 0.63806700 0.70686600
vn 0.39682400 0.58555800 0.70686200
vn 0.43964900 0.55413200 0.70685700
vn 0.51719300 0.48256200 0.70685600
vn 0.55192300 0.44241700 0.70685700
vn 0.61159000 0.35540600 0.70685500
vn 0.63650200 0.30857300 0.70685700
vn 0.67534600 0.21038100 0.70685800
vn 0.68922800 0.15912600 0.70685500
vn 0.70523400 0.05483100 0.70685100
f 1//1 2//2 3//3
f 3//3 2//2 4//4
f 3//3 4//4 5//5
f 5//5 4//4 6//6
f 5//5 6//6 7//7
f 7//7 6//6 8//8
f 7//7 8//8 9//9
f 9//9 8//8 10//10
f 9//9 10//10 11//11
f 11//11 10//10 12//12
f 11//11 12//12 13//13
f 13//13 12//12 14//14
f 13//13 14//14 15//15
f 15//15 14//14 16//16
f 15//15 16//16 17//17
f 17//17 16//16 18//18
f 17//17 18//18 19//19
f 19//19 18//18 20//20
f 19//19 20//20 21//21
f 21//21 20//20 22//22
f 21//21 22//22 23//23
f 23//23 22//22 24//24
f 23//23 24//24 25//25
f 25//25 24//24 26//26
f 25//25 26//26 27//27
f 27//27 26//26 28//28
f 27//27 28//28 29//29
f 29//29 28//28 30//30
f 29//29 30//30 31//31
f 31//31 30//30 32//32
f 31//31 32//32 33//33
f 33//33 32//32 34//34
f 33//33 34//34 35//35
f 35//35 34//34 36//36
f 35//35 36//36 37//37
f 37//37 36//36 38//38
f 37//37 38//38 39//39
f 39//39 38//38 40//40
f 39//39 40//40 41//41
f 41//41 40//40 42//42
f 41//41 42//42 43//43
f 43//43 42//42 44//44
f 43//43 44//44 45//45
f 45//45 44//44 46//46
f 45//45 46//46 47//47
f 47//47 46//46 48//48
f 47//47 48//48 49//49
f 49//49 48//48 50//50
f 49//49 50//50 51//51
f 51//51 50//50 52//52
f 51//51 52//52 53//53
f 53//53 52//52 54//54
f 53//53 54//54 55//55
f 55//55 54//54 56//56
f 55//55 56//56 1//1
f 1//1 56//56 2//2
f 57//57 60//60 63//63
f 77//77 78//78 63//63
f 64//64 79//79 80//80
f 61//61 81//81 58//58
f 82//82 84//84 63//63
f 63//63 84//84 86//86
f 62//62 85//85 76//76
f 88//88 89//89 65//65
f 63//63 90//90 91//91
f 75//75 92//92 83//83
f 93//93 95//95 73//73
f 63//63 96//96 97//97
f 63//63 97//97 87//87
f 98//98 100//100 63//63
f 69//69 101//101 102//102
f 74//74 103//103 94//94
f 104//104 107//107 63//63
f 71//71 106//106 108//108
f 72//72 109//109 99//99
f 110//110 111//111 63//63
f 63//63 111//111 112//112
f 70//70 113//113 105//105
f 115//115 116//116 63//63
f 63//63 116//116 117//117
f 63//63 117//117 110//110
f 59//59 118//118 66//66
f 67//67 119//119 120//120
f 68//68 121//121 114//114
f 122//122 124//124 127//127
f 146//146 148//148 126//126
f 128//128 149//149 150//150
f 145//145 151//151 123//123
f 152//152 153//153 127//127
f 127//127 153//153 155//155
f 132//132 154//154 147//147
f 156//156 158//158 127//127
f 131//131 159//159 161//161
f 127//127 160//160 152//152
f 162//162 164//164 136//136
f 133//133 165//165 166//166
f 134//134 167//167 157//157
f 168//168 170//170 127//127
f 144//144 171//171 173//173
f 127//127 172//172 163//163
f 174//174 176//176 127//127
f 135//135 175//175 178//178
f 138//138 177//177 169//169
f 180//180 182//182 137//137
f 139//139 181//181 184//184
f 127//127 183//183 174//174
f 185//185 188//188 143//143
f 141//141 187//187 190//190
f 142//142 189//189 179//179
f 125//125 192//192 130//130
f 140//140 191//191 194//194
f 129//129 193//193 186//186
f 195//195 196//196 197//197
f 197//197 196//196 198//198
f 197//197 198//198 199//199
f 199//199 198//198 200//200
f 199//199 200//200 201//201
f 201//201 200//200 202//202
f 201//201 202//202 203//203
f 203//203 202//202 204//204
f 203//203 204//204 205//205
f 205//205 204//204 206//206
f 205//205 206//206 207//207
f 207//207 206//206 208//208
f 207//207 208//208 209//209
f 209//209 208//208 210//210
f 209//209 210//210 211//211
f 211//211 210//210 212//212
f 211//211 212//212 213//213
f 213//213 212//212 214//214
f 213//213 214//214 215//215
f 215//215 214//214 216//216
f 215//215 216//216 217//217
f 217//217 216//216 218//218
f 217//217 218//218 219//219
f 219//219 218//218 220//220
f 219//219 220//220 221//221
f 221//221 220//220 222//222
f 221//221 222//222 223//223
f 223//223 222//222 224//224
f 223//223 224//224 225//225
f 225//225 224//224 226//226
f 225//225 226//226 227//227
f 227//227 226//226 228//228
f 227//227 228//228 229//229
f 229//229 228//228 230//230
f 229//229 230//230 231//231
f 231//231 230//230 232//232
f 231//231 232//232 233//233
f 233//233 232//232 234//234
f 233//233 234//234 235//235
f 235//235 234//234 236//236
f 235//235 236//236 237//237
f 237//237 236//236 238//238
f 237//237 238//238 239//239
f 239//239 238//238 240//240
f 239//239 240//240 241//241
f 241//241 240//240 242//242
f 241//241 242//242 243//243
f 243//243 242//242 244//244
f 243//243 244//244 245//245
f 245//245 244//244 246//246
f 245//245 246//246 247//247
f 247//247 246//246 248//248
f 247//247 248//248 249//249
f 249//249 248//248 250//250
f 249//249 250//250 195//195
f 195//195 250//250 196//196
f 251//251 252//252 253//253
f 253//253 252//252 254//254
f 253//253 254//254 255//255
f 255//255 254//254 256//256
f 255//255 256//256 257//257
f 257//257 256//256 258//258
f 257//257 258//258 259//259
f 259//259 258//258 260//260
f 259//259 260//260 261//261
f 261//261 260//260 262//262
f 261//261 262//262 263//263
f 263//263 262//262 264//264
f 263//263 264//264 265//265
f 265//265 264//264 266//266
f 265//265 266//266 267//267
f 267//267 266//266 268//268
f 267//267 268//268 269//269
f 269//269 268//268 270//270
f 269//269 270//270 271//271
f 271//271 270//270 272//272
f 271//271 272//272 273//273
f 273//273 272//272 274//274
f 273//273 274//274 275//275
f 275//275 274//274 276//276
f 275//275 276//276 277//277
f 277//277 276//276 278//278
f 277//277 278//278 279//279
f 279//279 278//278 280//280
f 279//279 280//280 281//281
f 281//281 280//280 282//282
f 281//281 282//282 283//283
f 283//283 282//282 284//284
f 283//283 284//284 285//285
f 285//285 284//284 286//286
f 285//285 286//286 287//287
f 287//287 286//286 288//288
f 287//287 288//288 289//289
f 289//289 288//288 290//290
f 289//289 290//290 291//291
f 291//291 290//290 292//292
f 291//291 292//292 293//293
f 293//293 292//292 294//294
f 293//293 294//294 295//295
f 295//295 294//294 296//296
f 295//295 296//296 297//297
f 297//297 296//296 298//298
f 297//297 298//298 299//299
f 299//299 298//298 300//300
f 299//299 300//300 301//301
f 301//301 300//300 302//302
f 301//301 302//302 303//303
f 303//303 302//302 304//304
f 303//303 304//304 305//305
f 305//305 304//304 306//306
f 305//305 306//306 251//251
f 251//251 306//306 252//252

