# https://github.com/mikedh/trimesh
v 0.15279200 -0.02084800 0.02050000
v 0.15276000 -0.02084600 0.02050000
v 0.15276000 -0.02084600 0.02040000
v 0.15272800 -0.02084100 0.02040000
v 0.15272800 -0.02084100 0.02050000
v 0.15266600 -0.02082500 0.02050000
v 0.15266600 -0.02082500 0.02040000
v 0.15260800 -0.02079800 0.02050000
v 0.15260800 -0.02079800 0.02040000
v 0.15255400 -0.02076300 0.02050000
v 0.15255400 -0.02076300 0.02040000
v 0.15250700 -0.02071900 0.02050000
v 0.15250700 -0.02071900 0.02040000
v 0.15246700 -0.02066800 0.02050000
v 0.15246700 -0.02066800 0.02040000
v 0.15243600 -0.02061200 0.02050000
v 0.15243600 -0.02061200 0.02040000
v 0.15241500 -0.02055100 0.02050000
v 0.15241500 -0.02055100 0.02040000
v 0.15240300 -0.02048800 0.02050000
v 0.15240300 -0.02048800 0.02040000
v 0.15240200 -0.02042400 0.02050000
v 0.15240200 -0.02042400 0.02040000
v 0.15241100 -0.02036000 0.02050000
v 0.15241100 -0.02036000 0.02040000
v 0.15243000 -0.02029900 0.02050000
v 0.15243000 -0.02029900 0.02040000
v 0.15245900 -0.02024100 0.02050000
v 0.15245900 -0.02024100 0.02040000
v 0.15249600 -0.02018900 0.02050000
v 0.15249600 -0.02018900 0.02040000
v 0.15254200 -0.02014400 0.02050000
v 0.15254200 -0.02014400 0.02040000
v 0.15259400 -0.02010600 0.02050000
v 0.15259400 -0.02010600 0.02040000
v 0.15265200 -0.02007700 0.02050000
v 0.15265200 -0.02007700 0.02040000
v 0.15271300 -0.02005800 0.02050000
v 0.15271300 -0.02005800 0.02040000
v 0.15277700 -0.02004900 0.02050000
v 0.15277700 -0.02004900 0.02040000
v 0.15284100 -0.02005000 0.02050000
v 0.15284100 -0.02005000 0.02040000
v 0.15290400 -0.02006200 0.02050000
v 0.15290400 -0.02006200 0.02040000
v 0.15296500 -0.02008400 0.02050000
v 0.15296500 -0.02008400 0.02040000
v 0.15302100 -0.02011500 0.02050000
v 0.15302100 -0.02011500 0.02040000
v 0.15307200 -0.02015400 0.02050000
v 0.15307200 -0.02015400 0.02040000
v 0.15311600 -0.02020200 0.02050000
v 0.15311600 -0.02020200 0.02040000
v 0.15315100 -0.02025600 0.02050000
v 0.15315100 -0.02025600 0.02040000
v 0.15317700 -0.02031400 0.02050000
v 0.15317700 -0.02031400 0.02040000
v 0.15319400 -0.02037600 0.02050000
v 0.15319400 -0.02037600 0.02040000
v 0.15320000 -0.02044000 0.02050000
v 0.15320000 -0.02044000 0.02040000
v 0.15319600 -0.02050500 0.02050000
v 0.15319600 -0.02050500 0.02040000
v 0.15318200 -0.02056700 0.02050000
v 0.15318200 -0.02056700 0.02040000
v 0.15315800 -0.02062700 0.02050000
v 0.15315800 -0.02062700 0.02040000
v 0.15312500 -0.02068200 0.02050000
v 0.15312500 -0.02068200 0.02040000
v 0.15308300 -0.02073100 0.02050000
v 0.15308300 -0.02073100 0.02040000
v 0.15303400 -0.02077300 0.02050000
v 0.15303400 -0.02077300 0.02040000
v 0.15297900 -0.02080600 0.02050000
v 0.15297900 -0.02080600 0.02040000
v 0.15291900 -0.02083000 0.02050000
v 0.15291900 -0.02083000 0.02040000
v 0.15285700 -0.02084400 0.02050000
v 0.15285700 -0.02084400 0.02040000
v 0.15279200 -0.02084800 0.02040000
v 0.15276000 -0.02084600 0.02050000
v 0.15276000 -0.02084600 0.02050000
v 0.15279200 -0.02084800 0.02050000
v 0.15280100 -0.02044800 0.02050000
v 0.15280100 -0.02044800 0.02050000
v 0.15280100 -0.02044800 0.02050000
v 0.15280100 -0.02044800 0.02050000
v 0.15280100 -0.02044800 0.02050000
v 0.15280100 -0.02044800 0.02050000
v 0.15280100 -0.02044800 0.02050000
v 0.15280100 -0.02044800 0.02050000
v 0.15280100 -0.02044800 0.02050000
v 0.15280100 -0.02044800 0.02050000
v 0.15280100 -0.02044800 0.02050000
v 0.15280100 -0.02044800 0.02050000
v 0.15280100 -0.02044800 0.02050000
v 0.15280100 -0.02044800 0.02050000
v 0.15280100 -0.02044800 0.02050000
v 0.15280100 -0.02044800 0.02050000
v 0.15280100 -0.02044800 0.02050000
v 0.15280100 -0.02044800 0.02050000
v 0.15280100 -0.02044800 0.02050000
v 0.15280100 -0.02044800 0.02050000
v 0.15260800 -0.02079800 0.02050000
v 0.15260800 -0.02079800 0.02050000
v 0.15266600 -0.02082500 0.02050000
v 0.15266600 -0.02082500 0.02050000
v 0.15272800 -0.02084100 0.02050000
v 0.15272800 -0.02084100 0.02050000
v 0.15246700 -0.02066800 0.02050000
v 0.15246700 -0.02066800 0.02050000
v 0.15250700 -0.02071900 0.02050000
v 0.15250700 -0.02071900 0.02050000
v 0.15255400 -0.02076300 0.02050000
v 0.15255400 -0.02076300 0.02050000
v 0.15240300 -0.02048800 0.02050000
v 0.15240300 -0.02048800 0.02050000
v 0.15241500 -0.02055100 0.02050000
v 0.15243600 -0.02061200 0.02050000
v 0.15243600 -0.02061200 0.02050000
v 0.15243000 -0.02029900 0.02050000
v 0.15241100 -0.02036000 0.02050000
v 0.15240200 -0.02042400 0.02050000
v 0.15240200 -0.02042400 0.02050000
v 0.15254200 -0.02014400 0.02050000
v 0.15254200 -0.02014400 0.02050000
v 0.15249600 -0.02018900 0.02050000
v 0.15245900 -0.02024100 0.02050000
v 0.15271300 -0.02005800 0.02050000
v 0.15271300 -0.02005800 0.02050000
v 0.15265200 -0.02007700 0.02050000
v 0.15259400 -0.02010600 0.02050000
v 0.15259400 -0.02010600 0.02050000
v 0.15290400 -0.02006200 0.02050000
v 0.15290400 -0.02006200 0.02050000
v 0.15284100 -0.02005000 0.02050000
v 0.15284100 -0.02005000 0.02050000
v 0.15277700 -0.02004900 0.02050000
v 0.15277700 -0.02004900 0.02050000
v 0.15307200 -0.02015400 0.02050000
v 0.15307200 -0.02015400 0.02050000
v 0.15302100 -0.02011500 0.02050000
v 0.15302100 -0.02011500 0.02050000
v 0.15296500 -0.02008400 0.02050000
v 0.15296500 -0.02008400 0.02050000
v 0.15317700 -0.02031400 0.02050000
v 0.15315100 -0.02025600 0.02050000
v 0.15315100 -0.02025600 0.02050000
v 0.15311600 -0.02020200 0.02050000
v 0.15311600 -0.02020200 0.02050000
v 0.15319600 -0.02050500 0.02050000
v 0.15319600 -0.02050500 0.02050000
v 0.15320000 -0.02044000 0.02050000
v 0.15319400 -0.02037600 0.02050000
v 0.15312500 -0.02068200 0.02050000
v 0.15312500 -0.02068200 0.02050000
v 0.15315800 -0.02062700 0.02050000
v 0.15318200 -0.02056700 0.02050000
v 0.15318200 -0.02056700 0.02050000
v 0.15297900 -0.02080600 0.02050000
v 0.15297900 -0.02080600 0.02050000
v 0.15303400 -0.02077300 0.02050000
v 0.15303400 -0.02077300 0.02050000
v 0.15308300 -0.02073100 0.02050000
v 0.15308300 -0.02073100 0.02050000
v 0.15285700 -0.02084400 0.02050000
v 0.15285700 -0.02084400 0.02050000
v 0.15291900 -0.02083000 0.02050000
v 0.15291900 -0.02083000 0.02050000
v 0.15276000 -0.02084600 0.02040000
v 0.15276000 -0.02084600 0.02040000
v 0.15272800 -0.02084100 0.02040000
v 0.15280100 -0.02044800 0.02040000
v 0.15280100 -0.02044800 0.02040000
v 0.15280100 -0.02044800 0.02040000
v 0.15280100 -0.02044800 0.02040000
v 0.15280100 -0.02044800 0.02040000
v 0.15280100 -0.02044800 0.02040000
v 0.15280100 -0.02044800 0.02040000
v 0.15280100 -0.02044800 0.02040000
v 0.15280100 -0.02044800 0.02040000
v 0.15280100 -0.02044800 0.02040000
v 0.15280100 -0.02044800 0.02040000
v 0.15280100 -0.02044800 0.02040000
v 0.15280100 -0.02044800 0.02040000
v 0.15280100 -0.02044800 0.02040000
v 0.15280100 -0.02044800 0.02040000
v 0.15280100 -0.02044800 0.02040000
v 0.15280100 -0.02044800 0.02040000
v 0.15280100 -0.02044800 0.02040000
v 0.15280100 -0.02044800 0.02040000
v 0.15280100 -0.02044800 0.02040000
v 0.15280100 -0.02044800 0.02040000
v 0.15280100 -0.02044800 0.02040000
v 0.15291900 -0.02083000 0.02040000
v 0.15285700 -0.02084400 0.02040000
v 0.15285700 -0.02084400 0.02040000
v 0.15279200 -0.02084800 0.02040000
v 0.15279200 -0.02084800 0.02040000
v 0.15308300 -0.02073100 0.02040000
v 0.15308300 -0.02073100 0.02040000
v 0.15303400 -0.02077300 0.02040000
v 0.15303400 -0.02077300 0.02040000
v 0.15297900 -0.02080600 0.02040000
v 0.15297900 -0.02080600 0.02040000
v 0.15318200 -0.02056700 0.02040000
v 0.15315800 -0.02062700 0.02040000
v 0.15315800 -0.02062700 0.02040000
v 0.15312500 -0.02068200 0.02040000
v 0.15312500 -0.02068200 0.02040000
v 0.15319400 -0.02037600 0.02040000
v 0.15320000 -0.02044000 0.02040000
v 0.15319600 -0.02050500 0.02040000
v 0.15311600 -0.02020200 0.02040000
v 0.15311600 -0.02020200 0.02040000
v 0.15315100 -0.02025600 0.02040000
v 0.15315100 -0.02025600 0.02040000
v 0.15317700 -0.02031400 0.02040000
v 0.15317700 -0.02031400 0.02040000
v 0.15296500 -0.02008400 0.02040000
v 0.15296500 -0.02008400 0.02040000
v 0.15302100 -0.02011500 0.02040000
v 0.15302100 -0.02011500 0.02040000
v 0.15307200 -0.02015400 0.02040000
v 0.15307200 -0.02015400 0.02040000
v 0.15277700 -0.02004900 0.02040000
v 0.15277700 -0.02004900 0.02040000
v 0.15284100 -0.02005000 0.02040000
v 0.15284100 -0.02005000 0.02040000
v 0.15290400 -0.02006200 0.02040000
v 0.15290400 -0.02006200 0.02040000
v 0.15259400 -0.02010600 0.02040000
v 0.15259400 -0.02010600 0.02040000
v 0.15265200 -0.02007700 0.02040000
v 0.15265200 -0.02007700 0.02040000
v 0.15271300 -0.02005800 0.02040000
v 0.15271300 -0.02005800 0.02040000
v 0.15245900 -0.02024100 0.02040000
v 0.15245900 -0.02024100 0.02040000
v 0.15249600 -0.02018900 0.02040000
v 0.15249600 -0.02018900 0.02040000
v 0.15254200 -0.02014400 0.02040000
v 0.15254200 -0.02014400 0.02040000
v 0.15240200 -0.02042400 0.02040000
v 0.15240200 -0.02042400 0.02040000
v 0.15241100 -0.02036000 0.02040000
v 0.15241100 -0.02036000 0.02040000
v 0.15243000 -0.02029900 0.02040000
v 0.15243600 -0.02061200 0.02040000
v 0.15243600 -0.02061200 0.02040000
v 0.15241500 -0.02055100 0.02040000
v 0.15241500 -0.02055100 0.02040000
v 0.15240300 -0.02048800 0.02040000
v 0.15240300 -0.02048800 0.02040000
v 0.15255400 -0.02076300 0.02040000
v 0.15250700 -0.02071900 0.02040000
v 0.15250700 -0.02071900 0.02040000
v 0.15246700 -0.02066800 0.02040000
v 0.15246700 -0.02066800 0.02040000
v 0.15266600 -0.02082500 0.02040000
v 0.15266600 -0.02082500 0.02040000
v 0.15260800 -0.02079800 0.02040000
v 0.15260800 -0.02079800 0.02040000
vn -0.00024900 -1.00000000 0.00000000
vn -0.11440100 -0.99343500 0.00000000
vn -0.08766600 -0.99615000 0.00000000
vn -0.20068200 -0.97965700 0.00000000
vn -0.20070000 -0.97965300 0.00000000
vn -0.31084500 -0.95046100 -0.00001200
vn -0.36140300 -0.93241000 -0.00000900
vn -0.45915700 -0.88835500 -0.00000900
vn -0.50623700 -0.86239400 0.00000900
vn -0.59576100 -0.80316200 0.00000000
vn -0.63807600 -0.76997400 0.00000000
vn -0.71689000 -0.69718600 -0.00001600
vn -0.75331700 -0.65765800 0.00000000
vn -0.81947500 -0.57311500 -0.00001000
vn -0.84913700 -0.52817200 0.00000000
vn -0.90081600 -0.43420100 0.00000000
vn -0.92281900 -0.38523400 0.00000000
vn -0.95874300 -0.28427600 -0.00001000
vn -0.97263700 -0.23232900 0.00001000
vn -0.99193100 -0.12677700 0.00000000
vn -0.99731900 -0.07317100 0.00000000
vn -0.99941600 0.03416400 0.00000000
vn -0.99614000 0.08778300 0.00001700
vn -0.98101600 0.19392500 -0.00001000
vn -0.96919400 0.24630000 0.00000000
vn -0.93724300 0.34867700 -0.00001300
vn -0.91712400 0.39860200 0.00000000
vn -0.86912200 0.49459800 0.00000000
vn -0.84129100 0.54058300 0.00000000
vn -0.77850600 0.62763700 0.00000000
vn -0.74363500 0.66858600 0.00000000
vn -0.66771400 0.74441800 0.00000000
vn -0.62675400 0.77921700 0.00000000
vn -0.53967900 0.84187100 0.00000000
vn -0.49367800 0.86964500 0.00000000
vn -0.39768300 0.91752300 0.00000000
vn -0.34781500 0.93756300 0.00000000
vn -0.24538300 0.96942600 0.00000000
vn -0.19291300 0.98121600 0.00001000
vn -0.08666400 0.99623800 0.00000100
vn -0.03303300 0.99945400 -0.00000100
vn 0.07426800 0.99723800 0.00000000
vn 0.12774000 0.99180800 0.00000000
vn 0.23326800 0.97241200 0.00000000
vn 0.28522700 0.95846000 0.00000000
vn 0.38630900 0.92236900 -0.00001500
vn 0.43530800 0.90028200 0.00000000
vn 0.52921400 0.84848800 0.00000100
vn 0.57397700 0.81887100 0.00001000
vn 0.65842700 0.75264400 0.00000100
vn 0.69799100 0.71610600 0.00000000
vn 0.77071300 0.63718200 0.00000000
vn 0.80378600 0.59491900 0.00000000
vn 0.86288800 0.50539400 0.00000000
vn 0.88881200 0.45827200 0.00000000
vn 0.93280100 0.36039200 -0.00000900
vn 0.95082600 0.30972400 0.00000000
vn 0.97851900 0.20615500 0.00000000
vn 0.98818200 0.15328400 0.00000900
vn 0.99891500 0.04656600 0.00000000
vn 0.99997400 -0.00724000 0.00000900
vn 0.99343900 -0.11436000 0.00000000
vn 0.98584800 -0.16764500 0.00000000
vn 0.96220600 -0.27232200 0.00000000
vn 0.94621300 -0.32354600 0.00000000
vn 0.90611300 -0.42303600 -0.00001300
vn 0.88204900 -0.47115700 0.00000000
vn 0.82647600 -0.56297200 -0.00001300
vn 0.79503300 -0.60656700 0.00000000
vn 0.72547000 -0.68825300 -0.00001000
vn 0.68746300 -0.72622000 0.00001000
vn 0.60568000 -0.79570800 0.00000000
vn 0.56207300 -0.82708700 0.00000000
vn 0.47019800 -0.88256100 0.00000000
vn 0.42212000 -0.90654000 0.00001300
vn 0.32256600 -0.94654700 0.00000000
vn 0.27118900 -0.96252600 0.00000000
vn 0.16657500 -0.98602900 -0.00001100
vn 0.11335200 -0.99355500 -0.00000100
vn -0.00025300 -1.00000000 0.00000000
vn 0.00000000 0.00000000 1.00000000
vn 0.00003200 -0.00000300 1.00000000
vn 0.00000000 0.00000000 1.00000000
vn 0.00000000 0.00000000 1.00000000
vn 0.00000900 -0.00000100 1.00000000
vn 0.00002600 -0.00000300 1.00000000
vn -0.00000900 0.00000100 1.00000000
vn -0.00000400 0.00000000 1.00000000
vn 0.00000900 -0.00000100 1.00000000
vn 0.00001300 -0.00000100 1.00000000
vn 0.00001800 -0.00000200 1.00000000
vn -0.00000300 0.00000000 1.00000000
vn 0.00003200 -0.00000300 1.00000000
vn -0.00003500 0.00000400 1.00000000
vn -0.00000700 0.00000100 1.00000000
vn 0.00003100 -0.00000300 1.00000000
vn -0.00000900 0.00000100 1.00000000
vn -0.00002600 0.00000300 1.00000000
vn 0.00000900 -0.00000100 1.00000000
vn 0.00000900 -0.00000100 1.00000000
vn -0.00001800 0.00000200 1.00000000
vn 0.00000900 -0.00000100 1.00000000
vn 0.00000400 -0.00000000 1.00000000
vn 0.00000000 0.00000000 1.00000000
vn -0.00000400 0.00000000 1.00000000
vn 0.00000000 0.00000000 1.00000000
vn -0.00000700 0.00000100 1.00000000
vn 0.00003200 -0.00000300 1.00000000
vn -0.00000700 0.00000100 1.00000000
vn -0.00003500 0.00000400 1.00000000
vn 0.00001800 -0.00000200 1.00000000
vn 0.00001300 -0.00000100 1.00000000
vn -0.00003500 0.00000400 1.00000000
vn -0.00000400 0.00000000 1.00000000
vn 0.00001300 -0.00000100 1.00000000
vn 0.00000900 -0.00000100 1.00000000
vn 0.00000000 0.00000000 1.00000000
vn 0.00000000 0.00000000 1.00000000
vn 0.00001800 -0.00000200 1.00000000
vn 0.00000000 0.00000000 1.00000000
vn 0.00000000 0.00000000 1.00000000
vn 0.00000000 0.00000000 1.00000000
vn 0.00000900 -0.00000100 1.00000000
vn 0.00000000 0.00000000 1.00000000
vn 0.00000000 0.00000000 1.00000000
vn 0.00002600 -0.00000300 1.00000000
vn 0.00000000 0.00000000 1.00000000
vn 0.00000000 0.00000000 1.00000000
vn 0.00000000 0.00000000 1.00000000
vn -0.00000900 0.00000100 1.00000000
vn 0.00000000 0.00000000 1.00000000
vn 0.00002600 -0.00000300 1.00000000
vn 0.00000000 0.00000000 1.00000000
vn 0.00000900 -0.00000100 1.00000000
vn 0.00000000 0.00000000 1.00000000
vn -0.00000300 0.00000000 1.00000000
vn 0.00000000 0.00000000 1.00000000
vn -0.00000900 0.00000100 1.00000000
vn -0.00000300 0.00000000 1.00000000
vn -0.00002600 0.00000300 1.00000000
vn 0.00000000 0.00000000 1.00000000
vn 0.00000000 0.00000000 1.00000000
vn 0.00000900 -0.00000100 1.00000000
vn 0.00000900 -0.00000100 1.00000000
vn 0.00000900 -0.00000100 1.00000000
vn 0.00000000 0.00000000 1.00000000
vn 0.00000900 -0.00000100 1.00000000
vn 0.00000000 0.00000000 1.00000000
vn -0.00002600 0.00000300 1.00000000
vn 0.00000900 -0.00000100 1.00000000
vn 0.00000000 0.00000000 1.00000000
vn -0.00000900 0.00000100 1.00000000
vn 0.00000000 0.00000000 1.00000000
vn 0.00000000 0.00000000 1.00000000
vn -0.00001800 0.00000200 1.00000000
vn 0.00000000 0.00000000 1.00000000
vn 0.00000000 0.00000000 1.00000000
vn -0.00000900 0.00000100 1.00000000
vn 0.00000000 0.00000000 1.00000000
vn 0.00000000 0.00000000 1.00000000
vn 0.00000400 -0.00000000 1.00000000
vn 0.00000000 0.00000000 1.00000000
vn 0.00003100 -0.00000300 1.00000000
vn -0.00001800 0.00000200 1.00000000
vn 0.00003100 -0.00000300 1.00000000
vn 0.00000000 0.00000000 1.00000000
vn 0.00000900 -0.00000100 1.00000000
vn 0.00000900 -0.00000100 1.00000000
vn 0.00000400 -0.00000000 1.00000000
vn 0.00000000 0.00000000 -1.00000000
vn -0.00000400 0.00000000 -1.00000000
vn 0.00000000 0.00000000 -1.00000000
vn 0.00002600 -0.00000300 -1.00000000
vn -0.00000900 0.00000100 -1.00000000
vn 0.00000900 -0.00000100 -1.00000000
vn 0.00000900 -0.00000100 -1.00000000
vn -0.00001800 0.00000200 -1.00000000
vn -0.00000100 0.00000000 -1.00000000
vn 0.00001800 -0.00000200 -1.00000000
vn 0.00002700 -0.00000300 -1.00000000
vn 0.00001800 -0.00000200 -1.00000000
vn -0.00002600 0.00000300 -1.00000000
vn -0.00003500 0.00000400 -1.00000000
vn -0.00003500 0.00000400 -1.00000000
vn 0.00000900 -0.00000100 -1.00000000
vn -0.00000400 0.00000000 -1.00000000
vn 0.00000900 -0.00000100 -1.00000000
vn 0.00001800 -0.00000200 -1.00000000
vn -0.00000900 0.00000100 -1.00000000
vn -0.00003500 0.00000400 -1.00000000
vn 0.00000000 0.00000000 -1.00000000
vn 0.00004900 -0.00000500 -1.00000000
vn 0.00002600 -0.00000300 -1.00000000
vn -0.00000900 0.00000100 -1.00000000
vn 0.00000000 0.00000000 -1.00000000
vn -0.00000100 0.00000000 -1.00000000
vn 0.00000000 0.00000000 -1.00000000
vn -0.00000100 0.00000000 -1.00000000
vn -0.00000400 0.00000000 -1.00000000
vn 0.00000900 -0.00000100 -1.00000000
vn 0.00000000 0.00000000 -1.00000000
vn 0.00000900 -0.00000100 -1.00000000
vn 0.00000000 0.00000000 -1.00000000
vn 0.00000900 -0.00000100 -1.00000000
vn 0.00000000 0.00000000 -1.00000000
vn 0.00000000 0.00000000 -1.00000000
vn 0.00001800 -0.00000200 -1.00000000
vn 0.00000000 0.00000000 -1.00000000
vn 0.00000900 -0.00000100 -1.00000000
vn 0.00001800 -0.00000200 -1.00000000
vn 0.00000000 0.00000000 -1.00000000
vn 0.00000000 0.00000000 -1.00000000
vn 0.00000000 0.00000000 -1.00000000
vn -0.00002600 0.00000300 -1.00000000
vn 0.00000000 0.00000000 -1.00000000
vn 0.00000000 0.00000000 -1.00000000
vn 0.00001800 -0.00000200 -1.00000000
vn 0.00001800 -0.00000200 -1.00000000
vn 0.00000000 0.00000000 -1.00000000
vn 0.00000900 -0.00000100 -1.00000000
vn -0.00003500 0.00000400 -1.00000000
vn -0.00003500 0.00000400 -1.00000000
vn 0.00002700 -0.00000300 -1.00000000
vn 0.00002700 -0.00000300 -1.00000000
vn -0.00002600 0.00000300 -1.00000000
vn 0.00000000 0.00000000 -1.00000000
vn -0.00000900 0.00000100 -1.00000000
vn 0.00001800 -0.00000200 -1.00000000
vn 0.00000000 0.00000000 -1.00000000
vn 0.00000900 -0.00000100 -1.00000000
vn 0.00001800 -0.00000200 -1.00000000
vn 0.00002600 -0.00000300 -1.00000000
vn -0.00003500 0.00000400 -1.00000000
vn 0.00004900 -0.00000500 -1.00000000
vn -0.00003500 0.00000400 -1.00000000
vn -0.00000900 0.00000100 -1.00000000
vn 0.00004900 -0.00000500 -1.00000000
vn -0.00003500 0.00000400 -1.00000000
vn 0.00000000 0.00000000 -1.00000000
vn -0.00003500 0.00000400 -1.00000000
vn 0.00000000 0.00000000 -1.00000000
vn 0.00000000 0.00000000 -1.00000000
vn 0.00002600 -0.00000300 -1.00000000
vn 0.00000000 0.00000000 -1.00000000
vn -0.00000900 0.00000100 -1.00000000
vn -0.00000900 0.00000100 -1.00000000
vn 0.00000000 0.00000000 -1.00000000
vn 0.00000000 0.00000000 -1.00000000
vn -0.00000900 0.00000100 -1.00000000
vn -0.00001800 0.00000200 -1.00000000
vn -0.00001800 0.00000200 -1.00000000
vn 0.00000900 -0.00000100 -1.00000000
vn 0.00000900 -0.00000100 -1.00000000
vn 0.00000000 0.00000000 -1.00000000
vn 0.00000000 0.00000000 -1.00000000
vn 0.00000000 0.00000000 -1.00000000
vn 0.00000900 -0.00000100 -1.00000000
vn 0.00000900 -0.00000100 -1.00000000
vn -0.00000900 0.00000100 -1.00000000
vn 0.00002600 -0.00000300 -1.00000000
vn 0.00000000 0.00000000 -1.00000000
vn 0.00000000 0.00000000 -1.00000000
vn 0.00002600 -0.00000300 -1.00000000
f 1//1 2//2 3//3
f 3//3 2//2 4//4
f 2//2 5//5 4//4
f 4//4 5//5 6//6
f 4//4 6//6 7//7
f 7//7 6//6 8//8
f 7//7 8//8 9//9
f 9//9 8//8 10//10
f 9//9 10//10 11//11
f 11//11 10//10 12//12
f 11//11 12//12 13//13
f 13//13 12//12 14//14
f 13//13 14//14 15//15
f 15//15 14//14 16//16
f 15//15 16//16 17//17
f 17//17 16//16 18//18
f 17//17 18//18 19//19
f 19//19 18//18 20//20
f 19//19 20//20 21//21
f 21//21 20//20 22//22
f 21//21 22//22 23//23
f 23//23 22//22 24//24
f 23//23 24//24 25//25
f 25//25 24//24 26//26
f 25//25 26//26 27//27
f 27//27 26//26 28//28
f 27//27 28//28 29//29
f 29//29 28//28 30//30
f 29//29 30//30 31//31
f 31//31 30//30 32//32
f 31//31 32//32 33//33
f 33//33 32//32 34//34
f 33//33 34//34 35//35
f 35//35 34//34 36//36
f 35//35 36//36 37//37
f 37//37 36//36 38//38
f 37//37 38//38 39//39
f 39//39 38//38 40//40
f 39//39 40//40 41//41
f 41//41 40//40 42//42
f 41//41 42//42 43//43
f 43//43 42//42 44//44
f 43//43 44//44 45//45
f 45//45 44//44 46//46
f 45//45 46//46 47//47
f 47//47 46//46 48//48
f 47//47 48//48 49//49
f 49//49 48//48 50//50
f 49//49 50//50 51//51
f 51//51 50//50 52//52
f 51//51 52//52 53//53
f 53//53 52//52 54//54
f 53//53 54//54 55//55
f 55//55 54//54 56//56
f 55//55 56//56 57//57
f 57//57 56//56 58//58
f 57//57 58//58 59//59
f 59//59 58//58 60//60
f 59//59 60//60 61//61
f 61//61 60//60 62//62
f 61//61 62//62 63//63
f 63//63 62//62 64//64
f 63//63 64//64 65//65
f 65//65 64//64 66//66
f 65//65 66//66 67//67
f 67//67 66//66 68//68
f 67//67 68//68 69//69
f 69//69 68//68 70//70
f 69//69 70//70 71//71
f 71//71 70//70 72//72
f 71//71 72//72 73//73
f 73//73 72//72 74//74
f 73//73 74//74 75//75
f 75//75 74//74 76//76
f 75//75 76//76 77//77
f 77//77 76//76 78//78
f 77//77 78//78 79//79
f 79//79 78//78 1//1
f 79//79 1//1 80//80
f 80//80 1//1 3//3
f 81//81 83//83 84//84
f 104//104 106//106 84//84
f 95//95 107//107 109//109
f 93//93 108//108 82//82
f 110//110 113//113 94//94
f 90//90 112//112 115//115
f 88//88 114//114 105//105
f 117//117 118//118 84//84
f 84//84 118//118 120//120
f 91//91 119//119 111//111
f 121//121 122//122 84//84
f 84//84 122//122 124//124
f 89//89 123//123 116//116
f 125//125 127//127 84//84
f 84//84 127//127 128//128
f 84//84 128//128 121//121
f 129//129 131//131 84//84
f 84//84 131//131 133//133
f 86//86 132//132 126//126
f 135//135 137//137 84//84
f 92//92 136//136 139//139
f 87//87 138//138 130//130
f 141//141 142//142 84//84
f 85//85 143//143 144//144
f 100//100 145//145 134//134
f 146//146 148//148 84//84
f 99//99 147//147 150//150
f 98//98 149//149 140//140
f 151//151 153//153 84//84
f 84//84 153//153 154//154
f 84//84 154//154 146//146
f 156//156 157//157 84//84
f 84//84 157//157 159//159
f 97//97 158//158 152//152
f 160//160 162//162 84//84
f 96//96 163//163 165//165
f 101//101 164//164 155//155
f 83//83 166//166 84//84
f 102//102 167//167 168//168
f 103//103 169//169 161//161
f 170//170 172//172 191//191
f 195//195 197//197 191//191
f 178//178 196//196 198//198
f 186//186 199//199 171//171
f 201//201 203//203 191//191
f 185//185 202//202 204//204
f 191//191 205//205 195//195
f 206//206 208//208 191//191
f 188//188 207//207 210//210
f 187//187 209//209 200//200
f 211//211 212//212 191//191
f 191//191 212//212 213//213
f 191//191 213//213 206//206
f 215//215 216//216 191//191
f 179//179 217//217 218//218
f 191//191 219//219 211//211
f 221//221 222//222 183//183
f 180//180 223//223 224//224
f 182//182 225//225 214//214
f 226//226 229//229 191//191
f 181//181 228//228 231//231
f 187//187 230//230 220//220
f 233//233 235//235 184//184
f 192//192 234//234 237//237
f 189//189 236//236 227//227
f 238//238 240//240 190//190
f 191//191 241//241 242//242
f 193//193 243//243 232//232
f 245//245 246//246 194//194
f 191//191 247//247 248//248
f 191//191 248//248 239//239
f 250//250 251//251 177//177
f 175//175 252//252 253//253
f 191//191 254//254 244//244
f 255//255 256//256 191//191
f 176//176 257//257 258//258
f 174//174 259//259 249//249
f 172//172 261//261 191//191
f 173//173 260//260 263//263
f 191//191 262//262 255//255

