# https://github.com/mikedh/trimesh
v -0.01857300 -0.09551400 -0.01973100
v -0.01857300 -0.09551400 -0.01973100
v -0.01862500 -0.09552700 -0.01973000
v -0.01862500 -0.09552700 -0.01973000
v -0.01862500 -0.09552700 -0.01973000
v -0.01881000 -0.09414000 -0.01984100
v -0.01881000 -0.09414000 -0.01984100
v -0.01881000 -0.09414000 -0.01984100
v -0.01881000 -0.09414000 -0.01984100
v -0.01881000 -0.09414000 -0.01984100
v -0.01870000 -0.09412800 -0.01984200
v -0.01870000 -0.09412800 -0.01984200
v -0.01859100 -0.09410900 -0.01984300
v -0.01859100 -0.09410900 -0.01984300
v -0.01849400 -0.09543500 -0.01973800
v -0.01849400 -0.09543500 -0.01973800
v -0.01849400 -0.09543500 -0.01973800
v -0.01849400 -0.09543500 -0.01973800
v -0.01849400 -0.09543500 -0.01973800
v -0.01856100 -0.09410900 -0.01984300
v -0.01856100 -0.09410900 -0.01984300
v -0.01856100 -0.09410900 -0.01984300
v -0.01856100 -0.09410900 -0.01984300
v -0.01849400 -0.09479000 -0.01978900
v -0.01849400 -0.09479000 -0.01978900
v -0.01912600 -0.09417900 -0.01983800
v -0.01912600 -0.09417900 -0.01983800
v -0.01912600 -0.09417900 -0.01983800
v -0.01912600 -0.09417900 -0.01983800
v -0.01849400 -0.09414500 -0.01984100
v -0.01849400 -0.09414500 -0.01984100
v -0.01849400 -0.09414500 -0.01984100
v -0.01853100 -0.09410800 -0.01984300
v -0.01853100 -0.09410800 -0.01984300
v -0.01853100 -0.09410800 -0.01984300
v -0.01853100 -0.09410800 -0.01984300
v -0.01853100 -0.09410800 -0.01984300
v -0.01849400 -0.09413300 -0.01984100
v -0.01849400 -0.09413300 -0.01984100
v -0.01853800 -0.09549300 -0.01973300
v -0.01853800 -0.09549300 -0.01973300
v -0.01851100 -0.09410800 -0.01984300
v -0.01850200 -0.09411200 -0.01984300
v -0.01850200 -0.09411200 -0.01984300
v -0.01849800 -0.09411700 -0.01984300
v -0.01849800 -0.09411700 -0.01984300
v -0.02289800 -0.09604800 -0.01969000
v -0.02289800 -0.09604800 -0.01969000
v -0.02289800 -0.09604800 -0.01969000
v -0.02289800 -0.09604800 -0.01969000
v -0.02297000 -0.09604500 -0.01969000
v -0.02299800 -0.09603000 -0.01969100
v -0.02299800 -0.09603000 -0.01969100
v -0.02227400 -0.09597200 -0.01969600
v -0.02227400 -0.09597200 -0.01969600
v -0.02227400 -0.09597200 -0.01969600
v -0.02227400 -0.09597200 -0.01969600
v -0.02254700 -0.09459500 -0.01980600
v -0.02254700 -0.09459500 -0.01980600
v -0.02254700 -0.09459500 -0.01980600
v -0.02254700 -0.09459500 -0.01980600
v -0.02254700 -0.09459500 -0.01980600
v -0.02192300 -0.09592900 -0.01969900
v -0.02192300 -0.09592900 -0.01969900
v -0.02192300 -0.09592900 -0.01969900
v -0.02222300 -0.09455600 -0.01980900
v -0.02222300 -0.09455600 -0.01980900
v -0.02222300 -0.09455600 -0.01980900
v -0.02157100 -0.09588700 -0.01970200
v -0.02157100 -0.09588700 -0.01970200
v -0.02157100 -0.09588700 -0.01970200
v -0.02191800 -0.09451800 -0.01981200
v -0.02191800 -0.09451800 -0.01981200
v -0.02191800 -0.09451800 -0.01981200
v -0.02129500 -0.09585300 -0.01970500
v -0.02129500 -0.09585300 -0.01970500
v -0.02129500 -0.09585300 -0.01970500
v -0.02161200 -0.09448100 -0.01981500
v -0.02161200 -0.09448100 -0.01981500
v -0.02161200 -0.09448100 -0.01981500
v -0.02101900 -0.09581900 -0.01970800
v -0.02101900 -0.09581900 -0.01970800
v -0.02101900 -0.09581900 -0.01970800
v -0.02126000 -0.09443800 -0.01981800
v -0.02126000 -0.09443800 -0.01981800
v -0.02126000 -0.09443800 -0.01981800
v -0.02066600 -0.09577600 -0.01971100
v -0.02066600 -0.09577600 -0.01971100
v -0.02066600 -0.09577600 -0.01971100
v -0.02090800 -0.09439600 -0.01982100
v -0.02090800 -0.09439600 -0.01982100
v -0.02090800 -0.09439600 -0.01982100
v -0.02031200 -0.09573300 -0.01971400
v -0.02031200 -0.09573300 -0.01971400
v -0.02031200 -0.09573300 -0.01971400
v -0.02052700 -0.09434900 -0.01982500
v -0.02052700 -0.09434900 -0.01982500
v -0.02052700 -0.09434900 -0.01982500
v -0.02003800 -0.09569900 -0.01971700
v -0.02003800 -0.09569900 -0.01971700
v -0.02003800 -0.09569900 -0.01971700
v -0.02014500 -0.09430200 -0.01982800
v -0.02014500 -0.09430200 -0.01982800
v -0.02014500 -0.09430200 -0.01982800
v -0.01976400 -0.09566600 -0.01971900
v -0.01976400 -0.09566600 -0.01971900
v -0.01976400 -0.09566600 -0.01971900
v -0.01979300 -0.09426000 -0.01983200
v -0.01979300 -0.09426000 -0.01983200
v -0.01979300 -0.09426000 -0.01983200
v -0.01944100 -0.09562700 -0.01972300
v -0.01944100 -0.09562700 -0.01972300
v -0.01944100 -0.09562700 -0.01972300
v -0.01944100 -0.09421700 -0.01983500
v -0.01944100 -0.09421700 -0.01983500
v -0.01944100 -0.09421700 -0.01983500
v -0.01911700 -0.09558800 -0.01972600
v -0.01911700 -0.09558800 -0.01972600
v -0.01911700 -0.09558800 -0.01972600
v -0.01887100 -0.09555700 -0.01972800
v -0.01887100 -0.09555700 -0.01972800
v -0.02301600 -0.09600200 -0.01969400
v -0.02301600 -0.09600200 -0.01969400
v -0.02302600 -0.09593200 -0.01969900
v -0.02302600 -0.09593200 -0.01969900
v -0.02302600 -0.09593200 -0.01969900
v -0.02258600 -0.09601000 -0.01969300
v -0.02258600 -0.09601000 -0.01969300
v -0.02258600 -0.09601000 -0.01969300
v -0.02302600 -0.09557500 -0.01972800
v -0.02302600 -0.09557500 -0.01972800
v -0.02302600 -0.09557500 -0.01972800
v -0.02302600 -0.09521700 -0.01975600
v -0.02302600 -0.09521700 -0.01975600
v -0.02302600 -0.09521700 -0.01975600
v -0.02302600 -0.09499400 -0.01977400
v -0.02302600 -0.09499400 -0.01977400
v -0.02302600 -0.09499400 -0.01977400
v -0.02302600 -0.09499400 -0.01977400
v -0.02302600 -0.09499400 -0.01977400
v -0.02287100 -0.09463400 -0.01980300
v -0.02287100 -0.09463400 -0.01980300
v -0.02300900 -0.09469800 -0.01979800
v -0.02297500 -0.09466300 -0.01980000
v -0.02297500 -0.09466300 -0.01980000
v -0.02302600 -0.09477100 -0.01979200
v -0.02302600 -0.09477100 -0.01979200
v -0.02302600 -0.09477100 -0.01979200
v -0.02292300 -0.09464300 -0.01980200
v -0.02292300 -0.09464300 -0.01980200
v -0.02292300 -0.09464300 -0.01980200
v -0.02289700 -0.09463800 -0.01980300
v -0.02289700 -0.09463800 -0.01980300
vn 0.00010200 -0.07963900 -0.99682400
vn 0.00042500 -0.07957800 -0.99682900
vn 0.00021000 -0.07961900 -0.99682500
vn 0.00010200 -0.07963900 -0.99682400
vn 0.00031100 -0.07958100 -0.99682800
vn 0.00021000 -0.07961900 -0.99682500
vn 0.00042500 -0.07957800 -0.99682900
vn 0.00039400 -0.07955900 -0.99683000
vn 0.00016800 -0.07962400 -0.99682500
vn 0.00010200 -0.07963900 -0.99682400
vn 0.00027600 -0.07958300 -0.99682800
vn 0.00016800 -0.07962400 -0.99682500
vn 0.00016700 -0.07956700 -0.99682900
vn 0.00027600 -0.07958300 -0.99682800
vn 0.00016700 -0.07960600 -0.99682600
vn 0.00016700 -0.07956700 -0.99682900
vn 0.00016800 -0.07962400 -0.99682500
vn 0.00039400 -0.07955800 -0.99683000
vn 0.00027600 -0.07958300 -0.99682800
vn 0.00016700 -0.07960700 -0.99682600
vn 0.00031000 -0.07946000 -0.99683800
vn 0.00003800 -0.07954700 -0.99683100
vn 0.00016700 -0.07956700 -0.99682900
vn 0.00003800 -0.07954700 -0.99683100
vn 0.00016700 -0.07960700 -0.99682600
vn 0.00021000 -0.07961900 -0.99682500
vn 0.00031100 -0.07958100 -0.99682800
vn 0.00035700 -0.07958900 -0.99682800
vn 0.00026900 -0.07958800 -0.99682800
vn 0.00028100 -0.07981800 -0.99680900
vn 0.00028500 -0.07952200 -0.99683300
vn 0.00003800 -0.07954700 -0.99683100
vn 0.00032000 -0.07971500 -0.99681800
vn 0.00035100 -0.07936700 -0.99684500
vn 0.00030900 -0.07971300 -0.99681800
vn 0.00028100 -0.07981800 -0.99680900
vn 0.00028500 -0.07952200 -0.99683300
vn 0.00035200 -0.07936700 -0.99684500
vn 0.00028500 -0.07952200 -0.99683300
vn 0.00039400 -0.07955900 -0.99683000
vn 0.00042500 -0.07957800 -0.99682900
vn 0.00032500 -0.07952300 -0.99683300
vn 0.00029500 -0.07957400 -0.99682900
vn 0.00029700 -0.07961800 -0.99682500
vn 0.00036900 -0.08014300 -0.99678300
vn 0.00035100 -0.07936700 -0.99684500
vn 0.00028900 -0.07954900 -0.99683100
vn 0.00025500 -0.07959000 -0.99682800
vn 0.00033000 -0.07950000 -0.99683500
vn 0.00032300 -0.07949500 -0.99683500
vn 0.00028900 -0.07954900 -0.99683100
vn 0.00033000 -0.07950000 -0.99683500
vn 0.00028900 -0.07954900 -0.99683100
vn 0.00031200 -0.07958500 -0.99682800
vn 0.00028700 -0.07954100 -0.99683200
vn 0.00026900 -0.07957100 -0.99682900
vn 0.00024200 -0.07959900 -0.99682700
vn 0.00031200 -0.07958500 -0.99682800
vn 0.00024200 -0.07959900 -0.99682700
vn 0.00027700 -0.07959800 -0.99682700
vn 0.00030300 -0.07963500 -0.99682400
vn 0.00024400 -0.07958000 -0.99682800
vn 0.00031200 -0.07958500 -0.99682800
vn 0.00027700 -0.07959800 -0.99682700
vn 0.00033000 -0.07958500 -0.99682800
vn 0.00045900 -0.07952600 -0.99683300
vn 0.00033000 -0.07958500 -0.99682800
vn 0.00027700 -0.07959800 -0.99682700
vn 0.00045900 -0.07952600 -0.99683300
vn 0.00033000 -0.07958500 -0.99682800
vn 0.00031500 -0.07956500 -0.99683000
vn 0.00045900 -0.07952600 -0.99683300
vn 0.00023300 -0.07960300 -0.99682700
vn 0.00031500 -0.07956500 -0.99683000
vn 0.00023300 -0.07960300 -0.99682700
vn 0.00031500 -0.07956500 -0.99683000
vn 0.00031900 -0.07957900 -0.99682900
vn 0.00023300 -0.07960300 -0.99682700
vn 0.00031900 -0.07957900 -0.99682900
vn 0.00033600 -0.07957200 -0.99682900
vn 0.00022700 -0.07959300 -0.99682700
vn 0.00033600 -0.07957200 -0.99682900
vn 0.00031900 -0.07957900 -0.99682900
vn 0.00033600 -0.07957200 -0.99682900
vn 0.00022700 -0.07959300 -0.99682700
vn 0.00029200 -0.07955900 -0.99683000
vn 0.00022700 -0.07959300 -0.99682700
vn 0.00029200 -0.07955900 -0.99683000
vn 0.00038900 -0.07954600 -0.99683100
vn 0.00022700 -0.07961600 -0.99682600
vn 0.00038900 -0.07954600 -0.99683100
vn 0.00029200 -0.07955900 -0.99683000
vn 0.00024300 -0.07961600 -0.99682600
vn 0.00022700 -0.07961600 -0.99682600
vn 0.00038900 -0.07954600 -0.99683100
vn 0.00022700 -0.07961600 -0.99682600
vn 0.00024300 -0.07961600 -0.99682600
vn 0.00028300 -0.07959800 -0.99682700
vn 0.00024300 -0.07961600 -0.99682600
vn 0.00028300 -0.07959800 -0.99682700
vn 0.00007800 -0.07962200 -0.99682500
vn 0.00028300 -0.07959800 -0.99682700
vn 0.00040300 -0.07958800 -0.99682800
vn 0.00007800 -0.07962200 -0.99682500
vn 0.00040300 -0.07958800 -0.99682800
vn 0.00007800 -0.07962600 -0.99682500
vn 0.00026400 -0.07959400 -0.99682700
vn 0.00040300 -0.07958800 -0.99682800
vn 0.00020300 -0.07960900 -0.99682600
vn 0.00026400 -0.07959400 -0.99682700
vn 0.00026400 -0.07959400 -0.99682700
vn 0.00027700 -0.07960400 -0.99682700
vn 0.00020300 -0.07960900 -0.99682600
vn 0.00027700 -0.07960400 -0.99682700
vn 0.00020300 -0.07960900 -0.99682600
vn 0.00035700 -0.07958900 -0.99682800
vn 0.00027700 -0.07960400 -0.99682700
vn 0.00035700 -0.07958900 -0.99682800
vn 0.00026900 -0.07958800 -0.99682800
vn 0.00026900 -0.07958800 -0.99682800
vn 0.00031100 -0.07958100 -0.99682800
vn 0.00033000 -0.07950000 -0.99683500
vn 0.00032300 -0.07949500 -0.99683500
vn 0.00032300 -0.07949500 -0.99683500
vn 0.00027000 -0.07956000 -0.99683000
vn 0.00025500 -0.07959000 -0.99682800
vn 0.00025500 -0.07959000 -0.99682800
vn 0.00027000 -0.07956000 -0.99683000
vn 0.00028700 -0.07954100 -0.99683200
vn 0.00026900 -0.07957100 -0.99682900
vn 0.00027000 -0.07956000 -0.99683000
vn 0.00028700 -0.07954100 -0.99683200
vn 0.00024200 -0.07959900 -0.99682700
vn 0.00026900 -0.07957100 -0.99682900
vn 0.00030300 -0.07963500 -0.99682400
vn 0.00030300 -0.07963500 -0.99682400
vn 0.00024400 -0.07958000 -0.99682800
vn 0.00040600 -0.07960200 -0.99682700
vn 0.00013700 -0.07955800 -0.99683000
vn 0.00031500 -0.07958400 -0.99682800
vn 0.00040600 -0.07960200 -0.99682700
vn 0.00024400 -0.07958000 -0.99682800
vn 0.00042000 -0.07965100 -0.99682300
vn 0.00042000 -0.07965100 -0.99682300
vn 0.00028100 -0.07954300 -0.99683100
vn 0.00013700 -0.07955800 -0.99683000
vn 0.00042000 -0.07965100 -0.99682300
vn 0.00028100 -0.07954300 -0.99683100
vn 0.00028100 -0.07954300 -0.99683100
vn 0.00013700 -0.07955800 -0.99683000
vn 0.00031500 -0.07958400 -0.99682800
vn 0.00031500 -0.07958400 -0.99682800
vn 0.00040600 -0.07960100 -0.99682700
f 1//1 4//4 10//10
f 11//11 14//14 19//19
f 16//16 13//13 23//23
f 15//15 20//20 25//25
f 6//6 3//3 26//26
f 24//24 22//22 32//32
f 30//30 21//21 36//36
f 31//31 37//37 39//39
f 12//12 17//17 9//9
f 8//8 18//18 40//40
f 7//7 41//41 2//2
f 42//42 44//44 35//35
f 33//33 43//43 45//45
f 34//34 46//46 38//38
f 47//47 51//51 53//53
f 54//54 58//58 63//63
f 64//64 60//60 68//68
f 65//65 67//67 70//70
f 69//69 66//66 72//72
f 71//71 74//74 76//76
f 75//75 73//73 78//78
f 77//77 79//79 83//83
f 82//82 80//80 84//84
f 81//81 85//85 87//87
f 88//88 86//86 92//92
f 89//89 91//91 95//95
f 94//94 90//90 96//96
f 93//93 97//97 99//99
f 100//100 98//98 102//102
f 101//101 104//104 106//106
f 105//105 103//103 108//108
f 107//107 110//110 111//111
f 113//113 109//109 115//115
f 112//112 114//114 117//117
f 118//118 116//116 28//28
f 119//119 29//29 120//120
f 121//121 27//27 5//5
f 52//52 122//122 49//49
f 50//50 123//123 124//124
f 48//48 126//126 127//127
f 128//128 125//125 131//131
f 129//129 132//132 55//55
f 56//56 130//130 134//134
f 57//57 133//133 59//59
f 61//61 135//135 136//136
f 62//62 137//137 142//142
f 143//143 144//144 147//147
f 148//148 145//145 149//149
f 146//146 150//150 139//139
f 140//140 151//151 152//152
f 138//138 153//153 141//141

