# https://github.com/mikedh/trimesh
v 0.14751300 -0.02534300 -0.02050000
v 0.14751300 -0.02534300 -0.02050000
v 0.14742300 -0.02529100 -0.02050000
v 0.14742300 -0.02529100 -0.02050000
v 0.14846000 -0.02505000 -0.02050000
v 0.14846000 -0.02505000 -0.02050000
v 0.14846000 -0.02505000 -0.02050000
v 0.14846000 -0.02505000 -0.02050000
v 0.14654200 -0.02595400 -0.02050000
v 0.14654200 -0.02595400 -0.02050000
v 0.14624600 -0.02591500 -0.02050000
v 0.14624600 -0.02591500 -0.02050000
v 0.14653400 -0.02584600 -0.02050000
v 0.14653400 -0.02584600 -0.02050000
v 0.14624700 -0.02578400 -0.02050000
v 0.14624700 -0.02578400 -0.02050000
v 0.14654600 -0.02573900 -0.02050000
v 0.14654600 -0.02573900 -0.02050000
v 0.14654600 -0.02573900 -0.02050000
v 0.14626700 -0.02565400 -0.02050000
v 0.14626700 -0.02565400 -0.02050000
v 0.14626700 -0.02565400 -0.02050000
v 0.14657400 -0.02563600 -0.02050000
v 0.14657400 -0.02563600 -0.02050000
v 0.14657400 -0.02563600 -0.02050000
v 0.14657400 -0.02563600 -0.02050000
v 0.14778200 -0.02586500 -0.02050000
v 0.14778200 -0.02586500 -0.02050000
v 0.14777400 -0.02575700 -0.02050000
v 0.14777400 -0.02575700 -0.02050000
v 0.14846000 -0.02505000 -0.02050000
v 0.14846000 -0.02505000 -0.02050000
v 0.14846000 -0.02505000 -0.02050000
v 0.14846000 -0.02505000 -0.02050000
v 0.14774800 -0.02565200 -0.02050000
v 0.14774800 -0.02565200 -0.02050000
v 0.14770400 -0.02555400 -0.02050000
v 0.14770400 -0.02555400 -0.02050000
v 0.14723600 -0.02494500 -0.02050000
v 0.14723600 -0.02494500 -0.02050000
v 0.14723600 -0.02494500 -0.02050000
v 0.14716600 -0.02647900 -0.02050000
v 0.14716600 -0.02647900 -0.02050000
v 0.14716600 -0.02647900 -0.02050000
v 0.14716600 -0.02647900 -0.02050000
v 0.14708600 -0.02676700 -0.02050000
v 0.14708600 -0.02676700 -0.02050000
v 0.14708600 -0.02676700 -0.02050000
v 0.14705700 -0.02647100 -0.02050000
v 0.14705700 -0.02647100 -0.02050000
v 0.14705700 -0.02647100 -0.02050000
v 0.14695700 -0.02674700 -0.02050000
v 0.14695700 -0.02674700 -0.02050000
v 0.14695700 -0.02674700 -0.02050000
v 0.14699200 -0.02645700 -0.02050000
v 0.14699200 -0.02645700 -0.02050000
v 0.14699200 -0.02645700 -0.02050000
v 0.14683900 -0.02671200 -0.02050000
v 0.14683900 -0.02671200 -0.02050000
v 0.14689300 -0.02642000 -0.02050000
v 0.14689300 -0.02642000 -0.02050000
v 0.14766300 -0.02549000 -0.02050000
v 0.14766300 -0.02549000 -0.02050000
v 0.14759400 -0.02540900 -0.02050000
v 0.14759400 -0.02540900 -0.02050000
v 0.14732300 -0.02525400 -0.02050000
v 0.14732300 -0.02525400 -0.02050000
v 0.14725900 -0.02524000 -0.02050000
v 0.14725900 -0.02524000 -0.02050000
v 0.14725900 -0.02524000 -0.02050000
v 0.14710300 -0.02494400 -0.02050000
v 0.14710300 -0.02494400 -0.02050000
v 0.14715000 -0.02523200 -0.02050000
v 0.14715000 -0.02523200 -0.02050000
v 0.14715000 -0.02523200 -0.02050000
v 0.14697300 -0.02496100 -0.02050000
v 0.14697300 -0.02496100 -0.02050000
v 0.14697300 -0.02496100 -0.02050000
v 0.14704200 -0.02524300 -0.02050000
v 0.14704200 -0.02524300 -0.02050000
v 0.14704200 -0.02524300 -0.02050000
v 0.14684700 -0.02499600 -0.02050000
v 0.14684700 -0.02499600 -0.02050000
v 0.14684700 -0.02499600 -0.02050000
v 0.14693800 -0.02527200 -0.02050000
v 0.14693800 -0.02527200 -0.02050000
v 0.14693800 -0.02527200 -0.02050000
v 0.14672800 -0.02504900 -0.02050000
v 0.14672800 -0.02504900 -0.02050000
v 0.14672800 -0.02504900 -0.02050000
v 0.14684100 -0.02531900 -0.02050000
v 0.14684100 -0.02531900 -0.02050000
v 0.14684100 -0.02531900 -0.02050000
v 0.14661800 -0.02511800 -0.02050000
v 0.14661800 -0.02511800 -0.02050000
v 0.14661800 -0.02511800 -0.02050000
v 0.14675300 -0.02538100 -0.02050000
v 0.14675300 -0.02538100 -0.02050000
v 0.14675300 -0.02538100 -0.02050000
v 0.14682100 -0.02670500 -0.02050000
v 0.14682100 -0.02670500 -0.02050000
v 0.14670400 -0.02664900 -0.02050000
v 0.14670400 -0.02664900 -0.02050000
v 0.14680300 -0.02636800 -0.02050000
v 0.14659900 -0.02657900 -0.02050000
v 0.14659900 -0.02657900 -0.02050000
v 0.14672200 -0.02630200 -0.02050000
v 0.14672200 -0.02630200 -0.02050000
v 0.14672200 -0.02630200 -0.02050000
v 0.14650400 -0.02649400 -0.02050000
v 0.14650400 -0.02649400 -0.02050000
v 0.14650400 -0.02649400 -0.02050000
v 0.14665300 -0.02622100 -0.02050000
v 0.14665300 -0.02622100 -0.02050000
v 0.14665300 -0.02622100 -0.02050000
v 0.14642200 -0.02639700 -0.02050000
v 0.14642200 -0.02639700 -0.02050000
v 0.14642200 -0.02639700 -0.02050000
v 0.14661200 -0.02615700 -0.02050000
v 0.14661200 -0.02615700 -0.02050000
v 0.14661200 -0.02615700 -0.02050000
v 0.14635300 -0.02628800 -0.02050000
v 0.14635300 -0.02628800 -0.02050000
v 0.14656900 -0.02605900 -0.02050000
v 0.14630000 -0.02617000 -0.02050000
v 0.14626400 -0.02604400 -0.02050000
v 0.14777000 -0.02597300 -0.02050000
v 0.14777000 -0.02597300 -0.02050000
v 0.14800700 -0.02619200 -0.02050000
v 0.14800700 -0.02619200 -0.02050000
v 0.14800700 -0.02619200 -0.02050000
v 0.14774200 -0.02607500 -0.02050000
v 0.14774200 -0.02607500 -0.02050000
v 0.14756300 -0.02633000 -0.02050000
v 0.14756300 -0.02633000 -0.02050000
v 0.14756300 -0.02633000 -0.02050000
v 0.14756300 -0.02633000 -0.02050000
v 0.14770000 -0.02659200 -0.02050000
v 0.14770000 -0.02659200 -0.02050000
v 0.14747500 -0.02639200 -0.02050000
v 0.14759100 -0.02666000 -0.02050000
v 0.14759100 -0.02666000 -0.02050000
v 0.14737800 -0.02643900 -0.02050000
v 0.14737800 -0.02643900 -0.02050000
v 0.14747200 -0.02671400 -0.02050000
v 0.14747200 -0.02671400 -0.02050000
v 0.14747200 -0.02671400 -0.02050000
v 0.14727400 -0.02646800 -0.02050000
v 0.14727400 -0.02646800 -0.02050000
v 0.14727400 -0.02646800 -0.02050000
v 0.14734700 -0.02675000 -0.02050000
v 0.14734700 -0.02675000 -0.02050000
v 0.14734700 -0.02675000 -0.02050000
v 0.14721700 -0.02676800 -0.02050000
v 0.14721700 -0.02676800 -0.02050000
v 0.14630200 -0.02553700 -0.02050000
v 0.14630200 -0.02553700 -0.02050000
v 0.14630900 -0.02551900 -0.02050000
v 0.14630900 -0.02551900 -0.02050000
v 0.14630900 -0.02551900 -0.02050000
v 0.14661900 -0.02554200 -0.02050000
v 0.14661900 -0.02554200 -0.02050000
v 0.14661900 -0.02554200 -0.02050000
v 0.14636500 -0.02540200 -0.02050000
v 0.14636500 -0.02540200 -0.02050000
v 0.14667900 -0.02545600 -0.02050000
v 0.14667900 -0.02545600 -0.02050000
v 0.14643500 -0.02529700 -0.02050000
v 0.14652000 -0.02520100 -0.02050000
v 0.14652000 -0.02520100 -0.02050000
v 0.14769700 -0.02616900 -0.02050000
v 0.14769700 -0.02616900 -0.02050000
v 0.14769700 -0.02616900 -0.02050000
v 0.14795100 -0.02630900 -0.02050000
v 0.14795100 -0.02630900 -0.02050000
v 0.14763700 -0.02625500 -0.02050000
v 0.14763700 -0.02625500 -0.02050000
v 0.14763700 -0.02625500 -0.02050000
v 0.14788100 -0.02641400 -0.02050000
v 0.14788100 -0.02641400 -0.02050000
v 0.14788100 -0.02641400 -0.02050000
v 0.14779700 -0.02650900 -0.02050000
v 0.14779700 -0.02650900 -0.02050000
v 0.14723600 -0.02494500 -0.02040000
v 0.14723600 -0.02494500 -0.02040000
v 0.14723600 -0.02494500 -0.02040000
v 0.14710300 -0.02494400 -0.02040000
v 0.14710300 -0.02494400 -0.02040000
v 0.14710300 -0.02494400 -0.02040000
v 0.14715000 -0.02523200 -0.02040000
v 0.14715000 -0.02523200 -0.02040000
v 0.14715000 -0.02523200 -0.02040000
v 0.14751300 -0.02534300 -0.02040000
v 0.14751300 -0.02534300 -0.02040000
v 0.14759400 -0.02540900 -0.02040000
v 0.14846000 -0.02505000 -0.02040000
v 0.14846000 -0.02505000 -0.02040000
v 0.14846000 -0.02505000 -0.02040000
v 0.14846000 -0.02505000 -0.02040000
v 0.14846000 -0.02505000 -0.02040000
v 0.14846000 -0.02505000 -0.02040000
v 0.14774800 -0.02565200 -0.02040000
v 0.14777400 -0.02575700 -0.02040000
v 0.14777400 -0.02575700 -0.02040000
v 0.14778200 -0.02586500 -0.02040000
v 0.14778200 -0.02586500 -0.02040000
v 0.14778200 -0.02586500 -0.02040000
v 0.14800700 -0.02619200 -0.02040000
v 0.14800700 -0.02619200 -0.02040000
v 0.14800700 -0.02619200 -0.02040000
v 0.14704200 -0.02524300 -0.02040000
v 0.14704200 -0.02524300 -0.02040000
v 0.14704200 -0.02524300 -0.02040000
v 0.14697300 -0.02496100 -0.02040000
v 0.14697300 -0.02496100 -0.02040000
v 0.14697300 -0.02496100 -0.02040000
v 0.14693800 -0.02527200 -0.02040000
v 0.14693800 -0.02527200 -0.02040000
v 0.14684700 -0.02499600 -0.02040000
v 0.14684700 -0.02499600 -0.02040000
v 0.14684100 -0.02531900 -0.02040000
v 0.14684100 -0.02531900 -0.02040000
v 0.14725900 -0.02524000 -0.02040000
v 0.14725900 -0.02524000 -0.02040000
v 0.14732300 -0.02525400 -0.02040000
v 0.14732300 -0.02525400 -0.02040000
v 0.14732300 -0.02525400 -0.02040000
v 0.14742300 -0.02529100 -0.02040000
v 0.14742300 -0.02529100 -0.02040000
v 0.14766300 -0.02549000 -0.02040000
v 0.14766300 -0.02549000 -0.02040000
v 0.14770400 -0.02555400 -0.02040000
v 0.14770400 -0.02555400 -0.02040000
v 0.14670400 -0.02664900 -0.02040000
v 0.14670400 -0.02664900 -0.02040000
v 0.14670400 -0.02664900 -0.02040000
v 0.14689300 -0.02642000 -0.02040000
v 0.14689300 -0.02642000 -0.02040000
v 0.14689300 -0.02642000 -0.02040000
v 0.14689300 -0.02642000 -0.02040000
v 0.14680300 -0.02636800 -0.02040000
v 0.14680300 -0.02636800 -0.02040000
v 0.14680300 -0.02636800 -0.02040000
v 0.14680300 -0.02636800 -0.02040000
v 0.14682100 -0.02670500 -0.02040000
v 0.14682100 -0.02670500 -0.02040000
v 0.14683900 -0.02671200 -0.02040000
v 0.14683900 -0.02671200 -0.02040000
v 0.14683900 -0.02671200 -0.02040000
v 0.14699200 -0.02645700 -0.02040000
v 0.14699200 -0.02645700 -0.02040000
v 0.14699200 -0.02645700 -0.02040000
v 0.14695700 -0.02674700 -0.02040000
v 0.14695700 -0.02674700 -0.02040000
v 0.14695700 -0.02674700 -0.02040000
v 0.14705700 -0.02647100 -0.02040000
v 0.14705700 -0.02647100 -0.02040000
v 0.14708600 -0.02676700 -0.02040000
v 0.14708600 -0.02676700 -0.02040000
v 0.14708600 -0.02676700 -0.02040000
v 0.14716600 -0.02647900 -0.02040000
v 0.14716600 -0.02647900 -0.02040000
v 0.14721700 -0.02676800 -0.02040000
v 0.14721700 -0.02676800 -0.02040000
v 0.14721700 -0.02676800 -0.02040000
v 0.14727400 -0.02646800 -0.02040000
v 0.14727400 -0.02646800 -0.02040000
v 0.14734700 -0.02675000 -0.02040000
v 0.14734700 -0.02675000 -0.02040000
v 0.14734700 -0.02675000 -0.02040000
v 0.14737800 -0.02643900 -0.02040000
v 0.14737800 -0.02643900 -0.02040000
v 0.14747200 -0.02671400 -0.02040000
v 0.14747200 -0.02671400 -0.02040000
v 0.14747500 -0.02639200 -0.02040000
v 0.14747500 -0.02639200 -0.02040000
v 0.14653400 -0.02584600 -0.02040000
v 0.14653400 -0.02584600 -0.02040000
v 0.14653400 -0.02584600 -0.02040000
v 0.14624600 -0.02591500 -0.02040000
v 0.14624600 -0.02591500 -0.02040000
v 0.14654200 -0.02595400 -0.02040000
v 0.14654200 -0.02595400 -0.02040000
v 0.14654200 -0.02595400 -0.02040000
v 0.14626400 -0.02604400 -0.02040000
v 0.14626400 -0.02604400 -0.02040000
v 0.14656900 -0.02605900 -0.02040000
v 0.14656900 -0.02605900 -0.02040000
v 0.14656900 -0.02605900 -0.02040000
v 0.14630000 -0.02617000 -0.02040000
v 0.14630000 -0.02617000 -0.02040000
v 0.14630000 -0.02617000 -0.02040000
v 0.14661200 -0.02615700 -0.02040000
v 0.14661200 -0.02615700 -0.02040000
v 0.14661200 -0.02615700 -0.02040000
v 0.14635300 -0.02628800 -0.02040000
v 0.14635300 -0.02628800 -0.02040000
v 0.14635300 -0.02628800 -0.02040000
v 0.14665300 -0.02622100 -0.02040000
v 0.14665300 -0.02622100 -0.02040000
v 0.14665300 -0.02622100 -0.02040000
v 0.14642200 -0.02639700 -0.02040000
v 0.14642200 -0.02639700 -0.02040000
v 0.14642200 -0.02639700 -0.02040000
v 0.14672200 -0.02630200 -0.02040000
v 0.14672200 -0.02630200 -0.02040000
v 0.14650400 -0.02649400 -0.02040000
v 0.14650400 -0.02649400 -0.02040000
v 0.14659900 -0.02657900 -0.02040000
v 0.14659900 -0.02657900 -0.02040000
v 0.14759100 -0.02666000 -0.02040000
v 0.14759100 -0.02666000 -0.02040000
v 0.14770000 -0.02659200 -0.02040000
v 0.14770000 -0.02659200 -0.02040000
v 0.14770000 -0.02659200 -0.02040000
v 0.14756300 -0.02633000 -0.02040000
v 0.14756300 -0.02633000 -0.02040000
v 0.14779700 -0.02650900 -0.02040000
v 0.14779700 -0.02650900 -0.02040000
v 0.14763700 -0.02625500 -0.02040000
v 0.14788100 -0.02641400 -0.02040000
v 0.14788100 -0.02641400 -0.02040000
v 0.14769700 -0.02616900 -0.02040000
v 0.14769700 -0.02616900 -0.02040000
v 0.14795100 -0.02630900 -0.02040000
v 0.14795100 -0.02630900 -0.02040000
v 0.14774200 -0.02607500 -0.02040000
v 0.14777000 -0.02597300 -0.02040000
v 0.14777000 -0.02597300 -0.02040000
v 0.14661900 -0.02554200 -0.02040000
v 0.14661900 -0.02554200 -0.02040000
v 0.14661900 -0.02554200 -0.02040000
v 0.14630900 -0.02551900 -0.02040000
v 0.14630900 -0.02551900 -0.02040000
v 0.14630900 -0.02551900 -0.02040000
v 0.14657400 -0.02563600 -0.02040000
v 0.14657400 -0.02563600 -0.02040000
v 0.14657400 -0.02563600 -0.02040000
v 0.14630200 -0.02553700 -0.02040000
v 0.14630200 -0.02553700 -0.02040000
v 0.14654600 -0.02573900 -0.02040000
v 0.14626700 -0.02565400 -0.02040000
v 0.14626700 -0.02565400 -0.02040000
v 0.14624700 -0.02578400 -0.02040000
v 0.14624700 -0.02578400 -0.02040000
v 0.14672800 -0.02504900 -0.02040000
v 0.14672800 -0.02504900 -0.02040000
v 0.14661800 -0.02511800 -0.02040000
v 0.14661800 -0.02511800 -0.02040000
v 0.14675300 -0.02538100 -0.02040000
v 0.14675300 -0.02538100 -0.02040000
v 0.14652000 -0.02520100 -0.02040000
v 0.14652000 -0.02520100 -0.02040000
v 0.14667900 -0.02545600 -0.02040000
v 0.14667900 -0.02545600 -0.02040000
v 0.14643500 -0.02529700 -0.02040000
v 0.14643500 -0.02529700 -0.02040000
v 0.14636500 -0.02540200 -0.02040000
v 0.14636500 -0.02540200 -0.02040000
v 0.14630900 -0.02551900 -0.02050000
v 0.14630900 -0.02551900 -0.02040000
v 0.14636500 -0.02540200 -0.02040000
v 0.14636500 -0.02540200 -0.02050000
v 0.14643500 -0.02529700 -0.02040000
v 0.14643500 -0.02529700 -0.02050000
v 0.14652000 -0.02520100 -0.02040000
v 0.14652000 -0.02520100 -0.02050000
v 0.14661800 -0.02511800 -0.02040000
v 0.14661800 -0.02511800 -0.02040000
v 0.14652000 -0.02520100 -0.02050000
v 0.14661800 -0.02511800 -0.02050000
v 0.14672800 -0.02504900 -0.02040000
v 0.14672800 -0.02504900 -0.02050000
v 0.14684700 -0.02499600 -0.02040000
v 0.14684700 -0.02499600 -0.02050000
v 0.14697300 -0.02496100 -0.02040000
v 0.14697300 -0.02496100 -0.02050000
v 0.14710300 -0.02494400 -0.02040000
v 0.14710300 -0.02494400 -0.02050000
v 0.14723600 -0.02494500 -0.02040000
v 0.14723600 -0.02494500 -0.02050000
v 0.14846000 -0.02505000 -0.02050000
v 0.14846000 -0.02505000 -0.02040000
v 0.14800700 -0.02619200 -0.02050000
v 0.14846000 -0.02505000 -0.02050000
v 0.14800700 -0.02619200 -0.02040000
v 0.14846000 -0.02505000 -0.02040000
v 0.14795100 -0.02630900 -0.02040000
v 0.14795100 -0.02630900 -0.02050000
v 0.14788100 -0.02641400 -0.02040000
v 0.14788100 -0.02641400 -0.02050000
v 0.14779700 -0.02650900 -0.02040000
v 0.14779700 -0.02650900 -0.02050000
v 0.14770000 -0.02659200 -0.02040000
v 0.14770000 -0.02659200 -0.02050000
v 0.14759100 -0.02666000 -0.02040000
v 0.14759100 -0.02666000 -0.02050000
v 0.14747200 -0.02671400 -0.02040000
v 0.14747200 -0.02671400 -0.02050000
v 0.14734700 -0.02675000 -0.02040000
v 0.14734700 -0.02675000 -0.02050000
v 0.14721700 -0.02676800 -0.02040000
v 0.14721700 -0.02676800 -0.02050000
v 0.14708600 -0.02676700 -0.02040000
v 0.14708600 -0.02676700 -0.02050000
v 0.14695700 -0.02674700 -0.02040000
v 0.14695700 -0.02674700 -0.02050000
v 0.14683900 -0.02671200 -0.02040000
v 0.14683900 -0.02671200 -0.02050000
v 0.14682100 -0.02670500 -0.02040000
v 0.14682100 -0.02670500 -0.02050000
v 0.14670400 -0.02664900 -0.02040000
v 0.14670400 -0.02664900 -0.02050000
v 0.14659900 -0.02657900 -0.02040000
v 0.14659900 -0.02657900 -0.02050000
v 0.14650400 -0.02649400 -0.02040000
v 0.14650400 -0.02649400 -0.02050000
v 0.14642200 -0.02639700 -0.02040000
v 0.14642200 -0.02639700 -0.02050000
v 0.14635300 -0.02628800 -0.02040000
v 0.14635300 -0.02628800 -0.02050000
v 0.14630000 -0.02617000 -0.02040000
v 0.14630000 -0.02617000 -0.02050000
v 0.14626400 -0.02604400 -0.02040000
v 0.14626400 -0.02604400 -0.02050000
v 0.14624600 -0.02591500 -0.02040000
v 0.14624600 -0.02591500 -0.02050000
v 0.14624700 -0.02578400 -0.02040000
v 0.14624700 -0.02578400 -0.02050000
v 0.14626700 -0.02565400 -0.02040000
v 0.14626700 -0.02565400 -0.02050000
v 0.14630200 -0.02553700 -0.02040000
v 0.14630200 -0.02553700 -0.02050000
v 0.14654600 -0.02573900 -0.02050000
v 0.14654600 -0.02573900 -0.02040000
v 0.14653400 -0.02584600 -0.02040000
v 0.14653400 -0.02584600 -0.02040000
v 0.14654600 -0.02573900 -0.02050000
v 0.14653400 -0.02584600 -0.02050000
v 0.14654200 -0.02595400 -0.02040000
v 0.14654200 -0.02595400 -0.02050000
v 0.14656900 -0.02605900 -0.02040000
v 0.14656900 -0.02605900 -0.02050000
v 0.14661200 -0.02615700 -0.02040000
v 0.14661200 -0.02615700 -0.02050000
v 0.14665300 -0.02622100 -0.02040000
v 0.14665300 -0.02622100 -0.02050000
v 0.14672200 -0.02630200 -0.02040000
v 0.14672200 -0.02630200 -0.02050000
v 0.14680300 -0.02636800 -0.02040000
v 0.14680300 -0.02636800 -0.02050000
v 0.14689300 -0.02642000 -0.02040000
v 0.14689300 -0.02642000 -0.02050000
v 0.14699200 -0.02645700 -0.02040000
v 0.14699200 -0.02645700 -0.02050000
v 0.14705700 -0.02647100 -0.02040000
v 0.14705700 -0.02647100 -0.02050000
v 0.14716600 -0.02647900 -0.02040000
v 0.14716600 -0.02647900 -0.02050000
v 0.14727400 -0.02646800 -0.02040000
v 0.14727400 -0.02646800 -0.02050000
v 0.14737800 -0.02643900 -0.02040000
v 0.14737800 -0.02643900 -0.02050000
v 0.14747500 -0.02639200 -0.02040000
v 0.14747500 -0.02639200 -0.02050000
v 0.14756300 -0.02633000 -0.02040000
v 0.14756300 -0.02633000 -0.02050000
v 0.14763700 -0.02625500 -0.02040000
v 0.14763700 -0.02625500 -0.02050000
v 0.14769700 -0.02616900 -0.02040000
v 0.14769700 -0.02616900 -0.02050000
v 0.14774200 -0.02607500 -0.02040000
v 0.14774200 -0.02607500 -0.02050000
v 0.14777000 -0.02597300 -0.02040000
v 0.14777000 -0.02597300 -0.02050000
v 0.14778200 -0.02586500 -0.02040000
v 0.14778200 -0.02586500 -0.02050000
v 0.14777400 -0.02575700 -0.02040000
v 0.14777400 -0.02575700 -0.02050000
v 0.14774800 -0.02565200 -0.02040000
v 0.14774800 -0.02565200 -0.02050000
v 0.14770400 -0.02555400 -0.02040000
v 0.14770400 -0.02555400 -0.02050000
v 0.14766300 -0.02549000 -0.02040000
v 0.14766300 -0.02549000 -0.02050000
v 0.14759400 -0.02540900 -0.02040000
v 0.14759400 -0.02540900 -0.02050000
v 0.14751300 -0.02534300 -0.02040000
v 0.14751300 -0.02534300 -0.02040000
v 0.14759400 -0.02540900 -0.02050000
v 0.14751300 -0.02534300 -0.02050000
v 0.14742300 -0.02529100 -0.02040000
v 0.14742300 -0.02529100 -0.02050000
v 0.14732300 -0.02525400 -0.02040000
v 0.14732300 -0.02525400 -0.02050000
v 0.14725900 -0.02524000 -0.02040000
v 0.14725900 -0.02524000 -0.02050000
v 0.14715000 -0.02523200 -0.02040000
v 0.14715000 -0.02523200 -0.02050000
v 0.14704200 -0.02524300 -0.02040000
v 0.14704200 -0.02524300 -0.02050000
v 0.14693800 -0.02527200 -0.02040000
v 0.14693800 -0.02527200 -0.02050000
v 0.14684100 -0.02531900 -0.02040000
v 0.14684100 -0.02531900 -0.02050000
v 0.14675300 -0.02538100 -0.02040000
v 0.14675300 -0.02538100 -0.02050000
v 0.14667900 -0.02545600 -0.02040000
v 0.14667900 -0.02545600 -0.02050000
v 0.14661900 -0.02554200 -0.02040000
v 0.14661900 -0.02554200 -0.02050000
v 0.14657400 -0.02563600 -0.02040000
v 0.14657400 -0.02563600 -0.02050000
vn 0.00000500 -0.00000100 -1.00000000
vn 0.00000000 0.00000000 -1.00000000
vn 0.00000000 0.00000000 -1.00000000
vn -0.00000200 0.00000000 -1.00000000
vn 0.00000500 -0.00000100 -1.00000000
vn 0.00000000 0.00000000 -1.00000000
vn -0.00000200 0.00000000 -1.00000000
vn 0.00000200 -0.00000000 -1.00000000
vn 0.00000000 0.00000000 -1.00000000
vn 0.00001400 -0.00000100 -1.00000000
vn 0.00001400 -0.00000100 -1.00000000
vn 0.00000000 0.00000000 -1.00000000
vn 0.00000000 0.00000000 -1.00000000
vn 0.00001400 -0.00000100 -1.00000000
vn -0.00001200 0.00000100 -1.00000000
vn 0.00000000 0.00000000 -1.00000000
vn 0.00000000 0.00000000 -1.00000000
vn 0.00000700 -0.00000100 -1.00000000
vn -0.00001200 0.00000100 -1.00000000
vn 0.00000700 -0.00000100 -1.00000000
vn -0.00001200 0.00000100 -1.00000000
vn -0.00000600 0.00000100 -1.00000000
vn -0.00000600 0.00000100 -1.00000000
vn 0.00000700 -0.00000100 -1.00000000
vn 0.00001000 -0.00000100 -1.00000000
vn 0.00000400 -0.00000000 -1.00000000
vn -0.00004500 0.00000500 -1.00000000
vn 0.00000000 0.00000000 -1.00000000
vn -0.00004500 0.00000500 -1.00000000
vn 0.00001500 -0.00000200 -1.00000000
vn -0.00004500 0.00000500 -1.00000000
vn 0.00000900 -0.00000100 -1.00000000
vn 0.00000000 0.00000000 -1.00000000
vn 0.00001500 -0.00000200 -1.00000000
vn 0.00001500 -0.00000200 -1.00000000
vn 0.00000900 -0.00000100 -1.00000000
vn 0.00000900 -0.00000100 -1.00000000
vn 0.00000000 0.00000000 -1.00000000
vn 0.00000000 0.00000000 -1.00000000
vn -0.00000200 0.00000000 -1.00000000
vn -0.00000500 0.00000000 -1.00000000
vn 0.00001500 -0.00000200 -1.00000000
vn -0.00002900 0.00000300 -1.00000000
vn 0.00000000 0.00000000 -1.00000000
vn -0.00000300 0.00000000 -1.00000000
vn -0.00000300 0.00000000 -1.00000000
vn 0.00000000 0.00000000 -1.00000000
vn 0.00001100 -0.00000100 -1.00000000
vn 0.00001100 -0.00000100 -1.00000000
vn 0.00000000 0.00000000 -1.00000000
vn -0.00004700 0.00000500 -1.00000000
vn 0.00001100 -0.00000100 -1.00000000
vn 0.00001600 -0.00000200 -1.00000000
vn -0.00004700 0.00000500 -1.00000000
vn 0.00000000 0.00000000 -1.00000000
vn -0.00004700 0.00000500 -1.00000000
vn 0.00001600 -0.00000200 -1.00000000
vn 0.00001600 -0.00000200 -1.00000000
vn 0.00000000 0.00000000 -1.00000000
vn 0.00000600 -0.00000100 -1.00000000
vn 0.00000000 0.00000000 -1.00000000
vn 0.00000000 0.00000000 -1.00000000
vn 0.00000200 -0.00000000 -1.00000000
vn 0.00000500 -0.00000100 -1.00000000
vn 0.00000200 -0.00000000 -1.00000000
vn 0.00000000 0.00000000 -1.00000000
vn -0.00000500 0.00000000 -1.00000000
vn 0.00000000 0.00000000 -1.00000000
vn 0.00000300 -0.00000000 -1.00000000
vn -0.00000500 0.00000000 -1.00000000
vn 0.00000000 0.00000000 -1.00000000
vn 0.00000300 -0.00000000 -1.00000000
vn 0.00000300 -0.00000000 -1.00000000
vn 0.00000000 0.00000000 -1.00000000
vn -0.00000500 0.00000100 -1.00000000
vn 0.00000000 0.00000000 -1.00000000
vn -0.00000500 0.00000100 -1.00000000
vn 0.00002400 -0.00000200 -1.00000000
vn -0.00000500 0.00000100 -1.00000000
vn -0.00002500 0.00000300 -1.00000000
vn 0.00002400 -0.00000200 -1.00000000
vn -0.00002500 0.00000300 -1.00000000
vn 0.00002400 -0.00000200 -1.00000000
vn 0.00002400 -0.00000200 -1.00000000
vn 0.00002400 -0.00000200 -1.00000000
vn -0.00000700 0.00000100 -1.00000000
vn -0.00002500 0.00000300 -1.00000000
vn 0.00000000 0.00000000 -1.00000000
vn -0.00000700 0.00000100 -1.00000000
vn 0.00002400 -0.00000200 -1.00000000
vn -0.00000700 0.00000100 -1.00000000
vn 0.00000700 -0.00000100 -1.00000000
vn 0.00000000 0.00000000 -1.00000000
vn -0.00001200 0.00000100 -1.00000000
vn 0.00000000 0.00000000 -1.00000000
vn 0.00000700 -0.00000100 -1.00000000
vn 0.00000700 -0.00000100 -1.00000000
vn 0.00000000 0.00000000 -1.00000000
vn -0.00001200 0.00000100 -1.00000000
vn 0.00000000 0.00000000 -1.00000000
vn 0.00000600 -0.00000100 -1.00000000
vn 0.00000000 0.00000000 -1.00000000
vn 0.00000600 -0.00000100 -1.00000000
vn 0.00000000 0.00000000 -1.00000000
vn 0.00000000 0.00000000 -1.00000000
vn -0.00000600 0.00000100 -1.00000000
vn 0.00000000 0.00000000 -1.00000000
vn -0.00000600 0.00000100 -1.00000000
vn 0.00002900 -0.00000300 -1.00000000
vn 0.00002900 -0.00000300 -1.00000000
vn -0.00001800 0.00000200 -1.00000000
vn -0.00000600 0.00000100 -1.00000000
vn 0.00004100 -0.00000400 -1.00000000
vn 0.00002900 -0.00000300 -1.00000000
vn -0.00001800 0.00000200 -1.00000000
vn -0.00001800 0.00000200 -1.00000000
vn 0.00004100 -0.00000400 -1.00000000
vn -0.00001200 0.00000100 -1.00000000
vn 0.00004100 -0.00000400 -1.00000000
vn -0.00001200 0.00000100 -1.00000000
vn 0.00000000 0.00000000 -1.00000000
vn 0.00000000 0.00000000 -1.00000000
vn -0.00001200 0.00000100 -1.00000000
vn 0.00000000 0.00000000 -1.00000000
vn 0.00000000 0.00000000 -1.00000000
vn 0.00000000 0.00000000 -1.00000000
vn 0.00000000 0.00000000 -1.00000000
vn 0.00000700 -0.00000100 -1.00000000
vn 0.00000000 0.00000000 -1.00000000
vn 0.00000700 -0.00000100 -1.00000000
vn 0.00000700 -0.00000100 -1.00000000
vn 0.00000700 -0.00000100 -1.00000000
vn 0.00000700 -0.00000100 -1.00000000
vn 0.00000800 -0.00000100 -1.00000000
vn 0.00000600 -0.00000100 -1.00000000
vn -0.00001200 0.00000100 -1.00000000
vn 0.00000000 0.00000000 -1.00000000
vn 0.00000000 0.00000000 -1.00000000
vn 0.00000600 -0.00000100 -1.00000000
vn 0.00000000 0.00000000 -1.00000000
vn 0.00000000 0.00000000 -1.00000000
vn -0.00001200 0.00000100 -1.00000000
vn -0.00001200 0.00000100 -1.00000000
vn 0.00000000 0.00000000 -1.00000000
vn -0.00001200 0.00000100 -1.00000000
vn 0.00000000 0.00000000 -1.00000000
vn 0.00001800 -0.00000200 -1.00000000
vn 0.00000000 0.00000000 -1.00000000
vn 0.00001800 -0.00000200 -1.00000000
vn -0.00002900 0.00000300 -1.00000000
vn -0.00002900 0.00000300 -1.00000000
vn 0.00001800 -0.00000200 -1.00000000
vn 0.00001500 -0.00000200 -1.00000000
vn 0.00001500 -0.00000200 -1.00000000
vn -0.00000300 0.00000000 -1.00000000
vn -0.00000600 0.00000100 -1.00000000
vn 0.00001000 -0.00000100 -1.00000000
vn 0.00000400 -0.00000000 -1.00000000
vn 0.00000000 0.00000000 -1.00000000
vn 0.00001000 -0.00000100 -1.00000000
vn 0.00000000 0.00000000 -1.00000000
vn -0.00000900 0.00000100 -1.00000000
vn 0.00000400 -0.00000000 -1.00000000
vn -0.00000900 0.00000100 -1.00000000
vn 0.00000000 0.00000000 -1.00000000
vn -0.00000900 0.00000100 -1.00000000
vn 0.00000000 0.00000000 -1.00000000
vn 0.00000000 0.00000000 -1.00000000
vn 0.00000000 0.00000000 -1.00000000
vn -0.00001200 0.00000100 -1.00000000
vn 0.00000400 -0.00000000 -1.00000000
vn 0.00000000 0.00000000 -1.00000000
vn 0.00000700 -0.00000100 -1.00000000
vn 0.00000400 -0.00000000 -1.00000000
vn 0.00000000 0.00000000 -1.00000000
vn 0.00000000 0.00000000 -1.00000000
vn 0.00000800 -0.00000100 -1.00000000
vn 0.00000400 -0.00000000 -1.00000000
vn 0.00000000 0.00000000 -1.00000000
vn 0.00000800 -0.00000100 -1.00000000
vn -0.00001200 0.00000100 -1.00000000
vn -0.00001200 0.00000100 -1.00000000
vn 0.00000600 -0.00000100 -1.00000000
vn -0.00002400 0.00000200 1.00000000
vn 0.00000000 0.00000000 1.00000000
vn 0.00001100 -0.00000100 1.00000000
vn 0.00002900 -0.00000300 1.00000000
vn -0.00002400 0.00000200 1.00000000
vn -0.00000300 0.00000000 1.00000000
vn 0.00002900 -0.00000300 1.00000000
vn -0.00002400 0.00000200 1.00000000
vn 0.00000000 0.00000000 1.00000000
vn -0.00001300 0.00000100 1.00000000
vn 0.00000000 0.00000000 1.00000000
vn 0.00000000 0.00000000 1.00000000
vn 0.00000000 0.00000000 1.00000000
vn -0.00000200 0.00000000 1.00000000
vn 0.00002300 -0.00000200 1.00000000
vn -0.00001300 0.00000100 1.00000000
vn 0.00001100 -0.00000100 1.00000000
vn 0.00000300 -0.00000000 1.00000000
vn 0.00000000 0.00000000 1.00000000
vn 0.00002300 -0.00000200 1.00000000
vn 0.00000000 0.00000000 1.00000000
vn -0.00000200 0.00000000 1.00000000
vn 0.00002300 -0.00000200 1.00000000
vn 0.00003200 -0.00000300 1.00000000
vn -0.00000200 0.00000000 1.00000000
vn 0.00000000 0.00000000 1.00000000
vn 0.00003200 -0.00000300 1.00000000
vn -0.00000300 0.00000000 1.00000000
vn 0.00002900 -0.00000300 1.00000000
vn 0.00000000 0.00000000 1.00000000
vn -0.00000300 0.00000000 1.00000000
vn 0.00000000 0.00000000 1.00000000
vn -0.00001200 0.00000100 1.00000000
vn -0.00001200 0.00000100 1.00000000
vn 0.00000000 0.00000000 1.00000000
vn 0.00000000 0.00000000 1.00000000
vn -0.00001200 0.00000100 1.00000000
vn -0.00000600 0.00000100 1.00000000
vn 0.00000000 0.00000000 1.00000000
vn 0.00001100 -0.00000100 1.00000000
vn 0.00000000 0.00000000 1.00000000
vn 0.00000000 0.00000000 1.00000000
vn 0.00001100 -0.00000100 1.00000000
vn 0.00001100 -0.00000100 1.00000000
vn 0.00001100 -0.00000100 1.00000000
vn -0.00001300 0.00000100 1.00000000
vn 0.00000300 -0.00000000 1.00000000
vn 0.00000000 0.00000000 1.00000000
vn 0.00000300 -0.00000000 1.00000000
vn 0.00000000 0.00000000 1.00000000
vn 0.00000000 0.00000000 1.00000000
vn 0.00000400 -0.00000000 1.00000000
vn -0.00000600 0.00000100 1.00000000
vn 0.00000000 0.00000000 1.00000000
vn 0.00000400 -0.00000000 1.00000000
vn -0.00002900 0.00000300 1.00000000
vn 0.00004000 -0.00000400 1.00000000
vn 0.00000400 -0.00000000 1.00000000
vn 0.00000600 -0.00000100 1.00000000
vn -0.00000600 0.00000100 1.00000000
vn 0.00000000 0.00000000 1.00000000
vn 0.00004000 -0.00000400 1.00000000
vn 0.00000000 0.00000000 1.00000000
vn -0.00002900 0.00000300 1.00000000
vn 0.00004000 -0.00000400 1.00000000
vn 0.00000800 -0.00000100 1.00000000
vn -0.00002900 0.00000300 1.00000000
vn 0.00000000 0.00000000 1.00000000
vn 0.00000800 -0.00000100 1.00000000
vn 0.00000000 0.00000000 1.00000000
vn 0.00000800 -0.00000100 1.00000000
vn -0.00000100 0.00000000 1.00000000
vn -0.00000100 0.00000000 1.00000000
vn 0.00000000 0.00000000 1.00000000
vn 0.00000000 0.00000000 1.00000000
vn -0.00000100 0.00000000 1.00000000
vn 0.00000500 -0.00000000 1.00000000
vn 0.00000000 0.00000000 1.00000000
vn 0.00000500 -0.00000000 1.00000000
vn -0.00000900 0.00000100 1.00000000
vn 0.00000500 -0.00000000 1.00000000
vn 0.00000000 0.00000000 1.00000000
vn 0.00000000 0.00000000 1.00000000
vn -0.00000900 0.00000100 1.00000000
vn 0.00000000 0.00000000 1.00000000
vn -0.00000900 0.00000100 1.00000000
vn 0.00001800 -0.00000200 1.00000000
vn 0.00000000 0.00000000 1.00000000
vn 0.00001800 -0.00000200 1.00000000
vn 0.00001800 -0.00000200 1.00000000
vn 0.00000000 0.00000000 1.00000000
vn 0.00000600 -0.00000100 1.00000000
vn 0.00000000 0.00000000 1.00000000
vn 0.00001200 -0.00000100 1.00000000
vn 0.00000500 -0.00000100 1.00000000
vn 0.00000000 0.00000000 1.00000000
vn 0.00000500 -0.00000100 1.00000000
vn 0.00000000 0.00000000 1.00000000
vn -0.00000400 0.00000000 1.00000000
vn 0.00000500 -0.00000100 1.00000000
vn 0.00000000 0.00000000 1.00000000
vn 0.00000000 0.00000000 1.00000000
vn -0.00000400 0.00000000 1.00000000
vn -0.00000400 0.00000000 1.00000000
vn -0.00000400 0.00000000 1.00000000
vn 0.00000000 0.00000000 1.00000000
vn -0.00001200 0.00000100 1.00000000
vn 0.00000000 0.00000000 1.00000000
vn -0.00000400 0.00000000 1.00000000
vn 0.00000000 0.00000000 1.00000000
vn -0.00001200 0.00000100 1.00000000
vn -0.00000400 0.00000000 1.00000000
vn 0.00001200 -0.00000100 1.00000000
vn -0.00001200 0.00000100 1.00000000
vn 0.00000000 0.00000000 1.00000000
vn 0.00001200 -0.00000100 1.00000000
vn -0.00001500 0.00000100 1.00000000
vn 0.00000000 0.00000000 1.00000000
vn 0.00001200 -0.00000100 1.00000000
vn -0.00001500 0.00000100 1.00000000
vn 0.00000000 0.00000000 1.00000000
vn 0.00000000 0.00000000 1.00000000
vn -0.00001500 0.00000100 1.00000000
vn 0.00000600 -0.00000100 1.00000000
vn 0.00000000 0.00000000 1.00000000
vn -0.00000600 0.00000100 1.00000000
vn 0.00000600 -0.00000100 1.00000000
vn 0.00000600 -0.00000100 1.00000000
vn 0.00000000 0.00000000 1.00000000
vn 0.00000000 0.00000000 1.00000000
vn -0.00000600 0.00000100 1.00000000
vn 0.00000600 -0.00000100 1.00000000
vn 0.00000000 0.00000000 1.00000000
vn -0.00000600 0.00000100 1.00000000
vn 0.00000000 0.00000000 1.00000000
vn -0.00000600 0.00000100 1.00000000
vn 0.00000000 0.00000000 1.00000000
vn 0.00000000 0.00000000 1.00000000
vn -0.00001200 0.00000100 1.00000000
vn -0.00001200 0.00000100 1.00000000
vn 0.00000000 0.00000000 1.00000000
vn 0.00000000 0.00000000 1.00000000
vn -0.00001200 0.00000100 1.00000000
vn 0.00000000 0.00000000 1.00000000
vn 0.00003200 -0.00000300 1.00000000
vn 0.00000000 0.00000000 1.00000000
vn 0.00000000 0.00000000 1.00000000
vn -0.00001200 0.00000100 1.00000000
vn 0.00000700 -0.00000100 1.00000000
vn 0.00000000 0.00000000 1.00000000
vn 0.00000700 -0.00000100 1.00000000
vn -0.00001000 0.00000100 1.00000000
vn 0.00000700 -0.00000100 1.00000000
vn -0.00001000 0.00000100 1.00000000
vn 0.00000000 0.00000000 1.00000000
vn 0.00000000 0.00000000 1.00000000
vn -0.00001000 0.00000100 1.00000000
vn 0.00000000 0.00000000 1.00000000
vn 0.00000000 0.00000000 1.00000000
vn 0.00001200 -0.00000100 1.00000000
vn 0.00001200 -0.00000100 1.00000000
vn 0.00000000 0.00000000 1.00000000
vn -0.00000600 0.00000100 1.00000000
vn 0.00000000 0.00000000 1.00000000
vn 0.00000000 0.00000000 1.00000000
vn -0.00000600 0.00000100 1.00000000
vn 0.00000000 0.00000000 1.00000000
vn 0.00002900 -0.00000300 1.00000000
vn 0.00002900 -0.00000300 1.00000000
vn 0.00000000 0.00000000 1.00000000
vn 0.00000000 0.00000000 1.00000000
vn 0.00002900 -0.00000300 1.00000000
vn 0.00000000 0.00000000 1.00000000
vn -0.00001200 0.00000100 1.00000000
vn 0.00000000 0.00000000 1.00000000
vn -0.00001200 0.00000100 1.00000000
vn -0.91269200 0.40864900 0.00000000
vn -0.92331200 0.38405100 -0.00000600
vn -0.88011800 0.47475500 0.00000000
vn -0.85690400 0.51547600 0.00000000
vn -0.80501800 0.59325000 0.00000000
vn -0.77645900 0.63016800 0.00000000
vn -0.71430300 0.69983700 0.00000100
vn -0.69771900 0.71637100 -0.00000100
vn -0.60910400 0.79309000 -0.00000800
vn -0.60905500 0.79312800 0.00000100
vn -0.64559200 0.76368200 0.00000000
vn -0.57101800 0.82093700 0.00000000
vn -0.49103500 0.87114000 0.00000000
vn -0.44917100 0.89344600 0.00000000
vn -0.36231000 0.93205800 -0.00000900
vn -0.31741200 0.94828800 0.00000900
vn -0.22553700 0.97423500 -0.00000900
vn -0.17862300 0.98391800 -0.00000100
vn -0.08331200 0.99652400 -0.00001400
vn -0.03505100 0.99938600 0.00000000
vn 0.03737500 0.99930100 -0.00000500
vn 0.06152200 0.99810600 0.00000500
vn 0.08559400 0.99633000 0.00000000
vn 0.08559400 0.99633000 0.00000000
vn 0.91140500 -0.41151100 0.00000000
vn 0.92963500 -0.36848200 0.00000000
vn 0.92074700 -0.39016100 0.00000000
vn 0.92963400 -0.36848300 0.00000000
vn 0.88033600 -0.47435100 0.00000100
vn 0.85717600 -0.51502300 0.00000000
vn 0.80545500 -0.59265700 0.00000100
vn 0.77695500 -0.62955600 0.00000000
vn 0.71503400 -0.69909000 0.00000000
vn 0.68160200 -0.73172300 0.00001000
vn 0.61042800 -0.79207200 0.00000000
vn 0.57275100 -0.81973000 0.00001100
vn 0.49355200 -0.86971700 0.00000000
vn 0.45210500 -0.89196500 0.00000000
vn 0.36611500 -0.93057000 0.00000000
vn 0.32165100 -0.94685800 0.00000000
vn 0.23043700 -0.97308700 0.00000000
vn 0.18380000 -0.98296400 0.00000000
vn 0.08919100 -0.99601500 -0.00000900
vn 0.04133500 -0.99914500 -0.00000800
vn -0.05469100 -0.99850300 0.00000000
vn -0.10277700 -0.99470400 0.00000000
vn -0.19611900 -0.98058000 -0.00001000
vn -0.24144200 -0.97041500 0.00000000
vn -0.31050900 -0.95057100 0.00000000
vn -0.33461900 -0.94235300 0.00000500
vn -0.38363200 -0.92348600 0.00000000
vn -0.40832300 -0.91283800 -0.00000100
vn -0.47440100 -0.88030900 -0.00001100
vn -0.51502800 -0.85717400 0.00000900
vn -0.59263600 -0.80547000 0.00000000
vn -0.62952400 -0.77698100 0.00000000
vn -0.69913600 -0.71498900 -0.00000900
vn -0.73171700 -0.68160800 0.00000900
vn -0.79209300 -0.61040000 0.00000000
vn -0.81974500 -0.57272800 0.00000000
vn -0.86972100 -0.49354300 0.00000800
vn -0.89197700 -0.45208100 0.00000900
vn -0.93058800 -0.36606900 -0.00001100
vn -0.94688200 -0.32158000 0.00001100
vn -0.97309400 -0.23040900 0.00000000
vn -0.98296700 -0.18378400 0.00000000
vn -0.99600900 -0.08924700 0.00000000
vn -0.99914300 -0.04138900 0.00000000
vn -0.99850200 0.05471400 -0.00000900
vn -0.99470100 0.10280700 0.00000000
vn -0.98057200 0.19615700 -0.00000800
vn -0.97043300 0.24137000 0.00000000
vn -0.95054200 0.31059600 -0.00000500
vn -0.94223000 0.33496800 0.00000500
vn 0.98229500 -0.18734000 0.00000000
vn 0.97656400 -0.21522800 0.00000000
vn 0.99897900 -0.04518500 0.00000000
vn 0.99897400 -0.04528400 0.00000300
vn 0.99465400 -0.10326200 0.00000000
vn 0.99991800 0.01284400 0.00000000
vn 0.99167300 0.12878300 0.00000000
vn 0.98243000 0.18663100 0.00000000
vn 0.95418700 0.29921000 0.00000000
vn 0.93525800 0.35396500 0.00000000
vn 0.89227000 0.45150200 0.00000000
vn 0.86909900 0.49463900 0.00000000
vn 0.81700000 0.57663800 0.00000000
vn 0.78816000 0.61547000 0.00000000
vn 0.71957400 0.69441600 0.00000000
vn 0.67924500 0.73391200 0.00000000
vn 0.59253400 0.80554500 0.00000000
vn 0.54624100 0.83762800 0.00000000
vn 0.44866400 0.89370100 0.00000000
vn 0.39742300 0.91763600 0.00000000
vn 0.30181700 0.95336600 0.00000000
vn 0.25790300 0.96617100 0.00000000
vn 0.16789700 0.98580500 0.00000000
vn 0.12191100 0.99254100 0.00000000
vn 0.01741000 0.99984800 0.00000000
vn -0.04114600 0.99915300 0.00000000
vn -0.15713300 0.98757700 0.00000000
vn -0.21447300 0.97673000 0.00000000
vn -0.32603800 0.94535700 0.00000000
vn -0.38023600 0.92488900 0.00000000
vn -0.48382700 0.87516400 0.00000000
vn -0.53323400 0.84596800 0.00000000
vn -0.62597400 0.77984400 0.00000000
vn -0.66928400 0.74300700 0.00000000
vn -0.74881500 0.66277900 0.00000000
vn -0.78495400 0.61955400 0.00000000
vn -0.84946600 0.52764300 0.00000000
vn -0.87779900 0.47902900 0.00000000
vn -0.92608400 0.37731800 0.00000000
vn -0.94596700 0.32426100 0.00000000
vn -0.97655300 0.21527700 0.00000000
vn -0.98722000 0.15936200 0.00000000
vn -0.99897400 0.04528200 0.00000000
vn -0.99991900 -0.01275100 0.00000000
vn -0.99168500 -0.12868900 0.00000000
vn -0.98247500 -0.18639300 0.00000000
vn -0.95425300 -0.29900000 0.00000000
vn -0.93533400 -0.35376600 0.00000000
vn -0.89229900 -0.45144500 0.00000000
vn -0.86913600 -0.49457300 0.00000000
vn -0.81698400 -0.57666000 0.00000000
vn -0.78813000 -0.61550800 0.00000000
vn -0.71953100 -0.69446000 0.00000000
vn -0.69965500 -0.71448100 0.00000000
vn -0.59242800 -0.80562300 0.00000000
vn -0.59249200 -0.80557700 0.00000200
vn -0.63675000 -0.77107100 0.00000000
vn -0.54614200 -0.83769200 0.00000000
vn -0.44861700 -0.89372400 0.00000000
vn -0.39740400 -0.91764400 0.00000000
vn -0.30175900 -0.95338400 0.00000000
vn -0.25788300 -0.96617600 0.00000000
vn -0.16788000 -0.98580700 0.00000000
vn -0.12186500 -0.99254700 0.00000000
vn -0.01727200 -0.99985100 0.00000000
vn 0.04124500 -0.99914900 0.00000000
vn 0.15733200 -0.98754600 0.00000000
vn 0.21468900 -0.97668200 0.00000000
vn 0.32632200 -0.94525900 0.00000000
vn 0.38048200 -0.92478800 0.00000000
vn 0.48405100 -0.87504000 0.00000000
vn 0.53341000 -0.84585700 0.00000000
vn 0.62617100 -0.77968500 0.00000000
vn 0.66949500 -0.74281600 0.00000000
vn 0.74897400 -0.66259900 0.00000000
vn 0.78506600 -0.61941200 0.00000000
vn 0.84958000 -0.52746000 0.00000000
vn 0.87790500 -0.47883500 0.00000000
vn 0.92612400 -0.37722000 0.00000000
vn 0.94597200 -0.32424900 0.00000000
f 2//2 3//3 6//6
f 10//10 11//11 14//14
f 13//13 12//12 16//16
f 13//13 16//16 17//17
f 19//19 15//15 21//21
f 18//18 20//20 24//24
f 27//27 29//29 31//31
f 34//34 30//30 35//35
f 32//32 36//36 37//37
f 7//7 4//4 40//40
f 44//44 47//47 50//50
f 49//49 48//48 52//52
f 51//51 54//54 56//56
f 57//57 53//53 58//58
f 55//55 59//59 61//61
f 38//38 62//62 6//6
f 8//8 63//63 65//65
f 5//5 64//64 1//1
f 3//3 66//66 39//39
f 41//41 67//67 70//70
f 39//39 68//68 71//71
f 72//72 69//69 73//73
f 71//71 74//74 76//76
f 77//77 75//75 79//79
f 78//78 81//81 83//83
f 82//82 80//80 87//87
f 84//84 85//85 90//90
f 89//89 86//86 91//91
f 88//88 93//93 95//95
f 96//96 92//92 97//97
f 59//59 100//100 61//61
f 60//60 101//101 103//103
f 61//61 102//102 104//104
f 104//104 102//102 105//105
f 104//104 105//105 107//107
f 108//108 106//106 112//112
f 109//109 110//110 114//114
f 115//115 111//111 116//116
f 113//113 117//117 119//119
f 120//120 118//118 123//123
f 121//121 122//122 124//124
f 124//124 122//122 125//125
f 124//124 125//125 9//9
f 9//9 125//125 126//126
f 9//9 126//126 12//12
f 28//28 33//33 127//127
f 127//127 33//33 129//129
f 128//128 130//130 133//133
f 137//137 138//138 140//140
f 140//140 138//138 141//141
f 140//140 141//141 144//144
f 143//143 142//142 145//145
f 144//144 146//146 148//148
f 149//149 147//147 152//152
f 150//150 151//151 43//43
f 42//42 153//153 154//154
f 45//45 155//155 46//46
f 22//22 156//156 23//23
f 25//25 157//157 160//160
f 26//26 158//158 163//163
f 161//161 159//159 165//165
f 162//162 164//164 166//166
f 167//167 165//165 168//168
f 167//167 168//168 98//98
f 98//98 168//168 169//169
f 99//99 170//170 94//94
f 132//132 131//131 173//173
f 172//172 129//129 175//175
f 171//171 174//174 178//178
f 176//176 175//175 179//179
f 177//177 180//180 134//134
f 136//136 181//181 182//182
f 135//135 183//183 139//139
f 184//184 188//188 191//191
f 194//194 195//195 196//196
f 202//202 204//204 196//196
f 198//198 203//203 206//206
f 197//197 205//205 208//208
f 190//190 187//187 212//212
f 211//211 189//189 214//214
f 213//213 215//215 218//218
f 217//217 216//216 220//220
f 218//218 219//219 222//222
f 192//192 224//224 185//185
f 186//186 223//223 226//226
f 185//185 225//225 196//196
f 200//200 227//227 228//228
f 199//199 229//229 193//193
f 195//195 231//231 196//196
f 201//201 230//230 232//232
f 196//196 233//233 202//202
f 235//235 238//238 241//241
f 234//234 246//246 237//237
f 240//240 245//245 248//248
f 239//239 247//247 250//250
f 252//252 249//249 254//254
f 251//251 253//253 257//257
f 256//256 255//255 259//259
f 257//257 258//258 261//261
f 262//262 260//260 264//264
f 261//261 265//265 266//266
f 267//267 263//263 269//269
f 266//266 268//268 271//271
f 272//272 270//270 273//273
f 271//271 274//274 276//276
f 278//278 280//280 283//283
f 284//284 281//281 285//285
f 282//282 286//286 288//288
f 289//289 285//285 291//291
f 287//287 292//292 295//295
f 294//294 290//290 297//297
f 293//293 298//298 301//301
f 299//299 296//296 302//302
f 300//300 303//303 306//306
f 305//305 304//304 308//308
f 305//305 308//308 244//244
f 242//242 307//307 310//310
f 243//243 309//309 236//236
f 274//274 312//312 276//276
f 275//275 311//311 315//315
f 276//276 313//313 316//316
f 317//317 314//314 319//319
f 316//316 318//318 320//320
f 320//320 318//318 321//321
f 320//320 321//321 324//324
f 323//323 322//322 326//326
f 324//324 325//325 327//327
f 327//327 325//325 209//209
f 327//327 209//209 329//329
f 328//328 210//210 207//207
f 332//332 334//334 336//336
f 337//337 335//335 340//340
f 338//338 339//339 341//341
f 341//341 339//339 342//342
f 341//341 342//342 279//279
f 277//277 343//343 344//344
f 279//279 345//345 281//281
f 219//219 347//347 222//222
f 221//221 346//346 349//349
f 222//222 348//348 350//350
f 350//350 348//348 353//353
f 351//351 352//352 355//355
f 354//354 353//353 356//356
f 354//354 356//356 330//330
f 331//331 357//357 359//359
f 330//330 358//358 333//333
f 360//360 361//361 362//362
f 360//360 362//362 363//363
f 363//363 362//362 364//364
f 363//363 364//364 365//365
f 365//365 364//364 366//366
f 365//365 366//366 367//367
f 367//367 366//366 368//368
f 370//370 369//369 371//371
f 371//371 369//369 372//372
f 371//371 372//372 373//373
f 373//373 372//372 374//374
f 373//373 374//374 375//375
f 375//375 374//374 376//376
f 375//375 376//376 377//377
f 377//377 376//376 378//378
f 377//377 378//378 379//379
f 379//379 378//378 380//380
f 379//379 380//380 381//381
f 382//382 381//381 383//383
f 383//383 381//381 380//380
f 384//384 385//385 386//386
f 386//386 385//385 387//387
f 384//384 386//386 388//388
f 384//384 388//388 389//389
f 389//389 388//388 390//390
f 389//389 390//390 391//391
f 391//391 390//390 392//392
f 391//391 392//392 393//393
f 393//393 392//392 394//394
f 393//393 394//394 395//395
f 395//395 394//394 396//396
f 395//395 396//396 397//397
f 397//397 396//396 398//398
f 397//397 398//398 399//399
f 399//399 398//398 400//400
f 399//399 400//400 401//401
f 401//401 400//400 402//402
f 401//401 402//402 403//403
f 403//403 402//402 404//404
f 403//403 404//404 405//405
f 405//405 404//404 406//406
f 405//405 406//406 407//407
f 407//407 406//406 408//408
f 407//407 408//408 409//409
f 409//409 408//408 410//410
f 409//409 410//410 411//411
f 411//411 410//410 412//412
f 411//411 412//412 413//413
f 413//413 412//412 414//414
f 413//413 414//414 415//415
f 415//415 414//414 416//416
f 415//415 416//416 417//417
f 417//417 416//416 418//418
f 417//417 418//418 419//419
f 419//419 418//418 420//420
f 419//419 420//420 421//421
f 421//421 420//420 422//422
f 421//421 422//422 423//423
f 423//423 422//422 424//424
f 423//423 424//424 425//425
f 425//425 424//424 426//426
f 425//425 426//426 427//427
f 427//427 426//426 428//428
f 427//427 428//428 429//429
f 429//429 428//428 430//430
f 429//429 430//430 431//431
f 431//431 430//430 432//432
f 431//431 432//432 433//433
f 433//433 432//432 361//361
f 433//433 361//361 360//360
f 434//434 435//435 437//437
f 438//438 436//436 439//439
f 439//439 436//436 440//440
f 439//439 440//440 441//441
f 441//441 440//440 442//442
f 441//441 442//442 443//443
f 443//443 442//442 444//444
f 443//443 444//444 445//445
f 445//445 444//444 446//446
f 445//445 446//446 447//447
f 447//447 446//446 448//448
f 447//447 448//448 449//449
f 449//449 448//448 450//450
f 449//449 450//450 451//451
f 451//451 450//450 452//452
f 451//451 452//452 453//453
f 453//453 452//452 454//454
f 453//453 454//454 455//455
f 455//455 454//454 456//456
f 455//455 456//456 457//457
f 457//457 456//456 458//458
f 457//457 458//458 459//459
f 459//459 458//458 460//460
f 459//459 460//460 461//461
f 461//461 460//460 462//462
f 461//461 462//462 463//463
f 463//463 462//462 464//464
f 463//463 464//464 465//465
f 465//465 464//464 466//466
f 465//465 466//466 467//467
f 467//467 466//466 468//468
f 467//467 468//468 469//469
f 469//469 468//468 470//470
f 469//469 470//470 471//471
f 471//471 470//470 472//472
f 471//471 472//472 473//473
f 473//473 472//472 474//474
f 473//473 474//474 475//475
f 475//475 474//474 476//476
f 475//475 476//476 477//477
f 477//477 476//476 478//478
f 477//477 478//478 479//479
f 479//479 478//478 480//480
f 479//479 480//480 481//481
f 481//481 480//480 482//482
f 481//481 482//482 483//483
f 483//483 482//482 484//484
f 483//483 484//484 485//485
f 485//485 484//484 486//486
f 485//485 486//486 487//487
f 487//487 486//486 489//489
f 490//490 488//488 491//491
f 491//491 488//488 492//492
f 491//491 492//492 493//493
f 493//493 492//492 494//494
f 493//493 494//494 495//495
f 495//495 494//494 496//496
f 495//495 496//496 497//497
f 497//497 496//496 498//498
f 497//497 498//498 499//499
f 499//499 498//498 500//500
f 499//499 500//500 501//501
f 501//501 500//500 502//502
f 501//501 502//502 503//503
f 503//503 502//502 504//504
f 503//503 504//504 505//505
f 505//505 504//504 506//506
f 505//505 506//506 507//507
f 507//507 506//506 508//508
f 507//507 508//508 509//509
f 509//509 508//508 510//510
f 509//509 510//510 511//511
f 511//511 510//510 512//512
f 511//511 512//512 513//513
f 513//513 512//512 435//435
f 513//513 435//435 434//434

