# https://github.com/mikedh/trimesh
v -0.02457500 -0.09839300 0.01950300
v -0.02457500 -0.09839300 0.01950300
v -0.02453500 -0.09840300 0.01950200
v -0.02453500 -0.09840300 0.01950200
v -0.02339800 -0.09711400 0.01960500
v -0.02339800 -0.09711400 0.01960500
v -0.02339800 -0.09711400 0.01960500
v -0.02339800 -0.09711400 0.01960500
v -0.02339800 -0.09711400 0.01960500
v -0.02339800 -0.09711400 0.01960500
v -0.02339800 -0.09711400 0.01960500
v -0.02339800 -0.09711400 0.01960500
v -0.02449300 -0.09840800 0.01950200
v -0.02449300 -0.09840800 0.01950200
v -0.02449300 -0.09840800 0.01950200
v -0.02338400 -0.09712700 0.01960400
v -0.02338400 -0.09712700 0.01960400
v -0.02338400 -0.09712700 0.01960400
v -0.02338400 -0.09712700 0.01960400
v -0.02224700 -0.09722900 0.01959500
v -0.02224700 -0.09722900 0.01959500
v -0.02224700 -0.09722900 0.01959500
v -0.02224700 -0.09722900 0.01959500
v -0.02225400 -0.09724400 0.01959400
v -0.02225400 -0.09724400 0.01959400
v -0.02173600 -0.09872200 0.01947600
v -0.02173600 -0.09872200 0.01947600
v -0.02173600 -0.09872200 0.01947600
v -0.02173600 -0.09872200 0.01947600
v -0.02173600 -0.09872200 0.01947600
v -0.02173600 -0.09872200 0.01947600
v -0.02173600 -0.09872200 0.01947600
v -0.02226500 -0.09725200 0.01959400
v -0.02226500 -0.09725200 0.01959400
v -0.02226500 -0.09725200 0.01959400
v -0.02211200 -0.09867800 0.01948000
v -0.02211200 -0.09867800 0.01948000
v -0.02211200 -0.09867800 0.01948000
v -0.02230000 -0.09725500 0.01959300
v -0.02230000 -0.09725500 0.01959300
v -0.02230000 -0.09725500 0.01959300
v -0.02248800 -0.09863500 0.01948300
v -0.02248800 -0.09863500 0.01948300
v -0.02248800 -0.09863500 0.01948300
v -0.02248800 -0.09863500 0.01948300
v -0.01891600 -0.09904100 0.01945000
v -0.01891600 -0.09904100 0.01945000
v -0.01862800 -0.09907600 0.01944700
v -0.01862800 -0.09907600 0.01944700
v -0.01977000 -0.09752700 0.01957100
v -0.01977000 -0.09752700 0.01957100
v -0.01977000 -0.09752700 0.01957100
v -0.01977000 -0.09752700 0.01957100
v -0.01977000 -0.09752700 0.01957100
v -0.01977000 -0.09752700 0.01957100
v -0.01977000 -0.09752700 0.01957100
v -0.01856200 -0.09907200 0.01944700
v -0.01856200 -0.09907200 0.01944700
v -0.02464300 -0.09828600 0.01951200
v -0.02464300 -0.09828600 0.01951200
v -0.02464500 -0.09822600 0.01951600
v -0.02464500 -0.09822600 0.01951600
v -0.02464500 -0.09822600 0.01951600
v -0.02464500 -0.09822600 0.01951600
v -0.02464500 -0.09822600 0.01951600
v -0.02464500 -0.09822600 0.01951600
v -0.02464500 -0.09822600 0.01951600
v -0.02464500 -0.09822600 0.01951600
v -0.02464500 -0.09822600 0.01951600
v -0.02464500 -0.09822600 0.01951600
v -0.02340500 -0.09708800 0.01960700
v -0.02340500 -0.09708800 0.01960700
v -0.02340600 -0.09706200 0.01960900
v -0.02340600 -0.09706200 0.01960900
v -0.01975700 -0.09745400 0.01957700
v -0.01975700 -0.09745400 0.01957700
v -0.01976200 -0.09750900 0.01957200
v -0.01976200 -0.09750900 0.01957200
v -0.01850100 -0.09901600 0.01945200
v -0.01850100 -0.09901600 0.01945200
v -0.01850100 -0.09901600 0.01945200
v -0.01850100 -0.09901600 0.01945200
v -0.01850100 -0.09901600 0.01945200
v -0.01852700 -0.09905100 0.01944900
v -0.01852700 -0.09905100 0.01944900
v -0.01920400 -0.09900900 0.01945200
v -0.01920400 -0.09900900 0.01945200
v -0.01920400 -0.09900900 0.01945200
v -0.01978200 -0.09753500 0.01957000
v -0.01978200 -0.09753500 0.01957000
v -0.01978200 -0.09753500 0.01957000
v -0.01961600 -0.09896200 0.01945600
v -0.01961600 -0.09896200 0.01945600
v -0.01961600 -0.09896200 0.01945600
v -0.01981300 -0.09753900 0.01957000
v -0.01981300 -0.09753900 0.01957000
v -0.01981300 -0.09753900 0.01957000
v -0.02002800 -0.09891600 0.01946000
v -0.02002800 -0.09891600 0.01946000
v -0.02002800 -0.09891600 0.01946000
v -0.02002800 -0.09891600 0.01946000
v -0.02160200 -0.09549100 0.01973400
v -0.02160200 -0.09549100 0.01973400
v -0.02160200 -0.09549100 0.01973400
v -0.02192600 -0.09545500 0.01973700
v -0.02192600 -0.09545500 0.01973700
v -0.02224300 -0.09718200 0.01959900
v -0.02224300 -0.09718200 0.01959900
v -0.02224300 -0.09718200 0.01959900
v -0.02224300 -0.09718200 0.01959900
v -0.02224300 -0.09718200 0.01959900
v -0.02224300 -0.09718200 0.01959900
v -0.02204000 -0.09544200 0.01973800
v -0.02204000 -0.09544200 0.01973800
v -0.02204000 -0.09544200 0.01973800
v -0.02204000 -0.09544200 0.01973800
v -0.02354800 -0.09431600 0.01982800
v -0.02354800 -0.09431600 0.01982800
v -0.02354800 -0.09431600 0.01982800
v -0.02354800 -0.09431600 0.01982800
v -0.02366700 -0.09430000 0.01983000
v -0.02366700 -0.09430000 0.01983000
v -0.01977900 -0.09487800 0.01978200
v -0.01977900 -0.09487800 0.01978200
v -0.01977900 -0.09487800 0.01978200
v -0.01977900 -0.09487800 0.01978200
v -0.01977900 -0.09487800 0.01978200
v -0.01914400 -0.09481400 0.01978700
v -0.01914400 -0.09481400 0.01978700
v -0.01941800 -0.09478400 0.01979000
v -0.01941800 -0.09478400 0.01979000
v -0.01941800 -0.09478400 0.01979000
v -0.01941800 -0.09478400 0.01979000
v -0.01976800 -0.09616600 0.01968000
v -0.01976800 -0.09616600 0.01968000
v -0.01976800 -0.09616600 0.01968000
v -0.01976800 -0.09616600 0.01968000
v -0.01976800 -0.09616600 0.01968000
v -0.01976800 -0.09616600 0.01968000
v -0.01853600 -0.09495700 0.01977600
v -0.01853600 -0.09495700 0.01977600
v -0.01857500 -0.09490200 0.01978000
v -0.01857500 -0.09490200 0.01978000
v -0.02127800 -0.09552700 0.01973100
v -0.02127800 -0.09552700 0.01973100
v -0.02127800 -0.09552700 0.01973100
v -0.02100800 -0.09731100 0.01958900
v -0.02100800 -0.09731100 0.01958900
v -0.02100800 -0.09731100 0.01958900
v -0.02100800 -0.09731100 0.01958900
v -0.02101500 -0.09649300 0.01965400
v -0.02101500 -0.09649300 0.01965400
v -0.02101500 -0.09649300 0.01965400
v -0.02101500 -0.09649300 0.01965400
v -0.02100300 -0.09737100 0.01958400
v -0.02100300 -0.09737100 0.01958400
v -0.02100300 -0.09737100 0.01958400
v -0.02099300 -0.09739100 0.01958200
v -0.02099300 -0.09739100 0.01958200
v -0.02099300 -0.09739100 0.01958200
v -0.02417900 -0.09844300 0.01949900
v -0.02417900 -0.09844300 0.01949900
v -0.02386400 -0.09847900 0.01949600
v -0.02386400 -0.09847900 0.01949600
v -0.02386400 -0.09847900 0.01949600
v -0.02335900 -0.09713500 0.01960300
v -0.02335900 -0.09713500 0.01960300
v -0.02335900 -0.09713500 0.01960300
v -0.02355400 -0.09851400 0.01949300
v -0.02355400 -0.09851400 0.01949300
v -0.02355400 -0.09851400 0.01949300
v -0.02305300 -0.09717000 0.01960000
v -0.02305300 -0.09717000 0.01960000
v -0.02305300 -0.09717000 0.01960000
v -0.02324400 -0.09855000 0.01949000
v -0.02324400 -0.09855000 0.01949000
v -0.02324400 -0.09855000 0.01949000
v -0.02274700 -0.09720400 0.01959800
v -0.02274700 -0.09720400 0.01959800
v -0.02274700 -0.09720400 0.01959800
v -0.02286600 -0.09859200 0.01948700
v -0.02286600 -0.09859200 0.01948700
v -0.02286600 -0.09859200 0.01948700
v -0.02253500 -0.09722800 0.01959600
v -0.02253500 -0.09722800 0.01959600
v -0.02253500 -0.09722800 0.01959600
v -0.02232300 -0.09725200 0.01959400
v -0.02232300 -0.09725200 0.01959400
v -0.02462400 -0.09835000 0.01950700
v -0.02462400 -0.09835000 0.01950700
v -0.02459100 -0.09838400 0.01950400
v -0.02459100 -0.09838400 0.01950400
v -0.01863300 -0.09487300 0.01978200
v -0.01863300 -0.09487300 0.01978200
v -0.01866800 -0.09486700 0.01978300
v -0.01866800 -0.09486700 0.01978300
v -0.01866800 -0.09486700 0.01978300
v -0.01890600 -0.09484100 0.01978500
v -0.01890600 -0.09484100 0.01978500
v -0.02464500 -0.09421500 0.01983700
v -0.02466700 -0.09424600 0.01983400
v -0.02466700 -0.09424600 0.01983400
v -0.02461400 -0.09419900 0.01983800
v -0.02461400 -0.09419900 0.01983800
v -0.02461400 -0.09419900 0.01983800
v -0.02467800 -0.09433700 0.01982700
v -0.02467800 -0.09433700 0.01982700
v -0.02467800 -0.09433700 0.01982700
v -0.02451900 -0.09419900 0.01983800
v -0.02451900 -0.09419900 0.01983800
v -0.02451900 -0.09419900 0.01983800
v -0.02467800 -0.09434800 0.01982600
v -0.02467800 -0.09434800 0.01982600
v -0.02467800 -0.09434800 0.01982600
v -0.02415300 -0.09424400 0.01983400
v -0.02415300 -0.09424400 0.01983400
v -0.02415300 -0.09424400 0.01983400
v -0.02378700 -0.09428600 0.01983100
v -0.02378700 -0.09428600 0.01983100
v -0.02344700 -0.09437500 0.01982400
v -0.02348200 -0.09433900 0.01982700
v -0.02348200 -0.09433900 0.01982700
v -0.02342800 -0.09445600 0.01981700
v -0.02342800 -0.09445600 0.01981700
v -0.02342800 -0.09445600 0.01981700
v -0.02341700 -0.09574600 0.01971400
v -0.02341700 -0.09574600 0.01971400
v -0.02341700 -0.09574600 0.01971400
v -0.02340600 -0.09703600 0.01961100
v -0.02340600 -0.09703600 0.01961100
v -0.01984800 -0.09753600 0.01957000
v -0.01984800 -0.09753600 0.01957000
v -0.02002400 -0.09751600 0.01957200
v -0.02002400 -0.09751600 0.01957200
v -0.02002400 -0.09751600 0.01957200
v -0.02047200 -0.09886500 0.01946400
v -0.02047200 -0.09886500 0.01946400
v -0.02047200 -0.09886500 0.01946400
v -0.02020000 -0.09749600 0.01957300
v -0.02020000 -0.09749600 0.01957300
v -0.02020000 -0.09749600 0.01957300
v -0.02091600 -0.09881400 0.01946800
v -0.02091600 -0.09881400 0.01946800
v -0.02091600 -0.09881400 0.01946800
v -0.02055900 -0.09745600 0.01957700
v -0.02055900 -0.09745600 0.01957700
v -0.02055900 -0.09745600 0.01957700
v -0.02132600 -0.09876800 0.01947200
v -0.02132600 -0.09876800 0.01947200
v -0.02132600 -0.09876800 0.01947200
v -0.02091700 -0.09741500 0.01958000
v -0.02091700 -0.09741500 0.01958000
v -0.02091700 -0.09741500 0.01958000
v -0.02097700 -0.09740300 0.01958100
v -0.02097700 -0.09740300 0.01958100
v -0.02215400 -0.09543100 0.01973900
v -0.02215400 -0.09543100 0.01973900
v -0.02215400 -0.09543100 0.01973900
v -0.02215400 -0.09543100 0.01973900
v -0.02220500 -0.09543700 0.01973800
v -0.02223500 -0.09545900 0.01973700
v -0.02223500 -0.09545900 0.01973700
v -0.01969200 -0.09475400 0.01979200
v -0.01969200 -0.09475400 0.01979200
v -0.01969200 -0.09475400 0.01979200
v -0.01969200 -0.09475400 0.01979200
v -0.01972900 -0.09475900 0.01979200
v -0.01975900 -0.09478100 0.01979000
v -0.01975900 -0.09478100 0.01979000
v -0.02102200 -0.09567500 0.01971900
v -0.02102200 -0.09567500 0.01971900
v -0.02102200 -0.09567500 0.01971900
v -0.02102200 -0.09567500 0.01971900
v -0.02103600 -0.09560400 0.01972500
v -0.02106700 -0.09556800 0.01972800
v -0.02106700 -0.09556800 0.01972800
v -0.02225300 -0.09549700 0.01973400
v -0.02225300 -0.09549700 0.01973400
v -0.02225400 -0.09550200 0.01973300
v -0.02225400 -0.09550200 0.01973300
v -0.02225400 -0.09550200 0.01973300
v -0.02225600 -0.09555800 0.01972900
v -0.02225600 -0.09555800 0.01972900
v -0.01977700 -0.09481600 0.01978700
v -0.01977700 -0.09481600 0.01978700
v -0.01977800 -0.09482600 0.01978700
v -0.01977800 -0.09482600 0.01978700
v -0.01977800 -0.09482600 0.01978700
v -0.01977900 -0.09485200 0.01978500
v -0.01977900 -0.09485200 0.01978500
v -0.02113100 -0.09554400 0.01973000
v -0.02113100 -0.09554400 0.01973000
v -0.02114200 -0.09554200 0.01973000
v -0.02114200 -0.09554200 0.01973000
v -0.02114200 -0.09554200 0.01973000
v -0.02121000 -0.09553500 0.01973000
v -0.02121000 -0.09553500 0.01973000
vn 0.00017200 -0.07955100 0.99683100
vn 0.00026400 -0.07951700 0.99683300
vn 0.00022800 -0.07954900 0.99683100
vn 0.00017200 -0.07955100 0.99683100
vn 0.00022800 -0.07954900 0.99683100
vn 0.00022600 -0.07956500 0.99683000
vn 0.00014800 -0.07938900 0.99684400
vn 0.00017200 -0.07955100 0.99683100
vn 0.00026400 -0.07951700 0.99683300
vn 0.00028800 -0.07957500 0.99682900
vn 0.00034000 -0.07953400 0.99683200
vn 0.00034500 -0.07961000 0.99682600
vn -0.00024100 -0.07923000 0.99685600
vn 0.00022800 -0.07954900 0.99683100
vn 0.00027400 -0.07958400 0.99682800
vn 0.00022600 -0.07956400 0.99683000
vn 0.00000000 -0.07959600 0.99682700
vn 0.00028900 -0.07959600 0.99682700
vn 0.00027400 -0.07958400 0.99682800
vn 0.00056000 -0.07953100 0.99683200
vn 0.00033200 -0.07958000 0.99682800
vn 0.00028100 -0.07950600 0.99683400
vn 0.00029300 -0.07964900 0.99682300
vn 0.00056000 -0.07953100 0.99683200
vn 0.00016800 -0.07962400 0.99682500
vn 0.00024900 -0.07949900 0.99683500
vn 0.00033200 -0.07958000 0.99682800
vn 0.00029700 -0.07961900 0.99682500
vn 0.00031400 -0.07957900 0.99682900
vn 0.00016800 -0.07962400 0.99682500
vn 0.00028700 -0.07959000 0.99682800
vn 0.00056000 -0.07953100 0.99683200
vn 0.00024100 -0.07959900 0.99682700
vn 0.00016800 -0.07962400 0.99682500
vn 0.00031400 -0.07957900 0.99682900
vn 0.00024100 -0.07959900 0.99682700
vn 0.00031400 -0.07957900 0.99682900
vn 0.00027200 -0.07958400 0.99682800
vn 0.00027200 -0.07958400 0.99682800
vn 0.00019200 -0.07962800 0.99682500
vn 0.00024100 -0.07959900 0.99682700
vn 0.00019200 -0.07962800 0.99682500
vn 0.00027200 -0.07958400 0.99682800
vn 0.00023600 -0.07957300 0.99682900
vn 0.00030900 -0.07958000 0.99682800
vn 0.00030800 -0.07961000 0.99682600
vn 0.00020400 -0.07966500 0.99682200
vn 0.00030800 -0.07961000 0.99682600
vn 0.00042300 -0.07950100 0.99683500
vn 0.00020400 -0.07966500 0.99682200
vn 0.00015200 -0.07969800 0.99681900
vn 0.00030800 -0.07961000 0.99682600
vn 0.00042800 -0.07948700 0.99683600
vn 0.00028400 -0.07960200 0.99682700
vn 0.00007500 -0.07980500 0.99681100
vn 0.00042300 -0.07950100 0.99683500
vn 0.00015200 -0.07969800 0.99681900
vn 0.00042300 -0.07950100 0.99683500
vn 0.00032900 -0.07954200 0.99683100
vn 0.00014800 -0.07938900 0.99684400
vn 0.00034500 -0.07961000 0.99682600
vn 0.00048500 -0.07983500 0.99680800
vn 0.00039100 -0.07960900 0.99682600
vn 0.00014800 -0.07938900 0.99684400
vn 0.00027000 -0.07958500 0.99682800
vn 0.00010400 -0.07945300 0.99683900
vn 0.00022800 -0.07959200 0.99682800
vn 0.00029100 -0.07959900 0.99682700
vn 0.00027500 -0.07958800 0.99682800
vn 0.00033500 -0.07960200 0.99682700
vn 0.00034500 -0.07961000 0.99682600
vn 0.00048500 -0.07983500 0.99680800
vn 0.00048500 -0.07983500 0.99680800
vn 0.00010400 -0.07945300 0.99683900
vn 0.00032300 -0.07957200 0.99682900
vn 0.00015200 -0.07971300 0.99681800
vn 0.00042800 -0.07948700 0.99683600
vn 0.00015200 -0.07971300 0.99681800
vn 0.00015200 -0.07971300 0.99681800
vn 0.00042800 -0.07948700 0.99683600
vn 0.00032300 -0.07957200 0.99682900
vn 0.00007500 -0.07980500 0.99681100
vn 0.00028800 -0.07958900 0.99682800
vn 0.00015200 -0.07969800 0.99681900
vn 0.00007500 -0.07980500 0.99681100
vn 0.00028400 -0.07960200 0.99682700
vn 0.00020400 -0.07966500 0.99682200
vn 0.00041900 -0.07958300 0.99682800
vn 0.00030500 -0.07957700 0.99682900
vn 0.00041900 -0.07958300 0.99682800
vn 0.00028400 -0.07960200 0.99682700
vn 0.00030500 -0.07957700 0.99682900
vn 0.00041900 -0.07958300 0.99682800
vn 0.00027600 -0.07957000 0.99682900
vn 0.00027600 -0.07957000 0.99682900
vn 0.00030500 -0.07957700 0.99682900
vn 0.00028900 -0.07961800 0.99682500
vn 0.00027600 -0.07957000 0.99682900
vn 0.00028900 -0.07961800 0.99682500
vn 0.00023600 -0.07958700 0.99682800
vn 0.00047300 -0.07959200 0.99682700
vn 0.00027300 -0.07961300 0.99682600
vn 0.00028500 -0.07959000 0.99682800
vn 0.00030500 -0.07959800 0.99682700
vn 0.00028500 -0.07959000 0.99682800
vn 0.00029000 -0.07959300 0.99682700
vn 0.00029300 -0.07964900 0.99682300
vn 0.00029700 -0.07970400 0.99681900
vn 0.00029300 -0.07959800 0.99682700
vn 0.00030500 -0.07959800 0.99682700
vn 0.00029000 -0.07959300 0.99682700
vn 0.00028500 -0.07959000 0.99682800
vn 0.00029000 -0.07959300 0.99682700
vn 0.00029400 -0.07957900 0.99682900
vn 0.00044700 -0.07976500 0.99681400
vn 0.00029300 -0.07959800 0.99682700
vn 0.00034900 -0.07948800 0.99683600
vn 0.00039100 -0.07960900 0.99682600
vn 0.00027500 -0.07958800 0.99682800
vn 0.00022000 -0.07959400 0.99682700
vn 0.00039100 -0.07960900 0.99682600
vn 0.00029100 -0.07959900 0.99682700
vn 0.00029500 -0.07962100 0.99682500
vn 0.00029700 -0.07951200 0.99683400
vn 0.00030800 -0.07962100 0.99682500
vn 0.00028000 -0.07933500 0.99684800
vn 0.00030000 -0.07946000 0.99683800
vn 0.00030000 -0.07946000 0.99683800
vn 0.00029700 -0.07951200 0.99683400
vn 0.00036800 -0.07978600 0.99681200
vn 0.00028000 -0.07933500 0.99684800
vn 0.00035900 -0.07973600 0.99681600
vn 0.00030000 -0.07946000 0.99683800
vn 0.00012400 -0.07944300 0.99683900
vn 0.00029500 -0.07962100 0.99682500
vn 0.00023100 -0.07978400 0.99681200
vn 0.00028800 -0.07958900 0.99682800
vn 0.00044800 -0.07976900 0.99681300
vn 0.00032300 -0.07957200 0.99682900
vn 0.00028800 -0.07958900 0.99682800
vn 0.00044800 -0.07976900 0.99681300
vn 0.00044800 -0.07976900 0.99681300
vn 0.00012400 -0.07944300 0.99683900
vn 0.00027300 -0.07961300 0.99682600
vn 0.00022800 -0.07961100 0.99682600
vn 0.00039400 -0.07956600 0.99682900
vn 0.00030500 -0.07959800 0.99682700
vn 0.00022800 -0.07961100 0.99682600
vn 0.00027300 -0.07961300 0.99682600
vn 0.00029700 -0.07970400 0.99681900
vn 0.00034800 -0.07960000 0.99682700
vn 0.00022800 -0.07961100 0.99682600
vn 0.00039400 -0.07956600 0.99682900
vn 0.00013400 -0.07963300 0.99682400
vn 0.00029700 -0.07970400 0.99681900
vn 0.00029300 -0.07964900 0.99682300
vn 0.00028200 -0.07950600 0.99683400
vn 0.00028200 -0.07950600 0.99683400
vn 0.00033200 -0.07958000 0.99682800
vn 0.00024900 -0.07949900 0.99683500
vn 0.00028900 -0.07959600 0.99682700
vn 0.00027400 -0.07958400 0.99682800
vn 0.00000000 -0.07959600 0.99682700
vn 0.00028900 -0.07959600 0.99682700
vn 0.00024400 -0.07958400 0.99682800
vn 0.00024700 -0.07958600 0.99682800
vn 0.00000000 -0.07959600 0.99682700
vn 0.00024400 -0.07958400 0.99682800
vn 0.00024700 -0.07958600 0.99682800
vn 0.00026000 -0.07959700 0.99682700
vn 0.00024400 -0.07958400 0.99682800
vn 0.00024700 -0.07958600 0.99682800
vn 0.00026000 -0.07959700 0.99682700
vn 0.00044800 -0.07962000 0.99682500
vn 0.00026000 -0.07959700 0.99682700
vn 0.00044800 -0.07962000 0.99682500
vn 0.00033300 -0.07957400 0.99682900
vn 0.00044800 -0.07962000 0.99682500
vn 0.00027800 -0.07957100 0.99682900
vn 0.00033300 -0.07957400 0.99682900
vn 0.00027800 -0.07957100 0.99682900
vn 0.00030900 -0.07958000 0.99682800
vn 0.00033300 -0.07957400 0.99682900
vn 0.00027800 -0.07957100 0.99682900
vn 0.00030900 -0.07958000 0.99682800
vn 0.00023600 -0.07957300 0.99682900
vn 0.00019200 -0.07962800 0.99682500
vn 0.00023600 -0.07957300 0.99682900
vn 0.00033500 -0.07953700 0.99683200
vn 0.00029100 -0.07957200 0.99682900
vn 0.00026400 -0.07951700 0.99683300
vn 0.00028700 -0.07957500 0.99682900
vn 0.00034700 -0.07953000 0.99683200
vn 0.00012400 -0.07944300 0.99683900
vn 0.00029500 -0.07962100 0.99682500
vn 0.00030800 -0.07962100 0.99682500
vn 0.00034700 -0.07953000 0.99683200
vn 0.00029700 -0.07951200 0.99683400
vn 0.00030800 -0.07962100 0.99682500
vn 0.00041600 -0.07994500 0.99679900
vn 0.00033000 -0.07963200 0.99682400
vn 0.00053200 -0.07970300 0.99681900
vn 0.00019800 -0.07953400 0.99683200
vn 0.00041600 -0.07994500 0.99679900
vn 0.00053200 -0.07970300 0.99681900
vn 0.00019800 -0.07953400 0.99683200
vn 0.00053200 -0.07970300 0.99681900
vn 0.00029600 -0.07967500 0.99682100
vn 0.00030200 -0.07967100 0.99682100
vn 0.00031700 -0.07981200 0.99681000
vn 0.00019800 -0.07953400 0.99683200
vn 0.00033500 -0.07960200 0.99682700
vn 0.00031700 -0.07981200 0.99681000
vn 0.00025200 -0.07946900 0.99683700
vn 0.00022800 -0.07959200 0.99682800
vn 0.00033500 -0.07960200 0.99682700
vn 0.00031700 -0.07981200 0.99681000
vn 0.00022800 -0.07959200 0.99682800
vn 0.00029100 -0.07959900 0.99682700
vn 0.00016200 -0.07975100 0.99681500
vn 0.00016200 -0.07975100 0.99681500
vn 0.00034900 -0.07948900 0.99683600
vn 0.00034900 -0.07948800 0.99683600
vn 0.00022000 -0.07959400 0.99682700
vn 0.00016200 -0.07975100 0.99681500
vn 0.00027000 -0.07958500 0.99682800
vn 0.00027500 -0.07958800 0.99682800
vn 0.00022000 -0.07959400 0.99682700
vn 0.00033400 -0.07969700 0.99681900
vn 0.00027000 -0.07958500 0.99682800
vn 0.00028900 -0.07961800 0.99682500
vn 0.00047300 -0.07959200 0.99682700
vn 0.00020900 -0.07957600 0.99682900
vn 0.00023600 -0.07958700 0.99682800
vn 0.00047300 -0.07959200 0.99682700
vn 0.00035600 -0.07960800 0.99682600
vn 0.00023600 -0.07958700 0.99682800
vn 0.00020900 -0.07957600 0.99682900
vn 0.00035600 -0.07960800 0.99682600
vn 0.00026000 -0.07955500 0.99683000
vn 0.00020900 -0.07957600 0.99682900
vn 0.00035600 -0.07960800 0.99682600
vn 0.00031600 -0.07957200 0.99682900
vn 0.00026000 -0.07955500 0.99683000
vn 0.00031600 -0.07957200 0.99682900
vn 0.00040800 -0.07962000 0.99682500
vn 0.00026000 -0.07955500 0.99683000
vn 0.00028700 -0.07959000 0.99682800
vn 0.00031600 -0.07957200 0.99682900
vn 0.00040800 -0.07962000 0.99682500
vn 0.00029700 -0.07961900 0.99682500
vn 0.00028700 -0.07959000 0.99682800
vn 0.00040800 -0.07962000 0.99682500
vn 0.00029700 -0.07961900 0.99682500
vn 0.00024900 -0.07949900 0.99683500
vn 0.00029400 -0.07957900 0.99682900
vn 0.00034400 -0.07967400 0.99682100
vn 0.00026400 -0.07935200 0.99684700
vn 0.00030300 -0.07961000 0.99682600
vn 0.00030300 -0.07961100 0.99682600
vn 0.00030300 -0.07961100 0.99682600
vn 0.00033700 -0.08000900 0.99679400
vn 0.00010700 -0.07962000 0.99682500
vn 0.00037400 -0.07977600 0.99681300
vn 0.00019200 -0.07970400 0.99681900
vn 0.00035900 -0.07973600 0.99681600
vn 0.00019200 -0.07970400 0.99681900
vn 0.00050500 -0.07982400 0.99680900
vn 0.00037400 -0.07977600 0.99681300
vn 0.00013400 -0.07963300 0.99682400
vn 0.00014100 -0.07986300 0.99680600
vn 0.00028300 -0.07966800 0.99682100
vn 0.00022800 -0.07915800 0.99686200
vn 0.00022800 -0.07915800 0.99686200
vn 0.00028300 -0.07966800 0.99682100
vn 0.00022800 -0.07915800 0.99686200
vn 0.00034400 -0.07967400 0.99682100
vn 0.00024600 -0.07936300 0.99684600
vn 0.00044700 -0.07976500 0.99681400
vn 0.00029400 -0.07957900 0.99682900
vn 0.00026500 -0.07901300 0.99687400
vn 0.00029300 -0.07959800 0.99682700
vn 0.00044700 -0.07976500 0.99681400
vn 0.00010700 -0.07962000 0.99682500
vn 0.00037400 -0.07977600 0.99681300
vn 0.00036800 -0.07978600 0.99681200
vn 0.00035900 -0.07973600 0.99681600
vn 0.00042500 -0.07961500 0.99682600
vn 0.00036800 -0.07978600 0.99681200
vn 0.00028000 -0.07933500 0.99684800
vn 0.00014100 -0.07986300 0.99680600
vn 0.00028300 -0.07966800 0.99682100
vn 0.00013400 -0.07963300 0.99682400
vn 0.00014100 -0.07986300 0.99680600
vn 0.00034800 -0.07960000 0.99682700
vn 0.00034800 -0.07960000 0.99682700
vn 0.00039400 -0.07956600 0.99682900
f 1//1 4//4 8//8
f 5//5 3//3 14//14
f 6//6 13//13 16//16
f 20//20 24//24 32//32
f 30//30 25//25 34//34
f 29//29 35//35 37//37
f 36//36 33//33 41//41
f 38//38 39//39 43//43
f 46//46 48//48 52//52
f 56//56 49//49 58//58
f 60//60 7//7 64//64
f 61//61 12//12 71//71
f 62//62 72//72 73//73
f 76//76 78//78 79//79
f 80//80 77//77 53//53
f 82//82 55//55 85//85
f 84//84 51//51 57//57
f 47//47 50//50 87//87
f 86//86 54//54 91//91
f 88//88 90//90 93//93
f 92//92 89//89 96//96
f 94//94 95//95 98//98
f 103//103 105//105 112//112
f 111//111 106//106 113//113
f 118//118 121//121 63//63
f 127//127 128//128 133//133
f 75//75 81//81 139//139
f 137//137 83//83 140//140
f 138//138 141//141 142//142
f 145//145 148//148 152//152
f 144//144 102//102 149//149
f 147//147 104//104 110//110
f 150//150 108//108 155//155
f 156//156 107//107 23//23
f 157//157 22//22 158//158
f 159//159 21//21 27//27
f 15//15 162//162 19//19
f 18//18 161//161 164//164
f 17//17 163//163 167//167
f 168//168 165//165 171//171
f 166//166 169//169 172//172
f 173//173 170//170 175//175
f 174//174 176//176 178//178
f 180//180 177//177 183//183
f 179//179 181//181 184//184
f 185//185 182//182 45//45
f 186//186 44//44 188//188
f 187//187 42//42 40//40
f 59//59 189//189 11//11
f 10//10 190//190 192//192
f 9//9 191//191 2//2
f 143//143 194//194 134//134
f 136//136 193//193 197//197
f 135//135 195//195 123//123
f 125//125 196//196 199//199
f 124//124 198//198 129//129
f 200//200 201//201 204//204
f 205//205 202//202 207//207
f 203//203 206//206 211//211
f 209//209 208//208 214//214
f 210//210 213//213 217//217
f 216//216 212//212 70//70
f 215//215 67//67 218//218
f 219//219 68//68 122//122
f 220//220 221//221 225//225
f 223//223 222//222 117//117
f 224//224 120//120 228//228
f 227//227 119//119 69//69
f 226//226 65//65 230//230
f 229//229 66//66 74//74
f 97//97 231//231 99//99
f 101//101 232//232 235//235
f 100//100 234//234 237//237
f 238//238 233//233 241//241
f 236//236 239//239 242//242
f 244//244 240//240 247//247
f 243//243 245//245 249//249
f 250//250 246//246 253//253
f 248//248 252//252 31//31
f 28//28 251//251 254//254
f 26//26 255//255 160//160
f 259//259 260//260 261//261
f 265//265 267//267 268//268
f 273//273 274//274 276//276
f 262//262 277//277 257//257
f 258//258 278//278 281//281
f 256//256 280//280 114//114
f 115//115 279//279 283//283
f 116//116 282//282 109//109
f 269//269 285//285 264//264
f 263//263 284//284 288//288
f 266//266 287//287 132//132
f 130//130 286//286 289//289
f 131//131 290//290 126//126
f 275//275 292//292 272//272
f 271//271 291//291 294//294
f 270//270 293//293 154//154
f 151//151 295//295 296//296
f 153//153 297//297 146//146

