# https://github.com/mikedh/trimesh
v 0.27768700 -0.01342100 -0.04730000
v 0.27768700 -0.01342100 -0.04720000
v 0.27762500 -0.01348200 -0.04720000
v 0.27762500 -0.01348200 -0.04730000
v 0.27754900 -0.01351700 -0.04720000
v 0.27754900 -0.01351700 -0.04730000
v 0.27746100 -0.01352400 -0.04720000
v 0.27746100 -0.01352400 -0.04730000
v 0.27737400 -0.01350000 -0.04720000
v 0.27737400 -0.01350000 -0.04730000
v 0.27733800 -0.01347800 -0.04720000
v 0.27733800 -0.01347800 -0.04730000
v 0.27727800 -0.01341600 -0.04720000
v 0.27727800 -0.01341600 -0.04730000
v 0.27724300 -0.01334000 -0.04720000
v 0.27724300 -0.01334000 -0.04730000
v 0.27723600 -0.01330100 -0.04720000
v 0.27723600 -0.01330100 -0.04730000
v 0.27723500 -0.01329300 -0.04730000
v 0.27723500 -0.01329300 -0.04720000
v 0.27716500 -0.01258200 -0.04730000
v 0.27716500 -0.01258200 -0.04720000
v 0.27714000 -0.01233500 -0.04730000
v 0.27714000 -0.01233500 -0.04730000
v 0.27714000 -0.01233500 -0.04720000
v 0.27713600 -0.01231100 -0.04730000
v 0.27713600 -0.01231100 -0.04730000
v 0.27713600 -0.01231100 -0.04730000
v 0.27713600 -0.01231100 -0.04720000
v 0.27713600 -0.01231100 -0.04720000
v 0.27713600 -0.01231100 -0.04720000
v 0.27713400 -0.01228900 -0.04730000
v 0.27713400 -0.01228900 -0.04730000
v 0.27713400 -0.01228900 -0.04730000
v 0.27713400 -0.01228900 -0.04720000
v 0.27713400 -0.01228900 -0.04720000
v 0.27713400 -0.01228900 -0.04720000
v 0.27710600 -0.01207700 -0.04730000
v 0.27710600 -0.01207700 -0.04720000
v 0.27710600 -0.01207700 -0.04720000
v 0.27708200 -0.01208300 -0.04730000
v 0.27708200 -0.01208300 -0.04730000
v 0.27708200 -0.01208300 -0.04730000
v 0.27710600 -0.01207700 -0.04730000
v 0.27710600 -0.01207700 -0.04730000
v 0.27708200 -0.01208300 -0.04720000
v 0.27708200 -0.01208300 -0.04720000
v 0.27708200 -0.01208300 -0.04720000
v 0.27710600 -0.01207700 -0.04720000
v 0.27662200 -0.01219000 -0.04730000
v 0.27662200 -0.01219000 -0.04730000
v 0.27662200 -0.01219000 -0.04720000
v 0.27662200 -0.01219000 -0.04720000
v 0.27662200 -0.01219000 -0.04720000
v 0.27592700 -0.01235300 -0.04730000
v 0.27592700 -0.01235300 -0.04720000
v 0.27591900 -0.01235500 -0.04730000
v 0.27591900 -0.01235500 -0.04720000
v 0.27583100 -0.01236000 -0.04720000
v 0.27583100 -0.01236000 -0.04730000
v 0.27574600 -0.01233200 -0.04720000
v 0.27574600 -0.01233200 -0.04730000
v 0.27571800 -0.01231500 -0.04720000
v 0.27571800 -0.01231500 -0.04730000
v 0.27565700 -0.01225300 -0.04720000
v 0.27565700 -0.01225300 -0.04730000
v 0.27562200 -0.01217700 -0.04720000
v 0.27562200 -0.01217700 -0.04730000
v 0.27561500 -0.01208900 -0.04720000
v 0.27561500 -0.01208900 -0.04730000
v 0.27563900 -0.01200300 -0.04720000
v 0.27563900 -0.01200300 -0.04730000
v 0.27566100 -0.01196600 -0.04720000
v 0.27566100 -0.01196600 -0.04730000
v 0.27572200 -0.01190600 -0.04720000
v 0.27572200 -0.01190600 -0.04730000
v 0.27579700 -0.01187200 -0.04720000
v 0.27579700 -0.01187200 -0.04730000
v 0.27585400 -0.01186300 -0.04720000
v 0.27585400 -0.01186300 -0.04730000
v 0.27697100 -0.01160700 -0.04730000
v 0.27697100 -0.01160700 -0.04720000
v 0.27699500 -0.01160100 -0.04720000
v 0.27699500 -0.01160100 -0.04730000
v 0.27701900 -0.01159600 -0.04720000
v 0.27701900 -0.01159600 -0.04730000
v 0.27703600 -0.01159100 -0.04720000
v 0.27703600 -0.01159100 -0.04730000
v 0.27705400 -0.01158700 -0.04720000
v 0.27705400 -0.01158700 -0.04730000
v 0.27705400 -0.01158700 -0.04730000
v 0.27705400 -0.01158700 -0.04720000
v 0.27705000 -0.01157000 -0.04720000
v 0.27705000 -0.01157000 -0.04730000
v 0.27704700 -0.01155100 -0.04720000
v 0.27704700 -0.01155100 -0.04730000
v 0.27704200 -0.01150000 -0.04730000
v 0.27704200 -0.01150000 -0.04730000
v 0.27704200 -0.01150000 -0.04730000
v 0.27704200 -0.01150000 -0.04720000
v 0.27704200 -0.01150000 -0.04720000
v 0.27702700 -0.01135900 -0.04730000
v 0.27702700 -0.01135900 -0.04730000
v 0.27702700 -0.01135900 -0.04730000
v 0.27702700 -0.01135900 -0.04720000
v 0.27702700 -0.01135900 -0.04720000
v 0.27702700 -0.01135900 -0.04720000
v 0.27701800 -0.01127700 -0.04730000
v 0.27701800 -0.01127700 -0.04730000
v 0.27701800 -0.01127700 -0.04720000
v 0.27701800 -0.01127700 -0.04720000
v 0.27701800 -0.01127700 -0.04720000
v 0.27691800 -0.01031500 -0.04730000
v 0.27691800 -0.01031500 -0.04720000
v 0.27691700 -0.01030300 -0.04730000
v 0.27691700 -0.01030300 -0.04720000
v 0.27692500 -0.01021800 -0.04720000
v 0.27692500 -0.01021800 -0.04730000
v 0.27696300 -0.01013800 -0.04720000
v 0.27696300 -0.01013800 -0.04730000
v 0.27702500 -0.01007800 -0.04720000
v 0.27702500 -0.01007800 -0.04730000
v 0.27710100 -0.01004300 -0.04720000
v 0.27710100 -0.01004300 -0.04730000
v 0.27718900 -0.01003500 -0.04720000
v 0.27718900 -0.01003500 -0.04730000
v 0.27727500 -0.01006000 -0.04720000
v 0.27727500 -0.01006000 -0.04730000
v 0.27731100 -0.01008100 -0.04720000
v 0.27731100 -0.01008100 -0.04730000
v 0.27737200 -0.01014400 -0.04720000
v 0.27737200 -0.01014400 -0.04730000
v 0.27740700 -0.01022000 -0.04720000
v 0.27740700 -0.01022000 -0.04730000
v 0.27741400 -0.01025900 -0.04720000
v 0.27741400 -0.01025900 -0.04730000
v 0.27741400 -0.01026800 -0.04730000
v 0.27741400 -0.01026800 -0.04720000
v 0.27748500 -0.01097800 -0.04730000
v 0.27748500 -0.01097800 -0.04720000
v 0.27750900 -0.01122400 -0.04730000
v 0.27750900 -0.01122400 -0.04720000
v 0.27751300 -0.01124800 -0.04730000
v 0.27751300 -0.01124800 -0.04720000
v 0.27751600 -0.01127100 -0.04730000
v 0.27751600 -0.01127100 -0.04730000
v 0.27751600 -0.01127100 -0.04720000
v 0.27754300 -0.01148200 -0.04730000
v 0.27754300 -0.01148200 -0.04720000
v 0.27754300 -0.01148200 -0.04720000
v 0.27756600 -0.01147700 -0.04730000
v 0.27754300 -0.01148200 -0.04730000
v 0.27756600 -0.01147700 -0.04720000
v 0.27754300 -0.01148200 -0.04720000
v 0.27802700 -0.01136900 -0.04730000
v 0.27802700 -0.01136900 -0.04720000
v 0.27872200 -0.01120700 -0.04730000
v 0.27872200 -0.01120700 -0.04720000
v 0.27873100 -0.01120400 -0.04730000
v 0.27873100 -0.01120400 -0.04720000
v 0.27881900 -0.01120000 -0.04720000
v 0.27881900 -0.01120000 -0.04730000
v 0.27890400 -0.01122700 -0.04720000
v 0.27890400 -0.01122700 -0.04730000
v 0.27893200 -0.01124500 -0.04720000
v 0.27893200 -0.01124500 -0.04730000
v 0.27899200 -0.01130700 -0.04720000
v 0.27899200 -0.01130700 -0.04730000
v 0.27902700 -0.01138300 -0.04720000
v 0.27902700 -0.01138300 -0.04730000
v 0.27903500 -0.01147100 -0.04720000
v 0.27903500 -0.01147100 -0.04730000
v 0.27901100 -0.01155700 -0.04720000
v 0.27901100 -0.01155700 -0.04730000
v 0.27898900 -0.01159300 -0.04720000
v 0.27898900 -0.01159300 -0.04730000
v 0.27892800 -0.01165300 -0.04720000
v 0.27892800 -0.01165300 -0.04730000
v 0.27885200 -0.01168800 -0.04720000
v 0.27885200 -0.01168800 -0.04730000
v 0.27879600 -0.01169700 -0.04720000
v 0.27879600 -0.01169700 -0.04730000
v 0.27767800 -0.01195200 -0.04730000
v 0.27767800 -0.01195200 -0.04720000
v 0.27765500 -0.01195900 -0.04720000
v 0.27765500 -0.01195900 -0.04730000
v 0.27763100 -0.01196400 -0.04720000
v 0.27763100 -0.01196400 -0.04730000
v 0.27761300 -0.01196800 -0.04720000
v 0.27761300 -0.01196800 -0.04730000
v 0.27759600 -0.01197200 -0.04720000
v 0.27759600 -0.01197200 -0.04730000
v 0.27759600 -0.01197200 -0.04730000
v 0.27759600 -0.01197200 -0.04720000
v 0.27759900 -0.01199000 -0.04720000
v 0.27759900 -0.01199000 -0.04730000
v 0.27760300 -0.01201000 -0.04720000
v 0.27760300 -0.01201000 -0.04730000
v 0.27760800 -0.01206000 -0.04730000
v 0.27760800 -0.01206000 -0.04730000
v 0.27760800 -0.01206000 -0.04730000
v 0.27760800 -0.01206000 -0.04720000
v 0.27760800 -0.01206000 -0.04720000
v 0.27762300 -0.01220000 -0.04730000
v 0.27762300 -0.01220000 -0.04730000
v 0.27762300 -0.01220000 -0.04730000
v 0.27762300 -0.01220000 -0.04720000
v 0.27762300 -0.01220000 -0.04720000
v 0.27762300 -0.01220000 -0.04720000
v 0.27763100 -0.01228300 -0.04730000
v 0.27763100 -0.01228300 -0.04730000
v 0.27763100 -0.01228300 -0.04720000
v 0.27763100 -0.01228300 -0.04720000
v 0.27763100 -0.01228300 -0.04720000
v 0.27773200 -0.01324500 -0.04730000
v 0.27773200 -0.01324500 -0.04720000
v 0.27773300 -0.01325700 -0.04730000
v 0.27773300 -0.01325700 -0.04720000
v 0.27772500 -0.01334200 -0.04720000
v 0.27772500 -0.01334200 -0.04730000
v 0.27740700 -0.01022000 -0.04730000
v 0.27741400 -0.01025900 -0.04730000
v 0.27741400 -0.01025900 -0.04730000
v 0.27691700 -0.01030300 -0.04730000
v 0.27691700 -0.01030300 -0.04730000
v 0.27691700 -0.01030300 -0.04730000
v 0.27741400 -0.01026800 -0.04730000
v 0.27741400 -0.01026800 -0.04730000
v 0.27741400 -0.01026800 -0.04730000
v 0.27885200 -0.01168800 -0.04730000
v 0.27885200 -0.01168800 -0.04730000
v 0.27885200 -0.01168800 -0.04730000
v 0.27885200 -0.01168800 -0.04730000
v 0.27885200 -0.01168800 -0.04730000
v 0.27872200 -0.01120700 -0.04730000
v 0.27872200 -0.01120700 -0.04730000
v 0.27873100 -0.01120400 -0.04730000
v 0.27873100 -0.01120400 -0.04730000
v 0.27759600 -0.01197200 -0.04730000
v 0.27759600 -0.01197200 -0.04730000
v 0.27759600 -0.01197200 -0.04730000
v 0.27756600 -0.01147700 -0.04730000
v 0.27756600 -0.01147700 -0.04730000
v 0.27761300 -0.01196800 -0.04730000
v 0.27756600 -0.01147700 -0.04730000
v 0.27756600 -0.01147700 -0.04730000
v 0.27756600 -0.01147700 -0.04730000
v 0.27763100 -0.01196400 -0.04730000
v 0.27763100 -0.01196400 -0.04730000
v 0.27754300 -0.01148200 -0.04730000
v 0.27754300 -0.01148200 -0.04730000
v 0.27754300 -0.01148200 -0.04730000
v 0.27754300 -0.01148200 -0.04730000
v 0.27754300 -0.01148200 -0.04730000
v 0.27754300 -0.01148200 -0.04730000
v 0.27710600 -0.01207700 -0.04730000
v 0.27710600 -0.01207700 -0.04730000
v 0.27710600 -0.01207700 -0.04730000
v 0.27710600 -0.01207700 -0.04730000
v 0.27710600 -0.01207700 -0.04730000
v 0.27759900 -0.01199000 -0.04730000
v 0.27759900 -0.01199000 -0.04730000
v 0.27710600 -0.01207700 -0.04730000
v 0.27710600 -0.01207700 -0.04730000
v 0.27710600 -0.01207700 -0.04730000
v 0.27760300 -0.01201000 -0.04730000
v 0.27760300 -0.01201000 -0.04730000
v 0.27697100 -0.01160700 -0.04730000
v 0.27662200 -0.01219000 -0.04730000
v 0.27585400 -0.01186300 -0.04730000
v 0.27592700 -0.01235300 -0.04730000
v 0.27579700 -0.01187200 -0.04730000
v 0.27579700 -0.01187200 -0.04730000
v 0.27579700 -0.01187200 -0.04730000
v 0.27579700 -0.01187200 -0.04730000
v 0.27579700 -0.01187200 -0.04730000
v 0.27579700 -0.01187200 -0.04730000
v 0.27592700 -0.01235300 -0.04730000
v 0.27591900 -0.01235500 -0.04730000
v 0.27591900 -0.01235500 -0.04730000
v 0.27691800 -0.01031500 -0.04730000
v 0.27691800 -0.01031500 -0.04730000
v 0.27691800 -0.01031500 -0.04730000
v 0.27748500 -0.01097800 -0.04730000
v 0.27748500 -0.01097800 -0.04730000
v 0.27748500 -0.01097800 -0.04730000
v 0.27701800 -0.01127700 -0.04730000
v 0.27701800 -0.01127700 -0.04730000
v 0.27879600 -0.01169700 -0.04730000
v 0.27802700 -0.01136900 -0.04730000
v 0.27767800 -0.01195200 -0.04730000
v 0.27767800 -0.01195200 -0.04730000
v 0.27765500 -0.01195900 -0.04730000
v 0.27765500 -0.01195900 -0.04730000
v 0.27723600 -0.01330100 -0.04730000
v 0.27723600 -0.01330100 -0.04730000
v 0.27773200 -0.01324500 -0.04730000
v 0.27773200 -0.01324500 -0.04730000
v 0.27773300 -0.01325700 -0.04730000
v 0.27773300 -0.01325700 -0.04730000
v 0.27773300 -0.01325700 -0.04730000
v 0.27773300 -0.01325700 -0.04730000
v 0.27724300 -0.01334000 -0.04730000
v 0.27699500 -0.01160100 -0.04730000
v 0.27699500 -0.01160100 -0.04730000
v 0.27662200 -0.01219000 -0.04730000
v 0.27662200 -0.01219000 -0.04730000
v 0.27662200 -0.01219000 -0.04730000
v 0.27701900 -0.01159600 -0.04730000
v 0.27701900 -0.01159600 -0.04730000
v 0.27701900 -0.01159600 -0.04730000
v 0.27708200 -0.01208300 -0.04730000
v 0.27708200 -0.01208300 -0.04730000
v 0.27708200 -0.01208300 -0.04730000
v 0.27703600 -0.01159100 -0.04730000
v 0.27703600 -0.01159100 -0.04730000
v 0.27703600 -0.01159100 -0.04730000
v 0.27705400 -0.01158700 -0.04730000
v 0.27705400 -0.01158700 -0.04730000
v 0.27705400 -0.01158700 -0.04730000
v 0.27705000 -0.01157000 -0.04730000
v 0.27705000 -0.01157000 -0.04730000
v 0.27704700 -0.01155100 -0.04730000
v 0.27704700 -0.01155100 -0.04730000
v 0.27704200 -0.01150000 -0.04730000
v 0.27704200 -0.01150000 -0.04730000
v 0.27751600 -0.01127100 -0.04730000
v 0.27751600 -0.01127100 -0.04730000
v 0.27702700 -0.01135900 -0.04730000
v 0.27702700 -0.01135900 -0.04730000
v 0.27751300 -0.01124800 -0.04730000
v 0.27751300 -0.01124800 -0.04730000
v 0.27702700 -0.01135900 -0.04730000
v 0.27701800 -0.01127700 -0.04730000
v 0.27701800 -0.01127700 -0.04730000
v 0.27750900 -0.01122400 -0.04730000
v 0.27716500 -0.01258200 -0.04730000
v 0.27763100 -0.01228300 -0.04730000
v 0.27763100 -0.01228300 -0.04730000
v 0.27723500 -0.01329300 -0.04730000
v 0.27723600 -0.01330100 -0.04730000
v 0.27760800 -0.01206000 -0.04730000
v 0.27760800 -0.01206000 -0.04730000
v 0.27760800 -0.01206000 -0.04730000
v 0.27713400 -0.01228900 -0.04730000
v 0.27713400 -0.01228900 -0.04730000
v 0.27713400 -0.01228900 -0.04730000
v 0.27762300 -0.01220000 -0.04730000
v 0.27762300 -0.01220000 -0.04730000
v 0.27713600 -0.01231100 -0.04730000
v 0.27713600 -0.01231100 -0.04730000
v 0.27714000 -0.01233500 -0.04730000
v 0.27714000 -0.01233500 -0.04730000
v 0.27583100 -0.01236000 -0.04730000
v 0.27583100 -0.01236000 -0.04730000
v 0.27574600 -0.01233200 -0.04730000
v 0.27574600 -0.01233200 -0.04730000
v 0.27571800 -0.01231500 -0.04730000
v 0.27571800 -0.01231500 -0.04730000
v 0.27571800 -0.01231500 -0.04730000
v 0.27881900 -0.01120000 -0.04730000
v 0.27881900 -0.01120000 -0.04730000
v 0.27890400 -0.01122700 -0.04730000
v 0.27890400 -0.01122700 -0.04730000
v 0.27893200 -0.01124500 -0.04730000
v 0.27893200 -0.01124500 -0.04730000
v 0.27893200 -0.01124500 -0.04730000
v 0.27562200 -0.01217700 -0.04730000
v 0.27561500 -0.01208900 -0.04730000
v 0.27565700 -0.01225300 -0.04730000
v 0.27563900 -0.01200300 -0.04730000
v 0.27571800 -0.01231500 -0.04730000
v 0.27566100 -0.01196600 -0.04730000
v 0.27566100 -0.01196600 -0.04730000
v 0.27566100 -0.01196600 -0.04730000
v 0.27572200 -0.01190600 -0.04730000
v 0.27710100 -0.01004300 -0.04730000
v 0.27718900 -0.01003500 -0.04730000
v 0.27718900 -0.01003500 -0.04730000
v 0.27702500 -0.01007800 -0.04730000
v 0.27702500 -0.01007800 -0.04730000
v 0.27727500 -0.01006000 -0.04730000
v 0.27727500 -0.01006000 -0.04730000
v 0.27727500 -0.01006000 -0.04730000
v 0.27727500 -0.01006000 -0.04730000
v 0.27696300 -0.01013800 -0.04730000
v 0.27696300 -0.01013800 -0.04730000
v 0.27902700 -0.01138300 -0.04730000
v 0.27903500 -0.01147100 -0.04730000
v 0.27903500 -0.01147100 -0.04730000
v 0.27899200 -0.01130700 -0.04730000
v 0.27899200 -0.01130700 -0.04730000
v 0.27901100 -0.01155700 -0.04730000
v 0.27901100 -0.01155700 -0.04730000
v 0.27901100 -0.01155700 -0.04730000
v 0.27893200 -0.01124500 -0.04730000
v 0.27898900 -0.01159300 -0.04730000
v 0.27898900 -0.01159300 -0.04730000
v 0.27898900 -0.01159300 -0.04730000
v 0.27892800 -0.01165300 -0.04730000
v 0.27737200 -0.01014400 -0.04730000
v 0.27731100 -0.01008100 -0.04730000
v 0.27691700 -0.01030300 -0.04730000
v 0.27691700 -0.01030300 -0.04730000
v 0.27692500 -0.01021800 -0.04730000
v 0.27692500 -0.01021800 -0.04730000
v 0.27754900 -0.01351700 -0.04730000
v 0.27746100 -0.01352400 -0.04730000
v 0.27746100 -0.01352400 -0.04730000
v 0.27762500 -0.01348200 -0.04730000
v 0.27762500 -0.01348200 -0.04730000
v 0.27762500 -0.01348200 -0.04730000
v 0.27762500 -0.01348200 -0.04730000
v 0.27737400 -0.01350000 -0.04730000
v 0.27737400 -0.01350000 -0.04730000
v 0.27737400 -0.01350000 -0.04730000
v 0.27768700 -0.01342100 -0.04730000
v 0.27772500 -0.01334200 -0.04730000
v 0.27772500 -0.01334200 -0.04730000
v 0.27772500 -0.01334200 -0.04730000
v 0.27737400 -0.01350000 -0.04730000
v 0.27733800 -0.01347800 -0.04730000
v 0.27733800 -0.01347800 -0.04730000
v 0.27733800 -0.01347800 -0.04730000
v 0.27727800 -0.01341600 -0.04730000
v 0.27879600 -0.01169700 -0.04720000
v 0.27879600 -0.01169700 -0.04720000
v 0.27872200 -0.01120700 -0.04720000
v 0.27872200 -0.01120700 -0.04720000
v 0.27802700 -0.01136900 -0.04720000
v 0.27802700 -0.01136900 -0.04720000
v 0.27802700 -0.01136900 -0.04720000
v 0.27741400 -0.01026800 -0.04720000
v 0.27741400 -0.01026800 -0.04720000
v 0.27741400 -0.01025900 -0.04720000
v 0.27740700 -0.01022000 -0.04720000
v 0.27592700 -0.01235300 -0.04720000
v 0.27592700 -0.01235300 -0.04720000
v 0.27579700 -0.01187200 -0.04720000
v 0.27579700 -0.01187200 -0.04720000
v 0.27579700 -0.01187200 -0.04720000
v 0.27579700 -0.01187200 -0.04720000
v 0.27591900 -0.01235500 -0.04720000
v 0.27591900 -0.01235500 -0.04720000
v 0.27762300 -0.01220000 -0.04720000
v 0.27762300 -0.01220000 -0.04720000
v 0.27762300 -0.01220000 -0.04720000
v 0.27760800 -0.01206000 -0.04720000
v 0.27760800 -0.01206000 -0.04720000
v 0.27710600 -0.01207700 -0.04720000
v 0.27710600 -0.01207700 -0.04720000
v 0.27710600 -0.01207700 -0.04720000
v 0.27710600 -0.01207700 -0.04720000
v 0.27760300 -0.01201000 -0.04720000
v 0.27760300 -0.01201000 -0.04720000
v 0.27756600 -0.01147700 -0.04720000
v 0.27756600 -0.01147700 -0.04720000
v 0.27756600 -0.01147700 -0.04720000
v 0.27756600 -0.01147700 -0.04720000
v 0.27756600 -0.01147700 -0.04720000
v 0.27759600 -0.01197200 -0.04720000
v 0.27759600 -0.01197200 -0.04720000
v 0.27759600 -0.01197200 -0.04720000
v 0.27759600 -0.01197200 -0.04720000
v 0.27761300 -0.01196800 -0.04720000
v 0.27761300 -0.01196800 -0.04720000
v 0.27759900 -0.01199000 -0.04720000
v 0.27759900 -0.01199000 -0.04720000
v 0.27754300 -0.01148200 -0.04720000
v 0.27754300 -0.01148200 -0.04720000
v 0.27754300 -0.01148200 -0.04720000
v 0.27767800 -0.01195200 -0.04720000
v 0.27767800 -0.01195200 -0.04720000
v 0.27714000 -0.01233500 -0.04720000
v 0.27714000 -0.01233500 -0.04720000
v 0.27763100 -0.01228300 -0.04720000
v 0.27763100 -0.01228300 -0.04720000
v 0.27763100 -0.01228300 -0.04720000
v 0.27763100 -0.01228300 -0.04720000
v 0.27763100 -0.01228300 -0.04720000
v 0.27713600 -0.01231100 -0.04720000
v 0.27713600 -0.01231100 -0.04720000
v 0.27713600 -0.01231100 -0.04720000
v 0.27713400 -0.01228900 -0.04720000
v 0.27713400 -0.01228900 -0.04720000
v 0.27716500 -0.01258200 -0.04720000
v 0.27716500 -0.01258200 -0.04720000
v 0.27723500 -0.01329300 -0.04720000
v 0.27723500 -0.01329300 -0.04720000
v 0.27723500 -0.01329300 -0.04720000
v 0.27773200 -0.01324500 -0.04720000
v 0.27773200 -0.01324500 -0.04720000
v 0.27773200 -0.01324500 -0.04720000
v 0.27723600 -0.01330100 -0.04720000
v 0.27723600 -0.01330100 -0.04720000
v 0.27723600 -0.01330100 -0.04720000
v 0.27763100 -0.01196400 -0.04720000
v 0.27763100 -0.01196400 -0.04720000
v 0.27765500 -0.01195900 -0.04720000
v 0.27765500 -0.01195900 -0.04720000
v 0.27765500 -0.01195900 -0.04720000
v 0.27696300 -0.01013800 -0.04720000
v 0.27696300 -0.01013800 -0.04720000
v 0.27692500 -0.01021800 -0.04720000
v 0.27691700 -0.01030300 -0.04720000
v 0.27691700 -0.01030300 -0.04720000
v 0.27691700 -0.01030300 -0.04720000
v 0.27702700 -0.01135900 -0.04720000
v 0.27702700 -0.01135900 -0.04720000
v 0.27702700 -0.01135900 -0.04720000
v 0.27704200 -0.01150000 -0.04720000
v 0.27704700 -0.01155100 -0.04720000
v 0.27701900 -0.01159600 -0.04720000
v 0.27701900 -0.01159600 -0.04720000
v 0.27708200 -0.01208300 -0.04720000
v 0.27708200 -0.01208300 -0.04720000
v 0.27708200 -0.01208300 -0.04720000
v 0.27703600 -0.01159100 -0.04720000
v 0.27703600 -0.01159100 -0.04720000
v 0.27703600 -0.01159100 -0.04720000
v 0.27705400 -0.01158700 -0.04720000
v 0.27705000 -0.01157000 -0.04720000
v 0.27662200 -0.01219000 -0.04720000
v 0.27662200 -0.01219000 -0.04720000
v 0.27892800 -0.01165300 -0.04720000
v 0.27893200 -0.01124500 -0.04720000
v 0.27893200 -0.01124500 -0.04720000
v 0.27893200 -0.01124500 -0.04720000
v 0.27885200 -0.01168800 -0.04720000
v 0.27885200 -0.01168800 -0.04720000
v 0.27885200 -0.01168800 -0.04720000
v 0.27890400 -0.01122700 -0.04720000
v 0.27890400 -0.01122700 -0.04720000
v 0.27890400 -0.01122700 -0.04720000
v 0.27691800 -0.01031500 -0.04720000
v 0.27691800 -0.01031500 -0.04720000
v 0.27748500 -0.01097800 -0.04720000
v 0.27748500 -0.01097800 -0.04720000
v 0.27748500 -0.01097800 -0.04720000
v 0.27701800 -0.01127700 -0.04720000
v 0.27701800 -0.01127700 -0.04720000
v 0.27701800 -0.01127700 -0.04720000
v 0.27701800 -0.01127700 -0.04720000
v 0.27699500 -0.01160100 -0.04720000
v 0.27699500 -0.01160100 -0.04720000
v 0.27697100 -0.01160700 -0.04720000
v 0.27697100 -0.01160700 -0.04720000
v 0.27585400 -0.01186300 -0.04720000
v 0.27585400 -0.01186300 -0.04720000
v 0.27773300 -0.01325700 -0.04720000
v 0.27773300 -0.01325700 -0.04720000
v 0.27773300 -0.01325700 -0.04720000
v 0.27773300 -0.01325700 -0.04720000
v 0.27724300 -0.01334000 -0.04720000
v 0.27727800 -0.01341600 -0.04720000
v 0.27873100 -0.01120400 -0.04720000
v 0.27873100 -0.01120400 -0.04720000
v 0.27881900 -0.01120000 -0.04720000
v 0.27751600 -0.01127100 -0.04720000
v 0.27751600 -0.01127100 -0.04720000
v 0.27751300 -0.01124800 -0.04720000
v 0.27751300 -0.01124800 -0.04720000
v 0.27751300 -0.01124800 -0.04720000
v 0.27750900 -0.01122400 -0.04720000
v 0.27750900 -0.01122400 -0.04720000
v 0.27583100 -0.01236000 -0.04720000
v 0.27574600 -0.01233200 -0.04720000
v 0.27574600 -0.01233200 -0.04720000
v 0.27571800 -0.01231500 -0.04720000
v 0.27571800 -0.01231500 -0.04720000
v 0.27571800 -0.01231500 -0.04720000
v 0.27571800 -0.01231500 -0.04720000
v 0.27572200 -0.01190600 -0.04720000
v 0.27572200 -0.01190600 -0.04720000
v 0.27901100 -0.01155700 -0.04720000
v 0.27901100 -0.01155700 -0.04720000
v 0.27903500 -0.01147100 -0.04720000
v 0.27902700 -0.01138300 -0.04720000
v 0.27563900 -0.01200300 -0.04720000
v 0.27563900 -0.01200300 -0.04720000
v 0.27561500 -0.01208900 -0.04720000
v 0.27562200 -0.01217700 -0.04720000
v 0.27898900 -0.01159300 -0.04720000
v 0.27898900 -0.01159300 -0.04720000
v 0.27899200 -0.01130700 -0.04720000
v 0.27718900 -0.01003500 -0.04720000
v 0.27710100 -0.01004300 -0.04720000
v 0.27710100 -0.01004300 -0.04720000
v 0.27727500 -0.01006000 -0.04720000
v 0.27727500 -0.01006000 -0.04720000
v 0.27727500 -0.01006000 -0.04720000
v 0.27702500 -0.01007800 -0.04720000
v 0.27566100 -0.01196600 -0.04720000
v 0.27566100 -0.01196600 -0.04720000
v 0.27565700 -0.01225300 -0.04720000
v 0.27746100 -0.01352400 -0.04720000
v 0.27754900 -0.01351700 -0.04720000
v 0.27754900 -0.01351700 -0.04720000
v 0.27737400 -0.01350000 -0.04720000
v 0.27737400 -0.01350000 -0.04720000
v 0.27737400 -0.01350000 -0.04720000
v 0.27737400 -0.01350000 -0.04720000
v 0.27737400 -0.01350000 -0.04720000
v 0.27737400 -0.01350000 -0.04720000
v 0.27762500 -0.01348200 -0.04720000
v 0.27762500 -0.01348200 -0.04720000
v 0.27768700 -0.01342100 -0.04720000
v 0.27768700 -0.01342100 -0.04720000
v 0.27731100 -0.01008100 -0.04720000
v 0.27731100 -0.01008100 -0.04720000
v 0.27731100 -0.01008100 -0.04720000
v 0.27737200 -0.01014400 -0.04720000
v 0.27737200 -0.01014400 -0.04720000
v 0.27733800 -0.01347800 -0.04720000
v 0.27733800 -0.01347800 -0.04720000
v 0.27772500 -0.01334200 -0.04720000
v 0.27772500 -0.01334200 -0.04720000
vn 0.77753100 -0.62884500 0.00000000
vn 0.84653400 -0.53233500 0.00002300
vn 0.61265700 -0.79034900 0.00000000
vn 0.51734400 -0.85577700 0.00000000
vn 0.30996100 -0.95074900 -0.00002000
vn 0.19799400 -0.98020300 0.00000000
vn -0.03396600 -0.99942300 0.00002000
vn -0.15379900 -0.98810200 0.00002900
vn -0.35346300 -0.93544800 -0.00001700
vn -0.43486100 -0.90049700 0.00000000
vn -0.58415900 -0.81163900 0.00000200
vn -0.65214200 -0.75809700 0.00000000
vn -0.79003300 -0.61306400 -0.00002800
vn -0.85562000 -0.51760500 0.00000000
vn -0.94057900 -0.33957500 0.00000200
vn -0.96566600 -0.25978600 -0.00000200
vn -0.98974000 -0.14288100 -0.00000700
vn -0.99427400 -0.10685900 0.00000700
vn -0.99601300 -0.08921100 0.00000000
vn -0.99679200 -0.08004100 0.00000000
vn -0.99496200 -0.10025100 0.00000000
vn -0.99504800 -0.09939700 0.00000000
vn -0.99271400 -0.12049600 0.00000000
vn -0.99271600 -0.12047700 0.00000000
vn -0.99382200 -0.11098200 0.00000000
vn -0.99258800 -0.12152800 -0.00000000
vn -0.99258900 -0.12151600 0.00000100
vn -0.99258900 -0.12152300 0.00000000
vn -0.99205500 -0.12580500 0.00000000
vn -0.99205500 -0.12580500 0.00000000
vn -0.99206100 -0.12576000 -0.00000000
vn -0.99224200 -0.12431900 0.00000000
vn -0.99223700 -0.12436200 0.00000000
vn -0.99223100 -0.12440700 0.00000000
vn -0.99267500 -0.12081500 0.00000000
vn -0.99267200 -0.12084100 0.00000000
vn -0.99267100 -0.12084800 0.00000100
vn -0.99177100 -0.12802100 0.00000000
vn -0.99177100 -0.12802100 0.00000000
vn -0.99175300 -0.12816600 0.00000000
vn 0.22762600 -0.97374900 0.00000000
vn 0.22766200 -0.97374000 0.00000000
vn 0.22804200 -0.97365100 0.00000000
vn 0.22813500 -0.97362900 0.00000000
vn 0.22836600 -0.97357500 0.00000000
vn 0.22785500 -0.97369500 0.00000000
vn 0.22766200 -0.97374000 0.00000000
vn 0.22827300 -0.97359700 0.00000000
vn 0.22836600 -0.97357500 -0.00000000
vn 0.22788800 -0.97368700 0.00000000
vn 0.22809300 -0.97363900 0.00000000
vn 0.22789100 -0.97368700 0.00000000
vn 0.22762600 -0.97374900 0.00000000
vn 0.22766200 -0.97374000 0.00000000
vn 0.23899800 -0.97102000 0.00000000
vn 0.23370900 -0.97230700 0.00000000
vn 0.11371800 -0.99351300 0.00001300
vn 0.17957200 -0.98374500 0.00000000
vn -0.07161900 -0.99743200 -0.00002300
vn -0.19145800 -0.98150100 0.00002400
vn -0.38391100 -0.92337000 -0.00001600
vn -0.45884800 -0.88851500 0.00000000
vn -0.59527500 -0.80352200 0.00000000
vn -0.65698300 -0.75390500 0.00000000
vn -0.78939000 -0.61389200 0.00000000
vn -0.85492100 -0.51875800 0.00000000
vn -0.95030300 -0.31132600 -0.00002200
vn -0.97994100 -0.19928800 0.00003900
vn -0.99945600 0.03297400 0.00000000
vn -0.98822200 0.15302400 0.00002700
vn -0.93530700 0.35383600 0.00000000
vn -0.89983700 0.43622600 -0.00000200
vn -0.81105600 0.58496800 0.00000000
vn -0.75853200 0.65163500 0.00000000
vn -0.61475700 0.78871600 0.00000000
vn -0.51934700 0.85456400 0.00002800
vn -0.33162600 0.94341100 0.00000000
vn -0.24142200 0.97042000 0.00000000
vn -0.17449900 0.98465700 0.00000000
vn -0.19904600 0.97999000 0.00000000
vn -0.23707500 0.97149100 0.00000000
vn -0.23034600 0.97310900 0.00000000
vn -0.22868300 0.97350100 0.00000000
vn -0.21337700 0.97697000 0.00000000
vn -0.22107300 0.97525700 0.00000000
vn -0.24379400 0.96982700 0.00000000
vn -0.25068800 0.96806800 -0.00000400
vn -0.23487600 0.97202500 0.00000000
vn -0.21908100 0.97570700 -0.00000000
vn -0.21910000 0.97570200 0.00000000
vn -0.97489900 -0.22264900 0.00000000
vn -0.97490700 -0.22261400 -0.00000100
vn -0.97807000 -0.20827400 0.00000000
vn -0.98100000 -0.19400700 -0.00000000
vn -0.98981700 -0.14234300 0.00000000
vn -0.98986400 -0.14201800 0.00000000
vn -0.99458300 -0.10395000 0.00000100
vn -0.99461600 -0.10363300 0.00000000
vn -0.99459500 -0.10383400 0.00000000
vn -0.99458500 -0.10392500 0.00000000
vn -0.99459500 -0.10383400 0.00000000
vn -0.99461600 -0.10363300 0.00000000
vn -0.99464200 -0.10338400 0.00000000
vn -0.99462400 -0.10355100 0.00000000
vn -0.99461600 -0.10363300 0.00000000
vn -0.99462400 -0.10354800 0.00000000
vn -0.99464200 -0.10338400 0.00000000
vn -0.99462400 -0.10355100 0.00000000
vn -0.99463300 -0.10346400 0.00000000
vn -0.99462400 -0.10355100 0.00000000
vn -0.99458200 -0.10395600 0.00000000
vn -0.99463300 -0.10346200 0.00000000
vn -0.99274400 -0.12024500 0.00000000
vn -0.99372000 -0.11189600 0.00000000
vn -0.99979200 0.02039000 0.00000000
vn -0.99851700 -0.05444600 -0.00001300
vn -0.97783100 0.20939700 0.00000000
vn -0.94653700 0.32259600 0.00000000
vn -0.84642700 0.53250500 0.00000000
vn -0.77748600 0.62890000 0.00000000
vn -0.61266500 0.79034300 0.00000200
vn -0.51748200 0.85569400 0.00000000
vn -0.31007800 0.95071100 -0.00002200
vn -0.19796700 0.98020900 0.00002800
vn 0.03417000 0.99941600 -0.00002900
vn 0.15423500 0.98803400 0.00000000
vn 0.35436400 0.93510700 0.00000000
vn 0.43621700 0.89984100 0.00000000
vn 0.58586100 0.81041100 0.00000000
vn 0.65381500 0.75665500 0.00000000
vn 0.79127700 0.61145800 0.00000000
vn 0.85653400 0.51609100 0.00000000
vn 0.94103900 0.33829800 -0.00001800
vn 0.96599200 0.25857100 0.00002000
vn 0.99088300 0.13472400 -0.00001100
vn 0.99579500 0.09161300 0.00000800
vn 0.99662600 0.08207600 0.00000000
vn 0.99787000 0.06523200 0.00000000
vn 0.99520800 0.09778400 0.00000000
vn 0.99517300 0.09813300 0.00000000
vn 0.99026800 0.13917300 0.00000000
vn 0.99300600 0.11806500 0.00000000
vn 0.99099500 0.13390000 0.00000000
vn 0.98913100 0.14703500 0.00000000
vn 0.99195800 0.12656700 0.00000000
vn 0.99197100 0.12646900 0.00000000
vn 0.99229000 0.12393700 0.00000000
vn 0.99159000 0.12941900 0.00000000
vn 0.99159200 0.12940000 0.00000000
vn 0.99159000 0.12941900 0.00000000
vn -0.22312400 0.97479000 0.00000000
vn -0.21409000 0.97681400 0.00000000
vn -0.21882400 0.97576400 0.00000000
vn -0.21410300 0.97681100 0.00000000
vn -0.22784400 0.97369800 0.00000000
vn -0.22784400 0.97369800 0.00000000
vn -0.25181000 0.96777700 0.00000000
vn -0.23991400 0.97079400 0.00000000
vn -0.12030000 0.99273800 0.00000000
vn -0.19265200 0.98126700 0.00000000
vn 0.07161900 0.99743200 0.00000000
vn 0.19140400 0.98151100 0.00000000
vn 0.38392000 0.92336600 0.00000000
vn 0.45886600 0.88850500 0.00001600
vn 0.59524000 0.80354800 -0.00001500
vn 0.65689300 0.75398300 0.00000000
vn 0.78932900 0.61397100 0.00000000
vn 0.85490000 0.51879300 0.00000000
vn 0.95030100 0.31133300 0.00000000
vn 0.97994800 0.19925500 0.00000000
vn 0.99945600 -0.03297300 0.00000000
vn 0.98822200 -0.15303000 0.00000000
vn 0.93537300 -0.35366200 0.00000200
vn 0.90007500 -0.43573600 0.00002100
vn 0.81090900 -0.58517300 0.00000000
vn 0.75771600 -0.65258400 0.00000000
vn 0.61326100 -0.78988000 0.00000000
vn 0.51807000 -0.85533800 0.00002800
vn 0.33082600 -0.94369200 0.00000000
vn 0.24080400 -0.97057400 0.00000000
vn 0.17415100 -0.98471900 0.00000000
vn 0.19865700 -0.98006900 0.00000000
vn 0.24873200 -0.96857200 0.00000000
vn 0.23591000 -0.97177500 0.00000000
vn 0.24182700 -0.97031900 -0.00000500
vn 0.22212100 -0.97501900 0.00000400
vn 0.22336200 -0.97473600 0.00000000
vn 0.24421000 -0.96972200 0.00000000
vn 0.24444300 -0.96966400 0.00000000
vn 0.22376600 -0.97464300 0.00000000
vn 0.20260300 -0.97926100 -0.00000000
vn 0.20314900 -0.97914800 0.00000000
vn 0.97749200 0.21097200 0.00000000
vn 0.97745400 0.21114700 -0.00000000
vn 0.98062400 0.19589700 -0.00000300
vn 0.98352400 0.18077700 0.00000000
vn 0.98960700 0.14379900 0.00000000
vn 0.99252500 0.12203800 0.00000000
vn 0.99449600 0.10477100 0.00000000
vn 0.99448500 0.10488000 0.00000000
vn 0.99448800 0.10485400 0.00000000
vn 0.99474400 0.10239800 0.00000000
vn 0.99472600 0.10256600 0.00000000
vn 0.99449500 0.10478500 0.00000000
vn 0.99451700 0.10457200 0.00000000
vn 0.99452400 0.10450400 0.00000000
vn 0.99437600 0.10590300 0.00000000
vn 0.99436900 0.10597700 0.00000000
vn 0.99437300 0.10593400 0.00000000
vn 0.99464700 0.10333300 0.00000000
vn 0.99461500 0.10364000 0.00000000
vn 0.99461500 0.10363700 0.00000000
vn 0.99462400 0.10355100 0.00000000
vn 0.99464700 0.10333300 0.00000000
vn 0.99583300 0.09119800 0.00000000
vn 0.99525200 0.09733700 0.00000000
vn 0.99944300 -0.03338700 0.00000000
vn 0.99966700 0.02581900 0.00000000
vn 0.97819600 -0.20768400 -0.00002300
vn 0.94685500 -0.32166100 0.00002000
vn 0.00000000 0.00000000 -1.00000000
vn 0.00000000 0.00000000 -1.00000000
vn 0.00008300 -0.00000800 -1.00000000
vn 0.00000000 0.00000000 -1.00000000
vn 0.00018600 -0.00001900 -1.00000000
vn 0.00008300 -0.00000800 -1.00000000
vn 0.00008300 -0.00000800 -1.00000000
vn 0.00002000 -0.00000200 -1.00000000
vn 0.00018600 -0.00001900 -1.00000000
vn -0.00005000 0.00000500 -1.00000000
vn 0.00000000 0.00000000 -1.00000000
vn -0.00008200 0.00000800 -1.00000000
vn 0.00003300 -0.00000300 -1.00000000
vn 0.00001700 -0.00000200 -1.00000000
vn 0.00003300 -0.00000300 -1.00000000
vn 0.00000000 0.00000000 -1.00000000
vn 0.00000000 0.00000000 -1.00000000
vn 0.00003300 -0.00000300 -1.00000000
vn 0.00002200 -0.00000200 -1.00000000
vn 0.00000000 0.00000000 -1.00000000
vn 0.00000700 -0.00000100 -1.00000000
vn 0.00002200 -0.00000200 -1.00000000
vn 0.00000000 0.00000000 -1.00000000
vn 0.00000000 0.00000000 -1.00000000
vn 0.00000000 0.00000000 -1.00000000
vn -0.00014200 0.00001400 -1.00000000
vn -0.00019900 0.00002000 -1.00000000
vn -0.00014200 0.00001400 -1.00000000
vn 0.00000000 0.00000000 -1.00000000
vn 0.00000700 -0.00000100 -1.00000000
vn 0.00002200 -0.00000200 -1.00000000
vn -0.00007700 0.00000800 -1.00000000
vn 0.00006000 -0.00000600 -1.00000000
vn 0.00000000 0.00000000 -1.00000000
vn -0.00000700 0.00000100 -1.00000000
vn -0.00000900 0.00000100 -1.00000000
vn 0.00003500 -0.00000400 -1.00000000
vn -0.00000700 0.00000100 -1.00000000
vn 0.00000700 -0.00000100 -1.00000000
vn 0.00000000 0.00000000 -1.00000000
vn 0.00000000 0.00000000 -1.00000000
vn -0.00001100 0.00000100 -1.00000000
vn 0.00001800 -0.00000200 -1.00000000
vn -0.00001100 0.00000100 -1.00000000
vn -0.00001700 0.00000200 -1.00000000
vn 0.00001800 -0.00000200 -1.00000000
vn -0.00001100 0.00000100 -1.00000000
vn 0.00000000 0.00000000 -1.00000000
vn 0.00000000 0.00000000 -1.00000000
vn 0.00000000 0.00000000 -1.00000000
vn 0.00000000 0.00000000 -1.00000000
vn -0.00006900 0.00000700 -1.00000000
vn 0.00002500 -0.00000200 -1.00000000
vn 0.00003300 -0.00000300 -1.00000000
vn 0.00018800 -0.00001900 -1.00000000
vn -0.00001700 0.00000200 -1.00000000
vn 0.00000000 0.00000000 -1.00000000
vn -0.00006900 0.00000700 -1.00000000
vn -0.00006900 0.00000700 -1.00000000
vn 0.00000000 0.00000000 -1.00000000
vn 0.00002000 -0.00000200 -1.00000000
vn -0.00000800 0.00000100 -1.00000000
vn 0.00018600 -0.00001900 -1.00000000
vn -0.00000800 0.00000100 -1.00000000
vn 0.00000000 0.00000000 -1.00000000
vn 0.00002000 -0.00000200 -1.00000000
vn 0.00000000 0.00000000 -1.00000000
vn -0.00000800 0.00000100 -1.00000000
vn 0.00000000 0.00000000 -1.00000000
vn 0.00000000 0.00000000 -1.00000000
vn 0.00000000 0.00000000 -1.00000000
vn -0.00019900 0.00002000 -1.00000000
vn -0.00019900 0.00002000 -1.00000000
vn -0.00014200 0.00001400 -1.00000000
vn -0.00004000 0.00000400 -1.00000000
vn 0.00000000 0.00000000 -1.00000000
vn -0.00004000 0.00000400 -1.00000000
vn 0.00000000 0.00000000 -1.00000000
vn -0.00006300 0.00000600 -1.00000000
vn -0.00004000 0.00000400 -1.00000000
vn -0.00001400 0.00000100 -1.00000000
vn 0.00000000 0.00000000 -1.00000000
vn 0.00000000 0.00000000 -1.00000000
vn 0.00000000 0.00000000 -1.00000000
vn -0.00003600 0.00000400 -1.00000000
vn -0.00003600 0.00000400 -1.00000000
vn 0.00000000 0.00000000 -1.00000000
vn 0.00001600 -0.00000200 -1.00000000
vn 0.00011000 -0.00001100 -1.00000000
vn -0.00003600 0.00000400 -1.00000000
vn 0.00001600 -0.00000200 -1.00000000
vn 0.00011000 -0.00001100 -1.00000000
vn 0.00001600 -0.00000200 -1.00000000
vn 0.00003500 -0.00000400 -1.00000000
vn -0.00000900 0.00000100 -1.00000000
vn 0.00003500 -0.00000400 -1.00000000
vn 0.00011000 -0.00001100 -1.00000000
vn -0.00000900 0.00000100 -1.00000000
vn -0.00000700 0.00000100 -1.00000000
vn -0.00007700 0.00000800 -1.00000000
vn -0.00007700 0.00000800 -1.00000000
vn 0.00006000 -0.00000600 -1.00000000
vn 0.00000000 0.00000000 -1.00000000
vn 0.00006000 -0.00000600 -1.00000000
vn 0.00001300 -0.00000100 -1.00000000
vn 0.00000000 0.00000000 -1.00000000
vn 0.00001300 -0.00000100 -1.00000000
vn 0.00000000 0.00000000 -1.00000000
vn 0.00001300 -0.00000100 -1.00000000
vn 0.00000000 0.00000000 -1.00000000
vn -0.00002200 0.00000200 -1.00000000
vn 0.00000000 0.00000000 -1.00000000
vn -0.00002200 0.00000200 -1.00000000
vn 0.00000000 0.00000000 -1.00000000
vn -0.00002200 0.00000200 -1.00000000
vn 0.00000000 0.00000000 -1.00000000
vn 0.00000000 0.00000000 -1.00000000
vn 0.00007500 -0.00000800 -1.00000000
vn 0.00000000 0.00000000 -1.00000000
vn 0.00000000 0.00000000 -1.00000000
vn 0.00000000 0.00000000 -1.00000000
vn -0.00001700 0.00000200 -1.00000000
vn 0.00001300 -0.00000100 -1.00000000
vn 0.00001800 -0.00000200 -1.00000000
vn 0.00001300 -0.00000100 -1.00000000
vn 0.00000000 0.00000000 -1.00000000
vn -0.00001700 0.00000200 -1.00000000
vn 0.00001300 -0.00000100 -1.00000000
vn 0.00000000 0.00000000 -1.00000000
vn 0.00000000 0.00000000 -1.00000000
vn 0.00007500 -0.00000800 -1.00000000
vn 0.00007500 -0.00000800 -1.00000000
vn 0.00000000 0.00000000 -1.00000000
vn 0.00000000 0.00000000 -1.00000000
vn 0.00003300 -0.00000300 -1.00000000
vn 0.00003300 -0.00000300 -1.00000000
vn 0.00002500 -0.00000200 -1.00000000
vn 0.00002500 -0.00000200 -1.00000000
vn 0.00000000 0.00000000 -1.00000000
vn -0.00001700 0.00000200 -1.00000000
vn 0.00000000 0.00000000 -1.00000000
vn -0.00005000 0.00000500 -1.00000000
vn -0.00008200 0.00000800 -1.00000000
vn -0.00005000 0.00000500 -1.00000000
vn 0.00014100 -0.00001400 -1.00000000
vn -0.00008200 0.00000800 -1.00000000
vn 0.00001700 -0.00000200 -1.00000000
vn 0.00000000 0.00000000 -1.00000000
vn 0.00000000 0.00000000 -1.00000000
vn 0.00000000 0.00000000 -1.00000000
vn 0.00000000 0.00000000 -1.00000000
vn 0.00000000 0.00000000 -1.00000000
vn -0.00001700 0.00000200 -1.00000000
vn 0.00018800 -0.00001900 -1.00000000
vn 0.00000000 0.00000000 -1.00000000
vn 0.00018800 -0.00001900 -1.00000000
vn 0.00000000 0.00000000 -1.00000000
vn 0.00001500 -0.00000200 -1.00000000
vn 0.00000000 0.00000000 -1.00000000
vn 0.00001500 -0.00000200 -1.00000000
vn 0.00000000 0.00000000 -1.00000000
vn 0.00000000 0.00000000 -1.00000000
vn -0.00004100 0.00000400 -1.00000000
vn 0.00001500 -0.00000200 -1.00000000
vn 0.00003200 -0.00000300 -1.00000000
vn -0.00004100 0.00000400 -1.00000000
vn 0.00000000 0.00000000 -1.00000000
vn 0.00000000 0.00000000 -1.00000000
vn -0.00011800 0.00001200 -1.00000000
vn 0.00000000 0.00000000 -1.00000000
vn 0.00000000 0.00000000 -1.00000000
vn -0.00011800 0.00001200 -1.00000000
vn 0.00014100 -0.00001400 -1.00000000
vn 0.00000000 0.00000000 -1.00000000
vn -0.00011800 0.00001200 -1.00000000
vn 0.00000000 0.00000000 -1.00000000
vn 0.00014100 -0.00001400 -1.00000000
vn 0.00001700 -0.00000200 -1.00000000
vn 0.00000000 0.00000000 -1.00000000
vn 0.00000000 0.00000000 -1.00000000
vn 0.00000000 0.00000000 -1.00000000
vn 0.00000000 0.00000000 -1.00000000
vn 0.00003200 -0.00000300 -1.00000000
vn 0.00000000 0.00000000 -1.00000000
vn -0.00004100 0.00000400 -1.00000000
vn 0.00003200 -0.00000300 -1.00000000
vn 0.00000000 0.00000000 -1.00000000
vn 0.00000000 0.00000000 -1.00000000
vn -0.00004400 0.00000500 -1.00000000
vn 0.00000000 0.00000000 -1.00000000
vn 0.00013400 -0.00001400 -1.00000000
vn 0.00002700 -0.00000300 -1.00000000
vn -0.00004400 0.00000500 -1.00000000
vn -0.00006300 0.00000600 -1.00000000
vn 0.00002700 -0.00000300 -1.00000000
vn -0.00004400 0.00000500 -1.00000000
vn 0.00013400 -0.00001400 -1.00000000
vn 0.00013400 -0.00001400 -1.00000000
vn 0.00002700 -0.00000300 -1.00000000
vn -0.00006300 0.00000600 -1.00000000
vn -0.00001400 0.00000100 -1.00000000
vn 0.00000000 0.00000000 -1.00000000
vn -0.00001400 0.00000100 -1.00000000
vn 0.00000000 0.00000000 -1.00000000
vn 0.00000000 0.00000000 -1.00000000
vn 0.00000000 0.00000000 1.00000000
vn 0.00008900 -0.00000900 1.00000000
vn 0.00008900 -0.00000900 1.00000000
vn 0.00000000 0.00000000 1.00000000
vn 0.00000000 0.00000000 1.00000000
vn 0.00001600 -0.00000200 1.00000000
vn -0.00001000 0.00000100 1.00000000
vn 0.00018300 -0.00001900 1.00000000
vn 0.00000000 0.00000000 1.00000000
vn 0.00000000 0.00000000 1.00000000
vn 0.00000000 0.00000000 1.00000000
vn 0.00000000 0.00000000 1.00000000
vn 0.00000800 -0.00000100 1.00000000
vn 0.00000000 0.00000000 1.00000000
vn 0.00011800 -0.00001200 1.00000000
vn -0.00004500 0.00000500 1.00000000
vn 0.00000800 -0.00000100 1.00000000
vn -0.00004500 0.00000500 1.00000000
vn 0.00000000 0.00000000 1.00000000
vn 0.00000000 0.00000000 1.00000000
vn -0.00008100 0.00000800 1.00000000
vn 0.00002200 -0.00000200 1.00000000
vn 0.00000000 0.00000000 1.00000000
vn -0.00001800 0.00000200 1.00000000
vn 0.00039000 -0.00004000 1.00000000
vn 0.00005000 -0.00000500 1.00000000
vn -0.00001800 0.00000200 1.00000000
vn 0.00000000 0.00000000 1.00000000
vn 0.00000000 0.00000000 1.00000000
vn -0.00001800 0.00000200 1.00000000
vn -0.00000600 0.00000100 1.00000000
vn 0.00001600 -0.00000200 1.00000000
vn 0.00001900 -0.00000200 1.00000000
vn -0.00007900 0.00000800 1.00000000
vn -0.00002200 0.00000200 1.00000000
vn -0.00002200 0.00000200 1.00000000
vn -0.00000600 0.00000100 1.00000000
vn 0.00000000 0.00000000 1.00000000
vn 0.00005000 -0.00000500 1.00000000
vn -0.00007900 0.00000800 1.00000000
vn -0.00000600 0.00000100 1.00000000
vn 0.00000000 0.00000000 1.00000000
vn 0.00005000 -0.00000500 1.00000000
vn -0.00002200 0.00000200 1.00000000
vn 0.00000000 0.00000000 1.00000000
vn 0.00000900 -0.00000100 1.00000000
vn 0.00000000 0.00000000 1.00000000
vn -0.00001000 0.00000100 1.00000000
vn -0.00003000 0.00000300 1.00000000
vn 0.00003700 -0.00000400 1.00000000
vn -0.00000200 0.00000000 1.00000000
vn -0.00003000 0.00000300 1.00000000
vn 0.00002200 -0.00000200 1.00000000
vn -0.00002100 0.00000200 1.00000000
vn 0.00003700 -0.00000400 1.00000000
vn -0.00008100 0.00000800 1.00000000
vn 0.00002200 -0.00000200 1.00000000
vn 0.00003700 -0.00000400 1.00000000
vn -0.00008100 0.00000800 1.00000000
vn 0.00000000 0.00000000 1.00000000
vn -0.00002100 0.00000200 1.00000000
vn -0.00003000 0.00000300 1.00000000
vn -0.00009700 0.00001000 1.00000000
vn -0.00000200 0.00000000 1.00000000
vn -0.00002100 0.00000200 1.00000000
vn 0.00015800 -0.00001600 1.00000000
vn -0.00000200 0.00000000 1.00000000
vn -0.00009700 0.00001000 1.00000000
vn 0.00015800 -0.00001600 1.00000000
vn 0.00000000 0.00000000 1.00000000
vn -0.00009700 0.00001000 1.00000000
vn -0.00007900 0.00000800 1.00000000
vn 0.00001900 -0.00000200 1.00000000
vn -0.00001000 0.00000100 1.00000000
vn 0.00001600 -0.00000200 1.00000000
vn 0.00001900 -0.00000200 1.00000000
vn -0.00012500 0.00001300 1.00000000
vn 0.00000000 0.00000000 1.00000000
vn -0.00012500 0.00001300 1.00000000
vn -0.00010900 0.00001100 1.00000000
vn -0.00012500 0.00001300 1.00000000
vn 0.00000000 0.00000000 1.00000000
vn 0.00000000 0.00000000 1.00000000
vn -0.00002000 0.00000200 1.00000000
vn 0.00000900 -0.00000100 1.00000000
vn 0.00000000 0.00000000 1.00000000
vn 0.00000000 0.00000000 1.00000000
vn 0.00006400 -0.00000700 1.00000000
vn 0.00000000 0.00000000 1.00000000
vn 0.00039000 -0.00004000 1.00000000
vn 0.00006400 -0.00000700 1.00000000
vn 0.00000000 0.00000000 1.00000000
vn 0.00006400 -0.00000700 1.00000000
vn 0.00039000 -0.00004000 1.00000000
vn 0.00000000 0.00000000 1.00000000
vn 0.00000000 0.00000000 1.00000000
vn 0.00000000 0.00000000 1.00000000
vn 0.00000000 0.00000000 1.00000000
vn -0.00001900 0.00000200 1.00000000
vn 0.00000000 0.00000000 1.00000000
vn -0.00016400 0.00001700 1.00000000
vn 0.00000000 0.00000000 1.00000000
vn 0.00004100 -0.00000400 1.00000000
vn 0.00008900 -0.00000900 1.00000000
vn 0.00004100 -0.00000400 1.00000000
vn 0.00000000 0.00000000 1.00000000
vn 0.00004100 -0.00000400 1.00000000
vn 0.00004100 -0.00000400 1.00000000
vn 0.00000000 0.00000000 1.00000000
vn 0.00000000 0.00000000 1.00000000
vn -0.00001500 0.00000200 1.00000000
vn 0.00001500 -0.00000200 1.00000000
vn 0.00000000 0.00000000 1.00000000
vn -0.00001500 0.00000200 1.00000000
vn 0.00001500 -0.00000200 1.00000000
vn -0.00001500 0.00000200 1.00000000
vn -0.00001900 0.00000200 1.00000000
vn 0.00000000 0.00000000 1.00000000
vn -0.00001900 0.00000200 1.00000000
vn 0.00000000 0.00000000 1.00000000
vn 0.00000000 0.00000000 1.00000000
vn -0.00001900 0.00000200 1.00000000
vn 0.00000800 -0.00000100 1.00000000
vn 0.00000000 0.00000000 1.00000000
vn -0.00008200 0.00000800 1.00000000
vn 0.00006300 -0.00000600 1.00000000
vn 0.00000000 0.00000000 1.00000000
vn 0.00015800 -0.00001600 1.00000000
vn 0.00000000 0.00000000 1.00000000
vn 0.00000000 0.00000000 1.00000000
vn 0.00004100 -0.00000400 1.00000000
vn 0.00000000 0.00000000 1.00000000
vn 0.00004100 -0.00000400 1.00000000
vn 0.00000900 -0.00000100 1.00000000
vn -0.00002000 0.00000200 1.00000000
vn 0.00000000 0.00000000 1.00000000
vn -0.00001900 0.00000200 1.00000000
vn -0.00002000 0.00000200 1.00000000
vn -0.00001900 0.00000200 1.00000000
vn 0.00001500 -0.00000200 1.00000000
vn 0.00000000 0.00000000 1.00000000
vn 0.00000000 0.00000000 1.00000000
vn -0.00004500 0.00000500 1.00000000
vn -0.00014700 0.00001500 1.00000000
vn 0.00004700 -0.00000500 1.00000000
vn 0.00011800 -0.00001200 1.00000000
vn 0.00000000 0.00000000 1.00000000
vn 0.00011800 -0.00001200 1.00000000
vn -0.00014700 0.00001500 1.00000000
vn -0.00016400 0.00001700 1.00000000
vn 0.00000000 0.00000000 1.00000000
vn 0.00000000 0.00000000 1.00000000
vn 0.00000000 0.00000000 1.00000000
vn 0.00000000 0.00000000 1.00000000
vn 0.00004700 -0.00000500 1.00000000
vn 0.00000000 0.00000000 1.00000000
vn 0.00000000 0.00000000 1.00000000
vn 0.00000000 0.00000000 1.00000000
vn -0.00016400 0.00001700 1.00000000
vn 0.00000000 0.00000000 1.00000000
vn -0.00000500 0.00000100 1.00000000
vn 0.00000000 0.00000000 1.00000000
vn -0.00000500 0.00000100 1.00000000
vn 0.00000000 0.00000000 1.00000000
vn -0.00010900 0.00001100 1.00000000
vn -0.00000500 0.00000100 1.00000000
vn 0.00000000 0.00000000 1.00000000
vn 0.00004700 -0.00000500 1.00000000
vn -0.00014700 0.00001500 1.00000000
vn 0.00000000 0.00000000 1.00000000
vn 0.00001500 -0.00000200 1.00000000
vn 0.00000000 0.00000000 1.00000000
vn 0.00001500 -0.00000200 1.00000000
vn -0.00008200 0.00000800 1.00000000
vn 0.00006300 -0.00000600 1.00000000
vn 0.00001500 -0.00000200 1.00000000
vn 0.00003200 -0.00000300 1.00000000
vn -0.00004100 0.00000400 1.00000000
vn 0.00000000 0.00000000 1.00000000
vn 0.00000000 0.00000000 1.00000000
vn 0.00003200 -0.00000300 1.00000000
vn -0.00004100 0.00000400 1.00000000
vn 0.00003200 -0.00000300 1.00000000
vn -0.00010900 0.00001100 1.00000000
vn 0.00018300 -0.00001900 1.00000000
vn 0.00000000 0.00000000 1.00000000
vn 0.00018300 -0.00001900 1.00000000
vn 0.00000000 0.00000000 1.00000000
vn 0.00000000 0.00000000 1.00000000
vn -0.00008200 0.00000800 1.00000000
vn 0.00006300 -0.00000600 1.00000000
vn -0.00004100 0.00000400 1.00000000
f 1//1 2//2 3//3
f 1//1 3//3 4//4
f 4//4 3//3 5//5
f 4//4 5//5 6//6
f 6//6 5//5 7//7
f 6//6 7//7 8//8
f 8//8 7//7 9//9
f 8//8 9//9 10//10
f 10//10 9//9 11//11
f 10//10 11//11 12//12
f 12//12 11//11 13//13
f 12//12 13//13 14//14
f 14//14 13//13 15//15
f 14//14 15//15 16//16
f 16//16 15//15 17//17
f 16//16 17//17 18//18
f 19//19 18//18 20//20
f 20//20 18//18 17//17
f 21//21 19//19 22//22
f 22//22 19//19 20//20
f 23//23 21//21 25//25
f 25//25 21//21 22//22
f 28//28 24//24 30//30
f 29//29 23//23 25//25
f 32//32 27//27 37//37
f 35//35 26//26 31//31
f 38//38 34//34 39//39
f 40//40 33//33 36//36
f 43//43 44//44 46//46
f 48//48 45//45 49//49
f 51//51 41//41 53//53
f 54//54 42//42 47//47
f 55//55 50//50 56//56
f 56//56 50//50 52//52
f 57//57 55//55 58//58
f 58//58 55//55 56//56
f 57//57 58//58 59//59
f 57//57 59//59 60//60
f 60//60 59//59 61//61
f 60//60 61//61 62//62
f 62//62 61//61 63//63
f 62//62 63//63 64//64
f 64//64 63//63 65//65
f 64//64 65//65 66//66
f 66//66 65//65 67//67
f 66//66 67//67 68//68
f 68//68 67//67 69//69
f 68//68 69//69 70//70
f 70//70 69//69 71//71
f 70//70 71//71 72//72
f 72//72 71//71 73//73
f 72//72 73//73 74//74
f 74//74 73//73 75//75
f 74//74 75//75 76//76
f 76//76 75//75 77//77
f 76//76 77//77 78//78
f 78//78 77//77 79//79
f 78//78 79//79 80//80
f 81//81 80//80 82//82
f 82//82 80//80 79//79
f 81//81 82//82 83//83
f 81//81 83//83 84//84
f 84//84 83//83 85//85
f 84//84 85//85 86//86
f 86//86 85//85 87//87
f 86//86 87//87 88//88
f 88//88 87//87 89//89
f 88//88 89//89 90//90
f 91//91 92//92 93//93
f 91//91 93//93 94//94
f 94//94 93//93 95//95
f 94//94 95//95 96//96
f 96//96 95//95 97//97
f 97//97 95//95 100//100
f 102//102 98//98 105//105
f 106//106 99//99 101//101
f 108//108 104//104 110//110
f 111//111 103//103 107//107
f 113//113 109//109 114//114
f 114//114 109//109 112//112
f 115//115 113//113 116//116
f 116//116 113//113 114//114
f 115//115 116//116 117//117
f 115//115 117//117 118//118
f 118//118 117//117 119//119
f 118//118 119//119 120//120
f 120//120 119//119 121//121
f 120//120 121//121 122//122
f 122//122 121//121 123//123
f 122//122 123//123 124//124
f 124//124 123//123 125//125
f 124//124 125//125 126//126
f 126//126 125//125 127//127
f 126//126 127//127 128//128
f 128//128 127//127 129//129
f 128//128 129//129 130//130
f 130//130 129//129 131//131
f 130//130 131//131 132//132
f 132//132 131//131 133//133
f 132//132 133//133 134//134
f 134//134 133//133 135//135
f 134//134 135//135 136//136
f 137//137 136//136 138//138
f 138//138 136//136 135//135
f 139//139 137//137 140//140
f 140//140 137//137 138//138
f 141//141 139//139 142//142
f 142//142 139//139 140//140
f 143//143 141//141 144//144
f 144//144 141//141 142//142
f 146//146 143//143 147//147
f 147//147 143//143 144//144
f 148//148 145//145 150//150
f 149//149 146//146 147//147
f 151//151 152//152 153//153
f 153//153 152//152 154//154
f 155//155 151//151 156//156
f 156//156 151//151 153//153
f 157//157 155//155 158//158
f 158//158 155//155 156//156
f 159//159 157//157 160//160
f 160//160 157//157 158//158
f 159//159 160//160 161//161
f 159//159 161//161 162//162
f 162//162 161//161 163//163
f 162//162 163//163 164//164
f 164//164 163//163 165//165
f 164//164 165//165 166//166
f 166//166 165//165 167//167
f 166//166 167//167 168//168
f 168//168 167//167 169//169
f 168//168 169//169 170//170
f 170//170 169//169 171//171
f 170//170 171//171 172//172
f 172//172 171//171 173//173
f 172//172 173//173 174//174
f 174//174 173//173 175//175
f 174//174 175//175 176//176
f 176//176 175//175 177//177
f 176//176 177//177 178//178
f 178//178 177//177 179//179
f 178//178 179//179 180//180
f 180//180 179//179 181//181
f 180//180 181//181 182//182
f 183//183 182//182 184//184
f 184//184 182//182 181//181
f 183//183 184//184 185//185
f 183//183 185//185 186//186
f 186//186 185//185 187//187
f 186//186 187//187 188//188
f 188//188 187//187 189//189
f 188//188 189//189 190//190
f 190//190 189//189 191//191
f 190//190 191//191 192//192
f 193//193 194//194 195//195
f 193//193 195//195 196//196
f 196//196 195//195 197//197
f 196//196 197//197 198//198
f 199//199 198//198 202//202
f 202//202 198//198 197//197
f 204//204 200//200 208//208
f 207//207 201//201 203//203
f 210//210 205//205 214//214
f 213//213 206//206 209//209
f 215//215 211//211 216//216
f 216//216 211//211 212//212
f 217//217 215//215 218//218
f 218//218 215//215 216//216
f 217//217 218//218 219//219
f 217//217 219//219 220//220
f 220//220 219//219 2//2
f 220//220 2//2 1//1
f 221//221 222//222 224//224
f 226//226 223//223 227//227
f 233//233 235//235 238//238
f 240//240 243//243 244//244
f 244//244 245//245 249//249
f 251//251 242//242 239//239
f 250//250 241//241 259//259
f 260//260 240//240 261//261
f 264//264 262//262 267//267
f 268//268 269//269 270//270
f 270//270 269//269 271//271
f 270//270 271//271 277//277
f 272//272 278//278 279//279
f 283//283 225//225 229//229
f 281//281 228//228 286//286
f 282//282 284//284 288//288
f 236//236 231//231 289//289
f 236//236 289//289 290//290
f 290//290 289//289 291//291
f 290//290 291//291 245//245
f 247//247 292//292 293//293
f 246//246 294//294 248//248
f 295//295 297//297 300//300
f 296//296 302//302 303//303
f 268//268 304//304 307//307
f 306//306 305//305 310//310
f 308//308 311//311 313//313
f 312//312 309//309 317//317
f 314//314 316//316 257//257
f 256//256 315//315 318//318
f 258//258 319//319 255//255
f 252//252 320//320 321//321
f 253//253 322//322 324//324
f 254//254 323//323 326//326
f 254//254 326//326 328//328
f 327//327 325//325 329//329
f 328//328 330//330 332//332
f 331//331 333//333 335//335
f 332//332 334//334 336//336
f 336//336 287//287 285//285
f 337//337 339//339 340//340
f 340//340 339//339 298//298
f 340//340 298//298 341//341
f 263//263 266//266 344//344
f 265//265 342//342 347//347
f 345//345 343//343 348//348
f 346//346 349//349 350//350
f 350//350 349//349 339//339
f 351//351 338//338 352//352
f 353//353 339//339 337//337
f 280//280 354//354 277//277
f 274//274 355//355 356//356
f 273//273 357//357 358//358
f 237//237 361//361 231//231
f 230//230 362//362 364//364
f 232//232 363//363 366//366
f 368//368 369//369 370//370
f 370//370 369//369 371//371
f 370//370 371//371 372//372
f 359//359 371//371 375//375
f 360//360 373//373 276//276
f 275//275 374//374 376//376
f 377//377 379//379 381//381
f 380//380 378//378 384//384
f 381//381 382//382 387//387
f 388//388 390//390 391//391
f 392//392 389//389 395//395
f 391//391 394//394 396//396
f 365//365 393//393 397//397
f 367//367 398//398 234//234
f 231//231 399//399 400//400
f 401//401 221//221 402//402
f 402//402 221//221 404//404
f 402//402 404//404 382//382
f 385//385 403//403 406//406
f 383//383 405//405 386//386
f 407//407 408//408 410//410
f 413//413 409//409 416//416
f 417//417 411//411 418//418
f 419//419 412//412 415//415
f 420//420 414//414 299//299
f 301//301 421//421 423//423
f 302//302 422//422 303//303
f 303//303 424//424 425//425
f 426//426 429//429 430//430
f 434//434 435//435 436//436
f 437//437 439//439 444//444
f 445//445 448//448 453//453
f 452//452 449//449 455//455
f 456//456 462//462 466//466
f 454//454 467//467 453//453
f 451//451 468//468 464//464
f 453//453 463//463 470//470
f 469//469 461//461 460//460
f 426//426 430//430 472//472
f 475//475 480//480 483//483
f 482//482 478//478 447//447
f 481//481 446//446 484//484
f 485//485 445//445 453//453
f 474//474 487//487 477//477
f 479//479 486//486 490//490
f 476//476 489//489 492//492
f 493//493 488//488 496//496
f 465//465 497//497 459//459
f 458//458 498//498 501//501
f 457//457 500//500 431//431
f 432//432 499//499 473//473
f 502//502 504//504 506//506
f 508//508 511//511 470//470
f 470//470 511//511 512//512
f 513//513 516//516 518//518
f 519//519 515//515 450//450
f 520//520 453//453 521//521
f 521//521 453//453 470//470
f 521//521 470//470 522//522
f 522//522 470//470 512//512
f 514//514 523//523 517//517
f 525//525 527//527 531//531
f 530//530 528//528 532//532
f 507//507 535//535 434//434
f 434//434 535//535 538//538
f 539//539 536//536 541//541
f 514//514 545//545 523//523
f 524//524 544//544 547//547
f 523//523 546//546 437//437
f 437//437 546//546 549//549
f 438//438 548//548 442//442
f 491//491 494//494 553//553
f 552//552 495//495 554//554
f 552//552 554//554 555//555
f 428//428 427//427 529//529
f 429//429 531//531 557//557
f 557//557 531//531 534//534
f 556//556 533//533 558//558
f 471//471 559//559 510//510
f 509//509 560//560 563//563
f 508//508 561//561 543//543
f 542//542 562//562 564//564
f 540//540 565//565 537//537
f 566//566 444//444 567//567
f 568//568 443//443 441//441
f 567//567 439//439 572//572
f 571//571 440//440 573//573
f 576//576 577//577 578//578
f 579//579 581//581 582//582
f 525//525 583//583 527//527
f 526//526 584//584 575//575
f 527//527 576//576 585//585
f 585//585 576//576 578//578
f 586//586 588//588 591//591
f 589//589 587//587 592//592
f 574//574 594//594 569//569
f 570//570 593//593 580//580
f 572//572 579//579 595//595
f 595//595 579//579 582//582
f 596//596 598//598 601//601
f 604//604 597//597 605//605
f 602//602 606//606 608//608
f 592//592 503//503 589//589
f 589//589 503//503 507//507
f 590//590 505//505 609//609
f 611//611 507//507 434//434
f 610//610 433//433 612//612
f 613//613 434//434 436//436
f 555//555 614//614 552//552
f 550//550 615//615 599//599
f 551//551 600//600 616//616
f 617//617 603//603 607//607

