# https://github.com/mikedh/trimesh
v 0.00394600 -0.02993700 0.02883400
v 0.00446500 -0.02986300 0.02875400
v 0.00446500 -0.03800000 0.02875400
v 0.00576100 -0.02963700 0.02851100
v 0.00666100 -0.02944500 0.02830400
v 0.00666100 -0.03750000 0.02830400
v -0.00618200 -0.03799800 0.02841800
v -0.00626900 -0.03798500 0.02839800
v -0.00488100 -0.02979700 0.02868300
v -0.00635100 -0.03795700 0.02837900
v -0.00642800 -0.03791700 0.02836000
v -0.00649400 -0.03786700 0.02834400
v -0.00655200 -0.03780500 0.02833000
v -0.00659800 -0.03773700 0.02831900
v -0.00663300 -0.03766200 0.02831100
v -0.00665400 -0.03758100 0.02830500
v -0.00666100 -0.03750000 0.02830400
v -0.00577300 -0.02963500 0.02850800
v -0.00666100 -0.02944500 0.02830400
v -0.00446500 -0.02986300 0.02875400
v -0.00446500 -0.03800000 0.02875400
v -0.00462300 -0.03800000 0.02872800
v -0.00614200 -0.03800000 0.02842700
v 0.00462300 -0.03800000 0.02872800
v 0.00644500 -0.03775400 0.02835600
v 0.00485600 -0.02980100 0.02868800
v 0.00614200 -0.03800000 0.02842700
v 0.00623000 -0.03799300 0.02840700
v 0.00631700 -0.03797100 0.02838700
v 0.00653500 -0.03782700 0.02833500
v 0.00647300 -0.03788500 0.02835000
v 0.00639700 -0.03793500 0.02836800
v 0.00665100 -0.03759600 0.02830600
v 0.00662600 -0.03768000 0.02831200
v 0.00658800 -0.03775400 0.02832200
v 0.00666000 -0.03751500 0.02830400
v 0.00303200 -0.03004500 0.02895000
v 0.00309000 -0.03800000 0.02894400
v 0.00211300 -0.03012500 0.02903600
v 0.00224000 -0.03800000 0.02902600
v 0.00118900 -0.03017600 0.02909100
v 0.00154800 -0.03800000 0.02907300
v 0.00026100 -0.03019900 0.02911500
v 0.00000000 -0.03800000 0.02911700
v 0.00000000 -0.03020000 0.02911700
v -0.00217800 -0.03012000 0.02903100
v -0.00127000 -0.03017300 0.02908700
v -0.00154800 -0.03800000 0.02907300
v -0.00035800 -0.03019800 0.02911400
v -0.00398400 -0.02993200 0.02882800
v -0.00308300 -0.03004000 0.02894400
v -0.00309000 -0.03800000 0.02894400
v -0.00224000 -0.03800000 0.02902600
v 0.00792000 -0.03750000 0.02864300
v 0.00792000 -0.03750000 0.02579400
v 0.00792000 -0.02893600 0.02864300
v 0.00792000 -0.02893600 0.02579400
v 0.00592000 -0.03950000 0.02579400
v 0.00592000 -0.03950000 0.02909000
v 0.00554900 -0.03950000 0.02916700
v 0.00445000 -0.03950000 0.02936500
v 0.00334300 -0.03950000 0.02951800
v 0.00223200 -0.03950000 0.02962800
v -0.00223200 -0.03950000 0.02962800
v -0.00334300 -0.03950000 0.02951800
v -0.00592000 -0.03950000 0.02579400
v -0.00445000 -0.03950000 0.02936500
v -0.00592000 -0.03950000 0.02909000
v 0.00111700 -0.03950000 0.02969400
v 0.00000000 -0.03950000 0.02971600
v -0.00111700 -0.03950000 0.02969400
v -0.00792000 -0.02893600 0.02864300
v -0.00792000 -0.02893600 0.02579400
v -0.00792000 -0.03750000 0.02864300
v -0.00792000 -0.03750000 0.02579400
v -0.00742300 -0.02906700 0.02790900
v -0.00750600 -0.02904600 0.02772100
v -0.00792000 -0.02893600 0.02864300
v -0.00732200 -0.02909300 0.02806500
v -0.00777500 -0.02897500 0.02883600
v -0.00673800 -0.02923300 0.02910800
v -0.00685500 -0.02920600 0.02843300
v -0.00703600 -0.02916300 0.02833300
v -0.00718300 -0.02912700 0.02821800
v -0.00785000 -0.02895500 0.02879500
v -0.00790200 -0.02894100 0.02872700
v -0.00757000 -0.02902900 0.02579400
v -0.00792000 -0.02893600 0.02579400
v -0.00757000 -0.02902900 0.02733300
v -0.00792000 -0.02893600 0.02864300
v -0.00755200 -0.02903400 0.02753700
v -0.00451400 -0.02965800 0.02955700
v -0.00336700 -0.02981000 0.02971700
v -0.00342800 -0.02980300 0.02910200
v -0.00398600 -0.02973400 0.02902600
v -0.00488300 -0.02960000 0.02888000
v -0.00558800 -0.02947500 0.02936300
v -0.00577600 -0.02943900 0.02870400
v -0.00666400 -0.02925000 0.02849800
v 0.00000400 -0.03000000 0.02991700
v -0.00035800 -0.02999800 0.02931400
v -0.00112500 -0.02997900 0.02989400
v -0.00127100 -0.02997300 0.02928700
v -0.00226200 -0.02991400 0.02982700
v -0.00218000 -0.02992100 0.02923000
v -0.00308500 -0.02984100 0.02914300
v 0.00342800 -0.02980400 0.02971000
v 0.00303300 -0.02984600 0.02914900
v 0.00226000 -0.02991500 0.02982700
v 0.00211400 -0.02992500 0.02923500
v 0.00114500 -0.02997800 0.02989300
v 0.00119000 -0.02997600 0.02929100
v 0.00026100 -0.02999900 0.02931500
v 0.00451200 -0.02965900 0.02955700
v 0.00394800 -0.02973900 0.02903200
v 0.00342800 -0.02980300 0.02910200
v 0.00756000 -0.02903200 0.02748500
v 0.00751700 -0.02904300 0.02768500
v 0.00792000 -0.02893600 0.02864300
v 0.00792000 -0.02893600 0.02864300
v 0.00757000 -0.02902900 0.02733300
v 0.00792000 -0.02893600 0.02579400
v 0.00757000 -0.02902900 0.02579400
v 0.00785000 -0.02895500 0.02879500
v 0.00785000 -0.02895500 0.02879500
v 0.00790200 -0.02894100 0.02872700
v 0.00777500 -0.02897500 0.02883600
v 0.00733400 -0.02909000 0.02805000
v 0.00744100 -0.02906200 0.02787500
v 0.00719700 -0.02912400 0.02820500
v 0.00703600 -0.02916300 0.02833300
v 0.00674100 -0.02923300 0.02910800
v 0.00686000 -0.02920500 0.02843100
v 0.00666400 -0.02925000 0.02849800
v 0.00569000 -0.02945500 0.02934300
v 0.00576400 -0.02944100 0.02870600
v 0.00485800 -0.02960400 0.02888400
v -0.00673800 -0.02923300 0.02910800
v -0.00777500 -0.02897500 0.02883600
v -0.00777500 -0.03750000 0.02883600
v -0.00744500 -0.03823800 0.02892700
v -0.00558800 -0.02947500 0.02936300
v -0.00774200 -0.03784300 0.02884500
v -0.00771900 -0.03794300 0.02885100
v -0.00777200 -0.03759000 0.02883600
v -0.00763800 -0.03818500 0.02887400
v -0.00752300 -0.03841400 0.02890600
v -0.00746500 -0.03850600 0.02892100
v -0.00730500 -0.03870800 0.02896400
v -0.00711700 -0.03888700 0.02901400
v -0.00703700 -0.03894900 0.02903400
v -0.00681600 -0.03908800 0.02909000
v -0.00657500 -0.03919400 0.02914800
v -0.00648100 -0.03922500 0.02917000
v -0.00622500 -0.03928100 0.02922800
v -0.00596200 -0.03930000 0.02928600
v -0.00558800 -0.03930000 0.02936300
v -0.00451400 -0.02965800 0.02955700
v -0.00448100 -0.03930000 0.02956200
v -0.00336700 -0.02981000 0.02971700
v -0.00336700 -0.03930000 0.02971700
v -0.00226200 -0.02991400 0.02982700
v -0.00224800 -0.03930000 0.02982800
v -0.00112500 -0.02997900 0.02989400
v -0.00112500 -0.03930000 0.02989400
v 0.00000400 -0.03000000 0.02991700
v 0.00000000 -0.03930000 0.02991700
v 0.00114500 -0.02997800 0.02989300
v 0.00641200 -0.03924400 0.02918600
v 0.00649500 -0.03922000 0.02916600
v 0.00569000 -0.02945500 0.02934300
v 0.00615400 -0.03929000 0.02924400
v 0.00112500 -0.03930000 0.02989400
v 0.00224800 -0.03930000 0.02982800
v 0.00226000 -0.02991500 0.02982700
v 0.00336700 -0.03930000 0.02971700
v 0.00342800 -0.02980400 0.02971000
v 0.00448100 -0.03930000 0.02956200
v 0.00451200 -0.02965900 0.02955700
v 0.00558800 -0.03930000 0.02936300
v 0.00596200 -0.03930000 0.02928600
v 0.00674000 -0.03912600 0.02910800
v 0.00696900 -0.03899700 0.02905100
v 0.00702800 -0.03895600 0.02903600
v 0.00722700 -0.03878900 0.02898500
v 0.00740100 -0.03859400 0.02893900
v 0.00744400 -0.03853700 0.02892700
v 0.00757700 -0.03831700 0.02889100
v 0.00767800 -0.03808000 0.02886300
v 0.00770200 -0.03800400 0.02885600
v 0.00775600 -0.03775500 0.02884100
v 0.00777500 -0.03750000 0.02883600
v 0.00674100 -0.02923300 0.02910800
v 0.00777500 -0.02897500 0.02883600
v -0.00785900 -0.03799200 0.02865900
v -0.00788400 -0.03788100 0.02865200
v -0.00782200 -0.03811800 0.02579400
v -0.00791800 -0.03760000 0.02864400
v -0.00757800 -0.03861800 0.02872800
v -0.00764300 -0.03851600 0.02871300
v -0.00753800 -0.03867500 0.02579400
v -0.00777000 -0.03826100 0.02868100
v -0.00782200 -0.03811800 0.02866800
v -0.00710600 -0.03911100 0.02884000
v -0.00719500 -0.03904100 0.02882000
v -0.00709600 -0.03911800 0.02579400
v -0.00740200 -0.03884300 0.02877100
v -0.00753800 -0.03867600 0.02873800
v -0.00686200 -0.03926400 0.02889500
v -0.00653800 -0.03940200 0.02579400
v -0.00659700 -0.03938200 0.02895300
v -0.00621000 -0.03947900 0.02903300
v -0.00649300 -0.03941600 0.02897500
v -0.00653800 -0.03940200 0.02896500
v 0.00731600 -0.03893200 0.02879100
v 0.00709600 -0.03911800 0.02884300
v 0.00709600 -0.03911800 0.02579400
v 0.00650800 -0.03941100 0.02897200
v 0.00592000 -0.03950000 0.02579400
v 0.00653800 -0.03940200 0.02896500
v 0.00653800 -0.03940200 0.02579400
v 0.00677800 -0.03930700 0.02891400
v 0.00641700 -0.03943700 0.02899100
v 0.00613200 -0.03948900 0.02904900
v 0.00703100 -0.03916300 0.02885700
v 0.00770200 -0.03840800 0.02869800
v 0.00753800 -0.03867500 0.02579400
v 0.00781400 -0.03814400 0.02867000
v 0.00782200 -0.03811800 0.02579400
v 0.00755500 -0.03865200 0.02873400
v 0.00753800 -0.03867500 0.02873800
v 0.00750800 -0.03871600 0.02874600
v 0.00790000 -0.03778400 0.02864800
v 0.00784000 -0.03806000 0.02866300
v 0.00782200 -0.03811800 0.02866800
v 0.00742000 -0.02922300 0.02579400
v 0.00742000 -0.03750000 0.02579400
v 0.00742000 -0.02922300 0.02733300
v 0.00742000 -0.03750000 0.02733300
v 0.00734700 -0.03796300 0.02579400
v 0.00739200 -0.03778900 0.02733500
v 0.00741900 -0.03754600 0.02733300
v 0.00705600 -0.03848000 0.02736300
v 0.00713400 -0.03838200 0.02735700
v 0.00713400 -0.03838200 0.02579400
v 0.00721200 -0.03826300 0.02735000
v 0.00732000 -0.03804000 0.02734100
v 0.00687700 -0.03865500 0.02737700
v 0.00680200 -0.03871400 0.02579400
v 0.00680200 -0.03871400 0.02738300
v 0.00665800 -0.03880600 0.02739500
v 0.00638400 -0.03892700 0.02579400
v 0.00642700 -0.03891200 0.02741300
v 0.00617400 -0.03897800 0.02743200
v 0.00592000 -0.03900000 0.02579400
v 0.00592000 -0.03900000 0.02745200
v -0.00592000 -0.03900000 0.02745200
v -0.00445600 -0.03900000 0.02774200
v -0.00592000 -0.03900000 0.02579400
v -0.00297900 -0.03900000 0.02795000
v 0.00445600 -0.03900000 0.02774200
v 0.00297900 -0.03900000 0.02795000
v -0.00149200 -0.03900000 0.02807500
v 0.00000000 -0.03900000 0.02811700
v 0.00149200 -0.03900000 0.02807500
v -0.00638400 -0.03892700 0.02579400
v -0.00638400 -0.03892700 0.02741600
v -0.00628800 -0.03895400 0.02742400
v -0.00603700 -0.03899500 0.02744300
v -0.00680200 -0.03871400 0.02579400
v -0.00713400 -0.03838200 0.02579400
v -0.00710700 -0.03841700 0.02735900
v -0.00693900 -0.03860100 0.02737200
v -0.00674700 -0.03875100 0.02738800
v -0.00652500 -0.03887300 0.02740500
v -0.00734700 -0.03796300 0.02579400
v -0.00742000 -0.03750000 0.02579400
v -0.00742000 -0.03750000 0.02733300
v -0.00740000 -0.03774400 0.02733500
v -0.00733900 -0.03798600 0.02734000
v -0.00724000 -0.03821200 0.02734800
v -0.00742000 -0.02922300 0.02733300
v -0.00742000 -0.02922300 0.02579400
v 0.00757000 -0.02902900 0.02579400
v 0.00757000 -0.02902900 0.02579400
v 0.00792000 -0.02893600 0.02579400
v 0.00792000 -0.03750000 0.02579400
v 0.00792000 -0.03750000 0.02579400
v -0.00792000 -0.03750000 0.02579400
v -0.00792000 -0.03750000 0.02579400
v -0.00792000 -0.03750000 0.02579400
v -0.00792000 -0.02893600 0.02579400
v -0.00757000 -0.02902900 0.02579400
v -0.00757000 -0.02902900 0.02579400
v 0.00743900 -0.02913800 0.02579400
v 0.00749200 -0.02906900 0.02579400
v 0.00742000 -0.02922300 0.02579400
v 0.00742000 -0.02922300 0.02579400
v 0.00742000 -0.03750000 0.02579400
v 0.00742000 -0.03750000 0.02579400
v 0.00734700 -0.03796300 0.02579400
v 0.00734700 -0.03796300 0.02579400
v 0.00782200 -0.03811800 0.02579400
v 0.00782200 -0.03811800 0.02579400
v 0.00713400 -0.03838200 0.02579400
v 0.00713400 -0.03838200 0.02579400
v 0.00753800 -0.03867500 0.02579400
v 0.00753800 -0.03867500 0.02579400
v 0.00680200 -0.03871400 0.02579400
v 0.00680200 -0.03871400 0.02579400
v 0.00709600 -0.03911800 0.02579400
v 0.00638400 -0.03892700 0.02579400
v 0.00638400 -0.03892700 0.02579400
v 0.00653800 -0.03940200 0.02579400
v 0.00653800 -0.03940200 0.02579400
v 0.00653800 -0.03940200 0.02579400
v 0.00592000 -0.03900000 0.02579400
v 0.00592000 -0.03900000 0.02579400
v 0.00592000 -0.03900000 0.02579400
v 0.00592000 -0.03950000 0.02579400
v 0.00592000 -0.03950000 0.02579400
v -0.00592000 -0.03900000 0.02579400
v -0.00592000 -0.03900000 0.02579400
v -0.00592000 -0.03950000 0.02579400
v -0.00592000 -0.03950000 0.02579400
v -0.00592000 -0.03950000 0.02579400
v -0.00638400 -0.03892700 0.02579400
v -0.00638400 -0.03892700 0.02579400
v -0.00638400 -0.03892700 0.02579400
v -0.00653800 -0.03940200 0.02579400
v -0.00653800 -0.03940200 0.02579400
v -0.00653800 -0.03940200 0.02579400
v -0.00680200 -0.03871400 0.02579400
v -0.00680200 -0.03871400 0.02579400
v -0.00680200 -0.03871400 0.02579400
v -0.00709600 -0.03911800 0.02579400
v -0.00709600 -0.03911800 0.02579400
v -0.00709600 -0.03911800 0.02579400
v -0.00713400 -0.03838200 0.02579400
v -0.00713400 -0.03838200 0.02579400
v -0.00753800 -0.03867500 0.02579400
v -0.00753800 -0.03867500 0.02579400
v -0.00734700 -0.03796300 0.02579400
v -0.00734700 -0.03796300 0.02579400
v -0.00734700 -0.03796300 0.02579400
v -0.00782200 -0.03811800 0.02579400
v -0.00782200 -0.03811800 0.02579400
v -0.00782200 -0.03811800 0.02579400
v -0.00742000 -0.03750000 0.02579400
v -0.00742000 -0.03750000 0.02579400
v -0.00742000 -0.02922300 0.02579400
v -0.00742000 -0.02922300 0.02579400
v -0.00742000 -0.02922300 0.02579400
v -0.00757000 -0.02902900 0.02579400
v -0.00757000 -0.02902900 0.02579400
v -0.00743900 -0.02913800 0.02579400
v -0.00743900 -0.02913800 0.02579400
v -0.00749200 -0.02906900 0.02579400
v -0.00682000 -0.02940100 0.02825000
v -0.00696400 -0.03750000 0.02817200
v -0.00697300 -0.02935800 0.02816700
v -0.00705300 -0.02933400 0.02810700
v -0.00705300 -0.03750000 0.02810700
v -0.00709600 -0.02932100 0.02807000
v -0.00720800 -0.03750000 0.02794900
v -0.00721200 -0.02928700 0.02794300
v -0.00729700 -0.02926100 0.02781300
v -0.00732400 -0.03750000 0.02776100
v -0.00732400 -0.02925300 0.02776200
v -0.00736600 -0.02924000 0.02765600
v -0.00736500 -0.03750000 0.02765900
v -0.00740600 -0.02922700 0.02750300
v -0.00610000 -0.03858800 0.02824100
v -0.00607700 -0.03870700 0.02814100
v -0.00617000 -0.03869700 0.02812600
v -0.00605000 -0.03880900 0.02802500
v -0.00600500 -0.03892400 0.02782500
v -0.00611500 -0.03891500 0.02781200
v -0.00612500 -0.03838300 0.02835300
v -0.00613100 -0.03830900 0.02837900
v -0.00619400 -0.03837600 0.02833900
v -0.00635000 -0.03886500 0.02778400
v -0.00656700 -0.03878000 0.02775800
v -0.00734800 -0.03772200 0.02766100
v -0.00719300 -0.03768500 0.02795200
v -0.00729500 -0.03794300 0.02766800
v -0.00715000 -0.03786900 0.02796000
v -0.00720800 -0.03815100 0.02767900
v -0.00707900 -0.03804200 0.02797200
v -0.00709100 -0.03834100 0.02769400
v -0.00698300 -0.03820200 0.02798900
v -0.00694100 -0.03851500 0.02771300
v -0.00686000 -0.03834900 0.02801100
v -0.00676900 -0.03866000 0.02773400
v -0.00671700 -0.03847300 0.02803500
v -0.00655000 -0.03857700 0.02806400
v -0.00636700 -0.03865200 0.02809400
v -0.00695300 -0.03763600 0.02817500
v -0.00692100 -0.03777100 0.02818200
v -0.00686800 -0.03789900 0.02819400
v -0.00679600 -0.03801600 0.02821000
v -0.00670400 -0.03812400 0.02823000
v -0.00659800 -0.03821400 0.02825400
v -0.00647400 -0.03828900 0.02828000
v -0.00636700 -0.03865200 0.02809400
v -0.00633900 -0.03834400 0.02830900
v -0.00461500 -0.03830900 0.02868000
v -0.00450800 -0.03895100 0.02804700
v -0.00301300 -0.03895100 0.02825700
v -0.00150900 -0.03895100 0.02838300
v 0.00000000 -0.03895100 0.02842600
v 0.00150900 -0.03895100 0.02838300
v 0.00301300 -0.03895100 0.02825700
v 0.00450800 -0.03895100 0.02804700
v 0.00600500 -0.03892400 0.02782500
v 0.00455400 -0.03880900 0.02832100
v 0.00605000 -0.03880900 0.02802500
v 0.00607700 -0.03870700 0.02814100
v 0.00459100 -0.03858800 0.02854000
v 0.00610000 -0.03858800 0.02824100
v -0.00304400 -0.03880900 0.02853400
v -0.00152400 -0.03880900 0.02866200
v -0.00306900 -0.03858800 0.02875400
v -0.00153700 -0.03858800 0.02888300
v -0.00455400 -0.03880900 0.02832100
v -0.00459100 -0.03858800 0.02854000
v -0.00308500 -0.03830900 0.02889500
v -0.00154500 -0.03830900 0.02902400
v 0.00612500 -0.03838300 0.02835300
v 0.00461500 -0.03830900 0.02868000
v 0.00613100 -0.03830900 0.02837900
v 0.00308500 -0.03830900 0.02889500
v 0.00304400 -0.03880900 0.02853400
v 0.00306900 -0.03858800 0.02875400
v 0.00154500 -0.03830900 0.02902400
v 0.00152400 -0.03880900 0.02866200
v 0.00153700 -0.03858800 0.02888300
v 0.00000000 -0.03880900 0.02870400
v 0.00000000 -0.03858800 0.02892500
v 0.00000000 -0.03830900 0.02906800
v 0.00732400 -0.03750000 0.02776100
v 0.00736500 -0.03750000 0.02765900
v 0.00736500 -0.03754100 0.02765900
v 0.00732400 -0.03750000 0.02776100
v 0.00736500 -0.03754100 0.02765900
v 0.00720800 -0.03750000 0.02794900
v 0.00696400 -0.03750000 0.02817200
v 0.00696300 -0.03752500 0.02817200
v 0.00734100 -0.03776300 0.02766200
v 0.00727800 -0.03799200 0.02767000
v 0.00718300 -0.03819800 0.02768200
v 0.00704500 -0.03840000 0.02770000
v 0.00688600 -0.03856700 0.02771900
v 0.00668900 -0.03871300 0.02774400
v 0.00627900 -0.03867700 0.02810900
v 0.00627400 -0.03836100 0.02832200
v 0.00647500 -0.03861200 0.02807600
v 0.00641900 -0.03831500 0.02829200
v 0.00665000 -0.03851900 0.02804700
v 0.00654900 -0.03824700 0.02826400
v 0.00681400 -0.03839300 0.02801900
v 0.00667000 -0.03815600 0.02823800
v 0.00694500 -0.03825200 0.02799600
v 0.00676800 -0.03805300 0.02821600
v 0.00705900 -0.03808200 0.02797600
v 0.00685200 -0.03792800 0.02819800
v 0.00713600 -0.03791000 0.02796200
v 0.00691000 -0.03780200 0.02818500
v 0.00718800 -0.03771900 0.02795300
v 0.00694900 -0.03766100 0.02817600
v 0.00720700 -0.03753500 0.02794900
v 0.00705300 -0.03750000 0.02810700
v 0.00705300 -0.03750000 0.02810700
v 0.00647800 -0.03882000 0.02776900
v 0.00624400 -0.03889300 0.02779700
v 0.00720800 -0.03750000 0.02794900
v 0.00705300 -0.03750000 0.02810700
v 0.00741200 -0.02922500 0.02746000
v 0.00737600 -0.02923600 0.02762600
v 0.00732400 -0.02925300 0.02776100
v 0.00732400 -0.03750000 0.02776100
v 0.00731200 -0.02925600 0.02778500
v 0.00720800 -0.03750000 0.02794900
v 0.00722200 -0.02928400 0.02793000
v 0.00710800 -0.02931800 0.02805900
v 0.00705300 -0.02933400 0.02810700
v 0.00697300 -0.02935800 0.02816700
v 0.00682500 -0.02940000 0.02824800
v 0.00749200 -0.02906900 0.02579400
v 0.00749200 -0.02906900 0.02733300
v 0.00749200 -0.02906900 0.02733300
v 0.00749200 -0.02906900 0.02579400
v 0.00743900 -0.02913800 0.02579400
v 0.00743900 -0.02913800 0.02733300
v 0.00743900 -0.02913800 0.02733300
v 0.00743900 -0.02913800 0.02579400
v 0.00743100 -0.02914000 0.02746500
v 0.00748300 -0.02907100 0.02747400
v 0.00743100 -0.02914000 0.02746500
v 0.00732500 -0.02917000 0.02780300
v 0.00739300 -0.02915100 0.02763800
v 0.00723100 -0.02919600 0.02795300
v 0.00711100 -0.02922900 0.02808600
v 0.00697000 -0.02926700 0.02819500
v 0.00681600 -0.02930700 0.02827700
v 0.00664600 -0.02935100 0.02833300
v 0.00748300 -0.02907100 0.02747400
v 0.00739300 -0.02915100 0.02763800
v 0.00744300 -0.02908200 0.02765900
v 0.00732500 -0.02917000 0.02780300
v 0.00737100 -0.02910100 0.02783500
v 0.00723100 -0.02919600 0.02795300
v 0.00727100 -0.02912700 0.02799600
v 0.00711100 -0.02922900 0.02808600
v 0.00714300 -0.02915900 0.02813800
v 0.00697000 -0.02926700 0.02819500
v 0.00699300 -0.02919700 0.02825600
v 0.00681600 -0.02930700 0.02827700
v 0.00682900 -0.02923700 0.02834400
v 0.00664600 -0.02935100 0.02833300
v 0.00664800 -0.02928000 0.02840400
v 0.00744300 -0.02908200 0.02765900
v 0.00737100 -0.02910100 0.02783500
v 0.00727100 -0.02912700 0.02799600
v 0.00714300 -0.02915900 0.02813800
v 0.00699300 -0.02919700 0.02825600
v 0.00682900 -0.02923700 0.02834400
v 0.00664800 -0.02928000 0.02840400
v 0.00574900 -0.02954100 0.02853900
v 0.00575000 -0.02947000 0.02861100
v 0.00574900 -0.02954100 0.02853900
v 0.00484500 -0.02970400 0.02871600
v 0.00393700 -0.02983900 0.02886200
v 0.00484600 -0.02963200 0.02878800
v 0.00393800 -0.02976700 0.02893400
v 0.00302500 -0.02994600 0.02897700
v 0.00210800 -0.03002500 0.02906300
v 0.00118600 -0.03007600 0.02911800
v 0.00026000 -0.03009900 0.02914200
v -0.00035700 -0.03009800 0.02914100
v 0.00302500 -0.02987400 0.02905000
v 0.00210900 -0.02995200 0.02913600
v 0.00118700 -0.03000300 0.02919100
v 0.00026000 -0.03002600 0.02921500
v -0.00035700 -0.03002500 0.02921400
v -0.00126700 -0.03000000 0.02918700
v -0.00217400 -0.02994800 0.02913100
v -0.00307700 -0.02986800 0.02904400
v -0.00126700 -0.03007300 0.02911400
v -0.00217300 -0.03002100 0.02905800
v -0.00307600 -0.02994100 0.02897200
v -0.00397500 -0.02983400 0.02885600
v -0.00487000 -0.02970000 0.02871100
v -0.00576000 -0.02953900 0.02853700
v -0.00664600 -0.02935100 0.02833300
v 0.00575000 -0.02947000 0.02861100
v 0.00484500 -0.02970400 0.02871600
v 0.00484600 -0.02963200 0.02878800
v 0.00393700 -0.02983900 0.02886200
v 0.00393800 -0.02976700 0.02893400
v 0.00302500 -0.02994600 0.02897700
v 0.00302500 -0.02987400 0.02905000
v 0.00210800 -0.03002500 0.02906300
v 0.00210900 -0.02995200 0.02913600
v 0.00118600 -0.03007600 0.02911800
v 0.00118700 -0.03000300 0.02919100
v 0.00026000 -0.03009900 0.02914200
v 0.00026000 -0.03002600 0.02921500
v -0.00035700 -0.03009800 0.02914100
v -0.00035700 -0.03002500 0.02921400
v -0.00126700 -0.03007300 0.02911400
v -0.00126700 -0.03000000 0.02918700
v -0.00217300 -0.03002100 0.02905800
v -0.00217400 -0.02994800 0.02913100
v -0.00307600 -0.02994100 0.02897200
v -0.00307700 -0.02986800 0.02904400
v -0.00397500 -0.02983400 0.02885600
v -0.00397600 -0.02976200 0.02892800
v -0.00487000 -0.02970000 0.02871100
v -0.00487100 -0.02962800 0.02878300
v -0.00576000 -0.02953900 0.02853700
v -0.00576100 -0.02946800 0.02860800
v -0.00664600 -0.02935100 0.02833300
v -0.00664800 -0.02928000 0.02840400
v -0.00397600 -0.02976200 0.02892800
v -0.00487100 -0.02962800 0.02878300
v -0.00576100 -0.02946800 0.02860800
v -0.00664800 -0.02928000 0.02840400
v -0.00681200 -0.02930800 0.02827900
v -0.00682400 -0.02923800 0.02834600
v -0.00681200 -0.02930800 0.02827900
v -0.00709900 -0.02923300 0.02809700
v -0.00697000 -0.02926700 0.02819500
v -0.00722100 -0.02919900 0.02796600
v -0.00731000 -0.02917400 0.02783200
v -0.00738200 -0.02915400 0.02766900
v -0.00742400 -0.02914200 0.02751000
v -0.00743900 -0.02913800 0.02733300
v -0.00682400 -0.02923800 0.02834600
v -0.00697000 -0.02926700 0.02819500
v -0.00699300 -0.02919700 0.02825600
v -0.00709900 -0.02923300 0.02809700
v -0.00713000 -0.02916300 0.02815000
v -0.00722100 -0.02919900 0.02796600
v -0.00726000 -0.02913000 0.02801000
v -0.00731000 -0.02917400 0.02783200
v -0.00735500 -0.02910500 0.02786600
v -0.00738200 -0.02915400 0.02766900
v -0.00743200 -0.02908500 0.02769200
v -0.00742400 -0.02914200 0.02751000
v -0.00747600 -0.02907300 0.02752200
v -0.00743900 -0.02913800 0.02733300
v -0.00749200 -0.02906900 0.02733300
v -0.00699300 -0.02919700 0.02825600
v -0.00713000 -0.02916300 0.02815000
v -0.00726000 -0.02913000 0.02801000
v -0.00735500 -0.02910500 0.02786600
v -0.00743200 -0.02908500 0.02769200
v -0.00747600 -0.02907300 0.02752200
v -0.00749200 -0.02906900 0.02733300
v -0.00743900 -0.02913800 0.02579400
v -0.00743900 -0.02913800 0.02579400
v -0.00749200 -0.02906900 0.02579400
v -0.00749200 -0.02906900 0.02579400
v -0.00790200 -0.03750000 0.02872700
v -0.00790200 -0.02894100 0.02872700
v -0.00790200 -0.02894100 0.02872700
v -0.00790200 -0.03750000 0.02872700
v -0.00785000 -0.03750000 0.02879500
v -0.00785000 -0.02895500 0.02879500
v -0.00785000 -0.02895500 0.02879500
v -0.00785000 -0.03750000 0.02879500
v -0.00789900 -0.03759800 0.02872700
v -0.00784800 -0.03759400 0.02879600
v -0.00789900 -0.03759800 0.02872700
v -0.00786600 -0.03787300 0.02873600
v -0.00784200 -0.03798200 0.02874300
v -0.00775600 -0.03824500 0.02876600
v -0.00775600 -0.03824500 0.02876600
v -0.00763200 -0.03849500 0.02879800
v -0.00756900 -0.03859600 0.02881500
v -0.00739700 -0.03881700 0.02885800
v -0.00719500 -0.03901300 0.02890900
v -0.00710700 -0.03908200 0.02893000
v -0.00686900 -0.03923500 0.02898700
v -0.00660800 -0.03935200 0.02904600
v -0.00650600 -0.03938700 0.02906900
v -0.00622800 -0.03945000 0.02912900
v -0.00594100 -0.03947300 0.02918800
v -0.00784800 -0.03759400 0.02879600
v -0.00786600 -0.03787300 0.02873600
v -0.00781600 -0.03785900 0.02880500
v -0.00779200 -0.03796400 0.02881100
v -0.00770900 -0.03821800 0.02883400
v -0.00763200 -0.03849500 0.02879800
v -0.00758900 -0.03845900 0.02886700
v -0.00756900 -0.03859600 0.02881500
v -0.00752900 -0.03855600 0.02888300
v -0.00739700 -0.03881700 0.02885800
v -0.00736300 -0.03876900 0.02892800
v -0.00719500 -0.03901300 0.02890900
v -0.00716700 -0.03895800 0.02897800
v -0.00710700 -0.03908200 0.02893000
v -0.00708300 -0.03902400 0.02900000
v -0.00686900 -0.03923500 0.02898700
v -0.00685200 -0.03917100 0.02905700
v -0.00660800 -0.03935200 0.02904600
v -0.00660000 -0.03928400 0.02911700
v -0.00650600 -0.03938700 0.02906900
v -0.00650200 -0.03931700 0.02914000
v -0.00622800 -0.03945000 0.02912900
v -0.00623300 -0.03937800 0.02920000
v -0.00594100 -0.03947300 0.02918800
v -0.00595600 -0.03940000 0.02926000
v -0.00781600 -0.03785900 0.02880500
v -0.00779200 -0.03796400 0.02881100
v -0.00770900 -0.03821800 0.02883400
v -0.00758900 -0.03845900 0.02886700
v -0.00752900 -0.03855600 0.02888300
v -0.00736300 -0.03876900 0.02892800
v -0.00716700 -0.03895800 0.02897800
v -0.00708300 -0.03902400 0.02900000
v -0.00685200 -0.03917100 0.02905700
v -0.00660000 -0.03928400 0.02911700
v -0.00650200 -0.03931700 0.02914000
v -0.00623300 -0.03937800 0.02920000
v -0.00595600 -0.03940000 0.02926000
v -0.00446500 -0.03947300 0.02946300
v -0.00446500 -0.03947300 0.02946300
v -0.00335500 -0.03947300 0.02961800
v -0.00224000 -0.03947300 0.02972800
v -0.00112100 -0.03947300 0.02979400
v 0.00000000 -0.03947300 0.02981600
v 0.00112100 -0.03947300 0.02979400
v 0.00224000 -0.03947300 0.02972800
v 0.00335500 -0.03947300 0.02961800
v 0.00446500 -0.03947300 0.02946300
v 0.00556900 -0.03947300 0.02926500
v 0.00594100 -0.03947300 0.02918800
v -0.00447700 -0.03940000 0.02953600
v -0.00335500 -0.03947300 0.02961800
v -0.00336400 -0.03940000 0.02969000
v -0.00224000 -0.03947300 0.02972800
v -0.00224500 -0.03940000 0.02980100
v -0.00112100 -0.03947300 0.02979400
v -0.00112300 -0.03940000 0.02986700
v 0.00000000 -0.03947300 0.02981600
v 0.00000000 -0.03940000 0.02989000
v 0.00112100 -0.03947300 0.02979400
v 0.00112300 -0.03940000 0.02986700
v 0.00224000 -0.03947300 0.02972800
v 0.00224500 -0.03940000 0.02980100
v 0.00335500 -0.03947300 0.02961800
v 0.00336400 -0.03940000 0.02969000
v 0.00446500 -0.03947300 0.02946300
v 0.00447700 -0.03940000 0.02953600
v 0.00556900 -0.03947300 0.02926500
v 0.00558300 -0.03940000 0.02933700
v 0.00594100 -0.03947300 0.02918800
v 0.00595600 -0.03940000 0.02926000
v -0.00447700 -0.03940000 0.02953600
v -0.00336400 -0.03940000 0.02969000
v -0.00224500 -0.03940000 0.02980100
v -0.00112300 -0.03940000 0.02986700
v 0.00000000 -0.03940000 0.02989000
v 0.00112300 -0.03940000 0.02986700
v 0.00224500 -0.03940000 0.02980100
v 0.00336400 -0.03940000 0.02969000
v 0.00447700 -0.03940000 0.02953600
v 0.00558300 -0.03940000 0.02933700
v 0.00595600 -0.03940000 0.02926000
v 0.00615000 -0.03946100 0.02914500
v 0.00615800 -0.03938800 0.02921600
v 0.00615000 -0.03946100 0.02914500
v 0.00643100 -0.03940800 0.02908500
v 0.00652100 -0.03938200 0.02906500
v 0.00678600 -0.03927700 0.02900600
v 0.00703400 -0.03913400 0.02894800
v 0.00709800 -0.03908900 0.02893200
v 0.00731300 -0.03890500 0.02887900
v 0.00750100 -0.03869200 0.02883200
v 0.00754600 -0.03863000 0.02882100
v 0.00769000 -0.03839000 0.02878300
v 0.00779800 -0.03813100 0.02875500
v 0.00782400 -0.03804900 0.02874800
v 0.00788200 -0.03777800 0.02873200
v 0.00790200 -0.03750000 0.02872700
v 0.00615800 -0.03938800 0.02921600
v 0.00643100 -0.03940800 0.02908500
v 0.00642900 -0.03933700 0.02915600
v 0.00652100 -0.03938200 0.02906500
v 0.00651600 -0.03931200 0.02913600
v 0.00678600 -0.03927700 0.02900600
v 0.00677200 -0.03921100 0.02907600
v 0.00703400 -0.03913400 0.02894800
v 0.00701200 -0.03907400 0.02901700
v 0.00709800 -0.03908900 0.02893200
v 0.00707400 -0.03903100 0.02900200
v 0.00731300 -0.03890500 0.02887900
v 0.00728100 -0.03885400 0.02894900
v 0.00750100 -0.03869200 0.02883200
v 0.00746200 -0.03864900 0.02890100
v 0.00754600 -0.03863000 0.02882100
v 0.00750600 -0.03858900 0.02888900
v 0.00769000 -0.03839000 0.02878300
v 0.00764500 -0.03835700 0.02885200
v 0.00779800 -0.03813100 0.02875500
v 0.00775000 -0.03810800 0.02882300
v 0.00782400 -0.03804900 0.02874800
v 0.00777500 -0.03802900 0.02881600
v 0.00788200 -0.03777800 0.02873200
v 0.00783100 -0.03776800 0.02880000
v 0.00790200 -0.03750000 0.02872700
v 0.00785000 -0.03750000 0.02879500
v 0.00642900 -0.03933700 0.02915600
v 0.00651600 -0.03931200 0.02913600
v 0.00677200 -0.03921100 0.02907600
v 0.00701200 -0.03907400 0.02901700
v 0.00707400 -0.03903100 0.02900200
v 0.00728100 -0.03885400 0.02894900
v 0.00746200 -0.03864900 0.02890100
v 0.00750600 -0.03858900 0.02888900
v 0.00764500 -0.03835700 0.02885200
v 0.00775000 -0.03810800 0.02882300
v 0.00777500 -0.03802900 0.02881600
v 0.00783100 -0.03776800 0.02880000
v 0.00785000 -0.03750000 0.02879500
v 0.00785000 -0.02895500 0.02879500
v 0.00785000 -0.02895500 0.02879500
v 0.00790200 -0.02894100 0.02872700
v 0.00790200 -0.02894100 0.02872700
vn -0.15419200 0.12840700 -0.97966100
vn -0.17967100 0.10358300 -0.97825800
vn -0.14513100 0.06929400 -0.98698300
vn -0.23762400 0.12522800 -0.96325100
vn -0.31199900 0.14698200 -0.93864400
vn -0.31749600 0.00060300 -0.94825900
vn 0.23305300 0.11337700 -0.96583200
vn 0.25133000 0.10770600 -0.96189000
vn 0.21749700 0.03088700 -0.97557200
vn 0.26981200 0.09921700 -0.95778800
vn 0.28621100 0.08850000 -0.95407100
vn 0.30024800 0.07595700 -0.95083200
vn 0.31177300 0.06182200 -0.94814300
vn 0.32042600 0.04643000 -0.94613500
vn 0.32594800 0.03010000 -0.94490900
vn 0.32738800 0.01336600 -0.94479500
vn 0.29300800 0.00299900 -0.95610500
vn 0.23046800 0.15055900 -0.96136200
vn 0.29211300 0.14451600 -0.94540200
vn 0.17753000 0.12021700 -0.97674500
vn 0.14545700 0.06929600 -0.98693500
vn 0.17677500 0.06289300 -0.98224000
vn 0.24181600 0.11005600 -0.96406000
vn -0.18145600 0.09401800 -0.97889400
vn -0.22942400 -0.00117200 -0.97332600
vn -0.21134600 0.10813400 -0.97141100
vn -0.20288800 0.06282000 -0.97718500
vn -0.24792100 0.08508000 -0.96503700
vn -0.25640400 0.10773100 -0.96054700
vn -0.30652000 0.07332900 -0.94903500
vn -0.29240400 0.08736900 -0.95229500
vn -0.27548400 0.09906100 -0.95618800
vn -0.33146600 0.02357600 -0.94317200
vn -0.32593800 0.04078800 -0.94451100
vn -0.31769300 0.05756000 -0.94644500
vn -0.33397200 0.00843900 -0.94254500
vn -0.12938500 0.12928300 -0.98313000
vn -0.11142000 0.06270900 -0.99179300
vn -0.09141900 0.12983700 -0.98731200
vn -0.07845300 0.08386800 -0.99338400
vn -0.05536600 0.13042600 -0.98991100
vn -0.04366400 0.06295200 -0.99706100
vn -0.02143100 0.13083900 -0.99117200
vn 0.00044700 0.05917400 -0.99824800
vn 0.00120800 0.15274800 -0.98826400
vn 0.08444000 0.11114400 -0.99021100
vn 0.04469800 0.13051400 -0.99043800
vn 0.04722900 0.07854400 -0.99579100
vn 0.01997100 0.13066500 -0.99122500
vn 0.15511500 0.15385300 -0.97584200
vn 0.12452200 0.12914700 -0.98377600
vn 0.10697400 0.08845200 -0.99032000
vn 0.08190800 0.09349700 -0.99224500
vn 0.99142000 -0.05162000 0.12008800
vn 0.99862800 -0.05235800 0.00000000
vn 0.99742100 0.00000100 0.07177100
vn 1.00000000 0.00000000 0.00000000
vn 0.04979600 -0.99875500 -0.00307500
vn 0.05176300 -0.98714100 0.15124200
vn 0.02902400 -0.98766300 0.15388300
vn 0.02359500 -0.98766800 0.15477500
vn 0.01747400 -0.98766800 0.15558700
vn 0.01132000 -0.98767100 0.15613300
vn -0.01337400 -0.98766500 0.15600900
vn -0.01951900 -0.98766900 0.15533800
vn -0.04937800 -0.99877900 -0.00133700
vn -0.02632800 -0.98766500 0.15435400
vn -0.07421200 -0.98554900 0.15226700
vn 0.00515300 -0.98767000 0.15646400
vn -0.00082500 -0.99143800 0.13057900
vn -0.00720500 -0.98766900 0.15639300
vn -0.98966900 -0.00000000 0.14336900
vn -1.00000000 -0.00000000 0.00000000
vn -0.99624000 -0.00964200 0.08610300
vn -0.99713300 -0.07561500 -0.00286500
vn 0.36279800 0.92972700 -0.06312600
vn 0.37179500 0.92739200 -0.04138000
vn 0.25426400 0.96713400 -0.00097500
vn 0.32375000 0.94429600 -0.05908100
vn 0.24498200 0.96951900 -0.00398400
vn 0.22068100 0.97534300 -0.00245300
vn 0.28078800 0.95304300 -0.11343300
vn 0.31307600 0.94185400 -0.12204700
vn 0.32081800 0.94332200 -0.08496700
vn 0.25376700 0.96726300 0.00222000
vn 0.25714200 0.96636800 0.00317800
vn 0.39257300 0.91972100 0.00000000
vn 0.25812800 0.96611100 0.00000000
vn 0.33920600 0.94070400 -0.00393400
vn 0.25812700 0.96611100 0.00000000
vn 0.37728000 0.92590100 -0.01917800
vn 0.14355900 0.98962900 -0.00496500
vn 0.10560000 0.99440700 -0.00200600
vn 0.13377300 0.98310000 -0.12497700
vn 0.15969100 0.97490700 -0.15510000
vn 0.18750600 0.97415300 -0.12596600
vn 0.18452400 0.98282400 -0.00282600
vn 0.22197200 0.96698900 -0.12514200
vn 0.25798900 0.95520200 -0.14501800
vn -0.00576300 0.99997900 -0.00306300
vn 0.01964400 0.99120400 -0.13088000
vn 0.03428200 0.99940800 -0.00288700
vn 0.05356800 0.98995800 -0.13082000
vn 0.06931500 0.99759400 -0.00120100
vn 0.08903800 0.98735200 -0.13118300
vn 0.11125300 0.98507800 -0.13131600
vn -0.11491300 0.99336700 -0.00421500
vn -0.10696400 0.98573200 -0.12996300
vn -0.07939600 0.99683800 -0.00311900
vn -0.07426000 0.98872000 -0.13006900
vn -0.04373600 0.99904200 -0.00122000
vn -0.03829500 0.99055300 -0.13167200
vn -0.00986000 0.98743100 -0.15774200
vn -0.15710600 0.98757700 -0.00313400
vn -0.14854500 0.98358400 -0.10245400
vn -0.13250300 0.98038500 -0.14590700
vn -0.37702200 0.92594000 -0.02214100
vn -0.37119200 0.92750700 -0.04414000
vn -0.25630300 0.96659700 -0.00031200
vn -0.25631200 0.96659400 -0.00041900
vn -0.37357700 0.92759000 -0.00413000
vn -0.25812800 0.96611100 0.00000000
vn -0.35961100 0.93310200 0.00000000
vn -0.25917500 0.96582800 0.00240100
vn -0.25914300 0.96583600 0.00242200
vn -0.26229600 0.96498700 0.00025000
vn -0.24755600 0.96886900 -0.00299300
vn -0.32204000 0.94470000 -0.06190700
vn -0.36135400 0.93004400 -0.06664800
vn -0.32877800 0.93818700 -0.10821500
vn -0.29593200 0.94941400 -0.10505600
vn -0.22714100 0.97386000 -0.00209200
vn -0.27941300 0.95019900 -0.13802300
vn -0.24294900 0.96221800 -0.12293100
vn -0.19498200 0.98080700 -0.00050800
vn -0.20974400 0.96954200 -0.12647700
vn -0.18286700 0.97119300 -0.15278700
vn -0.24533400 -0.00045600 0.96943800
vn -0.36608600 -0.00000200 0.93058100
vn -0.38462600 -0.00139900 0.92307100
vn -0.25694200 0.00105600 0.96642600
vn -0.22306200 0.00139000 0.97480300
vn -0.38926800 -0.02466400 0.92079400
vn -0.38580900 -0.03775200 0.92180600
vn -0.39166400 -0.01179700 0.92003300
vn -0.37944500 -0.05464200 0.92359900
vn -0.37163200 -0.06954800 0.92577200
vn -0.36244500 -0.08225000 0.92836900
vn -0.34756600 -0.09689000 0.93263600
vn -0.31839700 -0.08972700 0.94370100
vn -0.31751000 -0.11854600 0.94081600
vn -0.29691800 -0.13067500 0.94592000
vn -0.27673700 -0.13979500 0.95072300
vn -0.25791600 -0.14643300 0.95500600
vn -0.23210700 -0.15320400 0.96054900
vn -0.21095900 -0.13042900 0.96875400
vn -0.18465300 -0.14188300 0.97250800
vn -0.16410700 0.00000100 0.98644300
vn -0.14955400 -0.13051800 0.98010100
vn -0.12495400 0.00002300 0.99216300
vn -0.11069200 -0.13052500 0.98524600
vn -0.08554200 -0.00000000 0.99633500
vn -0.07177200 -0.13052000 0.98884400
vn -0.04609500 0.00001000 0.99893700
vn -0.03261200 -0.13052000 0.99090900
vn -0.00641700 -0.00000000 0.99997900
vn 0.00658700 -0.13051500 0.99142500
vn 0.03985400 0.00000600 0.99920600
vn 0.25542900 -0.14646300 0.95567000
vn 0.27374900 -0.14063800 0.95146300
vn 0.23486700 0.00230200 0.97202500
vn 0.23417700 -0.15196500 0.96024400
vn 0.04281100 -0.15655400 0.98674100
vn 0.07814300 -0.13076200 0.98832900
vn 0.08599500 0.00004200 0.99629600
vn 0.11724900 -0.13051800 0.98448900
vn 0.12555100 0.00002300 0.99208700
vn 0.15589000 -0.13029400 0.97914300
vn 0.16493900 0.00006900 0.98630400
vn 0.18807800 -0.13043700 0.97345400
vn 0.21091100 -0.15584100 0.96500300
vn 0.29618800 -0.13044300 0.94618000
vn 0.31421400 -0.12027600 0.94170200
vn 0.32785800 -0.11120100 0.93816000
vn 0.34404900 -0.09729600 0.93389700
vn 0.35640200 -0.08435500 0.93051700
vn 0.36507100 -0.07324400 0.92809400
vn 0.37430100 -0.05743100 0.92552700
vn 0.38026100 -0.04313000 0.92387300
vn 0.38348200 -0.03101300 0.92302800
vn 0.38453600 -0.01474200 0.92299200
vn 0.33516500 -0.00374200 0.94215200
vn 0.23709500 -0.00234900 0.97148400
vn 0.40228100 0.00000100 0.91551600
vn -0.96401400 -0.23212700 0.12959400
vn -0.98242700 -0.15412200 0.10527700
vn -0.95638900 -0.29207400 -0.00348600
vn -0.98982200 -0.06085800 0.12864300
vn -0.83808500 -0.52897900 0.13339900
vn -0.87674200 -0.46288300 0.13062600
vn -0.82770400 -0.56115300 -0.00379600
vn -0.91327500 -0.39830800 0.08531500
vn -0.94428000 -0.29780300 0.14017200
vn -0.59950400 -0.78771400 0.14177900
vn -0.67391600 -0.72594400 0.13726900
vn -0.60429200 -0.79675300 -0.00390200
vn -0.73652500 -0.67054500 0.08888200
vn -0.80117500 -0.58145100 0.14153800
vn -0.49640800 -0.85994700 0.11861500
vn -0.32935700 -0.94420300 -0.00235800
vn -0.39742900 -0.90617000 0.14459400
vn -0.18843000 -0.97062700 0.14959100
vn -0.25504100 -0.96197000 0.09781300
vn -0.33743300 -0.92971000 0.14757300
vn 0.69916400 -0.70263400 0.13219100
vn 0.59191600 -0.79846300 0.10996600
vn 0.67837900 -0.73465900 -0.00877500
vn 0.30888100 -0.94124300 0.13658200
vn 0.22685100 -0.97382700 -0.01414000
vn 0.33253800 -0.93542800 0.11996900
vn 0.41256700 -0.91089400 -0.00772500
vn 0.45035200 -0.88519900 0.11664000
vn 0.24272400 -0.95968900 0.14171400
vn 0.13272100 -0.98016300 0.14719100
vn 0.54368300 -0.82873100 0.13271200
vn 0.88464700 -0.44859000 0.12714700
vn 0.84499100 -0.53476800 -0.00366000
vn 0.92522600 -0.36437000 0.10579100
vn 0.96751800 -0.25277600 -0.00369000
vn 0.83828600 -0.53420600 0.10908500
vn 0.79683900 -0.59452800 0.10762900
vn 0.77708100 -0.61670500 0.12577700
vn 0.98099100 -0.14880600 0.12455500
vn 0.96350800 -0.24533900 0.10705600
vn 0.94751600 -0.29157500 0.13114200
vn -0.98932100 0.14575600 0.00000000
vn -0.99837600 0.05689600 0.00284800
vn -0.99586400 0.08752000 -0.02438700
vn -0.99685300 0.00640400 -0.07901600
vn -0.94267100 0.33366800 0.00603600
vn -0.98166000 0.17241700 -0.08133900
vn -0.99366200 0.05324500 -0.09899700
vn -0.74360900 0.66302800 -0.08624600
vn -0.81275700 0.57299600 -0.10536500
vn -0.78944700 0.61379300 0.00555100
vn -0.87898400 0.46969900 -0.08227900
vn -0.93679500 0.33513500 -0.10049500
vn -0.67883700 0.72935700 -0.08496200
vn -0.58258800 0.81275500 0.00456800
vn -0.58450200 0.80401600 -0.10915600
vn -0.47796200 0.87546200 -0.07154500
vn -0.32304200 0.94636800 0.00570900
vn -0.36688600 0.92338400 -0.11294800
vn -0.19657900 0.97586700 -0.09508200
vn -0.03458500 0.99940000 0.00160400
vn -0.06814200 0.99040200 -0.12025400
vn 0.03255800 0.99491500 -0.09531400
vn 0.02009200 0.99478800 -0.09996700
vn 0.04476400 0.99899600 0.00203900
vn 0.01137100 0.99556000 -0.09343800
vn -0.01484600 0.99555900 -0.09296300
vn -0.00963100 0.99556000 -0.09364000
vn 0.00613200 0.99555800 -0.09395100
vn 0.00072200 0.99691600 -0.07847900
vn -0.00438100 0.99555800 -0.09405100
vn 0.34718200 0.93778300 0.00518400
vn 0.33380300 0.93581900 -0.11322000
vn 0.21424300 0.97259800 -0.09029100
vn 0.10674300 0.98819200 -0.10992400
vn 0.63499800 0.77249200 0.00579700
vn 0.84667400 0.53207900 0.00592600
vn 0.77279500 0.62944600 -0.08115200
vn 0.67479200 0.73122800 -0.09980900
vn 0.53200400 0.84250900 -0.08455600
vn 0.42283200 0.90192300 -0.08802000
vn 0.97156600 0.23669000 0.00605800
vn 0.99691600 0.07847100 0.00000000
vn 0.99633900 0.04961200 -0.06962300
vn 0.98001600 0.17510800 -0.09437500
vn 0.93247800 0.35244900 -0.07914600
vn 0.87305800 0.47802100 -0.09625600
vn 0.98857700 0.14517900 -0.04049200
vn 0.99733600 0.07293800 0.00000000
vn -0.00002400 -0.00000000 -1.00000000
vn 0.00000000 0.00000000 -1.00000000
vn 0.00000000 0.00000000 -1.00000000
vn 0.00000000 0.00000000 -1.00000000
vn -0.00001200 -0.00000000 -1.00000000
vn 0.00000000 0.00000000 -1.00000000
vn -0.00000000 -0.00000000 -1.00000000
vn 0.00002200 0.00000000 -1.00000000
vn -0.00000000 -0.00000000 -1.00000000
vn 0.00002200 0.00000000 -1.00000000
vn -0.00000000 -0.00000000 -1.00000000
vn 0.00000000 0.00000000 -1.00000000
vn 0.00000000 0.00000000 -1.00000000
vn -0.00002400 -0.00000000 -1.00000000
vn 0.00000000 0.00000000 -1.00000000
vn 0.00000000 0.00000000 -1.00000000
vn -0.00002400 -0.00000000 -1.00000000
vn 0.00000000 0.00000000 -1.00000000
vn -0.00001200 -0.00000000 -1.00000000
vn -0.00001200 -0.00000000 -1.00000000
vn 0.00000000 0.00000000 -1.00000000
vn 0.00000300 0.00000000 -1.00000000
vn 0.00000000 0.00000000 -1.00000000
vn 0.00000000 0.00000000 -1.00000000
vn 0.00000300 0.00000000 -1.00000000
vn 0.00000300 0.00000000 -1.00000000
vn 0.00000000 0.00000000 -1.00000000
vn 0.00000000 0.00000000 -1.00000000
vn 0.00000000 0.00000000 -1.00000000
vn -0.00000800 -0.00000000 -1.00000000
vn -0.00000800 -0.00000000 -1.00000000
vn 0.00000000 0.00000000 -1.00000000
vn 0.00000300 0.00000000 -1.00000000
vn -0.00000800 -0.00000000 -1.00000000
vn 0.00000000 0.00000000 -1.00000000
vn 0.00000300 0.00000000 -1.00000000
vn 0.00000000 0.00000000 -1.00000000
vn 0.00000300 0.00000000 -1.00000000
vn -0.00000800 -0.00000000 -1.00000000
vn 0.00000000 0.00000000 -1.00000000
vn 0.00000000 0.00000000 -1.00000000
vn -0.00000800 -0.00000000 -1.00000000
vn 0.00000300 0.00000000 -1.00000000
vn 0.00000000 0.00000000 -1.00000000
vn 0.00000300 0.00000000 -1.00000000
vn -0.00000800 -0.00000000 -1.00000000
vn 0.00000000 0.00000000 -1.00000000
vn 0.00000300 0.00000000 -1.00000000
vn -0.00000300 -0.00000000 -1.00000000
vn -0.00000300 -0.00000000 -1.00000000
vn -0.00001600 -0.00000000 -1.00000000
vn 0.00000000 0.00000000 -1.00000000
vn 0.00000000 0.00000000 -1.00000000
vn -0.00001600 -0.00000000 -1.00000000
vn -0.00000300 -0.00000000 -1.00000000
vn -0.00001600 -0.00000000 -1.00000000
vn 0.00000000 0.00000000 -1.00000000
vn 0.00000000 0.00000000 -1.00000000
vn -0.00000600 -0.00000000 -1.00000000
vn -0.00000600 -0.00000000 -1.00000000
vn 0.00000000 0.00000000 -1.00000000
vn 0.00001600 0.00000000 -1.00000000
vn 0.00001600 0.00000000 -1.00000000
vn -0.00000600 -0.00000000 -1.00000000
vn 0.00000000 0.00000000 -1.00000000
vn 0.00001600 0.00000000 -1.00000000
vn 0.00000000 0.00000000 -1.00000000
vn 0.00000000 0.00000000 -1.00000000
vn 0.00002200 0.00000000 -1.00000000
vn 0.00005000 0.00000000 -1.00000000
vn -0.00007100 -0.00000000 -1.00000000
vn 0.00005000 0.00000000 -1.00000000
vn 0.00005000 0.00000000 -1.00000000
vn -0.00007100 -0.00000000 -1.00000000
vn -0.00007100 -0.00000000 -1.00000000
vn 0.41020000 0.11781100 -0.90435400
vn 0.49446300 0.00901100 -0.86915200
vn 0.56081400 0.14924500 -0.81437900
vn 0.63066300 0.08721800 -0.77114000
vn 0.65359900 0.04165100 -0.75569500
vn 0.71120300 0.08964400 -0.69724700
vn 0.77295100 0.03968200 -0.63322300
vn 0.78681200 0.13349100 -0.60258400
vn 0.86108400 0.11101500 -0.49619500
vn 0.89410700 0.03553300 -0.44644100
vn 0.90927100 0.12555700 -0.39681500
vn 0.94450200 0.08780500 -0.31655400
vn 0.96301600 0.02932400 -0.26784200
vn 0.97886100 0.10897400 -0.17307900
vn 0.24977600 0.57132400 -0.78179300
vn 0.15450700 0.70714700 -0.68997900
vn 0.28078300 0.65278300 -0.70358700
vn 0.15743000 0.83291700 -0.53053300
vn 0.07600700 0.95620500 -0.28265600
vn 0.21264100 0.90144900 -0.37706000
vn 0.24203100 0.44631600 -0.86152400
vn 0.25467900 0.25278300 -0.93340200
vn 0.27170800 0.33557200 -0.90197900
vn 0.32049100 0.87428200 -0.36457800
vn 0.45264300 0.82739500 -0.33246300
vn 0.94224700 0.12863600 -0.30923100
vn 0.80570900 0.12141200 -0.57973500
vn 0.90851400 0.25815500 -0.32857000
vn 0.75609800 0.21151100 -0.61933800
vn 0.85789300 0.39214900 -0.33202400
vn 0.71749900 0.30995300 -0.62379800
vn 0.78722900 0.51670200 -0.33658500
vn 0.66430300 0.40222600 -0.63001200
vn 0.69737400 0.62986100 -0.34197200
vn 0.59699000 0.48650300 -0.63790100
vn 0.58998700 0.72830900 -0.34854100
vn 0.51644000 0.56060600 -0.64731100
vn 0.42308300 0.62281800 -0.65810300
vn 0.30263000 0.79728100 -0.52226300
vn 0.56768000 0.07536800 -0.81979200
vn 0.52486100 0.12003900 -0.84268100
vn 0.50326000 0.17237500 -0.84676800
vn 0.47376900 0.22158200 -0.85231700
vn 0.43674100 0.26649100 -0.85920900
vn 0.39237700 0.30615300 -0.86735800
vn 0.34096600 0.33950500 -0.87662900
vn 0.32221300 0.51799300 -0.79237800
vn 0.28347200 0.36500600 -0.88680000
vn 0.16191000 0.29642700 -0.94123100
vn 0.05450100 0.94899800 -0.31053600
vn 0.03583900 0.95103500 -0.30700000
vn 0.01865000 0.95104600 -0.30848500
vn 0.00137900 0.95104300 -0.30905600
vn -0.01590800 0.95103200 -0.30868300
vn -0.03312400 0.95103400 -0.30730600
vn -0.05172900 0.94904600 -0.31086100
vn -0.10877400 0.92930800 -0.35292300
vn -0.10008100 0.79894700 -0.59301500
vn -0.17622100 0.81805000 -0.54748500
vn -0.16733900 0.70710000 -0.68702800
vn -0.13869200 0.56474600 -0.81352700
vn -0.21987800 0.56380900 -0.79609800
vn 0.06677100 0.80903900 -0.58394900
vn 0.03402000 0.80901100 -0.58680800
vn 0.09104500 0.58766700 -0.80396400
vn 0.04603400 0.58774600 -0.80773500
vn 0.09589600 0.81667200 -0.56907800
vn 0.13502900 0.60138800 -0.78746400
vn 0.10597000 0.31093000 -0.94450700
vn 0.05723900 0.29579500 -0.95353500
vn -0.19990600 0.42580200 -0.88245700
vn -0.16251400 0.29222900 -0.94243900
vn -0.22487700 0.22427100 -0.94822600
vn -0.11158300 0.29382600 -0.94932400
vn -0.06442100 0.80899000 -0.58428100
vn -0.08943700 0.58773400 -0.80409600
vn -0.05479000 0.29208400 -0.95482200
vn -0.03161600 0.80905300 -0.58688500
vn -0.04436900 0.58774100 -0.80783100
vn 0.00120200 0.80902900 -0.58776700
vn 0.00084700 0.58776200 -0.80903300
vn 0.00040300 0.30892600 -0.95108600
vn -0.92591000 0.00634500 -0.37769200
vn -0.96506900 0.00622700 -0.26192200
vn -0.94104700 0.06098800 -0.33273300
vn -0.77545200 0.41145800 -0.47893300
vn -0.77545200 0.41145800 -0.47893300
vn -0.77545200 0.41145800 -0.47893300
vn -0.49325800 0.00213600 -0.86988000
vn -0.52217100 0.08280100 -0.84881200
vn -0.92554300 0.19373500 -0.32532700
vn -0.88366600 0.33500800 -0.32696100
vn -0.82141500 0.46279400 -0.33331600
vn -0.73929300 0.59560100 -0.31417400
vn -0.63183800 0.69493900 -0.34327900
vn -0.50738500 0.79766400 -0.32602600
vn -0.28704200 0.70192100 -0.65185500
vn -0.28734300 0.37482600 -0.88144200
vn -0.38640500 0.63954400 -0.66458600
vn -0.33527000 0.33974500 -0.87873100
vn -0.48679400 0.58046200 -0.65276000
vn -0.38870000 0.30630700 -0.86895800
vn -0.57483900 0.50684000 -0.64239600
vn -0.43510900 0.26545600 -0.86035600
vn -0.64905500 0.42143300 -0.63334100
vn -0.47397300 0.21882200 -0.85291600
vn -0.70797700 0.32655500 -0.62620300
vn -0.50444600 0.16738500 -0.84706400
vn -0.75085800 0.22547900 -0.62078300
vn -0.52635500 0.11307900 -0.84271200
vn -0.77731700 0.12053000 -0.61745600
vn -0.53939200 0.05683400 -0.84013400
vn -0.75350400 0.10459000 -0.64907000
vn -0.61052300 0.40012800 -0.68349000
vn -0.60860900 0.00153200 -0.79346900
vn -0.36195900 0.86240600 -0.35389400
vn -0.22184100 0.91107300 -0.34746600
vn -0.78644900 0.00412300 -0.61764100
vn -0.71466500 0.00449400 -0.69945300
vn -0.98597100 0.10994300 -0.12559300
vn -0.95068400 0.14169800 -0.27590300
vn -0.91897700 0.08155700 -0.38578400
vn -0.87541100 0.00031600 -0.48337900
vn -0.87332500 0.09040500 -0.47867500
vn -0.85086300 0.00031700 -0.52538700
vn -0.81686200 0.13657200 -0.56043200
vn -0.72436000 0.11465900 -0.67982100
vn -0.64213400 0.13121500 -0.75527900
vn -0.56530900 0.09445600 -0.81945300
vn -0.43782200 0.12178600 -0.89077500
vn -0.45700000 0.88946700 0.00000000
vn -0.45699100 0.88944100 -0.00729400
vn -0.79118300 0.61125400 -0.01993200
vn -0.79110600 0.61167900 0.00000000
vn -0.79139900 0.61130000 0.00000000
vn -0.79093400 0.61156800 -0.02018600
vn -0.97572500 0.21705500 -0.02912600
vn -0.97599400 0.21779900 0.00000000
vn -0.78772000 0.61194600 -0.07085100
vn -0.45540900 0.88992400 -0.02525300
vn -0.96487100 0.21636000 -0.14904100
vn -0.88500200 0.21495400 -0.41299600
vn -0.93699300 0.21923700 -0.27199300
vn -0.78570000 0.22115100 -0.57772600
vn -0.69009400 0.21524500 -0.69097000
vn -0.57051600 0.22247500 -0.79058000
vn -0.41233300 0.23481200 -0.88025300
vn -0.29658700 0.24023600 -0.92429600
vn -0.78456000 0.61152300 -0.10249400
vn -0.77101600 0.61435100 -0.16765100
vn -0.76223900 0.61433700 -0.20391800
vn -0.73705300 0.61932400 -0.27053700
vn -0.72291100 0.61933500 -0.30630700
vn -0.68706500 0.62634100 -0.36829100
vn -0.66725400 0.62649300 -0.40283800
vn -0.62125700 0.63530400 -0.45872500
vn -0.59565900 0.63566300 -0.49104300
vn -0.54071300 0.64585400 -0.53898200
vn -0.50978400 0.64644100 -0.56765700
vn -0.44702600 0.65782100 -0.60616800
vn -0.41081900 0.65859600 -0.63046000
vn -0.35087100 0.66825300 -0.65599400
vn -0.32346000 0.67064200 -0.66754300
vn -0.44906900 0.89149800 -0.05973500
vn -0.43610300 0.89470900 -0.09648900
vn -0.41685400 0.89937900 -0.13172000
vn -0.39144900 0.90535900 -0.16460000
vn -0.36013800 0.91248500 -0.19409300
vn -0.32342800 0.92050800 -0.21922700
vn -0.28254200 0.92898500 -0.23907600
vn -0.28445100 0.67902800 -0.67676300
vn -0.24269400 0.93807800 -0.24720500
vn -0.24131600 0.24786400 -0.93825900
vn -0.20527600 0.23723500 -0.94951600
vn -0.16757700 0.24336000 -0.95535000
vn -0.20624300 0.94588100 -0.25054400
vn -0.16421100 0.95588200 -0.24356800
vn -0.12488700 0.25577300 -0.95863600
vn -0.08509800 0.25739100 -0.96255300
vn -0.04500700 0.25843000 -0.96498100
vn -0.01170900 0.25253600 -0.96751700
vn 0.02018700 0.25415500 -0.96695300
vn -0.12701200 0.96180100 -0.24250000
vn -0.09401800 0.96174200 -0.25731900
vn -0.05579500 0.96442100 -0.25841600
vn -0.01940900 0.96573200 -0.25881600
vn 0.01262000 0.96584900 -0.25879700
vn 0.04649100 0.96493600 -0.25833300
vn 0.08412200 0.96269200 -0.25719300
vn 0.12393300 0.96121600 -0.24638400
vn 0.06178000 0.25839100 -0.96406300
vn 0.10113500 0.25735700 -0.96100900
vn 0.14018400 0.25578400 -0.95651600
vn 0.17435200 0.24007000 -0.95497000
vn 0.21214100 0.24090300 -0.94708100
vn 0.25447700 0.24801000 -0.93473700
vn 0.33136400 0.24298100 -0.91167900
vn -0.27054500 0.68174800 -0.67972400
vn -0.24229700 0.68682700 -0.68524500
vn -0.22804600 0.68917400 -0.68777500
vn -0.19924900 0.69345400 -0.69240200
vn -0.18478300 0.69537400 -0.69448600
vn -0.15542200 0.69886500 -0.69816300
vn -0.14073700 0.70035800 -0.69978000
vn -0.11097100 0.70291100 -0.70256800
vn -0.09604000 0.70396700 -0.70371000
vn -0.06580700 0.70565500 -0.70549300
vn -0.05075200 0.70624700 -0.70614400
vn -0.02293900 0.70692900 -0.70691200
vn -0.01030200 0.70707300 -0.70706600
vn 0.01492800 0.70704100 -0.70701500
vn 0.02741700 0.70686700 -0.70681500
vn 0.05488800 0.70607400 -0.70600700
vn 0.06971300 0.70544600 -0.70532700
vn 0.09934100 0.70376000 -0.70345800
vn 0.11401400 0.70269200 -0.70230000
vn 0.14329700 0.70005500 -0.69956400
vn 0.15782700 0.69855600 -0.69793300
vn 0.18671800 0.69517200 -0.69417000
vn 0.20099700 0.69325600 -0.69209500
vn 0.22935700 0.68901500 -0.68749800
vn 0.24337800 0.68671300 -0.68497600
vn 0.27120800 0.68164500 -0.67956400
vn 0.28489400 0.67895900 -0.67664600
vn 0.32592500 0.67007900 -0.66690900
vn 0.34983300 0.66816100 -0.65664100
vn 0.15961400 0.95731800 -0.24096800
vn 0.19496700 0.94831900 -0.25035900
vn 0.23095000 0.94108300 -0.24703200
vn 0.26913000 0.93205400 -0.24257800
vn 0.41177100 0.65798100 -0.63048000
vn 0.30981200 0.92298500 -0.22828600
vn 0.45967400 0.24195200 -0.85449400
vn 0.68425000 0.22094700 -0.69497100
vn 0.56801800 0.23507200 -0.78873100
vn 0.80436000 0.22704100 -0.54905200
vn 0.87474000 0.21084100 -0.43632100
vn 0.93186600 0.21032600 -0.29561600
vn 0.96749200 0.21763500 -0.12881800
vn 0.97530200 0.21731900 -0.03948300
vn 0.44281400 0.65840400 -0.60862200
vn 0.50935600 0.64621900 -0.56829300
vn 0.53523800 0.64677700 -0.54332300
vn 0.59224800 0.63576900 -0.49501400
vn 0.61389700 0.63613500 -0.46740000
vn 0.66126300 0.62708100 -0.41170400
vn 0.67849300 0.62766300 -0.38168800
vn 0.71596500 0.62013500 -0.32066600
vn 0.72903700 0.62037300 -0.28921100
vn 0.75610400 0.61500100 -0.22378600
vn 0.76485000 0.61537300 -0.19057900
vn 0.78130700 0.61202700 -0.12240200
vn 0.78583500 0.61207600 -0.08846600
vn 0.79115100 0.61101500 -0.02721100
vn 0.79099700 0.61122900 -0.02688700
vn 0.34793900 0.91488900 -0.20473700
vn 0.38013400 0.90775200 -0.17743800
vn 0.40679800 0.90160600 -0.14704500
vn 0.42781400 0.89663200 -0.11413600
vn 0.44324500 0.89286900 -0.07948700
vn 0.45293000 0.89048800 -0.04341900
vn 0.45693200 0.88944800 -0.00977700
vn 0.97599600 0.21778700 0.00000000
vn 0.79109900 0.61168800 0.00000000
vn 0.79130500 0.61142200 0.00000000
vn 0.45700500 0.88946400 0.00000000
vn -0.97683200 -0.01161700 0.21369100
vn -0.97680700 -0.00000000 0.21412000
vn -0.79752400 -0.00000000 0.60328700
vn -0.79748200 -0.00788600 0.60329100
vn -0.79781900 -0.00787900 0.60284500
vn -0.79781300 0.00000000 0.60290400
vn -0.47255800 -0.00000000 0.88130000
vn -0.47264600 -0.00277200 0.88124800
vn -0.79679800 -0.03584700 0.60318100
vn -0.47204400 -0.01278300 0.88148200
vn -0.97361100 -0.08134200 0.21322700
vn -0.96191200 -0.17052900 0.21364500
vn -0.87957500 -0.20628200 0.42871400
vn -0.84236000 -0.26175200 0.47107900
vn -0.88542800 -0.41113700 0.21675700
vn -0.85755700 -0.46646300 0.21681200
vn -0.81590500 -0.52853100 0.23442400
vn -0.74428300 -0.62592100 0.23295200
vn -0.65862400 -0.71814500 0.22468000
vn -0.58551800 -0.77746100 0.22961600
vn -0.48201400 -0.84497000 0.23170500
vn -0.38743900 -0.89047300 0.23863900
vn -0.30437100 -0.92064500 0.24448000
vn -0.17099300 -0.95447000 0.24443500
vn -0.07371200 -0.96573900 0.24882700
vn -0.79596900 -0.05577300 0.60276300
vn -0.79133000 -0.09657700 0.60371300
vn -0.78824900 -0.11692300 0.60414600
vn -0.77523400 -0.17836100 0.60597100
vn -0.75028700 -0.25584200 0.60960100
vn -0.72854900 -0.30362600 0.61402500
vn -0.71986700 -0.32285800 0.61445400
vn -0.69679400 -0.36072300 0.61996600
vn -0.68681300 -0.37995300 0.61961500
vn -0.65458600 -0.42339300 0.62630300
vn -0.63701800 -0.44914100 0.62648300
vn -0.59950100 -0.48887400 0.63372000
vn -0.58540900 -0.50513300 0.63414200
vn -0.55000000 -0.53401000 0.64213200
vn -0.53446100 -0.54982800 0.64190400
vn -0.48760300 -0.58192600 0.65085000
vn -0.46175000 -0.60233600 0.65113600
vn -0.41050200 -0.62904300 0.66014600
vn -0.39129700 -0.64080800 0.66049400
vn -0.34620000 -0.65691200 0.66978600
vn -0.32563500 -0.66759700 0.66953500
vn -0.26796400 -0.68314500 0.67934400
vn -0.23526500 -0.69488300 0.67955000
vn -0.17666200 -0.70331700 0.68857500
vn -0.15382600 -0.70709500 0.69018400
vn -0.46980700 -0.03442200 0.88209800
vn -0.46501300 -0.05638300 0.88350600
vn -0.45683500 -0.08126900 0.88583100
vn -0.44407500 -0.10864000 0.88937900
vn -0.43107400 -0.12942300 0.89298700
vn -0.41358000 -0.15219300 0.89765800
vn -0.39072200 -0.17598500 0.90352900
vn -0.37014100 -0.19283700 0.90874100
vn -0.34408800 -0.21078100 0.91497300
vn -0.31197300 -0.22836600 0.92223700
vn -0.28489200 -0.23898700 0.92829000
vn -0.25197600 -0.24923300 0.93508900
vn -0.20419200 -0.27432200 0.93970900
vn -0.11888500 -0.70708200 0.69706600
vn -0.03972100 -0.96592800 0.25574600
vn -0.02897100 -0.96592000 0.25721300
vn -0.01879400 -0.96592500 0.25813900
vn -0.00859500 -0.96593000 0.25866000
vn 0.00166900 -0.96592500 0.25881500
vn 0.01184100 -0.96592500 0.25855100
vn 0.02202600 -0.96592900 0.25786800
vn 0.03217200 -0.96593000 0.25679600
vn 0.04227600 -0.96592700 0.25534000
vn 0.05021900 -0.96592500 0.25390500
vn 0.08731900 -0.96378300 0.25198600
vn -0.10810900 -0.70709800 0.69880200
vn -0.08813900 -0.70709300 0.70160600
vn -0.07895500 -0.70709400 0.70269800
vn -0.06038100 -0.70709500 0.70453600
vn -0.05113500 -0.70709500 0.70526700
vn -0.03249000 -0.70709500 0.70637200
vn -0.02327600 -0.70709700 0.70673400
vn -0.00463400 -0.70709800 0.70710000
vn 0.00463000 -0.70709800 0.70710000
vn 0.02327900 -0.70709700 0.70673300
vn 0.03248500 -0.70709400 0.70637300
vn 0.05115800 -0.70709400 0.70526700
vn 0.06033700 -0.70709400 0.70454100
vn 0.07898700 -0.70709700 0.70269200
vn 0.08811900 -0.70709700 0.70160500
vn 0.10664400 -0.70709400 0.69903100
vn 0.11574200 -0.70709200 0.69758500
vn 0.13111500 -0.70707900 0.69487300
vn 0.13707300 -0.70710100 0.69370000
vn 0.15642000 -0.70707600 0.68962000
vn 0.17166900 -0.70426500 0.68886900
vn -0.15911800 -0.28088200 0.94646000
vn -0.12038700 -0.25880300 0.95839900
vn -0.08248300 -0.25881000 0.96240000
vn -0.04445500 -0.25880900 0.96490500
vn -0.00629800 -0.25881100 0.96590700
vn 0.03180100 -0.25880900 0.96540500
vn 0.06984900 -0.25881300 0.96339900
vn 0.10783300 -0.25880800 0.95989100
vn 0.14561900 -0.25880900 0.95488900
vn 0.17900800 -0.25880700 0.94919700
vn 0.20278000 -0.25882300 0.94440000
vn 0.21491000 -0.69880600 0.68226400
vn 0.22995000 -0.25530700 0.93911800
vn 0.18709700 -0.94976300 0.25088700
vn 0.28668600 -0.92533600 0.24812100
vn 0.35446200 -0.90237600 0.24510000
vn 0.46432300 -0.85205900 0.24166100
vn 0.57204400 -0.78558400 0.23584500
vn 0.64020700 -0.73308000 0.22962700
vn 0.72522000 -0.64955000 0.22834400
vn 0.78823900 -0.57219000 0.22644600
vn 0.83044000 -0.51115400 0.22156400
vn 0.89073100 -0.39800400 0.21952500
vn 0.92588300 -0.30783700 0.21903700
vn 0.94786500 -0.23433000 0.21596600
vn 0.97076200 -0.10822700 0.21426000
vn 0.97633100 -0.03235800 0.21384800
vn 0.24669700 -0.68921200 0.68126900
vn 0.29645300 -0.67716900 0.67346700
vn 0.31993600 -0.66691100 0.67295600
vn 0.36124600 -0.65418000 0.66449200
vn 0.38328000 -0.64257200 0.66347400
vn 0.43243600 -0.61943200 0.65521200
vn 0.46210800 -0.59863100 0.65429100
vn 0.50675800 -0.57073100 0.64611300
vn 0.52413800 -0.55518800 0.64579100
vn 0.55636200 -0.53185300 0.63843100
vn 0.57210300 -0.51603100 0.63750400
vn 0.60912300 -0.48080500 0.63071100
vn 0.62997300 -0.45408300 0.63003400
vn 0.66234500 -0.41535800 0.62352000
vn 0.67360200 -0.39684200 0.62352000
vn 0.69596100 -0.36559000 0.61804700
vn 0.70584500 -0.34733500 0.61736700
vn 0.72936600 -0.30405500 0.61284300
vn 0.74116800 -0.27468000 0.61255300
vn 0.75989100 -0.22872500 0.60848300
vn 0.76538400 -0.20888200 0.60873300
vn 0.77685000 -0.17177300 0.60580400
vn 0.78129900 -0.15234700 0.60527900
vn 0.79047800 -0.10414000 0.60357200
vn 0.79388600 -0.07420200 0.60352200
vn 0.79764300 -0.02218600 0.60272200
vn 0.79750600 -0.02230100 0.60289800
vn 0.26418700 -0.24679300 0.93236200
vn 0.29134200 -0.23751000 0.92666500
vn 0.32103300 -0.22432500 0.92011800
vn 0.35215900 -0.20617700 0.91294900
vn 0.37261300 -0.19134900 0.90804400
vn 0.39434700 -0.17262700 0.90260200
vn 0.41659800 -0.14892000 0.89681100
vn 0.43020400 -0.13062600 0.89323100
vn 0.44392500 -0.10851900 0.88946800
vn 0.45675600 -0.08160800 0.88584100
vn 0.46356400 -0.06118500 0.88394800
vn 0.46919400 -0.03711300 0.88231500
vn 0.47252500 -0.00781800 0.88128300
vn 0.47267300 0.00000000 0.88123800
vn 0.79774000 0.00000000 0.60300100
vn 0.79782700 0.00000000 0.60288600
vn 0.97681400 -0.00000100 0.21409000
f 1//1 2//2 3//3
f 4//4 5//5 6//6
f 7//7 8//8 9//9
f 8//8 10//10 9//9
f 9//9 10//10 11//11
f 9//9 11//11 12//12
f 12//12 13//13 9//9
f 9//9 13//13 14//14
f 9//9 14//14 15//15
f 15//15 16//16 9//9
f 9//9 16//16 17//17
f 9//9 17//17 18//18
f 18//18 17//17 19//19
f 20//20 21//21 22//22
f 20//20 22//22 9//9
f 9//9 22//22 23//23
f 9//9 23//23 7//7
f 3//3 2//2 24//24
f 25//25 26//26 4//4
f 24//24 2//2 27//27
f 27//27 2//2 26//26
f 27//27 26//26 28//28
f 28//28 26//26 25//25
f 28//28 25//25 29//29
f 30//30 31//31 25//25
f 25//25 31//31 32//32
f 25//25 32//32 29//29
f 33//33 34//34 25//25
f 25//25 34//34 35//35
f 25//25 35//35 30//30
f 4//4 6//6 25//25
f 25//25 6//6 36//36
f 25//25 36//36 33//33
f 1//1 3//3 37//37
f 37//37 3//3 38//38
f 37//37 38//38 39//39
f 39//39 38//38 40//40
f 39//39 40//40 41//41
f 41//41 40//40 42//42
f 41//41 42//42 43//43
f 43//43 42//42 44//44
f 43//43 44//44 45//45
f 46//46 47//47 48//48
f 48//48 47//47 44//44
f 44//44 47//47 49//49
f 44//44 49//49 45//45
f 20//20 50//50 21//21
f 21//21 50//50 51//51
f 21//21 51//51 52//52
f 52//52 51//51 46//46
f 52//52 46//46 53//53
f 53//53 46//46 48//48
f 54//54 55//55 56//56
f 56//56 55//55 57//57
f 58//58 59//59 60//60
f 60//60 61//61 58//58
f 58//58 61//61 62//62
f 58//58 62//62 63//63
f 64//64 65//65 66//66
f 66//66 65//65 67//67
f 66//66 67//67 68//68
f 63//63 69//69 58//58
f 58//58 69//69 70//70
f 58//58 70//70 66//66
f 66//66 70//70 71//71
f 66//66 71//71 64//64
f 72//72 73//73 74//74
f 74//74 73//73 75//75
f 76//76 77//77 78//78
f 76//76 78//78 79//79
f 80//80 81//81 82//82
f 82//82 83//83 80//80
f 80//80 83//83 84//84
f 80//80 84//84 85//85
f 85//85 84//84 79//79
f 85//85 79//79 86//86
f 86//86 79//79 78//78
f 87//87 88//88 89//89
f 89//89 88//88 90//90
f 89//89 78//78 91//91
f 91//91 78//78 77//77
f 92//92 93//93 94//94
f 94//94 95//95 92//92
f 92//92 95//95 96//96
f 92//92 96//96 97//97
f 97//97 96//96 98//98
f 97//97 98//98 81//81
f 81//81 98//98 99//99
f 81//81 99//99 82//82
f 100//100 101//101 102//102
f 102//102 101//101 103//103
f 102//102 103//103 104//104
f 104//104 103//103 105//105
f 104//104 105//105 93//93
f 93//93 105//105 106//106
f 93//93 106//106 94//94
f 107//107 108//108 109//109
f 109//109 108//108 110//110
f 109//109 110//110 111//111
f 111//111 110//110 112//112
f 111//111 112//112 100//100
f 100//100 112//112 113//113
f 100//100 113//113 101//101
f 114//114 115//115 107//107
f 107//107 115//115 116//116
f 107//107 116//116 108//108
f 117//117 118//118 119//119
f 117//117 119//119 121//121
f 121//121 119//119 122//122
f 121//121 122//122 123//123
f 124//124 126//126 120//120
f 127//127 125//125 128//128
f 128//128 125//125 119//119
f 128//128 119//119 129//129
f 129//129 119//119 118//118
f 128//128 130//130 127//127
f 127//127 130//130 131//131
f 127//127 131//131 132//132
f 131//131 133//133 132//132
f 132//132 133//133 134//134
f 132//132 134//134 135//135
f 135//135 134//134 136//136
f 135//135 136//136 114//114
f 114//114 136//136 137//137
f 114//114 137//137 115//115
f 138//138 139//139 140//140
f 141//141 142//142 138//138
f 143//143 144//144 141//141
f 138//138 140//140 141//141
f 141//141 140//140 145//145
f 141//141 145//145 143//143
f 144//144 146//146 141//141
f 141//141 146//146 147//147
f 141//141 147//147 148//148
f 148//148 149//149 141//141
f 141//141 149//149 150//150
f 141//141 150//150 142//142
f 142//142 150//150 151//151
f 142//142 151//151 152//152
f 152//152 153//153 142//142
f 142//142 153//153 154//154
f 142//142 154//154 155//155
f 155//155 156//156 142//142
f 142//142 156//156 157//157
f 142//142 157//157 158//158
f 158//158 157//157 159//159
f 158//158 159//159 160//160
f 160//160 159//159 161//161
f 160//160 161//161 162//162
f 162//162 161//161 163//163
f 162//162 163//163 164//164
f 164//164 163//163 165//165
f 164//164 165//165 166//166
f 166//166 165//165 167//167
f 166//166 167//167 168//168
f 169//169 170//170 171//171
f 169//169 171//171 172//172
f 167//167 173//173 168//168
f 168//168 173//173 174//174
f 168//168 174//174 175//175
f 175//175 174//174 176//176
f 175//175 176//176 177//177
f 177//177 176//176 178//178
f 177//177 178//178 179//179
f 179//179 178//178 180//180
f 179//179 180//180 171//171
f 171//171 180//180 181//181
f 171//171 181//181 172//172
f 170//170 182//182 171//171
f 171//171 182//182 183//183
f 171//171 183//183 184//184
f 184//184 185//185 171//171
f 171//171 185//185 186//186
f 171//171 186//186 187//187
f 187//187 188//188 171//171
f 171//171 188//188 189//189
f 171//171 189//189 190//190
f 190//190 191//191 171//171
f 171//171 191//191 192//192
f 171//171 192//192 193//193
f 193//193 192//192 194//194
f 195//195 196//196 197//197
f 197//197 196//196 75//75
f 75//75 196//196 198//198
f 75//75 198//198 74//74
f 199//199 200//200 201//201
f 201//201 200//200 202//202
f 201//201 202//202 197//197
f 197//197 202//202 203//203
f 197//197 203//203 195//195
f 204//204 205//205 206//206
f 206//206 205//205 207//207
f 206//206 207//207 201//201
f 201//201 207//207 208//208
f 201//201 208//208 199//199
f 204//204 206//206 209//209
f 209//209 206//206 210//210
f 209//209 210//210 211//211
f 68//68 212//212 66//66
f 66//66 212//212 213//213
f 66//66 213//213 210//210
f 210//210 213//213 214//214
f 210//210 214//214 211//211
f 215//215 216//216 217//217
f 218//218 219//219 220//220
f 220//220 219//219 221//221
f 220//220 221//221 222//222
f 218//218 223//223 58//58
f 58//58 223//223 224//224
f 58//58 224//224 59//59
f 217//217 216//216 221//221
f 221//221 216//216 225//225
f 221//221 225//225 222//222
f 226//226 227//227 228//228
f 228//228 227//227 229//229
f 226//226 230//230 227//227
f 227//227 230//230 231//231
f 227//227 231//231 217//217
f 217//217 231//231 232//232
f 217//217 232//232 215//215
f 55//55 54//54 229//229
f 229//229 54//54 233//233
f 233//233 234//234 229//229
f 229//229 234//234 235//235
f 229//229 235//235 228//228
f 236//236 237//237 238//238
f 238//238 237//237 239//239
f 240//240 241//241 237//237
f 237//237 241//241 242//242
f 237//237 242//242 239//239
f 243//243 244//244 245//245
f 245//245 244//244 246//246
f 245//245 246//246 240//240
f 240//240 246//246 247//247
f 240//240 247//247 241//241
f 243//243 245//245 248//248
f 248//248 245//245 249//249
f 248//248 249//249 250//250
f 250//250 249//249 251//251
f 251//251 249//249 252//252
f 251//251 252//252 253//253
f 253//253 252//252 254//254
f 254//254 252//252 255//255
f 254//254 255//255 256//256
f 257//257 258//258 259//259
f 259//259 258//258 260//260
f 256//256 255//255 261//261
f 261//261 255//255 262//262
f 260//260 263//263 259//259
f 259//259 263//263 264//264
f 259//259 264//264 255//255
f 255//255 264//264 265//265
f 255//255 265//265 262//262
f 266//266 267//267 268//268
f 266//266 268//268 259//259
f 259//259 268//268 269//269
f 259//259 269//269 257//257
f 270//270 271//271 272//272
f 272//272 273//273 270//270
f 270//270 273//273 274//274
f 270//270 274//274 266//266
f 266//266 274//274 275//275
f 266//266 275//275 267//267
f 276//276 277//277 278//278
f 278//278 279//279 276//276
f 276//276 279//279 280//280
f 276//276 280//280 271//271
f 271//271 280//280 281//281
f 271//271 281//281 272//272
f 282//282 278//278 283//283
f 283//283 278//278 277//277
f 285//285 286//286 287//287
f 290//290 292//292 294//294
f 295//295 296//296 298//298
f 298//298 296//296 285//285
f 297//297 284//284 300//300
f 299//299 285//285 287//287
f 299//299 287//287 301//301
f 302//302 288//288 303//303
f 301//301 304//304 306//306
f 306//306 304//304 307//307
f 305//305 308//308 309//309
f 310//310 307//307 311//311
f 310//310 311//311 312//312
f 312//312 311//311 315//315
f 313//313 314//314 317//317
f 319//319 316//316 321//321
f 318//318 320//320 323//323
f 323//323 320//320 324//324
f 322//322 325//325 329//329
f 328//328 326//326 331//331
f 327//327 330//330 335//335
f 333//333 332//332 338//338
f 334//334 337//337 339//339
f 340//340 336//336 341//341
f 340//340 341//341 344//344
f 343//343 342//342 347//347
f 345//345 346//346 349//349
f 350//350 348//348 289//289
f 350//350 289//289 351//351
f 352//352 291//291 293//293
f 353//353 355//355 356//356
f 357//357 354//354 358//358
f 19//19 17//17 359//359
f 359//359 17//17 360//360
f 359//359 360//360 361//361
f 361//361 360//360 362//362
f 362//362 360//360 363//363
f 362//362 363//363 364//364
f 364//364 363//363 365//365
f 364//364 365//365 366//366
f 366//366 365//365 367//367
f 367//367 365//365 368//368
f 367//367 368//368 369//369
f 369//369 368//368 370//370
f 370//370 368//368 371//371
f 370//370 371//371 372//372
f 372//372 371//371 278//278
f 372//372 278//278 282//282
f 373//373 374//374 375//375
f 376//376 377//377 378//378
f 377//377 257//257 269//269
f 373//373 375//375 379//379
f 23//23 380//380 381//381
f 377//377 269//269 378//378
f 378//378 269//269 268//268
f 378//378 268//268 382//382
f 382//382 268//268 267//267
f 382//382 267//267 383//383
f 384//384 385//385 386//386
f 386//386 385//385 387//387
f 386//386 387//387 388//388
f 388//388 387//387 389//389
f 388//388 389//389 390//390
f 390//390 389//389 391//391
f 390//390 391//391 392//392
f 392//392 391//391 393//393
f 392//392 393//393 394//394
f 394//394 393//393 395//395
f 394//394 395//395 383//383
f 383//383 395//395 396//396
f 383//383 396//396 382//382
f 382//382 396//396 397//397
f 382//382 397//397 378//378
f 378//378 397//397 375//375
f 378//378 375//375 376//376
f 376//376 375//375 374//374
f 385//385 398//398 387//387
f 387//387 398//398 399//399
f 387//387 399//399 389//389
f 389//389 399//399 400//400
f 389//389 400//400 391//391
f 391//391 400//400 401//401
f 391//391 401//401 393//393
f 393//393 401//401 402//402
f 393//393 402//402 395//395
f 395//395 402//402 403//403
f 395//395 403//403 396//396
f 396//396 403//403 404//404
f 396//396 404//404 405//405
f 405//405 404//404 406//406
f 405//405 406//406 375//375
f 375//375 406//406 381//381
f 375//375 381//381 379//379
f 379//379 381//381 380//380
f 267//267 275//275 383//383
f 383//383 275//275 274//274
f 383//383 274//274 394//394
f 394//394 274//274 273//273
f 394//394 273//273 392//392
f 392//392 273//273 272//272
f 392//392 272//272 390//390
f 390//390 272//272 281//281
f 390//390 281//281 388//388
f 388//388 281//281 280//280
f 388//388 280//280 386//386
f 386//386 280//280 279//279
f 386//386 279//279 384//384
f 384//384 279//279 278//278
f 278//278 371//371 384//384
f 384//384 371//371 368//368
f 384//384 368//368 385//385
f 385//385 368//368 365//365
f 385//385 365//365 398//398
f 398//398 365//365 363//363
f 398//398 363//363 360//360
f 23//23 381//381 7//7
f 7//7 381//381 406//406
f 7//7 406//406 8//8
f 8//8 406//406 404//404
f 8//8 404//404 10//10
f 10//10 404//404 403//403
f 10//10 403//403 11//11
f 11//11 403//403 402//402
f 11//11 402//402 12//12
f 12//12 402//402 401//401
f 12//12 401//401 13//13
f 13//13 401//401 400//400
f 13//13 400//400 14//14
f 14//14 400//400 399//399
f 14//14 399//399 15//15
f 15//15 399//399 398//398
f 15//15 398//398 16//16
f 16//16 398//398 360//360
f 16//16 360//360 17//17
f 407//407 380//380 23//23
f 380//380 407//407 379//379
f 260//260 258//258 408//408
f 263//263 260//260 409//409
f 264//264 263//263 410//410
f 265//265 264//264 411//411
f 262//262 265//265 412//412
f 261//261 262//262 413//413
f 256//256 261//261 414//414
f 256//256 414//414 415//415
f 415//415 414//414 416//416
f 415//415 416//416 417//417
f 417//417 416//416 418//418
f 418//418 416//416 419//419
f 418//418 419//419 420//420
f 263//263 409//409 410//410
f 410//410 409//409 421//421
f 410//410 421//421 422//422
f 422//422 421//421 423//423
f 422//422 423//423 424//424
f 260//260 408//408 409//409
f 409//409 408//408 425//425
f 409//409 425//425 421//421
f 421//421 425//425 426//426
f 421//421 426//426 423//423
f 373//373 426//426 374//374
f 374//374 426//426 425//425
f 374//374 425//425 376//376
f 376//376 425//425 408//408
f 376//376 408//408 377//377
f 377//377 408//408 258//258
f 377//377 258//258 257//257
f 373//373 379//379 426//426
f 426//426 379//379 407//407
f 426//426 407//407 423//423
f 423//423 407//407 427//427
f 423//423 427//427 424//424
f 424//424 427//427 428//428
f 420//420 419//419 429//429
f 429//429 419//419 430//430
f 429//429 430//430 431//431
f 431//431 430//430 24//24
f 431//431 24//24 27//27
f 432//432 38//38 3//3
f 261//261 413//413 414//414
f 414//414 413//413 433//433
f 414//414 433//433 416//416
f 416//416 433//433 434//434
f 416//416 434//434 419//419
f 419//419 434//434 432//432
f 419//419 432//432 430//430
f 430//430 432//432 3//3
f 430//430 3//3 24//24
f 435//435 42//42 40//40
f 262//262 412//412 413//413
f 413//413 412//412 436//436
f 413//413 436//436 433//433
f 433//433 436//436 437//437
f 433//433 437//437 434//434
f 434//434 437//437 435//435
f 434//434 435//435 432//432
f 432//432 435//435 40//40
f 432//432 40//40 38//38
f 265//265 411//411 412//412
f 412//412 411//411 438//438
f 412//412 438//438 436//436
f 436//436 438//438 439//439
f 436//436 439//439 437//437
f 437//437 439//439 440//440
f 437//437 440//440 435//435
f 435//435 440//440 44//44
f 435//435 44//44 42//42
f 264//264 410//410 411//411
f 411//411 410//410 422//422
f 411//411 422//422 438//438
f 438//438 422//422 424//424
f 438//438 424//424 439//439
f 439//439 424//424 428//428
f 439//439 428//428 440//440
f 440//440 428//428 48//48
f 440//440 48//48 44//44
f 23//23 22//22 407//407
f 407//407 22//22 21//21
f 407//407 21//21 427//427
f 427//427 21//21 52//52
f 427//427 52//52 428//428
f 428//428 52//52 53//53
f 428//428 53//53 48//48
f 441//441 442//442 443//443
f 442//442 239//239 242//242
f 444//444 445//445 446//446
f 6//6 447//447 448//448
f 442//442 242//242 443//443
f 443//443 242//242 241//241
f 443//443 241//241 449//449
f 449//449 241//241 247//247
f 449//449 247//247 450//450
f 450//450 247//247 246//246
f 450//450 246//246 451//451
f 451//451 246//246 244//244
f 451//451 244//244 452//452
f 244//244 243//243 452//452
f 452//452 243//243 248//248
f 452//452 248//248 453//453
f 453//453 248//248 250//250
f 453//453 250//250 454//454
f 455//455 456//456 457//457
f 457//457 456//456 458//458
f 457//457 458//458 459//459
f 459//459 458//458 460//460
f 459//459 460//460 461//461
f 461//461 460//460 462//462
f 461//461 462//462 463//463
f 463//463 462//462 464//464
f 463//463 464//464 465//465
f 465//465 464//464 466//466
f 465//465 466//466 467//467
f 467//467 466//466 468//468
f 467//467 468//468 469//469
f 469//469 468//468 470//470
f 469//469 470//470 471//471
f 471//471 470//470 448//448
f 471//471 448//448 472//472
f 473//473 448//448 447//447
f 250//250 251//251 454//454
f 454//454 251//251 253//253
f 454//454 253//253 474//474
f 474//474 253//253 254//254
f 474//474 254//254 475//475
f 475//475 254//254 256//256
f 475//475 256//256 415//415
f 415//415 417//417 475//475
f 475//475 417//417 455//455
f 475//475 455//455 474//474
f 474//474 455//455 457//457
f 474//474 457//457 454//454
f 454//454 457//457 459//459
f 454//454 459//459 453//453
f 453//453 459//459 461//461
f 453//453 461//461 452//452
f 452//452 461//461 463//463
f 452//452 463//463 451//451
f 451//451 463//463 465//465
f 451//451 465//465 450//450
f 450//450 465//465 467//467
f 450//450 467//467 449//449
f 449//449 467//467 469//469
f 449//449 469//469 443//443
f 443//443 469//469 471//471
f 443//443 471//471 476//476
f 476//476 471//471 477//477
f 417//417 418//418 455//455
f 455//455 418//418 420//420
f 455//455 420//420 456//456
f 456//456 420//420 429//429
f 456//456 429//429 431//431
f 6//6 448//448 36//36
f 36//36 448//448 470//470
f 36//36 470//470 33//33
f 33//33 470//470 468//468
f 33//33 468//468 34//34
f 34//34 468//468 466//466
f 34//34 466//466 35//35
f 35//35 466//466 464//464
f 35//35 464//464 30//30
f 30//30 464//464 462//462
f 30//30 462//462 31//31
f 31//31 462//462 460//460
f 31//31 460//460 32//32
f 32//32 460//460 458//458
f 32//32 458//458 29//29
f 29//29 458//458 456//456
f 29//29 456//456 28//28
f 28//28 456//456 431//431
f 28//28 431//431 27//27
f 238//238 239//239 478//478
f 478//478 239//239 442//442
f 478//478 442//442 479//479
f 479//479 442//442 480//480
f 480//480 442//442 441//441
f 480//480 481//481 482//482
f 482//482 481//481 483//483
f 482//482 476//476 484//484
f 484//484 476//476 485//485
f 485//485 476//476 477//477
f 485//485 473//473 486//486
f 486//486 473//473 487//487
f 487//487 473//473 447//447
f 487//487 447//447 488//488
f 488//488 447//447 6//6
f 488//488 6//6 5//5
f 121//121 123//123 489//489
f 121//121 489//489 490//490
f 491//491 492//492 493//493
f 491//491 493//493 494//494
f 495//495 496//496 236//236
f 495//495 236//236 238//238
f 491//491 494//494 497//497
f 121//121 490//490 498//498
f 479//479 499//499 478//478
f 478//478 499//499 495//495
f 478//478 495//495 238//238
f 480//480 500//500 479//479
f 479//479 500//500 501//501
f 479//479 501//501 499//499
f 480//480 482//482 500//500
f 500//500 482//482 484//484
f 500//500 484//484 502//502
f 502//502 484//484 485//485
f 502//502 485//485 503//503
f 503//503 485//485 486//486
f 503//503 486//486 504//504
f 486//486 487//487 504//504
f 504//504 487//487 488//488
f 504//504 488//488 505//505
f 505//505 488//488 5//5
f 505//505 5//5 506//506
f 491//491 497//497 507//507
f 507//507 497//497 508//508
f 507//507 508//508 509//509
f 509//509 508//508 510//510
f 509//509 510//510 511//511
f 511//511 510//510 512//512
f 511//511 512//512 513//513
f 513//513 512//512 514//514
f 513//513 514//514 515//515
f 515//515 514//514 516//516
f 515//515 516//516 517//517
f 517//517 516//516 518//518
f 517//517 518//518 519//519
f 519//519 518//518 520//520
f 519//519 520//520 521//521
f 121//121 498//498 117//117
f 117//117 498//498 522//522
f 117//117 522//522 118//118
f 118//118 522//522 523//523
f 118//118 523//523 129//129
f 129//129 523//523 524//524
f 129//129 524//524 128//128
f 128//128 524//524 525//525
f 128//128 525//525 130//130
f 130//130 525//525 526//526
f 130//130 526//526 131//131
f 131//131 526//526 527//527
f 131//131 527//527 133//133
f 133//133 527//527 528//528
f 133//133 528//528 134//134
f 506//506 5//5 4//4
f 521//521 520//520 529//529
f 134//134 528//528 530//530
f 506//506 4//4 531//531
f 531//531 4//4 26//26
f 531//531 26//26 532//532
f 532//532 26//26 2//2
f 532//532 2//2 533//533
f 134//134 530//530 136//136
f 136//136 530//530 534//534
f 136//136 534//534 137//137
f 137//137 534//534 535//535
f 137//137 535//535 115//115
f 2//2 1//1 533//533
f 533//533 1//1 37//37
f 533//533 37//37 536//536
f 536//536 37//37 39//39
f 536//536 39//39 537//537
f 537//537 39//39 41//41
f 537//537 41//41 538//538
f 538//538 41//41 43//43
f 538//538 43//43 539//539
f 539//539 43//43 45//45
f 539//539 45//45 540//540
f 115//115 535//535 116//116
f 116//116 535//535 541//541
f 116//116 541//541 108//108
f 108//108 541//541 542//542
f 108//108 542//542 110//110
f 110//110 542//542 543//543
f 110//110 543//543 112//112
f 112//112 543//543 544//544
f 112//112 544//544 113//113
f 113//113 544//544 545//545
f 113//113 545//545 101//101
f 101//101 545//545 546//546
f 101//101 546//546 103//103
f 103//103 546//546 547//547
f 103//103 547//547 105//105
f 105//105 547//547 548//548
f 105//105 548//548 106//106
f 45//45 49//49 540//540
f 540//540 49//49 47//47
f 540//540 47//47 549//549
f 549//549 47//47 46//46
f 549//549 46//46 550//550
f 550//550 46//46 51//51
f 550//550 51//51 551//551
f 551//551 51//51 50//50
f 551//551 50//50 552//552
f 552//552 50//50 20//20
f 552//552 20//20 553//553
f 20//20 9//9 553//553
f 553//553 9//9 18//18
f 553//553 18//18 554//554
f 554//554 18//18 19//19
f 554//554 19//19 555//555
f 521//521 529//529 556//556
f 556//556 529//529 557//557
f 556//556 557//557 558//558
f 558//558 557//557 559//559
f 558//558 559//559 560//560
f 560//560 559//559 561//561
f 560//560 561//561 562//562
f 562//562 561//561 563//563
f 562//562 563//563 564//564
f 564//564 563//563 565//565
f 564//564 565//565 566//566
f 566//566 565//565 567//567
f 566//566 567//567 568//568
f 568//568 567//567 569//569
f 568//568 569//569 570//570
f 570//570 569//569 571//571
f 570//570 571//571 572//572
f 572//572 571//571 573//573
f 572//572 573//573 574//574
f 574//574 573//573 575//575
f 574//574 575//575 576//576
f 576//576 575//575 577//577
f 576//576 577//577 578//578
f 578//578 577//577 579//579
f 578//578 579//579 580//580
f 580//580 579//579 581//581
f 580//580 581//581 582//582
f 582//582 581//581 583//583
f 582//582 583//583 584//584
f 106//106 548//548 94//94
f 94//94 548//548 585//585
f 94//94 585//585 95//95
f 95//95 585//585 586//586
f 95//95 586//586 96//96
f 96//96 586//586 587//587
f 96//96 587//587 98//98
f 98//98 587//587 588//588
f 98//98 588//588 99//99
f 584//584 583//583 589//589
f 99//99 588//588 590//590
f 361//361 591//591 359//359
f 359//359 591//591 555//555
f 359//359 555//555 19//19
f 362//362 592//592 361//361
f 361//361 592//592 593//593
f 361//361 593//593 591//591
f 362//362 364//364 592//592
f 592//592 364//364 366//366
f 592//592 366//366 594//594
f 594//594 366//366 367//367
f 594//594 367//367 595//595
f 595//595 367//367 369//369
f 595//595 369//369 596//596
f 369//369 370//370 596//596
f 596//596 370//370 372//372
f 596//596 372//372 597//597
f 597//597 372//372 282//282
f 597//597 282//282 598//598
f 584//584 589//589 599//599
f 599//599 589//589 600//600
f 599//599 600//600 601//601
f 601//601 600//600 602//602
f 601//601 602//602 603//603
f 603//603 602//602 604//604
f 603//603 604//604 605//605
f 605//605 604//604 606//606
f 605//605 606//606 607//607
f 607//607 606//606 608//608
f 607//607 608//608 609//609
f 609//609 608//608 610//610
f 609//609 610//610 611//611
f 611//611 610//610 612//612
f 611//611 612//612 613//613
f 99//99 590//590 82//82
f 82//82 590//590 614//614
f 82//82 614//614 83//83
f 83//83 614//614 615//615
f 83//83 615//615 84//84
f 84//84 615//615 616//616
f 84//84 616//616 79//79
f 79//79 616//616 617//617
f 79//79 617//617 76//76
f 76//76 617//617 618//618
f 76//76 618//618 77//77
f 77//77 618//618 619//619
f 77//77 619//619 91//91
f 91//91 619//619 620//620
f 91//91 620//620 89//89
f 282//282 283//283 621//621
f 282//282 621//621 598//598
f 612//612 622//622 623//623
f 612//612 623//623 613//613
f 620//620 624//624 87//87
f 620//620 87//87 89//89
f 72//72 74//74 625//625
f 72//72 625//625 626//626
f 627//627 628//628 629//629
f 627//627 629//629 630//630
f 631//631 632//632 140//140
f 631//631 140//140 139//139
f 625//625 74//74 198//198
f 629//629 628//628 633//633
f 140//140 632//632 634//634
f 625//625 198//198 635//635
f 635//635 198//198 196//196
f 635//635 196//196 636//636
f 636//636 196//196 195//195
f 636//636 195//195 637//637
f 637//637 195//195 203//203
f 637//637 203//203 638//638
f 203//203 202//202 638//638
f 639//639 202//202 200//200
f 639//639 200//200 640//640
f 640//640 200//200 199//199
f 640//640 199//199 641//641
f 641//641 199//199 208//208
f 641//641 208//208 642//642
f 208//208 207//207 642//642
f 642//642 207//207 205//205
f 642//642 205//205 643//643
f 643//643 205//205 204//204
f 643//643 204//204 644//644
f 644//644 204//204 209//209
f 644//644 209//209 645//645
f 645//645 209//209 211//211
f 645//645 211//211 646//646
f 646//646 211//211 214//214
f 646//646 214//214 647//647
f 214//214 213//213 647//647
f 647//647 213//213 212//212
f 647//647 212//212 648//648
f 648//648 212//212 68//68
f 648//648 68//68 649//649
f 629//629 633//633 650//650
f 650//650 633//633 651//651
f 650//650 651//651 652//652
f 652//652 651//651 637//637
f 652//652 637//637 653//653
f 653//653 637//637 638//638
f 653//653 638//638 654//654
f 654//654 638//638 655//655
f 654//654 655//655 656//656
f 656//656 655//655 657//657
f 656//656 657//657 658//658
f 658//658 657//657 659//659
f 658//658 659//659 660//660
f 660//660 659//659 661//661
f 660//660 661//661 662//662
f 662//662 661//661 663//663
f 662//662 663//663 664//664
f 664//664 663//663 665//665
f 664//664 665//665 666//666
f 666//666 665//665 667//667
f 666//666 667//667 668//668
f 668//668 667//667 669//669
f 668//668 669//669 670//670
f 670//670 669//669 671//671
f 670//670 671//671 672//672
f 672//672 671//671 673//673
f 672//672 673//673 674//674
f 140//140 634//634 145//145
f 145//145 634//634 675//675
f 145//145 675//675 143//143
f 143//143 675//675 676//676
f 143//143 676//676 144//144
f 144//144 676//676 677//677
f 144//144 677//677 146//146
f 146//146 677//677 678//678
f 146//146 678//678 147//147
f 147//147 678//678 679//679
f 147//147 679//679 148//148
f 148//148 679//679 680//680
f 148//148 680//680 149//149
f 149//149 680//680 681//681
f 149//149 681//681 150//150
f 150//150 681//681 682//682
f 150//150 682//682 151//151
f 151//151 682//682 683//683
f 151//151 683//683 152//152
f 152//152 683//683 684//684
f 152//152 684//684 153//153
f 153//153 684//684 685//685
f 153//153 685//685 154//154
f 154//154 685//685 686//686
f 154//154 686//686 155//155
f 155//155 686//686 687//687
f 155//155 687//687 156//156
f 674//674 673//673 688//688
f 649//649 68//68 67//67
f 649//649 67//67 689//689
f 689//689 67//67 65//65
f 689//689 65//65 690//690
f 690//690 65//65 64//64
f 690//690 64//64 691//691
f 691//691 64//64 71//71
f 691//691 71//71 692//692
f 692//692 71//71 70//70
f 692//692 70//70 693//693
f 693//693 70//70 69//69
f 693//693 69//69 694//694
f 694//694 69//69 63//63
f 694//694 63//63 695//695
f 695//695 63//63 62//62
f 695//695 62//62 696//696
f 696//696 62//62 61//61
f 696//696 61//61 697//697
f 697//697 61//61 60//60
f 697//697 60//60 698//698
f 698//698 60//60 59//59
f 698//698 59//59 699//699
f 674//674 688//688 700//700
f 700//700 688//688 701//701
f 700//700 701//701 702//702
f 702//702 701//701 703//703
f 702//702 703//703 704//704
f 704//704 703//703 705//705
f 704//704 705//705 706//706
f 706//706 705//705 707//707
f 706//706 707//707 708//708
f 708//708 707//707 709//709
f 708//708 709//709 710//710
f 710//710 709//709 711//711
f 710//710 711//711 712//712
f 712//712 711//711 713//713
f 712//712 713//713 714//714
f 714//714 713//713 715//715
f 714//714 715//715 716//716
f 716//716 715//715 717//717
f 716//716 717//717 718//718
f 718//718 717//717 719//719
f 718//718 719//719 720//720
f 156//156 687//687 157//157
f 157//157 687//687 721//721
f 157//157 721//721 159//159
f 159//159 721//721 722//722
f 159//159 722//722 161//161
f 161//161 722//722 723//723
f 161//161 723//723 163//163
f 163//163 723//723 724//724
f 163//163 724//724 165//165
f 165//165 724//724 725//725
f 165//165 725//725 167//167
f 167//167 725//725 726//726
f 167//167 726//726 173//173
f 173//173 726//726 727//727
f 173//173 727//727 174//174
f 174//174 727//727 728//728
f 174//174 728//728 176//176
f 176//176 728//728 729//729
f 176//176 729//729 178//178
f 178//178 729//729 730//730
f 178//178 730//730 180//180
f 180//180 730//730 731//731
f 180//180 731//731 181//181
f 699//699 59//59 224//224
f 720//720 719//719 732//732
f 181//181 731//731 733//733
f 699//699 224//224 734//734
f 734//734 224//224 223//223
f 734//734 223//223 735//735
f 735//735 223//223 218//218
f 735//735 218//218 736//736
f 736//736 218//218 220//220
f 736//736 220//220 737//737
f 220//220 222//222 737//737
f 737//737 222//222 225//225
f 737//737 225//225 738//738
f 738//738 225//225 216//216
f 738//738 216//216 739//739
f 739//739 216//216 215//215
f 739//739 215//215 740//740
f 740//740 215//215 232//232
f 740//740 232//232 741//741
f 741//741 232//232 231//231
f 741//741 231//231 742//742
f 231//231 230//230 742//742
f 742//742 230//230 226//226
f 742//742 226//226 743//743
f 743//743 226//226 228//228
f 743//743 228//228 744//744
f 744//744 228//228 235//235
f 744//744 235//235 745//745
f 235//235 234//234 745//745
f 745//745 234//234 233//233
f 745//745 233//233 746//746
f 746//746 233//233 54//54
f 746//746 54//54 747//747
f 720//720 732//732 748//748
f 748//748 732//732 749//749
f 748//748 749//749 750//750
f 750//750 749//749 751//751
f 750//750 751//751 752//752
f 752//752 751//751 753//753
f 752//752 753//753 754//754
f 754//754 753//753 755//755
f 754//754 755//755 756//756
f 756//756 755//755 757//757
f 756//756 757//757 758//758
f 758//758 757//757 759//759
f 758//758 759//759 760//760
f 760//760 759//759 761//761
f 760//760 761//761 762//762
f 762//762 761//761 763//763
f 762//762 763//763 764//764
f 764//764 763//763 765//765
f 764//764 765//765 766//766
f 766//766 765//765 767//767
f 766//766 767//767 768//768
f 768//768 767//767 769//769
f 768//768 769//769 770//770
f 770//770 769//769 771//771
f 770//770 771//771 772//772
f 772//772 771//771 773//773
f 772//772 773//773 774//774
f 181//181 733//733 172//172
f 172//172 733//733 775//775
f 172//172 775//775 169//169
f 169//169 775//775 776//776
f 169//169 776//776 170//170
f 170//170 776//776 777//777
f 170//170 777//777 182//182
f 182//182 777//777 778//778
f 182//182 778//778 183//183
f 183//183 778//778 779//779
f 183//183 779//779 184//184
f 184//184 779//779 780//780
f 184//184 780//780 185//185
f 185//185 780//780 781//781
f 185//185 781//781 186//186
f 186//186 781//781 782//782
f 186//186 782//782 187//187
f 187//187 782//782 783//783
f 187//187 783//783 188//188
f 188//188 783//783 784//784
f 188//188 784//784 189//189
f 189//189 784//784 785//785
f 189//189 785//785 190//190
f 190//190 785//785 786//786
f 190//190 786//786 191//191
f 191//191 786//786 787//787
f 191//191 787//787 192//192
f 194//194 192//192 787//787
f 194//194 787//787 788//788
f 789//789 774//774 773//773
f 789//789 773//773 790//790
f 791//791 747//747 54//54
f 791//791 54//54 56//56

