# https://github.com/mikedh/trimesh
v -0.02189800 -0.10236700 0.01918500
v -0.02189800 -0.10236700 0.01918500
v -0.02189800 -0.10236700 0.01918500
v -0.02189800 -0.10236700 0.01918500
v -0.02190400 -0.10237300 0.01918500
v -0.02190400 -0.10237300 0.01918500
v -0.02238100 -0.10373500 0.01907600
v -0.02238100 -0.10373500 0.01907600
v -0.02238100 -0.10373500 0.01907600
v -0.02238100 -0.10373500 0.01907600
v -0.02238100 -0.10373500 0.01907600
v -0.02238100 -0.10373500 0.01907600
v -0.02238100 -0.10373500 0.01907600
v -0.02191500 -0.10237700 0.01918400
v -0.02191500 -0.10237700 0.01918400
v -0.02446800 -0.10349700 0.01909600
v -0.02446800 -0.10349700 0.01909600
v -0.02334300 -0.10221000 0.01919800
v -0.02334300 -0.10221000 0.01919800
v -0.02334300 -0.10221000 0.01919800
v -0.02334300 -0.10221000 0.01919800
v -0.02334300 -0.10221000 0.01919800
v -0.02448400 -0.10349400 0.01909600
v -0.02448400 -0.10349400 0.01909600
v -0.02448400 -0.10349400 0.01909600
v -0.02448400 -0.10349400 0.01909600
v -0.02335600 -0.10219300 0.01919900
v -0.02335600 -0.10219300 0.01919900
v -0.02335600 -0.10219300 0.01919900
v -0.02335600 -0.10219300 0.01919900
v -0.02327200 -0.10088400 0.01930400
v -0.02327200 -0.10088400 0.01930400
v -0.02327200 -0.10088400 0.01930400
v -0.02327200 -0.10088400 0.01930400
v -0.02305500 -0.10067900 0.01932000
v -0.02305500 -0.10067900 0.01932000
v -0.02305500 -0.10067900 0.01932000
v -0.02305500 -0.10067900 0.01932000
v -0.02421900 -0.09970900 0.01939800
v -0.02421900 -0.09970900 0.01939800
v -0.02421900 -0.09970900 0.01939800
v -0.01852900 -0.10277800 0.01915100
v -0.01852900 -0.10277800 0.01915100
v -0.01852900 -0.10277800 0.01915100
v -0.01852900 -0.10277800 0.01915100
v -0.01858800 -0.10275700 0.01915300
v -0.01858800 -0.10275700 0.01915300
v -0.01858800 -0.10275700 0.01915300
v -0.01858700 -0.10416600 0.01904000
v -0.01858700 -0.10416600 0.01904000
v -0.01858700 -0.10416600 0.01904000
v -0.01893300 -0.10412700 0.01904400
v -0.01893300 -0.10412700 0.01904400
v -0.01893300 -0.10412700 0.01904400
v -0.01893300 -0.10412700 0.01904400
v -0.01869500 -0.10274500 0.01915400
v -0.01869500 -0.10274500 0.01915400
v -0.01880100 -0.10273400 0.01915500
v -0.01880100 -0.10273400 0.01915500
v -0.01880100 -0.10273400 0.01915500
v -0.01927900 -0.10408800 0.01904700
v -0.01927900 -0.10408800 0.01904700
v -0.01927900 -0.10408800 0.01904700
v -0.01916100 -0.10269500 0.01915800
v -0.01916100 -0.10269500 0.01915800
v -0.01916100 -0.10269500 0.01915800
v -0.01962500 -0.10404800 0.01905000
v -0.01962500 -0.10404800 0.01905000
v -0.01962500 -0.10404800 0.01905000
v -0.01952100 -0.10265500 0.01916100
v -0.01952100 -0.10265500 0.01916100
v -0.01952100 -0.10265500 0.01916100
v -0.01997100 -0.10400800 0.01905300
v -0.01997100 -0.10400800 0.01905300
v -0.01997100 -0.10400800 0.01905300
v -0.01990500 -0.10261200 0.01916500
v -0.01990500 -0.10261200 0.01916500
v -0.01990500 -0.10261200 0.01916500
v -0.02031500 -0.10396900 0.01905700
v -0.02031500 -0.10396900 0.01905700
v -0.02031500 -0.10396900 0.01905700
v -0.02028900 -0.10256900 0.01916800
v -0.02028900 -0.10256900 0.01916800
v -0.02028900 -0.10256900 0.01916800
v -0.02065900 -0.10393100 0.01906000
v -0.02065900 -0.10393100 0.01906000
v -0.02065900 -0.10393100 0.01906000
v -0.02047100 -0.10254900 0.01917000
v -0.02047100 -0.10254900 0.01917000
v -0.02047100 -0.10254900 0.01917000
v -0.02100500 -0.10389100 0.01906300
v -0.02100500 -0.10389100 0.01906300
v -0.02100500 -0.10389100 0.01906300
v -0.02065300 -0.10252900 0.01917200
v -0.02065300 -0.10252900 0.01917200
v -0.02065300 -0.10252900 0.01917200
v -0.02135100 -0.10385100 0.01906600
v -0.02135100 -0.10385100 0.01906600
v -0.02135100 -0.10385100 0.01906600
v -0.02070200 -0.10251800 0.01917300
v -0.02070200 -0.10251800 0.01917300
v -0.02070200 -0.10251800 0.01917300
v -0.02169500 -0.10381200 0.01907000
v -0.02169500 -0.10381200 0.01907000
v -0.02169500 -0.10381200 0.01907000
v -0.02071900 -0.10250400 0.01917400
v -0.02071900 -0.10250400 0.01917400
v -0.02071900 -0.10250400 0.01917400
v -0.02071900 -0.10250400 0.01917400
v -0.02071900 -0.10250400 0.01917400
v -0.02203900 -0.10377300 0.01907300
v -0.02203900 -0.10377300 0.01907300
v -0.02191000 -0.10133400 0.01926700
v -0.02191000 -0.10133400 0.01926700
v -0.02191000 -0.10133400 0.01926700
v -0.02191000 -0.10133400 0.01926700
v -0.02086200 -0.10066500 0.01932100
v -0.02086200 -0.10066500 0.01932100
v -0.02086200 -0.10066500 0.01932100
v -0.02202200 -0.10099800 0.01929400
v -0.02202200 -0.10099800 0.01929400
v -0.02202200 -0.10099800 0.01929400
v -0.02102300 -0.10029000 0.01935100
v -0.02102300 -0.10029000 0.01935100
v -0.02102300 -0.10029000 0.01935100
v -0.02226800 -0.10074100 0.01931500
v -0.02226800 -0.10074100 0.01931500
v -0.02226800 -0.10074100 0.01931500
v -0.02139100 -0.09979900 0.01939000
v -0.02139100 -0.09979900 0.01939000
v -0.02139100 -0.09979900 0.01939000
v -0.02249700 -0.10063700 0.01932300
v -0.02249700 -0.10063700 0.01932300
v -0.02249700 -0.10063700 0.01932300
v -0.02188900 -0.09944200 0.01941900
v -0.02188900 -0.09944200 0.01941900
v -0.02188900 -0.09944200 0.01941900
v -0.02274500 -0.10060500 0.01932600
v -0.02274500 -0.10060500 0.01932600
v -0.02274500 -0.10060500 0.01932600
v -0.02255600 -0.09922100 0.01943600
v -0.02255600 -0.09922100 0.01943600
v -0.02255600 -0.09922100 0.01943600
v -0.02290600 -0.10062100 0.01932500
v -0.02290600 -0.10062100 0.01932500
v -0.02290600 -0.10062100 0.01932500
v -0.02325800 -0.09921200 0.01943700
v -0.02325800 -0.09921200 0.01943700
v -0.02325800 -0.09921200 0.01943700
v -0.02378600 -0.09936900 0.01942500
v -0.02378600 -0.09936900 0.01942500
v -0.02342000 -0.10361600 0.01908600
v -0.02342000 -0.10361600 0.01908600
v -0.02342000 -0.10361600 0.01908600
v -0.02342000 -0.10361600 0.01908600
v -0.02329800 -0.10222500 0.01919700
v -0.02329800 -0.10222500 0.01919700
v -0.02329800 -0.10222500 0.01919700
v -0.02373400 -0.10358000 0.01908900
v -0.02373400 -0.10358000 0.01908900
v -0.02373400 -0.10358000 0.01908900
v -0.02331500 -0.10222200 0.01919700
v -0.02331500 -0.10222200 0.01919700
v -0.02331500 -0.10222200 0.01919700
v -0.02404800 -0.10354400 0.01909200
v -0.02404800 -0.10354400 0.01909200
v -0.02404800 -0.10354400 0.01909200
v -0.02425800 -0.10352000 0.01909400
v -0.02425800 -0.10352000 0.01909400
v -0.01845800 -0.10410500 0.01904500
v -0.01846900 -0.10284300 0.01914600
v -0.01846900 -0.10284300 0.01914600
v -0.01849000 -0.10414800 0.01904200
v -0.01849000 -0.10414800 0.01904200
v -0.01849000 -0.10414800 0.01904200
v -0.01851800 -0.10416500 0.01904100
v -0.01851800 -0.10416500 0.01904100
v -0.02072800 -0.10247600 0.01917600
v -0.02072800 -0.10247600 0.01917600
v -0.02072800 -0.10247600 0.01917600
v -0.02189400 -0.10235100 0.01918600
v -0.02189400 -0.10235100 0.01918600
v -0.02189400 -0.10235100 0.01918600
v -0.02073100 -0.10244200 0.01917900
v -0.02073100 -0.10244200 0.01917900
v -0.02073100 -0.10244200 0.01917900
v -0.02073100 -0.10244200 0.01917900
v -0.02189300 -0.10231800 0.01918900
v -0.02189300 -0.10231800 0.01918900
v -0.02440400 -0.09997400 0.01937700
v -0.02440400 -0.09997400 0.01937700
v -0.02453100 -0.10027100 0.01935300
v -0.02453100 -0.10027100 0.01935300
v -0.02453100 -0.10027100 0.01935300
v -0.02333000 -0.10100500 0.01929400
v -0.02333000 -0.10100500 0.01929400
v -0.02333000 -0.10100500 0.01929400
v -0.02460300 -0.10061500 0.01932600
v -0.02460300 -0.10061500 0.01932600
v -0.02460300 -0.10061500 0.01932600
v -0.02336700 -0.10123000 0.01927600
v -0.02336700 -0.10123000 0.01927600
v -0.02336700 -0.10123000 0.01927600
v -0.02462100 -0.10096500 0.01929800
v -0.02462100 -0.10096500 0.01929800
v -0.02462100 -0.10096500 0.01929800
v -0.02336200 -0.10215500 0.01920200
v -0.02336200 -0.10215500 0.01920200
v -0.02336200 -0.10215500 0.01920200
v -0.02460100 -0.10335200 0.01910700
v -0.02460100 -0.10335200 0.01910700
v -0.02460100 -0.10335200 0.01910700
v -0.02458600 -0.10342700 0.01910100
v -0.02458600 -0.10342700 0.01910100
v -0.02458600 -0.10342700 0.01910100
v -0.02455300 -0.10346800 0.01909800
v -0.02195300 -0.10237500 0.01918400
v -0.02195300 -0.10237500 0.01918400
v -0.02231700 -0.10233400 0.01918800
v -0.02231700 -0.10233400 0.01918800
v -0.02231700 -0.10233400 0.01918800
v -0.02272300 -0.10369600 0.01907900
v -0.02272300 -0.10369600 0.01907900
v -0.02272300 -0.10369600 0.01907900
v -0.02268200 -0.10229300 0.01919100
v -0.02268200 -0.10229300 0.01919100
v -0.02268200 -0.10229300 0.01919100
v -0.02299000 -0.10225900 0.01919400
v -0.02299000 -0.10225900 0.01919400
v -0.02189500 -0.10208700 0.01920700
v -0.02189500 -0.10208700 0.01920700
v -0.02189500 -0.10208700 0.01920700
v -0.02073500 -0.10187300 0.01922400
v -0.02073500 -0.10187300 0.01922400
v -0.02073500 -0.10187300 0.01922400
v -0.02189700 -0.10183000 0.01922800
v -0.02189700 -0.10183000 0.01922800
v -0.02189700 -0.10183000 0.01922800
v -0.02074700 -0.10130500 0.01927000
v -0.02074700 -0.10130500 0.01927000
v -0.02074700 -0.10130500 0.01927000
v -0.02189800 -0.10159500 0.01924700
v -0.02189800 -0.10159500 0.01924700
v -0.02189800 -0.10159500 0.01924700
v -0.02075500 -0.10118300 0.01927900
v -0.02075500 -0.10118300 0.01927900
v -0.02075500 -0.10118300 0.01927900
v -0.02077000 -0.10106100 0.01928900
v -0.02077000 -0.10106100 0.01928900
vn 0.00033300 -0.07977200 0.99681300
vn 0.00027700 -0.07956800 0.99682900
vn 0.00031400 -0.07929500 0.99685100
vn 0.00029500 -0.07959100 0.99682800
vn -0.00000700 -0.07941800 0.99684100
vn 0.00039300 -0.08007900 0.99678800
vn -0.00000700 -0.07941900 0.99684100
vn 0.00039200 -0.08007900 0.99678800
vn 0.00027700 -0.07956800 0.99682900
vn 0.00023700 -0.07956000 0.99683000
vn 0.00042500 -0.07968000 0.99682000
vn 0.00033000 -0.07956600 0.99683000
vn 0.00030900 -0.07961000 0.99682600
vn 0.00042500 -0.07968000 0.99682000
vn -0.00000700 -0.07941900 0.99684100
vn 0.00017600 -0.07952500 0.99683300
vn 0.00028900 -0.07960700 0.99682600
vn 0.00023300 -0.07950000 0.99683500
vn 0.00054700 -0.07970900 0.99681800
vn 0.00017600 -0.07952500 0.99683300
vn 0.00028900 -0.07960700 0.99682600
vn 0.00025300 -0.07960400 0.99682600
vn 0.00027600 -0.07970800 0.99681800
vn 0.00020500 -0.07950000 0.99683500
vn 0.00023300 -0.07950000 0.99683500
vn 0.00017600 -0.07952500 0.99683300
vn 0.00037700 -0.07973700 0.99681600
vn 0.00052700 -0.07982900 0.99680800
vn 0.00023300 -0.07950000 0.99683500
vn 0.00020500 -0.07950000 0.99683500
vn 0.00023300 -0.07969700 0.99681900
vn 0.00033700 -0.07958500 0.99682800
vn 0.00031700 -0.07956800 0.99682900
vn 0.00032200 -0.07960100 0.99682700
vn 0.00038000 -0.07954100 0.99683200
vn 0.00033700 -0.07958500 0.99682800
vn 0.00009700 -0.07960900 0.99682600
vn 0.00029500 -0.07958100 0.99682800
vn 0.00033700 -0.07958500 0.99682800
vn 0.00038000 -0.07954100 0.99683200
vn 0.00032200 -0.07960100 0.99682700
vn 0.00043700 -0.07957800 0.99682900
vn 0.00029200 -0.07959700 0.99682700
vn 0.00025100 -0.07958400 0.99682800
vn 0.00050300 -0.07961200 0.99682600
vn 0.00050300 -0.07961200 0.99682600
vn 0.00030100 -0.07958300 0.99682800
vn 0.00031500 -0.07959700 0.99682700
vn 0.00031500 -0.07959700 0.99682700
vn 0.00050300 -0.07961200 0.99682600
vn 0.00025100 -0.07958400 0.99682800
vn 0.00030100 -0.07958300 0.99682800
vn 0.00028000 -0.07957600 0.99682900
vn 0.00031200 -0.07957400 0.99682900
vn 0.00031500 -0.07959700 0.99682700
vn 0.00031200 -0.07957400 0.99682900
vn 0.00030100 -0.07958300 0.99682800
vn 0.00028000 -0.07957600 0.99682900
vn 0.00031200 -0.07957400 0.99682900
vn 0.00031500 -0.07957900 0.99682800
vn 0.00032100 -0.07958400 0.99682800
vn 0.00031500 -0.07957900 0.99682800
vn 0.00028000 -0.07957600 0.99682900
vn 0.00032100 -0.07958400 0.99682800
vn 0.00037300 -0.07959900 0.99682700
vn 0.00031500 -0.07957900 0.99682800
vn 0.00030600 -0.07959600 0.99682700
vn 0.00032100 -0.07958400 0.99682800
vn 0.00037300 -0.07959900 0.99682700
vn 0.00030600 -0.07959600 0.99682700
vn 0.00037300 -0.07959900 0.99682700
vn 0.00031400 -0.07959900 0.99682700
vn 0.00031800 -0.07959600 0.99682700
vn 0.00031400 -0.07959900 0.99682700
vn 0.00030600 -0.07959600 0.99682700
vn 0.00031800 -0.07959600 0.99682700
vn 0.00028700 -0.07958800 0.99682800
vn 0.00031400 -0.07959900 0.99682700
vn 0.00032900 -0.07958900 0.99682800
vn 0.00031800 -0.07959600 0.99682700
vn 0.00028700 -0.07958800 0.99682800
vn 0.00032900 -0.07958900 0.99682800
vn 0.00028700 -0.07958800 0.99682800
vn 0.00024900 -0.07956800 0.99682900
vn 0.00017600 -0.07956300 0.99683000
vn 0.00024900 -0.07956800 0.99682900
vn 0.00032900 -0.07958900 0.99682800
vn 0.00017600 -0.07956300 0.99683000
vn 0.00043000 -0.07965900 0.99682200
vn 0.00024900 -0.07956800 0.99682900
vn 0.00043000 -0.07965900 0.99682200
vn 0.00032200 -0.07963500 0.99682400
vn 0.00017600 -0.07956300 0.99683000
vn 0.00043000 -0.07965900 0.99682200
vn 0.00034200 -0.07956900 0.99682900
vn 0.00032200 -0.07963500 0.99682400
vn 0.00032100 -0.07960200 0.99682700
vn 0.00034200 -0.07956900 0.99682900
vn 0.00032200 -0.07963500 0.99682400
vn 0.00032100 -0.07960200 0.99682700
vn 0.00032500 -0.07947300 0.99683700
vn 0.00034200 -0.07956900 0.99682900
vn 0.00032500 -0.07962300 0.99682500
vn 0.00032100 -0.07960200 0.99682700
vn 0.00032400 -0.07947300 0.99683700
vn 0.00032400 -0.07947400 0.99683700
vn 0.00030900 -0.07961000 0.99682600
vn 0.00032500 -0.07962300 0.99682500
vn 0.00029500 -0.07959100 0.99682800
vn 0.00027700 -0.07956800 0.99682900
vn 0.00030900 -0.07961000 0.99682600
vn 0.00032500 -0.07962300 0.99682500
vn 0.00025700 -0.07950100 0.99683500
vn 0.00037700 -0.07967900 0.99682000
vn 0.00032300 -0.07977600 0.99681300
vn 0.00030100 -0.07961200 0.99682600
vn 0.00037700 -0.07967900 0.99682000
vn 0.00025700 -0.07950100 0.99683500
vn 0.00036800 -0.07964900 0.99682300
vn 0.00037700 -0.07967900 0.99682000
vn 0.00026900 -0.07950200 0.99683500
vn 0.00036800 -0.07964900 0.99682300
vn 0.00026900 -0.07950200 0.99683500
vn 0.00036800 -0.07964900 0.99682300
vn 0.00028600 -0.07955300 0.99683100
vn 0.00035500 -0.07962700 0.99682500
vn 0.00026900 -0.07950200 0.99683500
vn 0.00028600 -0.07955300 0.99683100
vn 0.00035500 -0.07962700 0.99682500
vn 0.00028600 -0.07955300 0.99683100
vn 0.00035200 -0.07961000 0.99682600
vn 0.00035500 -0.07962700 0.99682500
vn 0.00019700 -0.07954600 0.99683100
vn 0.00035200 -0.07961000 0.99682600
vn 0.00019700 -0.07954600 0.99683100
vn 0.00035200 -0.07961000 0.99682600
vn 0.00030200 -0.07961000 0.99682600
vn 0.00030200 -0.07961000 0.99682600
vn 0.00019700 -0.07954600 0.99683100
vn 0.00014200 -0.07954000 0.99683200
vn 0.00030200 -0.07961000 0.99682600
vn 0.00014200 -0.07954000 0.99683200
vn 0.00023800 -0.07957400 0.99682900
vn 0.00014200 -0.07954000 0.99683200
vn 0.00023800 -0.07957400 0.99682900
vn 0.00009700 -0.07960900 0.99682600
vn 0.00023800 -0.07957400 0.99682900
vn 0.00029500 -0.07958100 0.99682800
vn 0.00009700 -0.07960900 0.99682600
vn 0.00029500 -0.07958100 0.99682800
vn 0.00038000 -0.07954100 0.99683200
vn 0.00035200 -0.07962200 0.99682500
vn 0.00038400 -0.07963100 0.99682400
vn 0.00024600 -0.07958900 0.99682800
vn 0.00023500 -0.07957200 0.99682900
vn 0.00038400 -0.07963100 0.99682400
vn 0.00035200 -0.07962200 0.99682500
vn 0.00042300 -0.07970100 0.99681900
vn 0.00035200 -0.07962200 0.99682500
vn 0.00042300 -0.07970100 0.99681900
vn 0.00034700 -0.07962800 0.99682500
vn 0.00042300 -0.07970100 0.99681900
vn 0.00034700 -0.07962800 0.99682500
vn 0.00054700 -0.07970900 0.99681800
vn 0.00034700 -0.07962800 0.99682500
vn 0.00025300 -0.07960400 0.99682600
vn 0.00054700 -0.07970900 0.99681800
vn 0.00025300 -0.07960400 0.99682600
vn 0.00028900 -0.07960700 0.99682600
vn 0.00033500 -0.07958900 0.99682800
vn 0.00029200 -0.07959700 0.99682700
vn 0.00033500 -0.07958900 0.99682800
vn 0.00033500 -0.07958900 0.99682800
vn 0.00043700 -0.07957800 0.99682900
vn 0.00029200 -0.07959700 0.99682700
vn 0.00043700 -0.07957800 0.99682900
vn 0.00025100 -0.07958400 0.99682800
vn 0.00030200 -0.07948700 0.99683600
vn 0.00031400 -0.07929500 0.99685100
vn 0.00029500 -0.07959100 0.99682800
vn 0.00030200 -0.07948700 0.99683600
vn 0.00031400 -0.07929500 0.99685100
vn 0.00028300 -0.07956400 0.99683000
vn 0.00028300 -0.07956400 0.99683000
vn 0.00030200 -0.07948700 0.99683600
vn 0.00033700 -0.07958200 0.99682800
vn 0.00031600 -0.07964500 0.99682300
vn 0.00028300 -0.07956400 0.99683000
vn 0.00033700 -0.07958200 0.99682800
vn 0.00023300 -0.07969700 0.99681900
vn 0.00032200 -0.07960100 0.99682700
vn 0.00031700 -0.07956800 0.99682900
vn 0.00030900 -0.07956600 0.99683000
vn 0.00023300 -0.07969700 0.99681900
vn 0.00031700 -0.07956800 0.99682900
vn 0.00030900 -0.07956600 0.99683000
vn 0.00027500 -0.07965000 0.99682300
vn 0.00027500 -0.07965000 0.99682300
vn 0.00030900 -0.07956600 0.99683000
vn 0.00031200 -0.07957500 0.99682900
vn 0.00031200 -0.07957500 0.99682900
vn 0.00031700 -0.07957000 0.99682900
vn 0.00027500 -0.07965000 0.99682300
vn 0.00031200 -0.07957500 0.99682900
vn 0.00031700 -0.07957000 0.99682900
vn 0.00029100 -0.07959400 0.99682700
vn 0.00031700 -0.07957000 0.99682900
vn 0.00029100 -0.07959400 0.99682700
vn 0.00052700 -0.07982900 0.99680800
vn 0.00029100 -0.07959400 0.99682700
vn 0.00052700 -0.07982900 0.99680800
vn 0.00037700 -0.07973700 0.99681600
vn 0.00020500 -0.07950000 0.99683500
vn 0.00037700 -0.07973700 0.99681600
vn 0.00027600 -0.07970800 0.99681800
vn 0.00027600 -0.07970800 0.99681800
vn 0.00023700 -0.07956000 0.99683000
vn 0.00042500 -0.07968000 0.99682000
vn 0.00041000 -0.07958400 0.99682800
vn 0.00023700 -0.07956000 0.99683000
vn 0.00033000 -0.07956600 0.99683000
vn 0.00033000 -0.07956600 0.99683000
vn 0.00024600 -0.07958900 0.99682800
vn 0.00041000 -0.07958400 0.99682800
vn 0.00041000 -0.07958400 0.99682800
vn 0.00024600 -0.07958900 0.99682800
vn 0.00023500 -0.07957200 0.99682900
vn 0.00023500 -0.07957200 0.99682900
vn 0.00038400 -0.07963100 0.99682400
vn 0.00033700 -0.07958200 0.99682800
vn 0.00031600 -0.07964500 0.99682300
vn 0.00030100 -0.07955700 0.99683000
vn 0.00031600 -0.07964500 0.99682300
vn 0.00030100 -0.07955700 0.99683000
vn 0.00029700 -0.07953500 0.99683200
vn 0.00030100 -0.07955700 0.99683000
vn 0.00029700 -0.07953500 0.99683200
vn 0.00028700 -0.07951200 0.99683400
vn 0.00029700 -0.07953500 0.99683200
vn 0.00028700 -0.07951200 0.99683400
vn 0.00033700 -0.07971500 0.99681800
vn 0.00030100 -0.07961200 0.99682600
vn 0.00028700 -0.07951200 0.99683400
vn 0.00033700 -0.07971500 0.99681800
vn 0.00033700 -0.07971500 0.99681800
vn 0.00030100 -0.07961200 0.99682600
vn 0.00032300 -0.07977600 0.99681300
vn 0.00032300 -0.07977600 0.99681300
vn 0.00025700 -0.07950100 0.99683500
f 1//1 6//6 8//8
f 7//7 5//5 15//15
f 16//16 20//20 26//26
f 25//25 18//18 29//29
f 32//32 36//36 39//39
f 45//45 46//46 50//50
f 49//49 48//48 55//55
f 47//47 57//57 52//52
f 54//54 56//56 59//59
f 53//53 58//58 63//63
f 62//62 60//60 66//66
f 61//61 64//64 68//68
f 69//69 65//65 71//71
f 67//67 70//70 75//75
f 74//74 72//72 78//78
f 73//73 76//76 80//80
f 81//81 77//77 83//83
f 79//79 82//82 87//87
f 86//86 84//84 90//90
f 85//85 88//88 93//93
f 91//91 89//89 94//94
f 92//92 96//96 99//99
f 98//98 95//95 102//102
f 97//97 100//100 104//104
f 105//105 101//101 106//106
f 103//103 108//108 112//112
f 111//111 107//107 13//13
f 114//114 117//117 120//120
f 122//122 119//119 124//124
f 121//121 123//123 127//127
f 128//128 125//125 130//130
f 126//126 129//129 132//132
f 134//134 131//131 136//136
f 133//133 135//135 139//139
f 138//138 137//137 141//141
f 140//140 142//142 144//144
f 145//145 143//143 147//147
f 146//146 149//149 37//37
f 38//38 148//148 150//150
f 35//35 151//151 40//40
f 152//152 157//157 159//159
f 160//160 158//158 162//162
f 161//161 163//163 165//165
f 167//167 164//164 19//19
f 166//166 22//22 168//168
f 169//169 21//21 17//17
f 170//170 172//172 173//173
f 175//175 171//171 43//43
f 174//174 42//42 176//176
f 177//177 44//44 51//51
f 9//9 110//110 2//2
f 4//4 109//109 180//180
f 3//3 179//179 182//182
f 181//181 178//178 185//185
f 183//183 184//184 188//188
f 41//41 191//191 34//34
f 31//31 190//190 194//194
f 33//33 192//192 195//195
f 196//196 193//193 199//199
f 197//197 198//198 203//203
f 201//201 200//200 204//204
f 202//202 205//205 207//207
f 208//208 206//206 210//210
f 209//209 211//211 28//28
f 27//27 212//212 214//214
f 30//30 213//213 24//24
f 23//23 215//215 216//216
f 14//14 218//218 11//11
f 10//10 217//217 220//220
f 12//12 221//221 222//222
f 224//224 219//219 225//225
f 223//223 226//226 154//154
f 155//155 227//227 228//228
f 153//153 229//229 156//156
f 189//189 186//186 230//230
f 231//231 187//187 233//233
f 232//232 234//234 236//236
f 237//237 235//235 239//239
f 238//238 240//240 243//243
f 244//244 241//241 245//245
f 242//242 246//246 116//116
f 115//115 247//247 248//248
f 113//113 249//249 118//118

