# https://github.com/mikedh/trimesh
v -0.02339600 -0.10526900 0.01895400
v -0.02339600 -0.10526900 0.01895400
v -0.02339600 -0.10526900 0.01895400
v -0.02339600 -0.10526900 0.01895400
v -0.02339600 -0.10526900 0.01895400
v -0.02339600 -0.10526900 0.01895400
v -0.02339600 -0.10526900 0.01895400
v -0.02337800 -0.10506300 0.01897000
v -0.02346100 -0.10472400 0.01899700
v -0.02346100 -0.10472400 0.01899700
v -0.02346100 -0.10472400 0.01899700
v -0.02346100 -0.10472400 0.01899700
v -0.02346100 -0.10472400 0.01899700
v -0.02346100 -0.10472400 0.01899700
v -0.02346100 -0.10472400 0.01899700
v -0.02346100 -0.10472400 0.01899700
v -0.02346100 -0.10472400 0.01899700
v -0.02346100 -0.10472400 0.01899700
v -0.02491200 -0.10480300 0.01899100
v -0.02491200 -0.10480300 0.01899100
v -0.02491200 -0.10480300 0.01899100
v -0.02491000 -0.10502000 0.01897400
v -0.02490700 -0.10502900 0.01897300
v -0.02490700 -0.10502900 0.01897300
v -0.02490700 -0.10502900 0.01897300
v -0.02488100 -0.10467000 0.01900200
v -0.02488100 -0.10467000 0.01900200
v -0.02375100 -0.10439800 0.01902300
v -0.02403100 -0.10427000 0.01903400
v -0.02403100 -0.10427000 0.01903400
v -0.02433900 -0.10424900 0.01903500
v -0.02433900 -0.10424900 0.01903500
v -0.02462200 -0.10433400 0.01902900
v -0.02462200 -0.10433400 0.01902900
v -0.02482800 -0.10454500 0.01901200
v -0.02482800 -0.10454500 0.01901200
v -0.02490400 -0.10503900 0.01897300
v -0.02490400 -0.10503900 0.01897300
v -0.02490400 -0.10503900 0.01897300
v -0.02483000 -0.10527800 0.01895400
v -0.02483000 -0.10527800 0.01895400
v -0.02468600 -0.10548200 0.01893700
v -0.02468600 -0.10548200 0.01893700
v -0.02369700 -0.10566500 0.01892200
v -0.02347200 -0.10545500 0.01893900
v -0.02347200 -0.10545500 0.01893900
v -0.02401400 -0.10574700 0.01891600
v -0.02401400 -0.10574700 0.01891600
v -0.02401400 -0.10574700 0.01891600
v -0.02439400 -0.10568300 0.01892100
v -0.02439400 -0.10568300 0.01892100
vn 0.00047200 -0.07956300 0.99683000
vn 0.00028400 -0.07958900 0.99682800
vn 0.00030100 -0.07963400 0.99682400
vn 0.00027800 -0.07950200 0.99683500
vn 0.00041700 -0.07967200 0.99682100
vn 0.00029800 -0.07954700 0.99683100
vn 0.00030000 -0.07947500 0.99683700
vn 0.00047200 -0.07956300 0.99683000
vn 0.00028200 -0.07972700 0.99681700
vn 0.00031700 -0.07969800 0.99681900
vn 0.00028400 -0.07958900 0.99682800
vn 0.00047200 -0.07956300 0.99683000
vn 0.00046900 -0.07934000 0.99684800
vn 0.00034200 -0.07948800 0.99683600
vn 0.00031200 -0.07960600 0.99682600
vn 0.00030100 -0.07938500 0.99684400
vn 0.00031300 -0.07957700 0.99682900
vn 0.00030200 -0.07961100 0.99682600
vn 0.00030100 -0.07938500 0.99684400
vn 0.00031700 -0.07969800 0.99681900
vn 0.00042600 -0.07961800 0.99682500
vn 0.00061700 -0.07964700 0.99682300
vn 0.00025000 -0.07932900 0.99684800
vn 0.00042600 -0.07959100 0.99682800
vn 0.00031700 -0.07969800 0.99681900
vn 0.00030100 -0.07938500 0.99684400
vn 0.00028200 -0.07972700 0.99681700
vn 0.00031200 -0.07960600 0.99682600
vn 0.00046900 -0.07934000 0.99684800
vn 0.00031200 -0.07960600 0.99682600
vn 0.00034200 -0.07948800 0.99683600
vn 0.00046900 -0.07934000 0.99684800
vn 0.00031300 -0.07957700 0.99682900
vn 0.00034200 -0.07948800 0.99683600
vn 0.00031300 -0.07957700 0.99682900
vn 0.00028200 -0.07972700 0.99681700
vn 0.00025000 -0.07932900 0.99684800
vn 0.00030000 -0.07947500 0.99683700
vn 0.00028400 -0.07958900 0.99682800
vn 0.00030000 -0.07947500 0.99683700
vn 0.00030100 -0.07963400 0.99682400
vn 0.00030100 -0.07963400 0.99682400
vn 0.00027800 -0.07950200 0.99683500
vn 0.00029900 -0.07949900 0.99683500
vn 0.00041700 -0.07967200 0.99682100
vn 0.00029900 -0.07949900 0.99683500
vn 0.00029900 -0.07949900 0.99683500
vn 0.00041700 -0.07967200 0.99682100
vn 0.00029800 -0.07954700 0.99683100
vn 0.00029800 -0.07954700 0.99683100
vn 0.00027800 -0.07950200 0.99683500
f 1//1 8//8 12//12
f 21//21 22//22 24//24
f 16//16 26//26 19//19
f 28//28 30//30 15//15
f 13//13 29//29 32//32
f 31//31 34//34 14//14
f 17//17 33//33 35//35
f 9//9 36//36 27//27
f 20//20 25//25 10//10
f 18//18 23//23 37//37
f 11//11 39//39 2//2
f 7//7 38//38 40//40
f 3//3 41//41 42//42
f 44//44 46//46 47//47
f 48//48 45//45 5//5
f 49//49 6//6 50//50
f 51//51 4//4 43//43

