# https://github.com/mikedh/trimesh
v 0.28183900 0.00888400 -0.04730000
v 0.28183900 0.00888400 -0.04730000
v 0.28216800 0.01003600 -0.04730000
v 0.28314900 0.00924900 -0.04730000
v 0.28314900 0.00924900 -0.04730000
v 0.28356700 0.01033200 -0.04730000
v 0.28356700 0.01033200 -0.04730000
v 0.28450100 0.00942300 -0.04730000
v 0.28450100 0.00942300 -0.04730000
v 0.28499700 0.01043500 -0.04730000
v 0.28499700 0.01043500 -0.04730000
v 0.28587300 0.00940100 -0.04730000
v 0.28587300 0.00940100 -0.04730000
v 0.28641800 0.01034400 -0.04730000
v 0.28641800 0.01034400 -0.04730000
v 0.28641800 0.01034400 -0.04730000
v 0.28640800 0.00934000 -0.04730000
v 0.27595300 -0.00290300 -0.04730000
v 0.27595300 -0.00290300 -0.04730000
v 0.27523300 -0.00386600 -0.04730000
v 0.27481000 -0.00250100 -0.04730000
v 0.27481000 -0.00250100 -0.04730000
v 0.28771400 0.00905700 -0.04730000
v 0.28771400 0.00905700 -0.04730000
v 0.28780500 0.01006700 -0.04730000
v 0.28780500 0.01006700 -0.04730000
v 0.28894900 0.00860300 -0.04730000
v 0.28911500 0.00961800 -0.04730000
v 0.28911500 0.00961800 -0.04730000
v 0.29011200 0.00797900 -0.04730000
v 0.29011200 0.00797900 -0.04730000
v 0.29011200 0.00797900 -0.04730000
v 0.29035500 0.00899800 -0.04730000
v 0.29035500 0.00899800 -0.04730000
v 0.29035500 0.00899800 -0.04730000
v 0.29118400 0.00719500 -0.04730000
v 0.29118400 0.00719500 -0.04730000
v 0.29150900 0.00821400 -0.04730000
v 0.29150900 0.00821400 -0.04730000
v 0.29214400 0.00626000 -0.04730000
v 0.29214400 0.00626000 -0.04730000
v 0.29255700 0.00727800 -0.04730000
v 0.29255700 0.00727800 -0.04730000
v 0.29297200 0.00518900 -0.04730000
v 0.29348100 0.00619600 -0.04730000
v 0.29364200 0.00400800 -0.04730000
v 0.29425300 0.00499900 -0.04730000
v 0.29413700 0.00274300 -0.04730000
v 0.27564400 -0.00157800 -0.04730000
v 0.27564400 -0.00157800 -0.04730000
v 0.27457700 -0.00109000 -0.04730000
v 0.27552800 -0.00021800 -0.04730000
v 0.27453900 0.00034700 -0.04730000
v 0.27557600 0.00088200 -0.04730000
v 0.27458500 0.00098300 -0.04730000
v 0.27580600 0.00220900 -0.04730000
v 0.27580600 0.00220900 -0.04730000
v 0.27482100 0.00237900 -0.04730000
v 0.27482100 0.00237900 -0.04730000
v 0.27620900 0.00346200 -0.04730000
v 0.27620900 0.00346200 -0.04730000
v 0.27523200 0.00370200 -0.04730000
v 0.27678200 0.00464800 -0.04730000
v 0.27581400 0.00496000 -0.04730000
v 0.27581400 0.00496000 -0.04730000
v 0.27752000 0.00574900 -0.04730000
v 0.27752000 0.00574900 -0.04730000
v 0.27752000 0.00574900 -0.04730000
v 0.27656200 0.00613500 -0.04730000
v 0.27656200 0.00613500 -0.04730000
v 0.27656200 0.00613500 -0.04730000
v 0.27841100 0.00674500 -0.04730000
v 0.27841100 0.00674500 -0.04730000
v 0.27841100 0.00674500 -0.04730000
v 0.27746600 0.00720800 -0.04730000
v 0.27746600 0.00720800 -0.04730000
v 0.27746600 0.00720800 -0.04730000
v 0.27944600 0.00761700 -0.04730000
v 0.27944600 0.00761700 -0.04730000
v 0.27840000 0.00806800 -0.04730000
v 0.28059600 0.00833500 -0.04730000
v 0.28059600 0.00833500 -0.04730000
v 0.27956000 0.00889100 -0.04730000
v 0.27956000 0.00889100 -0.04730000
v 0.28082500 0.00955200 -0.04730000
v 0.28825100 -0.00904400 -0.04730000
v 0.28825100 -0.00904400 -0.04730000
v 0.28792200 -0.01019600 -0.04730000
v 0.28792200 -0.01019600 -0.04730000
v 0.28694100 -0.00940900 -0.04730000
v 0.28694100 -0.00940900 -0.04730000
v 0.28694100 -0.00940900 -0.04730000
v 0.28652400 -0.01049200 -0.04730000
v 0.28652400 -0.01049200 -0.04730000
v 0.28652400 -0.01049200 -0.04730000
v 0.28559000 -0.00958300 -0.04730000
v 0.28559000 -0.00958300 -0.04730000
v 0.28559000 -0.00958300 -0.04730000
v 0.28509300 -0.01059500 -0.04730000
v 0.28509300 -0.01059500 -0.04730000
v 0.28509300 -0.01059500 -0.04730000
v 0.28421800 -0.00956200 -0.04730000
v 0.28421800 -0.00956200 -0.04730000
v 0.28421800 -0.00956200 -0.04730000
v 0.28367200 -0.01050500 -0.04730000
v 0.28367200 -0.01050500 -0.04730000
v 0.28367200 -0.01050500 -0.04730000
v 0.28367200 -0.01050500 -0.04730000
v 0.29485700 0.00370500 -0.04730000
v 0.29528000 0.00234100 -0.04730000
v 0.29444600 0.00141800 -0.04730000
v 0.29444600 0.00141800 -0.04730000
v 0.29551300 0.00093000 -0.04730000
v 0.29551300 0.00093000 -0.04730000
v 0.29551300 0.00093000 -0.04730000
v 0.29456300 0.00005800 -0.04730000
v 0.29456300 0.00005800 -0.04730000
v 0.29456300 0.00005800 -0.04730000
v 0.29555100 -0.00050700 -0.04730000
v 0.29555100 -0.00050700 -0.04730000
v 0.29555100 -0.00050700 -0.04730000
v 0.29451400 -0.00104200 -0.04730000
v 0.29451400 -0.00104200 -0.04730000
v 0.29550600 -0.00114300 -0.04730000
v 0.29550600 -0.00114300 -0.04730000
v 0.29428500 -0.00236900 -0.04730000
v 0.29428500 -0.00236900 -0.04730000
v 0.29526900 -0.00253900 -0.04730000
v 0.29526900 -0.00253900 -0.04730000
v 0.29388200 -0.00362200 -0.04730000
v 0.29388200 -0.00362200 -0.04730000
v 0.29485900 -0.00386300 -0.04730000
v 0.29485900 -0.00386300 -0.04730000
v 0.29330800 -0.00480800 -0.04730000
v 0.29330800 -0.00480800 -0.04730000
v 0.29427600 -0.00512000 -0.04730000
v 0.29257000 -0.00590900 -0.04730000
v 0.29352800 -0.00629500 -0.04730000
v 0.29167900 -0.00690500 -0.04730000
v 0.29167900 -0.00690500 -0.04730000
v 0.29262500 -0.00736800 -0.04730000
v 0.29262500 -0.00736800 -0.04730000
v 0.29064400 -0.00777700 -0.04730000
v 0.29064400 -0.00777700 -0.04730000
v 0.29064400 -0.00777700 -0.04730000
v 0.29169100 -0.00822800 -0.04730000
v 0.29169100 -0.00822800 -0.04730000
v 0.28949400 -0.00849500 -0.04730000
v 0.28949400 -0.00849500 -0.04730000
v 0.28949400 -0.00849500 -0.04730000
v 0.29053000 -0.00905100 -0.04730000
v 0.29053000 -0.00905100 -0.04730000
v 0.28926600 -0.00971200 -0.04730000
v 0.27583800 -0.00515900 -0.04730000
v 0.27644900 -0.00416800 -0.04730000
v 0.27660900 -0.00635600 -0.04730000
v 0.27711900 -0.00534900 -0.04730000
v 0.27753400 -0.00743800 -0.04730000
v 0.27753400 -0.00743800 -0.04730000
v 0.27794700 -0.00642000 -0.04730000
v 0.27794700 -0.00642000 -0.04730000
v 0.27794700 -0.00642000 -0.04730000
v 0.27858100 -0.00837500 -0.04730000
v 0.27858100 -0.00837500 -0.04730000
v 0.27858100 -0.00837500 -0.04730000
v 0.27890700 -0.00735500 -0.04730000
v 0.27890700 -0.00735500 -0.04730000
v 0.27890700 -0.00735500 -0.04730000
v 0.27973500 -0.00915800 -0.04730000
v 0.27973500 -0.00915800 -0.04730000
v 0.27997800 -0.00813900 -0.04730000
v 0.27997800 -0.00813900 -0.04730000
v 0.27997800 -0.00813900 -0.04730000
v 0.28097600 -0.00977800 -0.04730000
v 0.28097600 -0.00977800 -0.04730000
v 0.28114100 -0.00876300 -0.04730000
v 0.28114100 -0.00876300 -0.04730000
v 0.28114100 -0.00876300 -0.04730000
v 0.28228600 -0.01022800 -0.04730000
v 0.28228600 -0.01022800 -0.04730000
v 0.28237600 -0.00921800 -0.04730000
v 0.28237600 -0.00921800 -0.04730000
v 0.28237600 -0.00921800 -0.04730000
v 0.28368300 -0.00950000 -0.04730000
v 0.28368300 -0.00950000 -0.04730000
v 0.28825100 -0.00904400 -0.04720000
v 0.28825100 -0.00904400 -0.04720000
v 0.28825100 -0.00904400 -0.04720000
v 0.28694100 -0.00940900 -0.04720000
v 0.28694100 -0.00940900 -0.04720000
v 0.28694100 -0.00940900 -0.04720000
v 0.28652400 -0.01049200 -0.04720000
v 0.28652400 -0.01049200 -0.04720000
v 0.28652400 -0.01049200 -0.04720000
v 0.28183900 0.00888400 -0.04720000
v 0.28314900 0.00924900 -0.04720000
v 0.28314900 0.00924900 -0.04720000
v 0.28356700 0.01033200 -0.04720000
v 0.28509300 -0.01059500 -0.04720000
v 0.28509300 -0.01059500 -0.04720000
v 0.28559000 -0.00958300 -0.04720000
v 0.28559000 -0.00958300 -0.04720000
v 0.28559000 -0.00958300 -0.04720000
v 0.28367200 -0.01050500 -0.04720000
v 0.28367200 -0.01050500 -0.04720000
v 0.28367200 -0.01050500 -0.04720000
v 0.27595300 -0.00290300 -0.04720000
v 0.27595300 -0.00290300 -0.04720000
v 0.27595300 -0.00290300 -0.04720000
v 0.27595300 -0.00290300 -0.04720000
v 0.27523300 -0.00386600 -0.04720000
v 0.27523300 -0.00386600 -0.04720000
v 0.27523300 -0.00386600 -0.04720000
v 0.27644900 -0.00416800 -0.04720000
v 0.27644900 -0.00416800 -0.04720000
v 0.27644900 -0.00416800 -0.04720000
v 0.27583800 -0.00515900 -0.04720000
v 0.27583800 -0.00515900 -0.04720000
v 0.27711900 -0.00534900 -0.04720000
v 0.27711900 -0.00534900 -0.04720000
v 0.27660900 -0.00635600 -0.04720000
v 0.27660900 -0.00635600 -0.04720000
v 0.27794700 -0.00642000 -0.04720000
v 0.27794700 -0.00642000 -0.04720000
v 0.27794700 -0.00642000 -0.04720000
v 0.27753400 -0.00743800 -0.04720000
v 0.27753400 -0.00743800 -0.04720000
v 0.27753400 -0.00743800 -0.04720000
v 0.27890700 -0.00735500 -0.04720000
v 0.27890700 -0.00735500 -0.04720000
v 0.27890700 -0.00735500 -0.04720000
v 0.27858100 -0.00837500 -0.04720000
v 0.27858100 -0.00837500 -0.04720000
v 0.27858100 -0.00837500 -0.04720000
v 0.27997800 -0.00813900 -0.04720000
v 0.27997800 -0.00813900 -0.04720000
v 0.27997800 -0.00813900 -0.04720000
v 0.27973500 -0.00915800 -0.04720000
v 0.27973500 -0.00915800 -0.04720000
v 0.27973500 -0.00915800 -0.04720000
v 0.28114100 -0.00876300 -0.04720000
v 0.28114100 -0.00876300 -0.04720000
v 0.28114100 -0.00876300 -0.04720000
v 0.28097600 -0.00977800 -0.04720000
v 0.28097600 -0.00977800 -0.04720000
v 0.28237600 -0.00921800 -0.04720000
v 0.28228600 -0.01022800 -0.04720000
v 0.28228600 -0.01022800 -0.04720000
v 0.28368300 -0.00950000 -0.04720000
v 0.28368300 -0.00950000 -0.04720000
v 0.28421800 -0.00956200 -0.04720000
v 0.28421800 -0.00956200 -0.04720000
v 0.28499700 0.01043500 -0.04720000
v 0.28499700 0.01043500 -0.04720000
v 0.28499700 0.01043500 -0.04720000
v 0.28450100 0.00942300 -0.04720000
v 0.28450100 0.00942300 -0.04720000
v 0.28450100 0.00942300 -0.04720000
v 0.28641800 0.01034400 -0.04720000
v 0.28641800 0.01034400 -0.04720000
v 0.28641800 0.01034400 -0.04720000
v 0.28792200 -0.01019600 -0.04720000
v 0.28792200 -0.01019600 -0.04720000
v 0.28926600 -0.00971200 -0.04720000
v 0.28949400 -0.00849500 -0.04720000
v 0.29053000 -0.00905100 -0.04720000
v 0.29064400 -0.00777700 -0.04720000
v 0.29169100 -0.00822800 -0.04720000
v 0.29167900 -0.00690500 -0.04720000
v 0.29167900 -0.00690500 -0.04720000
v 0.29262500 -0.00736800 -0.04720000
v 0.29262500 -0.00736800 -0.04720000
v 0.29257000 -0.00590900 -0.04720000
v 0.29257000 -0.00590900 -0.04720000
v 0.29352800 -0.00629500 -0.04720000
v 0.29352800 -0.00629500 -0.04720000
v 0.29330800 -0.00480800 -0.04720000
v 0.29330800 -0.00480800 -0.04720000
v 0.29427600 -0.00512000 -0.04720000
v 0.29427600 -0.00512000 -0.04720000
v 0.29388200 -0.00362200 -0.04720000
v 0.29485900 -0.00386300 -0.04720000
v 0.29428500 -0.00236900 -0.04720000
v 0.29526900 -0.00253900 -0.04720000
v 0.29451400 -0.00104200 -0.04720000
v 0.29550600 -0.00114300 -0.04720000
v 0.29456300 0.00005800 -0.04720000
v 0.29555100 -0.00050700 -0.04720000
v 0.29444600 0.00141800 -0.04720000
v 0.29551300 0.00093000 -0.04720000
v 0.29551300 0.00093000 -0.04720000
v 0.29413700 0.00274300 -0.04720000
v 0.29413700 0.00274300 -0.04720000
v 0.29413700 0.00274300 -0.04720000
v 0.28216800 0.01003600 -0.04720000
v 0.28082500 0.00955200 -0.04720000
v 0.28059600 0.00833500 -0.04720000
v 0.27956000 0.00889100 -0.04720000
v 0.27944600 0.00761700 -0.04720000
v 0.27840000 0.00806800 -0.04720000
v 0.27840000 0.00806800 -0.04720000
v 0.27841100 0.00674500 -0.04720000
v 0.27841100 0.00674500 -0.04720000
v 0.27746600 0.00720800 -0.04720000
v 0.27746600 0.00720800 -0.04720000
v 0.27752000 0.00574900 -0.04720000
v 0.27656200 0.00613500 -0.04720000
v 0.27656200 0.00613500 -0.04720000
v 0.27678200 0.00464800 -0.04720000
v 0.27678200 0.00464800 -0.04720000
v 0.27581400 0.00496000 -0.04720000
v 0.27581400 0.00496000 -0.04720000
v 0.27620900 0.00346200 -0.04720000
v 0.27523200 0.00370200 -0.04720000
v 0.27523200 0.00370200 -0.04720000
v 0.27580600 0.00220900 -0.04720000
v 0.27580600 0.00220900 -0.04720000
v 0.27482100 0.00237900 -0.04720000
v 0.27482100 0.00237900 -0.04720000
v 0.27557600 0.00088200 -0.04720000
v 0.27458500 0.00098300 -0.04720000
v 0.27552800 -0.00021800 -0.04720000
v 0.27453900 0.00034700 -0.04720000
v 0.27564400 -0.00157800 -0.04720000
v 0.27564400 -0.00157800 -0.04720000
v 0.27457700 -0.00109000 -0.04720000
v 0.27457700 -0.00109000 -0.04720000
v 0.27457700 -0.00109000 -0.04720000
v 0.27481000 -0.00250100 -0.04720000
v 0.27481000 -0.00250100 -0.04720000
v 0.29528000 0.00234100 -0.04720000
v 0.29528000 0.00234100 -0.04720000
v 0.29485700 0.00370500 -0.04720000
v 0.29485700 0.00370500 -0.04720000
v 0.29364200 0.00400800 -0.04720000
v 0.29364200 0.00400800 -0.04720000
v 0.29364200 0.00400800 -0.04720000
v 0.29425300 0.00499900 -0.04720000
v 0.29425300 0.00499900 -0.04720000
v 0.29425300 0.00499900 -0.04720000
v 0.29297200 0.00518900 -0.04720000
v 0.29297200 0.00518900 -0.04720000
v 0.29297200 0.00518900 -0.04720000
v 0.29348100 0.00619600 -0.04720000
v 0.29348100 0.00619600 -0.04720000
v 0.29348100 0.00619600 -0.04720000
v 0.29214400 0.00626000 -0.04720000
v 0.29214400 0.00626000 -0.04720000
v 0.29255700 0.00727800 -0.04720000
v 0.29118400 0.00719500 -0.04720000
v 0.29150900 0.00821400 -0.04720000
v 0.29011200 0.00797900 -0.04720000
v 0.29011200 0.00797900 -0.04720000
v 0.29035500 0.00899800 -0.04720000
v 0.29035500 0.00899800 -0.04720000
v 0.29035500 0.00899800 -0.04720000
v 0.28894900 0.00860300 -0.04720000
v 0.28894900 0.00860300 -0.04720000
v 0.28894900 0.00860300 -0.04720000
v 0.28911500 0.00961800 -0.04720000
v 0.28911500 0.00961800 -0.04720000
v 0.28911500 0.00961800 -0.04720000
v 0.28771400 0.00905700 -0.04720000
v 0.28771400 0.00905700 -0.04720000
v 0.28780500 0.01006700 -0.04720000
v 0.28780500 0.01006700 -0.04720000
v 0.28780500 0.01006700 -0.04720000
v 0.28640800 0.00934000 -0.04720000
v 0.28640800 0.00934000 -0.04720000
v 0.28587300 0.00940100 -0.04720000
v 0.29550600 -0.00114300 -0.04730000
v 0.29550600 -0.00114300 -0.04720000
v 0.29526900 -0.00253900 -0.04720000
v 0.29526900 -0.00253900 -0.04730000
v 0.29485900 -0.00386300 -0.04720000
v 0.29485900 -0.00386300 -0.04730000
v 0.29427600 -0.00512000 -0.04720000
v 0.29427600 -0.00512000 -0.04730000
v 0.29352800 -0.00629500 -0.04720000
v 0.29352800 -0.00629500 -0.04730000
v 0.29262500 -0.00736800 -0.04720000
v 0.29262500 -0.00736800 -0.04730000
v 0.29169100 -0.00822800 -0.04720000
v 0.29169100 -0.00822800 -0.04730000
v 0.29053000 -0.00905100 -0.04720000
v 0.29053000 -0.00905100 -0.04730000
v 0.28926600 -0.00971200 -0.04720000
v 0.28926600 -0.00971200 -0.04730000
v 0.28792200 -0.01019600 -0.04720000
v 0.28792200 -0.01019600 -0.04730000
v 0.28652400 -0.01049200 -0.04720000
v 0.28652400 -0.01049200 -0.04730000
v 0.28509300 -0.01059500 -0.04720000
v 0.28509300 -0.01059500 -0.04730000
v 0.28367200 -0.01050500 -0.04720000
v 0.28367200 -0.01050500 -0.04730000
v 0.28228600 -0.01022800 -0.04720000
v 0.28228600 -0.01022800 -0.04730000
v 0.28097600 -0.00977800 -0.04720000
v 0.28097600 -0.00977800 -0.04730000
v 0.27973500 -0.00915800 -0.04720000
v 0.27973500 -0.00915800 -0.04730000
v 0.27858100 -0.00837500 -0.04720000
v 0.27858100 -0.00837500 -0.04730000
v 0.27753400 -0.00743800 -0.04720000
v 0.27753400 -0.00743800 -0.04730000
v 0.27660900 -0.00635600 -0.04720000
v 0.27660900 -0.00635600 -0.04730000
v 0.27583800 -0.00515900 -0.04720000
v 0.27583800 -0.00515900 -0.04730000
v 0.27523300 -0.00386600 -0.04720000
v 0.27523300 -0.00386600 -0.04730000
v 0.27481000 -0.00250100 -0.04720000
v 0.27481000 -0.00250100 -0.04730000
v 0.27457700 -0.00109000 -0.04720000
v 0.27457700 -0.00109000 -0.04730000
v 0.27453900 0.00034700 -0.04720000
v 0.27453900 0.00034700 -0.04730000
v 0.27458500 0.00098300 -0.04720000
v 0.27458500 0.00098300 -0.04730000
v 0.27482100 0.00237900 -0.04720000
v 0.27482100 0.00237900 -0.04730000
v 0.27523200 0.00370200 -0.04720000
v 0.27523200 0.00370200 -0.04730000
v 0.27581400 0.00496000 -0.04720000
v 0.27581400 0.00496000 -0.04730000
v 0.27656200 0.00613500 -0.04720000
v 0.27656200 0.00613500 -0.04730000
v 0.27746600 0.00720800 -0.04720000
v 0.27746600 0.00720800 -0.04730000
v 0.27840000 0.00806800 -0.04720000
v 0.27840000 0.00806800 -0.04730000
v 0.27956000 0.00889100 -0.04720000
v 0.27956000 0.00889100 -0.04730000
v 0.28082500 0.00955200 -0.04720000
v 0.28082500 0.00955200 -0.04730000
v 0.28216800 0.01003600 -0.04720000
v 0.28216800 0.01003600 -0.04730000
v 0.28356700 0.01033200 -0.04720000
v 0.28356700 0.01033200 -0.04730000
v 0.28499700 0.01043500 -0.04720000
v 0.28499700 0.01043500 -0.04730000
v 0.28641800 0.01034400 -0.04720000
v 0.28641800 0.01034400 -0.04730000
v 0.28780500 0.01006700 -0.04720000
v 0.28780500 0.01006700 -0.04730000
v 0.28911500 0.00961800 -0.04720000
v 0.28911500 0.00961800 -0.04730000
v 0.29035500 0.00899800 -0.04720000
v 0.29035500 0.00899800 -0.04730000
v 0.29150900 0.00821400 -0.04720000
v 0.29150900 0.00821400 -0.04730000
v 0.29255700 0.00727800 -0.04720000
v 0.29255700 0.00727800 -0.04730000
v 0.29348100 0.00619600 -0.04720000
v 0.29348100 0.00619600 -0.04730000
v 0.29425300 0.00499900 -0.04720000
v 0.29425300 0.00499900 -0.04730000
v 0.29485700 0.00370500 -0.04720000
v 0.29485700 0.00370500 -0.04730000
v 0.29528000 0.00234100 -0.04720000
v 0.29528000 0.00234100 -0.04730000
v 0.29551300 0.00093000 -0.04720000
v 0.29551300 0.00093000 -0.04730000
v 0.29555100 -0.00050700 -0.04720000
v 0.29555100 -0.00050700 -0.04730000
v 0.27557600 0.00088200 -0.04730000
v 0.27557600 0.00088200 -0.04720000
v 0.27557600 0.00088200 -0.04720000
v 0.27552800 -0.00021800 -0.04720000
v 0.27552800 -0.00021800 -0.04730000
v 0.27564400 -0.00157800 -0.04720000
v 0.27564400 -0.00157800 -0.04730000
v 0.27595300 -0.00290300 -0.04720000
v 0.27595300 -0.00290300 -0.04730000
v 0.27644900 -0.00416800 -0.04720000
v 0.27644900 -0.00416800 -0.04730000
v 0.27711900 -0.00534900 -0.04720000
v 0.27711900 -0.00534900 -0.04730000
v 0.27794700 -0.00642000 -0.04720000
v 0.27794700 -0.00642000 -0.04730000
v 0.27890700 -0.00735500 -0.04720000
v 0.27890700 -0.00735500 -0.04730000
v 0.27997800 -0.00813900 -0.04720000
v 0.27997800 -0.00813900 -0.04730000
v 0.28114100 -0.00876300 -0.04720000
v 0.28114100 -0.00876300 -0.04730000
v 0.28237600 -0.00921800 -0.04720000
v 0.28237600 -0.00921800 -0.04730000
v 0.28368300 -0.00950000 -0.04720000
v 0.28368300 -0.00950000 -0.04720000
v 0.28368300 -0.00950000 -0.04730000
v 0.28368300 -0.00950000 -0.04730000
v 0.28421800 -0.00956200 -0.04720000
v 0.28421800 -0.00956200 -0.04730000
v 0.28559000 -0.00958300 -0.04720000
v 0.28559000 -0.00958300 -0.04730000
v 0.28694100 -0.00940900 -0.04720000
v 0.28694100 -0.00940900 -0.04730000
v 0.28825100 -0.00904400 -0.04720000
v 0.28825100 -0.00904400 -0.04730000
v 0.28949400 -0.00849500 -0.04720000
v 0.28949400 -0.00849500 -0.04730000
v 0.29064400 -0.00777700 -0.04720000
v 0.29064400 -0.00777700 -0.04730000
v 0.29167900 -0.00690500 -0.04720000
v 0.29167900 -0.00690500 -0.04730000
v 0.29257000 -0.00590900 -0.04720000
v 0.29257000 -0.00590900 -0.04730000
v 0.29330800 -0.00480800 -0.04720000
v 0.29330800 -0.00480800 -0.04730000
v 0.29388200 -0.00362200 -0.04720000
v 0.29388200 -0.00362200 -0.04730000
v 0.29428500 -0.00236900 -0.04720000
v 0.29428500 -0.00236900 -0.04730000
v 0.29451400 -0.00104200 -0.04720000
v 0.29451400 -0.00104200 -0.04730000
v 0.29456300 0.00005800 -0.04720000
v 0.29456300 0.00005800 -0.04730000
v 0.29444600 0.00141800 -0.04720000
v 0.29444600 0.00141800 -0.04730000
v 0.29413700 0.00274300 -0.04720000
v 0.29413700 0.00274300 -0.04730000
v 0.29364200 0.00400800 -0.04720000
v 0.29364200 0.00400800 -0.04730000
v 0.29297200 0.00518900 -0.04720000
v 0.29297200 0.00518900 -0.04730000
v 0.29214400 0.00626000 -0.04720000
v 0.29214400 0.00626000 -0.04730000
v 0.29118400 0.00719500 -0.04720000
v 0.29118400 0.00719500 -0.04730000
v 0.29011200 0.00797900 -0.04720000
v 0.29011200 0.00797900 -0.04730000
v 0.28894900 0.00860300 -0.04720000
v 0.28894900 0.00860300 -0.04730000
v 0.28771400 0.00905700 -0.04720000
v 0.28771400 0.00905700 -0.04730000
v 0.28640800 0.00934000 -0.04720000
v 0.28640800 0.00934000 -0.04730000
v 0.28587300 0.00940100 -0.04720000
v 0.28587300 0.00940100 -0.04730000
v 0.28450100 0.00942300 -0.04720000
v 0.28450100 0.00942300 -0.04730000
v 0.28314900 0.00924900 -0.04720000
v 0.28314900 0.00924900 -0.04730000
v 0.28183900 0.00888400 -0.04720000
v 0.28183900 0.00888400 -0.04730000
v 0.28059600 0.00833500 -0.04720000
v 0.28059600 0.00833500 -0.04730000
v 0.27944600 0.00761700 -0.04720000
v 0.27944600 0.00761700 -0.04730000
v 0.27841100 0.00674500 -0.04720000
v 0.27841100 0.00674500 -0.04730000
v 0.27752000 0.00574900 -0.04720000
v 0.27752000 0.00574900 -0.04730000
v 0.27678200 0.00464800 -0.04720000
v 0.27678200 0.00464800 -0.04730000
v 0.27620900 0.00346200 -0.04720000
v 0.27620900 0.00346200 -0.04730000
v 0.27580600 0.00220900 -0.04720000
v 0.27580600 0.00220900 -0.04730000
v 0.27557600 0.00088200 -0.04730000
vn 0.00000000 0.00000000 -1.00000000
vn 0.00000300 -0.00000000 -1.00000000
vn 0.00000000 0.00000000 -1.00000000
vn 0.00000500 -0.00000100 -1.00000000
vn 0.00000000 0.00000000 -1.00000000
vn 0.00000500 -0.00000100 -1.00000000
vn 0.00000000 0.00000000 -1.00000000
vn 0.00000500 -0.00000100 -1.00000000
vn 0.00000000 0.00000000 -1.00000000
vn 0.00000000 0.00000000 -1.00000000
vn -0.00000400 0.00000000 -1.00000000
vn 0.00000000 0.00000000 -1.00000000
vn -0.00000400 0.00000000 -1.00000000
vn 0.00000300 -0.00000000 -1.00000000
vn 0.00000000 0.00000000 -1.00000000
vn -0.00000400 0.00000000 -1.00000000
vn 0.00000000 0.00000000 -1.00000000
vn 0.00000000 0.00000000 -1.00000000
vn 0.00000500 -0.00000100 -1.00000000
vn 0.00000000 0.00000000 -1.00000000
vn 0.00000000 0.00000000 -1.00000000
vn 0.00000500 -0.00000100 -1.00000000
vn 0.00000300 -0.00000000 -1.00000000
vn 0.00000000 0.00000000 -1.00000000
vn 0.00000000 0.00000000 -1.00000000
vn 0.00000300 -0.00000000 -1.00000000
vn 0.00000000 0.00000000 -1.00000000
vn 0.00000000 0.00000000 -1.00000000
vn 0.00000500 -0.00000100 -1.00000000
vn 0.00000000 0.00000000 -1.00000000
vn 0.00000500 -0.00000100 -1.00000000
vn -0.00001100 0.00000100 -1.00000000
vn 0.00000000 0.00000000 -1.00000000
vn -0.00001100 0.00000100 -1.00000000
vn 0.00000500 -0.00000100 -1.00000000
vn 0.00000000 0.00000000 -1.00000000
vn -0.00001100 0.00000100 -1.00000000
vn -0.00000500 0.00000100 -1.00000000
vn 0.00000000 0.00000000 -1.00000000
vn 0.00000000 0.00000000 -1.00000000
vn -0.00000500 0.00000100 -1.00000000
vn 0.00000000 0.00000000 -1.00000000
vn -0.00000500 0.00000100 -1.00000000
vn 0.00000000 0.00000000 -1.00000000
vn 0.00000000 0.00000000 -1.00000000
vn 0.00000000 0.00000000 -1.00000000
vn 0.00000000 0.00000000 -1.00000000
vn 0.00000000 0.00000000 -1.00000000
vn 0.00000000 0.00000000 -1.00000000
vn 0.00000500 -0.00000100 -1.00000000
vn 0.00000000 0.00000000 -1.00000000
vn 0.00000000 0.00000000 -1.00000000
vn 0.00000000 0.00000000 -1.00000000
vn 0.00000000 0.00000000 -1.00000000
vn 0.00000000 0.00000000 -1.00000000
vn 0.00000000 0.00000000 -1.00000000
vn 0.00000600 -0.00000100 -1.00000000
vn 0.00000000 0.00000000 -1.00000000
vn 0.00000600 -0.00000100 -1.00000000
vn 0.00000000 0.00000000 -1.00000000
vn 0.00000600 -0.00000100 -1.00000000
vn 0.00000000 0.00000000 -1.00000000
vn 0.00000000 0.00000000 -1.00000000
vn -0.00000500 0.00000100 -1.00000000
vn 0.00000000 0.00000000 -1.00000000
vn 0.00000000 0.00000000 -1.00000000
vn -0.00000500 0.00000100 -1.00000000
vn 0.00000600 -0.00000100 -1.00000000
vn 0.00000600 -0.00000100 -1.00000000
vn -0.00000500 0.00000100 -1.00000000
vn -0.00000500 0.00000100 -1.00000000
vn 0.00000600 -0.00000100 -1.00000000
vn -0.00000500 0.00000100 -1.00000000
vn 0.00000300 -0.00000000 -1.00000000
vn -0.00000500 0.00000100 -1.00000000
vn 0.00000000 0.00000000 -1.00000000
vn 0.00000300 -0.00000000 -1.00000000
vn 0.00000300 -0.00000000 -1.00000000
vn 0.00000000 0.00000000 -1.00000000
vn 0.00000000 0.00000000 -1.00000000
vn 0.00000000 0.00000000 -1.00000000
vn 0.00000300 -0.00000000 -1.00000000
vn 0.00000300 -0.00000000 -1.00000000
vn 0.00000000 0.00000000 -1.00000000
vn 0.00000000 0.00000000 -1.00000000
vn 0.00000000 0.00000000 -1.00000000
vn 0.00000300 -0.00000000 -1.00000000
vn 0.00000000 0.00000000 -1.00000000
vn -0.00000300 0.00000000 -1.00000000
vn 0.00000500 -0.00000100 -1.00000000
vn -0.00000300 0.00000000 -1.00000000
vn 0.00000000 0.00000000 -1.00000000
vn -0.00000300 0.00000000 -1.00000000
vn -0.00000100 0.00000000 -1.00000000
vn 0.00000500 -0.00000100 -1.00000000
vn -0.00000100 0.00000000 -1.00000000
vn 0.00000000 0.00000000 -1.00000000
vn 0.00000500 -0.00000100 -1.00000000
vn -0.00000100 0.00000000 -1.00000000
vn 0.00000000 0.00000000 -1.00000000
vn -0.00000100 0.00000000 -1.00000000
vn 0.00000900 -0.00000100 -1.00000000
vn -0.00000100 0.00000000 -1.00000000
vn 0.00000000 0.00000000 -1.00000000
vn 0.00000000 0.00000000 -1.00000000
vn -0.00000100 0.00000000 -1.00000000
vn 0.00000900 -0.00000100 -1.00000000
vn 0.00000100 -0.00000000 -1.00000000
vn 0.00000000 0.00000000 -1.00000000
vn 0.00000000 0.00000000 -1.00000000
vn -0.00000500 0.00000100 -1.00000000
vn 0.00000000 0.00000000 -1.00000000
vn 0.00000000 0.00000000 -1.00000000
vn -0.00000500 0.00000100 -1.00000000
vn -0.00001000 0.00000100 -1.00000000
vn 0.00000300 -0.00000000 -1.00000000
vn -0.00001000 0.00000100 -1.00000000
vn -0.00000500 0.00000100 -1.00000000
vn -0.00001000 0.00000100 -1.00000000
vn 0.00000300 -0.00000000 -1.00000000
vn 0.00000000 0.00000000 -1.00000000
vn 0.00000000 0.00000000 -1.00000000
vn 0.00000300 -0.00000000 -1.00000000
vn 0.00000000 0.00000000 -1.00000000
vn -0.00001000 0.00000100 -1.00000000
vn -0.00001000 0.00000100 -1.00000000
vn 0.00000000 0.00000000 -1.00000000
vn -0.00001000 0.00000100 -1.00000000
vn 0.00000000 0.00000000 -1.00000000
vn 0.00000000 0.00000000 -1.00000000
vn -0.00000600 0.00000100 -1.00000000
vn 0.00000000 0.00000000 -1.00000000
vn -0.00000600 0.00000100 -1.00000000
vn 0.00000000 0.00000000 -1.00000000
vn -0.00000600 0.00000100 -1.00000000
vn 0.00000000 0.00000000 -1.00000000
vn 0.00000000 0.00000000 -1.00000000
vn 0.00000000 0.00000000 -1.00000000
vn -0.00000300 0.00000000 -1.00000000
vn 0.00000000 0.00000000 -1.00000000
vn 0.00000000 0.00000000 -1.00000000
vn -0.00000300 0.00000000 -1.00000000
vn -0.00000300 0.00000000 -1.00000000
vn 0.00000300 -0.00000000 -1.00000000
vn 0.00000000 0.00000000 -1.00000000
vn 0.00000000 0.00000000 -1.00000000
vn 0.00000300 -0.00000000 -1.00000000
vn 0.00000000 0.00000000 -1.00000000
vn 0.00000300 -0.00000000 -1.00000000
vn 0.00000300 -0.00000000 -1.00000000
vn 0.00000000 0.00000000 -1.00000000
vn 0.00000300 -0.00000000 -1.00000000
vn 0.00000000 0.00000000 -1.00000000
vn 0.00000000 0.00000000 -1.00000000
vn 0.00000000 0.00000000 -1.00000000
vn 0.00000000 0.00000000 -1.00000000
vn 0.00000000 0.00000000 -1.00000000
vn 0.00000000 0.00000000 -1.00000000
vn 0.00001000 -0.00000100 -1.00000000
vn 0.00000000 0.00000000 -1.00000000
vn -0.00000600 0.00000100 -1.00000000
vn 0.00001000 -0.00000100 -1.00000000
vn 0.00000000 0.00000000 -1.00000000
vn 0.00001000 -0.00000100 -1.00000000
vn -0.00000600 0.00000100 -1.00000000
vn 0.00000600 -0.00000100 -1.00000000
vn 0.00000000 0.00000000 -1.00000000
vn -0.00000600 0.00000100 -1.00000000
vn 0.00000600 -0.00000100 -1.00000000
vn 0.00000000 0.00000000 -1.00000000
vn 0.00000600 -0.00000100 -1.00000000
vn 0.00000000 0.00000000 -1.00000000
vn -0.00000300 0.00000000 -1.00000000
vn 0.00000000 0.00000000 -1.00000000
vn -0.00000300 0.00000000 -1.00000000
vn -0.00000300 0.00000000 -1.00000000
vn 0.00000300 -0.00000000 -1.00000000
vn 0.00000000 0.00000000 -1.00000000
vn 0.00000000 0.00000000 -1.00000000
vn 0.00000300 -0.00000000 -1.00000000
vn 0.00000100 -0.00000000 -1.00000000
vn 0.00000000 0.00000000 -1.00000000
vn 0.00000300 -0.00000000 -1.00000000
vn 0.00000900 -0.00000100 -1.00000000
vn 0.00000100 -0.00000000 -1.00000000
vn 0.00000000 0.00000000 1.00000000
vn -0.00000600 0.00000100 1.00000000
vn 0.00000500 -0.00000000 1.00000000
vn -0.00000600 0.00000100 1.00000000
vn 0.00000100 -0.00000000 1.00000000
vn 0.00000000 0.00000000 1.00000000
vn -0.00000600 0.00000100 1.00000000
vn 0.00000500 -0.00000000 1.00000000
vn 0.00000000 0.00000000 1.00000000
vn 0.00000000 0.00000000 1.00000000
vn 0.00000000 0.00000000 1.00000000
vn -0.00000100 0.00000000 1.00000000
vn 0.00000000 0.00000000 1.00000000
vn 0.00000100 -0.00000000 1.00000000
vn 0.00000000 0.00000000 1.00000000
vn 0.00000600 -0.00000100 1.00000000
vn 0.00000000 0.00000000 1.00000000
vn 0.00000100 -0.00000000 1.00000000
vn -0.00000200 0.00000000 1.00000000
vn 0.00000000 0.00000000 1.00000000
vn 0.00000600 -0.00000100 1.00000000
vn 0.00001000 -0.00000100 1.00000000
vn -0.00001100 0.00000100 1.00000000
vn 0.00000000 0.00000000 1.00000000
vn -0.00000300 0.00000000 1.00000000
vn -0.00000500 0.00000100 1.00000000
vn -0.00000300 0.00000000 1.00000000
vn 0.00000000 0.00000000 1.00000000
vn 0.00000000 0.00000000 1.00000000
vn -0.00000500 0.00000100 1.00000000
vn -0.00000300 0.00000000 1.00000000
vn -0.00000500 0.00000100 1.00000000
vn 0.00000000 0.00000000 1.00000000
vn 0.00000000 0.00000000 1.00000000
vn 0.00000400 -0.00000000 1.00000000
vn 0.00000400 -0.00000000 1.00000000
vn 0.00000000 0.00000000 1.00000000
vn 0.00000000 0.00000000 1.00000000
vn 0.00000400 -0.00000000 1.00000000
vn -0.00000500 0.00000100 1.00000000
vn 0.00000000 0.00000000 1.00000000
vn 0.00000500 -0.00000100 1.00000000
vn -0.00000500 0.00000100 1.00000000
vn 0.00000500 -0.00000100 1.00000000
vn -0.00000300 0.00000000 1.00000000
vn -0.00000500 0.00000100 1.00000000
vn -0.00000500 0.00000100 1.00000000
vn -0.00000300 0.00000000 1.00000000
vn 0.00000500 -0.00000100 1.00000000
vn -0.00000300 0.00000000 1.00000000
vn -0.00000500 0.00000100 1.00000000
vn 0.00000300 -0.00000000 1.00000000
vn 0.00000300 -0.00000000 1.00000000
vn 0.00000300 -0.00000000 1.00000000
vn -0.00000500 0.00000100 1.00000000
vn 0.00000000 0.00000000 1.00000000
vn 0.00000300 -0.00000000 1.00000000
vn 0.00000300 -0.00000000 1.00000000
vn 0.00000300 -0.00000000 1.00000000
vn 0.00000000 0.00000000 1.00000000
vn 0.00000000 0.00000000 1.00000000
vn -0.00000200 0.00000000 1.00000000
vn 0.00000000 0.00000000 1.00000000
vn 0.00000000 0.00000000 1.00000000
vn -0.00000200 0.00000000 1.00000000
vn 0.00000000 0.00000000 1.00000000
vn 0.00000600 -0.00000100 1.00000000
vn 0.00000500 -0.00000000 1.00000000
vn 0.00000000 0.00000000 1.00000000
vn -0.00000100 0.00000000 1.00000000
vn 0.00000500 -0.00000000 1.00000000
vn 0.00000000 0.00000000 1.00000000
vn -0.00000100 0.00000000 1.00000000
vn 0.00000000 0.00000000 1.00000000
vn 0.00000100 -0.00000000 1.00000000
vn 0.00000500 -0.00000000 1.00000000
vn 0.00000000 0.00000000 1.00000000
vn 0.00000500 -0.00000000 1.00000000
vn 0.00000000 0.00000000 1.00000000
vn 0.00000000 0.00000000 1.00000000
vn 0.00000000 0.00000000 1.00000000
vn 0.00000000 0.00000000 1.00000000
vn 0.00000000 0.00000000 1.00000000
vn 0.00000000 0.00000000 1.00000000
vn 0.00001100 -0.00000100 1.00000000
vn 0.00000000 0.00000000 1.00000000
vn 0.00001100 -0.00000100 1.00000000
vn 0.00001100 -0.00000100 1.00000000
vn 0.00000000 0.00000000 1.00000000
vn 0.00000000 0.00000000 1.00000000
vn -0.00000500 0.00000100 1.00000000
vn -0.00000500 0.00000100 1.00000000
vn 0.00000000 0.00000000 1.00000000
vn 0.00000000 0.00000000 1.00000000
vn -0.00000500 0.00000100 1.00000000
vn 0.00000000 0.00000000 1.00000000
vn 0.00000000 0.00000000 1.00000000
vn 0.00000000 0.00000000 1.00000000
vn 0.00000000 0.00000000 1.00000000
vn 0.00000000 0.00000000 1.00000000
vn 0.00000000 0.00000000 1.00000000
vn 0.00000000 0.00000000 1.00000000
vn 0.00000000 0.00000000 1.00000000
vn 0.00000000 0.00000000 1.00000000
vn 0.00000000 0.00000000 1.00000000
vn -0.00000200 0.00000000 1.00000000
vn 0.00000000 0.00000000 1.00000000
vn 0.00000300 -0.00000000 1.00000000
vn -0.00000200 0.00000000 1.00000000
vn 0.00000000 0.00000000 1.00000000
vn 0.00000000 0.00000000 1.00000000
vn 0.00000000 0.00000000 1.00000000
vn 0.00000000 0.00000000 1.00000000
vn 0.00000000 0.00000000 1.00000000
vn -0.00000600 0.00000100 1.00000000
vn 0.00000000 0.00000000 1.00000000
vn 0.00000000 0.00000000 1.00000000
vn -0.00000600 0.00000100 1.00000000
vn -0.00000600 0.00000100 1.00000000
vn 0.00000000 0.00000000 1.00000000
vn 0.00000000 0.00000000 1.00000000
vn 0.00000500 -0.00000100 1.00000000
vn 0.00000000 0.00000000 1.00000000
vn 0.00000000 0.00000000 1.00000000
vn 0.00000500 -0.00000100 1.00000000
vn 0.00000500 -0.00000100 1.00000000
vn 0.00000000 0.00000000 1.00000000
vn 0.00000000 0.00000000 1.00000000
vn -0.00001100 0.00000100 1.00000000
vn 0.00000000 0.00000000 1.00000000
vn -0.00001100 0.00000100 1.00000000
vn 0.00000000 0.00000000 1.00000000
vn 0.00000000 0.00000000 1.00000000
vn -0.00001100 0.00000100 1.00000000
vn 0.00000000 0.00000000 1.00000000
vn 0.00000000 0.00000000 1.00000000
vn 0.00000000 0.00000000 1.00000000
vn 0.00000000 0.00000000 1.00000000
vn -0.00001100 0.00000100 1.00000000
vn 0.00000000 0.00000000 1.00000000
vn 0.00001000 -0.00000100 1.00000000
vn 0.00000000 0.00000000 1.00000000
vn -0.00001100 0.00000100 1.00000000
vn 0.00000000 0.00000000 1.00000000
vn 0.00001000 -0.00000100 1.00000000
vn -0.00000200 0.00000000 1.00000000
vn 0.00000000 0.00000000 1.00000000
vn 0.00000000 0.00000000 1.00000000
vn 0.00000300 -0.00000000 1.00000000
vn -0.00000300 0.00000000 1.00000000
vn 0.00000300 -0.00000000 1.00000000
vn 0.00000000 0.00000000 1.00000000
vn 0.00000000 0.00000000 1.00000000
vn -0.00000300 0.00000000 1.00000000
vn 0.00000500 -0.00000100 1.00000000
vn -0.00000300 0.00000000 1.00000000
vn -0.00000200 0.00000000 1.00000000
vn 0.00000500 -0.00000100 1.00000000
vn 0.00000000 0.00000000 1.00000000
vn 0.00000500 -0.00000100 1.00000000
vn -0.00000200 0.00000000 1.00000000
vn -0.00000200 0.00000000 1.00000000
vn 0.00000000 0.00000000 1.00000000
vn 0.00000000 0.00000000 1.00000000
vn 0.00000000 0.00000000 1.00000000
vn 0.00000000 0.00000000 1.00000000
vn 0.00000000 0.00000000 1.00000000
vn 0.00000300 -0.00000000 1.00000000
vn 0.00000300 -0.00000000 1.00000000
vn 0.00000000 0.00000000 1.00000000
vn -0.00000300 0.00000000 1.00000000
vn 0.00000300 -0.00000000 1.00000000
vn 0.00000000 0.00000000 1.00000000
vn -0.00000300 0.00000000 1.00000000
vn 0.00000000 0.00000000 1.00000000
vn -0.00000300 0.00000000 1.00000000
vn 0.00000100 -0.00000000 1.00000000
vn 0.00000100 -0.00000000 1.00000000
vn 0.00000000 0.00000000 1.00000000
vn 0.00000100 -0.00000000 1.00000000
vn 0.00000100 -0.00000000 1.00000000
vn 0.00000000 0.00000000 1.00000000
vn 0.00000000 0.00000000 1.00000000
vn 0.00000100 -0.00000000 1.00000000
vn 0.00000000 0.00000000 1.00000000
vn 0.99081400 -0.13523100 0.00000600
vn 0.99464600 -0.10334100 -0.00000600
vn 0.97757500 -0.21058600 0.00000000
vn 0.96726100 -0.25378600 0.00000000
vn 0.94100800 -0.33838500 0.00000000
vn 0.92509400 -0.37973900 -0.00000700
vn 0.88787500 -0.46008500 0.00000000
vn 0.86662100 -0.49896800 0.00000000
vn 0.81898600 -0.57381400 0.00000000
vn 0.79272900 -0.60957400 0.00000000
vn 0.73705100 -0.67583700 0.00000000
vn 0.70783100 -0.70638200 0.00000000
vn 0.64556600 -0.76370500 0.00000800
vn 0.61258900 -0.79040200 0.00000000
vn 0.54115000 -0.84092600 -0.00001100
vn 0.50278900 -0.86440900 0.00000900
vn 0.42272800 -0.90625600 -0.00000900
vn 0.38112800 -0.92452200 0.00000900
vn 0.29558300 -0.95531700 0.00000000
vn 0.25168400 -0.96780900 0.00000000
vn 0.16241700 -0.98672200 -0.00000900
vn 0.11712500 -0.99311700 0.00000000
vn 0.02659100 -0.99964600 0.00000000
vn -0.01863700 -0.99982600 0.00000000
vn -0.10799100 -0.99415200 -0.00000900
vn -0.15212600 -0.98836100 0.00000800
vn -0.23927100 -0.97095300 -0.00000800
vn -0.28224400 -0.95934300 0.00000800
vn -0.36613400 -0.93056200 0.00000000
vn -0.40699700 -0.91343000 0.00000000
vn -0.48624200 -0.87382400 0.00000000
vn -0.52451800 -0.85139900 0.00000000
vn -0.59790600 -0.80156600 0.00000700
vn -0.63290600 -0.77422800 0.00000000
vn -0.69922300 -0.71490300 0.00000000
vn -0.73044900 -0.68296700 0.00000000
vn -0.78857800 -0.61493500 0.00001200
vn -0.81540000 -0.57889800 0.00000000
vn -0.86413100 -0.50326700 0.00000000
vn -0.88597900 -0.46372600 0.00000000
vn -0.92430800 -0.38164600 0.00000000
vn -0.94069000 -0.33926800 0.00000000
vn -0.96765400 -0.25228100 0.00000000
vn -0.97817800 -0.20777000 0.00000000
vn -0.99304800 -0.11771000 0.00000000
vn -0.99739200 -0.07217700 -0.00000100
vn -0.99998100 0.00611300 0.00000000
vn -0.99924800 0.03877500 0.00000000
vn -0.99464300 0.10336600 -0.00001000
vn -0.99081100 0.13525400 0.00000000
vn -0.97758000 0.21056700 0.00000100
vn -0.96726600 0.25376400 0.00000000
vn -0.94100800 0.33838500 0.00000000
vn -0.92509300 0.37974000 0.00000000
vn -0.88787800 0.46007900 -0.00000800
vn -0.86659900 0.49900500 0.00001100
vn -0.81898300 0.57381800 -0.00001000
vn -0.79272400 0.60958000 0.00000000
vn -0.73705000 0.67583800 0.00000000
vn -0.70782800 0.70638500 0.00000000
vn -0.64558000 0.76369300 -0.00000800
vn -0.61256600 0.79042000 0.00000000
vn -0.54118600 0.84090300 0.00000000
vn -0.50274000 0.86443800 0.00000000
vn -0.42271100 0.90626400 0.00000000
vn -0.38111000 0.92453000 0.00000000
vn -0.29559800 0.95531200 0.00000000
vn -0.25170200 0.96780500 -0.00000100
vn -0.16241400 0.98672300 -0.00001100
vn -0.11712200 0.99311800 0.00001100
vn -0.02659300 0.99964600 0.00000000
vn 0.01863400 0.99982600 0.00000000
vn 0.10798700 0.99415200 0.00000700
vn 0.15212300 0.98836200 0.00000000
vn 0.23927200 0.97095300 0.00000100
vn 0.28224500 0.95934200 0.00001000
vn 0.36612800 0.93056500 0.00001100
vn 0.40699100 0.91343200 0.00000000
vn 0.48624100 0.87382500 0.00000000
vn 0.52451800 0.85139900 0.00000000
vn 0.59786600 0.80159600 0.00000100
vn 0.63290600 0.77422900 0.00000000
vn 0.69920800 0.71491900 0.00000000
vn 0.73043400 0.68298300 0.00000000
vn 0.78854300 0.61498000 -0.00001100
vn 0.81539400 0.57890700 0.00000000
vn 0.86413400 0.50326100 0.00000000
vn 0.88600500 0.46367600 0.00000000
vn 0.92430500 0.38165600 -0.00000900
vn 0.94068700 0.33927700 0.00000000
vn 0.96765600 0.25227200 0.00000000
vn 0.97817000 0.20780800 0.00000000
vn 0.99304900 0.11770400 -0.00001000
vn 0.99739200 0.07217200 0.00000800
vn 0.99998200 -0.00605800 0.00000000
vn 0.99924800 -0.03876800 0.00000000
vn 0.99902500 -0.04415300 0.00000000
vn 0.99171300 -0.12847000 0.00000000
vn 0.99171000 -0.12849400 0.00000000
vn 0.99999900 -0.00103100 0.00000000
vn 0.99911500 0.04207000 0.00000000
vn 0.99113200 0.13288200 0.00000000
vn 0.98359700 0.18038200 0.00000000
vn 0.96177500 0.27384100 0.00000000
vn 0.94755400 0.31959500 0.00000000
vn 0.91275300 0.40851200 0.00000000
vn 0.89223700 0.45156700 0.00000000
vn 0.84544900 0.53405600 0.00000000
vn 0.81925600 0.57342800 0.00000000
vn 0.76168200 0.64795100 0.00000000
vn 0.73038000 0.68304100 0.00000000
vn 0.66339700 0.74826700 0.00000000
vn 0.62769600 0.77845900 0.00000000
vn 0.55257200 0.83346500 0.00000000
vn 0.51312800 0.85831200 0.00000000
vn 0.43115900 0.90227600 0.00000000
vn 0.38868300 0.92137200 0.00000000
vn 0.30134100 0.95351700 0.00000000
vn 0.25648800 0.96654700 0.00000000
vn 0.17924500 0.98380400 0.00000000
vn 0.17931600 0.98379200 0.00000000
vn 0.21119000 0.97744500 0.00000000
vn 0.11491200 0.99337600 0.00000000
vn 0.08190900 0.99664000 0.00000000
vn 0.04898300 0.99880000 0.00000000
vn -0.03204700 0.99948600 0.00000000
vn -0.07997400 0.99679700 0.00000000
vn -0.17514500 0.98454300 0.00000000
vn -0.22232300 0.97497300 0.00000000
vn -0.31462100 0.94921700 0.00000000
vn -0.35972700 0.93305800 0.00000000
vn -0.44689600 0.89458600 0.00000000
vn -0.48884000 0.87237400 0.00000000
vn -0.56917200 0.82221800 0.00000000
vn -0.60736700 0.79442100 0.00000000
vn -0.67933600 0.73382800 0.00000000
vn -0.71304700 0.70111700 0.00000000
vn -0.77536800 0.63151000 0.00000000
vn -0.80398200 0.59465300 0.00000000
vn -0.85580600 0.51729600 0.00000000
vn -0.87896100 0.47689300 0.00000000
vn -0.91946800 0.39316500 0.00000000
vn -0.93674300 0.35001700 0.00000000
vn -0.96523300 0.26139200 0.00000000
vn -0.97637500 0.21608400 0.00000000
vn -0.99171100 0.12849200 0.00000000
vn -0.99626600 0.08634000 0.00000000
vn -0.99999900 0.00103600 0.00000000
vn -0.99911500 -0.04207100 0.00000000
vn -0.99112800 -0.13291300 0.00000000
vn -0.98359100 -0.18041400 0.00000000
vn -0.96177400 -0.27384500 0.00000000
vn -0.94755300 -0.31959900 0.00000000
vn -0.91275200 -0.40851300 0.00000000
vn -0.89223500 -0.45157000 0.00000000
vn -0.84545400 -0.53404900 0.00000000
vn -0.81923300 -0.57346100 0.00000000
vn -0.76163700 -0.64800400 0.00000000
vn -0.73039500 -0.68302500 0.00000000
vn -0.66339500 -0.74826900 0.00000000
vn -0.62773000 -0.77843100 0.00000000
vn -0.55255100 -0.83347900 0.00000000
vn -0.51314400 -0.85830200 0.00000000
vn -0.43116700 -0.90227200 0.00000000
vn -0.38868800 -0.92136900 0.00000000
vn -0.30134400 -0.95351600 0.00000000
vn -0.25649000 -0.96654700 0.00000000
vn -0.17929400 -0.98379500 0.00000000
vn -0.14714200 -0.98911500 0.00000000
vn -0.08191100 -0.99664000 0.00000000
vn -0.04898500 -0.99880000 0.00000000
vn 0.03203000 -0.99948700 0.00000000
vn 0.08000400 -0.99679500 0.00000000
vn 0.17516400 -0.98453900 0.00000000
vn 0.22233900 -0.97496900 0.00000000
vn 0.31466400 -0.94920300 0.00000000
vn 0.35968200 -0.93307500 0.00000000
vn 0.44686100 -0.89460400 0.00000000
vn 0.48888600 -0.87234800 0.00000000
vn 0.56916500 -0.82222300 0.00000000
vn 0.60736100 -0.79442600 0.00000000
vn 0.67930300 -0.73385800 0.00000000
vn 0.71301700 -0.70114600 0.00000000
vn 0.77534300 -0.63154100 0.00000000
vn 0.80395900 -0.59468400 0.00000000
vn 0.85578300 -0.51733500 0.00000000
vn 0.87896300 -0.47689000 0.00000000
vn 0.91946900 -0.39316100 0.00000000
vn 0.93674500 -0.35001400 0.00000000
vn 0.96523600 -0.26138100 0.00000000
vn 0.97638700 -0.21602700 0.00000000
vn 0.98538400 -0.17034700 0.00000000
f 1//1 3//3 5//5
f 5//5 3//3 7//7
f 4//4 6//6 8//8
f 9//9 7//7 10//10
f 9//9 10//10 12//12
f 13//13 11//11 16//16
f 12//12 15//15 17//17
f 18//18 20//20 21//21
f 17//17 15//15 24//24
f 23//23 14//14 26//26
f 24//24 25//25 27//27
f 27//27 25//25 28//28
f 27//27 28//28 30//30
f 31//31 29//29 35//35
f 32//32 34//34 37//37
f 36//36 33//33 39//39
f 36//36 39//39 40//40
f 41//41 38//38 43//43
f 40//40 42//42 44//44
f 44//44 42//42 45//45
f 44//44 45//45 46//46
f 46//46 45//45 47//47
f 46//46 47//47 48//48
f 19//19 22//22 50//50
f 49//49 21//21 51//51
f 49//49 51//51 52//52
f 52//52 51//51 53//53
f 52//52 53//53 54//54
f 54//54 53//53 55//55
f 54//54 55//55 56//56
f 56//56 55//55 58//58
f 57//57 59//59 61//61
f 60//60 58//58 62//62
f 60//60 62//62 63//63
f 63//63 62//62 65//65
f 63//63 65//65 66//66
f 67//67 64//64 71//71
f 68//68 69//69 72//72
f 73//73 70//70 75//75
f 74//74 77//77 78//78
f 79//79 76//76 80//80
f 79//79 80//80 81//81
f 81//81 80//80 84//84
f 82//82 83//83 2//2
f 1//1 84//84 85//85
f 1//1 85//85 3//3
f 86//86 88//88 92//92
f 91//91 89//89 93//93
f 90//90 95//95 98//98
f 96//96 94//94 101//101
f 97//97 100//100 104//104
f 103//103 99//99 106//106
f 47//47 109//109 48//48
f 48//48 109//109 110//110
f 48//48 110//110 112//112
f 112//112 110//110 113//113
f 111//111 114//114 118//118
f 117//117 115//115 119//119
f 116//116 120//120 123//123
f 122//122 121//121 124//124
f 122//122 124//124 127//127
f 126//126 125//125 128//128
f 127//127 129//129 130//130
f 130//130 129//129 132//132
f 131//131 133//133 135//135
f 134//134 132//132 136//136
f 134//134 136//136 137//137
f 137//137 136//136 138//138
f 137//137 138//138 140//140
f 140//140 138//138 141//141
f 139//139 142//142 143//143
f 145//145 141//141 146//146
f 144//144 147//147 149//149
f 148//148 146//146 151//151
f 150//150 152//152 87//87
f 86//86 151//151 153//153
f 86//86 153//153 88//88
f 20//20 18//18 154//154
f 154//154 18//18 155//155
f 154//154 155//155 156//156
f 156//156 155//155 157//157
f 156//156 157//157 158//158
f 158//158 157//157 160//160
f 159//159 162//162 164//164
f 165//165 161//161 168//168
f 163//163 167//167 170//170
f 169//169 166//166 171//171
f 170//170 172//172 174//174
f 175//175 173//173 176//176
f 174//174 178//178 179//179
f 180//180 177//177 183//183
f 179//179 182//182 105//105
f 108//108 181//181 185//185
f 107//107 184//184 102//102
f 187//187 189//189 192//192
f 195//195 196//196 198//198
f 194//194 191//191 200//200
f 199//199 190//190 203//203
f 200//200 202//202 205//205
f 210//210 212//212 216//216
f 215//215 211//211 217//217
f 214//214 218//218 219//219
f 219//219 218//218 222//222
f 220//220 221//221 224//224
f 223//223 222//222 226//226
f 225//225 228//228 231//231
f 229//229 227//227 234//234
f 230//230 233//233 235//235
f 236//236 232//232 240//240
f 237//237 239//239 243//243
f 242//242 238//238 244//244
f 241//241 245//245 246//246
f 246//246 245//245 248//248
f 246//246 248//248 249//249
f 250//250 247//247 204//204
f 249//249 205//205 251//251
f 252//252 206//206 201//201
f 198//198 196//196 254//254
f 255//255 197//197 258//258
f 253//253 256//256 261//261
f 193//193 263//263 188//188
f 186//186 262//262 264//264
f 186//186 264//264 265//265
f 265//265 264//264 266//266
f 265//265 266//266 267//267
f 267//267 266//266 268//268
f 267//267 268//268 269//269
f 269//269 268//268 271//271
f 270//270 272//272 273//273
f 274//274 271//271 275//275
f 274//274 275//275 278//278
f 277//277 276//276 280//280
f 278//278 279//279 281//281
f 281//281 279//279 282//282
f 281//281 282//282 283//283
f 283//283 282//282 284//284
f 283//283 284//284 285//285
f 285//285 284//284 286//286
f 285//285 286//286 287//287
f 287//287 286//286 288//288
f 287//287 288//288 289//289
f 289//289 288//288 290//290
f 289//289 290//290 292//292
f 198//198 295//295 195//195
f 195//195 295//295 296//296
f 195//195 296//296 297//297
f 297//297 296//296 298//298
f 297//297 298//298 299//299
f 299//299 298//298 301//301
f 299//299 301//301 302//302
f 303//303 300//300 304//304
f 302//302 305//305 306//306
f 306//306 305//305 308//308
f 306//306 308//308 309//309
f 310//310 307//307 311//311
f 309//309 312//312 313//313
f 313//313 312//312 315//315
f 313//313 315//315 317//317
f 316//316 314//314 319//319
f 317//317 318//318 320//320
f 320//320 318//318 321//321
f 320//320 321//321 322//322
f 322//322 321//321 323//323
f 322//322 323//323 325//325
f 325//325 323//323 327//327
f 324//324 328//328 208//208
f 207//207 326//326 330//330
f 209//209 329//329 213//213
f 291//291 331//331 294//294
f 292//292 332//332 333//333
f 293//293 334//334 336//336
f 337//337 333//333 338//338
f 335//335 339//339 341//341
f 343//343 340//340 345//345
f 342//342 346//346 347//347
f 348//348 344//344 349//349
f 348//348 349//349 350//350
f 350//350 349//349 351//351
f 350//350 351//351 352//352
f 352//352 351//351 355//355
f 353//353 354//354 357//357
f 359//359 356//356 361//361
f 358//358 360//360 364//364
f 363//363 362//362 366//366
f 364//364 367//367 368//368
f 369//369 365//365 260//260
f 368//368 259//259 370//370
f 370//370 259//259 257//257
f 371//371 372//372 373//373
f 371//371 373//373 374//374
f 374//374 373//373 375//375
f 374//374 375//375 376//376
f 376//376 375//375 377//377
f 376//376 377//377 378//378
f 378//378 377//377 379//379
f 378//378 379//379 380//380
f 380//380 379//379 381//381
f 380//380 381//381 382//382
f 382//382 381//381 383//383
f 382//382 383//383 384//384
f 384//384 383//383 385//385
f 384//384 385//385 386//386
f 386//386 385//385 387//387
f 386//386 387//387 388//388
f 388//388 387//387 389//389
f 388//388 389//389 390//390
f 390//390 389//389 391//391
f 390//390 391//391 392//392
f 392//392 391//391 393//393
f 392//392 393//393 394//394
f 394//394 393//393 395//395
f 394//394 395//395 396//396
f 396//396 395//395 397//397
f 396//396 397//397 398//398
f 398//398 397//397 399//399
f 398//398 399//399 400//400
f 400//400 399//399 401//401
f 400//400 401//401 402//402
f 402//402 401//401 403//403
f 402//402 403//403 404//404
f 404//404 403//403 405//405
f 404//404 405//405 406//406
f 406//406 405//405 407//407
f 406//406 407//407 408//408
f 408//408 407//407 409//409
f 408//408 409//409 410//410
f 410//410 409//409 411//411
f 410//410 411//411 412//412
f 412//412 411//411 413//413
f 412//412 413//413 414//414
f 414//414 413//413 415//415
f 414//414 415//415 416//416
f 416//416 415//415 417//417
f 416//416 417//417 418//418
f 418//418 417//417 419//419
f 418//418 419//419 420//420
f 420//420 419//419 421//421
f 420//420 421//421 422//422
f 422//422 421//421 423//423
f 422//422 423//423 424//424
f 424//424 423//423 425//425
f 424//424 425//425 426//426
f 426//426 425//425 427//427
f 426//426 427//427 428//428
f 428//428 427//427 429//429
f 428//428 429//429 430//430
f 430//430 429//429 431//431
f 430//430 431//431 432//432
f 432//432 431//431 433//433
f 432//432 433//433 434//434
f 434//434 433//433 435//435
f 434//434 435//435 436//436
f 436//436 435//435 437//437
f 436//436 437//437 438//438
f 438//438 437//437 439//439
f 438//438 439//439 440//440
f 440//440 439//439 441//441
f 440//440 441//441 442//442
f 442//442 441//441 443//443
f 442//442 443//443 444//444
f 444//444 443//443 445//445
f 444//444 445//445 446//446
f 446//446 445//445 447//447
f 446//446 447//447 448//448
f 448//448 447//447 449//449
f 448//448 449//449 450//450
f 450//450 449//449 451//451
f 450//450 451//451 452//452
f 452//452 451//451 453//453
f 452//452 453//453 454//454
f 454//454 453//453 455//455
f 454//454 455//455 456//456
f 456//456 455//455 457//457
f 456//456 457//457 458//458
f 458//458 457//457 459//459
f 458//458 459//459 460//460
f 460//460 459//459 461//461
f 460//460 461//461 462//462
f 462//462 461//461 463//463
f 462//462 463//463 464//464
f 464//464 463//463 465//465
f 464//464 465//465 466//466
f 466//466 465//465 372//372
f 466//466 372//372 371//371
f 467//467 468//468 470//470
f 467//467 470//470 471//471
f 471//471 470//470 472//472
f 471//471 472//472 473//473
f 473//473 472//472 474//474
f 473//473 474//474 475//475
f 475//475 474//474 476//476
f 475//475 476//476 477//477
f 477//477 476//476 478//478
f 477//477 478//478 479//479
f 479//479 478//478 480//480
f 479//479 480//480 481//481
f 481//481 480//480 482//482
f 481//481 482//482 483//483
f 483//483 482//482 484//484
f 483//483 484//484 485//485
f 485//485 484//484 486//486
f 485//485 486//486 487//487
f 487//487 486//486 488//488
f 487//487 488//488 489//489
f 489//489 488//488 491//491
f 489//489 491//491 492//492
f 493//493 490//490 494//494
f 493//493 494//494 495//495
f 495//495 494//494 496//496
f 495//495 496//496 497//497
f 497//497 496//496 498//498
f 497//497 498//498 499//499
f 499//499 498//498 500//500
f 499//499 500//500 501//501
f 501//501 500//500 502//502
f 501//501 502//502 503//503
f 503//503 502//502 504//504
f 503//503 504//504 505//505
f 505//505 504//504 506//506
f 505//505 506//506 507//507
f 507//507 506//506 508//508
f 507//507 508//508 509//509
f 509//509 508//508 510//510
f 509//509 510//510 511//511
f 511//511 510//510 512//512
f 511//511 512//512 513//513
f 513//513 512//512 514//514
f 513//513 514//514 515//515
f 515//515 514//514 516//516
f 515//515 516//516 517//517
f 517//517 516//516 518//518
f 517//517 518//518 519//519
f 519//519 518//518 520//520
f 519//519 520//520 521//521
f 521//521 520//520 522//522
f 521//521 522//522 523//523
f 523//523 522//522 524//524
f 523//523 524//524 525//525
f 525//525 524//524 526//526
f 525//525 526//526 527//527
f 527//527 526//526 528//528
f 527//527 528//528 529//529
f 529//529 528//528 530//530
f 529//529 530//530 531//531
f 531//531 530//530 532//532
f 531//531 532//532 533//533
f 533//533 532//532 534//534
f 533//533 534//534 535//535
f 535//535 534//534 536//536
f 535//535 536//536 537//537
f 537//537 536//536 538//538
f 537//537 538//538 539//539
f 539//539 538//538 540//540
f 539//539 540//540 541//541
f 541//541 540//540 542//542
f 541//541 542//542 543//543
f 543//543 542//542 544//544
f 543//543 544//544 545//545
f 545//545 544//544 546//546
f 545//545 546//546 547//547
f 547//547 546//546 548//548
f 547//547 548//548 549//549
f 549//549 548//548 550//550
f 549//549 550//550 551//551
f 551//551 550//550 552//552
f 551//551 552//552 553//553
f 553//553 552//552 554//554
f 553//553 554//554 555//555
f 555//555 554//554 556//556
f 555//555 556//556 557//557
f 557//557 556//556 558//558
f 557//557 558//558 559//559
f 559//559 558//558 560//560
f 559//559 560//560 561//561
f 561//561 560//560 469//469
f 561//561 469//469 562//562

