# https://github.com/mikedh/trimesh
v 0.29782100 -0.00193000 -0.04730000
v 0.29782100 -0.00193000 -0.04720000
v 0.29774700 -0.00191100 -0.04720000
v 0.29774700 -0.00191100 -0.04730000
v 0.29768400 -0.00187200 -0.04720000
v 0.29768400 -0.00187200 -0.04730000
v 0.29763400 -0.00181400 -0.04720000
v 0.29763400 -0.00181400 -0.04730000
v 0.29760300 -0.00174200 -0.04720000
v 0.29760300 -0.00174200 -0.04730000
v 0.29759600 -0.00167100 -0.04720000
v 0.29759600 -0.00167100 -0.04730000
v 0.29759700 -0.00165700 -0.04720000
v 0.29759700 -0.00165700 -0.04730000
v 0.29761600 -0.00158300 -0.04720000
v 0.29761600 -0.00158300 -0.04730000
v 0.29765400 -0.00152000 -0.04720000
v 0.29765400 -0.00152000 -0.04730000
v 0.29769900 -0.00147900 -0.04720000
v 0.29769900 -0.00147900 -0.04730000
v 0.29770700 -0.00147400 -0.04730000
v 0.29770700 -0.00147400 -0.04720000
v 0.29828700 -0.00105800 -0.04730000
v 0.29828700 -0.00105800 -0.04720000
v 0.29848800 -0.00091300 -0.04730000
v 0.29848800 -0.00091300 -0.04720000
v 0.29850700 -0.00089800 -0.04730000
v 0.29850700 -0.00089800 -0.04720000
v 0.29852500 -0.00088500 -0.04730000
v 0.29852500 -0.00088500 -0.04730000
v 0.29852500 -0.00088500 -0.04720000
v 0.29869400 -0.00075600 -0.04730000
v 0.29869400 -0.00075600 -0.04720000
v 0.29869400 -0.00075600 -0.04720000
v 0.29867800 -0.00073800 -0.04730000
v 0.29867800 -0.00073800 -0.04730000
v 0.29867800 -0.00073800 -0.04730000
v 0.29869400 -0.00075600 -0.04730000
v 0.29869400 -0.00075600 -0.04730000
v 0.29867800 -0.00073800 -0.04720000
v 0.29867800 -0.00073800 -0.04720000
v 0.29867800 -0.00073800 -0.04720000
v 0.29869400 -0.00075600 -0.04720000
v 0.29835400 -0.00039200 -0.04730000
v 0.29835400 -0.00039200 -0.04730000
v 0.29835400 -0.00039200 -0.04720000
v 0.29835400 -0.00039200 -0.04720000
v 0.29835400 -0.00039200 -0.04720000
v 0.29786600 0.00012700 -0.04730000
v 0.29786600 0.00012700 -0.04720000
v 0.29785900 0.00013400 -0.04730000
v 0.29785900 0.00013400 -0.04720000
v 0.29781600 0.00019800 -0.04720000
v 0.29781600 0.00019800 -0.04730000
v 0.29779500 0.00027300 -0.04720000
v 0.29779500 0.00027300 -0.04730000
v 0.29779400 0.00032900 -0.04720000
v 0.29779400 0.00032900 -0.04730000
v 0.29781300 0.00040200 -0.04720000
v 0.29781300 0.00040200 -0.04730000
v 0.29785200 0.00046500 -0.04720000
v 0.29785200 0.00046500 -0.04730000
v 0.29791000 0.00051600 -0.04720000
v 0.29791000 0.00051600 -0.04730000
v 0.29798200 0.00054600 -0.04720000
v 0.29798200 0.00054600 -0.04730000
v 0.29805400 0.00055300 -0.04720000
v 0.29805400 0.00055300 -0.04730000
v 0.29806700 0.00055200 -0.04720000
v 0.29806700 0.00055200 -0.04730000
v 0.29814100 0.00053300 -0.04720000
v 0.29814100 0.00053300 -0.04730000
v 0.29820400 0.00049400 -0.04720000
v 0.29820400 0.00049400 -0.04730000
v 0.29825300 0.00043700 -0.04720000
v 0.29825300 0.00043700 -0.04730000
v 0.29903400 -0.00040300 -0.04730000
v 0.29903400 -0.00040300 -0.04720000
v 0.29905100 -0.00042000 -0.04720000
v 0.29905100 -0.00042000 -0.04730000
v 0.29906700 -0.00043900 -0.04720000
v 0.29906700 -0.00043900 -0.04730000
v 0.29908000 -0.00045100 -0.04720000
v 0.29908000 -0.00045100 -0.04730000
v 0.29909200 -0.00046500 -0.04720000
v 0.29909200 -0.00046500 -0.04730000
v 0.29909200 -0.00046500 -0.04720000
v 0.29912000 -0.00044100 -0.04720000
v 0.29909200 -0.00046500 -0.04730000
v 0.29912000 -0.00044100 -0.04730000
v 0.29916200 -0.00041000 -0.04730000
v 0.29916200 -0.00041000 -0.04730000
v 0.29916200 -0.00041000 -0.04730000
v 0.29916200 -0.00041000 -0.04720000
v 0.29916200 -0.00041000 -0.04720000
v 0.29927600 -0.00032700 -0.04730000
v 0.29927600 -0.00032700 -0.04730000
v 0.29927600 -0.00032700 -0.04730000
v 0.29927600 -0.00032700 -0.04720000
v 0.29927600 -0.00032700 -0.04720000
v 0.29927600 -0.00032700 -0.04720000
v 0.29934300 -0.00027900 -0.04730000
v 0.29934300 -0.00027900 -0.04730000
v 0.29934300 -0.00027900 -0.04720000
v 0.29934300 -0.00027900 -0.04720000
v 0.29934300 -0.00027900 -0.04720000
v 0.30012600 0.00028900 -0.04730000
v 0.30012600 0.00028900 -0.04720000
v 0.30013600 0.00029600 -0.04730000
v 0.30013600 0.00029600 -0.04720000
v 0.30020600 0.00032900 -0.04720000
v 0.30020600 0.00032900 -0.04730000
v 0.30027600 0.00034000 -0.04720000
v 0.30027600 0.00034000 -0.04730000
v 0.30030100 0.00033900 -0.04720000
v 0.30030100 0.00033900 -0.04730000
v 0.30037500 0.00032000 -0.04720000
v 0.30037500 0.00032000 -0.04730000
v 0.30043800 0.00028100 -0.04720000
v 0.30043800 0.00028100 -0.04730000
v 0.30048800 0.00022300 -0.04720000
v 0.30048800 0.00022300 -0.04730000
v 0.30051900 0.00015100 -0.04720000
v 0.30051900 0.00015100 -0.04730000
v 0.30052600 0.00007900 -0.04720000
v 0.30052600 0.00007900 -0.04730000
v 0.30052500 0.00006600 -0.04720000
v 0.30052500 0.00006600 -0.04730000
v 0.30050600 -0.00000800 -0.04720000
v 0.30050600 -0.00000800 -0.04730000
v 0.30046800 -0.00007100 -0.04720000
v 0.30046800 -0.00007100 -0.04730000
v 0.30042300 -0.00011200 -0.04720000
v 0.30042300 -0.00011200 -0.04730000
v 0.30041500 -0.00011800 -0.04730000
v 0.30041500 -0.00011800 -0.04720000
v 0.29983500 -0.00053400 -0.04730000
v 0.29983500 -0.00053400 -0.04720000
v 0.29963500 -0.00067800 -0.04730000
v 0.29963500 -0.00067800 -0.04720000
v 0.29961500 -0.00069300 -0.04730000
v 0.29961500 -0.00069300 -0.04730000
v 0.29961500 -0.00069300 -0.04720000
v 0.29959700 -0.00070700 -0.04730000
v 0.29959700 -0.00070700 -0.04730000
v 0.29959700 -0.00070700 -0.04730000
v 0.29959700 -0.00070700 -0.04720000
v 0.29959700 -0.00070700 -0.04720000
v 0.29959700 -0.00070700 -0.04720000
v 0.29942800 -0.00083600 -0.04730000
v 0.29942800 -0.00083600 -0.04720000
v 0.29942800 -0.00083600 -0.04720000
v 0.29944400 -0.00085400 -0.04730000
v 0.29942800 -0.00083600 -0.04730000
v 0.29944400 -0.00085400 -0.04720000
v 0.29942800 -0.00083600 -0.04720000
v 0.29976800 -0.00119900 -0.04730000
v 0.29976800 -0.00119900 -0.04720000
v 0.30025600 -0.00171900 -0.04730000
v 0.30025600 -0.00171900 -0.04720000
v 0.30026300 -0.00172600 -0.04730000
v 0.30026300 -0.00172600 -0.04720000
v 0.30030600 -0.00179000 -0.04720000
v 0.30030600 -0.00179000 -0.04730000
v 0.30032700 -0.00186500 -0.04720000
v 0.30032700 -0.00186500 -0.04730000
v 0.30032800 -0.00192000 -0.04720000
v 0.30032800 -0.00192000 -0.04730000
v 0.30030900 -0.00199400 -0.04720000
v 0.30030900 -0.00199400 -0.04730000
v 0.30027000 -0.00205600 -0.04720000
v 0.30027000 -0.00205600 -0.04730000
v 0.30021200 -0.00210700 -0.04720000
v 0.30021200 -0.00210700 -0.04730000
v 0.30014000 -0.00213800 -0.04720000
v 0.30014000 -0.00213800 -0.04730000
v 0.30006800 -0.00214500 -0.04720000
v 0.30006800 -0.00214500 -0.04730000
v 0.30005500 -0.00214400 -0.04720000
v 0.30005500 -0.00214400 -0.04730000
v 0.29998100 -0.00212500 -0.04720000
v 0.29998100 -0.00212500 -0.04730000
v 0.29991900 -0.00208600 -0.04720000
v 0.29991900 -0.00208600 -0.04730000
v 0.29986900 -0.00202800 -0.04720000
v 0.29986900 -0.00202800 -0.04730000
v 0.29908800 -0.00118900 -0.04730000
v 0.29908800 -0.00118900 -0.04720000
v 0.29907100 -0.00117100 -0.04720000
v 0.29907100 -0.00117100 -0.04730000
v 0.29905500 -0.00115300 -0.04720000
v 0.29905500 -0.00115300 -0.04730000
v 0.29904200 -0.00114000 -0.04720000
v 0.29904200 -0.00114000 -0.04730000
v 0.29902900 -0.00112600 -0.04720000
v 0.29902900 -0.00112600 -0.04730000
v 0.29902900 -0.00112600 -0.04730000
v 0.29902900 -0.00112600 -0.04720000
v 0.29901600 -0.00113800 -0.04720000
v 0.29901600 -0.00113800 -0.04730000
v 0.29900100 -0.00115200 -0.04720000
v 0.29900100 -0.00115200 -0.04730000
v 0.29896000 -0.00118100 -0.04730000
v 0.29896000 -0.00118100 -0.04730000
v 0.29896000 -0.00118100 -0.04720000
v 0.29884600 -0.00126400 -0.04730000
v 0.29884600 -0.00126400 -0.04730000
v 0.29884600 -0.00126400 -0.04730000
v 0.29884600 -0.00126400 -0.04720000
v 0.29884600 -0.00126400 -0.04720000
v 0.29884600 -0.00126400 -0.04720000
v 0.29877900 -0.00131300 -0.04730000
v 0.29877900 -0.00131300 -0.04730000
v 0.29877900 -0.00131300 -0.04720000
v 0.29877900 -0.00131300 -0.04720000
v 0.29877900 -0.00131300 -0.04720000
v 0.29799500 -0.00188100 -0.04730000
v 0.29799500 -0.00188100 -0.04720000
v 0.29798600 -0.00188700 -0.04730000
v 0.29798600 -0.00188700 -0.04720000
v 0.29791700 -0.00192000 -0.04720000
v 0.29791700 -0.00192000 -0.04730000
v 0.29784600 -0.00193100 -0.04720000
v 0.29784600 -0.00193100 -0.04730000
v 0.29942800 -0.00083600 -0.04730000
v 0.29942800 -0.00083600 -0.04730000
v 0.29942800 -0.00083600 -0.04730000
v 0.29942800 -0.00083600 -0.04730000
v 0.29909200 -0.00046500 -0.04730000
v 0.29909200 -0.00046500 -0.04730000
v 0.29909200 -0.00046500 -0.04730000
v 0.29912000 -0.00044100 -0.04730000
v 0.29912000 -0.00044100 -0.04730000
v 0.30025600 -0.00171900 -0.04730000
v 0.30025600 -0.00171900 -0.04730000
v 0.29991900 -0.00208600 -0.04730000
v 0.29991900 -0.00208600 -0.04730000
v 0.29991900 -0.00208600 -0.04730000
v 0.29986900 -0.00202800 -0.04730000
v 0.29986900 -0.00202800 -0.04730000
v 0.29986900 -0.00202800 -0.04730000
v 0.29770700 -0.00147400 -0.04730000
v 0.29770700 -0.00147400 -0.04730000
v 0.29798600 -0.00188700 -0.04730000
v 0.29798600 -0.00188700 -0.04730000
v 0.29798600 -0.00188700 -0.04730000
v 0.29798600 -0.00188700 -0.04730000
v 0.29769900 -0.00147900 -0.04730000
v 0.29869400 -0.00075600 -0.04730000
v 0.29869400 -0.00075600 -0.04730000
v 0.29867800 -0.00073800 -0.04730000
v 0.29867800 -0.00073800 -0.04730000
v 0.29908000 -0.00045100 -0.04730000
v 0.29867800 -0.00073800 -0.04730000
v 0.29867800 -0.00073800 -0.04730000
v 0.29867800 -0.00073800 -0.04730000
v 0.29906700 -0.00043900 -0.04730000
v 0.29906700 -0.00043900 -0.04730000
v 0.30042300 -0.00011200 -0.04730000
v 0.30042300 -0.00011200 -0.04730000
v 0.30042300 -0.00011200 -0.04730000
v 0.30012600 0.00028900 -0.04730000
v 0.30012600 0.00028900 -0.04730000
v 0.30012600 0.00028900 -0.04730000
v 0.30013600 0.00029600 -0.04730000
v 0.30013600 0.00029600 -0.04730000
v 0.30013600 0.00029600 -0.04730000
v 0.29786600 0.00012700 -0.04730000
v 0.29786600 0.00012700 -0.04730000
v 0.29786600 0.00012700 -0.04730000
v 0.29825300 0.00043700 -0.04730000
v 0.29825300 0.00043700 -0.04730000
v 0.29835400 -0.00039200 -0.04730000
v 0.29903400 -0.00040300 -0.04730000
v 0.29903400 -0.00040300 -0.04730000
v 0.29905100 -0.00042000 -0.04730000
v 0.29905100 -0.00042000 -0.04730000
v 0.29976800 -0.00119900 -0.04730000
v 0.29976800 -0.00119900 -0.04730000
v 0.29908800 -0.00118900 -0.04730000
v 0.29908800 -0.00118900 -0.04730000
v 0.29944400 -0.00085400 -0.04730000
v 0.29907100 -0.00117100 -0.04730000
v 0.29907100 -0.00117100 -0.04730000
v 0.29944400 -0.00085400 -0.04730000
v 0.29944400 -0.00085400 -0.04730000
v 0.29944400 -0.00085400 -0.04730000
v 0.29905500 -0.00115300 -0.04730000
v 0.29905500 -0.00115300 -0.04730000
v 0.29904200 -0.00114000 -0.04730000
v 0.29904200 -0.00114000 -0.04730000
v 0.29904200 -0.00114000 -0.04730000
v 0.29902900 -0.00112600 -0.04730000
v 0.29902900 -0.00112600 -0.04730000
v 0.29901600 -0.00113800 -0.04730000
v 0.29901600 -0.00113800 -0.04730000
v 0.29869400 -0.00075600 -0.04730000
v 0.29869400 -0.00075600 -0.04730000
v 0.29869400 -0.00075600 -0.04730000
v 0.29900100 -0.00115200 -0.04730000
v 0.29900100 -0.00115200 -0.04730000
v 0.30025600 -0.00171900 -0.04730000
v 0.30026300 -0.00172600 -0.04730000
v 0.30026300 -0.00172600 -0.04730000
v 0.29998100 -0.00212500 -0.04730000
v 0.30026300 -0.00172600 -0.04730000
v 0.30026300 -0.00172600 -0.04730000
v 0.30005500 -0.00214400 -0.04730000
v 0.29799500 -0.00188100 -0.04730000
v 0.29799500 -0.00188100 -0.04730000
v 0.29799500 -0.00188100 -0.04730000
v 0.29770700 -0.00147400 -0.04730000
v 0.29828700 -0.00105800 -0.04730000
v 0.29828700 -0.00105800 -0.04730000
v 0.29877900 -0.00131300 -0.04730000
v 0.29877900 -0.00131300 -0.04730000
v 0.29877900 -0.00131300 -0.04730000
v 0.29877900 -0.00131300 -0.04730000
v 0.29896000 -0.00118100 -0.04730000
v 0.29896000 -0.00118100 -0.04730000
v 0.29896000 -0.00118100 -0.04730000
v 0.29852500 -0.00088500 -0.04730000
v 0.29852500 -0.00088500 -0.04730000
v 0.29884600 -0.00126400 -0.04730000
v 0.29884600 -0.00126400 -0.04730000
v 0.29850700 -0.00089800 -0.04730000
v 0.29850700 -0.00089800 -0.04730000
v 0.29848800 -0.00091300 -0.04730000
v 0.29848800 -0.00091300 -0.04730000
v 0.29828700 -0.00105800 -0.04730000
v 0.29791700 -0.00192000 -0.04730000
v 0.29759600 -0.00167100 -0.04730000
v 0.29759600 -0.00167100 -0.04730000
v 0.29759700 -0.00165700 -0.04730000
v 0.29759700 -0.00165700 -0.04730000
v 0.29781600 0.00019800 -0.04730000
v 0.29781600 0.00019800 -0.04730000
v 0.29779500 0.00027300 -0.04730000
v 0.29779500 0.00027300 -0.04730000
v 0.29805400 0.00055300 -0.04730000
v 0.29805400 0.00055300 -0.04730000
v 0.29805400 0.00055300 -0.04730000
v 0.29805400 0.00055300 -0.04730000
v 0.29805400 0.00055300 -0.04730000
v 0.29806700 0.00055200 -0.04730000
v 0.29814100 0.00053300 -0.04730000
v 0.29814100 0.00053300 -0.04730000
v 0.29786600 0.00012700 -0.04730000
v 0.29786600 0.00012700 -0.04730000
v 0.29820400 0.00049400 -0.04730000
v 0.29820400 0.00049400 -0.04730000
v 0.29983500 -0.00053400 -0.04730000
v 0.29983500 -0.00053400 -0.04730000
v 0.29934300 -0.00027900 -0.04730000
v 0.29934300 -0.00027900 -0.04730000
v 0.29934300 -0.00027900 -0.04730000
v 0.30041500 -0.00011800 -0.04730000
v 0.30041500 -0.00011800 -0.04730000
v 0.29916200 -0.00041000 -0.04730000
v 0.29916200 -0.00041000 -0.04730000
v 0.29959700 -0.00070700 -0.04730000
v 0.29916200 -0.00041000 -0.04730000
v 0.29927600 -0.00032700 -0.04730000
v 0.29961500 -0.00069300 -0.04730000
v 0.29927600 -0.00032700 -0.04730000
v 0.29934300 -0.00027900 -0.04730000
v 0.29963500 -0.00067800 -0.04730000
v 0.29963500 -0.00067800 -0.04730000
v 0.30006800 -0.00214500 -0.04730000
v 0.30006800 -0.00214500 -0.04730000
v 0.30006800 -0.00214500 -0.04730000
v 0.30006800 -0.00214500 -0.04730000
v 0.30006800 -0.00214500 -0.04730000
v 0.30030600 -0.00179000 -0.04730000
v 0.30030600 -0.00179000 -0.04730000
v 0.30032700 -0.00186500 -0.04730000
v 0.30032700 -0.00186500 -0.04730000
v 0.29768400 -0.00187200 -0.04730000
v 0.29768400 -0.00187200 -0.04730000
v 0.29763400 -0.00181400 -0.04730000
v 0.29760300 -0.00174200 -0.04730000
v 0.29760300 -0.00174200 -0.04730000
v 0.29760300 -0.00174200 -0.04730000
v 0.29760300 -0.00174200 -0.04730000
v 0.29785900 0.00013400 -0.04730000
v 0.29785900 0.00013400 -0.04730000
v 0.30052500 0.00006600 -0.04730000
v 0.30052500 0.00006600 -0.04730000
v 0.30013600 0.00029600 -0.04730000
v 0.30013600 0.00029600 -0.04730000
v 0.30013600 0.00029600 -0.04730000
v 0.30052600 0.00007900 -0.04730000
v 0.30052600 0.00007900 -0.04730000
v 0.30052600 0.00007900 -0.04730000
v 0.30052600 0.00007900 -0.04730000
v 0.30020600 0.00032900 -0.04730000
v 0.30020600 0.00032900 -0.04730000
v 0.30032800 -0.00192000 -0.04730000
v 0.30032800 -0.00192000 -0.04730000
v 0.30030900 -0.00199400 -0.04730000
v 0.30030900 -0.00199400 -0.04730000
v 0.30014000 -0.00213800 -0.04730000
v 0.30014000 -0.00213800 -0.04730000
v 0.30014000 -0.00213800 -0.04730000
v 0.30030900 -0.00199400 -0.04730000
v 0.30027000 -0.00205600 -0.04730000
v 0.30027000 -0.00205600 -0.04730000
v 0.30021200 -0.00210700 -0.04730000
v 0.29761600 -0.00158300 -0.04730000
v 0.29761600 -0.00158300 -0.04730000
v 0.29765400 -0.00152000 -0.04730000
v 0.29765400 -0.00152000 -0.04730000
v 0.29779400 0.00032900 -0.04730000
v 0.29779400 0.00032900 -0.04730000
v 0.29781300 0.00040200 -0.04730000
v 0.29781300 0.00040200 -0.04730000
v 0.29798200 0.00054600 -0.04730000
v 0.29798200 0.00054600 -0.04730000
v 0.29798200 0.00054600 -0.04730000
v 0.29781300 0.00040200 -0.04730000
v 0.29785200 0.00046500 -0.04730000
v 0.29785200 0.00046500 -0.04730000
v 0.29791000 0.00051600 -0.04730000
v 0.30043800 0.00028100 -0.04730000
v 0.30043800 0.00028100 -0.04730000
v 0.30048800 0.00022300 -0.04730000
v 0.30051900 0.00015100 -0.04730000
v 0.30051900 0.00015100 -0.04730000
v 0.30051900 0.00015100 -0.04730000
v 0.30051900 0.00015100 -0.04730000
v 0.30050600 -0.00000800 -0.04730000
v 0.30050600 -0.00000800 -0.04730000
v 0.30046800 -0.00007100 -0.04730000
v 0.30046800 -0.00007100 -0.04730000
v 0.29784600 -0.00193100 -0.04730000
v 0.29784600 -0.00193100 -0.04730000
v 0.29759600 -0.00167100 -0.04730000
v 0.29759600 -0.00167100 -0.04730000
v 0.29782100 -0.00193000 -0.04730000
v 0.29782100 -0.00193000 -0.04730000
v 0.29782100 -0.00193000 -0.04730000
v 0.29774700 -0.00191100 -0.04730000
v 0.29774700 -0.00191100 -0.04730000
v 0.30027600 0.00034000 -0.04730000
v 0.30027600 0.00034000 -0.04730000
v 0.30030100 0.00033900 -0.04730000
v 0.30030100 0.00033900 -0.04730000
v 0.30030100 0.00033900 -0.04730000
v 0.30037500 0.00032000 -0.04730000
v 0.30037500 0.00032000 -0.04730000
v 0.29986900 -0.00202800 -0.04720000
v 0.29986900 -0.00202800 -0.04720000
v 0.29991900 -0.00208600 -0.04720000
v 0.29991900 -0.00208600 -0.04720000
v 0.29991900 -0.00208600 -0.04720000
v 0.30025600 -0.00171900 -0.04720000
v 0.30025600 -0.00171900 -0.04720000
v 0.30025600 -0.00171900 -0.04720000
v 0.29961500 -0.00069300 -0.04720000
v 0.29961500 -0.00069300 -0.04720000
v 0.29963500 -0.00067800 -0.04720000
v 0.29963500 -0.00067800 -0.04720000
v 0.29934300 -0.00027900 -0.04720000
v 0.29934300 -0.00027900 -0.04720000
v 0.29934300 -0.00027900 -0.04720000
v 0.29934300 -0.00027900 -0.04720000
v 0.29934300 -0.00027900 -0.04720000
v 0.29934300 -0.00027900 -0.04720000
v 0.29912000 -0.00044100 -0.04720000
v 0.29912000 -0.00044100 -0.04720000
v 0.29909200 -0.00046500 -0.04720000
v 0.29909200 -0.00046500 -0.04720000
v 0.29909200 -0.00046500 -0.04720000
v 0.29909200 -0.00046500 -0.04720000
v 0.29942800 -0.00083600 -0.04720000
v 0.29942800 -0.00083600 -0.04720000
v 0.29942800 -0.00083600 -0.04720000
v 0.29942800 -0.00083600 -0.04720000
v 0.29942800 -0.00083600 -0.04720000
v 0.29916200 -0.00041000 -0.04720000
v 0.29916200 -0.00041000 -0.04720000
v 0.29806700 0.00055200 -0.04720000
v 0.29806700 0.00055200 -0.04720000
v 0.29805400 0.00055300 -0.04720000
v 0.29805400 0.00055300 -0.04720000
v 0.29805400 0.00055300 -0.04720000
v 0.29805400 0.00055300 -0.04720000
v 0.29805400 0.00055300 -0.04720000
v 0.29805400 0.00055300 -0.04720000
v 0.29786600 0.00012700 -0.04720000
v 0.29786600 0.00012700 -0.04720000
v 0.29786600 0.00012700 -0.04720000
v 0.29786600 0.00012700 -0.04720000
v 0.29786600 0.00012700 -0.04720000
v 0.29786600 0.00012700 -0.04720000
v 0.29770700 -0.00147400 -0.04720000
v 0.29770700 -0.00147400 -0.04720000
v 0.29770700 -0.00147400 -0.04720000
v 0.29769900 -0.00147900 -0.04720000
v 0.29765400 -0.00152000 -0.04720000
v 0.29765400 -0.00152000 -0.04720000
v 0.29765400 -0.00152000 -0.04720000
v 0.29791700 -0.00192000 -0.04720000
v 0.29791700 -0.00192000 -0.04720000
v 0.29798600 -0.00188700 -0.04720000
v 0.29798600 -0.00188700 -0.04720000
v 0.29798600 -0.00188700 -0.04720000
v 0.29798600 -0.00188700 -0.04720000
v 0.29798600 -0.00188700 -0.04720000
v 0.29759600 -0.00167100 -0.04720000
v 0.29759600 -0.00167100 -0.04720000
v 0.29759600 -0.00167100 -0.04720000
v 0.29867800 -0.00073800 -0.04720000
v 0.29867800 -0.00073800 -0.04720000
v 0.29867800 -0.00073800 -0.04720000
v 0.29867800 -0.00073800 -0.04720000
v 0.29908000 -0.00045100 -0.04720000
v 0.29908000 -0.00045100 -0.04720000
v 0.29869400 -0.00075600 -0.04720000
v 0.29869400 -0.00075600 -0.04720000
v 0.29869400 -0.00075600 -0.04720000
v 0.29869400 -0.00075600 -0.04720000
v 0.29869400 -0.00075600 -0.04720000
v 0.29869400 -0.00075600 -0.04720000
v 0.29869400 -0.00075600 -0.04720000
v 0.29869400 -0.00075600 -0.04720000
v 0.29944400 -0.00085400 -0.04720000
v 0.29944400 -0.00085400 -0.04720000
v 0.29944400 -0.00085400 -0.04720000
v 0.29944400 -0.00085400 -0.04720000
v 0.29944400 -0.00085400 -0.04720000
v 0.29944400 -0.00085400 -0.04720000
v 0.29814100 0.00053300 -0.04720000
v 0.29814100 0.00053300 -0.04720000
v 0.29884600 -0.00126400 -0.04720000
v 0.29884600 -0.00126400 -0.04720000
v 0.29884600 -0.00126400 -0.04720000
v 0.29896000 -0.00118100 -0.04720000
v 0.29896000 -0.00118100 -0.04720000
v 0.29900100 -0.00115200 -0.04720000
v 0.29900100 -0.00115200 -0.04720000
v 0.29903400 -0.00040300 -0.04720000
v 0.29903400 -0.00040300 -0.04720000
v 0.29835400 -0.00039200 -0.04720000
v 0.29835400 -0.00039200 -0.04720000
v 0.29835400 -0.00039200 -0.04720000
v 0.29835400 -0.00039200 -0.04720000
v 0.29905100 -0.00042000 -0.04720000
v 0.29905100 -0.00042000 -0.04720000
v 0.29906700 -0.00043900 -0.04720000
v 0.29825300 0.00043700 -0.04720000
v 0.29825300 0.00043700 -0.04720000
v 0.29825300 0.00043700 -0.04720000
v 0.29759700 -0.00165700 -0.04720000
v 0.29759700 -0.00165700 -0.04720000
v 0.29852500 -0.00088500 -0.04720000
v 0.29852500 -0.00088500 -0.04720000
v 0.29850700 -0.00089800 -0.04720000
v 0.29877900 -0.00131300 -0.04720000
v 0.29905500 -0.00115300 -0.04720000
v 0.29905500 -0.00115300 -0.04720000
v 0.29904200 -0.00114000 -0.04720000
v 0.29904200 -0.00114000 -0.04720000
v 0.29902900 -0.00112600 -0.04720000
v 0.29902900 -0.00112600 -0.04720000
v 0.29902900 -0.00112600 -0.04720000
v 0.29901600 -0.00113800 -0.04720000
v 0.29901600 -0.00113800 -0.04720000
v 0.29959700 -0.00070700 -0.04720000
v 0.29959700 -0.00070700 -0.04720000
v 0.29959700 -0.00070700 -0.04720000
v 0.29927600 -0.00032700 -0.04720000
v 0.29927600 -0.00032700 -0.04720000
v 0.29927600 -0.00032700 -0.04720000
v 0.30050600 -0.00000800 -0.04720000
v 0.30050600 -0.00000800 -0.04720000
v 0.30052500 0.00006600 -0.04720000
v 0.30052500 0.00006600 -0.04720000
v 0.30013600 0.00029600 -0.04720000
v 0.30013600 0.00029600 -0.04720000
v 0.30013600 0.00029600 -0.04720000
v 0.30013600 0.00029600 -0.04720000
v 0.30052600 0.00007900 -0.04720000
v 0.30052600 0.00007900 -0.04720000
v 0.30052600 0.00007900 -0.04720000
v 0.30052600 0.00007900 -0.04720000
v 0.30052600 0.00007900 -0.04720000
v 0.30020600 0.00032900 -0.04720000
v 0.30020600 0.00032900 -0.04720000
v 0.29820400 0.00049400 -0.04720000
v 0.29820400 0.00049400 -0.04720000
v 0.29799500 -0.00188100 -0.04720000
v 0.29828700 -0.00105800 -0.04720000
v 0.29848800 -0.00091300 -0.04720000
v 0.30026300 -0.00172600 -0.04720000
v 0.30026300 -0.00172600 -0.04720000
v 0.30026300 -0.00172600 -0.04720000
v 0.30026300 -0.00172600 -0.04720000
v 0.30026300 -0.00172600 -0.04720000
v 0.29998100 -0.00212500 -0.04720000
v 0.29998100 -0.00212500 -0.04720000
v 0.30005500 -0.00214400 -0.04720000
v 0.30005500 -0.00214400 -0.04720000
v 0.29907100 -0.00117100 -0.04720000
v 0.29907100 -0.00117100 -0.04720000
v 0.29908800 -0.00118900 -0.04720000
v 0.29908800 -0.00118900 -0.04720000
v 0.29908800 -0.00118900 -0.04720000
v 0.29908800 -0.00118900 -0.04720000
v 0.29976800 -0.00119900 -0.04720000
v 0.29976800 -0.00119900 -0.04720000
v 0.29779500 0.00027300 -0.04720000
v 0.29779500 0.00027300 -0.04720000
v 0.29781600 0.00019800 -0.04720000
v 0.29781600 0.00019800 -0.04720000
v 0.29785900 0.00013400 -0.04720000
v 0.29785900 0.00013400 -0.04720000
v 0.30006800 -0.00214500 -0.04720000
v 0.30006800 -0.00214500 -0.04720000
v 0.30006800 -0.00214500 -0.04720000
v 0.30032700 -0.00186500 -0.04720000
v 0.30032700 -0.00186500 -0.04720000
v 0.30030600 -0.00179000 -0.04720000
v 0.29983500 -0.00053400 -0.04720000
v 0.29983500 -0.00053400 -0.04720000
v 0.30041500 -0.00011800 -0.04720000
v 0.30041500 -0.00011800 -0.04720000
v 0.30041500 -0.00011800 -0.04720000
v 0.30012600 0.00028900 -0.04720000
v 0.30012600 0.00028900 -0.04720000
v 0.30042300 -0.00011200 -0.04720000
v 0.30042300 -0.00011200 -0.04720000
v 0.30042300 -0.00011200 -0.04720000
v 0.30046800 -0.00007100 -0.04720000
v 0.30046800 -0.00007100 -0.04720000
v 0.30051900 0.00015100 -0.04720000
v 0.30051900 0.00015100 -0.04720000
v 0.30051900 0.00015100 -0.04720000
v 0.30051900 0.00015100 -0.04720000
v 0.30030100 0.00033900 -0.04720000
v 0.30030100 0.00033900 -0.04720000
v 0.30030100 0.00033900 -0.04720000
v 0.30027600 0.00034000 -0.04720000
v 0.30027600 0.00034000 -0.04720000
v 0.29791000 0.00051600 -0.04720000
v 0.29785200 0.00046500 -0.04720000
v 0.29785200 0.00046500 -0.04720000
v 0.29798200 0.00054600 -0.04720000
v 0.29798200 0.00054600 -0.04720000
v 0.29781300 0.00040200 -0.04720000
v 0.29781300 0.00040200 -0.04720000
v 0.29781300 0.00040200 -0.04720000
v 0.29779400 0.00032900 -0.04720000
v 0.29779400 0.00032900 -0.04720000
v 0.29761600 -0.00158300 -0.04720000
v 0.29761600 -0.00158300 -0.04720000
v 0.29760300 -0.00174200 -0.04720000
v 0.29760300 -0.00174200 -0.04720000
v 0.29782100 -0.00193000 -0.04720000
v 0.29782100 -0.00193000 -0.04720000
v 0.29782100 -0.00193000 -0.04720000
v 0.29784600 -0.00193100 -0.04720000
v 0.29784600 -0.00193100 -0.04720000
v 0.30021200 -0.00210700 -0.04720000
v 0.30027000 -0.00205600 -0.04720000
v 0.30014000 -0.00213800 -0.04720000
v 0.30030900 -0.00199400 -0.04720000
v 0.30030900 -0.00199400 -0.04720000
v 0.30032800 -0.00192000 -0.04720000
v 0.30032800 -0.00192000 -0.04720000
v 0.30048800 0.00022300 -0.04720000
v 0.30043800 0.00028100 -0.04720000
v 0.30043800 0.00028100 -0.04720000
v 0.30037500 0.00032000 -0.04720000
v 0.30037500 0.00032000 -0.04720000
v 0.29763400 -0.00181400 -0.04720000
v 0.29768400 -0.00187200 -0.04720000
v 0.29774700 -0.00191100 -0.04720000
v 0.29774700 -0.00191100 -0.04720000
vn -0.18143800 -0.98340200 0.00000000
vn -0.11363300 -0.99352300 0.00000100
vn -0.34417200 -0.93890700 0.00000000
vn -0.43757200 -0.89918300 0.00002500
vn -0.60857700 -0.79349500 0.00000000
vn -0.68601700 -0.72758600 0.00002300
vn -0.81928200 -0.57339100 0.00000000
vn -0.87456100 -0.48491600 0.00000000
vn -0.95454700 -0.29806100 0.00000000
vn -0.97979100 -0.20002300 -0.00000200
vn -0.99905500 -0.04346900 -0.00001000
vn -0.99989800 0.01424900 0.00000000
vn -0.99147300 0.13031400 0.00000000
vn -0.98205600 0.18859200 0.00000000
vn -0.93951400 0.34251100 -0.00002400
vn -0.89983000 0.43624100 -0.00000200
vn -0.80033000 0.59956000 0.00000000
vn -0.74235200 0.67001000 0.00002200
vn -0.63518800 0.77235700 -0.00001100
vn -0.58951700 0.80775600 0.00000000
vn -0.56951500 0.82198100 0.00000000
vn -0.55582800 0.83129700 0.00000000
vn -0.58287700 0.81256000 0.00000000
vn -0.58287900 0.81255900 0.00000000
vn -0.61581800 0.78788800 0.00000000
vn -0.59939300 0.80045500 0.00000000
vn -0.60891100 0.79323800 0.00000300
vn -0.62051400 0.78419500 0.00000000
vn -0.60331300 0.79750400 0.00000000
vn -0.60326300 0.79754300 0.00000000
vn -0.60030100 0.79977400 0.00000000
vn -0.60659600 0.79501000 0.00000000
vn -0.60659600 0.79501000 0.00000000
vn -0.60642500 0.79514100 0.00000000
vn -0.72897300 -0.68454200 0.00000000
vn -0.72901000 -0.68450300 0.00000000
vn -0.72903600 -0.68447600 -0.00000000
vn -0.72736300 -0.68625200 0.00000000
vn -0.72747800 -0.68613100 0.00000000
vn -0.72835000 -0.68520600 0.00000000
vn -0.72822200 -0.68534200 0.00000000
vn -0.72807000 -0.68550300 0.00000000
vn -0.72747800 -0.68613100 0.00000000
vn -0.72969200 -0.68377600 0.00000000
vn -0.72924000 -0.68425800 0.00000000
vn -0.72973100 -0.68373400 0.00000000
vn -0.72969200 -0.68377600 0.00000000
vn -0.72924000 -0.68425800 0.00000000
vn -0.71452000 -0.69961500 0.00000000
vn -0.72190300 -0.69199400 0.00000000
vn -0.79191900 -0.61062700 0.00000000
vn -0.75094900 -0.66036000 -0.00001500
vn -0.88306000 -0.46926000 -0.00002000
vn -0.92746900 -0.37390100 0.00002000
vn -0.98210700 -0.18832100 0.00000200
vn -0.99509200 -0.09895800 0.00001700
vn -0.99703000 0.07701300 0.00000200
vn -0.98655400 0.16343500 0.00000000
vn -0.93889500 0.34420300 0.00001700
vn -0.89915200 0.43763600 -0.00000200
vn -0.79346000 0.60862300 -0.00002900
vn -0.72752500 0.68608100 0.00002000
vn -0.57335600 0.81930600 0.00000000
vn -0.48492600 0.87455500 0.00002500
vn -0.29775800 0.95464100 0.00000000
vn -0.19941900 0.97991400 0.00000000
vn -0.04275500 0.99908600 0.00000100
vn 0.01473800 0.99989100 0.00000000
vn 0.13196600 0.99125400 0.00000000
vn 0.19158600 0.98147600 0.00001500
vn 0.34656500 0.93802600 -0.00002200
vn 0.44006900 0.89796400 0.00000000
vn 0.61056600 0.79196500 0.00000000
vn 0.68750100 0.72618400 0.00001900
vn 0.74880400 0.66279200 0.00000000
vn 0.74083000 0.67169300 0.00000000
vn 0.71298600 0.70117800 0.00000000
vn 0.72283200 0.69102400 0.00000000
vn 0.72035200 0.69360900 0.00000000
vn 0.73734700 0.67551400 0.00000000
vn 0.73479900 0.67828500 0.00000000
vn 0.71504700 0.69907600 0.00000000
vn 0.71177400 0.70240900 -0.00000500
vn 0.72835000 0.68520500 0.00000000
vn 0.74457300 0.66754100 0.00000000
vn 0.74447800 0.66764700 0.00000000
vn -0.66292600 0.74868500 0.00000000
vn -0.63919600 0.76904400 -0.00000700
vn -0.66273100 0.74885800 0.00000000
vn -0.61502500 0.78850800 -0.00000100
vn -0.58835600 0.80860200 0.00000000
vn -0.58832700 0.80862300 0.00000000
vn -0.58833300 0.80861900 0.00000000
vn -0.58935300 0.80787500 0.00000000
vn -0.58926300 0.80794100 0.00000000
vn -0.58561000 0.81059300 0.00000100
vn -0.58555200 0.81063500 0.00000000
vn -0.58555700 0.81063100 0.00000000
vn -0.58647100 0.80997000 0.00000000
vn -0.58669800 0.80980600 0.00000000
vn -0.58648900 0.80995700 0.00000000
vn -0.58633000 0.81007200 0.00000000
vn -0.58637500 0.81004000 0.00000000
vn -0.58540100 0.81074400 0.00000000
vn -0.58539700 0.81074700 0.00000000
vn -0.58556400 0.81062600 0.00000000
vn -0.56468800 0.82530400 0.00000000
vn -0.57596900 0.81747200 0.00000000
vn -0.47512600 0.87991800 0.00000000
vn -0.51474600 0.85734300 0.00000000
vn -0.34203900 0.93968600 0.00000200
vn -0.24521400 0.96946900 0.00002900
vn -0.08143500 0.99667900 0.00000000
vn -0.01547400 0.99988000 0.00000000
vn 0.11674800 0.99316200 0.00000000
vn 0.18283900 0.98314300 0.00000000
vn 0.34396400 0.93898300 0.00000000
vn 0.43737800 0.89927800 0.00000000
vn 0.60840200 0.79362900 0.00000000
vn 0.68583600 0.72775600 0.00000000
vn 0.81926000 0.57342200 0.00000000
vn 0.87467100 0.48471700 -0.00000200
vn 0.95471900 0.29751000 -0.00002500
vn 0.97991600 0.19941200 0.00000000
vn 0.99909600 0.04250600 0.00000100
vn 0.99987900 -0.01556500 0.00000000
vn 0.99133900 -0.13133000 0.00000000
vn 0.98198000 -0.18898600 0.00000000
vn 0.93963900 -0.34216700 0.00000200
vn 0.90002100 -0.43584600 0.00002000
vn 0.80071600 -0.59904400 0.00000000
vn 0.74283400 -0.66947600 0.00000000
vn 0.64304300 -0.76583000 -0.00001000
vn 0.60526200 -0.79602700 0.00000900
vn 0.57723400 -0.81657900 0.00000000
vn 0.57171100 -0.82045500 0.00000000
vn 0.58445100 -0.81142900 0.00000000
vn 0.58369800 -0.81197100 0.00000000
vn 0.59503700 -0.80369800 0.00000000
vn 0.59009600 -0.80733300 0.00000000
vn 0.60433000 -0.79673400 0.00000000
vn 0.60429900 -0.79675700 0.00000000
vn 0.60216800 -0.79837000 0.00000000
vn 0.60703900 -0.79467200 0.00000000
vn 0.60714500 -0.79459100 0.00000000
vn 0.60707700 -0.79464300 0.00000000
vn 0.60666100 -0.79496100 0.00000000
vn 0.60654400 -0.79505000 0.00000000
vn 0.60692500 -0.79475900 0.00000000
vn 0.60752600 -0.79430000 0.00000000
vn 0.60745800 -0.79435200 0.00000000
vn 0.60752600 -0.79430000 0.00000000
vn 0.73531600 0.67772400 0.00000000
vn 0.74863700 0.66298000 0.00000000
vn 0.74197300 0.67043000 0.00000000
vn 0.74890700 0.66267500 0.00000000
vn 0.72903300 0.68447900 0.00000000
vn 0.72903600 0.68447500 0.00000000
vn 0.71463400 0.69949800 0.00000000
vn 0.72208600 0.69180300 0.00000000
vn 0.79173200 0.61086900 0.00001200
vn 0.75084300 0.66048100 -0.00000000
vn 0.88296100 0.46944600 -0.00002000
vn 0.92749600 0.37383400 -0.00000200
vn 0.98220700 0.18780100 0.00000000
vn 0.99514800 0.09838500 0.00000000
vn 0.99700300 -0.07736800 0.00000000
vn 0.98654400 -0.16349700 0.00001700
vn 0.93903200 -0.34382900 0.00000000
vn 0.89936000 -0.43721000 0.00001900
vn 0.79385500 -0.60810600 0.00000000
vn 0.72810500 -0.68546600 0.00000000
vn 0.57405200 -0.81881900 -0.00002500
vn 0.48548200 -0.87424700 0.00000000
vn 0.29823700 -0.95449200 -0.00002400
vn 0.19988100 -0.97982000 0.00002400
vn 0.04336500 -0.99905900 0.00000000
vn -0.01400800 -0.99990200 -0.00000100
vn -0.13164400 -0.99129700 -0.00001200
vn -0.19173100 -0.98144800 0.00001100
vn -0.34676400 -0.93795200 0.00000000
vn -0.43993100 -0.89803200 0.00000000
vn -0.60964700 -0.79267300 0.00000000
vn -0.68611700 -0.72749100 0.00002400
vn -0.74757800 -0.66417400 0.00000000
vn -0.74013000 -0.67246400 0.00000000
vn -0.71804400 -0.69599700 0.00000000
vn -0.72529800 -0.68843600 0.00000000
vn -0.72292200 -0.69093000 -0.00000400
vn -0.73491000 -0.67816400 0.00000000
vn -0.73580200 -0.67719700 0.00000000
vn -0.72470000 -0.68906500 0.00000000
vn -0.72125500 -0.69267000 0.00000000
vn -0.72899100 -0.68452300 0.00000000
vn -0.73683800 -0.67606900 0.00000000
vn -0.73666600 -0.67625700 0.00000000
vn 0.67446500 -0.73830700 0.00000000
vn 0.67430800 -0.73845000 0.00000000
vn 0.66643700 -0.74556100 -0.00000300
vn 0.65840600 -0.75266300 0.00000000
vn 0.62781000 -0.77836700 -0.00000600
vn 0.60480200 -0.79637600 0.00000600
vn 0.58617800 -0.81018200 0.00000000
vn 0.58615600 -0.81019800 0.00000000
vn 0.58391700 -0.81181300 0.00000000
vn 0.58901000 -0.80812600 0.00000000
vn 0.58937500 -0.80786000 0.00000000
vn 0.58916600 -0.80801200 0.00000000
vn 0.58898700 -0.80814200 0.00000000
vn 0.58885500 -0.80823900 0.00000000
vn 0.58883900 -0.80825000 0.00000000
vn 0.58764100 -0.80912200 0.00000000
vn 0.58769400 -0.80908400 0.00000000
vn 0.58849800 -0.80849900 0.00000000
vn 0.58858500 -0.80843500 0.00000000
vn 0.58860000 -0.80842500 0.00000000
vn 0.57323500 -0.81939100 0.00000000
vn 0.58006800 -0.81456800 0.00000000
vn 0.47989500 -0.87732600 -0.00000100
vn 0.52388000 -0.85179200 0.00000000
vn 0.34283100 -0.93939700 0.00000000
vn 0.24657500 -0.96912400 0.00000000
vn 0.08430500 -0.99644000 -0.00000000
vn 0.01934300 -0.99981300 0.00001300
vn 0.00000000 0.00000000 -1.00000000
vn -0.00004400 0.00000400 -1.00000000
vn -0.00002500 0.00000300 -1.00000000
vn -0.00016200 0.00001600 -1.00000000
vn 0.00035300 -0.00003600 -1.00000000
vn 0.00000000 0.00000000 -1.00000000
vn -0.00016200 0.00001600 -1.00000000
vn -0.00004400 0.00000400 -1.00000000
vn -0.00016200 0.00001600 -1.00000000
vn -0.00006000 0.00000600 -1.00000000
vn 0.00000000 0.00000000 -1.00000000
vn -0.00006000 0.00000600 -1.00000000
vn -0.00013000 0.00001300 -1.00000000
vn 0.00000000 0.00000000 -1.00000000
vn 0.00001300 -0.00000100 -1.00000000
vn 0.00000000 0.00000000 -1.00000000
vn -0.00006000 0.00000600 -1.00000000
vn 0.00000000 0.00000000 -1.00000000
vn 0.00003500 -0.00000400 -1.00000000
vn 0.00000000 0.00000000 -1.00000000
vn -0.00002600 0.00000300 -1.00000000
vn -0.00013900 0.00001400 -1.00000000
vn 0.00003500 -0.00000400 -1.00000000
vn 0.00000000 0.00000000 -1.00000000
vn 0.00035300 -0.00003600 -1.00000000
vn 0.00000000 0.00000000 -1.00000000
vn 0.00000000 0.00000000 -1.00000000
vn 0.00035300 -0.00003600 -1.00000000
vn 0.00000000 0.00000000 -1.00000000
vn 0.00000000 0.00000000 -1.00000000
vn 0.00002800 -0.00000300 -1.00000000
vn 0.00013100 -0.00001300 -1.00000000
vn 0.00000000 0.00000000 -1.00000000
vn 0.00002800 -0.00000300 -1.00000000
vn -0.00012500 0.00001300 -1.00000000
vn 0.00000000 0.00000000 -1.00000000
vn -0.00003000 0.00000300 -1.00000000
vn -0.00012500 0.00001300 -1.00000000
vn 0.00000800 -0.00000100 -1.00000000
vn 0.00000000 0.00000000 -1.00000000
vn -0.00012500 0.00001300 -1.00000000
vn 0.00005200 -0.00000500 -1.00000000
vn -0.00003000 0.00000300 -1.00000000
vn 0.00006000 -0.00000600 -1.00000000
vn -0.00005600 0.00000600 -1.00000000
vn 0.00000000 0.00000000 -1.00000000
vn 0.00000000 0.00000000 -1.00000000
vn 0.00006000 -0.00000600 -1.00000000
vn 0.00000000 0.00000000 -1.00000000
vn 0.00013100 -0.00001300 -1.00000000
vn 0.00000000 0.00000000 -1.00000000
vn 0.00013100 -0.00001300 -1.00000000
vn 0.00002800 -0.00000300 -1.00000000
vn 0.00001300 -0.00000100 -1.00000000
vn 0.00000000 0.00000000 -1.00000000
vn 0.00001300 -0.00000100 -1.00000000
vn 0.00000000 0.00000000 -1.00000000
vn 0.00000000 0.00000000 -1.00000000
vn 0.00011300 -0.00001200 -1.00000000
vn 0.00000000 0.00000000 -1.00000000
vn -0.00002500 0.00000300 -1.00000000
vn 0.00011300 -0.00001200 -1.00000000
vn 0.00000000 0.00000000 -1.00000000
vn 0.00011300 -0.00001200 -1.00000000
vn -0.00002500 0.00000300 -1.00000000
vn 0.00000000 0.00000000 -1.00000000
vn -0.00002500 0.00000300 -1.00000000
vn -0.00002500 0.00000300 -1.00000000
vn -0.00002500 0.00000300 -1.00000000
vn 0.00000000 0.00000000 -1.00000000
vn 0.00000000 0.00000000 -1.00000000
vn 0.00007700 -0.00000800 -1.00000000
vn 0.00001700 -0.00000200 -1.00000000
vn 0.00007700 -0.00000800 -1.00000000
vn -0.00006300 0.00000600 -1.00000000
vn -0.00006300 0.00000600 -1.00000000
vn 0.00007700 -0.00000800 -1.00000000
vn -0.00013000 0.00001300 -1.00000000
vn 0.00000000 0.00000000 -1.00000000
vn -0.00013000 0.00001300 -1.00000000
vn 0.00000000 0.00000000 -1.00000000
vn 0.00003000 -0.00000300 -1.00000000
vn 0.00000000 0.00000000 -1.00000000
vn 0.00000000 0.00000000 -1.00000000
vn 0.00003400 -0.00000300 -1.00000000
vn 0.00000000 0.00000000 -1.00000000
vn -0.00001100 0.00000100 -1.00000000
vn 0.00000000 0.00000000 -1.00000000
vn 0.00000000 0.00000000 -1.00000000
vn -0.00001100 0.00000100 -1.00000000
vn -0.00001100 0.00000100 -1.00000000
vn 0.00003300 -0.00000300 -1.00000000
vn 0.00001500 -0.00000200 -1.00000000
vn 0.00000000 0.00000000 -1.00000000
vn 0.00000000 0.00000000 -1.00000000
vn -0.00006300 0.00000600 -1.00000000
vn 0.00001700 -0.00000200 -1.00000000
vn 0.00001700 -0.00000200 -1.00000000
vn 0.00000000 0.00000000 -1.00000000
vn 0.00000000 0.00000000 -1.00000000
vn 0.00003300 -0.00000300 -1.00000000
vn 0.00003300 -0.00000300 -1.00000000
vn 0.00000000 0.00000000 -1.00000000
vn 0.00000000 0.00000000 -1.00000000
vn 0.00001500 -0.00000200 -1.00000000
vn 0.00001500 -0.00000200 -1.00000000
vn 0.00000000 0.00000000 -1.00000000
vn 0.00000000 0.00000000 -1.00000000
vn -0.00013900 0.00001400 -1.00000000
vn -0.00013900 0.00001400 -1.00000000
vn 0.00000000 0.00000000 -1.00000000
vn 0.00000000 0.00000000 -1.00000000
vn -0.00007100 0.00000700 -1.00000000
vn -0.00007100 0.00000700 -1.00000000
vn 0.00012500 -0.00001300 -1.00000000
vn -0.00010000 0.00001000 -1.00000000
vn 0.00000000 0.00000000 -1.00000000
vn -0.00000900 0.00000100 -1.00000000
vn -0.00007100 0.00000700 -1.00000000
vn 0.00012500 -0.00001300 -1.00000000
vn 0.00000000 0.00000000 -1.00000000
vn -0.00005600 0.00000600 -1.00000000
vn 0.00000000 0.00000000 -1.00000000
vn 0.00000000 0.00000000 -1.00000000
vn -0.00000900 0.00000100 -1.00000000
vn -0.00005600 0.00000600 -1.00000000
vn 0.00006000 -0.00000600 -1.00000000
vn -0.00001500 0.00000200 -1.00000000
vn 0.00000000 0.00000000 -1.00000000
vn 0.00000000 0.00000000 -1.00000000
vn -0.00001500 0.00000200 -1.00000000
vn 0.00000800 -0.00000100 -1.00000000
vn 0.00000800 -0.00000100 -1.00000000
vn 0.00000000 0.00000000 -1.00000000
vn 0.00000000 0.00000000 -1.00000000
vn -0.00004400 0.00000400 -1.00000000
vn 0.00000000 0.00000000 -1.00000000
vn 0.00000000 0.00000000 -1.00000000
vn 0.00000000 0.00000000 -1.00000000
vn 0.00000000 0.00000000 -1.00000000
vn 0.00000000 0.00000000 -1.00000000
vn 0.00000000 0.00000000 -1.00000000
vn 0.00000000 0.00000000 -1.00000000
vn -0.00001500 0.00000200 -1.00000000
vn 0.00010000 -0.00001000 -1.00000000
vn 0.00012600 -0.00001300 -1.00000000
vn 0.00000000 0.00000000 -1.00000000
vn -0.00006100 0.00000600 -1.00000000
vn 0.00003000 -0.00000300 -1.00000000
vn 0.00003000 -0.00000300 -1.00000000
vn 0.00000000 0.00000000 -1.00000000
vn 0.00000000 0.00000000 -1.00000000
vn 0.00012600 -0.00001300 -1.00000000
vn -0.00004500 0.00000500 -1.00000000
vn 0.00033400 -0.00003400 -1.00000000
vn 0.00033400 -0.00003400 -1.00000000
vn -0.00001200 0.00000100 -1.00000000
vn 0.00033400 -0.00003400 -1.00000000
vn 0.00000000 0.00000000 -1.00000000
vn -0.00004500 0.00000500 -1.00000000
vn 0.00000000 0.00000000 -1.00000000
vn -0.00000900 0.00000100 -1.00000000
vn -0.00015600 0.00001600 -1.00000000
vn -0.00005500 0.00000600 -1.00000000
vn -0.00005500 0.00000600 -1.00000000
vn -0.00015600 0.00001600 -1.00000000
vn -0.00005600 0.00000600 -1.00000000
vn -0.00003800 0.00000400 -1.00000000
vn 0.00000000 0.00000000 -1.00000000
vn -0.00005600 0.00000600 -1.00000000
vn -0.00015600 0.00001600 -1.00000000
vn -0.00005600 0.00000600 -1.00000000
vn 0.00000000 0.00000000 -1.00000000
vn -0.00006100 0.00000600 -1.00000000
vn 0.00012600 -0.00001300 -1.00000000
vn 0.00010000 -0.00001000 -1.00000000
vn -0.00006100 0.00000600 -1.00000000
vn 0.00008700 -0.00000900 -1.00000000
vn 0.00010000 -0.00001000 -1.00000000
vn 0.00000000 0.00000000 -1.00000000
vn 0.00000000 0.00000000 -1.00000000
vn 0.00008700 -0.00000900 -1.00000000
vn 0.00000000 0.00000000 -1.00000000
vn 0.00008700 -0.00000900 -1.00000000
vn 0.00000000 0.00000000 -1.00000000
vn -0.00002600 0.00000300 -1.00000000
vn -0.00002600 0.00000300 -1.00000000
vn 0.00000000 0.00000000 -1.00000000
vn 0.00000000 0.00000000 -1.00000000
vn 0.00012500 -0.00001300 -1.00000000
vn -0.00010000 0.00001000 -1.00000000
vn 0.00000000 0.00000000 -1.00000000
vn -0.00010000 0.00001000 -1.00000000
vn 0.00000000 0.00000000 -1.00000000
vn 0.00001200 -0.00000100 -1.00000000
vn 0.00000000 0.00000000 -1.00000000
vn 0.00000000 0.00000000 -1.00000000
vn 0.00001200 -0.00000100 -1.00000000
vn 0.00001200 -0.00000100 -1.00000000
vn -0.00009000 0.00000900 -1.00000000
vn 0.00024400 -0.00002500 -1.00000000
vn 0.00024400 -0.00002500 -1.00000000
vn -0.00009000 0.00000900 -1.00000000
vn 0.00024400 -0.00002500 -1.00000000
vn 0.00000000 0.00000000 -1.00000000
vn -0.00001200 0.00000100 -1.00000000
vn -0.00005500 0.00000600 -1.00000000
vn 0.00005200 -0.00000500 -1.00000000
vn 0.00005200 -0.00000500 -1.00000000
vn -0.00003000 0.00000300 -1.00000000
vn 0.00000000 0.00000000 -1.00000000
vn -0.00012500 0.00001300 -1.00000000
vn -0.00012500 0.00001300 -1.00000000
vn 0.00000000 0.00000000 -1.00000000
vn -0.00001200 0.00000100 -1.00000000
vn -0.00012500 0.00001300 -1.00000000
vn 0.00000000 0.00000000 -1.00000000
vn -0.00004500 0.00000500 -1.00000000
vn -0.00001200 0.00000100 -1.00000000
vn 0.00000000 0.00000000 -1.00000000
vn -0.00003800 0.00000400 -1.00000000
vn 0.00000000 0.00000000 -1.00000000
vn -0.00003800 0.00000400 -1.00000000
vn -0.00001200 0.00000100 -1.00000000
vn -0.00009000 0.00000900 -1.00000000
vn -0.00001200 0.00000100 -1.00000000
vn 0.00000000 0.00000000 1.00000000
vn -0.00000600 0.00000100 1.00000000
vn 0.00000000 0.00000000 1.00000000
vn -0.00005800 0.00000600 1.00000000
vn 0.00002500 -0.00000300 1.00000000
vn 0.00000000 0.00000000 1.00000000
vn -0.00000600 0.00000100 1.00000000
vn -0.00005800 0.00000600 1.00000000
vn 0.00003400 -0.00000300 1.00000000
vn -0.00015300 0.00001600 1.00000000
vn 0.00003400 -0.00000300 1.00000000
vn 0.00001500 -0.00000200 1.00000000
vn 0.00002200 -0.00000200 1.00000000
vn 0.00003400 -0.00000300 1.00000000
vn 0.00000000 0.00000000 1.00000000
vn 0.00001500 -0.00000200 1.00000000
vn -0.00001000 0.00000100 1.00000000
vn -0.00015300 0.00001600 1.00000000
vn -0.00019400 0.00002000 1.00000000
vn 0.00000000 0.00000000 1.00000000
vn 0.00000000 0.00000000 1.00000000
vn 0.00007600 -0.00000800 1.00000000
vn -0.00001200 0.00000100 1.00000000
vn -0.00016200 0.00001600 1.00000000
vn -0.00003400 0.00000300 1.00000000
vn 0.00001300 -0.00000100 1.00000000
vn -0.00001200 0.00000100 1.00000000
vn 0.00000000 0.00000000 1.00000000
vn -0.00019400 0.00002000 1.00000000
vn -0.00019400 0.00002000 1.00000000
vn 0.00001300 -0.00000100 1.00000000
vn -0.00010300 0.00001000 1.00000000
vn 0.00002600 -0.00000300 1.00000000
vn 0.00002600 -0.00000300 1.00000000
vn -0.00001500 0.00000200 1.00000000
vn 0.00024000 -0.00002400 1.00000000
vn 0.00006100 -0.00000600 1.00000000
vn 0.00000000 0.00000000 1.00000000
vn -0.00003900 0.00000400 1.00000000
vn -0.00010300 0.00001000 1.00000000
vn 0.00002600 -0.00000300 1.00000000
vn -0.00001000 0.00000100 1.00000000
vn -0.00003900 0.00000400 1.00000000
vn -0.00003100 0.00000300 1.00000000
vn 0.00004800 -0.00000500 1.00000000
vn 0.00000000 0.00000000 1.00000000
vn 0.00022900 -0.00002300 1.00000000
vn -0.00000600 0.00000100 1.00000000
vn 0.00000600 -0.00000000 1.00000000
vn 0.00022900 -0.00002300 1.00000000
vn 0.00003900 -0.00000400 1.00000000
vn 0.00001400 -0.00000100 1.00000000
vn 0.00000000 0.00000000 1.00000000
vn -0.00006500 0.00000700 1.00000000
vn 0.00022900 -0.00002300 1.00000000
vn -0.00006500 0.00000700 1.00000000
vn 0.00003900 -0.00000400 1.00000000
vn 0.00001400 -0.00000100 1.00000000
vn 0.00000000 0.00000000 1.00000000
vn 0.00000000 0.00000000 1.00000000
vn -0.00006500 0.00000700 1.00000000
vn 0.00003300 -0.00000300 1.00000000
vn -0.00016200 0.00001600 1.00000000
vn -0.00000800 0.00000100 1.00000000
vn 0.00007600 -0.00000800 1.00000000
vn 0.00000000 0.00000000 1.00000000
vn 0.00000000 0.00000000 1.00000000
vn 0.00007600 -0.00000800 1.00000000
vn -0.00005100 0.00000500 1.00000000
vn -0.00001200 0.00000100 1.00000000
vn 0.00007100 -0.00000700 1.00000000
vn 0.00003400 -0.00000300 1.00000000
vn -0.00016200 0.00001600 1.00000000
vn 0.00000600 -0.00000100 1.00000000
vn 0.00000900 -0.00000100 1.00000000
vn 0.00000000 0.00000000 1.00000000
vn 0.00000600 -0.00000100 1.00000000
vn 0.00000800 -0.00000100 1.00000000
vn 0.00000000 0.00000000 1.00000000
vn -0.00006600 0.00000700 1.00000000
vn -0.00004700 0.00000500 1.00000000
vn -0.00013100 0.00001300 1.00000000
vn -0.00003100 0.00000300 1.00000000
vn -0.00010300 0.00001000 1.00000000
vn -0.00005100 0.00000500 1.00000000
vn 0.00003400 -0.00000300 1.00000000
vn 0.00000000 0.00000000 1.00000000
vn -0.00005100 0.00000500 1.00000000
vn 0.00000900 -0.00000100 1.00000000
vn 0.00000000 0.00000000 1.00000000
vn 0.00000900 -0.00000100 1.00000000
vn 0.00000000 0.00000000 1.00000000
vn 0.00001300 -0.00000100 1.00000000
vn 0.00001300 -0.00000100 1.00000000
vn 0.00000000 0.00000000 1.00000000
vn -0.00001000 0.00000100 1.00000000
vn -0.00000800 0.00000100 1.00000000
vn 0.00000000 0.00000000 1.00000000
vn -0.00000800 0.00000100 1.00000000
vn 0.00000000 0.00000000 1.00000000
vn 0.00001300 -0.00000100 1.00000000
vn 0.00004800 -0.00000500 1.00000000
vn -0.00001000 0.00000100 1.00000000
vn 0.00000000 0.00000000 1.00000000
vn 0.00001400 -0.00000100 1.00000000
vn 0.00003400 -0.00000300 1.00000000
vn 0.00000000 0.00000000 1.00000000
vn 0.00000000 0.00000000 1.00000000
vn 0.00000000 0.00000000 1.00000000
vn 0.00000000 0.00000000 1.00000000
vn -0.00006600 0.00000700 1.00000000
vn -0.00013100 0.00001300 1.00000000
vn 0.00000000 0.00000000 1.00000000
vn 0.00000600 -0.00000100 1.00000000
vn 0.00007100 -0.00000700 1.00000000
vn -0.00013100 0.00001300 1.00000000
vn 0.00000000 0.00000000 1.00000000
vn 0.00007100 -0.00000700 1.00000000
vn -0.00003400 0.00000300 1.00000000
vn -0.00015300 0.00001600 1.00000000
vn 0.00002200 -0.00000200 1.00000000
vn -0.00003400 0.00000300 1.00000000
vn 0.00002200 -0.00000200 1.00000000
vn 0.00001300 -0.00000100 1.00000000
vn -0.00003900 0.00000400 1.00000000
vn 0.00000000 0.00000000 1.00000000
vn -0.00008000 0.00000800 1.00000000
vn 0.00000000 0.00000000 1.00000000
vn -0.00003900 0.00000400 1.00000000
vn -0.00001500 0.00000200 1.00000000
vn 0.00000000 0.00000000 1.00000000
vn -0.00008000 0.00000800 1.00000000
vn -0.00012700 0.00001300 1.00000000
vn 0.00000500 -0.00000100 1.00000000
vn -0.00008000 0.00000800 1.00000000
vn 0.00000000 0.00000000 1.00000000
vn 0.00004000 -0.00000400 1.00000000
vn 0.00000000 0.00000000 1.00000000
vn 0.00000500 -0.00000100 1.00000000
vn 0.00004800 -0.00000500 1.00000000
vn -0.00003100 0.00000300 1.00000000
vn 0.00000000 0.00000000 1.00000000
vn 0.00000000 0.00000000 1.00000000
vn 0.00000000 0.00000000 1.00000000
vn 0.00002500 -0.00000300 1.00000000
vn -0.00001300 0.00000100 1.00000000
vn 0.00000000 0.00000000 1.00000000
vn -0.00005800 0.00000600 1.00000000
vn 0.00003400 -0.00000300 1.00000000
vn -0.00001300 0.00000100 1.00000000
vn 0.00002500 -0.00000300 1.00000000
vn -0.00001300 0.00000100 1.00000000
vn 0.00000000 0.00000000 1.00000000
vn -0.00006600 0.00000700 1.00000000
vn -0.00004700 0.00000500 1.00000000
vn 0.00000800 -0.00000100 1.00000000
vn 0.00000000 0.00000000 1.00000000
vn -0.00004700 0.00000500 1.00000000
vn -0.00000600 0.00000100 1.00000000
vn 0.00000000 0.00000000 1.00000000
vn 0.00000800 -0.00000100 1.00000000
vn 0.00000000 0.00000000 1.00000000
vn 0.00024000 -0.00002400 1.00000000
vn -0.00001500 0.00000200 1.00000000
vn 0.00000000 0.00000000 1.00000000
vn -0.00003900 0.00000400 1.00000000
vn -0.00001500 0.00000200 1.00000000
vn 0.00000000 0.00000000 1.00000000
vn -0.00009100 0.00000900 1.00000000
vn 0.00003400 -0.00000300 1.00000000
vn 0.00003400 -0.00000300 1.00000000
vn 0.00000000 0.00000000 1.00000000
vn 0.00000000 0.00000000 1.00000000
vn -0.00001000 0.00000100 1.00000000
vn 0.00001500 -0.00000200 1.00000000
vn 0.00000000 0.00000000 1.00000000
vn -0.00001000 0.00000100 1.00000000
vn 0.00039100 -0.00004000 1.00000000
vn 0.00000000 0.00000000 1.00000000
vn 0.00039100 -0.00004000 1.00000000
vn 0.00039100 -0.00004000 1.00000000
vn -0.00001500 0.00000200 1.00000000
vn 0.00000000 0.00000000 1.00000000
vn -0.00003900 0.00000400 1.00000000
vn -0.00001500 0.00000200 1.00000000
vn 0.00003500 -0.00000400 1.00000000
vn -0.00013500 0.00001400 1.00000000
vn 0.00000000 0.00000000 1.00000000
vn -0.00012700 0.00001300 1.00000000
vn 0.00003500 -0.00000400 1.00000000
vn 0.00004000 -0.00000400 1.00000000
vn -0.00012700 0.00001300 1.00000000
vn 0.00004000 -0.00000400 1.00000000
vn 0.00000500 -0.00000100 1.00000000
vn 0.00000000 0.00000000 1.00000000
vn 0.00000000 0.00000000 1.00000000
vn 0.00009000 -0.00000900 1.00000000
vn 0.00000000 0.00000000 1.00000000
vn 0.00009000 -0.00000900 1.00000000
vn 0.00006100 -0.00000600 1.00000000
vn 0.00000000 0.00000000 1.00000000
vn 0.00009000 -0.00000900 1.00000000
vn 0.00024000 -0.00002400 1.00000000
vn 0.00006100 -0.00000600 1.00000000
vn 0.00001400 -0.00000100 1.00000000
vn 0.00003900 -0.00000400 1.00000000
vn 0.00002300 -0.00000200 1.00000000
vn 0.00000000 0.00000000 1.00000000
vn 0.00003300 -0.00000300 1.00000000
vn 0.00002300 -0.00000200 1.00000000
vn 0.00000000 0.00000000 1.00000000
vn 0.00000000 0.00000000 1.00000000
vn 0.00003300 -0.00000300 1.00000000
vn 0.00000000 0.00000000 1.00000000
vn 0.00000000 0.00000000 1.00000000
vn 0.00000000 0.00000000 1.00000000
vn -0.00009100 0.00000900 1.00000000
vn 0.00000000 0.00000000 1.00000000
vn -0.00009100 0.00000900 1.00000000
vn 0.00000000 0.00000000 1.00000000
vn 0.00000000 0.00000000 1.00000000
vn 0.00000000 0.00000000 1.00000000
vn -0.00013500 0.00001400 1.00000000
vn 0.00003500 -0.00000400 1.00000000
vn -0.00013500 0.00001400 1.00000000
vn 0.00000000 0.00000000 1.00000000
vn 0.00000000 0.00000000 1.00000000
vn 0.00002300 -0.00000200 1.00000000
vn 0.00000000 0.00000000 1.00000000
f 1//1 2//2 3//3
f 1//1 3//3 4//4
f 4//4 3//3 5//5
f 4//4 5//5 6//6
f 6//6 5//5 7//7
f 6//6 7//7 8//8
f 8//8 7//7 9//9
f 8//8 9//9 10//10
f 10//10 9//9 11//11
f 10//10 11//11 12//12
f 12//12 11//11 13//13
f 12//12 13//13 14//14
f 14//14 13//13 15//15
f 14//14 15//15 16//16
f 16//16 15//15 17//17
f 16//16 17//17 18//18
f 18//18 17//17 19//19
f 18//18 19//19 20//20
f 21//21 20//20 22//22
f 22//22 20//20 19//19
f 23//23 21//21 24//24
f 24//24 21//21 22//22
f 25//25 23//23 26//26
f 26//26 23//23 24//24
f 27//27 25//25 28//28
f 28//28 25//25 26//26
f 30//30 27//27 31//31
f 31//31 27//27 28//28
f 32//32 29//29 33//33
f 34//34 30//30 31//31
f 35//35 38//38 40//40
f 42//42 39//39 43//43
f 44//44 37//37 47//47
f 46//46 36//36 41//41
f 49//49 45//45 50//50
f 50//50 45//45 48//48
f 51//51 49//49 52//52
f 52//52 49//49 50//50
f 51//51 52//52 53//53
f 51//51 53//53 54//54
f 54//54 53//53 55//55
f 54//54 55//55 56//56
f 56//56 55//55 57//57
f 56//56 57//57 58//58
f 58//58 57//57 59//59
f 58//58 59//59 60//60
f 60//60 59//59 61//61
f 60//60 61//61 62//62
f 62//62 61//61 63//63
f 62//62 63//63 64//64
f 64//64 63//63 65//65
f 64//64 65//65 66//66
f 66//66 65//65 67//67
f 66//66 67//67 68//68
f 68//68 67//67 69//69
f 68//68 69//69 70//70
f 70//70 69//69 71//71
f 70//70 71//71 72//72
f 72//72 71//71 73//73
f 72//72 73//73 74//74
f 74//74 73//73 75//75
f 74//74 75//75 76//76
f 77//77 76//76 78//78
f 78//78 76//76 75//75
f 77//77 78//78 79//79
f 77//77 79//79 80//80
f 80//80 79//79 81//81
f 80//80 81//81 82//82
f 82//82 81//81 83//83
f 82//82 83//83 84//84
f 84//84 83//83 85//85
f 84//84 85//85 86//86
f 87//87 88//88 89//89
f 89//89 88//88 90//90
f 91//91 90//90 94//94
f 94//94 90//90 88//88
f 96//96 92//92 100//100
f 99//99 93//93 95//95
f 102//102 97//97 105//105
f 104//104 98//98 101//101
f 107//107 103//103 108//108
f 108//108 103//103 106//106
f 109//109 107//107 110//110
f 110//110 107//107 108//108
f 109//109 110//110 111//111
f 109//109 111//111 112//112
f 112//112 111//111 113//113
f 112//112 113//113 114//114
f 114//114 113//113 115//115
f 114//114 115//115 116//116
f 116//116 115//115 117//117
f 116//116 117//117 118//118
f 118//118 117//117 119//119
f 118//118 119//119 120//120
f 120//120 119//119 121//121
f 120//120 121//121 122//122
f 122//122 121//121 123//123
f 122//122 123//123 124//124
f 124//124 123//123 125//125
f 124//124 125//125 126//126
f 126//126 125//125 127//127
f 126//126 127//127 128//128
f 128//128 127//127 129//129
f 128//128 129//129 130//130
f 130//130 129//129 131//131
f 130//130 131//131 132//132
f 132//132 131//131 133//133
f 132//132 133//133 134//134
f 135//135 134//134 136//136
f 136//136 134//134 133//133
f 137//137 135//135 138//138
f 138//138 135//135 136//136
f 139//139 137//137 140//140
f 140//140 137//137 138//138
f 142//142 139//139 143//143
f 143//143 139//139 140//140
f 144//144 141//141 148//148
f 147//147 142//142 143//143
f 150//150 145//145 152//152
f 151//151 146//146 149//149
f 153//153 154//154 155//155
f 155//155 154//154 156//156
f 157//157 153//153 158//158
f 158//158 153//153 155//155
f 159//159 157//157 160//160
f 160//160 157//157 158//158
f 161//161 159//159 162//162
f 162//162 159//159 160//160
f 161//161 162//162 163//163
f 161//161 163//163 164//164
f 164//164 163//163 165//165
f 164//164 165//165 166//166
f 166//166 165//165 167//167
f 166//166 167//167 168//168
f 168//168 167//167 169//169
f 168//168 169//169 170//170
f 170//170 169//169 171//171
f 170//170 171//171 172//172
f 172//172 171//171 173//173
f 172//172 173//173 174//174
f 174//174 173//173 175//175
f 174//174 175//175 176//176
f 176//176 175//175 177//177
f 176//176 177//177 178//178
f 178//178 177//177 179//179
f 178//178 179//179 180//180
f 180//180 179//179 181//181
f 180//180 181//181 182//182
f 182//182 181//181 183//183
f 182//182 183//183 184//184
f 184//184 183//183 185//185
f 184//184 185//185 186//186
f 187//187 186//186 188//188
f 188//188 186//186 185//185
f 187//187 188//188 189//189
f 187//187 189//189 190//190
f 190//190 189//189 191//191
f 190//190 191//191 192//192
f 192//192 191//191 193//193
f 192//192 193//193 194//194
f 194//194 193//193 195//195
f 194//194 195//195 196//196
f 197//197 198//198 199//199
f 197//197 199//199 200//200
f 200//200 199//199 201//201
f 200//200 201//201 202//202
f 204//204 202//202 205//205
f 205//205 202//202 201//201
f 206//206 203//203 210//210
f 211//211 204//204 205//205
f 213//213 208//208 215//215
f 216//216 207//207 209//209
f 217//217 212//212 218//218
f 218//218 212//212 214//214
f 219//219 217//217 220//220
f 220//220 217//217 218//218
f 219//219 220//220 221//221
f 219//219 221//221 222//222
f 222//222 221//221 223//223
f 222//222 223//223 224//224
f 224//224 223//223 2//2
f 224//224 2//2 1//1
f 228//228 231//231 233//233
f 234//234 236//236 241//241
f 242//242 244//244 248//248
f 225//225 250//250 230//230
f 229//229 249//249 252//252
f 230//230 251//251 253//253
f 253//253 254//254 257//257
f 259//259 262//262 265//265
f 270//270 271//271 273//273
f 273//273 271//271 275//275
f 273//273 275//275 254//254
f 256//256 274//274 276//276
f 255//255 277//277 258//258
f 235//235 240//240 279//279
f 278//278 239//239 280//280
f 279//279 281//281 282//282
f 281//281 284//284 282//282
f 286//286 283//283 288//288
f 285//285 289//289 292//292
f 287//287 290//290 225//225
f 227//227 291//291 293//293
f 225//225 294//294 250//250
f 250//250 294//294 295//295
f 298//298 296//296 301//301
f 237//237 302//302 304//304
f 238//238 303//303 305//305
f 305//305 307//307 308//308
f 309//309 247//247 243//243
f 310//310 312//312 313//313
f 311//311 314//314 315//315
f 299//299 300//300 320//320
f 297//297 321//321 322//322
f 323//323 319//319 324//324
f 323//323 324//324 327//327
f 326//326 325//325 316//316
f 327//327 318//318 328//328
f 329//329 317//317 330//330
f 331//331 332//332 244//244
f 246//246 333//333 334//334
f 337//337 338//338 343//343
f 345//345 347//347 348//348
f 269//269 346//346 350//350
f 268//268 351//351 272//272
f 353//353 354//354 358//358
f 357//357 356//356 263//263
f 358//358 264//264 260//260
f 226//226 232//232 360//360
f 225//225 359//359 361//361
f 361//361 362//362 363//363
f 361//361 363//363 364//364
f 364//364 365//365 366//366
f 364//364 366//366 367//367
f 368//368 355//355 352//352
f 308//308 307//307 371//371
f 373//373 306//306 374//374
f 371//371 375//375 376//376
f 379//379 380//380 382//382
f 345//345 348//348 341//341
f 342//342 349//349 386//386
f 341//341 385//385 336//336
f 387//387 390//390 395//395
f 394//394 391//391 396//396
f 377//377 399//399 370//370
f 372//372 398//398 401//401
f 369//369 400//400 403//403
f 404//404 405//405 407//407
f 402//402 406//406 408//408
f 335//335 409//409 244//244
f 245//245 410//410 411//411
f 244//244 412//412 248//248
f 339//339 414//414 344//344
f 341//341 413//413 416//416
f 340//340 415//415 417//417
f 418//418 420//420 421//421
f 419//419 422//422 423//423
f 425//425 426//426 428//428
f 388//388 431//431 389//389
f 266//266 432//432 433//433
f 267//267 434//434 261//261
f 331//331 435//435 438//438
f 437//437 436//436 440//440
f 438//438 441//441 383//383
f 381//381 439//439 443//443
f 384//384 442//442 378//378
f 397//397 444//444 393//393
f 392//392 445//445 447//447
f 393//393 446//446 429//429
f 430//430 448//448 450//450
f 427//427 449//449 424//424
f 451//451 453//453 456//456
f 459//459 461//461 464//464
f 470//470 471//471 478//478
f 469//469 479//479 480//480
f 483//483 484//484 491//491
f 498//498 499//499 502//502
f 504//504 506//506 511//511
f 515//515 472//472 518//518
f 474//474 513//513 523//523
f 473//473 520//520 477//477
f 478//478 526//526 529//529
f 482//482 490//490 534//534
f 535//535 538//538 519//519
f 525//525 539//539 541//541
f 542//542 545//545 548//548
f 549//549 547//547 514//514
f 548//548 516//516 550//550
f 550//550 516//516 517//517
f 544//544 543//543 551//551
f 546//546 553//553 492//492
f 510//510 509//509 554//554
f 522//522 556//556 536//536
f 537//537 557//557 558//558
f 537//537 558//558 559//559
f 560//560 529//529 563//563
f 562//562 532//532 566//566
f 564//564 527//527 524//524
f 565//565 521//521 568//568
f 567//567 526//526 540//540
f 460//460 468//468 570//570
f 571//571 463//463 573//573
f 569//569 572//572 475//475
f 476//476 574//574 481//481
f 576//576 578//578 581//581
f 582//582 577//577 585//585
f 581//581 586//586 588//588
f 495//495 552//552 590//590
f 494//494 591//591 533//533
f 509//509 592//592 496//496
f 496//496 592//592 593//593
f 593//593 592//592 559//559
f 593//593 559//559 594//594
f 594//594 559//559 558//558
f 458//458 454//454 598//598
f 595//595 455//455 601//601
f 596//596 600//600 602//602
f 530//530 561//561 604//604
f 531//531 605//605 608//608
f 452//452 457//457 609//609
f 607//607 456//456 610//610
f 606//606 611//611 528//528
f 612//612 615//615 488//488
f 485//485 614//614 617//617
f 489//489 616//616 493//493
f 603//603 618//618 597//597
f 599//599 620//620 621//621
f 597//597 622//622 623//623
f 462//462 625//625 466//466
f 467//467 624//624 627//627
f 465//465 626//626 629//629
f 630//630 628//628 631//631
f 629//629 633//633 581//581
f 580//580 632//632 635//635
f 579//579 634//634 575//575
f 639//639 642//642 583//583
f 587//587 641//641 643//643
f 584//584 644//644 589//589
f 645//645 646//646 648//648
f 649//649 647//647 652//652
f 648//648 651//651 488//488
f 487//487 650//650 654//654
f 486//486 653//653 613//613
f 497//497 500//500 505//505
f 507//507 501//501 656//656
f 508//508 655//655 555//555
f 658//658 661//661 510//510
f 512//512 659//659 663//663
f 510//510 662//662 503//503
f 664//664 665//665 666//666
f 666//666 665//665 668//668
f 666//666 668//668 618//618
f 619//619 667//667 669//669
f 618//618 670//670 622//622
f 671//671 672//672 638//638
f 637//637 673//673 675//675
f 636//636 674//674 640//640
f 676//676 677//677 658//658
f 658//658 677//677 679//679
f 657//657 678//678 660//660

