# https://github.com/mikedh/trimesh
v 0.28864700 -0.01257400 0.04730000
v 0.28864700 -0.01257400 0.04720000
v 0.28869500 -0.01264500 0.04720000
v 0.28869500 -0.01264500 0.04730000
v 0.28876200 -0.01269500 0.04720000
v 0.28876200 -0.01269500 0.04730000
v 0.28881500 -0.01271400 0.04720000
v 0.28881500 -0.01271400 0.04730000
v 0.28985800 -0.01319000 0.04730000
v 0.28985800 -0.01319000 0.04720000
v 0.28988000 -0.01320100 0.04720000
v 0.28988000 -0.01320100 0.04730000
v 0.28990300 -0.01321000 0.04720000
v 0.28990300 -0.01321000 0.04730000
v 0.28991900 -0.01321800 0.04720000
v 0.28991900 -0.01321800 0.04730000
v 0.28993600 -0.01322600 0.04720000
v 0.28993600 -0.01322600 0.04730000
v 0.28993600 -0.01322600 0.04730000
v 0.28993600 -0.01322600 0.04720000
v 0.28992900 -0.01324200 0.04720000
v 0.28992900 -0.01324200 0.04730000
v 0.28992100 -0.01326100 0.04720000
v 0.28992100 -0.01326100 0.04730000
v 0.28990600 -0.01330900 0.04730000
v 0.28990600 -0.01330900 0.04730000
v 0.28990600 -0.01330900 0.04730000
v 0.28990600 -0.01330900 0.04720000
v 0.28990600 -0.01330900 0.04720000
v 0.28986300 -0.01344400 0.04730000
v 0.28986300 -0.01344400 0.04730000
v 0.28986300 -0.01344400 0.04730000
v 0.28986300 -0.01344400 0.04720000
v 0.28986300 -0.01344400 0.04720000
v 0.28986300 -0.01344400 0.04720000
v 0.28983800 -0.01352300 0.04730000
v 0.28983800 -0.01352300 0.04730000
v 0.28983800 -0.01352300 0.04720000
v 0.28983800 -0.01352300 0.04720000
v 0.28983800 -0.01352300 0.04720000
v 0.28954600 -0.01444500 0.04730000
v 0.28954600 -0.01444500 0.04720000
v 0.28954300 -0.01445600 0.04730000
v 0.28954300 -0.01445600 0.04720000
v 0.28953400 -0.01454100 0.04720000
v 0.28953400 -0.01454100 0.04730000
v 0.28955500 -0.01462700 0.04720000
v 0.28955500 -0.01462700 0.04730000
v 0.28960300 -0.01469800 0.04720000
v 0.28960300 -0.01469800 0.04730000
v 0.28967100 -0.01474800 0.04720000
v 0.28967100 -0.01474800 0.04730000
v 0.28975600 -0.01477300 0.04720000
v 0.28975600 -0.01477300 0.04730000
v 0.28984500 -0.01476700 0.04720000
v 0.28984500 -0.01476700 0.04730000
v 0.28988500 -0.01475300 0.04720000
v 0.28988500 -0.01475300 0.04730000
v 0.28995700 -0.01470400 0.04720000
v 0.28995700 -0.01470400 0.04730000
v 0.29000600 -0.01463600 0.04720000
v 0.29000600 -0.01463600 0.04730000
v 0.29002100 -0.01460000 0.04720000
v 0.29002100 -0.01460000 0.04730000
v 0.29002300 -0.01459200 0.04730000
v 0.29002300 -0.01459200 0.04720000
v 0.29023500 -0.01390900 0.04730000
v 0.29023500 -0.01390900 0.04720000
v 0.29030900 -0.01367300 0.04730000
v 0.29030900 -0.01367300 0.04730000
v 0.29030900 -0.01367300 0.04720000
v 0.29031700 -0.01365000 0.04730000
v 0.29031700 -0.01365000 0.04730000
v 0.29031700 -0.01365000 0.04730000
v 0.29031700 -0.01365000 0.04720000
v 0.29031700 -0.01365000 0.04720000
v 0.29031700 -0.01365000 0.04720000
v 0.29032500 -0.01362900 0.04730000
v 0.29032500 -0.01362900 0.04730000
v 0.29032500 -0.01362900 0.04730000
v 0.29032500 -0.01362900 0.04720000
v 0.29032500 -0.01362900 0.04720000
v 0.29032500 -0.01362900 0.04720000
v 0.29039400 -0.01342700 0.04730000
v 0.29039400 -0.01342700 0.04720000
v 0.29039400 -0.01342700 0.04720000
v 0.29041600 -0.01343700 0.04730000
v 0.29041600 -0.01343700 0.04730000
v 0.29041600 -0.01343700 0.04730000
v 0.29039400 -0.01342700 0.04730000
v 0.29039400 -0.01342700 0.04730000
v 0.29041600 -0.01343700 0.04720000
v 0.29041600 -0.01343700 0.04720000
v 0.29041600 -0.01343700 0.04720000
v 0.29039400 -0.01342700 0.04720000
v 0.29084500 -0.01363500 0.04730000
v 0.29084500 -0.01363500 0.04730000
v 0.29084500 -0.01363500 0.04720000
v 0.29084500 -0.01363500 0.04720000
v 0.29084500 -0.01363500 0.04720000
v 0.29149300 -0.01393400 0.04730000
v 0.29149300 -0.01393400 0.04720000
v 0.29150100 -0.01393800 0.04730000
v 0.29150100 -0.01393800 0.04720000
v 0.29158600 -0.01396000 0.04720000
v 0.29158600 -0.01396000 0.04730000
v 0.29167500 -0.01395000 0.04720000
v 0.29167500 -0.01395000 0.04730000
v 0.29170600 -0.01393900 0.04720000
v 0.29170600 -0.01393900 0.04730000
v 0.29177800 -0.01389000 0.04720000
v 0.29177800 -0.01389000 0.04730000
v 0.29182800 -0.01382300 0.04720000
v 0.29182800 -0.01382300 0.04730000
v 0.29185300 -0.01373800 0.04720000
v 0.29185300 -0.01373800 0.04730000
v 0.29184600 -0.01364900 0.04720000
v 0.29184600 -0.01364900 0.04730000
v 0.29183200 -0.01360900 0.04720000
v 0.29183200 -0.01360900 0.04730000
v 0.29178500 -0.01353800 0.04720000
v 0.29178500 -0.01353800 0.04730000
v 0.29171800 -0.01348900 0.04720000
v 0.29171800 -0.01348900 0.04730000
v 0.29166400 -0.01346900 0.04720000
v 0.29166400 -0.01346900 0.04730000
v 0.29062100 -0.01299300 0.04730000
v 0.29062100 -0.01299300 0.04720000
v 0.29059900 -0.01298300 0.04720000
v 0.29059900 -0.01298300 0.04730000
v 0.29057600 -0.01297300 0.04720000
v 0.29057600 -0.01297300 0.04730000
v 0.29056000 -0.01296500 0.04720000
v 0.29056000 -0.01296500 0.04730000
v 0.29054300 -0.01295700 0.04720000
v 0.29054300 -0.01295700 0.04730000
v 0.29054300 -0.01295700 0.04730000
v 0.29054300 -0.01295700 0.04720000
v 0.29055100 -0.01294100 0.04720000
v 0.29055100 -0.01294100 0.04730000
v 0.29055800 -0.01292400 0.04720000
v 0.29055800 -0.01292400 0.04730000
v 0.29057300 -0.01287500 0.04730000
v 0.29057300 -0.01287500 0.04730000
v 0.29057300 -0.01287500 0.04730000
v 0.29057300 -0.01287500 0.04720000
v 0.29057300 -0.01287500 0.04720000
v 0.29061600 -0.01274000 0.04730000
v 0.29061600 -0.01274000 0.04730000
v 0.29061600 -0.01274000 0.04730000
v 0.29061600 -0.01274000 0.04720000
v 0.29061600 -0.01274000 0.04720000
v 0.29061600 -0.01274000 0.04720000
v 0.29064100 -0.01266100 0.04730000
v 0.29064100 -0.01266100 0.04730000
v 0.29064100 -0.01266100 0.04720000
v 0.29064100 -0.01266100 0.04720000
v 0.29064100 -0.01266100 0.04720000
v 0.29093200 -0.01173900 0.04730000
v 0.29093200 -0.01173900 0.04720000
v 0.29093600 -0.01172700 0.04730000
v 0.29093600 -0.01172700 0.04720000
v 0.29094600 -0.01164200 0.04720000
v 0.29094600 -0.01164200 0.04730000
v 0.29092400 -0.01155600 0.04720000
v 0.29092400 -0.01155600 0.04730000
v 0.29087600 -0.01148500 0.04720000
v 0.29087600 -0.01148500 0.04730000
v 0.29080800 -0.01143500 0.04720000
v 0.29080800 -0.01143500 0.04730000
v 0.29072400 -0.01141000 0.04720000
v 0.29072400 -0.01141000 0.04730000
v 0.29063400 -0.01141700 0.04720000
v 0.29063400 -0.01141700 0.04730000
v 0.29059400 -0.01143100 0.04720000
v 0.29059400 -0.01143100 0.04730000
v 0.29052200 -0.01147900 0.04720000
v 0.29052200 -0.01147900 0.04730000
v 0.29047300 -0.01154800 0.04720000
v 0.29047300 -0.01154800 0.04730000
v 0.29045800 -0.01158400 0.04720000
v 0.29045800 -0.01158400 0.04730000
v 0.29045600 -0.01159300 0.04730000
v 0.29045600 -0.01159300 0.04720000
v 0.29024400 -0.01227400 0.04730000
v 0.29024400 -0.01227400 0.04720000
v 0.29017100 -0.01251100 0.04730000
v 0.29017100 -0.01251100 0.04720000
v 0.29016200 -0.01253300 0.04730000
v 0.29016200 -0.01253300 0.04720000
v 0.29015500 -0.01255500 0.04730000
v 0.29015500 -0.01255500 0.04730000
v 0.29015500 -0.01255500 0.04720000
v 0.29008500 -0.01275600 0.04730000
v 0.29008500 -0.01275600 0.04720000
v 0.29008500 -0.01275600 0.04720000
v 0.29006300 -0.01274700 0.04730000
v 0.29008500 -0.01275600 0.04730000
v 0.29006300 -0.01274700 0.04720000
v 0.29008500 -0.01275600 0.04720000
v 0.28963400 -0.01254800 0.04730000
v 0.28963400 -0.01254800 0.04720000
v 0.28898600 -0.01224900 0.04730000
v 0.28898600 -0.01224900 0.04720000
v 0.28897800 -0.01224500 0.04730000
v 0.28897800 -0.01224500 0.04720000
v 0.28889300 -0.01222300 0.04720000
v 0.28889300 -0.01222300 0.04730000
v 0.28880400 -0.01223300 0.04720000
v 0.28880400 -0.01223300 0.04730000
v 0.28877300 -0.01224500 0.04720000
v 0.28877300 -0.01224500 0.04730000
v 0.28870100 -0.01229300 0.04720000
v 0.28870100 -0.01229300 0.04730000
v 0.28865200 -0.01236000 0.04720000
v 0.28865200 -0.01236000 0.04730000
v 0.28862700 -0.01244500 0.04720000
v 0.28862700 -0.01244500 0.04730000
v 0.28863300 -0.01253400 0.04720000
v 0.28863300 -0.01253400 0.04730000
v 0.29047300 -0.01154800 0.04730000
v 0.29045800 -0.01158400 0.04730000
v 0.29045800 -0.01158400 0.04730000
v 0.29093600 -0.01172700 0.04730000
v 0.29093600 -0.01172700 0.04730000
v 0.29093600 -0.01172700 0.04730000
v 0.29045600 -0.01159300 0.04730000
v 0.29045600 -0.01159300 0.04730000
v 0.29045600 -0.01159300 0.04730000
v 0.28876200 -0.01269500 0.04730000
v 0.28876200 -0.01269500 0.04730000
v 0.28876200 -0.01269500 0.04730000
v 0.28898600 -0.01224900 0.04730000
v 0.28898600 -0.01224900 0.04730000
v 0.28898600 -0.01224900 0.04730000
v 0.28897800 -0.01224500 0.04730000
v 0.28897800 -0.01224500 0.04730000
v 0.28993600 -0.01322600 0.04730000
v 0.28993600 -0.01322600 0.04730000
v 0.29006300 -0.01274700 0.04730000
v 0.29006300 -0.01274700 0.04730000
v 0.29006300 -0.01274700 0.04730000
v 0.29006300 -0.01274700 0.04730000
v 0.28991900 -0.01321800 0.04730000
v 0.28990300 -0.01321000 0.04730000
v 0.28990300 -0.01321000 0.04730000
v 0.29008500 -0.01275600 0.04730000
v 0.29008500 -0.01275600 0.04730000
v 0.29008500 -0.01275600 0.04730000
v 0.29008500 -0.01275600 0.04730000
v 0.29008500 -0.01275600 0.04730000
v 0.29008500 -0.01275600 0.04730000
v 0.28993600 -0.01322600 0.04730000
v 0.28993600 -0.01322600 0.04730000
v 0.29039400 -0.01342700 0.04730000
v 0.29039400 -0.01342700 0.04730000
v 0.29039400 -0.01342700 0.04730000
v 0.29039400 -0.01342700 0.04730000
v 0.29039400 -0.01342700 0.04730000
v 0.29039400 -0.01342700 0.04730000
v 0.28992900 -0.01324200 0.04730000
v 0.28992900 -0.01324200 0.04730000
v 0.28992100 -0.01326100 0.04730000
v 0.28992100 -0.01326100 0.04730000
v 0.29062100 -0.01299300 0.04730000
v 0.29084500 -0.01363500 0.04730000
v 0.29084500 -0.01363500 0.04730000
v 0.29166400 -0.01346900 0.04730000
v 0.29166400 -0.01346900 0.04730000
v 0.29149300 -0.01393400 0.04730000
v 0.29149300 -0.01393400 0.04730000
v 0.29171800 -0.01348900 0.04730000
v 0.29171800 -0.01348900 0.04730000
v 0.29171800 -0.01348900 0.04730000
v 0.29171800 -0.01348900 0.04730000
v 0.29171800 -0.01348900 0.04730000
v 0.29171800 -0.01348900 0.04730000
v 0.29149300 -0.01393400 0.04730000
v 0.29150100 -0.01393800 0.04730000
v 0.29150100 -0.01393800 0.04730000
v 0.29093200 -0.01173900 0.04730000
v 0.29093200 -0.01173900 0.04730000
v 0.29093200 -0.01173900 0.04730000
v 0.29024400 -0.01227400 0.04730000
v 0.29024400 -0.01227400 0.04730000
v 0.29024400 -0.01227400 0.04730000
v 0.29064100 -0.01266100 0.04730000
v 0.29064100 -0.01266100 0.04730000
v 0.28881500 -0.01271400 0.04730000
v 0.28881500 -0.01271400 0.04730000
v 0.28963400 -0.01254800 0.04730000
v 0.28963400 -0.01254800 0.04730000
v 0.28881500 -0.01271400 0.04730000
v 0.28985800 -0.01319000 0.04730000
v 0.28985800 -0.01319000 0.04730000
v 0.28988000 -0.01320100 0.04730000
v 0.28988000 -0.01320100 0.04730000
v 0.29002100 -0.01460000 0.04730000
v 0.29002100 -0.01460000 0.04730000
v 0.28954600 -0.01444500 0.04730000
v 0.28954600 -0.01444500 0.04730000
v 0.28954300 -0.01445600 0.04730000
v 0.28954300 -0.01445600 0.04730000
v 0.29000600 -0.01463600 0.04730000
v 0.29059900 -0.01298300 0.04730000
v 0.29059900 -0.01298300 0.04730000
v 0.29084500 -0.01363500 0.04730000
v 0.29084500 -0.01363500 0.04730000
v 0.29084500 -0.01363500 0.04730000
v 0.29057600 -0.01297300 0.04730000
v 0.29057600 -0.01297300 0.04730000
v 0.29057600 -0.01297300 0.04730000
v 0.29041600 -0.01343700 0.04730000
v 0.29041600 -0.01343700 0.04730000
v 0.29041600 -0.01343700 0.04730000
v 0.29056000 -0.01296500 0.04730000
v 0.29056000 -0.01296500 0.04730000
v 0.29056000 -0.01296500 0.04730000
v 0.29039400 -0.01342700 0.04730000
v 0.29039400 -0.01342700 0.04730000
v 0.29054300 -0.01295700 0.04730000
v 0.29054300 -0.01295700 0.04730000
v 0.29054300 -0.01295700 0.04730000
v 0.29055100 -0.01294100 0.04730000
v 0.29055100 -0.01294100 0.04730000
v 0.29055800 -0.01292400 0.04730000
v 0.29055800 -0.01292400 0.04730000
v 0.29057300 -0.01287500 0.04730000
v 0.29057300 -0.01287500 0.04730000
v 0.29015500 -0.01255500 0.04730000
v 0.29015500 -0.01255500 0.04730000
v 0.29061600 -0.01274000 0.04730000
v 0.29061600 -0.01274000 0.04730000
v 0.29016200 -0.01253300 0.04730000
v 0.29016200 -0.01253300 0.04730000
v 0.29061600 -0.01274000 0.04730000
v 0.29064100 -0.01266100 0.04730000
v 0.29064100 -0.01266100 0.04730000
v 0.29017100 -0.01251100 0.04730000
v 0.29023500 -0.01390900 0.04730000
v 0.28983800 -0.01352300 0.04730000
v 0.29002300 -0.01459200 0.04730000
v 0.28990600 -0.01330900 0.04730000
v 0.28990600 -0.01330900 0.04730000
v 0.29032500 -0.01362900 0.04730000
v 0.29032500 -0.01362900 0.04730000
v 0.29032500 -0.01362900 0.04730000
v 0.28990600 -0.01330900 0.04730000
v 0.28986300 -0.01344400 0.04730000
v 0.28986300 -0.01344400 0.04730000
v 0.29031700 -0.01365000 0.04730000
v 0.29031700 -0.01365000 0.04730000
v 0.28986300 -0.01344400 0.04730000
v 0.28983800 -0.01352300 0.04730000
v 0.28983800 -0.01352300 0.04730000
v 0.29030900 -0.01367300 0.04730000
v 0.29030900 -0.01367300 0.04730000
v 0.29158600 -0.01396000 0.04730000
v 0.29158600 -0.01396000 0.04730000
v 0.29167500 -0.01395000 0.04730000
v 0.29167500 -0.01395000 0.04730000
v 0.29170600 -0.01393900 0.04730000
v 0.29170600 -0.01393900 0.04730000
v 0.29170600 -0.01393900 0.04730000
v 0.28889300 -0.01222300 0.04730000
v 0.28889300 -0.01222300 0.04730000
v 0.28880400 -0.01223300 0.04730000
v 0.28880400 -0.01223300 0.04730000
v 0.28876200 -0.01269500 0.04730000
v 0.28876200 -0.01269500 0.04730000
v 0.28876200 -0.01269500 0.04730000
v 0.28877300 -0.01224500 0.04730000
v 0.28877300 -0.01224500 0.04730000
v 0.28877300 -0.01224500 0.04730000
v 0.28877300 -0.01224500 0.04730000
v 0.29182800 -0.01382300 0.04730000
v 0.29185300 -0.01373800 0.04730000
v 0.29177800 -0.01389000 0.04730000
v 0.29184600 -0.01364900 0.04730000
v 0.29170600 -0.01393900 0.04730000
v 0.29183200 -0.01360900 0.04730000
v 0.29183200 -0.01360900 0.04730000
v 0.29183200 -0.01360900 0.04730000
v 0.29178500 -0.01353800 0.04730000
v 0.29080800 -0.01143500 0.04730000
v 0.29072400 -0.01141000 0.04730000
v 0.29072400 -0.01141000 0.04730000
v 0.29087600 -0.01148500 0.04730000
v 0.29087600 -0.01148500 0.04730000
v 0.29063400 -0.01141700 0.04730000
v 0.29063400 -0.01141700 0.04730000
v 0.29063400 -0.01141700 0.04730000
v 0.29063400 -0.01141700 0.04730000
v 0.29092400 -0.01155600 0.04730000
v 0.29092400 -0.01155600 0.04730000
v 0.28865200 -0.01236000 0.04730000
v 0.28862700 -0.01244500 0.04730000
v 0.28862700 -0.01244500 0.04730000
v 0.28870100 -0.01229300 0.04730000
v 0.28870100 -0.01229300 0.04730000
v 0.28863300 -0.01253400 0.04730000
v 0.28863300 -0.01253400 0.04730000
v 0.28863300 -0.01253400 0.04730000
v 0.28864700 -0.01257400 0.04730000
v 0.28864700 -0.01257400 0.04730000
v 0.28864700 -0.01257400 0.04730000
v 0.28869500 -0.01264500 0.04730000
v 0.29052200 -0.01147900 0.04730000
v 0.29059400 -0.01143100 0.04730000
v 0.29093600 -0.01172700 0.04730000
v 0.29093600 -0.01172700 0.04730000
v 0.29094600 -0.01164200 0.04730000
v 0.29094600 -0.01164200 0.04730000
v 0.28967100 -0.01474800 0.04730000
v 0.28975600 -0.01477300 0.04730000
v 0.28975600 -0.01477300 0.04730000
v 0.28960300 -0.01469800 0.04730000
v 0.28960300 -0.01469800 0.04730000
v 0.28960300 -0.01469800 0.04730000
v 0.28960300 -0.01469800 0.04730000
v 0.28984500 -0.01476700 0.04730000
v 0.28984500 -0.01476700 0.04730000
v 0.28984500 -0.01476700 0.04730000
v 0.28984500 -0.01476700 0.04730000
v 0.28955500 -0.01462700 0.04730000
v 0.28953400 -0.01454100 0.04730000
v 0.28953400 -0.01454100 0.04730000
v 0.28953400 -0.01454100 0.04730000
v 0.28954300 -0.01445600 0.04730000
v 0.28954300 -0.01445600 0.04730000
v 0.28954300 -0.01445600 0.04730000
v 0.28988500 -0.01475300 0.04730000
v 0.28988500 -0.01475300 0.04730000
v 0.28995700 -0.01470400 0.04730000
v 0.28881500 -0.01271400 0.04720000
v 0.28881500 -0.01271400 0.04720000
v 0.28881500 -0.01271400 0.04720000
v 0.28898600 -0.01224900 0.04720000
v 0.28898600 -0.01224900 0.04720000
v 0.28898600 -0.01224900 0.04720000
v 0.28963400 -0.01254800 0.04720000
v 0.28963400 -0.01254800 0.04720000
v 0.28963400 -0.01254800 0.04720000
v 0.28963400 -0.01254800 0.04720000
v 0.29045600 -0.01159300 0.04720000
v 0.29045600 -0.01159300 0.04720000
v 0.29045800 -0.01158400 0.04720000
v 0.29047300 -0.01154800 0.04720000
v 0.29149300 -0.01393400 0.04720000
v 0.29149300 -0.01393400 0.04720000
v 0.29149300 -0.01393400 0.04720000
v 0.29171800 -0.01348900 0.04720000
v 0.29171800 -0.01348900 0.04720000
v 0.29171800 -0.01348900 0.04720000
v 0.29171800 -0.01348900 0.04720000
v 0.29150100 -0.01393800 0.04720000
v 0.29150100 -0.01393800 0.04720000
v 0.28986300 -0.01344400 0.04720000
v 0.28986300 -0.01344400 0.04720000
v 0.28986300 -0.01344400 0.04720000
v 0.28990600 -0.01330900 0.04720000
v 0.28990600 -0.01330900 0.04720000
v 0.29039400 -0.01342700 0.04720000
v 0.29039400 -0.01342700 0.04720000
v 0.29039400 -0.01342700 0.04720000
v 0.29039400 -0.01342700 0.04720000
v 0.28992100 -0.01326100 0.04720000
v 0.28992100 -0.01326100 0.04720000
v 0.29006300 -0.01274700 0.04720000
v 0.29006300 -0.01274700 0.04720000
v 0.29006300 -0.01274700 0.04720000
v 0.29006300 -0.01274700 0.04720000
v 0.28993600 -0.01322600 0.04720000
v 0.28993600 -0.01322600 0.04720000
v 0.28993600 -0.01322600 0.04720000
v 0.28991900 -0.01321800 0.04720000
v 0.28991900 -0.01321800 0.04720000
v 0.28992900 -0.01324200 0.04720000
v 0.28992900 -0.01324200 0.04720000
v 0.29008500 -0.01275600 0.04720000
v 0.29008500 -0.01275600 0.04720000
v 0.28985800 -0.01319000 0.04720000
v 0.28985800 -0.01319000 0.04720000
v 0.29030900 -0.01367300 0.04720000
v 0.29030900 -0.01367300 0.04720000
v 0.28983800 -0.01352300 0.04720000
v 0.28983800 -0.01352300 0.04720000
v 0.28983800 -0.01352300 0.04720000
v 0.28983800 -0.01352300 0.04720000
v 0.28983800 -0.01352300 0.04720000
v 0.29031700 -0.01365000 0.04720000
v 0.29031700 -0.01365000 0.04720000
v 0.29031700 -0.01365000 0.04720000
v 0.29032500 -0.01362900 0.04720000
v 0.29032500 -0.01362900 0.04720000
v 0.29023500 -0.01390900 0.04720000
v 0.29023500 -0.01390900 0.04720000
v 0.29002300 -0.01459200 0.04720000
v 0.29002300 -0.01459200 0.04720000
v 0.29002300 -0.01459200 0.04720000
v 0.28954600 -0.01444500 0.04720000
v 0.28954600 -0.01444500 0.04720000
v 0.28954600 -0.01444500 0.04720000
v 0.29002100 -0.01460000 0.04720000
v 0.29002100 -0.01460000 0.04720000
v 0.29002100 -0.01460000 0.04720000
v 0.28990300 -0.01321000 0.04720000
v 0.28990300 -0.01321000 0.04720000
v 0.28988000 -0.01320100 0.04720000
v 0.28988000 -0.01320100 0.04720000
v 0.28988000 -0.01320100 0.04720000
v 0.29092400 -0.01155600 0.04720000
v 0.29092400 -0.01155600 0.04720000
v 0.29094600 -0.01164200 0.04720000
v 0.29093600 -0.01172700 0.04720000
v 0.29093600 -0.01172700 0.04720000
v 0.29093600 -0.01172700 0.04720000
v 0.29061600 -0.01274000 0.04720000
v 0.29061600 -0.01274000 0.04720000
v 0.29061600 -0.01274000 0.04720000
v 0.29057300 -0.01287500 0.04720000
v 0.29055800 -0.01292400 0.04720000
v 0.29057600 -0.01297300 0.04720000
v 0.29057600 -0.01297300 0.04720000
v 0.29041600 -0.01343700 0.04720000
v 0.29041600 -0.01343700 0.04720000
v 0.29041600 -0.01343700 0.04720000
v 0.29056000 -0.01296500 0.04720000
v 0.29056000 -0.01296500 0.04720000
v 0.29056000 -0.01296500 0.04720000
v 0.29054300 -0.01295700 0.04720000
v 0.29055100 -0.01294100 0.04720000
v 0.29084500 -0.01363500 0.04720000
v 0.29084500 -0.01363500 0.04720000
v 0.28869500 -0.01264500 0.04720000
v 0.28877300 -0.01224500 0.04720000
v 0.28877300 -0.01224500 0.04720000
v 0.28877300 -0.01224500 0.04720000
v 0.28876200 -0.01269500 0.04720000
v 0.28876200 -0.01269500 0.04720000
v 0.28876200 -0.01269500 0.04720000
v 0.28876200 -0.01269500 0.04720000
v 0.28880400 -0.01223300 0.04720000
v 0.28880400 -0.01223300 0.04720000
v 0.28880400 -0.01223300 0.04720000
v 0.29093200 -0.01173900 0.04720000
v 0.29093200 -0.01173900 0.04720000
v 0.29024400 -0.01227400 0.04720000
v 0.29024400 -0.01227400 0.04720000
v 0.29024400 -0.01227400 0.04720000
v 0.29064100 -0.01266100 0.04720000
v 0.29064100 -0.01266100 0.04720000
v 0.29064100 -0.01266100 0.04720000
v 0.29064100 -0.01266100 0.04720000
v 0.29059900 -0.01298300 0.04720000
v 0.29059900 -0.01298300 0.04720000
v 0.29062100 -0.01299300 0.04720000
v 0.29062100 -0.01299300 0.04720000
v 0.29062100 -0.01299300 0.04720000
v 0.29166400 -0.01346900 0.04720000
v 0.29166400 -0.01346900 0.04720000
v 0.28954300 -0.01445600 0.04720000
v 0.28954300 -0.01445600 0.04720000
v 0.28954300 -0.01445600 0.04720000
v 0.28954300 -0.01445600 0.04720000
v 0.29000600 -0.01463600 0.04720000
v 0.28995700 -0.01470400 0.04720000
v 0.28897800 -0.01224500 0.04720000
v 0.28897800 -0.01224500 0.04720000
v 0.28897800 -0.01224500 0.04720000
v 0.28889300 -0.01222300 0.04720000
v 0.29015500 -0.01255500 0.04720000
v 0.29015500 -0.01255500 0.04720000
v 0.29016200 -0.01253300 0.04720000
v 0.29016200 -0.01253300 0.04720000
v 0.29016200 -0.01253300 0.04720000
v 0.29017100 -0.01251100 0.04720000
v 0.29017100 -0.01251100 0.04720000
v 0.29158600 -0.01396000 0.04720000
v 0.29167500 -0.01395000 0.04720000
v 0.29167500 -0.01395000 0.04720000
v 0.29170600 -0.01393900 0.04720000
v 0.29170600 -0.01393900 0.04720000
v 0.29170600 -0.01393900 0.04720000
v 0.29170600 -0.01393900 0.04720000
v 0.29178500 -0.01353800 0.04720000
v 0.29178500 -0.01353800 0.04720000
v 0.28863300 -0.01253400 0.04720000
v 0.28863300 -0.01253400 0.04720000
v 0.28863300 -0.01253400 0.04720000
v 0.28862700 -0.01244500 0.04720000
v 0.28865200 -0.01236000 0.04720000
v 0.28865200 -0.01236000 0.04720000
v 0.29184600 -0.01364900 0.04720000
v 0.29184600 -0.01364900 0.04720000
v 0.29185300 -0.01373800 0.04720000
v 0.29182800 -0.01382300 0.04720000
v 0.28864700 -0.01257400 0.04720000
v 0.28864700 -0.01257400 0.04720000
v 0.28870100 -0.01229300 0.04720000
v 0.29072400 -0.01141000 0.04720000
v 0.29080800 -0.01143500 0.04720000
v 0.29080800 -0.01143500 0.04720000
v 0.29063400 -0.01141700 0.04720000
v 0.29063400 -0.01141700 0.04720000
v 0.29063400 -0.01141700 0.04720000
v 0.29087600 -0.01148500 0.04720000
v 0.29183200 -0.01360900 0.04720000
v 0.29183200 -0.01360900 0.04720000
v 0.29177800 -0.01389000 0.04720000
v 0.28975600 -0.01477300 0.04720000
v 0.28967100 -0.01474800 0.04720000
v 0.28967100 -0.01474800 0.04720000
v 0.28984500 -0.01476700 0.04720000
v 0.28984500 -0.01476700 0.04720000
v 0.28984500 -0.01476700 0.04720000
v 0.28984500 -0.01476700 0.04720000
v 0.28984500 -0.01476700 0.04720000
v 0.28984500 -0.01476700 0.04720000
v 0.28960300 -0.01469800 0.04720000
v 0.28960300 -0.01469800 0.04720000
v 0.28955500 -0.01462700 0.04720000
v 0.28955500 -0.01462700 0.04720000
v 0.29059400 -0.01143100 0.04720000
v 0.29059400 -0.01143100 0.04720000
v 0.29059400 -0.01143100 0.04720000
v 0.29052200 -0.01147900 0.04720000
v 0.29052200 -0.01147900 0.04720000
v 0.28988500 -0.01475300 0.04720000
v 0.28988500 -0.01475300 0.04720000
v 0.28953400 -0.01454100 0.04720000
v 0.28953400 -0.01454100 0.04720000
vn -0.87341500 -0.48697700 0.00000000
vn -0.91187600 -0.41046500 0.00001700
vn -0.75967800 -0.65030000 0.00000000
vn -0.67953800 -0.73364000 0.00000000
vn -0.51376800 -0.85792900 0.00001800
vn -0.43097400 -0.90236500 -0.00001800
vn -0.36864100 -0.92957200 0.00000000
vn -0.39190700 -0.92000500 0.00000000
vn -0.42458800 -0.90538600 0.00000000
vn -0.41983400 -0.90760100 0.00000000
vn -0.41797200 -0.90846000 0.00000000
vn -0.40660800 -0.91360300 0.00000000
vn -0.41480100 -0.90991200 0.00000000
vn -0.43421100 -0.90081100 0.00000000
vn -0.43440700 -0.90071700 0.00000000
vn -0.41520100 -0.90973000 0.00000000
vn -0.39566400 -0.91839500 0.00000000
vn -0.39597500 -0.91826100 0.00000000
vn -0.91505700 0.40332600 0.00000000
vn -0.91503200 0.40338200 0.00000000
vn -0.92119800 0.38909500 0.00000000
vn -0.92709800 0.37481800 0.00000000
vn -0.94049300 0.33981300 0.00000000
vn -0.94772000 0.31910400 0.00000000
vn -0.95311100 0.30262100 0.00000000
vn -0.95310500 0.30264100 0.00000000
vn -0.95310100 0.30265300 0.00000000
vn -0.95381900 0.30038100 0.00000000
vn -0.95379900 0.30044700 0.00000000
vn -0.95311500 0.30260800 -0.00000000
vn -0.95315200 0.30249100 0.00000000
vn -0.95311800 0.30259900 -0.00000000
vn -0.95276600 0.30370400 0.00000000
vn -0.95277000 0.30369100 0.00000000
vn -0.95276000 0.30372400 0.00000000
vn -0.95346600 0.30150200 0.00000000
vn -0.95346100 0.30151600 0.00000000
vn -0.95344200 0.30157700 0.00000000
vn -0.95346600 0.30150200 0.00000000
vn -0.95346100 0.30151500 0.00000000
vn -0.95718700 0.28946900 0.00000000
vn -0.95535700 0.29545500 0.00000000
vn -0.98574600 0.16824000 -0.00001400
vn -0.97405600 0.22630900 0.00001500
vn -0.99997700 -0.00675900 0.00002300
vn -0.99219700 -0.12467600 0.00000000
vn -0.93630000 -0.35120000 0.00002800
vn -0.88812400 -0.45960400 0.00000200
vn -0.75904100 -0.65104200 0.00000000
vn -0.67886200 -0.73426600 0.00000000
vn -0.49476700 -0.86902500 0.00000000
vn -0.39097200 -0.92040200 0.00000000
vn -0.16760600 -0.98585400 -0.00000200
vn -0.04793000 -0.99885100 0.00000000
vn 0.15807500 -0.98742700 0.00000000
vn 0.24472300 -0.96959300 0.00000000
vn 0.40893200 -0.91256500 0.00000000
vn 0.48643300 -0.87371800 0.00000200
vn 0.65072700 -0.75931200 0.00000000
vn 0.73411700 -0.67902300 -0.00002200
vn 0.85307300 -0.52179200 -0.00000200
vn 0.89370800 -0.44864900 -0.00001600
vn 0.94081000 -0.33893400 0.00000800
vn 0.95247800 -0.30460800 0.00000000
vn 0.95770500 -0.28775200 0.00000000
vn 0.96030300 -0.27896100 0.00000000
vn 0.95454200 -0.29807800 0.00000000
vn 0.95470900 -0.29754100 0.00000000
vn 0.94821400 -0.31763100 0.00000000
vn 0.94821500 -0.31762900 -0.00000000
vn 0.95119600 -0.30858700 0.00000000
vn 0.94788000 -0.31862900 -0.00000000
vn 0.94782100 -0.31880200 0.00000000
vn 0.94792300 -0.31850000 0.00000000
vn 0.94650800 -0.32268000 -0.00000000
vn 0.94649600 -0.32271600 0.00000000
vn 0.94652500 -0.32263100 0.00000000
vn 0.94697700 -0.32130000 0.00000000
vn 0.94696100 -0.32134800 0.00000000
vn 0.94694700 -0.32139100 0.00000000
vn 0.94809600 -0.31798400 0.00000000
vn 0.94821200 -0.31763700 0.00000000
vn 0.94809500 -0.31798700 0.00000000
vn 0.94587800 -0.32452100 0.00000000
vn 0.94583100 -0.32466000 0.00000000
vn 0.94587800 -0.32452100 0.00000000
vn -0.41847200 -0.90823000 0.00000000
vn -0.41881000 -0.90807400 0.00000000
vn -0.41877700 -0.90808900 0.00000000
vn -0.41929900 -0.90784800 0.00000000
vn -0.41925500 -0.90786900 0.00000000
vn -0.41908100 -0.90794900 0.00000000
vn -0.41903700 -0.90796900 0.00000000
vn -0.41881000 -0.90807400 0.00000000
vn -0.41921100 -0.90788900 0.00000000
vn -0.41908100 -0.90794900 0.00000000
vn -0.41915300 -0.90791600 0.00000000
vn -0.41877700 -0.90808900 0.00000000
vn -0.41881000 -0.90807400 0.00000000
vn -0.41915600 -0.90791400 0.00000000
vn -0.44123500 -0.89739200 0.00000000
vn -0.43024400 -0.90271300 0.00000000
vn -0.31747800 -0.94826600 0.00000000
vn -0.38602900 -0.92248700 0.00002300
vn -0.13043500 -0.99145700 0.00000000
vn -0.00983600 -0.99995200 0.00000000
vn 0.19042000 -0.98170300 0.00000000
vn 0.27080400 -0.96263400 0.00000000
vn 0.42155600 -0.90680200 0.00000000
vn 0.49198500 -0.87060400 0.00000000
vn 0.64978100 -0.76012100 0.00002200
vn 0.73316300 -0.68005300 0.00000000
vn 0.86828500 -0.49606600 0.00000000
vn 0.91985200 -0.39226600 -0.00002200
vn 0.98567000 -0.16868400 0.00000000
vn 0.99880800 -0.04881900 -0.00002300
vn 0.98738000 0.15836800 0.00000000
vn 0.96928000 0.24596000 -0.00001800
vn 0.91224700 0.40964100 0.00002800
vn 0.87408700 0.48576900 0.00000000
vn 0.76066500 0.64914500 0.00000000
vn 0.68050700 0.73274100 0.00000000
vn 0.51460900 0.85742500 0.00000000
vn 0.43166700 0.90203300 0.00000200
vn 0.36898100 0.92943700 0.00000000
vn 0.39209000 0.91992700 0.00000000
vn 0.42756600 0.90398400 0.00000000
vn 0.42135300 0.90689700 0.00000000
vn 0.41973100 0.90764800 0.00000000
vn 0.40548200 0.91410300 0.00000000
vn 0.41266800 0.91088200 0.00000000
vn 0.43384400 0.90098800 0.00000000
vn 0.44019300 0.89790300 0.00000000
vn 0.42557000 0.90492600 0.00000000
vn 0.41093800 0.91166300 0.00000000
vn 0.41093800 0.91166300 0.00000000
vn 0.91020300 -0.41416200 0.00000000
vn 0.91019900 -0.41417000 0.00000000
vn 0.91621600 -0.40068400 0.00000300
vn 0.92195300 -0.38730200 0.00000000
vn 0.94112400 -0.33806200 0.00000000
vn 0.94100600 -0.33838900 0.00000000
vn 0.95348800 -0.30143200 0.00000000
vn 0.95337400 -0.30179200 0.00000000
vn 0.95341600 -0.30166000 0.00000000
vn 0.95339600 -0.30172100 0.00000000
vn 0.95341600 -0.30166000 0.00000000
vn 0.95348800 -0.30143200 0.00000000
vn 0.95356800 -0.30117900 0.00000000
vn 0.95344400 -0.30157200 0.00000000
vn 0.95348800 -0.30143200 0.00000000
vn 0.95351700 -0.30134000 0.00000000
vn 0.95356800 -0.30117900 0.00000000
vn 0.95344300 -0.30157200 0.00000000
vn 0.95351400 -0.30135000 0.00000000
vn 0.95343800 -0.30159100 0.00000000
vn 0.95351400 -0.30134800 0.00000000
vn 0.95344300 -0.30157200 0.00000000
vn 0.94828900 -0.31740800 0.00000000
vn 0.95090900 -0.30947100 0.00000000
vn 0.98347300 -0.18105800 0.00000000
vn 0.96717100 -0.25412700 0.00000000
vn 0.99996400 0.00852800 0.00000000
vn 0.99206900 0.12569700 0.00000000
vn 0.93620200 0.35146300 0.00000000
vn 0.88805100 0.45974500 0.00000000
vn 0.75913700 0.65093100 0.00000000
vn 0.67908000 0.73406400 0.00000000
vn 0.49499600 0.86889500 0.00000000
vn 0.39107900 0.92035700 -0.00002800
vn 0.16742300 0.98588500 0.00000000
vn 0.04761700 0.99886600 0.00000000
vn -0.15923600 0.98724000 0.00000000
vn -0.24656000 0.96912800 0.00000000
vn -0.41105300 0.91161100 0.00000000
vn -0.48829300 0.87268000 -0.00002100
vn -0.65202500 0.75819700 0.00000000
vn -0.73523000 0.67781700 -0.00002200
vn -0.85382100 0.52056600 0.00000000
vn -0.89426900 0.44753000 0.00000000
vn -0.94354400 0.33124600 0.00000900
vn -0.95703800 0.28996400 0.00000000
vn -0.95976700 0.28079900 0.00000000
vn -0.96436700 0.26456600 0.00000000
vn -0.95519300 0.29598400 0.00000000
vn -0.95519200 0.29598600 0.00000000
vn -0.94205800 0.33545000 0.00000000
vn -0.94899000 0.31530800 0.00000000
vn -0.94383600 0.33041500 -0.00000200
vn -0.93936600 0.34291700 0.00000000
vn -0.94624900 0.32343900 0.00000000
vn -0.94625700 0.32341600 0.00000000
vn -0.94717500 0.32071800 0.00000000
vn -0.94520500 0.32647700 0.00000000
vn -0.94520500 0.32647700 0.00000000
vn -0.94526600 0.32630100 0.00000000
vn 0.40836000 0.91282100 0.00000000
vn 0.38547400 0.92271900 0.00000000
vn 0.39689000 0.91786600 0.00000000
vn 0.38542800 0.92273800 0.00000100
vn 0.41950200 0.90775500 0.00000000
vn 0.41950200 0.90775400 0.00000000
vn 0.44410500 0.89597500 0.00000000
vn 0.43168800 0.90202300 0.00000000
vn 0.31892500 0.94778000 0.00000000
vn 0.38900300 0.92123700 0.00001400
vn 0.13040500 0.99146100 0.00000000
vn 0.00981400 0.99995200 0.00000000
vn -0.19041300 0.98170400 0.00001800
vn -0.27079800 0.96263600 0.00000000
vn -0.42151900 0.90682000 0.00000000
vn -0.49186800 0.87067000 -0.00001500
vn -0.64973400 0.76016200 0.00002500
vn -0.73314500 0.68007200 0.00000000
vn -0.86828600 0.49606400 0.00002200
vn -0.91985800 0.39225100 0.00000000
vn -0.98566700 0.16870200 0.00000000
vn -0.99880800 0.04881000 0.00000000
vn -0.98735700 -0.15851100 -0.00002300
vn -0.96919200 -0.24630700 -0.00001600
vn 0.00000000 0.00000000 1.00000000
vn 0.00000000 0.00000000 1.00000000
vn -0.00008300 0.00000800 1.00000000
vn 0.00000000 0.00000000 1.00000000
vn -0.00008300 0.00000800 1.00000000
vn 0.00014800 -0.00001500 1.00000000
vn -0.00002000 0.00000200 1.00000000
vn -0.00008300 0.00000800 1.00000000
vn 0.00014800 -0.00001500 1.00000000
vn 0.00005000 -0.00000500 1.00000000
vn -0.00005300 0.00000500 1.00000000
vn 0.00000000 0.00000000 1.00000000
vn -0.00000500 0.00000100 1.00000000
vn -0.00005300 0.00000500 1.00000000
vn 0.00000000 0.00000000 1.00000000
vn 0.00000000 0.00000000 1.00000000
vn -0.00005300 0.00000500 1.00000000
vn 0.00000000 0.00000000 1.00000000
vn -0.00002800 0.00000300 1.00000000
vn -0.00002800 0.00000300 1.00000000
vn -0.00019200 0.00001900 1.00000000
vn -0.00013400 0.00001400 1.00000000
vn 0.00000000 0.00000000 1.00000000
vn 0.00000000 0.00000000 1.00000000
vn 0.00000000 0.00000000 1.00000000
vn -0.00019200 0.00001900 1.00000000
vn 0.00007600 -0.00000800 1.00000000
vn -0.00006000 0.00000600 1.00000000
vn -0.00000700 0.00000100 1.00000000
vn -0.00002800 0.00000300 1.00000000
vn 0.00000700 -0.00000100 1.00000000
vn 0.00000000 0.00000000 1.00000000
vn -0.00000700 0.00000100 1.00000000
vn 0.00000000 0.00000000 1.00000000
vn 0.00000700 -0.00000100 1.00000000
vn 0.00001100 -0.00000100 1.00000000
vn -0.00000700 0.00000100 1.00000000
vn 0.00000000 0.00000000 1.00000000
vn -0.00001800 0.00000200 1.00000000
vn 0.00001700 -0.00000200 1.00000000
vn 0.00000000 0.00000000 1.00000000
vn 0.00001100 -0.00000100 1.00000000
vn 0.00001100 -0.00000100 1.00000000
vn -0.00001800 0.00000200 1.00000000
vn 0.00000000 0.00000000 1.00000000
vn -0.00000500 0.00000100 1.00000000
vn 0.00000000 0.00000000 1.00000000
vn 0.00000000 0.00000000 1.00000000
vn -0.00000500 0.00000100 1.00000000
vn -0.00000500 0.00000100 1.00000000
vn 0.00000000 0.00000000 1.00000000
vn 0.00001700 -0.00000200 1.00000000
vn -0.00003300 0.00000300 1.00000000
vn -0.00018800 0.00001900 1.00000000
vn 0.00000000 0.00000000 1.00000000
vn -0.00002400 0.00000200 1.00000000
vn -0.00030200 0.00003100 1.00000000
vn -0.00030200 0.00003100 1.00000000
vn 0.00000000 0.00000000 1.00000000
vn -0.00030200 0.00003100 1.00000000
vn 0.00000800 -0.00000100 1.00000000
vn -0.00002000 0.00000200 1.00000000
vn 0.00014800 -0.00001500 1.00000000
vn 0.00000000 0.00000000 1.00000000
vn 0.00000800 -0.00000100 1.00000000
vn -0.00002000 0.00000200 1.00000000
vn 0.00000000 0.00000000 1.00000000
vn 0.00000800 -0.00000100 1.00000000
vn -0.00000500 0.00000100 1.00000000
vn 0.00000000 0.00000000 1.00000000
vn -0.00000500 0.00000100 1.00000000
vn 0.00000000 0.00000000 1.00000000
vn 0.00000000 0.00000000 1.00000000
vn 0.00000000 0.00000000 1.00000000
vn -0.00013400 0.00001400 1.00000000
vn -0.00013400 0.00001400 1.00000000
vn -0.00019200 0.00001900 1.00000000
vn 0.00000000 0.00000000 1.00000000
vn 0.00004000 -0.00000400 1.00000000
vn 0.00004000 -0.00000400 1.00000000
vn 0.00000000 0.00000000 1.00000000
vn 0.00000000 0.00000000 1.00000000
vn 0.00004000 -0.00000400 1.00000000
vn 0.00000000 0.00000000 1.00000000
vn 0.00003600 -0.00000400 1.00000000
vn 0.00000000 0.00000000 1.00000000
vn 0.00003600 -0.00000400 1.00000000
vn -0.00001600 0.00000200 1.00000000
vn 0.00000000 0.00000000 1.00000000
vn 0.00003600 -0.00000400 1.00000000
vn -0.00011000 0.00001100 1.00000000
vn -0.00001600 0.00000200 1.00000000
vn -0.00001600 0.00000200 1.00000000
vn -0.00011000 0.00001100 1.00000000
vn -0.00003600 0.00000400 1.00000000
vn 0.00001100 -0.00000100 1.00000000
vn -0.00011000 0.00001100 1.00000000
vn -0.00003600 0.00000400 1.00000000
vn -0.00003600 0.00000400 1.00000000
vn 0.00001100 -0.00000100 1.00000000
vn 0.00000700 -0.00000100 1.00000000
vn 0.00007600 -0.00000800 1.00000000
vn 0.00001100 -0.00000100 1.00000000
vn 0.00007600 -0.00000800 1.00000000
vn -0.00006000 0.00000600 1.00000000
vn 0.00000000 0.00000000 1.00000000
vn -0.00006000 0.00000600 1.00000000
vn -0.00001300 0.00000100 1.00000000
vn 0.00000000 0.00000000 1.00000000
vn -0.00001300 0.00000100 1.00000000
vn 0.00000000 0.00000000 1.00000000
vn 0.00000000 0.00000000 1.00000000
vn -0.00001300 0.00000100 1.00000000
vn 0.00002200 -0.00000200 1.00000000
vn 0.00000000 0.00000000 1.00000000
vn 0.00002200 -0.00000200 1.00000000
vn 0.00002200 -0.00000200 1.00000000
vn 0.00000000 0.00000000 1.00000000
vn 0.00000000 0.00000000 1.00000000
vn 0.00000000 0.00000000 1.00000000
vn 0.00000000 0.00000000 1.00000000
vn 0.00000000 0.00000000 1.00000000
vn -0.00001800 0.00000200 1.00000000
vn 0.00001700 -0.00000200 1.00000000
vn 0.00001700 -0.00000200 1.00000000
vn -0.00001300 0.00000100 1.00000000
vn 0.00000000 0.00000000 1.00000000
vn -0.00001300 0.00000100 1.00000000
vn 0.00000000 0.00000000 1.00000000
vn -0.00001300 0.00000100 1.00000000
vn 0.00000000 0.00000000 1.00000000
vn -0.00007500 0.00000800 1.00000000
vn 0.00000000 0.00000000 1.00000000
vn -0.00007500 0.00000800 1.00000000
vn 0.00000000 0.00000000 1.00000000
vn 0.00000000 0.00000000 1.00000000
vn -0.00007500 0.00000800 1.00000000
vn -0.00003300 0.00000300 1.00000000
vn 0.00000000 0.00000000 1.00000000
vn -0.00003300 0.00000300 1.00000000
vn -0.00002400 0.00000200 1.00000000
vn 0.00000000 0.00000000 1.00000000
vn 0.00001700 -0.00000200 1.00000000
vn -0.00002400 0.00000200 1.00000000
vn 0.00005000 -0.00000500 1.00000000
vn 0.00000000 0.00000000 1.00000000
vn 0.00005000 -0.00000500 1.00000000
vn 0.00008200 -0.00000800 1.00000000
vn 0.00000000 0.00000000 1.00000000
vn 0.00008200 -0.00000800 1.00000000
vn -0.00001700 0.00000200 1.00000000
vn -0.00014000 0.00001400 1.00000000
vn 0.00000000 0.00000000 1.00000000
vn -0.00001700 0.00000200 1.00000000
vn 0.00008200 -0.00000800 1.00000000
vn 0.00000000 0.00000000 1.00000000
vn 0.00000000 0.00000000 1.00000000
vn 0.00000000 0.00000000 1.00000000
vn 0.00000000 0.00000000 1.00000000
vn 0.00000000 0.00000000 1.00000000
vn -0.00018800 0.00001900 1.00000000
vn 0.00001700 -0.00000200 1.00000000
vn 0.00000000 0.00000000 1.00000000
vn -0.00018800 0.00001900 1.00000000
vn 0.00000000 0.00000000 1.00000000
vn -0.00001500 0.00000200 1.00000000
vn 0.00000000 0.00000000 1.00000000
vn 0.00000000 0.00000000 1.00000000
vn -0.00001500 0.00000200 1.00000000
vn -0.00001500 0.00000200 1.00000000
vn 0.00004100 -0.00000400 1.00000000
vn -0.00003200 0.00000300 1.00000000
vn 0.00000000 0.00000000 1.00000000
vn 0.00000000 0.00000000 1.00000000
vn 0.00004100 -0.00000400 1.00000000
vn 0.00000000 0.00000000 1.00000000
vn 0.00000000 0.00000000 1.00000000
vn 0.00011900 -0.00001200 1.00000000
vn 0.00000000 0.00000000 1.00000000
vn 0.00011900 -0.00001200 1.00000000
vn 0.00011900 -0.00001200 1.00000000
vn -0.00014000 0.00001400 1.00000000
vn 0.00000000 0.00000000 1.00000000
vn -0.00001700 0.00000200 1.00000000
vn 0.00000000 0.00000000 1.00000000
vn -0.00014000 0.00001400 1.00000000
vn 0.00000000 0.00000000 1.00000000
vn 0.00000000 0.00000000 1.00000000
vn 0.00000000 0.00000000 1.00000000
vn 0.00000000 0.00000000 1.00000000
vn -0.00003200 0.00000300 1.00000000
vn 0.00004100 -0.00000400 1.00000000
vn -0.00003200 0.00000300 1.00000000
vn 0.00000000 0.00000000 1.00000000
vn 0.00004400 -0.00000500 1.00000000
vn 0.00000000 0.00000000 1.00000000
vn 0.00001100 -0.00000100 1.00000000
vn 0.00004400 -0.00000500 1.00000000
vn -0.00002700 0.00000300 1.00000000
vn 0.00000000 0.00000000 1.00000000
vn 0.00006300 -0.00000600 1.00000000
vn 0.00004400 -0.00000500 1.00000000
vn 0.00001400 -0.00000100 1.00000000
vn -0.00002700 0.00000300 1.00000000
vn 0.00001100 -0.00000100 1.00000000
vn 0.00006300 -0.00000600 1.00000000
vn 0.00001100 -0.00000100 1.00000000
vn -0.00002700 0.00000300 1.00000000
vn 0.00000000 0.00000000 1.00000000
vn 0.00001400 -0.00000100 1.00000000
vn 0.00006300 -0.00000600 1.00000000
vn 0.00001400 -0.00000100 1.00000000
vn 0.00000000 0.00000000 1.00000000
vn 0.00000000 0.00000000 1.00000000
vn 0.00000000 0.00000000 -1.00000000
vn 0.00004000 -0.00000400 -1.00000000
vn -0.00000500 0.00000100 -1.00000000
vn -0.00008200 0.00000800 -1.00000000
vn 0.00004000 -0.00000400 -1.00000000
vn -0.00000500 0.00000100 -1.00000000
vn 0.00000000 0.00000000 -1.00000000
vn -0.00000500 0.00000100 -1.00000000
vn -0.00001600 0.00000200 -1.00000000
vn 0.00007500 -0.00000800 -1.00000000
vn 0.00000000 0.00000000 -1.00000000
vn -0.00018400 0.00001900 -1.00000000
vn 0.00000000 0.00000000 -1.00000000
vn 0.00000000 0.00000000 -1.00000000
vn 0.00000000 0.00000000 -1.00000000
vn -0.00000800 0.00000100 -1.00000000
vn -0.00000600 0.00000100 -1.00000000
vn -0.00000800 0.00000100 -1.00000000
vn 0.00000000 0.00000000 -1.00000000
vn -0.00011800 0.00001200 -1.00000000
vn 0.00004500 -0.00000500 -1.00000000
vn 0.00004500 -0.00000500 -1.00000000
vn 0.00000000 0.00000000 -1.00000000
vn 0.00000000 0.00000000 -1.00000000
vn -0.00002200 0.00000200 -1.00000000
vn 0.00008000 -0.00000800 -1.00000000
vn 0.00001800 -0.00000200 -1.00000000
vn 0.00000000 0.00000000 -1.00000000
vn -0.00039000 0.00004000 -1.00000000
vn 0.00000000 0.00000000 -1.00000000
vn 0.00001800 -0.00000200 -1.00000000
vn -0.00005000 0.00000500 -1.00000000
vn 0.00000000 0.00000000 -1.00000000
vn 0.00001800 -0.00000200 -1.00000000
vn 0.00000600 -0.00000100 -1.00000000
vn -0.00001600 0.00000200 -1.00000000
vn -0.00001900 0.00000200 -1.00000000
vn 0.00000000 0.00000000 -1.00000000
vn 0.00000000 0.00000000 -1.00000000
vn 0.00000600 -0.00000100 -1.00000000
vn -0.00005000 0.00000500 -1.00000000
vn 0.00000000 0.00000000 -1.00000000
vn 0.00000600 -0.00000100 -1.00000000
vn -0.00005000 0.00000500 -1.00000000
vn 0.00000000 0.00000000 -1.00000000
vn 0.00000000 0.00000000 -1.00000000
vn -0.00000900 0.00000100 -1.00000000
vn 0.00007500 -0.00000800 -1.00000000
vn 0.00000000 0.00000000 -1.00000000
vn 0.00003000 -0.00000300 -1.00000000
vn -0.00003700 0.00000400 -1.00000000
vn -0.00002200 0.00000200 -1.00000000
vn 0.00002100 -0.00000200 -1.00000000
vn 0.00000200 -0.00000000 -1.00000000
vn -0.00003700 0.00000400 -1.00000000
vn 0.00003000 -0.00000300 -1.00000000
vn 0.00008000 -0.00000800 -1.00000000
vn -0.00002200 0.00000200 -1.00000000
vn -0.00003700 0.00000400 -1.00000000
vn 0.00000000 0.00000000 -1.00000000
vn 0.00008000 -0.00000800 -1.00000000
vn 0.00002100 -0.00000200 -1.00000000
vn 0.00003000 -0.00000300 -1.00000000
vn 0.00002100 -0.00000200 -1.00000000
vn 0.00000200 -0.00000000 -1.00000000
vn 0.00009700 -0.00001000 -1.00000000
vn 0.00000200 -0.00000000 -1.00000000
vn -0.00015800 0.00001600 -1.00000000
vn 0.00009700 -0.00001000 -1.00000000
vn -0.00015800 0.00001600 -1.00000000
vn 0.00000000 0.00000000 -1.00000000
vn 0.00009700 -0.00001000 -1.00000000
vn 0.00000000 0.00000000 -1.00000000
vn -0.00001900 0.00000200 -1.00000000
vn -0.00001900 0.00000200 -1.00000000
vn -0.00001600 0.00000200 -1.00000000
vn 0.00007500 -0.00000800 -1.00000000
vn -0.00001600 0.00000200 -1.00000000
vn 0.00000000 0.00000000 -1.00000000
vn -0.00001600 0.00000200 -1.00000000
vn -0.00001600 0.00000200 -1.00000000
vn 0.00010900 -0.00001100 -1.00000000
vn 0.00000000 0.00000000 -1.00000000
vn 0.00000000 0.00000000 -1.00000000
vn 0.00002000 -0.00000200 -1.00000000
vn -0.00000900 0.00000100 -1.00000000
vn 0.00000000 0.00000000 -1.00000000
vn 0.00000000 0.00000000 -1.00000000
vn 0.00000000 0.00000000 -1.00000000
vn -0.00006400 0.00000700 -1.00000000
vn -0.00006400 0.00000700 -1.00000000
vn 0.00000000 0.00000000 -1.00000000
vn -0.00039000 0.00004000 -1.00000000
vn -0.00039000 0.00004000 -1.00000000
vn 0.00000000 0.00000000 -1.00000000
vn -0.00006400 0.00000700 -1.00000000
vn 0.00000000 0.00000000 -1.00000000
vn 0.00000000 0.00000000 -1.00000000
vn 0.00001900 -0.00000200 -1.00000000
vn 0.00000000 0.00000000 -1.00000000
vn 0.00000000 0.00000000 -1.00000000
vn 0.00000000 0.00000000 -1.00000000
vn -0.00004100 0.00000400 -1.00000000
vn 0.00016400 -0.00001700 -1.00000000
vn -0.00008200 0.00000800 -1.00000000
vn 0.00004000 -0.00000400 -1.00000000
vn -0.00004100 0.00000400 -1.00000000
vn 0.00000000 0.00000000 -1.00000000
vn -0.00004100 0.00000400 -1.00000000
vn -0.00004100 0.00000400 -1.00000000
vn 0.00000000 0.00000000 -1.00000000
vn 0.00001500 -0.00000200 -1.00000000
vn 0.00000000 0.00000000 -1.00000000
vn -0.00001500 0.00000200 -1.00000000
vn 0.00000000 0.00000000 -1.00000000
vn 0.00001500 -0.00000200 -1.00000000
vn -0.00001500 0.00000200 -1.00000000
vn 0.00000000 0.00000000 -1.00000000
vn 0.00001500 -0.00000200 -1.00000000
vn 0.00001900 -0.00000200 -1.00000000
vn 0.00000000 0.00000000 -1.00000000
vn 0.00001900 -0.00000200 -1.00000000
vn 0.00001900 -0.00000200 -1.00000000
vn -0.00000600 0.00000100 -1.00000000
vn 0.00000000 0.00000000 -1.00000000
vn -0.00000600 0.00000100 -1.00000000
vn -0.00000800 0.00000100 -1.00000000
vn -0.00015800 0.00001600 -1.00000000
vn 0.00008200 -0.00000800 -1.00000000
vn 0.00000000 0.00000000 -1.00000000
vn -0.00006300 0.00000600 -1.00000000
vn 0.00000000 0.00000000 -1.00000000
vn 0.00000000 0.00000000 -1.00000000
vn 0.00000000 0.00000000 -1.00000000
vn -0.00008200 0.00000800 -1.00000000
vn -0.00004100 0.00000400 -1.00000000
vn -0.00004100 0.00000400 -1.00000000
vn 0.00002000 -0.00000200 -1.00000000
vn -0.00000900 0.00000100 -1.00000000
vn 0.00001900 -0.00000200 -1.00000000
vn 0.00002000 -0.00000200 -1.00000000
vn 0.00000000 0.00000000 -1.00000000
vn -0.00001500 0.00000200 -1.00000000
vn 0.00001900 -0.00000200 -1.00000000
vn 0.00000000 0.00000000 -1.00000000
vn 0.00000000 0.00000000 -1.00000000
vn 0.00004500 -0.00000500 -1.00000000
vn 0.00000000 0.00000000 -1.00000000
vn -0.00004700 0.00000500 -1.00000000
vn 0.00014600 -0.00001500 -1.00000000
vn -0.00011800 0.00001200 -1.00000000
vn 0.00014600 -0.00001500 -1.00000000
vn -0.00011800 0.00001200 -1.00000000
vn -0.00033400 0.00003400 -1.00000000
vn 0.00016400 -0.00001700 -1.00000000
vn 0.00000000 0.00000000 -1.00000000
vn -0.00033400 0.00003400 -1.00000000
vn 0.00000000 0.00000000 -1.00000000
vn -0.00033400 0.00003400 -1.00000000
vn 0.00000000 0.00000000 -1.00000000
vn -0.00004700 0.00000500 -1.00000000
vn 0.00000000 0.00000000 -1.00000000
vn 0.00000000 0.00000000 -1.00000000
vn 0.00000000 0.00000000 -1.00000000
vn 0.00016400 -0.00001700 -1.00000000
vn 0.00000000 0.00000000 -1.00000000
vn 0.00000500 -0.00000100 -1.00000000
vn 0.00000000 0.00000000 -1.00000000
vn 0.00000500 -0.00000100 -1.00000000
vn 0.00010900 -0.00001100 -1.00000000
vn 0.00000500 -0.00000100 -1.00000000
vn 0.00000000 0.00000000 -1.00000000
vn 0.00000000 0.00000000 -1.00000000
vn 0.00014600 -0.00001500 -1.00000000
vn -0.00004700 0.00000500 -1.00000000
vn 0.00000000 0.00000000 -1.00000000
vn -0.00001500 0.00000200 -1.00000000
vn 0.00000000 0.00000000 -1.00000000
vn -0.00001500 0.00000200 -1.00000000
vn -0.00003200 0.00000300 -1.00000000
vn 0.00004100 -0.00000400 -1.00000000
vn 0.00000000 0.00000000 -1.00000000
vn 0.00008200 -0.00000800 -1.00000000
vn -0.00006300 0.00000600 -1.00000000
vn -0.00001500 0.00000200 -1.00000000
vn -0.00003200 0.00000300 -1.00000000
vn 0.00000000 0.00000000 -1.00000000
vn 0.00004100 -0.00000400 -1.00000000
vn -0.00003200 0.00000300 -1.00000000
vn 0.00010900 -0.00001100 -1.00000000
vn -0.00018400 0.00001900 -1.00000000
vn 0.00000000 0.00000000 -1.00000000
vn -0.00018400 0.00001900 -1.00000000
vn 0.00000000 0.00000000 -1.00000000
vn 0.00000000 0.00000000 -1.00000000
vn 0.00008200 -0.00000800 -1.00000000
vn -0.00006300 0.00000600 -1.00000000
vn 0.00004100 -0.00000400 -1.00000000
f 1//1 2//2 3//3
f 1//1 3//3 4//4
f 4//4 3//3 5//5
f 4//4 5//5 6//6
f 6//6 5//5 7//7
f 6//6 7//7 8//8
f 9//9 8//8 10//10
f 10//10 8//8 7//7
f 9//9 10//10 11//11
f 9//9 11//11 12//12
f 12//12 11//11 13//13
f 12//12 13//13 14//14
f 14//14 13//13 15//15
f 14//14 15//15 16//16
f 16//16 15//15 17//17
f 16//16 17//17 18//18
f 19//19 20//20 21//21
f 19//19 21//21 22//22
f 22//22 21//21 23//23
f 22//22 23//23 24//24
f 25//25 24//24 28//28
f 28//28 24//24 23//23
f 30//30 27//27 33//33
f 34//34 26//26 29//29
f 36//36 32//32 39//39
f 38//38 31//31 35//35
f 41//41 37//37 42//42
f 42//42 37//37 40//40
f 43//43 41//41 44//44
f 44//44 41//41 42//42
f 43//43 44//44 45//45
f 43//43 45//45 46//46
f 46//46 45//45 47//47
f 46//46 47//47 48//48
f 48//48 47//47 49//49
f 48//48 49//49 50//50
f 50//50 49//49 51//51
f 50//50 51//51 52//52
f 52//52 51//51 53//53
f 52//52 53//53 54//54
f 54//54 53//53 55//55
f 54//54 55//55 56//56
f 56//56 55//55 57//57
f 56//56 57//57 58//58
f 58//58 57//57 59//59
f 58//58 59//59 60//60
f 60//60 59//59 61//61
f 60//60 61//61 62//62
f 62//62 61//61 63//63
f 62//62 63//63 64//64
f 65//65 64//64 66//66
f 66//66 64//64 63//63
f 67//67 65//65 68//68
f 68//68 65//65 66//66
f 69//69 67//67 71//71
f 71//71 67//67 68//68
f 72//72 70//70 76//76
f 75//75 69//69 71//71
f 78//78 73//73 81//81
f 82//82 74//74 77//77
f 84//84 80//80 86//86
f 85//85 79//79 83//83
f 87//87 90//90 92//92
f 93//93 91//91 95//95
f 96//96 89//89 98//98
f 99//99 88//88 94//94
f 101//101 97//97 102//102
f 102//102 97//97 100//100
f 103//103 101//101 104//104
f 104//104 101//101 102//102
f 103//103 104//104 105//105
f 103//103 105//105 106//106
f 106//106 105//105 107//107
f 106//106 107//107 108//108
f 108//108 107//107 109//109
f 108//108 109//109 110//110
f 110//110 109//109 111//111
f 110//110 111//111 112//112
f 112//112 111//111 113//113
f 112//112 113//113 114//114
f 114//114 113//113 115//115
f 114//114 115//115 116//116
f 116//116 115//115 117//117
f 116//116 117//117 118//118
f 118//118 117//117 119//119
f 118//118 119//119 120//120
f 120//120 119//119 121//121
f 120//120 121//121 122//122
f 122//122 121//121 123//123
f 122//122 123//123 124//124
f 124//124 123//123 125//125
f 124//124 125//125 126//126
f 127//127 126//126 128//128
f 128//128 126//126 125//125
f 127//127 128//128 129//129
f 127//127 129//129 130//130
f 130//130 129//129 131//131
f 130//130 131//131 132//132
f 132//132 131//131 133//133
f 132//132 133//133 134//134
f 134//134 133//133 135//135
f 134//134 135//135 136//136
f 137//137 138//138 139//139
f 137//137 139//139 140//140
f 140//140 139//139 141//141
f 140//140 141//141 142//142
f 142//142 141//141 144//144
f 144//144 141//141 146//146
f 148//148 143//143 151//151
f 152//152 145//145 147//147
f 154//154 150//150 158//158
f 156//156 149//149 153//153
f 159//159 155//155 160//160
f 160//160 155//155 157//157
f 161//161 159//159 162//162
f 162//162 159//159 160//160
f 161//161 162//162 163//163
f 161//161 163//163 164//164
f 164//164 163//163 165//165
f 164//164 165//165 166//166
f 166//166 165//165 167//167
f 166//166 167//167 168//168
f 168//168 167//167 169//169
f 168//168 169//169 170//170
f 170//170 169//169 171//171
f 170//170 171//171 172//172
f 172//172 171//171 173//173
f 172//172 173//173 174//174
f 174//174 173//173 175//175
f 174//174 175//175 176//176
f 176//176 175//175 177//177
f 176//176 177//177 178//178
f 178//178 177//177 179//179
f 178//178 179//179 180//180
f 180//180 179//179 181//181
f 180//180 181//181 182//182
f 183//183 182//182 184//184
f 184//184 182//182 181//181
f 185//185 183//183 186//186
f 186//186 183//183 184//184
f 187//187 185//185 188//188
f 188//188 185//185 186//186
f 189//189 187//187 190//190
f 190//190 187//187 188//188
f 192//192 189//189 193//193
f 193//193 189//189 190//190
f 194//194 191//191 195//195
f 196//196 192//192 193//193
f 197//197 198//198 199//199
f 199//199 198//198 200//200
f 201//201 197//197 202//202
f 202//202 197//197 199//199
f 203//203 201//201 204//204
f 204//204 201//201 202//202
f 205//205 203//203 206//206
f 206//206 203//203 204//204
f 205//205 206//206 207//207
f 205//205 207//207 208//208
f 208//208 207//207 209//209
f 208//208 209//209 210//210
f 210//210 209//209 211//211
f 210//210 211//211 212//212
f 212//212 211//211 213//213
f 212//212 213//213 214//214
f 214//214 213//213 215//215
f 214//214 215//215 216//216
f 216//216 215//215 217//217
f 216//216 217//217 218//218
f 218//218 217//217 219//219
f 218//218 219//219 220//220
f 220//220 219//219 2//2
f 220//220 2//2 1//1
f 221//221 222//222 224//224
f 225//225 223//223 228//228
f 231//231 234//234 237//237
f 238//238 243//243 244//244
f 244//244 243//243 245//245
f 250//250 240//240 239//239
f 249//249 253//253 257//257
f 258//258 254//254 261//261
f 256//256 262//262 263//263
f 265//265 267//267 268//268
f 269//269 266//266 270//270
f 268//268 271//271 275//275
f 277//277 278//278 280//280
f 283//283 226//226 229//229
f 282//282 227//227 286//286
f 281//281 285//285 288//288
f 235//235 232//232 290//290
f 233//233 289//289 291//291
f 292//292 293//293 294//294
f 292//292 294//294 243//243
f 242//242 295//295 296//296
f 241//241 297//297 246//246
f 299//299 300//300 303//303
f 298//298 302//302 304//304
f 265//265 306//306 309//309
f 307//307 305//305 310//310
f 308//308 312//312 313//313
f 314//314 311//311 317//317
f 315//315 318//318 319//319
f 320//320 316//316 323//323
f 255//255 321//321 251//251
f 247//247 322//322 324//324
f 248//248 325//325 327//327
f 252//252 326//326 329//329
f 252//252 329//329 331//331
f 330//330 328//328 333//333
f 331//331 332//332 335//335
f 334//334 336//336 337//337
f 335//335 338//338 339//339
f 339//339 287//287 284//284
f 340//340 341//341 342//342
f 342//342 341//341 301//301
f 342//342 301//301 298//298
f 259//259 264//264 343//343
f 260//260 344//344 345//345
f 346//346 348//348 350//350
f 347//347 349//349 351//351
f 351//351 353//353 355//355
f 352//352 354//354 357//357
f 356//356 341//341 340//340
f 279//279 359//359 275//275
f 273//273 358//358 360//360
f 276//276 361//361 364//364
f 236//236 366//366 232//232
f 230//230 365//365 367//367
f 370//370 368//368 375//375
f 376//376 377//377 378//378
f 378//378 377//377 379//379
f 378//378 379//379 380//380
f 362//362 379//379 383//383
f 363//363 382//382 272//272
f 274//274 381//381 384//384
f 385//385 387//387 388//388
f 389//389 386//386 390//390
f 388//388 393//393 394//394
f 396//396 397//397 399//399
f 400//400 398//398 401//401
f 399//399 403//403 373//373
f 372//372 402//402 406//406
f 374//374 404//404 371//371
f 369//369 405//405 407//407
f 408//408 221//221 409//409
f 409//409 221//221 410//410
f 409//409 410//410 393//393
f 392//392 411//411 413//413
f 391//391 412//412 395//395
f 414//414 416//416 420//420
f 418//418 415//415 422//422
f 425//425 417//417 427//427
f 428//428 419//419 424//424
f 426//426 421//421 431//431
f 430//430 423//423 432//432
f 429//429 433//433 304//304
f 304//304 433//433 434//434
f 437//437 440//440 442//442
f 445//445 447//447 448//448
f 449//449 453//453 457//457
f 458//458 462//462 464//464
f 465//465 461//461 468//468
f 469//469 474//474 477//477
f 467//467 479//479 464//464
f 466//466 478//478 475//475
f 464//464 473//473 480//480
f 480//480 473//473 472//472
f 435//435 441//441 483//483
f 485//485 489//489 493//493
f 492//492 486//486 459//459
f 491//491 460//460 495//495
f 494//494 458//458 464//464
f 484//484 497//497 490//490
f 487//487 496//496 498//498
f 488//488 499//499 501//501
f 503//503 500//500 506//506
f 476//476 507//507 472//472
f 471//471 508//508 509//509
f 470//470 510//510 443//443
f 444//444 511//511 482//482
f 512//512 514//514 515//515
f 518//518 521//521 480//480
f 480//480 521//521 522//522
f 524//524 525//525 530//530
f 528//528 527//527 463//463
f 529//529 464//464 531//531
f 531//531 464//464 480//480
f 531//531 480//480 532//532
f 532//532 480//480 522//522
f 523//523 534//534 526//526
f 535//535 536//536 542//542
f 541//541 537//537 544//544
f 517//517 547//547 445//445
f 445//445 547//547 549//549
f 550//550 546//546 553//553
f 523//523 555//555 534//534
f 533//533 556//556 557//557
f 534//534 559//559 449//449
f 451//451 558//558 560//560
f 450//450 561//561 452//452
f 502//502 504//504 562//562
f 564//564 505//505 566//566
f 564//564 566//566 567//567
f 439//439 436//436 540//540
f 438//438 539//539 569//569
f 568//568 542//542 545//545
f 570//570 543//543 571//571
f 481//481 573//573 520//520
f 519//519 572//572 575//575
f 518//518 576//576 552//552
f 554//554 574//574 578//578
f 551//551 577//577 548//548
f 579//579 457//457 580//580
f 581//581 456//456 455//455
f 580//580 453//453 582//582
f 585//585 454//454 587//587
f 588//588 591//591 593//593
f 594//594 596//596 597//597
f 535//535 598//598 536//536
f 538//538 599//599 589//589
f 536//536 590//590 600//600
f 600//600 590//590 592//592
f 601//601 603//603 605//605
f 606//606 602//602 607//607
f 586//586 608//608 584//584
f 583//583 609//609 595//595
f 582//582 594//594 610//610
f 610//610 594//594 597//597
f 611//611 613//613 619//619
f 616//616 612//612 621//621
f 614//614 620//620 623//623
f 607//607 513//513 606//606
f 606//606 513//513 517//517
f 604//604 516//516 624//624
f 626//626 517//517 445//445
f 625//625 446//446 627//627
f 628//628 445//445 448//448
f 567//567 629//629 564//564
f 563//563 630//630 617//617
f 565//565 618//618 631//631
f 632//632 615//615 622//622

