# https://github.com/mikedh/trimesh
v 0.27240000 0.00316000 0.04730000
v 0.27240000 0.00316000 0.04720000
v 0.27232500 0.00315600 0.04720000
v 0.27232500 0.00315600 0.04730000
v 0.27225500 0.00313000 0.04720000
v 0.27225500 0.00313000 0.04730000
v 0.27219500 0.00308400 0.04720000
v 0.27219500 0.00308400 0.04730000
v 0.27126200 0.00241800 0.04730000
v 0.27126200 0.00241800 0.04720000
v 0.27124100 0.00240400 0.04720000
v 0.27124100 0.00240400 0.04730000
v 0.27122200 0.00239000 0.04720000
v 0.27122200 0.00239000 0.04730000
v 0.27120600 0.00238000 0.04720000
v 0.27120600 0.00238000 0.04730000
v 0.27119200 0.00236900 0.04720000
v 0.27119200 0.00236900 0.04730000
v 0.27119200 0.00236900 0.04730000
v 0.27119200 0.00236900 0.04720000
v 0.27118100 0.00238400 0.04720000
v 0.27118100 0.00238400 0.04730000
v 0.27116800 0.00239900 0.04720000
v 0.27116800 0.00239900 0.04730000
v 0.27113400 0.00243700 0.04730000
v 0.27113400 0.00243700 0.04730000
v 0.27113400 0.00243700 0.04730000
v 0.27113400 0.00243700 0.04720000
v 0.27113400 0.00243700 0.04720000
v 0.27104000 0.00254100 0.04730000
v 0.27104000 0.00254100 0.04730000
v 0.27104000 0.00254100 0.04730000
v 0.27104000 0.00254100 0.04720000
v 0.27104000 0.00254100 0.04720000
v 0.27104000 0.00254100 0.04720000
v 0.27098300 0.00260200 0.04730000
v 0.27098300 0.00260200 0.04730000
v 0.27098300 0.00260200 0.04720000
v 0.27098300 0.00260200 0.04720000
v 0.27098300 0.00260200 0.04720000
v 0.27033100 0.00331500 0.04730000
v 0.27033100 0.00331500 0.04720000
v 0.27032200 0.00332400 0.04730000
v 0.27032200 0.00332400 0.04720000
v 0.27026100 0.00337100 0.04720000
v 0.27026100 0.00337100 0.04730000
v 0.27019400 0.00339500 0.04720000
v 0.27019400 0.00339500 0.04730000
v 0.27016900 0.00339900 0.04720000
v 0.27016900 0.00339900 0.04730000
v 0.27009300 0.00339600 0.04720000
v 0.27009300 0.00339600 0.04730000
v 0.27002400 0.00337000 0.04720000
v 0.27002400 0.00337000 0.04730000
v 0.26996300 0.00332300 0.04720000
v 0.26996300 0.00332300 0.04730000
v 0.26991800 0.00325900 0.04720000
v 0.26991800 0.00325900 0.04730000
v 0.26989700 0.00319100 0.04720000
v 0.26989700 0.00319100 0.04730000
v 0.26989500 0.00317700 0.04720000
v 0.26989500 0.00317700 0.04730000
v 0.26989900 0.00310100 0.04720000
v 0.26989900 0.00310100 0.04730000
v 0.26992400 0.00303200 0.04720000
v 0.26992400 0.00303200 0.04730000
v 0.26995900 0.00298200 0.04720000
v 0.26995900 0.00298200 0.04730000
v 0.26996600 0.00297500 0.04730000
v 0.26996600 0.00297500 0.04720000
v 0.27045000 0.00245100 0.04730000
v 0.27045000 0.00245100 0.04720000
v 0.27061800 0.00226900 0.04730000
v 0.27061800 0.00226900 0.04720000
v 0.27063400 0.00225100 0.04730000
v 0.27063400 0.00225100 0.04730000
v 0.27063400 0.00225100 0.04720000
v 0.27064900 0.00223400 0.04730000
v 0.27064900 0.00223400 0.04730000
v 0.27064900 0.00223400 0.04730000
v 0.27064900 0.00223400 0.04720000
v 0.27064900 0.00223400 0.04720000
v 0.27064900 0.00223400 0.04720000
v 0.27078900 0.00207300 0.04730000
v 0.27078900 0.00207300 0.04720000
v 0.27078900 0.00207300 0.04720000
v 0.27076800 0.00205900 0.04730000
v 0.27076800 0.00205900 0.04730000
v 0.27078900 0.00207300 0.04730000
v 0.27078900 0.00207300 0.04730000
v 0.27076800 0.00205900 0.04720000
v 0.27076800 0.00205900 0.04720000
v 0.27078900 0.00207300 0.04720000
v 0.27038200 0.00178600 0.04730000
v 0.27038200 0.00178600 0.04730000
v 0.27038200 0.00178600 0.04730000
v 0.27038200 0.00178600 0.04720000
v 0.27038200 0.00178600 0.04720000
v 0.27038200 0.00178600 0.04720000
v 0.26979900 0.00137400 0.04730000
v 0.26979900 0.00137400 0.04720000
v 0.26979900 0.00137400 0.04720000
v 0.26979200 0.00136900 0.04730000
v 0.26979200 0.00136900 0.04720000
v 0.26973700 0.00131600 0.04720000
v 0.26973700 0.00131600 0.04730000
v 0.26970100 0.00124600 0.04720000
v 0.26970100 0.00124600 0.04730000
v 0.26968900 0.00119200 0.04720000
v 0.26968900 0.00119200 0.04730000
v 0.26969300 0.00111600 0.04720000
v 0.26969300 0.00111600 0.04730000
v 0.26971800 0.00104700 0.04720000
v 0.26971800 0.00104700 0.04730000
v 0.26976500 0.00098600 0.04720000
v 0.26976500 0.00098600 0.04730000
v 0.26982900 0.00094100 0.04720000
v 0.26982900 0.00094100 0.04730000
v 0.26989800 0.00092000 0.04720000
v 0.26989800 0.00092000 0.04730000
v 0.26991200 0.00091800 0.04720000
v 0.26991200 0.00091800 0.04730000
v 0.26998700 0.00092200 0.04720000
v 0.26998700 0.00092200 0.04730000
v 0.27005600 0.00094700 0.04720000
v 0.27005600 0.00094700 0.04730000
v 0.27011700 0.00099400 0.04720000
v 0.27011700 0.00099400 0.04730000
v 0.27105000 0.00165900 0.04730000
v 0.27105000 0.00165900 0.04720000
v 0.27107100 0.00167300 0.04720000
v 0.27107100 0.00167300 0.04730000
v 0.27109000 0.00168800 0.04720000
v 0.27109000 0.00168800 0.04730000
v 0.27110600 0.00169800 0.04720000
v 0.27110600 0.00169800 0.04730000
v 0.27112100 0.00170900 0.04720000
v 0.27112100 0.00170900 0.04730000
v 0.27112100 0.00170900 0.04730000
v 0.27112100 0.00170900 0.04720000
v 0.27113100 0.00169400 0.04720000
v 0.27113100 0.00169400 0.04730000
v 0.27114400 0.00167800 0.04720000
v 0.27114400 0.00167800 0.04730000
v 0.27117700 0.00164100 0.04730000
v 0.27117700 0.00164100 0.04730000
v 0.27117700 0.00164100 0.04730000
v 0.27117700 0.00164100 0.04720000
v 0.27117700 0.00164100 0.04720000
v 0.27127200 0.00153700 0.04730000
v 0.27127200 0.00153700 0.04730000
v 0.27127200 0.00153700 0.04730000
v 0.27127200 0.00153700 0.04720000
v 0.27127200 0.00153700 0.04720000
v 0.27127200 0.00153700 0.04720000
v 0.27132800 0.00147600 0.04730000
v 0.27132800 0.00147600 0.04730000
v 0.27132800 0.00147600 0.04730000
v 0.27132800 0.00147600 0.04720000
v 0.27132800 0.00147600 0.04720000
v 0.27132800 0.00147600 0.04720000
v 0.27198200 0.00076200 0.04730000
v 0.27198200 0.00076200 0.04720000
v 0.27198200 0.00076200 0.04720000
v 0.27198900 0.00075300 0.04730000
v 0.27198900 0.00075300 0.04720000
v 0.27205000 0.00070700 0.04720000
v 0.27205000 0.00070700 0.04730000
v 0.27211800 0.00068200 0.04720000
v 0.27211800 0.00068200 0.04730000
v 0.27214300 0.00067800 0.04720000
v 0.27214300 0.00067800 0.04730000
v 0.27221900 0.00068200 0.04720000
v 0.27221900 0.00068200 0.04730000
v 0.27228800 0.00070700 0.04720000
v 0.27228800 0.00070700 0.04730000
v 0.27234900 0.00075400 0.04720000
v 0.27234900 0.00075400 0.04730000
v 0.27239400 0.00081800 0.04720000
v 0.27239400 0.00081800 0.04730000
v 0.27241500 0.00088700 0.04720000
v 0.27241500 0.00088700 0.04730000
v 0.27241700 0.00090100 0.04720000
v 0.27241700 0.00090100 0.04730000
v 0.27241400 0.00097700 0.04720000
v 0.27241400 0.00097700 0.04730000
v 0.27238800 0.00104600 0.04720000
v 0.27238800 0.00104600 0.04730000
v 0.27235300 0.00109500 0.04720000
v 0.27235300 0.00109500 0.04730000
v 0.27234600 0.00110200 0.04730000
v 0.27234600 0.00110200 0.04720000
v 0.27186200 0.00162600 0.04730000
v 0.27186200 0.00162600 0.04720000
v 0.27169400 0.00180800 0.04730000
v 0.27169400 0.00180800 0.04720000
v 0.27167800 0.00182700 0.04730000
v 0.27167800 0.00182700 0.04720000
v 0.27166300 0.00184400 0.04730000
v 0.27166300 0.00184400 0.04730000
v 0.27166300 0.00184400 0.04720000
v 0.27152300 0.00200400 0.04730000
v 0.27152300 0.00200400 0.04720000
v 0.27152300 0.00200400 0.04720000
v 0.27154300 0.00201800 0.04730000
v 0.27154300 0.00201800 0.04730000
v 0.27154300 0.00201800 0.04730000
v 0.27152300 0.00200400 0.04730000
v 0.27152300 0.00200400 0.04730000
v 0.27154300 0.00201800 0.04720000
v 0.27154300 0.00201800 0.04720000
v 0.27154300 0.00201800 0.04720000
v 0.27152300 0.00200400 0.04720000
v 0.27193000 0.00229200 0.04730000
v 0.27193000 0.00229200 0.04730000
v 0.27193000 0.00229200 0.04720000
v 0.27193000 0.00229200 0.04720000
v 0.27193000 0.00229200 0.04720000
v 0.27251200 0.00270300 0.04730000
v 0.27251200 0.00270300 0.04720000
v 0.27252000 0.00270800 0.04730000
v 0.27252000 0.00270800 0.04720000
v 0.27257500 0.00276200 0.04720000
v 0.27257500 0.00276200 0.04730000
v 0.27261100 0.00283100 0.04720000
v 0.27261100 0.00283100 0.04730000
v 0.27262300 0.00288600 0.04720000
v 0.27262300 0.00288600 0.04730000
v 0.27261900 0.00296100 0.04720000
v 0.27261900 0.00296100 0.04730000
v 0.27259400 0.00303100 0.04720000
v 0.27259400 0.00303100 0.04730000
v 0.27254700 0.00309200 0.04720000
v 0.27254700 0.00309200 0.04730000
v 0.27248300 0.00313600 0.04720000
v 0.27248300 0.00313600 0.04730000
v 0.27241400 0.00315800 0.04720000
v 0.27241400 0.00315800 0.04730000
v 0.26979900 0.00137400 0.04730000
v 0.26979900 0.00137400 0.04730000
v 0.27005600 0.00094700 0.04730000
v 0.27005600 0.00094700 0.04730000
v 0.27005600 0.00094700 0.04730000
v 0.27011700 0.00099400 0.04730000
v 0.27011700 0.00099400 0.04730000
v 0.27011700 0.00099400 0.04730000
v 0.27234600 0.00110200 0.04730000
v 0.27234600 0.00110200 0.04730000
v 0.27198900 0.00075300 0.04730000
v 0.27198900 0.00075300 0.04730000
v 0.27235300 0.00109500 0.04730000
v 0.27078900 0.00207300 0.04730000
v 0.27078900 0.00207300 0.04730000
v 0.27078900 0.00207300 0.04730000
v 0.27078900 0.00207300 0.04730000
v 0.27078900 0.00207300 0.04730000
v 0.27119200 0.00236900 0.04730000
v 0.27118100 0.00238400 0.04730000
v 0.27118100 0.00238400 0.04730000
v 0.27152300 0.00200400 0.04730000
v 0.27152300 0.00200400 0.04730000
v 0.27152300 0.00200400 0.04730000
v 0.27152300 0.00200400 0.04730000
v 0.27152300 0.00200400 0.04730000
v 0.27119200 0.00236900 0.04730000
v 0.27119200 0.00236900 0.04730000
v 0.27154300 0.00201800 0.04730000
v 0.27154300 0.00201800 0.04730000
v 0.27154300 0.00201800 0.04730000
v 0.27154300 0.00201800 0.04730000
v 0.27120600 0.00238000 0.04730000
v 0.27122200 0.00239000 0.04730000
v 0.27122200 0.00239000 0.04730000
v 0.26995900 0.00298200 0.04730000
v 0.26995900 0.00298200 0.04730000
v 0.26995900 0.00298200 0.04730000
v 0.27033100 0.00331500 0.04730000
v 0.27033100 0.00331500 0.04730000
v 0.27033100 0.00331500 0.04730000
v 0.27032200 0.00332400 0.04730000
v 0.27032200 0.00332400 0.04730000
v 0.27032200 0.00332400 0.04730000
v 0.27251200 0.00270300 0.04730000
v 0.27251200 0.00270300 0.04730000
v 0.27251200 0.00270300 0.04730000
v 0.27251200 0.00270300 0.04730000
v 0.27219500 0.00308400 0.04730000
v 0.27219500 0.00308400 0.04730000
v 0.27193000 0.00229200 0.04730000
v 0.27219500 0.00308400 0.04730000
v 0.27126200 0.00241800 0.04730000
v 0.27126200 0.00241800 0.04730000
v 0.27124100 0.00240400 0.04730000
v 0.27124100 0.00240400 0.04730000
v 0.27038200 0.00178600 0.04730000
v 0.27038200 0.00178600 0.04730000
v 0.27105000 0.00165900 0.04730000
v 0.27105000 0.00165900 0.04730000
v 0.27076800 0.00205900 0.04730000
v 0.27107100 0.00167300 0.04730000
v 0.27107100 0.00167300 0.04730000
v 0.27076800 0.00205900 0.04730000
v 0.27076800 0.00205900 0.04730000
v 0.27076800 0.00205900 0.04730000
v 0.27109000 0.00168800 0.04730000
v 0.27109000 0.00168800 0.04730000
v 0.27110600 0.00169800 0.04730000
v 0.27110600 0.00169800 0.04730000
v 0.27110600 0.00169800 0.04730000
v 0.27078900 0.00207300 0.04730000
v 0.27112100 0.00170900 0.04730000
v 0.27112100 0.00170900 0.04730000
v 0.27113100 0.00169400 0.04730000
v 0.27113100 0.00169400 0.04730000
v 0.27114400 0.00167800 0.04730000
v 0.27114400 0.00167800 0.04730000
v 0.26979900 0.00137400 0.04730000
v 0.26979200 0.00136900 0.04730000
v 0.26979200 0.00136900 0.04730000
v 0.26998700 0.00092200 0.04730000
v 0.26979200 0.00136900 0.04730000
v 0.26979200 0.00136900 0.04730000
v 0.26991200 0.00091800 0.04730000
v 0.27198200 0.00076200 0.04730000
v 0.27198200 0.00076200 0.04730000
v 0.27198200 0.00076200 0.04730000
v 0.27186200 0.00162600 0.04730000
v 0.27186200 0.00162600 0.04730000
v 0.27186200 0.00162600 0.04730000
v 0.27132800 0.00147600 0.04730000
v 0.27132800 0.00147600 0.04730000
v 0.27117700 0.00164100 0.04730000
v 0.27117700 0.00164100 0.04730000
v 0.27166300 0.00184400 0.04730000
v 0.27166300 0.00184400 0.04730000
v 0.27117700 0.00164100 0.04730000
v 0.27127200 0.00153700 0.04730000
v 0.27167800 0.00182700 0.04730000
v 0.27167800 0.00182700 0.04730000
v 0.27127200 0.00153700 0.04730000
v 0.27132800 0.00147600 0.04730000
v 0.27132800 0.00147600 0.04730000
v 0.27169400 0.00180800 0.04730000
v 0.27169400 0.00180800 0.04730000
v 0.27205000 0.00070700 0.04730000
v 0.27241500 0.00088700 0.04730000
v 0.27241500 0.00088700 0.04730000
v 0.27241500 0.00088700 0.04730000
v 0.27198900 0.00075300 0.04730000
v 0.27198900 0.00075300 0.04730000
v 0.27198900 0.00075300 0.04730000
v 0.27241700 0.00090100 0.04730000
v 0.27241700 0.00090100 0.04730000
v 0.27257500 0.00276200 0.04730000
v 0.27257500 0.00276200 0.04730000
v 0.27261100 0.00283100 0.04730000
v 0.27261100 0.00283100 0.04730000
v 0.27241400 0.00315800 0.04730000
v 0.27241400 0.00315800 0.04730000
v 0.27241400 0.00315800 0.04730000
v 0.27241400 0.00315800 0.04730000
v 0.27241400 0.00315800 0.04730000
v 0.27240000 0.00316000 0.04730000
v 0.27232500 0.00315600 0.04730000
v 0.27232500 0.00315600 0.04730000
v 0.27225500 0.00313000 0.04730000
v 0.27225500 0.00313000 0.04730000
v 0.27045000 0.00245100 0.04730000
v 0.27045000 0.00245100 0.04730000
v 0.27098300 0.00260200 0.04730000
v 0.27098300 0.00260200 0.04730000
v 0.26996600 0.00297500 0.04730000
v 0.26996600 0.00297500 0.04730000
v 0.27061800 0.00226900 0.04730000
v 0.27061800 0.00226900 0.04730000
v 0.27098300 0.00260200 0.04730000
v 0.27098300 0.00260200 0.04730000
v 0.27098300 0.00260200 0.04730000
v 0.27063400 0.00225100 0.04730000
v 0.27063400 0.00225100 0.04730000
v 0.27063400 0.00225100 0.04730000
v 0.27104000 0.00254100 0.04730000
v 0.27104000 0.00254100 0.04730000
v 0.27064900 0.00223400 0.04730000
v 0.27064900 0.00223400 0.04730000
v 0.27064900 0.00223400 0.04730000
v 0.27113400 0.00243700 0.04730000
v 0.27113400 0.00243700 0.04730000
v 0.27113400 0.00243700 0.04730000
v 0.27116800 0.00239900 0.04730000
v 0.27116800 0.00239900 0.04730000
v 0.26989800 0.00092000 0.04730000
v 0.26989800 0.00092000 0.04730000
v 0.26989800 0.00092000 0.04730000
v 0.26989800 0.00092000 0.04730000
v 0.26989800 0.00092000 0.04730000
v 0.26973700 0.00131600 0.04730000
v 0.26973700 0.00131600 0.04730000
v 0.26970100 0.00124600 0.04730000
v 0.26970100 0.00124600 0.04730000
v 0.27228800 0.00070700 0.04730000
v 0.27228800 0.00070700 0.04730000
v 0.27234900 0.00075400 0.04730000
v 0.27239400 0.00081800 0.04730000
v 0.27239400 0.00081800 0.04730000
v 0.27239400 0.00081800 0.04730000
v 0.27239400 0.00081800 0.04730000
v 0.27252000 0.00270800 0.04730000
v 0.27252000 0.00270800 0.04730000
v 0.26989500 0.00317700 0.04730000
v 0.26989500 0.00317700 0.04730000
v 0.27032200 0.00332400 0.04730000
v 0.27032200 0.00332400 0.04730000
v 0.27032200 0.00332400 0.04730000
v 0.26989700 0.00319100 0.04730000
v 0.26989700 0.00319100 0.04730000
v 0.26989700 0.00319100 0.04730000
v 0.26989700 0.00319100 0.04730000
v 0.27026100 0.00337100 0.04730000
v 0.27026100 0.00337100 0.04730000
v 0.26968900 0.00119200 0.04730000
v 0.26968900 0.00119200 0.04730000
v 0.26969300 0.00111600 0.04730000
v 0.26969300 0.00111600 0.04730000
v 0.26982900 0.00094100 0.04730000
v 0.26982900 0.00094100 0.04730000
v 0.26982900 0.00094100 0.04730000
v 0.26969300 0.00111600 0.04730000
v 0.26971800 0.00104700 0.04730000
v 0.26971800 0.00104700 0.04730000
v 0.26976500 0.00098600 0.04730000
v 0.27241400 0.00097700 0.04730000
v 0.27241400 0.00097700 0.04730000
v 0.27238800 0.00104600 0.04730000
v 0.27238800 0.00104600 0.04730000
v 0.27262300 0.00288600 0.04730000
v 0.27262300 0.00288600 0.04730000
v 0.27261900 0.00296100 0.04730000
v 0.27261900 0.00296100 0.04730000
v 0.27248300 0.00313600 0.04730000
v 0.27248300 0.00313600 0.04730000
v 0.27248300 0.00313600 0.04730000
v 0.27261900 0.00296100 0.04730000
v 0.27259400 0.00303100 0.04730000
v 0.27259400 0.00303100 0.04730000
v 0.27254700 0.00309200 0.04730000
v 0.27002400 0.00337000 0.04730000
v 0.27002400 0.00337000 0.04730000
v 0.26996300 0.00332300 0.04730000
v 0.26991800 0.00325900 0.04730000
v 0.26991800 0.00325900 0.04730000
v 0.26991800 0.00325900 0.04730000
v 0.26991800 0.00325900 0.04730000
v 0.26989900 0.00310100 0.04730000
v 0.26989900 0.00310100 0.04730000
v 0.26992400 0.00303200 0.04730000
v 0.26992400 0.00303200 0.04730000
v 0.27211800 0.00068200 0.04730000
v 0.27211800 0.00068200 0.04730000
v 0.27214300 0.00067800 0.04730000
v 0.27214300 0.00067800 0.04730000
v 0.27214300 0.00067800 0.04730000
v 0.27221900 0.00068200 0.04730000
v 0.27221900 0.00068200 0.04730000
v 0.27019400 0.00339500 0.04730000
v 0.27019400 0.00339500 0.04730000
v 0.27016900 0.00339900 0.04730000
v 0.27016900 0.00339900 0.04730000
v 0.27016900 0.00339900 0.04730000
v 0.27009300 0.00339600 0.04730000
v 0.27009300 0.00339600 0.04730000
v 0.27011700 0.00099400 0.04720000
v 0.27011700 0.00099400 0.04720000
v 0.27005600 0.00094700 0.04720000
v 0.27005600 0.00094700 0.04720000
v 0.27005600 0.00094700 0.04720000
v 0.26979900 0.00137400 0.04720000
v 0.26979900 0.00137400 0.04720000
v 0.26979900 0.00137400 0.04720000
v 0.27063400 0.00225100 0.04720000
v 0.27063400 0.00225100 0.04720000
v 0.27061800 0.00226900 0.04720000
v 0.27061800 0.00226900 0.04720000
v 0.27098300 0.00260200 0.04720000
v 0.27098300 0.00260200 0.04720000
v 0.27098300 0.00260200 0.04720000
v 0.27098300 0.00260200 0.04720000
v 0.27098300 0.00260200 0.04720000
v 0.27098300 0.00260200 0.04720000
v 0.27113400 0.00243700 0.04720000
v 0.27113400 0.00243700 0.04720000
v 0.27116800 0.00239900 0.04720000
v 0.27116800 0.00239900 0.04720000
v 0.27078900 0.00207300 0.04720000
v 0.27078900 0.00207300 0.04720000
v 0.27078900 0.00207300 0.04720000
v 0.27078900 0.00207300 0.04720000
v 0.27078900 0.00207300 0.04720000
v 0.27078900 0.00207300 0.04720000
v 0.27240000 0.00316000 0.04720000
v 0.27240000 0.00316000 0.04720000
v 0.27241400 0.00315800 0.04720000
v 0.27241400 0.00315800 0.04720000
v 0.27241400 0.00315800 0.04720000
v 0.27241400 0.00315800 0.04720000
v 0.27241400 0.00315800 0.04720000
v 0.27241400 0.00315800 0.04720000
v 0.27251200 0.00270300 0.04720000
v 0.27251200 0.00270300 0.04720000
v 0.27251200 0.00270300 0.04720000
v 0.27251200 0.00270300 0.04720000
v 0.27251200 0.00270300 0.04720000
v 0.27251200 0.00270300 0.04720000
v 0.27234600 0.00110200 0.04720000
v 0.27234600 0.00110200 0.04720000
v 0.27234600 0.00110200 0.04720000
v 0.27235300 0.00109500 0.04720000
v 0.27238800 0.00104600 0.04720000
v 0.27238800 0.00104600 0.04720000
v 0.27238800 0.00104600 0.04720000
v 0.27205000 0.00070700 0.04720000
v 0.27205000 0.00070700 0.04720000
v 0.27198900 0.00075300 0.04720000
v 0.27198900 0.00075300 0.04720000
v 0.27198900 0.00075300 0.04720000
v 0.27198900 0.00075300 0.04720000
v 0.27198900 0.00075300 0.04720000
v 0.27241500 0.00088700 0.04720000
v 0.27241500 0.00088700 0.04720000
v 0.27241500 0.00088700 0.04720000
v 0.27118100 0.00238400 0.04720000
v 0.27118100 0.00238400 0.04720000
v 0.27119200 0.00236900 0.04720000
v 0.27119200 0.00236900 0.04720000
v 0.27119200 0.00236900 0.04720000
v 0.27119200 0.00236900 0.04720000
v 0.27154300 0.00201800 0.04720000
v 0.27154300 0.00201800 0.04720000
v 0.27154300 0.00201800 0.04720000
v 0.27154300 0.00201800 0.04720000
v 0.27120600 0.00238000 0.04720000
v 0.27120600 0.00238000 0.04720000
v 0.27152300 0.00200400 0.04720000
v 0.27152300 0.00200400 0.04720000
v 0.27152300 0.00200400 0.04720000
v 0.27152300 0.00200400 0.04720000
v 0.27152300 0.00200400 0.04720000
v 0.27152300 0.00200400 0.04720000
v 0.27152300 0.00200400 0.04720000
v 0.27152300 0.00200400 0.04720000
v 0.27076800 0.00205900 0.04720000
v 0.27076800 0.00205900 0.04720000
v 0.27076800 0.00205900 0.04720000
v 0.27076800 0.00205900 0.04720000
v 0.27076800 0.00205900 0.04720000
v 0.27076800 0.00205900 0.04720000
v 0.27232500 0.00315600 0.04720000
v 0.27232500 0.00315600 0.04720000
v 0.27127200 0.00153700 0.04720000
v 0.27127200 0.00153700 0.04720000
v 0.27127200 0.00153700 0.04720000
v 0.27117700 0.00164100 0.04720000
v 0.27117700 0.00164100 0.04720000
v 0.27114400 0.00167800 0.04720000
v 0.27114400 0.00167800 0.04720000
v 0.27126200 0.00241800 0.04720000
v 0.27126200 0.00241800 0.04720000
v 0.27193000 0.00229200 0.04720000
v 0.27193000 0.00229200 0.04720000
v 0.27193000 0.00229200 0.04720000
v 0.27193000 0.00229200 0.04720000
v 0.27124100 0.00240400 0.04720000
v 0.27124100 0.00240400 0.04720000
v 0.27122200 0.00239000 0.04720000
v 0.27219500 0.00308400 0.04720000
v 0.27219500 0.00308400 0.04720000
v 0.27219500 0.00308400 0.04720000
v 0.27241700 0.00090100 0.04720000
v 0.27241700 0.00090100 0.04720000
v 0.27166300 0.00184400 0.04720000
v 0.27166300 0.00184400 0.04720000
v 0.27167800 0.00182700 0.04720000
v 0.27132800 0.00147600 0.04720000
v 0.27109000 0.00168800 0.04720000
v 0.27109000 0.00168800 0.04720000
v 0.27110600 0.00169800 0.04720000
v 0.27110600 0.00169800 0.04720000
v 0.27112100 0.00170900 0.04720000
v 0.27112100 0.00170900 0.04720000
v 0.27112100 0.00170900 0.04720000
v 0.27113100 0.00169400 0.04720000
v 0.27113100 0.00169400 0.04720000
v 0.27064900 0.00223400 0.04720000
v 0.27064900 0.00223400 0.04720000
v 0.27064900 0.00223400 0.04720000
v 0.27104000 0.00254100 0.04720000
v 0.27104000 0.00254100 0.04720000
v 0.27104000 0.00254100 0.04720000
v 0.26989900 0.00310100 0.04720000
v 0.26989900 0.00310100 0.04720000
v 0.26989500 0.00317700 0.04720000
v 0.26989500 0.00317700 0.04720000
v 0.27032200 0.00332400 0.04720000
v 0.27032200 0.00332400 0.04720000
v 0.27032200 0.00332400 0.04720000
v 0.27032200 0.00332400 0.04720000
v 0.26989700 0.00319100 0.04720000
v 0.26989700 0.00319100 0.04720000
v 0.26989700 0.00319100 0.04720000
v 0.26989700 0.00319100 0.04720000
v 0.26989700 0.00319100 0.04720000
v 0.27026100 0.00337100 0.04720000
v 0.27026100 0.00337100 0.04720000
v 0.27225500 0.00313000 0.04720000
v 0.27225500 0.00313000 0.04720000
v 0.27198200 0.00076200 0.04720000
v 0.27186200 0.00162600 0.04720000
v 0.27169400 0.00180800 0.04720000
v 0.26979200 0.00136900 0.04720000
v 0.26979200 0.00136900 0.04720000
v 0.26979200 0.00136900 0.04720000
v 0.26979200 0.00136900 0.04720000
v 0.26998700 0.00092200 0.04720000
v 0.26998700 0.00092200 0.04720000
v 0.26991200 0.00091800 0.04720000
v 0.26991200 0.00091800 0.04720000
v 0.27107100 0.00167300 0.04720000
v 0.27107100 0.00167300 0.04720000
v 0.27105000 0.00165900 0.04720000
v 0.27105000 0.00165900 0.04720000
v 0.27105000 0.00165900 0.04720000
v 0.27105000 0.00165900 0.04720000
v 0.27038200 0.00178600 0.04720000
v 0.27038200 0.00178600 0.04720000
v 0.27261100 0.00283100 0.04720000
v 0.27261100 0.00283100 0.04720000
v 0.27257500 0.00276200 0.04720000
v 0.27257500 0.00276200 0.04720000
v 0.27252000 0.00270800 0.04720000
v 0.27252000 0.00270800 0.04720000
v 0.26989800 0.00092000 0.04720000
v 0.26989800 0.00092000 0.04720000
v 0.26989800 0.00092000 0.04720000
v 0.26970100 0.00124600 0.04720000
v 0.26970100 0.00124600 0.04720000
v 0.26973700 0.00131600 0.04720000
v 0.27045000 0.00245100 0.04720000
v 0.27045000 0.00245100 0.04720000
v 0.26996600 0.00297500 0.04720000
v 0.26996600 0.00297500 0.04720000
v 0.26996600 0.00297500 0.04720000
v 0.27033100 0.00331500 0.04720000
v 0.27033100 0.00331500 0.04720000
v 0.26995900 0.00298200 0.04720000
v 0.26995900 0.00298200 0.04720000
v 0.26995900 0.00298200 0.04720000
v 0.26992400 0.00303200 0.04720000
v 0.26992400 0.00303200 0.04720000
v 0.26991800 0.00325900 0.04720000
v 0.26991800 0.00325900 0.04720000
v 0.26991800 0.00325900 0.04720000
v 0.26991800 0.00325900 0.04720000
v 0.27016900 0.00339900 0.04720000
v 0.27016900 0.00339900 0.04720000
v 0.27016900 0.00339900 0.04720000
v 0.27019400 0.00339500 0.04720000
v 0.27019400 0.00339500 0.04720000
v 0.27254700 0.00309200 0.04720000
v 0.27259400 0.00303100 0.04720000
v 0.27259400 0.00303100 0.04720000
v 0.27248300 0.00313600 0.04720000
v 0.27248300 0.00313600 0.04720000
v 0.27261900 0.00296100 0.04720000
v 0.27261900 0.00296100 0.04720000
v 0.27261900 0.00296100 0.04720000
v 0.27262300 0.00288600 0.04720000
v 0.27262300 0.00288600 0.04720000
v 0.27241400 0.00097700 0.04720000
v 0.27241400 0.00097700 0.04720000
v 0.27239400 0.00081800 0.04720000
v 0.27239400 0.00081800 0.04720000
v 0.27214300 0.00067800 0.04720000
v 0.27214300 0.00067800 0.04720000
v 0.27214300 0.00067800 0.04720000
v 0.27211800 0.00068200 0.04720000
v 0.27211800 0.00068200 0.04720000
v 0.26976500 0.00098600 0.04720000
v 0.26971800 0.00104700 0.04720000
v 0.26982900 0.00094100 0.04720000
v 0.26969300 0.00111600 0.04720000
v 0.26969300 0.00111600 0.04720000
v 0.26968900 0.00119200 0.04720000
v 0.26968900 0.00119200 0.04720000
v 0.26996300 0.00332300 0.04720000
v 0.27002400 0.00337000 0.04720000
v 0.27002400 0.00337000 0.04720000
v 0.27009300 0.00339600 0.04720000
v 0.27009300 0.00339600 0.04720000
v 0.27234900 0.00075400 0.04720000
v 0.27228800 0.00070700 0.04720000
v 0.27221900 0.00068200 0.04720000
v 0.27221900 0.00068200 0.04720000
vn 0.00969000 0.99995300 0.00000000
vn 0.07003200 0.99754500 0.00000000
vn -0.15087800 0.98855200 0.00000000
vn -0.25052100 0.96811100 0.00000000
vn -0.43887300 0.89854900 0.00000000
vn -0.52741000 0.84961100 0.00000000
vn -0.60024600 0.79981600 0.00000000
vn -0.59064300 0.80693300 0.00000000
vn -0.55739900 0.83024400 0.00000000
vn -0.56914500 0.82223700 0.00000000
vn -0.56616400 0.82429300 0.00000600
vn -0.58650500 0.80994600 -0.00000600
vn -0.58339500 0.81218800 0.00000000
vn -0.55987900 0.82857400 0.00000000
vn -0.55595400 0.83121300 0.00000000
vn -0.57570800 0.81765500 0.00000000
vn -0.59489500 0.80380400 0.00000000
vn -0.59515300 0.80361200 0.00000000
vn 0.81288400 0.58242500 0.00000000
vn 0.81294200 0.58234500 0.00000000
vn 0.79927700 0.60096300 0.00000500
vn 0.78518500 0.61926100 -0.00000500
vn 0.76047800 0.64936300 0.00000000
vn 0.75016500 0.66125100 0.00000000
vn 0.74053800 0.67201400 0.00000000
vn 0.73992300 0.67269100 0.00000000
vn 0.74057100 0.67197800 0.00000000
vn 0.73992600 0.67268800 0.00000000
vn 0.73979400 0.67283300 0.00000000
vn 0.73734100 0.67552100 -0.00000200
vn 0.73730800 0.67555700 0.00000000
vn 0.73734100 0.67552100 0.00000000
vn 0.73886100 0.67385800 0.00000000
vn 0.73889300 0.67382200 0.00000000
vn 0.73886100 0.67385800 0.00000000
vn 0.73727600 0.67559200 0.00000000
vn 0.73726500 0.67560400 0.00000000
vn 0.73653000 0.67640400 0.00000000
vn 0.73653000 0.67640400 0.00000000
vn 0.73652100 0.67641500 0.00000000
vn 0.71914200 0.69486300 0.00000000
vn 0.72858400 0.68495600 0.00000300
vn 0.64238400 0.76638300 0.00000000
vn 0.67666900 0.73628800 0.00000000
vn 0.52406300 0.85168000 0.00000000
vn 0.43513300 0.90036600 0.00000000
vn 0.28016100 0.95995300 0.00000000
vn 0.21620600 0.97634800 0.00000000
vn 0.08537900 0.99634900 0.00000000
vn 0.01856200 0.99982800 0.00000000
vn -0.14811900 0.98897000 0.00000000
vn -0.24762600 0.96885600 0.00000000
vn -0.43639900 0.89975300 0.00000000
vn -0.52552400 0.85077900 -0.00002400
vn -0.68724300 0.72642800 0.00000000
vn -0.75932500 0.65071200 0.00000000
vn -0.87545100 0.48330700 0.00000000
vn -0.91988700 0.39218200 0.00000000
vn -0.97004300 0.24293300 0.00000000
vn -0.98234200 0.18709400 -0.00001000
vn -0.99739700 0.07209900 0.00000000
vn -0.99991600 0.01299600 -0.00001500
vn -0.98924800 -0.14625100 -0.00000200
vn -0.96928300 -0.24594800 0.00000000
vn -0.90481700 -0.42580000 0.00000000
vn -0.86226400 -0.50646000 -0.00001800
vn -0.78390400 -0.62088200 -0.00000100
vn -0.75297000 -0.65805500 -0.00001200
vn -0.72961200 -0.68386100 0.00000000
vn -0.72504400 -0.68870200 0.00000000
vn -0.73559800 -0.67741900 0.00000000
vn -0.73529100 -0.67775200 0.00000000
vn -0.74441300 -0.66771900 0.00000000
vn -0.74033900 -0.67223400 0.00000000
vn -0.75215000 -0.65899200 0.00000000
vn -0.75220400 -0.65893100 0.00000000
vn -0.75039500 -0.66099000 0.00000000
vn -0.75444100 -0.65636700 0.00000000
vn -0.75441400 -0.65639900 0.00000000
vn -0.75444300 -0.65636600 0.00000000
vn -0.75416600 -0.65668400 0.00000000
vn -0.75403300 -0.65683700 0.00000000
vn -0.75422500 -0.65661600 0.00000000
vn -0.75475700 -0.65600400 0.00000000
vn -0.75485400 -0.65589300 0.00000000
vn -0.75475700 -0.65600400 0.00000000
vn -0.57943600 0.81501800 0.00000000
vn -0.57946100 0.81500000 -0.00000000
vn -0.58494100 0.81107600 0.00000000
vn -0.58493700 0.81107900 0.00000000
vn -0.58225100 0.81300900 0.00000000
vn -0.58223300 0.81302200 0.00000000
vn -0.58493700 0.81107900 0.00000000
vn -0.57672300 0.81694000 0.00000000
vn -0.57657800 0.81704200 0.00000000
vn -0.57654700 0.81706400 0.00000000
vn -0.57674700 0.81692300 0.00000000
vn -0.57672300 0.81694000 0.00000000
vn -0.57657800 0.81704200 0.00000000
vn -0.58122400 0.81374400 0.00000000
vn -0.57888700 0.81540800 -0.00000000
vn -0.57896700 0.81535100 -0.00000000
vn -0.66281200 0.74878600 -0.00001200
vn -0.62398400 0.78143800 -0.00000100
vn -0.77054600 0.63738500 0.00000000
vn -0.83336300 0.55272700 0.00000000
vn -0.92435900 0.38152500 0.00001800
vn -0.95503600 0.29649000 -0.00001700
vn -0.99219200 0.12471700 0.00000000
vn -0.99927000 0.03820200 0.00000000
vn -0.98898800 -0.14799800 0.00000000
vn -0.96890800 -0.24741900 0.00000000
vn -0.89992400 -0.43604800 0.00000000
vn -0.85105900 -0.52507000 -0.00002400
vn -0.72695800 -0.68668200 0.00000000
vn -0.65141300 -0.75872300 0.00000000
vn -0.48411100 -0.87500700 0.00002400
vn -0.39282400 -0.91961400 -0.00002000
vn -0.24335000 -0.96993900 -0.00000900
vn -0.18730000 -0.98230300 0.00000000
vn -0.07036000 -0.99752200 0.00000000
vn -0.00958300 -0.99995400 0.00000000
vn 0.15107700 -0.98852200 0.00000000
vn 0.25048400 -0.96812100 0.00000200
vn 0.43787800 -0.89903400 0.00002400
vn 0.52584700 -0.85057900 0.00000200
vn 0.59876600 -0.80092400 0.00000000
vn 0.58980300 -0.80754700 0.00000000
vn 0.56341000 -0.82617800 0.00000000
vn 0.57202000 -0.82024000 0.00000000
vn 0.56919200 -0.82220500 0.00000000
vn 0.58356600 -0.81206600 -0.00000400
vn 0.58462300 -0.81130500 0.00000000
vn 0.57138200 -0.82068400 0.00000000
vn 0.56723100 -0.82355900 0.00000200
vn 0.57646400 -0.81712300 0.00000300
vn 0.58559000 -0.81060800 0.00000000
vn 0.58578000 -0.81047000 0.00000000
vn -0.80861400 -0.58834000 0.00000000
vn -0.80837300 -0.58867000 0.00000000
vn -0.80243800 -0.59673600 -0.00000000
vn -0.79646900 -0.60467900 -0.00000300
vn -0.77395800 -0.63323700 0.00000000
vn -0.75694700 -0.65347600 -0.00000500
vn -0.73765200 -0.67518100 -0.00000000
vn -0.73773500 -0.67509000 0.00000000
vn -0.73771700 -0.67511000 -0.00000000
vn -0.73862200 -0.67411900 0.00000000
vn -0.73857600 -0.67417000 0.00000000
vn -0.73891500 -0.67379900 0.00000000
vn -0.73875100 -0.67397800 0.00000000
vn -0.73886700 -0.67385200 0.00000000
vn -0.73780000 -0.67502000 0.00000000
vn -0.73783200 -0.67498400 0.00000000
vn -0.73778100 -0.67504000 0.00000000
vn -0.73839800 -0.67436600 0.00000000
vn -0.73840300 -0.67436000 0.00000000
vn -0.73830200 -0.67447000 0.00000000
vn -0.73914100 -0.67355100 0.00000000
vn -0.73919000 -0.67349700 0.00000000
vn -0.73904900 -0.67365200 0.00000000
vn -0.74459400 -0.66751700 0.00000000
vn -0.74112700 -0.67136500 0.00000000
vn -0.74114400 -0.67134600 0.00000000
vn -0.65426100 -0.75626900 0.00000000
vn -0.70275400 -0.71143300 0.00001200
vn -0.52192200 -0.85299300 0.00002200
vn -0.43499000 -0.90043600 0.00000000
vn -0.28298200 -0.95912500 0.00000000
vn -0.21997000 -0.97550700 0.00000000
vn -0.08846500 -0.99607900 0.00001200
vn -0.02001400 -0.99980000 0.00001100
vn 0.14836900 -0.98893200 -0.00000200
vn 0.24781600 -0.96880700 0.00000000
vn 0.43657800 -0.89966700 -0.00000200
vn 0.52571200 -0.85066300 0.00000000
vn 0.68725300 -0.72641800 0.00000000
vn 0.75916500 -0.65089800 0.00000000
vn 0.87513100 -0.48388600 0.00001700
vn 0.91956400 -0.39294000 0.00000000
vn 0.96990700 -0.24347600 0.00000000
vn 0.98233700 -0.18711800 0.00000000
vn 0.99741400 -0.07186500 0.00000000
vn 0.99991600 -0.01299500 0.00000000
vn 0.98921700 0.14645500 0.00002000
vn 0.96914000 0.24651000 0.00000000
vn 0.90445600 0.42656700 0.00000000
vn 0.86185400 0.50715700 0.00000000
vn 0.77752100 0.62885700 0.00001000
vn 0.73989500 0.67272300 0.00000100
vn 0.72317900 0.69066100 0.00000000
vn 0.71165000 0.70253400 0.00000000
vn 0.73436000 0.67876000 0.00000000
vn 0.73436200 0.67875800 0.00000000
vn 0.76129400 0.64840600 0.00000000
vn 0.74794000 0.66376600 0.00000000
vn 0.75578300 0.65482200 0.00000000
vn 0.76518400 0.64381200 0.00000000
vn 0.75135100 0.65990300 0.00000000
vn 0.75135200 0.65990200 0.00000000
vn 0.74887600 0.66271000 0.00000000
vn 0.75375000 0.65716100 0.00000000
vn 0.75392400 0.65696200 0.00000000
vn 0.75375000 0.65716100 0.00000000
vn 0.57666500 -0.81698100 0.00000000
vn 0.57635200 -0.81720200 0.00000000
vn 0.57659300 -0.81703200 0.00000000
vn 0.57458700 -0.81844300 0.00000000
vn 0.57460600 -0.81843000 -0.00000000
vn 0.57550800 -0.81779600 0.00000000
vn 0.57553500 -0.81777700 0.00000000
vn 0.57552900 -0.81778200 0.00000000
vn 0.57460600 -0.81843000 0.00000000
vn 0.57721300 -0.81659400 0.00000000
vn 0.57675400 -0.81691800 0.00000000
vn 0.57721300 -0.81659400 0.00000000
vn 0.57721900 -0.81658900 0.00000000
vn 0.57714800 -0.81664000 0.00000000
vn 0.55924900 -0.82899900 0.00000000
vn 0.56801900 -0.82301500 0.00000000
vn 0.65279800 -0.75753200 -0.00001400
vn 0.60272900 -0.79794600 0.00001600
vn 0.77050500 -0.63743300 0.00000000
vn 0.83327800 -0.55285500 -0.00001800
vn 0.92426900 -0.38174300 0.00000000
vn 0.95497400 -0.29669000 0.00000000
vn 0.99219500 -0.12469400 0.00000000
vn 0.99927400 -0.03809800 0.00000000
vn 0.98892500 0.14841400 0.00000000
vn 0.96878200 0.24791500 0.00000000
vn 0.89962200 0.43667000 0.00001900
vn 0.85063500 0.52575700 0.00000000
vn 0.72639600 0.68727700 0.00000000
vn 0.65085800 0.75920000 0.00000000
vn 0.48362500 0.87527600 0.00002200
vn 0.39241900 0.91978700 0.00001700
vn 0.24279400 0.97007800 0.00000000
vn 0.18668300 0.98242000 0.00000000
vn 0.00000000 0.00000000 1.00000000
vn 0.00006000 -0.00000600 1.00000000
vn -0.00035000 0.00003600 1.00000000
vn 0.00000000 0.00000000 1.00000000
vn 0.00006000 -0.00000600 1.00000000
vn -0.00001300 0.00000100 1.00000000
vn 0.00000000 0.00000000 1.00000000
vn 0.00006000 -0.00000600 1.00000000
vn -0.00006300 0.00000600 1.00000000
vn 0.00000000 0.00000000 1.00000000
vn 0.00000000 0.00000000 1.00000000
vn -0.00006300 0.00000600 1.00000000
vn 0.00000000 0.00000000 1.00000000
vn 0.00002500 -0.00000300 1.00000000
vn 0.00000000 0.00000000 1.00000000
vn -0.00028900 0.00002900 1.00000000
vn -0.00033400 0.00003400 1.00000000
vn 0.00000900 -0.00000100 1.00000000
vn -0.00028900 0.00002900 1.00000000
vn -0.00028900 0.00002900 1.00000000
vn 0.00000000 0.00000000 1.00000000
vn 0.00000000 0.00000000 1.00000000
vn -0.00007700 0.00000800 1.00000000
vn -0.00001900 0.00000200 1.00000000
vn 0.00006300 -0.00000600 1.00000000
vn -0.00001700 0.00000200 1.00000000
vn -0.00001900 0.00000200 1.00000000
vn 0.00000000 0.00000000 1.00000000
vn 0.00020200 -0.00002100 1.00000000
vn -0.00002800 0.00000300 1.00000000
vn 0.00000000 0.00000000 1.00000000
vn -0.00001900 0.00000200 1.00000000
vn 0.00000000 0.00000000 1.00000000
vn 0.00000000 0.00000000 1.00000000
vn -0.00002800 0.00000300 1.00000000
vn 0.00003000 -0.00000300 1.00000000
vn 0.00012400 -0.00001300 1.00000000
vn 0.00000000 0.00000000 1.00000000
vn 0.00012400 -0.00001300 1.00000000
vn -0.00000800 0.00000100 1.00000000
vn 0.00000000 0.00000000 1.00000000
vn 0.00012400 -0.00001300 1.00000000
vn -0.00005200 0.00000500 1.00000000
vn 0.00003000 -0.00000300 1.00000000
vn -0.00006000 0.00000600 1.00000000
vn 0.00000500 -0.00000000 1.00000000
vn 0.00005600 -0.00000600 1.00000000
vn 0.00000000 0.00000000 1.00000000
vn -0.00006000 0.00000600 1.00000000
vn 0.00000000 0.00000000 1.00000000
vn 0.00000000 0.00000000 1.00000000
vn 0.00000000 0.00000000 1.00000000
vn 0.00000000 0.00000000 1.00000000
vn 0.00020200 -0.00002100 1.00000000
vn -0.00002800 0.00000300 1.00000000
vn 0.00020200 -0.00002100 1.00000000
vn 0.00000000 0.00000000 1.00000000
vn -0.00001300 0.00000100 1.00000000
vn -0.00001300 0.00000100 1.00000000
vn 0.00000000 0.00000000 1.00000000
vn 0.00000000 0.00000000 1.00000000
vn 0.00000000 0.00000000 1.00000000
vn -0.00011300 0.00001100 1.00000000
vn -0.00011300 0.00001100 1.00000000
vn 0.00000000 0.00000000 1.00000000
vn 0.00002500 -0.00000300 1.00000000
vn 0.00002500 -0.00000300 1.00000000
vn -0.00011300 0.00001100 1.00000000
vn 0.00002500 -0.00000300 1.00000000
vn 0.00000000 0.00000000 1.00000000
vn 0.00002500 -0.00000300 1.00000000
vn 0.00000000 0.00000000 1.00000000
vn 0.00002500 -0.00000300 1.00000000
vn 0.00000000 0.00000000 1.00000000
vn 0.00000000 0.00000000 1.00000000
vn -0.00007700 0.00000800 1.00000000
vn -0.00007700 0.00000800 1.00000000
vn 0.00006300 -0.00000600 1.00000000
vn -0.00035000 0.00003600 1.00000000
vn -0.00035000 0.00003600 1.00000000
vn 0.00000000 0.00000000 1.00000000
vn 0.00000000 0.00000000 1.00000000
vn -0.00003000 0.00000300 1.00000000
vn 0.00000000 0.00000000 1.00000000
vn 0.00000000 0.00000000 1.00000000
vn 0.00000000 0.00000000 1.00000000
vn 0.00001100 -0.00000100 1.00000000
vn -0.00006300 0.00000600 1.00000000
vn 0.00000000 0.00000000 1.00000000
vn -0.00001500 0.00000200 1.00000000
vn 0.00001100 -0.00000100 1.00000000
vn 0.00001100 -0.00000100 1.00000000
vn -0.00001500 0.00000200 1.00000000
vn -0.00001700 0.00000200 1.00000000
vn 0.00006300 -0.00000600 1.00000000
vn -0.00001700 0.00000200 1.00000000
vn 0.00000000 0.00000000 1.00000000
vn 0.00000000 0.00000000 1.00000000
vn 0.00000000 0.00000000 1.00000000
vn 0.00000000 0.00000000 1.00000000
vn -0.00003300 0.00000300 1.00000000
vn -0.00003300 0.00000300 1.00000000
vn -0.00003300 0.00000300 1.00000000
vn 0.00000000 0.00000000 1.00000000
vn 0.00000000 0.00000000 1.00000000
vn -0.00001500 0.00000200 1.00000000
vn 0.00000000 0.00000000 1.00000000
vn 0.00000000 0.00000000 1.00000000
vn 0.00013800 -0.00001400 1.00000000
vn 0.00012500 -0.00001300 1.00000000
vn 0.00002600 -0.00000300 1.00000000
vn 0.00013800 -0.00001400 1.00000000
vn 0.00000000 0.00000000 1.00000000
vn 0.00000000 0.00000000 1.00000000
vn 0.00013800 -0.00001400 1.00000000
vn 0.00007100 -0.00000700 1.00000000
vn 0.00000000 0.00000000 1.00000000
vn 0.00007100 -0.00000700 1.00000000
vn -0.00012500 0.00001300 1.00000000
vn 0.00007100 -0.00000700 1.00000000
vn -0.00012500 0.00001300 1.00000000
vn 0.00000000 0.00000000 1.00000000
vn 0.00010000 -0.00001000 1.00000000
vn 0.00000500 -0.00000000 1.00000000
vn 0.00000000 0.00000000 1.00000000
vn 0.00000000 0.00000000 1.00000000
vn 0.00005600 -0.00000600 1.00000000
vn -0.00006000 0.00000600 1.00000000
vn 0.00005600 -0.00000600 1.00000000
vn 0.00003000 -0.00000300 1.00000000
vn 0.00000000 0.00000000 1.00000000
vn 0.00000000 0.00000000 1.00000000
vn -0.00000800 0.00000100 1.00000000
vn 0.00000000 0.00000000 1.00000000
vn -0.00000800 0.00000100 1.00000000
vn 0.00022100 -0.00002200 1.00000000
vn 0.00003000 -0.00000300 1.00000000
vn 0.00000000 0.00000000 1.00000000
vn 0.00022100 -0.00002200 1.00000000
vn 0.00003000 -0.00000300 1.00000000
vn 0.00022100 -0.00002200 1.00000000
vn 0.00001000 -0.00000100 1.00000000
vn 0.00000000 0.00000000 1.00000000
vn 0.00001000 -0.00000100 1.00000000
vn 0.00000000 0.00000000 1.00000000
vn 0.00000000 0.00000000 1.00000000
vn 0.00001000 -0.00000100 1.00000000
vn 0.00000900 -0.00000100 1.00000000
vn 0.00000000 0.00000000 1.00000000
vn 0.00000900 -0.00000100 1.00000000
vn -0.00033400 0.00003400 1.00000000
vn 0.00000000 0.00000000 1.00000000
vn -0.00033400 0.00003400 1.00000000
vn -0.00010000 0.00001000 1.00000000
vn 0.00006100 -0.00000600 1.00000000
vn -0.00003000 0.00000300 1.00000000
vn 0.00000000 0.00000000 1.00000000
vn -0.00012600 0.00001300 1.00000000
vn -0.00003000 0.00000300 1.00000000
vn 0.00000000 0.00000000 1.00000000
vn 0.00000000 0.00000000 1.00000000
vn -0.00012600 0.00001300 1.00000000
vn 0.00004500 -0.00000500 1.00000000
vn -0.00033400 0.00003400 1.00000000
vn -0.00033400 0.00003400 1.00000000
vn 0.00004500 -0.00000500 1.00000000
vn 0.00001200 -0.00000100 1.00000000
vn -0.00033400 0.00003400 1.00000000
vn 0.00000000 0.00000000 1.00000000
vn 0.00000500 -0.00000000 1.00000000
vn 0.00000000 0.00000000 1.00000000
vn 0.00001300 -0.00000100 1.00000000
vn 0.00005500 -0.00000600 1.00000000
vn 0.00001300 -0.00000100 1.00000000
vn 0.00005500 -0.00000600 1.00000000
vn 0.00005700 -0.00000600 1.00000000
vn 0.00001300 -0.00000100 1.00000000
vn 0.00000000 0.00000000 1.00000000
vn 0.00005700 -0.00000600 1.00000000
vn -0.00029600 0.00003000 1.00000000
vn 0.00000000 0.00000000 1.00000000
vn 0.00005700 -0.00000600 1.00000000
vn -0.00012600 0.00001300 1.00000000
vn 0.00006100 -0.00000600 1.00000000
vn -0.00010000 0.00001000 1.00000000
vn 0.00006100 -0.00000600 1.00000000
vn 0.00024500 -0.00002500 1.00000000
vn -0.00010000 0.00001000 1.00000000
vn 0.00000000 0.00000000 1.00000000
vn 0.00000000 0.00000000 1.00000000
vn 0.00024500 -0.00002500 1.00000000
vn 0.00000000 0.00000000 1.00000000
vn 0.00024500 -0.00002500 1.00000000
vn 0.00000000 0.00000000 1.00000000
vn 0.00002600 -0.00000300 1.00000000
vn 0.00002600 -0.00000300 1.00000000
vn 0.00000000 0.00000000 1.00000000
vn -0.00012500 0.00001300 1.00000000
vn 0.00000000 0.00000000 1.00000000
vn 0.00010000 -0.00001000 1.00000000
vn 0.00000000 0.00000000 1.00000000
vn 0.00000000 0.00000000 1.00000000
vn 0.00010000 -0.00001000 1.00000000
vn 0.00008100 -0.00000800 1.00000000
vn 0.00000000 0.00000000 1.00000000
vn 0.00008100 -0.00000800 1.00000000
vn 0.00000000 0.00000000 1.00000000
vn 0.00008100 -0.00000800 1.00000000
vn -0.00024400 0.00002500 1.00000000
vn 0.00009100 -0.00000900 1.00000000
vn -0.00024400 0.00002500 1.00000000
vn -0.00024400 0.00002500 1.00000000
vn 0.00009100 -0.00000900 1.00000000
vn 0.00001200 -0.00000100 1.00000000
vn 0.00000000 0.00000000 1.00000000
vn -0.00005200 0.00000500 1.00000000
vn 0.00005500 -0.00000600 1.00000000
vn -0.00005200 0.00000500 1.00000000
vn 0.00003000 -0.00000300 1.00000000
vn 0.00000000 0.00000000 1.00000000
vn 0.00012500 -0.00001300 1.00000000
vn 0.00012500 -0.00001300 1.00000000
vn 0.00000000 0.00000000 1.00000000
vn 0.00001200 -0.00000100 1.00000000
vn 0.00004500 -0.00000500 1.00000000
vn 0.00001200 -0.00000100 1.00000000
vn 0.00000000 0.00000000 1.00000000
vn -0.00029600 0.00003000 1.00000000
vn -0.00029600 0.00003000 1.00000000
vn 0.00000000 0.00000000 1.00000000
vn 0.00001200 -0.00000100 1.00000000
vn 0.00001200 -0.00000100 1.00000000
vn 0.00009100 -0.00000900 1.00000000
vn 0.00000600 -0.00000100 -1.00000000
vn -0.00009500 0.00001000 -1.00000000
vn -0.00009500 0.00001000 -1.00000000
vn 0.00000000 0.00000000 -1.00000000
vn -0.00002500 0.00000300 -1.00000000
vn 0.00000600 -0.00000100 -1.00000000
vn 0.00000000 0.00000000 -1.00000000
vn -0.00009500 0.00001000 -1.00000000
vn 0.00015400 -0.00001600 -1.00000000
vn -0.00017700 0.00001800 -1.00000000
vn -0.00001500 0.00000200 -1.00000000
vn -0.00017600 0.00001800 -1.00000000
vn -0.00001500 0.00000200 -1.00000000
vn -0.00002200 0.00000200 -1.00000000
vn 0.00001000 -0.00000100 -1.00000000
vn -0.00017700 0.00001800 -1.00000000
vn 0.00000000 0.00000000 -1.00000000
vn 0.00015400 -0.00001600 -1.00000000
vn 0.00000000 0.00000000 -1.00000000
vn -0.00001300 0.00000100 -1.00000000
vn -0.00002200 0.00000200 -1.00000000
vn 0.00000000 0.00000000 -1.00000000
vn -0.00006300 0.00000600 -1.00000000
vn -0.00002200 0.00000200 -1.00000000
vn 0.00000000 0.00000000 -1.00000000
vn -0.00001300 0.00000100 -1.00000000
vn 0.00001200 -0.00000100 -1.00000000
vn 0.00003400 -0.00000300 -1.00000000
vn -0.00002600 0.00000300 -1.00000000
vn 0.00010300 -0.00001000 -1.00000000
vn 0.00001500 -0.00000200 -1.00000000
vn 0.00003900 -0.00000400 -1.00000000
vn -0.00006100 0.00000600 -1.00000000
vn -0.00024000 0.00002400 -1.00000000
vn 0.00000000 0.00000000 -1.00000000
vn -0.00002600 0.00000300 -1.00000000
vn 0.00001000 -0.00000100 -1.00000000
vn 0.00010300 -0.00001000 -1.00000000
vn 0.00003900 -0.00000400 -1.00000000
vn -0.00004800 0.00000500 -1.00000000
vn -0.00002600 0.00000300 -1.00000000
vn 0.00003100 -0.00000300 -1.00000000
vn 0.00000000 0.00000000 -1.00000000
vn -0.00000100 0.00000100 -1.00000000
vn 0.00010500 -0.00001100 -1.00000000
vn -0.00001400 0.00000100 -1.00000000
vn -0.00002300 0.00000200 -1.00000000
vn 0.00010500 -0.00001100 -1.00000000
vn -0.00003900 0.00000400 -1.00000000
vn 0.00000000 0.00000000 -1.00000000
vn 0.00006500 -0.00000700 -1.00000000
vn 0.00006500 -0.00000700 -1.00000000
vn 0.00010500 -0.00001100 -1.00000000
vn -0.00003900 0.00000400 -1.00000000
vn 0.00000000 0.00000000 -1.00000000
vn -0.00001400 0.00000100 -1.00000000
vn -0.00003300 0.00000300 -1.00000000
vn 0.00006500 -0.00000700 -1.00000000
vn 0.00000000 0.00000000 -1.00000000
vn -0.00006300 0.00000600 -1.00000000
vn -0.00002200 0.00000200 -1.00000000
vn -0.00006300 0.00000600 -1.00000000
vn -0.00017200 0.00001800 -1.00000000
vn -0.00007500 0.00000800 -1.00000000
vn 0.00001200 -0.00000100 -1.00000000
vn 0.00000800 -0.00000100 -1.00000000
vn -0.00007500 0.00000800 -1.00000000
vn -0.00017200 0.00001800 -1.00000000
vn 0.00000000 0.00000000 -1.00000000
vn 0.00000000 0.00000000 -1.00000000
vn -0.00007500 0.00000800 -1.00000000
vn -0.00000900 0.00000100 -1.00000000
vn 0.00001200 -0.00000100 -1.00000000
vn -0.00003400 0.00000300 -1.00000000
vn 0.00000000 0.00000000 -1.00000000
vn -0.00016700 0.00001700 -1.00000000
vn -0.00017200 0.00001800 -1.00000000
vn 0.00005100 -0.00000500 -1.00000000
vn -0.00000600 0.00000100 -1.00000000
vn -0.00000600 0.00000100 -1.00000000
vn 0.00006600 -0.00000700 -1.00000000
vn 0.00000000 0.00000000 -1.00000000
vn 0.00013200 -0.00001300 -1.00000000
vn 0.00004700 -0.00000500 -1.00000000
vn -0.00000800 0.00000100 -1.00000000
vn 0.00003100 -0.00000300 -1.00000000
vn 0.00010300 -0.00001000 -1.00000000
vn -0.00003400 0.00000300 -1.00000000
vn 0.00000000 0.00000000 -1.00000000
vn 0.00005100 -0.00000500 -1.00000000
vn 0.00005100 -0.00000500 -1.00000000
vn -0.00000900 0.00000100 -1.00000000
vn 0.00000000 0.00000000 -1.00000000
vn -0.00000900 0.00000100 -1.00000000
vn 0.00000000 0.00000000 -1.00000000
vn -0.00001300 0.00000100 -1.00000000
vn 0.00000800 -0.00000100 -1.00000000
vn 0.00000000 0.00000000 -1.00000000
vn 0.00001000 -0.00000100 -1.00000000
vn -0.00001300 0.00000100 -1.00000000
vn 0.00000000 0.00000000 -1.00000000
vn 0.00000800 -0.00000100 -1.00000000
vn 0.00000000 0.00000000 -1.00000000
vn -0.00001300 0.00000100 -1.00000000
vn 0.00001000 -0.00000100 -1.00000000
vn -0.00004800 0.00000500 -1.00000000
vn 0.00000000 0.00000000 -1.00000000
vn -0.00001400 0.00000100 -1.00000000
vn 0.00000000 0.00000000 -1.00000000
vn -0.00003400 0.00000300 -1.00000000
vn 0.00000000 0.00000000 -1.00000000
vn 0.00000000 0.00000000 -1.00000000
vn 0.00006600 -0.00000700 -1.00000000
vn 0.00000000 0.00000000 -1.00000000
vn 0.00000000 0.00000000 -1.00000000
vn 0.00013100 -0.00001300 -1.00000000
vn -0.00000600 0.00000100 -1.00000000
vn -0.00007100 0.00000700 -1.00000000
vn 0.00013100 -0.00001300 -1.00000000
vn -0.00007100 0.00000700 -1.00000000
vn 0.00000000 0.00000000 -1.00000000
vn 0.00003400 -0.00000300 -1.00000000
vn 0.00015400 -0.00001600 -1.00000000
vn -0.00002200 0.00000200 -1.00000000
vn -0.00001300 0.00000100 -1.00000000
vn 0.00003400 -0.00000300 -1.00000000
vn -0.00002200 0.00000200 -1.00000000
vn 0.00003900 -0.00000400 -1.00000000
vn 0.00000000 0.00000000 -1.00000000
vn 0.00008000 -0.00000800 -1.00000000
vn 0.00000000 0.00000000 -1.00000000
vn 0.00001500 -0.00000200 -1.00000000
vn 0.00000000 0.00000000 -1.00000000
vn 0.00003900 -0.00000400 -1.00000000
vn 0.00008000 -0.00000800 -1.00000000
vn 0.00000000 0.00000000 -1.00000000
vn -0.00004000 0.00000400 -1.00000000
vn 0.00008000 -0.00000800 -1.00000000
vn -0.00000500 0.00000100 -1.00000000
vn 0.00012700 -0.00001300 -1.00000000
vn 0.00000000 0.00000000 -1.00000000
vn -0.00000500 0.00000100 -1.00000000
vn -0.00004800 0.00000500 -1.00000000
vn 0.00003100 -0.00000300 -1.00000000
vn 0.00000000 0.00000000 -1.00000000
vn 0.00000000 0.00000000 -1.00000000
vn 0.00000000 0.00000000 -1.00000000
vn 0.00001300 -0.00000100 -1.00000000
vn -0.00003400 0.00000300 -1.00000000
vn 0.00000000 0.00000000 -1.00000000
vn -0.00002500 0.00000300 -1.00000000
vn 0.00001300 -0.00000100 -1.00000000
vn -0.00002500 0.00000300 -1.00000000
vn 0.00001300 -0.00000100 -1.00000000
vn 0.00000000 0.00000000 -1.00000000
vn 0.00006600 -0.00000700 -1.00000000
vn 0.00004700 -0.00000500 -1.00000000
vn 0.00000000 0.00000000 -1.00000000
vn 0.00004700 -0.00000500 -1.00000000
vn 0.00000600 -0.00000100 -1.00000000
vn -0.00000800 0.00000100 -1.00000000
vn -0.00000800 0.00000100 -1.00000000
vn 0.00000000 0.00000000 -1.00000000
vn 0.00000000 0.00000000 -1.00000000
vn -0.00024000 0.00002400 -1.00000000
vn 0.00000000 0.00000000 -1.00000000
vn 0.00001500 -0.00000200 -1.00000000
vn 0.00001500 -0.00000200 -1.00000000
vn 0.00003900 -0.00000400 -1.00000000
vn -0.00003400 0.00000300 -1.00000000
vn 0.00000000 0.00000000 -1.00000000
vn 0.00009100 -0.00000900 -1.00000000
vn 0.00000000 0.00000000 -1.00000000
vn -0.00003400 0.00000300 -1.00000000
vn 0.00000000 0.00000000 -1.00000000
vn -0.00001500 0.00000200 -1.00000000
vn 0.00001000 -0.00000100 -1.00000000
vn -0.00006000 0.00000600 -1.00000000
vn 0.00001000 -0.00000100 -1.00000000
vn 0.00000000 0.00000000 -1.00000000
vn -0.00006000 0.00000600 -1.00000000
vn 0.00000000 0.00000000 -1.00000000
vn 0.00001500 -0.00000200 -1.00000000
vn 0.00000000 0.00000000 -1.00000000
vn -0.00006000 0.00000600 -1.00000000
vn 0.00001500 -0.00000200 -1.00000000
vn 0.00003900 -0.00000400 -1.00000000
vn -0.00003500 0.00000400 -1.00000000
vn 0.00013600 -0.00001400 -1.00000000
vn 0.00012700 -0.00001300 -1.00000000
vn 0.00000000 0.00000000 -1.00000000
vn 0.00012700 -0.00001300 -1.00000000
vn -0.00004000 0.00000400 -1.00000000
vn -0.00003500 0.00000400 -1.00000000
vn -0.00004000 0.00000400 -1.00000000
vn -0.00000500 0.00000100 -1.00000000
vn 0.00000000 0.00000000 -1.00000000
vn 0.00000000 0.00000000 -1.00000000
vn 0.00024400 -0.00002500 -1.00000000
vn 0.00024400 -0.00002500 -1.00000000
vn 0.00000000 0.00000000 -1.00000000
vn 0.00024400 -0.00002500 -1.00000000
vn -0.00006100 0.00000600 -1.00000000
vn 0.00000000 0.00000000 -1.00000000
vn -0.00024000 0.00002400 -1.00000000
vn -0.00006100 0.00000600 -1.00000000
vn -0.00001400 0.00000100 -1.00000000
vn -0.00003900 0.00000400 -1.00000000
vn 0.00000000 0.00000000 -1.00000000
vn -0.00002300 0.00000200 -1.00000000
vn 0.00000000 0.00000000 -1.00000000
vn -0.00003300 0.00000300 -1.00000000
vn -0.00002300 0.00000200 -1.00000000
vn -0.00003300 0.00000300 -1.00000000
vn 0.00000000 0.00000000 -1.00000000
vn 0.00000000 0.00000000 -1.00000000
vn 0.00000000 0.00000000 -1.00000000
vn 0.00000000 0.00000000 -1.00000000
vn 0.00000000 0.00000000 -1.00000000
vn 0.00009100 -0.00000900 -1.00000000
vn 0.00009100 -0.00000900 -1.00000000
vn 0.00000000 0.00000000 -1.00000000
vn 0.00000000 0.00000000 -1.00000000
vn 0.00000000 0.00000000 -1.00000000
vn 0.00013600 -0.00001400 -1.00000000
vn -0.00003500 0.00000400 -1.00000000
vn 0.00013600 -0.00001400 -1.00000000
vn 0.00000000 0.00000000 -1.00000000
vn 0.00000000 0.00000000 -1.00000000
vn -0.00002300 0.00000200 -1.00000000
vn 0.00000000 0.00000000 -1.00000000
f 1//1 2//2 3//3
f 1//1 3//3 4//4
f 4//4 3//3 5//5
f 4//4 5//5 6//6
f 6//6 5//5 7//7
f 6//6 7//7 8//8
f 9//9 8//8 10//10
f 10//10 8//8 7//7
f 9//9 10//10 11//11
f 9//9 11//11 12//12
f 12//12 11//11 13//13
f 12//12 13//13 14//14
f 14//14 13//13 15//15
f 14//14 15//15 16//16
f 16//16 15//15 17//17
f 16//16 17//17 18//18
f 19//19 20//20 21//21
f 19//19 21//21 22//22
f 22//22 21//21 23//23
f 22//22 23//23 24//24
f 26//26 24//24 29//29
f 29//29 24//24 23//23
f 30//30 25//25 33//33
f 34//34 27//27 28//28
f 36//36 32//32 38//38
f 39//39 31//31 35//35
f 41//41 37//37 42//42
f 42//42 37//37 40//40
f 43//43 41//41 44//44
f 44//44 41//41 42//42
f 43//43 44//44 45//45
f 43//43 45//45 46//46
f 46//46 45//45 47//47
f 46//46 47//47 48//48
f 48//48 47//47 49//49
f 48//48 49//49 50//50
f 50//50 49//49 51//51
f 50//50 51//51 52//52
f 52//52 51//51 53//53
f 52//52 53//53 54//54
f 54//54 53//53 55//55
f 54//54 55//55 56//56
f 56//56 55//55 57//57
f 56//56 57//57 58//58
f 58//58 57//57 59//59
f 58//58 59//59 60//60
f 60//60 59//59 61//61
f 60//60 61//61 62//62
f 62//62 61//61 63//63
f 62//62 63//63 64//64
f 64//64 63//63 65//65
f 64//64 65//65 66//66
f 66//66 65//65 67//67
f 66//66 67//67 68//68
f 69//69 68//68 70//70
f 70//70 68//68 67//67
f 71//71 69//69 72//72
f 72//72 69//69 70//70
f 73//73 71//71 74//74
f 74//74 71//71 72//72
f 75//75 73//73 77//77
f 77//77 73//73 74//74
f 78//78 76//76 82//82
f 81//81 75//75 77//77
f 84//84 80//80 86//86
f 85//85 79//79 83//83
f 87//87 89//89 92//92
f 91//91 90//90 93//93
f 94//94 88//88 98//98
f 97//97 87//87 92//92
f 100//100 96//96 102//102
f 101//101 95//95 99//99
f 103//103 100//100 104//104
f 104//104 100//100 102//102
f 103//103 104//104 105//105
f 103//103 105//105 106//106
f 106//106 105//105 107//107
f 106//106 107//107 108//108
f 108//108 107//107 109//109
f 108//108 109//109 110//110
f 110//110 109//109 111//111
f 110//110 111//111 112//112
f 112//112 111//111 113//113
f 112//112 113//113 114//114
f 114//114 113//113 115//115
f 114//114 115//115 116//116
f 116//116 115//115 117//117
f 116//116 117//117 118//118
f 118//118 117//117 119//119
f 118//118 119//119 120//120
f 120//120 119//119 121//121
f 120//120 121//121 122//122
f 122//122 121//121 123//123
f 122//122 123//123 124//124
f 124//124 123//123 125//125
f 124//124 125//125 126//126
f 126//126 125//125 127//127
f 126//126 127//127 128//128
f 129//129 128//128 130//130
f 130//130 128//128 127//127
f 129//129 130//130 131//131
f 129//129 131//131 132//132
f 132//132 131//131 133//133
f 132//132 133//133 134//134
f 134//134 133//133 135//135
f 134//134 135//135 136//136
f 136//136 135//135 137//137
f 136//136 137//137 138//138
f 139//139 140//140 141//141
f 139//139 141//141 142//142
f 142//142 141//141 143//143
f 142//142 143//143 144//144
f 147//147 144//144 148//148
f 148//148 144//144 143//143
f 151//151 145//145 155//155
f 153//153 146//146 149//149
f 156//156 150//150 159//159
f 160//160 152//152 154//154
f 162//162 158//158 163//163
f 164//164 157//157 161//161
f 165//165 162//162 166//166
f 166//166 162//162 163//163
f 165//165 166//166 167//167
f 165//165 167//167 168//168
f 168//168 167//167 169//169
f 168//168 169//169 170//170
f 170//170 169//169 171//171
f 170//170 171//171 172//172
f 172//172 171//171 173//173
f 172//172 173//173 174//174
f 174//174 173//173 175//175
f 174//174 175//175 176//176
f 176//176 175//175 177//177
f 176//176 177//177 178//178
f 178//178 177//177 179//179
f 178//178 179//179 180//180
f 180//180 179//179 181//181
f 180//180 181//181 182//182
f 182//182 181//181 183//183
f 182//182 183//183 184//184
f 184//184 183//183 185//185
f 184//184 185//185 186//186
f 186//186 185//185 187//187
f 186//186 187//187 188//188
f 188//188 187//187 189//189
f 188//188 189//189 190//190
f 191//191 190//190 192//192
f 192//192 190//190 189//189
f 193//193 191//191 194//194
f 194//194 191//191 192//192
f 195//195 193//193 196//196
f 196//196 193//193 194//194
f 197//197 195//195 198//198
f 198//198 195//195 196//196
f 200//200 197//197 201//201
f 201//201 197//197 198//198
f 202//202 199//199 204//204
f 203//203 200//200 201//201
f 206//206 208//208 212//212
f 210//210 209//209 213//213
f 214//214 205//205 216//216
f 217//217 207//207 211//211
f 219//219 215//215 220//220
f 220//220 215//215 218//218
f 221//221 219//219 222//222
f 222//222 219//219 220//220
f 221//221 222//222 223//223
f 221//221 223//223 224//224
f 224//224 223//223 225//225
f 224//224 225//225 226//226
f 226//226 225//225 227//227
f 226//226 227//227 228//228
f 228//228 227//227 229//229
f 228//228 229//229 230//230
f 230//230 229//229 231//231
f 230//230 231//231 232//232
f 232//232 231//231 233//233
f 232//232 233//233 234//234
f 234//234 233//233 235//235
f 234//234 235//235 236//236
f 236//236 235//235 237//237
f 236//236 237//237 238//238
f 238//238 237//237 2//2
f 238//238 2//2 1//1
f 240//240 243//243 246//246
f 248//248 249//249 251//251
f 254//254 257//257 258//258
f 253//253 260//260 266//266
f 265//265 262//262 270//270
f 266//266 269//269 271//271
f 271//271 269//269 272//272
f 275//275 277//277 280//280
f 286//286 288//288 289//289
f 289//289 290//290 291//291
f 289//289 291//291 269//269
f 267//267 292//292 294//294
f 268//268 293//293 273//273
f 239//239 245//245 295//295
f 296//296 244//244 297//297
f 295//295 298//298 299//299
f 298//298 300//300 299//299
f 302//302 301//301 306//306
f 304//304 305//305 307//307
f 303//303 308//308 310//310
f 252//252 309//309 311//311
f 253//253 312//312 260//260
f 260//260 312//312 313//313
f 261//261 314//314 315//315
f 241//241 317//317 318//318
f 242//242 319//319 320//320
f 320//320 322//322 323//323
f 326//326 250//250 247//247
f 324//324 248//248 327//327
f 325//325 329//329 330//330
f 263//263 316//316 333//333
f 264//264 332//332 334//334
f 335//335 336//336 337//337
f 335//335 337//337 338//338
f 339//339 340//340 341//341
f 338//338 342//342 343//343
f 344//344 331//331 328//328
f 345//345 346//346 351//351
f 350//350 347//347 353//353
f 354//354 356//356 358//358
f 363//363 364//364 286//286
f 285//285 365//365 367//367
f 283//283 366//366 287//287
f 369//369 370//370 372//372
f 373//373 371//371 278//278
f 372//372 279//279 276//276
f 368//368 375//375 378//378
f 377//377 374//374 379//379
f 376//376 381//381 383//383
f 382//382 380//380 385//385
f 383//383 384//384 387//387
f 388//388 386//386 256//256
f 389//389 255//255 391//391
f 390//390 253//253 259//259
f 323//323 322//322 395//395
f 394//394 321//321 397//397
f 395//395 398//398 399//399
f 402//402 403//403 406//406
f 363//363 286//286 360//360
f 362//362 284//284 408//408
f 360//360 409//409 355//355
f 410//410 412//412 415//415
f 417//417 414//414 420//420
f 400//400 421//421 396//396
f 393//393 422//422 424//424
f 392//392 423//423 426//426
f 427//427 428//428 430//430
f 425//425 429//429 431//431
f 352//352 432//432 351//351
f 349//349 433//433 434//434
f 351//351 435//435 251//251
f 357//357 436//436 359//359
f 360//360 437//437 439//439
f 361//361 438//438 441//441
f 440//440 443//443 445//445
f 442//442 444//444 446//446
f 447//447 449//449 450//450
f 411//411 455//455 413//413
f 281//281 454//454 456//456
f 282//282 457//457 274//274
f 345//345 458//458 346//346
f 348//348 459//459 460//460
f 346//346 461//461 407//407
f 405//405 462//462 464//464
f 404//404 463//463 401//401
f 419//419 465//465 416//416
f 418//418 466//466 467//467
f 416//416 468//468 453//453
f 452//452 469//469 470//470
f 451//451 471//471 448//448
f 473//473 474//474 479//479
f 481//481 483//483 487//487
f 490//490 493//493 496//496
f 500//500 507//507 512//512
f 515//515 517//517 518//518
f 522//522 523//523 529//529
f 495//495 492//492 532//532
f 494//494 531//531 533//533
f 538//538 535//535 542//542
f 534//534 539//539 548//548
f 536//536 544//544 498//498
f 496//496 546//546 553//553
f 501//501 509//509 558//558
f 561//561 562//562 549//549
f 543//543 563//563 565//565
f 566//566 569//569 572//572
f 573//573 568//568 537//537
f 572//572 540//540 574//574
f 574//574 540//540 541//541
f 571//571 567//567 575//575
f 570//570 576//576 508//508
f 530//530 526//526 578//578
f 545//545 581//581 559//559
f 560//560 580//580 582//582
f 560//560 582//582 583//583
f 585//585 553//553 586//586
f 587//587 554//554 590//590
f 588//588 551//551 550//550
f 589//589 547//547 591//591
f 592//592 546//546 564//564
f 480//480 489//489 594//594
f 595//595 485//485 598//598
f 593//593 597//597 499//499
f 497//497 596//596 491//491
f 600//600 602//602 604//604
f 606//606 601//601 609//609
f 604//604 607//607 612//612
f 511//511 577//577 614//614
f 513//513 615//615 557//557
f 526//526 616//616 514//514
f 514//514 616//616 617//617
f 617//617 616//616 583//583
f 617//617 583//583 618//618
f 618//618 583//583 582//582
f 478//478 475//475 621//621
f 622//622 476//476 624//624
f 619//619 623//623 625//625
f 552//552 584//584 627//627
f 555//555 628//628 630//630
f 472//472 477//477 631//631
f 629//629 478//478 634//634
f 632//632 633//633 556//556
f 635//635 637//637 506//506
f 502//502 638//638 639//639
f 503//503 640//640 510//510
f 626//626 642//642 621//621
f 620//620 641//641 645//645
f 621//621 644//644 646//646
f 482//482 647//647 484//484
f 486//486 648//648 650//650
f 488//488 651//651 653//653
f 652//652 649//649 656//656
f 653//653 655//655 604//604
f 603//603 654//654 657//657
f 605//605 658//658 599//599
f 661//661 663//663 611//611
f 608//608 664//664 666//666
f 610//610 667//667 613//613
f 668//668 669//669 672//672
f 671//671 670//670 673//673
f 672//672 675//675 506//506
f 504//504 674//674 677//677
f 505//505 676//676 636//636
f 516//516 519//519 524//524
f 525//525 520//520 679//679
f 527//527 678//678 579//579
f 680//680 682//682 530//530
f 528//528 683//683 685//685
f 530//530 686//686 521//521
f 687//687 688//688 689//689
f 689//689 688//688 690//690
f 689//689 690//690 642//642
f 643//643 691//691 692//692
f 642//642 693//693 644//644
f 694//694 695//695 662//662
f 660//660 696//696 698//698
f 659//659 697//697 665//665
f 699//699 700//700 680//680
f 680//680 700//700 702//702
f 681//681 701//701 684//684

