# https://github.com/mikedh/trimesh
v 0.27076600 -0.00001200 0.04730000
v 0.27076600 -0.00001200 0.04720000
v 0.27073800 -0.00002700 0.04720000
v 0.27073800 -0.00002700 0.04730000
v 0.27071300 -0.00004500 0.04720000
v 0.27071300 -0.00004500 0.04730000
v 0.27069100 -0.00006700 0.04720000
v 0.27069100 -0.00006700 0.04730000
v 0.27067200 -0.00009100 0.04720000
v 0.27067200 -0.00009100 0.04730000
v 0.27065600 -0.00011800 0.04720000
v 0.27065600 -0.00011800 0.04730000
v 0.27064400 -0.00014800 0.04720000
v 0.27064400 -0.00014800 0.04730000
v 0.27063600 -0.00017800 0.04720000
v 0.27063600 -0.00017800 0.04730000
v 0.27063300 -0.00021000 0.04720000
v 0.27063300 -0.00021000 0.04730000
v 0.27063400 -0.00024200 0.04720000
v 0.27063400 -0.00024200 0.04730000
v 0.27063900 -0.00027300 0.04720000
v 0.27063900 -0.00027300 0.04730000
v 0.27064800 -0.00030100 0.04720000
v 0.27064800 -0.00030100 0.04730000
v 0.27065200 -0.00031100 0.04720000
v 0.27065200 -0.00031100 0.04730000
v 0.27065900 -0.00032600 0.04730000
v 0.27065900 -0.00032600 0.04720000
v 0.27067400 -0.00035400 0.04720000
v 0.27067400 -0.00035400 0.04730000
v 0.27069200 -0.00037800 0.04720000
v 0.27069200 -0.00037800 0.04730000
v 0.27071300 -0.00040000 0.04720000
v 0.27071300 -0.00040000 0.04730000
v 0.27073700 -0.00041900 0.04720000
v 0.27073700 -0.00041900 0.04730000
v 0.27076400 -0.00043500 0.04720000
v 0.27076400 -0.00043500 0.04730000
v 0.27078500 -0.00044400 0.04720000
v 0.27078500 -0.00044400 0.04730000
v 0.27081500 -0.00045300 0.04720000
v 0.27081500 -0.00045300 0.04730000
v 0.27084600 -0.00045800 0.04720000
v 0.27084600 -0.00045800 0.04730000
v 0.27087700 -0.00045800 0.04720000
v 0.27087700 -0.00045800 0.04730000
v 0.27090900 -0.00045500 0.04720000
v 0.27090900 -0.00045500 0.04730000
v 0.27093900 -0.00044600 0.04720000
v 0.27093900 -0.00044600 0.04730000
v 0.27095700 -0.00043900 0.04720000
v 0.27095700 -0.00043900 0.04730000
v 0.27098500 -0.00042400 0.04720000
v 0.27098500 -0.00042400 0.04730000
v 0.27101000 -0.00040600 0.04720000
v 0.27101000 -0.00040600 0.04730000
v 0.27103300 -0.00038400 0.04720000
v 0.27103300 -0.00038400 0.04730000
v 0.27105200 -0.00036000 0.04720000
v 0.27105200 -0.00036000 0.04730000
v 0.27106800 -0.00033300 0.04720000
v 0.27106800 -0.00033300 0.04730000
v 0.27108000 -0.00030300 0.04720000
v 0.27108000 -0.00030300 0.04730000
v 0.27108700 -0.00027300 0.04720000
v 0.27108700 -0.00027300 0.04730000
v 0.27109100 -0.00024100 0.04720000
v 0.27109100 -0.00024100 0.04730000
v 0.27109000 -0.00020900 0.04720000
v 0.27109000 -0.00020900 0.04730000
v 0.27108400 -0.00017800 0.04720000
v 0.27108400 -0.00017800 0.04730000
v 0.27107500 -0.00015000 0.04720000
v 0.27107500 -0.00015000 0.04730000
v 0.27107100 -0.00014100 0.04720000
v 0.27107100 -0.00014100 0.04730000
v 0.27106400 -0.00012500 0.04730000
v 0.27106400 -0.00012500 0.04720000
v 0.27105000 -0.00009800 0.04720000
v 0.27105000 -0.00009800 0.04730000
v 0.27103100 -0.00007300 0.04720000
v 0.27103100 -0.00007300 0.04730000
v 0.27101000 -0.00005100 0.04720000
v 0.27101000 -0.00005100 0.04730000
v 0.27098500 -0.00003100 0.04720000
v 0.27098500 -0.00003100 0.04730000
v 0.27095800 -0.00001600 0.04720000
v 0.27095800 -0.00001600 0.04730000
v 0.27093900 -0.00000700 0.04720000
v 0.27093900 -0.00000700 0.04730000
v 0.27090800 0.00000200 0.04720000
v 0.27090800 0.00000200 0.04730000
v 0.27087600 0.00000700 0.04720000
v 0.27087600 0.00000700 0.04730000
v 0.27084400 0.00000700 0.04720000
v 0.27084400 0.00000700 0.04730000
v 0.27081200 0.00000300 0.04720000
v 0.27081200 0.00000300 0.04730000
v 0.27078100 -0.00000600 0.04720000
v 0.27078100 -0.00000600 0.04730000
v 0.27063900 -0.00027300 0.04730000
v 0.27063900 -0.00027300 0.04730000
v 0.27063900 -0.00027300 0.04730000
v 0.27063900 -0.00027300 0.04730000
v 0.27063900 -0.00027300 0.04730000
v 0.27063900 -0.00027300 0.04730000
v 0.27063900 -0.00027300 0.04730000
v 0.27063900 -0.00027300 0.04730000
v 0.27063900 -0.00027300 0.04730000
v 0.27064800 -0.00030100 0.04730000
v 0.27064800 -0.00030100 0.04730000
v 0.27064800 -0.00030100 0.04730000
v 0.27064800 -0.00030100 0.04730000
v 0.27076600 -0.00001200 0.04730000
v 0.27076600 -0.00001200 0.04730000
v 0.27076600 -0.00001200 0.04730000
v 0.27108400 -0.00017800 0.04730000
v 0.27108400 -0.00017800 0.04730000
v 0.27108400 -0.00017800 0.04730000
v 0.27108400 -0.00017800 0.04730000
v 0.27108400 -0.00017800 0.04730000
v 0.27108400 -0.00017800 0.04730000
v 0.27108400 -0.00017800 0.04730000
v 0.27107500 -0.00015000 0.04730000
v 0.27107500 -0.00015000 0.04730000
v 0.27107500 -0.00015000 0.04730000
v 0.27107500 -0.00015000 0.04730000
v 0.27107500 -0.00015000 0.04730000
v 0.27107500 -0.00015000 0.04730000
v 0.27107500 -0.00015000 0.04730000
v 0.27107500 -0.00015000 0.04730000
v 0.27107500 -0.00015000 0.04730000
v 0.27107500 -0.00015000 0.04730000
v 0.27095700 -0.00043900 0.04730000
v 0.27093900 -0.00044600 0.04730000
v 0.27093900 -0.00044600 0.04730000
v 0.27069200 -0.00037800 0.04730000
v 0.27069200 -0.00037800 0.04730000
v 0.27071300 -0.00040000 0.04730000
v 0.27071300 -0.00040000 0.04730000
v 0.27073700 -0.00041900 0.04730000
v 0.27073700 -0.00041900 0.04730000
v 0.27076400 -0.00043500 0.04730000
v 0.27076400 -0.00043500 0.04730000
v 0.27078500 -0.00044400 0.04730000
v 0.27078500 -0.00044400 0.04730000
v 0.27081500 -0.00045300 0.04730000
v 0.27081500 -0.00045300 0.04730000
v 0.27084600 -0.00045800 0.04730000
v 0.27084600 -0.00045800 0.04730000
v 0.27105000 -0.00009800 0.04730000
v 0.27105000 -0.00009800 0.04730000
v 0.27103100 -0.00007300 0.04730000
v 0.27103100 -0.00007300 0.04730000
v 0.27064800 -0.00030100 0.04730000
v 0.27064800 -0.00030100 0.04730000
v 0.27064800 -0.00030100 0.04730000
v 0.27064800 -0.00030100 0.04730000
v 0.27064800 -0.00030100 0.04730000
v 0.27064800 -0.00030100 0.04730000
v 0.27064800 -0.00030100 0.04730000
v 0.27101000 -0.00005100 0.04730000
v 0.27101000 -0.00005100 0.04730000
v 0.27106400 -0.00012500 0.04730000
v 0.27106400 -0.00012500 0.04730000
v 0.27065200 -0.00031100 0.04730000
v 0.27107100 -0.00014100 0.04730000
v 0.27107100 -0.00014100 0.04730000
v 0.27065200 -0.00031100 0.04730000
v 0.27065900 -0.00032600 0.04730000
v 0.27065900 -0.00032600 0.04730000
v 0.27065900 -0.00032600 0.04730000
v 0.27067400 -0.00035400 0.04730000
v 0.27067400 -0.00035400 0.04730000
v 0.27087700 -0.00045800 0.04730000
v 0.27087700 -0.00045800 0.04730000
v 0.27090900 -0.00045500 0.04730000
v 0.27090900 -0.00045500 0.04730000
v 0.27095700 -0.00043900 0.04730000
v 0.27098500 -0.00042400 0.04730000
v 0.27098500 -0.00042400 0.04730000
v 0.27101000 -0.00040600 0.04730000
v 0.27101000 -0.00040600 0.04730000
v 0.27103300 -0.00038400 0.04730000
v 0.27103300 -0.00038400 0.04730000
v 0.27098500 -0.00003100 0.04730000
v 0.27098500 -0.00003100 0.04730000
v 0.27095800 -0.00001600 0.04730000
v 0.27095800 -0.00001600 0.04730000
v 0.27093900 -0.00000700 0.04730000
v 0.27093900 -0.00000700 0.04730000
v 0.27073800 -0.00002700 0.04730000
v 0.27073800 -0.00002700 0.04730000
v 0.27071300 -0.00004500 0.04730000
v 0.27071300 -0.00004500 0.04730000
v 0.27069100 -0.00006700 0.04730000
v 0.27069100 -0.00006700 0.04730000
v 0.27090800 0.00000200 0.04730000
v 0.27090800 0.00000200 0.04730000
v 0.27087600 0.00000700 0.04730000
v 0.27087600 0.00000700 0.04730000
v 0.27084400 0.00000700 0.04730000
v 0.27084400 0.00000700 0.04730000
v 0.27081200 0.00000300 0.04730000
v 0.27081200 0.00000300 0.04730000
v 0.27078100 -0.00000600 0.04730000
v 0.27078100 -0.00000600 0.04730000
v 0.27105200 -0.00036000 0.04730000
v 0.27105200 -0.00036000 0.04730000
v 0.27106800 -0.00033300 0.04730000
v 0.27106800 -0.00033300 0.04730000
v 0.27108000 -0.00030300 0.04730000
v 0.27108000 -0.00030300 0.04730000
v 0.27067200 -0.00009100 0.04730000
v 0.27067200 -0.00009100 0.04730000
v 0.27065600 -0.00011800 0.04730000
v 0.27065600 -0.00011800 0.04730000
v 0.27064400 -0.00014800 0.04730000
v 0.27064400 -0.00014800 0.04730000
v 0.27108700 -0.00027300 0.04730000
v 0.27108700 -0.00027300 0.04730000
v 0.27109100 -0.00024100 0.04730000
v 0.27109100 -0.00024100 0.04730000
v 0.27109000 -0.00020900 0.04730000
v 0.27063600 -0.00017800 0.04730000
v 0.27063600 -0.00017800 0.04730000
v 0.27063300 -0.00021000 0.04730000
v 0.27063300 -0.00021000 0.04730000
v 0.27063400 -0.00024200 0.04730000
v 0.27081500 -0.00045300 0.04720000
v 0.27081500 -0.00045300 0.04720000
v 0.27078500 -0.00044400 0.04720000
v 0.27078500 -0.00044400 0.04720000
v 0.27107500 -0.00015000 0.04720000
v 0.27107500 -0.00015000 0.04720000
v 0.27107500 -0.00015000 0.04720000
v 0.27107500 -0.00015000 0.04720000
v 0.27107500 -0.00015000 0.04720000
v 0.27107500 -0.00015000 0.04720000
v 0.27107500 -0.00015000 0.04720000
v 0.27107500 -0.00015000 0.04720000
v 0.27107500 -0.00015000 0.04720000
v 0.27107500 -0.00015000 0.04720000
v 0.27107500 -0.00015000 0.04720000
v 0.27076400 -0.00043500 0.04720000
v 0.27076400 -0.00043500 0.04720000
v 0.27093900 -0.00000700 0.04720000
v 0.27095800 -0.00001600 0.04720000
v 0.27064800 -0.00030100 0.04720000
v 0.27064800 -0.00030100 0.04720000
v 0.27064800 -0.00030100 0.04720000
v 0.27064800 -0.00030100 0.04720000
v 0.27064800 -0.00030100 0.04720000
v 0.27064800 -0.00030100 0.04720000
v 0.27064800 -0.00030100 0.04720000
v 0.27064800 -0.00030100 0.04720000
v 0.27064800 -0.00030100 0.04720000
v 0.27090800 0.00000200 0.04720000
v 0.27090800 0.00000200 0.04720000
v 0.27069100 -0.00006700 0.04720000
v 0.27069100 -0.00006700 0.04720000
v 0.27071300 -0.00004500 0.04720000
v 0.27063900 -0.00027300 0.04720000
v 0.27063900 -0.00027300 0.04720000
v 0.27063900 -0.00027300 0.04720000
v 0.27063900 -0.00027300 0.04720000
v 0.27063900 -0.00027300 0.04720000
v 0.27063900 -0.00027300 0.04720000
v 0.27065900 -0.00032600 0.04720000
v 0.27065900 -0.00032600 0.04720000
v 0.27065200 -0.00031100 0.04720000
v 0.27065200 -0.00031100 0.04720000
v 0.27106400 -0.00012500 0.04720000
v 0.27106400 -0.00012500 0.04720000
v 0.27105000 -0.00009800 0.04720000
v 0.27105000 -0.00009800 0.04720000
v 0.27103100 -0.00007300 0.04720000
v 0.27103100 -0.00007300 0.04720000
v 0.27103300 -0.00038400 0.04720000
v 0.27103300 -0.00038400 0.04720000
v 0.27101000 -0.00040600 0.04720000
v 0.27108400 -0.00017800 0.04720000
v 0.27108400 -0.00017800 0.04720000
v 0.27108400 -0.00017800 0.04720000
v 0.27108400 -0.00017800 0.04720000
v 0.27108400 -0.00017800 0.04720000
v 0.27108400 -0.00017800 0.04720000
v 0.27073700 -0.00041900 0.04720000
v 0.27073700 -0.00041900 0.04720000
v 0.27071300 -0.00040000 0.04720000
v 0.27071300 -0.00040000 0.04720000
v 0.27069200 -0.00037800 0.04720000
v 0.27069200 -0.00037800 0.04720000
v 0.27098500 -0.00003100 0.04720000
v 0.27098500 -0.00003100 0.04720000
v 0.27101000 -0.00005100 0.04720000
v 0.27101000 -0.00005100 0.04720000
v 0.27098500 -0.00042400 0.04720000
v 0.27098500 -0.00042400 0.04720000
v 0.27095700 -0.00043900 0.04720000
v 0.27095700 -0.00043900 0.04720000
v 0.27095700 -0.00043900 0.04720000
v 0.27093900 -0.00044600 0.04720000
v 0.27093900 -0.00044600 0.04720000
v 0.27090900 -0.00045500 0.04720000
v 0.27090900 -0.00045500 0.04720000
v 0.27087700 -0.00045800 0.04720000
v 0.27087700 -0.00045800 0.04720000
v 0.27084600 -0.00045800 0.04720000
v 0.27084600 -0.00045800 0.04720000
v 0.27107100 -0.00014100 0.04720000
v 0.27107100 -0.00014100 0.04720000
v 0.27067400 -0.00035400 0.04720000
v 0.27067400 -0.00035400 0.04720000
v 0.27081200 0.00000300 0.04720000
v 0.27081200 0.00000300 0.04720000
v 0.27084400 0.00000700 0.04720000
v 0.27084400 0.00000700 0.04720000
v 0.27087600 0.00000700 0.04720000
v 0.27087600 0.00000700 0.04720000
v 0.27064400 -0.00014800 0.04720000
v 0.27064400 -0.00014800 0.04720000
v 0.27065600 -0.00011800 0.04720000
v 0.27065600 -0.00011800 0.04720000
v 0.27067200 -0.00009100 0.04720000
v 0.27067200 -0.00009100 0.04720000
v 0.27073800 -0.00002700 0.04720000
v 0.27073800 -0.00002700 0.04720000
v 0.27076600 -0.00001200 0.04720000
v 0.27076600 -0.00001200 0.04720000
v 0.27076600 -0.00001200 0.04720000
v 0.27078100 -0.00000600 0.04720000
v 0.27078100 -0.00000600 0.04720000
v 0.27108000 -0.00030300 0.04720000
v 0.27108000 -0.00030300 0.04720000
v 0.27106800 -0.00033300 0.04720000
v 0.27106800 -0.00033300 0.04720000
v 0.27105200 -0.00036000 0.04720000
v 0.27105200 -0.00036000 0.04720000
v 0.27063400 -0.00024200 0.04720000
v 0.27063300 -0.00021000 0.04720000
v 0.27063300 -0.00021000 0.04720000
v 0.27063600 -0.00017800 0.04720000
v 0.27063600 -0.00017800 0.04720000
v 0.27109000 -0.00020900 0.04720000
v 0.27109100 -0.00024100 0.04720000
v 0.27109100 -0.00024100 0.04720000
v 0.27108700 -0.00027300 0.04720000
v 0.27108700 -0.00027300 0.04720000
vn -0.44086900 0.89757200 0.00000000
vn -0.40813800 0.91292000 0.00000000
vn -0.51302300 0.85837500 0.00000000
vn -0.55193500 0.83388700 -0.00000900
vn -0.62609600 0.77974600 -0.00000100
vn -0.66123700 0.75017700 0.00000000
vn -0.72709400 0.68653800 0.00001000
vn -0.75772800 0.65257100 -0.00000900
vn -0.81429700 0.58044800 0.00000000
vn -0.84016400 0.54233200 0.00000000
vn -0.88647800 0.46277100 0.00000900
vn -0.90689000 0.42136600 0.00000000
vn -0.94200400 0.33560100 0.00001300
vn -0.95663600 0.29128500 0.00000000
vn -0.97955200 0.20118900 0.00001000
vn -0.98784700 0.15542700 -0.00000900
vn -0.99807500 0.06202300 0.00000000
vn -0.99989700 0.01438200 0.00000000
vn -0.99675700 -0.08046400 0.00000900
vn -0.99183600 -0.12752200 0.00000100
vn -0.97573200 -0.21896900 0.00000000
vn -0.96471400 -0.26329900 0.00000000
vn -0.94208800 -0.33536600 0.00000000
vn -0.93161900 -0.36343600 0.00000000
vn -0.91683100 -0.39927600 0.00000000
vn -0.91329700 -0.40729400 0.00000000
vn -0.89216600 -0.45170700 0.00000000
vn -0.90107900 -0.43365600 0.00000000
vn -0.86004700 -0.51021500 0.00000000
vn -0.83533100 -0.54974700 0.00000000
vn -0.78086700 -0.62469700 0.00000900
vn -0.75122600 -0.66004500 0.00000000
vn -0.68719700 -0.72647100 0.00000000
vn -0.65285300 -0.75748400 0.00000000
vn -0.58015600 -0.81450500 0.00000000
vn -0.54195200 -0.84040900 0.00000000
vn -0.46824500 -0.88359900 0.00000000
vn -0.43318000 -0.90130700 0.00000000
vn -0.36410200 -0.93135900 0.00000000
vn -0.33028300 -0.94388200 0.00000000
vn -0.25081400 -0.96803500 -0.00000800
vn -0.20495400 -0.97877200 0.00000000
vn -0.11179800 -0.99373100 0.00000800
vn -0.06460800 -0.99791100 -0.00000000
vn 0.02982500 -0.99955500 0.00000000
vn 0.07691800 -0.99703700 -0.00001200
vn 0.17046800 -0.98536300 0.00000900
vn 0.21682500 -0.97621100 0.00000000
vn 0.29900600 -0.95425100 0.00000000
vn 0.33501800 -0.94221200 0.00000000
vn 0.40524300 -0.91420900 0.00000900
vn 0.43935600 -0.89831300 0.00000100
vn 0.51280700 -0.85850400 0.00000000
vn 0.55174500 -0.83401300 -0.00000800
vn 0.62571100 -0.78005500 0.00000000
vn 0.66065200 -0.75069300 0.00000000
vn 0.72658700 -0.68707400 -0.00000100
vn 0.75746400 -0.65287700 0.00000000
vn 0.81413300 -0.58067800 -0.00000100
vn 0.83985200 -0.54281500 0.00000100
vn 0.88629400 -0.46312400 0.00000900
vn 0.90686700 -0.42141800 0.00000000
vn 0.94203700 -0.33551000 0.00000900
vn 0.95659200 -0.29143100 -0.00001200
vn 0.97962800 -0.20082100 0.00000000
vn 0.98800900 -0.15439500 -0.00001200
vn 0.99815600 -0.06070200 -0.00000100
vn 0.99990700 -0.01363400 0.00000000
vn 0.99672800 0.08083500 0.00000000
vn 0.99176900 0.12804300 -0.00001000
vn 0.97553700 0.21983400 0.00000000
vn 0.96444200 0.26429300 0.00000000
vn 0.94198700 0.33564800 0.00000000
vn 0.93182600 0.36290600 0.00000000
vn 0.91963400 0.39277700 0.00000000
vn 0.91838900 0.39568000 0.00000000
vn 0.89323600 0.44958700 0.00000000
vn 0.90561500 0.42410200 0.00000000
vn 0.85748100 0.51451500 0.00000000
vn 0.83298500 0.55329500 0.00000000
vn 0.77891700 0.62712800 0.00000000
vn 0.74938900 0.66213000 0.00000100
vn 0.68594600 0.72765300 0.00000000
vn 0.65204600 0.75817900 0.00000000
vn 0.58047400 0.81427900 0.00000000
vn 0.54286500 0.83982000 0.00000100
vn 0.47040400 0.88245100 0.00000000
vn 0.43601500 0.89993900 -0.00000700
vn 0.36131200 0.93244500 0.00000000
vn 0.32109500 0.94704700 -0.00001000
vn 0.23561300 0.97184700 -0.00000100
vn 0.19047600 0.98169200 -0.00000900
vn 0.09898400 0.99508900 -0.00000100
vn 0.05269200 0.99861100 0.00000000
vn -0.04054800 0.99917800 0.00000800
vn -0.08750400 0.99616400 0.00000000
vn -0.18094700 0.98349300 -0.00000900
vn -0.22735000 0.97381300 0.00000000
vn -0.30753500 0.95153700 0.00000000
vn -0.34142500 0.93990900 0.00000000
vn -0.00019500 0.00002000 1.00000000
vn 0.00013900 -0.00001400 1.00000000
vn 0.00021000 -0.00002100 1.00000000
vn 0.00030700 -0.00003100 1.00000000
vn 0.00000000 0.00000000 1.00000000
vn 0.00006500 -0.00000700 1.00000000
vn 0.00001000 -0.00000100 1.00000000
vn -0.00004900 0.00000500 1.00000000
vn -0.00011400 0.00001200 1.00000000
vn 0.00030700 -0.00003100 1.00000000
vn -0.00009900 0.00001000 1.00000000
vn 0.00020200 -0.00002100 1.00000000
vn -0.00013900 0.00001400 1.00000000
vn 0.00030700 -0.00003100 1.00000000
vn -0.00013900 0.00001400 1.00000000
vn 0.00013900 -0.00001400 1.00000000
vn 0.00021700 -0.00002200 1.00000000
vn 0.00010400 -0.00001100 1.00000000
vn -0.00003200 0.00000300 1.00000000
vn 0.00003600 -0.00000400 1.00000000
vn -0.00016500 0.00001700 1.00000000
vn 0.00034000 -0.00003500 1.00000000
vn 0.00000000 0.00000000 1.00000000
vn -0.00012000 0.00001200 1.00000000
vn -0.00003200 0.00000300 1.00000000
vn 0.00003300 -0.00000300 1.00000000
vn -0.00010800 0.00001100 1.00000000
vn 0.00000000 0.00000000 1.00000000
vn -0.00002600 0.00000300 1.00000000
vn -0.00007200 0.00000700 1.00000000
vn -0.00026900 0.00002700 1.00000000
vn -0.00002800 0.00000300 1.00000000
vn -0.00034500 0.00003500 1.00000000
vn 0.00000000 0.00000000 1.00000000
vn -0.00002800 0.00000300 1.00000000
vn 0.00000000 0.00000000 1.00000000
vn 0.00000000 0.00000000 1.00000000
vn 0.00003300 -0.00000300 1.00000000
vn -0.00002600 0.00000300 1.00000000
vn 0.00000000 0.00000000 1.00000000
vn -0.00007200 0.00000700 1.00000000
vn -0.00002600 0.00000300 1.00000000
vn 0.00000000 0.00000000 1.00000000
vn -0.00007200 0.00000700 1.00000000
vn -0.00034500 0.00003500 1.00000000
vn 0.00000000 0.00000000 1.00000000
vn -0.00026900 0.00002700 1.00000000
vn -0.00034500 0.00003500 1.00000000
vn -0.00010700 0.00001100 1.00000000
vn -0.00026900 0.00002700 1.00000000
vn -0.00012800 0.00001300 1.00000000
vn 0.00000000 0.00000000 1.00000000
vn 0.00000000 0.00000000 1.00000000
vn -0.00001700 0.00000200 1.00000000
vn -0.00007500 0.00000800 1.00000000
vn -0.00012500 0.00001300 1.00000000
vn -0.00012800 0.00001300 1.00000000
vn -0.00001700 0.00000200 1.00000000
vn -0.00028300 0.00002900 1.00000000
vn 0.00001800 -0.00000200 1.00000000
vn 0.00000000 0.00000000 1.00000000
vn 0.00000000 0.00000000 1.00000000
vn -0.00001700 0.00000200 1.00000000
vn -0.00012800 0.00001300 1.00000000
vn 0.00000000 0.00000000 1.00000000
vn 0.00000000 0.00000000 1.00000000
vn -0.00007500 0.00000800 1.00000000
vn 0.00000000 0.00000000 1.00000000
vn -0.00007500 0.00000800 1.00000000
vn 0.00000000 0.00000000 1.00000000
vn -0.00007500 0.00000800 1.00000000
vn -0.00003200 0.00000300 1.00000000
vn -0.00003200 0.00000300 1.00000000
vn 0.00003300 -0.00000300 1.00000000
vn -0.00012000 0.00001200 1.00000000
vn -0.00010800 0.00001100 1.00000000
vn -0.00012000 0.00001200 1.00000000
vn -0.00002800 0.00000300 1.00000000
vn 0.00000000 0.00000000 1.00000000
vn 0.00010400 -0.00001100 1.00000000
vn 0.00000000 0.00000000 1.00000000
vn 0.00021700 -0.00002200 1.00000000
vn 0.00010400 -0.00001100 1.00000000
vn 0.00021700 -0.00002200 1.00000000
vn 0.00000000 0.00000000 1.00000000
vn 0.00000000 0.00000000 1.00000000
vn 0.00001800 -0.00000200 1.00000000
vn -0.00012500 0.00001300 1.00000000
vn 0.00001800 -0.00000200 1.00000000
vn -0.00012500 0.00001300 1.00000000
vn 0.00000000 0.00000000 1.00000000
vn 0.00013900 -0.00001400 1.00000000
vn 0.00021000 -0.00002100 1.00000000
vn -0.00019500 0.00002000 1.00000000
vn 0.00021000 -0.00002100 1.00000000
vn -0.00019500 0.00002000 1.00000000
vn 0.00000000 0.00000000 1.00000000
vn 0.00000000 0.00000000 1.00000000
vn -0.00007500 0.00000800 1.00000000
vn -0.00028300 0.00002900 1.00000000
vn -0.00007500 0.00000800 1.00000000
vn 0.00020200 -0.00002100 1.00000000
vn -0.00028300 0.00002900 1.00000000
vn 0.00020200 -0.00002100 1.00000000
vn -0.00009900 0.00001000 1.00000000
vn -0.00013900 0.00001400 1.00000000
vn -0.00009900 0.00001000 1.00000000
vn 0.00000000 0.00000000 1.00000000
vn 0.00034000 -0.00003500 1.00000000
vn 0.00034000 -0.00003500 1.00000000
vn -0.00016500 0.00001700 1.00000000
vn -0.00016500 0.00001700 1.00000000
vn 0.00000000 0.00000000 1.00000000
vn 0.00000000 0.00000000 1.00000000
vn -0.00011400 0.00001200 1.00000000
vn 0.00000000 0.00000000 1.00000000
vn -0.00011400 0.00001200 1.00000000
vn 0.00000000 0.00000000 1.00000000
vn 0.00006500 -0.00000700 1.00000000
vn 0.00000000 0.00000000 1.00000000
vn -0.00003200 0.00000300 1.00000000
vn -0.00003200 0.00000300 1.00000000
vn 0.00003500 -0.00000400 1.00000000
vn 0.00003500 -0.00000400 1.00000000
vn -0.00004900 0.00000500 1.00000000
vn 0.00006500 -0.00000700 1.00000000
vn -0.00004900 0.00000500 1.00000000
vn 0.00001100 -0.00000100 1.00000000
vn 0.00001000 -0.00000100 1.00000000
vn 0.00007400 -0.00000800 -1.00000000
vn 0.00000000 0.00000000 -1.00000000
vn 0.00000000 0.00000000 -1.00000000
vn -0.00001900 0.00000200 -1.00000000
vn -0.00029700 0.00003000 -1.00000000
vn -0.00001400 0.00000100 -1.00000000
vn -0.00020100 0.00002000 -1.00000000
vn -0.00006800 0.00000700 -1.00000000
vn 0.00000000 0.00000000 -1.00000000
vn -0.00033400 0.00003400 -1.00000000
vn 0.00000900 -0.00000100 -1.00000000
vn -0.00020900 0.00002100 -1.00000000
vn 0.00007400 -0.00000800 -1.00000000
vn -0.00001900 0.00000200 -1.00000000
vn 0.00007400 -0.00000800 -1.00000000
vn -0.00001900 0.00000200 -1.00000000
vn -0.00033400 0.00003400 -1.00000000
vn 0.00000000 0.00000000 -1.00000000
vn 0.00000000 0.00000000 -1.00000000
vn 0.00029900 -0.00003000 -1.00000000
vn -0.00002300 0.00000200 -1.00000000
vn 0.00018500 -0.00001900 -1.00000000
vn 0.00000000 0.00000000 -1.00000000
vn 0.00003100 -0.00000300 -1.00000000
vn -0.00021000 0.00002100 -1.00000000
vn -0.00008500 0.00000900 -1.00000000
vn -0.00020100 0.00002000 -1.00000000
vn 0.00000800 -0.00000100 -1.00000000
vn 0.00018500 -0.00001900 -1.00000000
vn 0.00000000 0.00000000 -1.00000000
vn 0.00008400 -0.00000900 -1.00000000
vn 0.00000000 0.00000000 -1.00000000
vn 0.00000000 0.00000000 -1.00000000
vn 0.00030200 -0.00003100 -1.00000000
vn 0.00008400 -0.00000900 -1.00000000
vn -0.00011400 0.00001200 -1.00000000
vn -0.00006300 0.00000600 -1.00000000
vn 0.00004900 -0.00000500 -1.00000000
vn 0.00000000 0.00000000 -1.00000000
vn 0.00007400 -0.00000800 -1.00000000
vn 0.00000000 0.00000000 -1.00000000
vn 0.00000000 0.00000000 -1.00000000
vn -0.00021000 0.00002100 -1.00000000
vn -0.00021000 0.00002100 -1.00000000
vn 0.00000000 0.00000000 -1.00000000
vn -0.00020100 0.00002000 -1.00000000
vn 0.00000000 0.00000000 -1.00000000
vn 0.00000800 -0.00000100 -1.00000000
vn -0.00020100 0.00002000 -1.00000000
vn -0.00008400 0.00000900 -1.00000000
vn 0.00000000 0.00000000 -1.00000000
vn 0.00000000 0.00000000 -1.00000000
vn 0.00000000 0.00000000 -1.00000000
vn -0.00008400 0.00000900 -1.00000000
vn -0.00001500 0.00000200 -1.00000000
vn -0.00018700 0.00001900 -1.00000000
vn -0.00034000 0.00003500 -1.00000000
vn -0.00005300 0.00000500 -1.00000000
vn 0.00000900 -0.00000100 -1.00000000
vn -0.00033400 0.00003400 -1.00000000
vn 0.00000900 -0.00000100 -1.00000000
vn -0.00006800 0.00000700 -1.00000000
vn -0.00006800 0.00000700 -1.00000000
vn -0.00020100 0.00002000 -1.00000000
vn 0.00000000 0.00000000 -1.00000000
vn 0.00029900 -0.00003000 -1.00000000
vn 0.00000800 -0.00000100 -1.00000000
vn 0.00029900 -0.00003000 -1.00000000
vn 0.00000000 0.00000000 -1.00000000
vn -0.00018700 0.00001900 -1.00000000
vn -0.00020900 0.00002100 -1.00000000
vn -0.00018700 0.00001900 -1.00000000
vn 0.00000000 0.00000000 -1.00000000
vn -0.00001400 0.00000100 -1.00000000
vn -0.00020900 0.00002100 -1.00000000
vn -0.00001400 0.00000100 -1.00000000
vn 0.00000000 0.00000000 -1.00000000
vn -0.00029700 0.00003000 -1.00000000
vn 0.00000000 0.00000000 -1.00000000
vn -0.00029700 0.00003000 -1.00000000
vn 0.00007400 -0.00000800 -1.00000000
vn 0.00000000 0.00000000 -1.00000000
vn 0.00007400 -0.00000800 -1.00000000
vn -0.00020100 0.00002000 -1.00000000
vn 0.00000000 0.00000000 -1.00000000
vn 0.00000000 0.00000000 -1.00000000
vn -0.00008500 0.00000900 -1.00000000
vn -0.00002300 0.00000200 -1.00000000
vn 0.00000000 0.00000000 -1.00000000
vn -0.00002300 0.00000200 -1.00000000
vn 0.00018500 -0.00001900 -1.00000000
vn 0.00000000 0.00000000 -1.00000000
vn 0.00030200 -0.00003100 -1.00000000
vn -0.00011400 0.00001200 -1.00000000
vn 0.00000000 0.00000000 -1.00000000
vn 0.00008400 -0.00000900 -1.00000000
vn -0.00011400 0.00001200 -1.00000000
vn -0.00006300 0.00000600 -1.00000000
vn 0.00000000 0.00000000 -1.00000000
vn -0.00006300 0.00000600 -1.00000000
vn 0.00000000 0.00000000 -1.00000000
vn 0.00003100 -0.00000300 -1.00000000
vn 0.00003100 -0.00000300 -1.00000000
vn -0.00008500 0.00000900 -1.00000000
vn -0.00005300 0.00000500 -1.00000000
vn 0.00000000 0.00000000 -1.00000000
vn -0.00034000 0.00003500 -1.00000000
vn 0.00000000 0.00000000 -1.00000000
vn -0.00034000 0.00003500 -1.00000000
vn -0.00008400 0.00000900 -1.00000000
vn 0.00000000 0.00000000 -1.00000000
vn 0.00004900 -0.00000500 -1.00000000
vn 0.00000000 0.00000000 -1.00000000
vn 0.00004900 -0.00000500 -1.00000000
vn 0.00030200 -0.00003100 -1.00000000
vn 0.00000000 0.00000000 -1.00000000
vn -0.00001500 0.00000200 -1.00000000
vn 0.00000000 0.00000000 -1.00000000
vn -0.00005300 0.00000500 -1.00000000
vn -0.00001500 0.00000200 -1.00000000
f 1//1 2//2 3//3
f 1//1 3//3 4//4
f 4//4 3//3 5//5
f 4//4 5//5 6//6
f 6//6 5//5 7//7
f 6//6 7//7 8//8
f 8//8 7//7 9//9
f 8//8 9//9 10//10
f 10//10 9//9 11//11
f 10//10 11//11 12//12
f 12//12 11//11 13//13
f 12//12 13//13 14//14
f 14//14 13//13 15//15
f 14//14 15//15 16//16
f 16//16 15//15 17//17
f 16//16 17//17 18//18
f 18//18 17//17 19//19
f 18//18 19//19 20//20
f 20//20 19//19 21//21
f 20//20 21//21 22//22
f 22//22 21//21 23//23
f 22//22 23//23 24//24
f 24//24 23//23 25//25
f 24//24 25//25 26//26
f 27//27 26//26 28//28
f 28//28 26//26 25//25
f 27//27 28//28 29//29
f 27//27 29//29 30//30
f 30//30 29//29 31//31
f 30//30 31//31 32//32
f 32//32 31//31 33//33
f 32//32 33//33 34//34
f 34//34 33//33 35//35
f 34//34 35//35 36//36
f 36//36 35//35 37//37
f 36//36 37//37 38//38
f 38//38 37//37 39//39
f 38//38 39//39 40//40
f 40//40 39//39 41//41
f 40//40 41//41 42//42
f 42//42 41//41 43//43
f 42//42 43//43 44//44
f 44//44 43//43 45//45
f 44//44 45//45 46//46
f 46//46 45//45 47//47
f 46//46 47//47 48//48
f 48//48 47//47 49//49
f 48//48 49//49 50//50
f 50//50 49//49 51//51
f 50//50 51//51 52//52
f 52//52 51//51 53//53
f 52//52 53//53 54//54
f 54//54 53//53 55//55
f 54//54 55//55 56//56
f 56//56 55//55 57//57
f 56//56 57//57 58//58
f 58//58 57//57 59//59
f 58//58 59//59 60//60
f 60//60 59//59 61//61
f 60//60 61//61 62//62
f 62//62 61//61 63//63
f 62//62 63//63 64//64
f 64//64 63//63 65//65
f 64//64 65//65 66//66
f 66//66 65//65 67//67
f 66//66 67//67 68//68
f 68//68 67//67 69//69
f 68//68 69//69 70//70
f 70//70 69//69 71//71
f 70//70 71//71 72//72
f 72//72 71//71 73//73
f 72//72 73//73 74//74
f 74//74 73//73 75//75
f 74//74 75//75 76//76
f 77//77 76//76 78//78
f 78//78 76//76 75//75
f 77//77 78//78 79//79
f 77//77 79//79 80//80
f 80//80 79//79 81//81
f 80//80 81//81 82//82
f 82//82 81//81 83//83
f 82//82 83//83 84//84
f 84//84 83//83 85//85
f 84//84 85//85 86//86
f 86//86 85//85 87//87
f 86//86 87//87 88//88
f 88//88 87//87 89//89
f 88//88 89//89 90//90
f 90//90 89//89 91//91
f 90//90 91//91 92//92
f 92//92 91//91 93//93
f 92//92 93//93 94//94
f 94//94 93//93 95//95
f 94//94 95//95 96//96
f 96//96 95//95 97//97
f 96//96 97//97 98//98
f 98//98 97//97 99//99
f 98//98 99//99 100//100
f 100//100 99//99 2//2
f 100//100 2//2 1//1
f 104//104 110//110 114//114
f 123//123 128//128 134//134
f 134//134 128//128 136//136
f 137//137 140//140 128//128
f 129//129 139//139 142//142
f 130//130 141//141 144//144
f 143//143 146//146 128//128
f 133//133 145//145 148//148
f 131//131 147//147 150//150
f 152//152 153//153 161//161
f 158//158 154//154 163//163
f 151//151 157//157 164//164
f 165//165 161//161 166//166
f 165//165 166//166 168//168
f 167//167 169//169 171//171
f 168//168 170//170 128//128
f 125//125 172//172 173//173
f 126//126 174//174 138//138
f 149//149 176//176 127//127
f 124//124 175//175 177//177
f 132//132 178//178 135//135
f 179//179 181//181 123//123
f 118//118 180//180 183//183
f 117//117 182//182 184//184
f 162//162 186//186 161//161
f 160//160 187//187 189//189
f 156//156 188//188 190//190
f 116//116 192//192 102//102
f 103//103 193//193 195//195
f 101//101 194//194 196//196
f 191//191 198//198 161//161
f 155//155 199//199 201//201
f 159//159 200//200 203//203
f 202//202 204//204 112//112
f 111//111 205//205 207//207
f 113//113 206//206 115//115
f 185//185 208//208 123//123
f 122//122 209//209 210//210
f 121//121 211//211 212//212
f 197//197 214//214 105//105
f 109//109 215//215 217//217
f 105//105 216//216 218//218
f 213//213 220//220 123//123
f 119//119 221//221 222//222
f 120//120 223//223 224//224
f 219//219 226//226 106//106
f 108//108 225//225 227//227
f 107//107 228//228 229//229
f 231//231 232//232 238//238
f 243//243 233//233 245//245
f 247//247 248//248 252//252
f 247//247 252//252 259//259
f 261//261 262//262 268//268
f 270//270 271//271 274//274
f 273//273 272//272 254//254
f 274//274 252//252 276//276
f 275//275 256//256 278//278
f 280//280 281//281 282//282
f 246//246 289//289 239//239
f 240//240 288//288 290//290
f 237//237 291//291 292//292
f 248//248 294//294 252//252
f 249//249 295//295 297//297
f 257//257 296//296 277//277
f 281//281 298//298 282//282
f 285//285 299//299 301//301
f 282//282 302//302 238//238
f 241//241 300//300 304//304
f 235//235 303//303 305//305
f 306//306 308//308 238//238
f 234//234 307//307 309//309
f 242//242 310//310 230//230
f 274//274 311//311 270//270
f 269//269 312//312 244//244
f 270//270 238//238 314//314
f 313//313 236//236 293//293
f 315//315 318//318 252//252
f 250//250 317//317 319//319
f 251//251 320//320 258//258
f 321//321 324//324 268//268
f 265//265 323//323 326//326
f 264//264 325//325 260//260
f 262//262 328//328 268//268
f 266//266 327//327 329//329
f 268//268 330//330 252//252
f 253//253 331//331 332//332
f 255//255 333//333 316//316
f 335//335 337//337 282//282
f 286//286 336//336 338//338
f 283//283 339//339 279//279
f 340//340 342//342 268//268
f 267//267 341//341 343//343
f 263//263 344//344 322//322
f 345//345 347//347 282//282
f 284//284 346//346 349//349
f 287//287 348//348 334//334

