# https://github.com/mikedh/trimesh
v -0.02211600 -0.09236200 0.01998400
v -0.02211600 -0.09236200 0.01998400
v -0.02211900 -0.09237500 0.01998300
v -0.02211900 -0.09237500 0.01998300
v -0.02211900 -0.09237500 0.01998300
v -0.02211900 -0.09237500 0.01998300
v -0.02211900 -0.09237500 0.01998300
v -0.02211900 -0.09237500 0.01998300
v -0.02114600 -0.09051500 0.02013100
v -0.02114600 -0.09051500 0.02013100
v -0.02114600 -0.09051500 0.02013100
v -0.02114600 -0.09051500 0.02013100
v -0.02114600 -0.09051500 0.02013100
v -0.02114600 -0.09051500 0.02013100
v -0.02114600 -0.09051500 0.02013100
v -0.02114600 -0.09051500 0.02013100
v -0.02114600 -0.09051500 0.02013100
v -0.02114600 -0.09051500 0.02013100
v -0.02114600 -0.09051500 0.02013100
v -0.02345200 -0.09169200 0.02003800
v -0.02345200 -0.09169200 0.02003800
v -0.02345500 -0.09145100 0.02005700
v -0.02345500 -0.09145100 0.02005700
v -0.02468900 -0.09060100 0.02012500
v -0.02468900 -0.09060100 0.02012500
v -0.02468900 -0.09060100 0.02012500
v -0.02468900 -0.09060100 0.02012500
v -0.02468900 -0.09060100 0.02012500
v -0.02468900 -0.09060100 0.02012500
v -0.02345500 -0.09121000 0.02007600
v -0.02345500 -0.09121000 0.02007600
v -0.02341100 -0.09097400 0.02009500
v -0.02341100 -0.09097400 0.02009500
v -0.02341100 -0.09097400 0.02009500
v -0.02462300 -0.09027700 0.02015100
v -0.02462300 -0.09027700 0.02015100
v -0.02462300 -0.09027700 0.02015100
v -0.02327600 -0.09077600 0.02011100
v -0.02327600 -0.09077600 0.02011100
v -0.02327600 -0.09077600 0.02011100
v -0.02327600 -0.09077600 0.02011100
v -0.02327600 -0.09077600 0.02011100
v -0.02449900 -0.08998100 0.02017500
v -0.02449900 -0.08998100 0.02017500
v -0.02294600 -0.09063700 0.02012200
v -0.02294600 -0.09063700 0.02012200
v -0.02294600 -0.09063700 0.02012200
v -0.02294600 -0.09063700 0.02012200
v -0.02334800 -0.08924100 0.02023400
v -0.02334800 -0.08924100 0.02023400
v -0.02334800 -0.08924100 0.02023400
v -0.02312400 -0.09067600 0.02011900
v -0.02312400 -0.09067600 0.02011900
v -0.02312400 -0.09067600 0.02011900
v -0.02387600 -0.08938900 0.02022200
v -0.02387600 -0.08938900 0.02022200
v -0.02387600 -0.08938900 0.02022200
v -0.02431400 -0.08971900 0.02019600
v -0.02431400 -0.08971900 0.02019600
v -0.02118000 -0.09046400 0.02013500
v -0.02118000 -0.09046400 0.02013500
v -0.02133400 -0.09014800 0.02016100
v -0.02133400 -0.09014800 0.02016100
v -0.02229700 -0.09089700 0.02010100
v -0.02229700 -0.09089700 0.02010100
v -0.02229700 -0.09089700 0.02010100
v -0.02229700 -0.09089700 0.02010100
v -0.02229700 -0.09089700 0.02010100
v -0.02154600 -0.08986800 0.02018300
v -0.02154600 -0.08986800 0.02018300
v -0.02154600 -0.08986800 0.02018300
v -0.02260000 -0.09068100 0.02011800
v -0.02260000 -0.09068100 0.02011800
v -0.02260000 -0.09068100 0.02011800
v -0.02192200 -0.08955100 0.02020800
v -0.02192200 -0.08955100 0.02020800
v -0.02192200 -0.08955100 0.02020800
v -0.02277000 -0.09064000 0.02012200
v -0.02277000 -0.09064000 0.02012200
v -0.02277000 -0.09064000 0.02012200
v -0.02236700 -0.08934000 0.02022500
v -0.02236700 -0.08934000 0.02022500
v -0.02236700 -0.08934000 0.02022500
v -0.02285200 -0.08923500 0.02023400
v -0.02285200 -0.08923500 0.02023400
v -0.02211500 -0.09234400 0.01998500
v -0.02211500 -0.09234400 0.01998500
v -0.02461100 -0.09351500 0.01989300
v -0.02461100 -0.09351500 0.01989300
v -0.02461100 -0.09351500 0.01989300
v -0.02459200 -0.09351900 0.01989200
v -0.02459200 -0.09351900 0.01989200
v -0.02343900 -0.09223400 0.01999500
v -0.02343900 -0.09223400 0.01999500
v -0.02343900 -0.09223400 0.01999500
v -0.02343900 -0.09223400 0.01999500
v -0.02343900 -0.09223400 0.01999500
v -0.02343900 -0.09223400 0.01999500
v -0.02439600 -0.09354300 0.01989000
v -0.02439600 -0.09354300 0.01989000
v -0.02439600 -0.09354300 0.01989000
v -0.02342600 -0.09224800 0.01999300
v -0.02342600 -0.09224800 0.01999300
v -0.02342600 -0.09224800 0.01999300
v -0.02342600 -0.09224800 0.01999300
v -0.02150400 -0.09387200 0.01986300
v -0.02150400 -0.09387200 0.01986300
v -0.02150400 -0.09387200 0.01986300
v -0.02150400 -0.09387200 0.01986300
v -0.02150400 -0.09387200 0.01986300
v -0.02150400 -0.09387200 0.01986300
v -0.02097900 -0.09252500 0.01997100
v -0.02097900 -0.09252500 0.01997100
v -0.02099300 -0.09251100 0.01997200
v -0.02099300 -0.09251100 0.01997200
v -0.02099300 -0.09251100 0.01997200
v -0.02116100 -0.09050200 0.02013200
v -0.02116100 -0.09050200 0.02013200
v -0.02116100 -0.09050200 0.02013200
v -0.02214100 -0.09123500 0.02007400
v -0.02214100 -0.09123500 0.02007400
v -0.02214100 -0.09123500 0.02007400
v -0.02212700 -0.09132200 0.02006700
v -0.02212700 -0.09132200 0.02006700
v -0.02212300 -0.09141000 0.02006000
v -0.02212300 -0.09141000 0.02006000
v -0.02100700 -0.09194000 0.02001700
v -0.02100700 -0.09194000 0.02001700
v -0.02100000 -0.09190500 0.02002000
v -0.02100000 -0.09190500 0.02002000
v -0.02100000 -0.09190500 0.02002000
v -0.02356400 -0.09363700 0.01988300
v -0.02356400 -0.09363700 0.01988300
v -0.02356400 -0.09363700 0.01988300
v -0.02356400 -0.09363700 0.01988300
v -0.02340000 -0.09225600 0.01999300
v -0.02340000 -0.09225600 0.01999300
v -0.02340000 -0.09225600 0.01999300
v -0.02388200 -0.09360100 0.01988600
v -0.02388200 -0.09360100 0.01988600
v -0.02388200 -0.09360100 0.01988600
v -0.02420000 -0.09356500 0.01988900
v -0.02420000 -0.09356500 0.01988900
v -0.02212500 -0.09238700 0.01998200
v -0.02212500 -0.09238700 0.01998200
v -0.02212500 -0.09238700 0.01998200
v -0.02212500 -0.09238700 0.01998200
v -0.02212500 -0.09238700 0.01998200
v -0.02213600 -0.09239300 0.01998100
v -0.02213600 -0.09239300 0.01998100
v -0.02213600 -0.09239300 0.01998100
v -0.02213600 -0.09239300 0.01998100
v -0.02184400 -0.09383300 0.01986600
v -0.02184400 -0.09383300 0.01986600
v -0.02464700 -0.09349300 0.01989400
v -0.02467600 -0.09343800 0.01989900
v -0.02467600 -0.09343800 0.01989900
v -0.02467600 -0.09343800 0.01989900
v -0.02468700 -0.09335500 0.01990500
v -0.02468700 -0.09335500 0.01990500
v -0.02468700 -0.09335500 0.01990500
v -0.02344800 -0.09219000 0.01999800
v -0.02344800 -0.09219000 0.01999800
v -0.02344800 -0.09219000 0.01999800
v -0.02470600 -0.09093100 0.02009900
v -0.02470600 -0.09093100 0.02009900
v -0.02470600 -0.09093100 0.02009900
v -0.02345000 -0.09194100 0.02001800
v -0.02345000 -0.09194100 0.02001800
v -0.02345000 -0.09194100 0.02001800
v -0.02211900 -0.09186800 0.02002300
v -0.02211900 -0.09186800 0.02002300
v -0.02211500 -0.09232600 0.01998700
v -0.02211500 -0.09232600 0.01998700
v -0.02094700 -0.09253300 0.01997000
v -0.02094700 -0.09253300 0.01997000
v -0.02094700 -0.09253300 0.01997000
v -0.02115200 -0.09391200 0.01986000
v -0.02115200 -0.09391200 0.01986000
v -0.02115200 -0.09391200 0.01986000
v -0.02086300 -0.09254100 0.01996900
v -0.02086300 -0.09254100 0.01996900
v -0.02086300 -0.09254100 0.01996900
v -0.02080000 -0.09395200 0.01985700
v -0.02080000 -0.09395200 0.01985700
v -0.02080000 -0.09395200 0.01985700
v -0.02077900 -0.09255000 0.01996900
v -0.02077900 -0.09255000 0.01996900
v -0.02077900 -0.09255000 0.01996900
v -0.02077900 -0.09255000 0.01996900
v -0.02098300 -0.09188400 0.02002200
v -0.02098300 -0.09188400 0.02002200
v -0.02098300 -0.09188400 0.02002200
v -0.02112900 -0.09051800 0.02013100
v -0.02112900 -0.09051800 0.02013100
v -0.02112900 -0.09051800 0.02013100
v -0.02094300 -0.09186500 0.02002300
v -0.02094300 -0.09186500 0.02002300
v -0.02094300 -0.09186500 0.02002300
v -0.02108500 -0.09050800 0.02013200
v -0.02108500 -0.09050800 0.02013200
v -0.02108500 -0.09050800 0.02013200
v -0.02108500 -0.09050800 0.02013200
v -0.02108500 -0.09050800 0.02013200
v -0.02108500 -0.09050800 0.02013200
v -0.02108500 -0.09050800 0.02013200
v -0.02074900 -0.09180500 0.02002800
v -0.02074900 -0.09180500 0.02002800
v -0.02055500 -0.09174400 0.02003300
v -0.02055500 -0.09174400 0.02003300
v -0.02322400 -0.09367600 0.01987900
v -0.02322400 -0.09367600 0.01987900
v -0.02322400 -0.09367600 0.01987900
v -0.02322400 -0.09367600 0.01987900
v -0.02325600 -0.09227200 0.01999200
v -0.02325600 -0.09227200 0.01999200
v -0.02325600 -0.09227200 0.01999200
v -0.02332800 -0.09226400 0.01999200
v -0.02332800 -0.09226400 0.01999200
v -0.01858400 -0.08974700 0.02019200
v -0.01858400 -0.08974700 0.02019200
v -0.01858400 -0.08974700 0.02019200
v -0.01858400 -0.08974700 0.02019200
v -0.01858400 -0.08974700 0.02019200
v -0.01858400 -0.08974700 0.02019200
v -0.01858400 -0.08974700 0.02019200
v -0.01858400 -0.08974700 0.02019200
v -0.01858400 -0.08974700 0.02019200
v -0.01858400 -0.08974700 0.02019200
v -0.01858400 -0.08974700 0.02019200
v -0.01939300 -0.08991400 0.02017900
v -0.01939300 -0.08991400 0.02017900
v -0.01956200 -0.08997400 0.02017400
v -0.01956200 -0.08997400 0.02017400
v -0.01854300 -0.09412900 0.01984200
v -0.01855400 -0.09288300 0.01994100
v -0.01855400 -0.09288300 0.01994100
v -0.01857800 -0.09418100 0.01983800
v -0.01857800 -0.09418100 0.01983800
v -0.01857800 -0.09418100 0.01983800
v -0.01859000 -0.09282800 0.01994600
v -0.01859000 -0.09282800 0.01994600
v -0.01859000 -0.09282800 0.01994600
v -0.01859000 -0.09282800 0.01994600
v -0.02045800 -0.09399100 0.01985300
v -0.02045800 -0.09399100 0.01985300
v -0.02011600 -0.09402900 0.01985000
v -0.02011600 -0.09402900 0.01985000
v -0.02011600 -0.09402900 0.01985000
v -0.01972700 -0.09266900 0.01995900
v -0.01972700 -0.09266900 0.01995900
v -0.01972700 -0.09266900 0.01995900
v -0.01977200 -0.09406800 0.01984700
v -0.01977200 -0.09406800 0.01984700
v -0.01977200 -0.09406800 0.01984700
v -0.01923100 -0.09272600 0.01995400
v -0.01923100 -0.09272600 0.01995400
v -0.01923100 -0.09272600 0.01995400
v -0.01942800 -0.09410700 0.01984400
v -0.01942800 -0.09410700 0.01984400
v -0.01942800 -0.09410700 0.01984400
v -0.01873500 -0.09278200 0.01994900
v -0.01873500 -0.09278200 0.01994900
v -0.01873500 -0.09278200 0.01994900
v -0.01904600 -0.09415100 0.01984000
v -0.01904600 -0.09415100 0.01984000
v -0.01904600 -0.09415100 0.01984000
v -0.01864900 -0.09279600 0.01994800
v -0.01864900 -0.09279600 0.01994800
v -0.01864900 -0.09279600 0.01994800
v -0.01866400 -0.09419400 0.01983700
v -0.01866400 -0.09419400 0.01983700
v -0.01866400 -0.09419400 0.01983700
v -0.01860100 -0.09419400 0.01983700
v -0.01860100 -0.09419400 0.01983700
v -0.02218400 -0.09379400 0.01987000
v -0.02218400 -0.09379400 0.01987000
v -0.02218400 -0.09379400 0.01987000
v -0.02215600 -0.09239500 0.01998100
v -0.02215600 -0.09239500 0.01998100
v -0.02215600 -0.09239500 0.01998100
v -0.02253400 -0.09375400 0.01987300
v -0.02253400 -0.09375400 0.01987300
v -0.02253400 -0.09375400 0.01987300
v -0.02238200 -0.09236800 0.01998400
v -0.02238200 -0.09236800 0.01998400
v -0.02238200 -0.09236800 0.01998400
v -0.02288400 -0.09371500 0.01987600
v -0.02288400 -0.09371500 0.01987600
v -0.02288400 -0.09371500 0.01987600
v -0.02260800 -0.09234300 0.01998600
v -0.02260800 -0.09234300 0.01998600
v -0.02260800 -0.09234300 0.01998600
v -0.02293200 -0.09230700 0.01998900
v -0.02293200 -0.09230700 0.01998900
v -0.01860400 -0.09111900 0.02008200
v -0.01856900 -0.09106600 0.02008600
v -0.01856900 -0.09106600 0.02008600
v -0.01866600 -0.09115400 0.02007900
v -0.01866600 -0.09115400 0.02007900
v -0.01866600 -0.09115400 0.02007900
v -0.01866600 -0.09115400 0.02007900
v -0.01858000 -0.08975600 0.02019100
v -0.01858000 -0.08975600 0.02019100
v -0.01973100 -0.09003300 0.02016900
v -0.01973100 -0.09003300 0.02016900
v -0.02040800 -0.09027100 0.02015000
v -0.02040800 -0.09027100 0.02015000
v -0.02100100 -0.09249000 0.01997300
v -0.02100100 -0.09249000 0.01997300
v -0.02100200 -0.09247500 0.01997500
v -0.02100200 -0.09247500 0.01997500
v -0.02100200 -0.09247500 0.01997500
v -0.02100300 -0.09220800 0.01999600
v -0.02100300 -0.09220800 0.01999600
v -0.02015800 -0.09162000 0.02004300
v -0.02015800 -0.09162000 0.02004300
v -0.01976200 -0.09149600 0.02005200
v -0.01976200 -0.09149600 0.02005200
v -0.01976200 -0.09149600 0.02005200
v -0.01921400 -0.09132500 0.02006600
v -0.01921400 -0.09132500 0.02006600
v -0.01868500 -0.08967000 0.02019800
v -0.01868500 -0.08967000 0.02019800
v -0.01870600 -0.08967500 0.02019800
v -0.01870600 -0.08967500 0.02019800
v -0.01858800 -0.08973700 0.02019200
v -0.01858800 -0.08973700 0.02019200
v -0.01858800 -0.08973700 0.02019200
v -0.01858800 -0.08973700 0.02019200
v -0.01858800 -0.08973700 0.02019200
v -0.01858800 -0.08973700 0.02019200
v -0.01872700 -0.08968200 0.02019700
v -0.01872700 -0.08968200 0.02019700
v -0.01872700 -0.08968200 0.02019700
v -0.01906000 -0.08979800 0.02018800
v -0.01906000 -0.08979800 0.02018800
v -0.01860600 -0.08969200 0.02019600
v -0.01862600 -0.08967400 0.02019800
v -0.01862600 -0.08967400 0.02019800
v -0.01865500 -0.08966800 0.02019800
v -0.01865500 -0.08966800 0.02019800
vn 0.00073100 -0.07949500 0.99683500
vn 0.00034400 -0.07947900 0.99683600
vn 0.00073100 -0.07949500 0.99683500
vn 0.00033800 -0.07967400 0.99682100
vn 0.00027700 -0.07971000 0.99681800
vn 0.00030400 -0.07958600 0.99682800
vn 0.00031000 -0.07961100 0.99682600
vn 0.00031300 -0.07961900 0.99682500
vn 0.00035500 -0.07959600 0.99682700
vn 0.00037700 -0.07968100 0.99682000
vn 0.00023300 -0.07951600 0.99683400
vn 0.00019400 -0.07952700 0.99683300
vn 0.00020300 -0.07940800 0.99684200
vn 0.00036400 -0.07971400 0.99681800
vn 0.00034400 -0.07947900 0.99683600
vn 0.00073100 -0.07949500 0.99683500
vn 0.00031300 -0.07961900 0.99682500
vn 0.00024700 -0.07961400 0.99682600
vn 0.00025100 -0.07956500 0.99683000
vn 0.00024400 -0.07964400 0.99682300
vn 0.00022900 -0.07966200 0.99682200
vn 0.00025800 -0.07961700 0.99682600
vn 0.00022900 -0.07966200 0.99682200
vn 0.00029900 -0.07954600 0.99683100
vn 0.00036400 -0.07953200 0.99683200
vn 0.00024400 -0.07964400 0.99682300
vn 0.00025800 -0.07961700 0.99682600
vn 0.00022900 -0.07966200 0.99682200
vn 0.00030700 -0.07953400 0.99683200
vn 0.00025800 -0.07961700 0.99682600
vn 0.00029900 -0.07954600 0.99683100
vn 0.00030700 -0.07953400 0.99683200
vn 0.00029700 -0.07951700 0.99683300
vn 0.00029900 -0.07954600 0.99683100
vn 0.00024400 -0.07967800 0.99682100
vn 0.00029700 -0.07951700 0.99683300
vn 0.00030700 -0.07953400 0.99683200
vn 0.00024400 -0.07967800 0.99682100
vn 0.00037400 -0.07954800 0.99683100
vn 0.00029700 -0.07951700 0.99683300
vn 0.00031600 -0.07957400 0.99682900
vn 0.00031400 -0.07957600 0.99682900
vn 0.00024400 -0.07967800 0.99682100
vn 0.00031400 -0.07957600 0.99682900
vn 0.00039300 -0.07961400 0.99682600
vn 0.00056300 -0.07954300 0.99683100
vn 0.00034800 -0.07956700 0.99682900
vn 0.00026800 -0.07956200 0.99683000
vn 0.00025700 -0.07961800 0.99682500
vn 0.00034800 -0.07956700 0.99682900
vn 0.00056300 -0.07954300 0.99683100
vn 0.00056200 -0.07953800 0.99683200
vn 0.00037400 -0.07954800 0.99683100
vn 0.00025700 -0.07961800 0.99682500
vn 0.00037400 -0.07954800 0.99683100
vn 0.00031600 -0.07957400 0.99682900
vn 0.00025700 -0.07961800 0.99682500
vn 0.00031400 -0.07957600 0.99682900
vn 0.00031600 -0.07957400 0.99682900
vn 0.00023400 -0.07949400 0.99683500
vn 0.00029600 -0.07962800 0.99682500
vn 0.00029600 -0.07962800 0.99682500
vn 0.00027900 -0.07961600 0.99682600
vn 0.00024400 -0.07950900 0.99683400
vn 0.00038200 -0.07969100 0.99682000
vn 0.00027900 -0.07961600 0.99682600
vn 0.00029600 -0.07962800 0.99682500
vn 0.00023400 -0.07949400 0.99683500
vn 0.00038200 -0.07969100 0.99682000
vn 0.00025700 -0.07952900 0.99683300
vn 0.00027900 -0.07961600 0.99682600
vn 0.00019100 -0.07948800 0.99683600
vn 0.00038200 -0.07969100 0.99682000
vn 0.00025700 -0.07952900 0.99683300
vn 0.00034100 -0.07960900 0.99682600
vn 0.00025700 -0.07952900 0.99683300
vn 0.00019100 -0.07948800 0.99683600
vn 0.00034100 -0.07960900 0.99682600
vn 0.00039300 -0.07961400 0.99682600
vn 0.00019100 -0.07948800 0.99683600
vn 0.00026800 -0.07956200 0.99683000
vn 0.00039300 -0.07961400 0.99682600
vn 0.00034100 -0.07960900 0.99682600
vn 0.00034800 -0.07956700 0.99682900
vn 0.00026800 -0.07956200 0.99683000
vn 0.00034300 -0.07947900 0.99683600
vn 0.00023300 -0.07951500 0.99683400
vn 0.00026100 -0.07955200 0.99683100
vn 0.00033100 -0.07951400 0.99683400
vn 0.00033600 -0.07963300 0.99682400
vn 0.00033600 -0.07963300 0.99682400
vn 0.00047600 -0.07971600 0.99681800
vn 0.00044200 -0.07966600 0.99682100
vn 0.00026100 -0.07955200 0.99683100
vn 0.00029900 -0.07961800 0.99682500
vn 0.00021200 -0.07955500 0.99683000
vn 0.00033500 -0.07963300 0.99682400
vn 0.00047600 -0.07971600 0.99681800
vn 0.00044200 -0.07966600 0.99682100
vn 0.00027000 -0.07956800 0.99682900
vn 0.00047600 -0.07971600 0.99681800
vn 0.00027000 -0.07956800 0.99682900
vn 0.00037200 -0.07961700 0.99682500
vn 0.00044200 -0.07966600 0.99682100
vn 0.00028700 -0.07956600 0.99683000
vn 0.00026400 -0.07959700 0.99682700
vn 0.00005600 -0.07945800 0.99683800
vn 0.00031000 -0.07960100 0.99682700
vn 0.00030100 -0.07959900 0.99682700
vn 0.00028200 -0.07965700 0.99682200
vn 0.00014700 -0.07956300 0.99683000
vn 0.00028200 -0.07965700 0.99682200
vn 0.00005600 -0.07945800 0.99683800
vn 0.00030900 -0.07975500 0.99681400
vn 0.00031000 -0.07960100 0.99682700
vn 0.00028200 -0.07965700 0.99682200
vn 0.00023400 -0.07949400 0.99683500
vn 0.00035500 -0.07959600 0.99682700
vn 0.00024400 -0.07950900 0.99683400
vn 0.00035500 -0.07959600 0.99682700
vn 0.00024400 -0.07950900 0.99683400
vn 0.00036400 -0.07971400 0.99681800
vn 0.00036400 -0.07971400 0.99681800
vn 0.00020300 -0.07940800 0.99684200
vn 0.00020300 -0.07940800 0.99684200
vn 0.00037700 -0.07968100 0.99682000
vn 0.00033800 -0.07967400 0.99682100
vn 0.00031000 -0.07961100 0.99682600
vn 0.00033800 -0.07967400 0.99682100
vn 0.00031300 -0.07961900 0.99682500
vn 0.00024700 -0.07961400 0.99682600
vn 0.00029500 -0.07958700 0.99682800
vn 0.00027800 -0.07959700 0.99682700
vn 0.00062300 -0.07965100 0.99682300
vn 0.00018300 -0.07955300 0.99683100
vn 0.00018300 -0.07955300 0.99683100
vn 0.00027800 -0.07959700 0.99682700
vn 0.00028700 -0.07956600 0.99683000
vn 0.00028700 -0.07956600 0.99683000
vn 0.00037200 -0.07961700 0.99682500
vn 0.00018300 -0.07955300 0.99683100
vn 0.00027000 -0.07956800 0.99682900
vn 0.00037200 -0.07961700 0.99682500
vn 0.00027700 -0.07971000 0.99681800
vn 0.00028700 -0.07968900 0.99682000
vn 0.00030900 -0.07975500 0.99681400
vn 0.00014700 -0.07956300 0.99683000
vn 0.00031000 -0.07960100 0.99682700
vn 0.00030100 -0.07959900 0.99682700
vn 0.00014700 -0.07956300 0.99683000
vn 0.00030800 -0.07959700 0.99682700
vn 0.00044400 -0.07955500 0.99683000
vn 0.00030800 -0.07959700 0.99682700
vn 0.00030100 -0.07959900 0.99682700
vn 0.00033100 -0.07951400 0.99683400
vn 0.00033100 -0.07951400 0.99683400
vn 0.00029900 -0.07961800 0.99682500
vn 0.00026100 -0.07955200 0.99683100
vn 0.00029900 -0.07961800 0.99682500
vn 0.00021200 -0.07955500 0.99683000
vn 0.00031600 -0.07961200 0.99682600
vn 0.00031600 -0.07961200 0.99682600
vn 0.00021200 -0.07955500 0.99683000
vn 0.00024700 -0.07967800 0.99682100
vn 0.00036400 -0.07953200 0.99683200
vn 0.00024700 -0.07967800 0.99682100
vn 0.00031600 -0.07961200 0.99682600
vn 0.00036400 -0.07953200 0.99683200
vn 0.00024700 -0.07967800 0.99682100
vn 0.00024400 -0.07964400 0.99682300
vn 0.00037700 -0.07968100 0.99682000
vn 0.00019400 -0.07952700 0.99683300
vn 0.00019400 -0.07952700 0.99683300
vn 0.00023300 -0.07951500 0.99683400
vn 0.00005600 -0.07945800 0.99683800
vn 0.00026400 -0.07959700 0.99682700
vn 0.00013800 -0.07958600 0.99682800
vn 0.00026600 -0.07960600 0.99682600
vn 0.00013800 -0.07958600 0.99682800
vn 0.00026400 -0.07959700 0.99682700
vn 0.00013800 -0.07958600 0.99682800
vn 0.00071500 -0.07958200 0.99682800
vn 0.00026600 -0.07960600 0.99682600
vn 0.00026600 -0.07960600 0.99682600
vn 0.00071500 -0.07958200 0.99682800
vn 0.00031100 -0.07958400 0.99682800
vn 0.00071500 -0.07958200 0.99682800
vn 0.00025300 -0.07961100 0.99682600
vn 0.00031100 -0.07958400 0.99682800
vn 0.00032100 -0.07957700 0.99682900
vn 0.00024700 -0.07961400 0.99682600
vn 0.00030300 -0.07959500 0.99682700
vn 0.00025100 -0.07956500 0.99683000
vn 0.00025100 -0.07956500 0.99683000
vn 0.00030300 -0.07959500 0.99682700
vn 0.00044200 -0.07958300 0.99682800
vn 0.00044200 -0.07958300 0.99682800
vn 0.00047600 -0.07957100 0.99682900
vn 0.00030300 -0.07959500 0.99682700
vn 0.00047600 -0.07957100 0.99682900
vn 0.00026000 -0.07959700 0.99682700
vn 0.00028100 -0.07957500 0.99682900
vn 0.00044200 -0.07958300 0.99682800
vn 0.00025600 -0.07960200 0.99682700
vn 0.00038900 -0.07954500 0.99683100
vn 0.00039300 -0.07995400 0.99679800
vn 0.00038900 -0.07954500 0.99683100
vn 0.00047600 -0.07957100 0.99682900
vn 0.00025600 -0.07960200 0.99682700
vn 0.00038900 -0.07954500 0.99683100
vn 0.00029500 -0.07958700 0.99682800
vn 0.00030500 -0.07960500 0.99682600
vn 0.00022200 -0.07957000 0.99682900
vn 0.00028700 -0.07958300 0.99682800
vn 0.00029500 -0.07958700 0.99682800
vn 0.00028700 -0.07958300 0.99682800
vn 0.00062300 -0.07965100 0.99682300
vn 0.00062300 -0.07965100 0.99682300
vn 0.00027800 -0.07959700 0.99682700
vn 0.00031800 -0.07969700 0.99681900
vn 0.00034600 -0.07945900 0.99683800
vn 0.00039300 -0.07995400 0.99679800
vn 0.00035600 -0.07976600 0.99681400
vn 0.00022500 -0.07937400 0.99684500
vn 0.00031300 -0.07959300 0.99682700
vn 0.00028100 -0.07957500 0.99682900
vn 0.00028000 -0.07957800 0.99682900
vn 0.00037300 -0.07934400 0.99684700
vn 0.00035400 -0.07961700 0.99682500
vn 0.00030900 -0.07966000 0.99682200
vn 0.00030900 -0.07966000 0.99682200
vn 0.00031800 -0.07969700 0.99681900
vn 0.00035100 -0.07996600 0.99679800
vn 0.00025100 -0.07936900 0.99684500
vn 0.00071000 -0.07961200 0.99682600
vn 0.00071000 -0.07961200 0.99682600
vn 0.00077700 -0.07955700 0.99683000
vn 0.00037000 -0.07958700 0.99682800
vn 0.00077700 -0.07955700 0.99683000
vn 0.00071000 -0.07961200 0.99682600
vn 0.00037100 -0.07958700 0.99682800
vn 0.00004800 -0.07958100 0.99682800
vn 0.00077500 -0.07964200 0.99682300
vn 0.00077700 -0.07955700 0.99683000
vn 0.00031100 -0.07958400 0.99682800
vn 0.00032100 -0.07957700 0.99682900
vn 0.00032100 -0.07957700 0.99682900
vn 0.00025300 -0.07961100 0.99682600
vn 0.00019000 -0.07959200 0.99682700
vn 0.00025300 -0.07961100 0.99682600
vn 0.00038300 -0.07960100 0.99682700
vn 0.00019000 -0.07959200 0.99682700
vn 0.00032800 -0.07958300 0.99682800
vn 0.00038300 -0.07960100 0.99682700
vn 0.00019000 -0.07959200 0.99682700
vn 0.00038300 -0.07960100 0.99682700
vn 0.00032800 -0.07958300 0.99682800
vn 0.00026200 -0.07956600 0.99683000
vn 0.00037400 -0.07963000 0.99682400
vn 0.00032800 -0.07958300 0.99682800
vn 0.00026200 -0.07956600 0.99683000
vn 0.00026200 -0.07956600 0.99683000
vn 0.00037400 -0.07963000 0.99682400
vn 0.00013000 -0.07957200 0.99682900
vn 0.00013000 -0.07957200 0.99682900
vn 0.00037400 -0.07963000 0.99682400
vn 0.00032200 -0.07962100 0.99682500
vn 0.00077500 -0.07964200 0.99682300
vn 0.00013000 -0.07957200 0.99682900
vn 0.00032200 -0.07962100 0.99682500
vn 0.00077500 -0.07964200 0.99682300
vn 0.00004800 -0.07958100 0.99682800
vn 0.00032200 -0.07962100 0.99682500
vn 0.00037000 -0.07958700 0.99682800
vn 0.00004800 -0.07958100 0.99682800
vn 0.00044400 -0.07955600 0.99683000
vn 0.00034200 -0.07962100 0.99682500
vn 0.00030800 -0.07959700 0.99682700
vn 0.00034200 -0.07962100 0.99682500
vn 0.00017800 -0.07958100 0.99682800
vn 0.00044400 -0.07955500 0.99683000
vn 0.00036200 -0.07960700 0.99682600
vn 0.00017800 -0.07958100 0.99682800
vn 0.00034200 -0.07962100 0.99682500
vn 0.00045900 -0.07963900 0.99682400
vn 0.00036200 -0.07960700 0.99682600
vn 0.00017800 -0.07958100 0.99682800
vn 0.00030500 -0.07960500 0.99682600
vn 0.00045900 -0.07963900 0.99682400
vn 0.00036200 -0.07960700 0.99682600
vn 0.00022200 -0.07957000 0.99682900
vn 0.00030500 -0.07960500 0.99682600
vn 0.00045900 -0.07963900 0.99682400
vn 0.00022200 -0.07957000 0.99682900
vn 0.00028700 -0.07958300 0.99682800
vn 0.00030200 -0.07956600 0.99683000
vn 0.00033300 -0.07923300 0.99685600
vn 0.00034100 -0.07959900 0.99682700
vn 0.00034100 -0.07959900 0.99682700
vn 0.00034500 -0.07945900 0.99683800
vn 0.00042700 -0.07970200 0.99681900
vn 0.00028000 -0.07957800 0.99682900
vn 0.00034500 -0.07945900 0.99683800
vn 0.00034100 -0.07959900 0.99682700
vn 0.00022500 -0.07937400 0.99684500
vn 0.00029700 -0.07953500 0.99683200
vn 0.00039300 -0.07995400 0.99679800
vn 0.00022500 -0.07937400 0.99684500
vn 0.00028700 -0.07968900 0.99682000
vn 0.00030900 -0.07975500 0.99681400
vn 0.00027700 -0.07971000 0.99681800
vn 0.00030400 -0.07958600 0.99682800
vn 0.00028700 -0.07968900 0.99682000
vn 0.00031000 -0.07961100 0.99682600
vn 0.00030400 -0.07958600 0.99682800
vn 0.00026000 -0.07959700 0.99682700
vn 0.00025600 -0.07960200 0.99682700
vn 0.00031300 -0.07959300 0.99682700
vn 0.00026000 -0.07959700 0.99682700
vn 0.00028100 -0.07957500 0.99682900
vn 0.00028000 -0.07957800 0.99682900
vn 0.00031300 -0.07959300 0.99682700
vn 0.00029600 -0.07946200 0.99683800
vn 0.00033300 -0.07960500 0.99682600
vn 0.00055900 -0.07972500 0.99681700
vn 0.00030800 -0.07941200 0.99684200
vn 0.00036300 -0.07968100 0.99682000
vn 0.00033000 -0.07969100 0.99682000
vn 0.00033300 -0.07960400 0.99682600
vn 0.00037300 -0.07934400 0.99684700
vn 0.00033700 -0.07977000 0.99681300
vn 0.00055900 -0.07972500 0.99681700
vn 0.00037300 -0.07934400 0.99684700
vn 0.00055900 -0.07972500 0.99681700
vn 0.00035400 -0.07961700 0.99682500
vn 0.00030900 -0.07966000 0.99682200
vn 0.00035400 -0.07961700 0.99682500
vn 0.00036300 -0.07968100 0.99682000
vn 0.00033000 -0.07969100 0.99682000
vn 0.00036300 -0.07968200 0.99682000
vn 0.00033000 -0.07969100 0.99682000
vn 0.00033300 -0.07960500 0.99682600
f 1//1 3//3 16//16
f 21//21 23//23 28//28
f 22//22 30//30 27//27
f 24//24 31//31 34//34
f 29//29 32//32 37//37
f 36//36 33//33 40//40
f 35//35 38//38 43//43
f 46//46 51//51 52//52
f 54//54 49//49 57//57
f 53//53 55//55 39//39
f 41//41 56//56 59//59
f 42//42 58//58 44//44
f 61//61 62//62 67//67
f 66//66 63//63 71//71
f 65//65 69//69 73//73
f 74//74 70//70 76//76
f 72//72 77//77 80//80
f 78//78 75//75 83//83
f 79//79 82//82 45//45
f 48//48 81//81 85//85
f 47//47 84//84 50//50
f 2//2 15//15 86//86
f 90//90 91//91 97//97
f 98//98 92//92 101//101
f 93//93 99//99 104//104
f 110//110 112//112 116//116
f 60//60 68//68 117//117
f 119//119 64//64 121//121
f 118//118 120//120 9//9
f 14//14 122//122 123//123
f 13//13 124//124 125//125
f 127//127 129//129 4//4
f 135//135 136//136 141//141
f 139//139 138//138 105//105
f 140//140 103//103 143//143
f 142//142 102//102 100//100
f 115//115 148//148 108//108
f 111//111 147//147 150//150
f 109//109 149//149 154//154
f 155//155 89//89 156//156
f 158//158 88//88 94//94
f 157//157 95//95 159//159
f 160//160 96//96 163//163
f 161//161 162//162 167//167
f 166//166 164//164 169//169
f 165//165 168//168 25//25
f 26//26 170//170 20//20
f 126//126 171//171 10//10
f 12//12 172//172 173//173
f 11//11 174//174 87//87
f 113//113 107//107 175//175
f 176//176 106//106 180//180
f 177//177 179//179 181//181
f 183//183 178//178 184//184
f 182//182 185//185 187//187
f 8//8 130//130 17//17
f 18//18 131//131 191//191
f 19//19 193//193 194//194
f 195//195 192//192 199//199
f 196//196 197//197 203//203
f 200//200 198//198 208//208
f 205//205 207//207 210//210
f 211//211 215//215 132//132
f 134//134 217//217 218//218
f 133//133 219//219 137//137
f 220//220 232//232 234//234
f 235//235 236//236 240//240
f 239//239 237//237 244//244
f 186//186 245//245 189//189
f 190//190 246//246 247//247
f 188//188 248//248 250//250
f 252//252 249//249 255//255
f 251//251 254//254 256//256
f 257//257 253//253 260//260
f 258//258 261//261 262//262
f 263//263 259//259 266//266
f 264//264 265//265 269//269
f 270//270 267//267 273//273
f 268//268 271//271 243//243
f 242//242 272//272 275//275
f 241//241 274//274 238//238
f 153//153 151//151 278//278
f 276//276 152//152 281//281
f 277//277 279//279 284//284
f 283//283 280//280 287//287
f 282//282 286//286 290//290
f 289//289 285//285 293//293
f 288//288 292//292 212//212
f 213//213 291//291 294//294
f 214//214 295//295 216//216
f 296//296 297//297 301//301
f 299//299 298//298 304//304
f 300//300 303//303 221//221
f 233//233 306//306 223//223
f 224//224 305//305 308//308
f 222//222 307//307 206//206
f 114//114 310//310 146//146
f 145//145 309//309 313//313
f 144//144 311//311 5//5
f 6//6 312//312 315//315
f 7//7 314//314 128//128
f 209//209 317//317 204//204
f 201//201 316//316 319//319
f 202//202 320//320 226//226
f 225//225 318//318 322//322
f 227//227 321//321 302//302
f 323//323 326//326 331//331
f 332//332 325//325 334//334
f 330//330 333//333 228//228
f 229//229 335//335 337//337
f 230//230 336//336 231//231
f 338//338 340//340 327//327
f 328//328 339//339 341//341
f 329//329 342//342 324//324

