# https://github.com/mikedh/trimesh
v -0.00979100 0.01143800 0.02525000
v -0.00970600 0.01088500 0.01475000
v -0.00970600 0.01088500 0.02525000
v -0.00950000 0.01036400 0.01475000
v -0.00950000 0.01036400 0.02525000
v -0.00918300 0.00990300 0.01475000
v -0.00918300 0.00990300 0.02525000
v -0.00877200 0.00952300 0.01475000
v -0.00877200 0.00952300 0.02525000
v -0.00828600 0.00924400 0.01475000
v -0.00828600 0.00924400 0.02525000
v -0.00775100 0.00908100 0.01475000
v -0.00775100 0.00908100 0.02525000
v -0.00719300 0.00904000 0.01475000
v -0.00719300 0.00904000 0.02525000
v -0.00663900 0.00912500 0.01475000
v -0.00663900 0.00912500 0.02525000
v -0.00611900 0.00933100 0.01475000
v -0.00611900 0.00933100 0.02525000
v -0.00565700 0.00964800 0.01475000
v -0.00565700 0.00964800 0.02525000
v -0.00527700 0.01005900 0.01475000
v -0.00527700 0.01005900 0.02525000
v -0.00499900 0.01054500 0.01475000
v -0.00499900 0.01054500 0.02525000
v -0.00483500 0.01108000 0.01475000
v -0.00483500 0.01108000 0.02525000
v -0.00479500 0.01163900 0.01475000
v -0.00479500 0.01163900 0.02525000
v -0.00488000 0.01219200 0.01475000
v -0.00488000 0.01219200 0.02525000
v -0.00508600 0.01271200 0.01475000
v -0.00508600 0.01271200 0.02525000
v -0.00540200 0.01317400 0.01475000
v -0.00540200 0.01317400 0.02525000
v -0.00581400 0.01355400 0.01475000
v -0.00581400 0.01355400 0.02525000
v -0.00629900 0.01383200 0.01475000
v -0.00629900 0.01383200 0.02525000
v -0.00683500 0.01399600 0.01475000
v -0.00683500 0.01399600 0.02525000
v -0.00739300 0.01403600 0.01475000
v -0.00739300 0.01403600 0.02525000
v -0.00794600 0.01395200 0.01475000
v -0.00794600 0.01395200 0.02525000
v -0.00846700 0.01374600 0.01475000
v -0.00846700 0.01374600 0.02525000
v -0.00892900 0.01342900 0.01475000
v -0.00892900 0.01342900 0.02525000
v -0.00930800 0.01301800 0.01475000
v -0.00930800 0.01301800 0.02525000
v -0.00958700 0.01253200 0.01475000
v -0.00958700 0.01253200 0.02525000
v -0.00975000 0.01199700 0.01475000
v -0.00975000 0.01199700 0.02525000
v -0.00979100 0.01143800 0.01475000
v -0.00529400 0.01161800 0.01425000
v -0.00529400 0.01161800 0.01425000
v -0.00532700 0.01117200 0.01425000
v -0.00729300 0.01153800 0.01425000
v -0.00729300 0.01153800 0.01425000
v -0.00729300 0.01153800 0.01425000
v -0.00729300 0.01153800 0.01425000
v -0.00729300 0.01153800 0.01425000
v -0.00729300 0.01153800 0.01425000
v -0.00729300 0.01153800 0.01425000
v -0.00729300 0.01153800 0.01425000
v -0.00729300 0.01153800 0.01425000
v -0.00729300 0.01153800 0.01425000
v -0.00729300 0.01153800 0.01425000
v -0.00729300 0.01153800 0.01425000
v -0.00729300 0.01153800 0.01425000
v -0.00729300 0.01153800 0.01425000
v -0.00578000 0.01284700 0.01425000
v -0.00578000 0.01284700 0.01425000
v -0.00552700 0.01247800 0.01425000
v -0.00552700 0.01247800 0.01425000
v -0.00536200 0.01206100 0.01425000
v -0.00536200 0.01206100 0.01425000
v -0.00692600 0.01350500 0.01425000
v -0.00649800 0.01337400 0.01425000
v -0.00611000 0.01315100 0.01425000
v -0.00611000 0.01315100 0.01425000
v -0.00823200 0.01330400 0.01425000
v -0.00823200 0.01330400 0.01425000
v -0.00781600 0.01346900 0.01425000
v -0.00781600 0.01346900 0.01425000
v -0.00737300 0.01353700 0.01425000
v -0.00912800 0.01233300 0.01425000
v -0.00912800 0.01233300 0.01425000
v -0.00890500 0.01272200 0.01425000
v -0.00890500 0.01272200 0.01425000
v -0.00860100 0.01305100 0.01425000
v -0.00860100 0.01305100 0.01425000
v -0.00922300 0.01101600 0.01425000
v -0.00922300 0.01101600 0.01425000
v -0.00929100 0.01145800 0.01425000
v -0.00929100 0.01145800 0.01425000
v -0.00925900 0.01190500 0.01425000
v -0.00925900 0.01190500 0.01425000
v -0.00847600 0.00992600 0.01425000
v -0.00880500 0.01023000 0.01425000
v -0.00880500 0.01023000 0.01425000
v -0.00905900 0.01059900 0.01425000
v -0.00905900 0.01059900 0.01425000
v -0.00721300 0.00954000 0.01425000
v -0.00766000 0.00957200 0.01425000
v -0.00808800 0.00970300 0.01425000
v -0.00598400 0.01002600 0.01425000
v -0.00598400 0.01002600 0.01425000
v -0.00635400 0.00977300 0.01425000
v -0.00677000 0.00960800 0.01425000
v -0.00545800 0.01074400 0.01425000
v -0.00545800 0.01074400 0.01425000
v -0.00568000 0.01035500 0.01425000
v -0.00568000 0.01035500 0.01425000
v -0.00529400 0.01161800 0.02575000
v -0.00529400 0.01161800 0.02575000
v -0.00536200 0.01206100 0.02575000
v -0.00729300 0.01153800 0.02575000
v -0.00729300 0.01153800 0.02575000
v -0.00729300 0.01153800 0.02575000
v -0.00729300 0.01153800 0.02575000
v -0.00729300 0.01153800 0.02575000
v -0.00729300 0.01153800 0.02575000
v -0.00729300 0.01153800 0.02575000
v -0.00729300 0.01153800 0.02575000
v -0.00729300 0.01153800 0.02575000
v -0.00729300 0.01153800 0.02575000
v -0.00729300 0.01153800 0.02575000
v -0.00729300 0.01153800 0.02575000
v -0.00729300 0.01153800 0.02575000
v -0.00729300 0.01153800 0.02575000
v -0.00568000 0.01035500 0.02575000
v -0.00568000 0.01035500 0.02575000
v -0.00545800 0.01074400 0.02575000
v -0.00545800 0.01074400 0.02575000
v -0.00532700 0.01117200 0.02575000
v -0.00532700 0.01117200 0.02575000
v -0.00677000 0.00960800 0.02575000
v -0.00635400 0.00977300 0.02575000
v -0.00598400 0.01002600 0.02575000
v -0.00598400 0.01002600 0.02575000
v -0.00808800 0.00970300 0.02575000
v -0.00766000 0.00957200 0.02575000
v -0.00766000 0.00957200 0.02575000
v -0.00721300 0.00954000 0.02575000
v -0.00721300 0.00954000 0.02575000
v -0.00905900 0.01059900 0.02575000
v -0.00905900 0.01059900 0.02575000
v -0.00880500 0.01023000 0.02575000
v -0.00880500 0.01023000 0.02575000
v -0.00847600 0.00992600 0.02575000
v -0.00925900 0.01190500 0.02575000
v -0.00925900 0.01190500 0.02575000
v -0.00929100 0.01145800 0.02575000
v -0.00929100 0.01145800 0.02575000
v -0.00922300 0.01101600 0.02575000
v -0.00922300 0.01101600 0.02575000
v -0.00860100 0.01305100 0.02575000
v -0.00890500 0.01272200 0.02575000
v -0.00890500 0.01272200 0.02575000
v -0.00912800 0.01233300 0.02575000
v -0.00912800 0.01233300 0.02575000
v -0.00737300 0.01353700 0.02575000
v -0.00737300 0.01353700 0.02575000
v -0.00781600 0.01346900 0.02575000
v -0.00823200 0.01330400 0.02575000
v -0.00611000 0.01315100 0.02575000
v -0.00611000 0.01315100 0.02575000
v -0.00649800 0.01337400 0.02575000
v -0.00692600 0.01350500 0.02575000
v -0.00692600 0.01350500 0.02575000
v -0.00552700 0.01247800 0.02575000
v -0.00552700 0.01247800 0.02575000
v -0.00578000 0.01284700 0.02575000
v -0.00578000 0.01284700 0.02575000
v -0.00979100 0.01143800 0.01475000
v -0.00922300 0.01101600 0.01425000
v -0.00970600 0.01088500 0.01475000
v -0.00905900 0.01059900 0.01425000
v -0.00950000 0.01036400 0.01475000
v -0.00880500 0.01023000 0.01425000
v -0.00918300 0.00990300 0.01475000
v -0.00847600 0.00992600 0.01425000
v -0.00877200 0.00952300 0.01475000
v -0.00808800 0.00970300 0.01425000
v -0.00828600 0.00924400 0.01475000
v -0.00766000 0.00957200 0.01425000
v -0.00775100 0.00908100 0.01475000
v -0.00721300 0.00954000 0.01425000
v -0.00719300 0.00904000 0.01475000
v -0.00677000 0.00960800 0.01425000
v -0.00663900 0.00912500 0.01475000
v -0.00635400 0.00977300 0.01425000
v -0.00611900 0.00933100 0.01475000
v -0.00598400 0.01002600 0.01425000
v -0.00565700 0.00964800 0.01475000
v -0.00568000 0.01035500 0.01425000
v -0.00527700 0.01005900 0.01475000
v -0.00545800 0.01074400 0.01425000
v -0.00499900 0.01054500 0.01475000
v -0.00532700 0.01117200 0.01425000
v -0.00483500 0.01108000 0.01475000
v -0.00529400 0.01161800 0.01425000
v -0.00479500 0.01163900 0.01475000
v -0.00536200 0.01206100 0.01425000
v -0.00488000 0.01219200 0.01475000
v -0.00552700 0.01247800 0.01425000
v -0.00508600 0.01271200 0.01475000
v -0.00578000 0.01284700 0.01425000
v -0.00540200 0.01317400 0.01475000
v -0.00611000 0.01315100 0.01425000
v -0.00581400 0.01355400 0.01475000
v -0.00649800 0.01337400 0.01425000
v -0.00629900 0.01383200 0.01475000
v -0.00692600 0.01350500 0.01425000
v -0.00683500 0.01399600 0.01475000
v -0.00737300 0.01353700 0.01425000
v -0.00739300 0.01403600 0.01475000
v -0.00781600 0.01346900 0.01425000
v -0.00794600 0.01395200 0.01475000
v -0.00823200 0.01330400 0.01425000
v -0.00846700 0.01374600 0.01475000
v -0.00860100 0.01305100 0.01425000
v -0.00892900 0.01342900 0.01475000
v -0.00890500 0.01272200 0.01425000
v -0.00930800 0.01301800 0.01475000
v -0.00912800 0.01233300 0.01425000
v -0.00958700 0.01253200 0.01475000
v -0.00925900 0.01190500 0.01425000
v -0.00975000 0.01199700 0.01475000
v -0.00929100 0.01145800 0.01425000
v -0.00479500 0.01163900 0.02525000
v -0.00532700 0.01117200 0.02575000
v -0.00483500 0.01108000 0.02525000
v -0.00545800 0.01074400 0.02575000
v -0.00499900 0.01054500 0.02525000
v -0.00568000 0.01035500 0.02575000
v -0.00527700 0.01005900 0.02525000
v -0.00598400 0.01002600 0.02575000
v -0.00565700 0.00964800 0.02525000
v -0.00635400 0.00977300 0.02575000
v -0.00611900 0.00933100 0.02525000
v -0.00677000 0.00960800 0.02575000
v -0.00663900 0.00912500 0.02525000
v -0.00721300 0.00954000 0.02575000
v -0.00719300 0.00904000 0.02525000
v -0.00766000 0.00957200 0.02575000
v -0.00775100 0.00908100 0.02525000
v -0.00808800 0.00970300 0.02575000
v -0.00828600 0.00924400 0.02525000
v -0.00847600 0.00992600 0.02575000
v -0.00877200 0.00952300 0.02525000
v -0.00880500 0.01023000 0.02575000
v -0.00918300 0.00990300 0.02525000
v -0.00905900 0.01059900 0.02575000
v -0.00950000 0.01036400 0.02525000
v -0.00922300 0.01101600 0.02575000
v -0.00970600 0.01088500 0.02525000
v -0.00929100 0.01145800 0.02575000
v -0.00979100 0.01143800 0.02525000
v -0.00925900 0.01190500 0.02575000
v -0.00975000 0.01199700 0.02525000
v -0.00912800 0.01233300 0.02575000
v -0.00958700 0.01253200 0.02525000
v -0.00890500 0.01272200 0.02575000
v -0.00930800 0.01301800 0.02525000
v -0.00860100 0.01305100 0.02575000
v -0.00892900 0.01342900 0.02525000
v -0.00823200 0.01330400 0.02575000
v -0.00846700 0.01374600 0.02525000
v -0.00781600 0.01346900 0.02575000
v -0.00794600 0.01395200 0.02525000
v -0.00737300 0.01353700 0.02575000
v -0.00739300 0.01403600 0.02525000
v -0.00692600 0.01350500 0.02575000
v -0.00683500 0.01399600 0.02525000
v -0.00649800 0.01337400 0.02575000
v -0.00629900 0.01383200 0.02525000
v -0.00611000 0.01315100 0.02575000
v -0.00581400 0.01355400 0.02525000
v -0.00578000 0.01284700 0.02575000
v -0.00540200 0.01317400 0.02525000
v -0.00552700 0.01247800 0.02575000
v -0.00508600 0.01271200 0.02525000
v -0.00536200 0.01206100 0.02575000
v -0.00488000 0.01219200 0.02525000
v -0.00529400 0.01161800 0.02575000
vn -0.99699600 -0.07745800 0.00000000
vn -0.97435700 -0.22500900 -0.00000100
vn -0.95476000 -0.29737700 0.00000000
vn -0.89986100 -0.43617800 0.00001700
vn -0.86462800 -0.50241300 0.00000100
vn -0.78024500 -0.62547400 0.00001300
vn -0.73115400 -0.68221300 0.00000100
vn -0.62149700 -0.78341600 0.00001800
vn -0.56101200 -0.82780800 0.00000000
vn -0.43160700 -0.90206200 0.00000000
vn -0.36276600 -0.93188000 0.00001800
vn -0.22005200 -0.97548800 0.00000000
vn -0.14629700 -0.98924100 -0.00002400
vn 0.00254900 -0.99999700 0.00001700
vn 0.07751000 -0.99699200 -0.00001300
vn 0.22500000 -0.97435900 0.00001500
vn 0.29742000 -0.95474700 -0.00001800
vn 0.43619100 -0.89985400 -0.00001800
vn 0.50238800 -0.86464200 0.00000000
vn 0.62549500 -0.78022800 0.00000000
vn 0.68219400 -0.73117100 0.00000000
vn 0.78343100 -0.62147900 0.00001800
vn 0.82779100 -0.56103700 0.00000000
vn 0.90208100 -0.43156700 0.00001800
vn 0.93188000 -0.36276800 -0.00001700
vn 0.97549400 -0.22002700 0.00000000
vn 0.98923700 -0.14632300 -0.00001800
vn 0.99999700 0.00254600 0.00000000
vn 0.99699200 0.07750900 0.00000000
vn 0.97435700 0.22500800 0.00000000
vn 0.95474600 0.29742400 0.00000000
vn 0.89985100 0.43619600 0.00000000
vn 0.86464200 0.50238800 0.00000100
vn 0.78025600 0.62546000 0.00000000
vn 0.73117100 0.68219400 0.00000000
vn 0.62148500 0.78342600 0.00000000
vn 0.56104000 0.82778800 0.00000100
vn 0.43158100 0.90207400 -0.00000100
vn 0.36278200 0.93187400 -0.00002200
vn 0.22004200 0.97549000 0.00000000
vn 0.14629200 0.98924200 0.00000000
vn -0.00253300 0.99999700 -0.00000100
vn -0.07744600 0.99699700 0.00000000
vn -0.22500900 0.97435700 -0.00000100
vn -0.29737900 0.95475900 0.00000100
vn -0.43619500 0.89985200 0.00001400
vn -0.50242900 0.86461800 0.00000000
vn -0.62549000 0.78023200 0.00001400
vn -0.68218600 0.73117800 0.00000000
vn -0.78342600 0.62148500 0.00000000
vn -0.82778600 0.56104400 0.00000000
vn -0.90206700 0.43159500 0.00001800
vn -0.93188500 0.36275400 0.00000100
vn -0.97548800 0.22005400 0.00001700
vn -0.98924000 0.14630200 0.00000000
vn -0.99999700 -0.00254400 0.00001400
vn 0.00000000 0.00000000 -1.00000000
vn -0.00000100 0.00000300 -1.00000000
vn 0.00000000 0.00000000 -1.00000000
vn 0.00000000 0.00000000 -1.00000000
vn -0.00000000 0.00000100 -1.00000000
vn -0.00000000 0.00000200 -1.00000000
vn -0.00000100 0.00000300 -1.00000000
vn 0.00000000 -0.00000100 -1.00000000
vn -0.00000000 0.00000100 -1.00000000
vn -0.00000100 0.00000400 -1.00000000
vn 0.00000000 -0.00000100 -1.00000000
vn -0.00000000 0.00000200 -1.00000000
vn 0.00000000 -0.00000100 -1.00000000
vn -0.00000000 0.00000100 -1.00000000
vn 0.00000100 -0.00000400 -1.00000000
vn -0.00000000 0.00000200 -1.00000000
vn 0.00000000 -0.00000200 -1.00000000
vn 0.00000000 0.00000000 -1.00000000
vn -0.00000000 0.00000200 -1.00000000
vn 0.00000000 0.00000000 -1.00000000
vn 0.00000000 -0.00000100 -1.00000000
vn -0.00000100 0.00000300 -1.00000000
vn 0.00000000 -0.00000100 -1.00000000
vn 0.00000000 0.00000000 -1.00000000
vn 0.00000000 0.00000000 -1.00000000
vn 0.00000000 0.00000000 -1.00000000
vn -0.00000000 0.00000200 -1.00000000
vn 0.00000000 -0.00000100 -1.00000000
vn -0.00000000 0.00000100 -1.00000000
vn 0.00000000 0.00000000 -1.00000000
vn -0.00000000 0.00000100 -1.00000000
vn 0.00000000 0.00000000 -1.00000000
vn -0.00000100 0.00000400 -1.00000000
vn -0.00000000 0.00000100 -1.00000000
vn 0.00000000 -0.00000200 -1.00000000
vn -0.00000100 0.00000400 -1.00000000
vn 0.00000000 -0.00000100 -1.00000000
vn 0.00000000 -0.00000200 -1.00000000
vn 0.00000000 0.00000000 -1.00000000
vn 0.00000100 -0.00000400 -1.00000000
vn -0.00000000 0.00000100 -1.00000000
vn 0.00000000 0.00000000 -1.00000000
vn -0.00000000 0.00000100 -1.00000000
vn -0.00000000 0.00000100 -1.00000000
vn 0.00000000 0.00000000 -1.00000000
vn -0.00000000 0.00000200 -1.00000000
vn 0.00000000 0.00000000 -1.00000000
vn 0.00000100 -0.00000400 -1.00000000
vn -0.00000000 0.00000200 -1.00000000
vn 0.00000000 0.00000000 -1.00000000
vn 0.00000000 0.00000000 -1.00000000
vn 0.00000000 0.00000000 -1.00000000
vn -0.00000000 0.00000200 -1.00000000
vn 0.00000000 0.00000000 -1.00000000
vn 0.00000000 0.00000000 -1.00000000
vn 0.00000000 0.00000000 -1.00000000
vn 0.00000000 0.00000000 -1.00000000
vn 0.00000000 -0.00000100 -1.00000000
vn 0.00000000 -0.00000100 -1.00000000
vn -0.00000000 0.00000200 -1.00000000
vn 0.00000000 0.00000000 1.00000000
vn -0.00000100 0.00000500 1.00000000
vn 0.00000000 0.00000000 1.00000000
vn 0.00000000 0.00000000 1.00000000
vn 0.00000200 -0.00000800 1.00000000
vn 0.00000200 -0.00000800 1.00000000
vn -0.00000000 0.00000100 1.00000000
vn -0.00000100 0.00000400 1.00000000
vn 0.00000000 -0.00000200 1.00000000
vn -0.00000000 0.00000200 1.00000000
vn -0.00000100 0.00000500 1.00000000
vn 0.00000000 -0.00000100 1.00000000
vn -0.00000000 0.00000200 1.00000000
vn -0.00000000 0.00000100 1.00000000
vn -0.00000000 0.00000100 1.00000000
vn 0.00000000 -0.00000200 1.00000000
vn -0.00000000 0.00000100 1.00000000
vn -0.00000000 0.00000200 1.00000000
vn 0.00000200 -0.00000800 1.00000000
vn 0.00000200 -0.00000800 1.00000000
vn 0.00000000 -0.00000100 1.00000000
vn -0.00000100 0.00000500 1.00000000
vn 0.00000000 -0.00000100 1.00000000
vn 0.00000000 0.00000000 1.00000000
vn 0.00000000 0.00000000 1.00000000
vn 0.00000000 0.00000000 1.00000000
vn -0.00000000 0.00000200 1.00000000
vn 0.00000000 0.00000000 1.00000000
vn 0.00000000 0.00000000 1.00000000
vn 0.00000000 -0.00000200 1.00000000
vn 0.00000000 -0.00000200 1.00000000
vn 0.00000000 0.00000000 1.00000000
vn 0.00000200 -0.00000800 1.00000000
vn -0.00000000 0.00000100 1.00000000
vn 0.00000000 0.00000000 1.00000000
vn 0.00000200 -0.00000800 1.00000000
vn 0.00000000 0.00000000 1.00000000
vn -0.00000000 0.00000100 1.00000000
vn 0.00000000 0.00000000 1.00000000
vn 0.00000000 0.00000000 1.00000000
vn -0.00000100 0.00000400 1.00000000
vn -0.00000100 0.00000400 1.00000000
vn -0.00000000 0.00000100 1.00000000
vn 0.00000000 0.00000000 1.00000000
vn -0.00000000 0.00000100 1.00000000
vn 0.00000000 0.00000000 1.00000000
vn -0.00000000 0.00000100 1.00000000
vn -0.00000000 0.00000100 1.00000000
vn 0.00000000 0.00000000 1.00000000
vn -0.00000000 0.00000200 1.00000000
vn 0.00000000 0.00000000 1.00000000
vn 0.00000000 0.00000000 1.00000000
vn 0.00000000 -0.00000200 1.00000000
vn 0.00000000 0.00000000 1.00000000
vn 0.00000000 0.00000000 1.00000000
vn 0.00000000 0.00000000 1.00000000
vn -0.00000000 0.00000200 1.00000000
vn 0.00000000 0.00000000 1.00000000
vn -0.00000000 0.00000100 1.00000000
vn -0.00000000 0.00000100 1.00000000
vn 0.00000000 -0.00000200 1.00000000
vn -0.70522200 -0.05485500 -0.70686100
vn -0.68922200 -0.15911500 -0.70686300
vn -0.67533600 -0.21038800 -0.70686500
vn -0.63653100 -0.30850500 -0.70686200
vn -0.61159600 -0.35538700 -0.70686000
vn -0.55192000 -0.44241300 -0.70686200
vn -0.51719000 -0.48255600 -0.70686200
vn -0.43961500 -0.55415400 -0.70686100
vn -0.39683800 -0.58555700 -0.70685400
vn -0.30532500 -0.63807100 -0.70685300
vn -0.25663500 -0.65916600 -0.70685100
vn -0.15567200 -0.69001800 -0.70685300
vn -0.10348000 -0.69975000 -0.70685400
vn 0.00182000 -0.70736200 -0.70685000
vn 0.05481600 -0.70523200 -0.70685400
vn 0.15914400 -0.68921900 -0.70685900
vn 0.21036900 -0.67534500 -0.70686200
vn 0.30850700 -0.63653300 -0.70685800
vn 0.35536400 -0.61161400 -0.70685500
vn 0.44241900 -0.55192000 -0.70685900
vn 0.48256000 -0.51719100 -0.70685900
vn 0.55413600 -0.43964500 -0.70685600
vn 0.58556300 -0.39683100 -0.70685300
vn 0.63808000 -0.30530500 -0.70685400
vn 0.65918400 -0.25658600 -0.70685200
vn 0.69002000 -0.15567700 -0.70685000
vn 0.69975600 -0.10345700 -0.70685100
vn 0.70735700 0.00178700 -0.70685400
vn 0.70522600 0.05485800 -0.70685700
vn 0.68921600 0.15916300 -0.70685800
vn 0.67536000 0.21034300 -0.70685600
vn 0.63653900 0.30851000 -0.70685200
vn 0.61161000 0.35537700 -0.70685300
vn 0.55191600 0.44243800 -0.70685100
vn 0.51718200 0.48258200 -0.70685100
vn 0.43962700 0.55416000 -0.70684900
vn 0.39684100 0.58556200 -0.70684800
vn 0.30529300 0.63809000 -0.70685000
vn 0.25658400 0.65918400 -0.70685300
vn 0.15565400 0.69002300 -0.70685200
vn 0.10350700 0.69975000 -0.70684900
vn -0.00179000 0.70736100 -0.70685000
vn -0.05482100 0.70523400 -0.70685200
vn -0.15914600 0.68922000 -0.70685800
vn -0.21037500 0.67534300 -0.70686200
vn -0.30851100 0.63653000 -0.70685900
vn -0.35541300 0.61159200 -0.70685000
vn -0.44242500 0.55193200 -0.70684600
vn -0.48260200 0.51717200 -0.70684500
vn -0.55416800 0.43961500 -0.70685000
vn -0.58557000 0.39681700 -0.70685500
vn -0.63808500 0.30529800 -0.70685300
vn -0.65919000 0.25656500 -0.70685400
vn -0.69002500 0.15563300 -0.70685500
vn -0.69974700 0.10347300 -0.70685700
vn -0.70735400 -0.00178600 -0.70685700
vn 0.70735500 0.00177200 0.70685600
vn 0.69975400 -0.10345800 0.70685300
vn 0.69002300 -0.15565700 0.70685200
vn 0.65918700 -0.25657900 0.70685200
vn 0.63807200 -0.30532200 0.70685400
vn 0.58555500 -0.39683800 0.70685500
vn 0.55413300 -0.43964700 0.70685700
vn 0.48256900 -0.51718200 0.70685900
vn 0.44242400 -0.55191600 0.70685900
vn 0.35536100 -0.61161600 0.70685600
vn 0.30852400 -0.63652400 0.70685900
vn 0.21037600 -0.67534200 0.70686300
vn 0.15916600 -0.68921200 0.70686200
vn 0.05483500 -0.70522800 0.70685700
vn 0.00181300 -0.70736000 0.70685100
vn -0.10349900 -0.69974600 0.70685500
vn -0.15567700 -0.69001600 0.70685500
vn -0.25661000 -0.65917500 0.70685200
vn -0.30532500 -0.63807200 0.70685300
vn -0.39684200 -0.58555300 0.70685500
vn -0.43964600 -0.55413300 0.70685800
vn -0.51719700 -0.48255100 0.70686100
vn -0.55192900 -0.44240200 0.70686300
vn -0.61159000 -0.35539400 0.70686100
vn -0.63652500 -0.30851500 0.70686200
vn -0.67533600 -0.21039600 0.70686300
vn -0.68921500 -0.15914300 0.70686400
vn -0.70522300 -0.05482600 0.70686300
vn -0.70735300 -0.00177100 0.70685800
vn -0.69975100 0.10345500 0.70685600
vn -0.69001600 0.15567100 0.70685500
vn -0.65917900 0.25659300 0.70685400
vn -0.63807400 0.30532000 0.70685300
vn -0.58555900 0.39683100 0.70685600
vn -0.55415300 0.43962900 0.70685300
vn -0.48257600 0.51719200 0.70684700
vn -0.44243000 0.55192700 0.70684700
vn -0.35536800 0.61161800 0.70685000
vn -0.30852400 0.63652300 0.70686000
vn -0.21037500 0.67534300 0.70686200
vn -0.15912200 0.68922300 0.70686000
vn -0.05482700 0.70523000 0.70685500
vn -0.00178400 0.70736000 0.70685100
vn 0.10347500 0.69975500 0.70684900
vn 0.15568500 0.69001600 0.70685200
vn 0.25658000 0.65918500 0.70685400
vn 0.30529800 0.63808600 0.70685200
vn 0.39685200 0.58555300 0.70685000
vn 0.43965300 0.55413900 0.70684900
vn 0.51717900 0.48258400 0.70685100
vn 0.55193700 0.44240900 0.70685200
vn 0.61161000 0.35537700 0.70685300
vn 0.63653600 0.30851600 0.70685200
vn 0.67534400 0.21040100 0.70685400
vn 0.68922200 0.15914400 0.70685700
vn 0.70522800 0.05482500 0.70685800
f 1//1 2//2 3//3
f 3//3 2//2 4//4
f 3//3 4//4 5//5
f 5//5 4//4 6//6
f 5//5 6//6 7//7
f 7//7 6//6 8//8
f 7//7 8//8 9//9
f 9//9 8//8 10//10
f 9//9 10//10 11//11
f 11//11 10//10 12//12
f 11//11 12//12 13//13
f 13//13 12//12 14//14
f 13//13 14//14 15//15
f 15//15 14//14 16//16
f 15//15 16//16 17//17
f 17//17 16//16 18//18
f 17//17 18//18 19//19
f 19//19 18//18 20//20
f 19//19 20//20 21//21
f 21//21 20//20 22//22
f 21//21 22//22 23//23
f 23//23 22//22 24//24
f 23//23 24//24 25//25
f 25//25 24//24 26//26
f 25//25 26//26 27//27
f 27//27 26//26 28//28
f 27//27 28//28 29//29
f 29//29 28//28 30//30
f 29//29 30//30 31//31
f 31//31 30//30 32//32
f 31//31 32//32 33//33
f 33//33 32//32 34//34
f 33//33 34//34 35//35
f 35//35 34//34 36//36
f 35//35 36//36 37//37
f 37//37 36//36 38//38
f 37//37 38//38 39//39
f 39//39 38//38 40//40
f 39//39 40//40 41//41
f 41//41 40//40 42//42
f 41//41 42//42 43//43
f 43//43 42//42 44//44
f 43//43 44//44 45//45
f 45//45 44//44 46//46
f 45//45 46//46 47//47
f 47//47 46//46 48//48
f 47//47 48//48 49//49
f 49//49 48//48 50//50
f 49//49 50//50 51//51
f 51//51 50//50 52//52
f 51//51 52//52 53//53
f 53//53 52//52 54//54
f 53//53 54//54 55//55
f 55//55 54//54 56//56
f 55//55 56//56 1//1
f 1//1 56//56 2//2
f 57//57 59//59 60//60
f 74//74 76//76 60//60
f 64//64 77//77 79//79
f 63//63 78//78 58//58
f 80//80 81//81 60//60
f 60//60 81//81 82//82
f 62//62 83//83 75//75
f 85//85 87//87 61//61
f 60//60 86//86 88//88
f 60//60 88//88 80//80
f 89//89 92//92 66//66
f 73//73 91//91 94//94
f 67//67 93//93 84//84
f 95//95 98//98 60//60
f 65//65 97//97 99//99
f 70//70 100//100 90//90
f 101//101 103//103 60//60
f 72//72 102//102 105//105
f 71//71 104//104 96//96
f 106//106 107//107 60//60
f 60//60 107//107 108//108
f 60//60 108//108 101//101
f 110//110 111//111 60//60
f 60//60 111//111 112//112
f 60//60 112//112 106//106
f 59//59 113//113 60//60
f 69//69 114//114 115//115
f 68//68 116//116 109//109
f 117//117 119//119 120//120
f 135//135 136//136 121//121
f 128//128 137//137 139//139
f 127//127 138//138 118//118
f 140//140 141//141 120//120
f 120//120 141//141 142//142
f 126//126 143//143 134//134
f 144//144 145//145 120//120
f 125//125 146//146 147//147
f 120//120 148//148 140//140
f 149//149 152//152 122//122
f 120//120 151//151 153//153
f 120//120 153//153 144//144
f 155//155 156//156 120//120
f 124//124 157//157 158//158
f 123//123 159//159 150//150
f 160//160 162//162 120//120
f 133//133 161//161 164//164
f 131//131 163//163 154//154
f 165//165 167//167 120//120
f 120//120 167//167 168//168
f 120//120 168//168 160//160
f 170//170 171//171 120//120
f 120//120 171//171 172//172
f 129//129 173//173 166//166
f 119//119 174//174 120//120
f 130//130 175//175 176//176
f 132//132 177//177 169//169
f 178//178 179//179 180//180
f 180//180 179//179 181//181
f 180//180 181//181 182//182
f 182//182 181//181 183//183
f 182//182 183//183 184//184
f 184//184 183//183 185//185
f 184//184 185//185 186//186
f 186//186 185//185 187//187
f 186//186 187//187 188//188
f 188//188 187//187 189//189
f 188//188 189//189 190//190
f 190//190 189//189 191//191
f 190//190 191//191 192//192
f 192//192 191//191 193//193
f 192//192 193//193 194//194
f 194//194 193//193 195//195
f 194//194 195//195 196//196
f 196//196 195//195 197//197
f 196//196 197//197 198//198
f 198//198 197//197 199//199
f 198//198 199//199 200//200
f 200//200 199//199 201//201
f 200//200 201//201 202//202
f 202//202 201//201 203//203
f 202//202 203//203 204//204
f 204//204 203//203 205//205
f 204//204 205//205 206//206
f 206//206 205//205 207//207
f 206//206 207//207 208//208
f 208//208 207//207 209//209
f 208//208 209//209 210//210
f 210//210 209//209 211//211
f 210//210 211//211 212//212
f 212//212 211//211 213//213
f 212//212 213//213 214//214
f 214//214 213//213 215//215
f 214//214 215//215 216//216
f 216//216 215//215 217//217
f 216//216 217//217 218//218
f 218//218 217//217 219//219
f 218//218 219//219 220//220
f 220//220 219//219 221//221
f 220//220 221//221 222//222
f 222//222 221//221 223//223
f 222//222 223//223 224//224
f 224//224 223//223 225//225
f 224//224 225//225 226//226
f 226//226 225//225 227//227
f 226//226 227//227 228//228
f 228//228 227//227 229//229
f 228//228 229//229 230//230
f 230//230 229//229 231//231
f 230//230 231//231 232//232
f 232//232 231//231 233//233
f 232//232 233//233 178//178
f 178//178 233//233 179//179
f 234//234 235//235 236//236
f 236//236 235//235 237//237
f 236//236 237//237 238//238
f 238//238 237//237 239//239
f 238//238 239//239 240//240
f 240//240 239//239 241//241
f 240//240 241//241 242//242
f 242//242 241//241 243//243
f 242//242 243//243 244//244
f 244//244 243//243 245//245
f 244//244 245//245 246//246
f 246//246 245//245 247//247
f 246//246 247//247 248//248
f 248//248 247//247 249//249
f 248//248 249//249 250//250
f 250//250 249//249 251//251
f 250//250 251//251 252//252
f 252//252 251//251 253//253
f 252//252 253//253 254//254
f 254//254 253//253 255//255
f 254//254 255//255 256//256
f 256//256 255//255 257//257
f 256//256 257//257 258//258
f 258//258 257//257 259//259
f 258//258 259//259 260//260
f 260//260 259//259 261//261
f 260//260 261//261 262//262
f 262//262 261//261 263//263
f 262//262 263//263 264//264
f 264//264 263//263 265//265
f 264//264 265//265 266//266
f 266//266 265//265 267//267
f 266//266 267//267 268//268
f 268//268 267//267 269//269
f 268//268 269//269 270//270
f 270//270 269//269 271//271
f 270//270 271//271 272//272
f 272//272 271//271 273//273
f 272//272 273//273 274//274
f 274//274 273//273 275//275
f 274//274 275//275 276//276
f 276//276 275//275 277//277
f 276//276 277//277 278//278
f 278//278 277//277 279//279
f 278//278 279//279 280//280
f 280//280 279//279 281//281
f 280//280 281//281 282//282
f 282//282 281//281 283//283
f 282//282 283//283 284//284
f 284//284 283//283 285//285
f 284//284 285//285 286//286
f 286//286 285//285 287//287
f 286//286 287//287 288//288
f 288//288 287//287 289//289
f 288//288 289//289 234//234
f 234//234 289//289 235//235

