# https://github.com/mikedh/trimesh
v 0.27707800 0.01304300 -0.04730000
v 0.27707800 0.01304300 -0.04720000
v 0.27705600 0.01312700 -0.04720000
v 0.27705600 0.01312700 -0.04730000
v 0.27706400 0.01321100 -0.04720000
v 0.27706400 0.01321100 -0.04730000
v 0.27710200 0.01329100 -0.04720000
v 0.27710200 0.01329100 -0.04730000
v 0.27716600 0.01335400 -0.04720000
v 0.27716600 0.01335400 -0.04730000
v 0.27720200 0.01337400 -0.04720000
v 0.27720200 0.01337400 -0.04730000
v 0.27728700 0.01339500 -0.04720000
v 0.27728700 0.01339500 -0.04730000
v 0.27737100 0.01338700 -0.04720000
v 0.27737100 0.01338700 -0.04730000
v 0.27740800 0.01337400 -0.04720000
v 0.27740800 0.01337400 -0.04730000
v 0.27741500 0.01337100 -0.04730000
v 0.27741500 0.01337100 -0.04720000
v 0.27806600 0.01307600 -0.04730000
v 0.27806600 0.01307600 -0.04720000
v 0.27829200 0.01297500 -0.04730000
v 0.27829200 0.01297500 -0.04720000
v 0.27831400 0.01296500 -0.04730000
v 0.27831400 0.01296500 -0.04720000
v 0.27833500 0.01295600 -0.04730000
v 0.27833500 0.01295600 -0.04730000
v 0.27833500 0.01295600 -0.04720000
v 0.27853200 0.01287400 -0.04730000
v 0.27853200 0.01287400 -0.04720000
v 0.27853200 0.01287400 -0.04720000
v 0.27853900 0.01289700 -0.04730000
v 0.27853200 0.01287400 -0.04730000
v 0.27853900 0.01289700 -0.04720000
v 0.27853200 0.01287400 -0.04720000
v 0.27867600 0.01335000 -0.04730000
v 0.27867600 0.01335000 -0.04730000
v 0.27867600 0.01335000 -0.04730000
v 0.27867600 0.01335000 -0.04720000
v 0.27867600 0.01335000 -0.04720000
v 0.27888200 0.01403300 -0.04730000
v 0.27888200 0.01403300 -0.04720000
v 0.27888200 0.01403300 -0.04720000
v 0.27888500 0.01404200 -0.04730000
v 0.27888500 0.01404200 -0.04720000
v 0.27892500 0.01412000 -0.04720000
v 0.27892500 0.01412000 -0.04730000
v 0.27899100 0.01418000 -0.04720000
v 0.27899100 0.01418000 -0.04730000
v 0.27902100 0.01419500 -0.04720000
v 0.27902100 0.01419500 -0.04730000
v 0.27910400 0.01421700 -0.04720000
v 0.27910400 0.01421700 -0.04730000
v 0.27918800 0.01420900 -0.04720000
v 0.27918800 0.01420900 -0.04730000
v 0.27926800 0.01417200 -0.04720000
v 0.27926800 0.01417200 -0.04730000
v 0.27933000 0.01410800 -0.04720000
v 0.27933000 0.01410800 -0.04730000
v 0.27935100 0.01407100 -0.04720000
v 0.27935100 0.01407100 -0.04730000
v 0.27937200 0.01398700 -0.04720000
v 0.27937200 0.01398700 -0.04730000
v 0.27936400 0.01390400 -0.04720000
v 0.27936400 0.01390400 -0.04730000
v 0.27934400 0.01385200 -0.04720000
v 0.27934400 0.01385200 -0.04730000
v 0.27900700 0.01275700 -0.04730000
v 0.27900700 0.01275700 -0.04720000
v 0.27900100 0.01273300 -0.04720000
v 0.27900100 0.01273300 -0.04730000
v 0.27899200 0.01270900 -0.04720000
v 0.27899200 0.01270900 -0.04730000
v 0.27898800 0.01269200 -0.04720000
v 0.27898800 0.01269200 -0.04730000
v 0.27898300 0.01267400 -0.04720000
v 0.27898300 0.01267400 -0.04730000
v 0.27898300 0.01267400 -0.04730000
v 0.27898300 0.01267400 -0.04720000
v 0.27900000 0.01266900 -0.04720000
v 0.27900000 0.01266900 -0.04730000
v 0.27901700 0.01266300 -0.04720000
v 0.27901700 0.01266300 -0.04730000
v 0.27901900 0.01266200 -0.04730000
v 0.27901900 0.01266200 -0.04720000
v 0.27906500 0.01264100 -0.04730000
v 0.27906500 0.01264100 -0.04730000
v 0.27906500 0.01264100 -0.04720000
v 0.27919300 0.01258400 -0.04730000
v 0.27919300 0.01258400 -0.04730000
v 0.27919300 0.01258400 -0.04730000
v 0.27919300 0.01258400 -0.04720000
v 0.27919300 0.01258400 -0.04720000
v 0.27919300 0.01258400 -0.04720000
v 0.27926900 0.01255100 -0.04730000
v 0.27926900 0.01255100 -0.04730000
v 0.27926900 0.01255100 -0.04720000
v 0.27926900 0.01255100 -0.04720000
v 0.27926900 0.01255100 -0.04720000
v 0.28015200 0.01215600 -0.04730000
v 0.28015200 0.01215600 -0.04720000
v 0.28016400 0.01215100 -0.04730000
v 0.28016400 0.01215100 -0.04720000
v 0.28023300 0.01210200 -0.04720000
v 0.28023300 0.01210200 -0.04730000
v 0.28028300 0.01202900 -0.04720000
v 0.28028300 0.01202900 -0.04730000
v 0.28030400 0.01194500 -0.04720000
v 0.28030400 0.01194500 -0.04730000
v 0.28029700 0.01186200 -0.04720000
v 0.28029700 0.01186200 -0.04730000
v 0.28025900 0.01178200 -0.04720000
v 0.28025900 0.01178200 -0.04730000
v 0.28019500 0.01171900 -0.04720000
v 0.28019500 0.01171900 -0.04730000
v 0.28015800 0.01169900 -0.04720000
v 0.28015800 0.01169900 -0.04730000
v 0.28007400 0.01167700 -0.04720000
v 0.28007400 0.01167700 -0.04730000
v 0.27999000 0.01168500 -0.04720000
v 0.27999000 0.01168500 -0.04730000
v 0.27995300 0.01169900 -0.04720000
v 0.27995300 0.01169900 -0.04730000
v 0.27994400 0.01170300 -0.04730000
v 0.27994400 0.01170300 -0.04730000
v 0.27994400 0.01170300 -0.04720000
v 0.27929500 0.01199700 -0.04730000
v 0.27929500 0.01199700 -0.04730000
v 0.27929500 0.01199700 -0.04720000
v 0.27929500 0.01199700 -0.04720000
v 0.27929500 0.01199700 -0.04720000
v 0.27906900 0.01209900 -0.04730000
v 0.27906900 0.01209900 -0.04720000
v 0.27904600 0.01210800 -0.04730000
v 0.27904600 0.01210800 -0.04720000
v 0.27902600 0.01211600 -0.04730000
v 0.27902600 0.01211600 -0.04730000
v 0.27902600 0.01211600 -0.04720000
v 0.27882900 0.01219900 -0.04730000
v 0.27882900 0.01219900 -0.04720000
v 0.27882900 0.01219900 -0.04720000
v 0.27882100 0.01217500 -0.04730000
v 0.27882900 0.01219900 -0.04730000
v 0.27882100 0.01217500 -0.04720000
v 0.27882900 0.01219900 -0.04720000
v 0.27868500 0.01172200 -0.04730000
v 0.27868500 0.01172200 -0.04720000
v 0.27847800 0.01103900 -0.04730000
v 0.27847800 0.01103900 -0.04720000
v 0.27847600 0.01103100 -0.04730000
v 0.27847600 0.01103100 -0.04720000
v 0.27843500 0.01095300 -0.04720000
v 0.27843500 0.01095300 -0.04730000
v 0.27836900 0.01089200 -0.04720000
v 0.27836900 0.01089200 -0.04730000
v 0.27834000 0.01087700 -0.04720000
v 0.27834000 0.01087700 -0.04730000
v 0.27825600 0.01085600 -0.04720000
v 0.27825600 0.01085600 -0.04730000
v 0.27817300 0.01086300 -0.04720000
v 0.27817300 0.01086300 -0.04730000
v 0.27809300 0.01090100 -0.04720000
v 0.27809300 0.01090100 -0.04730000
v 0.27803000 0.01096500 -0.04720000
v 0.27803000 0.01096500 -0.04730000
v 0.27801000 0.01100200 -0.04720000
v 0.27801000 0.01100200 -0.04730000
v 0.27798800 0.01108500 -0.04720000
v 0.27798800 0.01108500 -0.04730000
v 0.27799600 0.01116900 -0.04720000
v 0.27799600 0.01116900 -0.04730000
v 0.27801700 0.01122100 -0.04720000
v 0.27801700 0.01122100 -0.04730000
v 0.27835400 0.01231600 -0.04730000
v 0.27835400 0.01231600 -0.04720000
v 0.27836000 0.01234000 -0.04720000
v 0.27836000 0.01234000 -0.04730000
v 0.27836800 0.01236400 -0.04720000
v 0.27836800 0.01236400 -0.04730000
v 0.27837300 0.01238100 -0.04720000
v 0.27837300 0.01238100 -0.04730000
v 0.27837800 0.01239800 -0.04720000
v 0.27837800 0.01239800 -0.04730000
v 0.27837800 0.01239800 -0.04730000
v 0.27837800 0.01239800 -0.04720000
v 0.27836100 0.01240400 -0.04720000
v 0.27836100 0.01240400 -0.04730000
v 0.27834200 0.01241100 -0.04720000
v 0.27834200 0.01241100 -0.04730000
v 0.27829600 0.01243100 -0.04730000
v 0.27829600 0.01243100 -0.04730000
v 0.27829600 0.01243100 -0.04720000
v 0.27816700 0.01248800 -0.04730000
v 0.27816700 0.01248800 -0.04730000
v 0.27816700 0.01248800 -0.04730000
v 0.27816700 0.01248800 -0.04720000
v 0.27816700 0.01248800 -0.04720000
v 0.27816700 0.01248800 -0.04720000
v 0.27809100 0.01252200 -0.04730000
v 0.27809100 0.01252200 -0.04730000
v 0.27809100 0.01252200 -0.04720000
v 0.27809100 0.01252200 -0.04720000
v 0.27809100 0.01252200 -0.04720000
v 0.27720800 0.01291700 -0.04730000
v 0.27720800 0.01291700 -0.04720000
v 0.27719700 0.01292200 -0.04730000
v 0.27719700 0.01292200 -0.04720000
v 0.27712800 0.01297100 -0.04720000
v 0.27712800 0.01297100 -0.04730000
v 0.27999000 0.01168500 -0.04730000
v 0.27999000 0.01168500 -0.04730000
v 0.27999000 0.01168500 -0.04730000
v 0.27995300 0.01169900 -0.04730000
v 0.27995300 0.01169900 -0.04730000
v 0.28016400 0.01215100 -0.04730000
v 0.28016400 0.01215100 -0.04730000
v 0.28016400 0.01215100 -0.04730000
v 0.27994400 0.01170300 -0.04730000
v 0.27994400 0.01170300 -0.04730000
v 0.27994400 0.01170300 -0.04730000
v 0.27837300 0.01238100 -0.04730000
v 0.27837300 0.01238100 -0.04730000
v 0.27837800 0.01239800 -0.04730000
v 0.27837800 0.01239800 -0.04730000
v 0.27882900 0.01219900 -0.04730000
v 0.27882900 0.01219900 -0.04730000
v 0.27882900 0.01219900 -0.04730000
v 0.27882900 0.01219900 -0.04730000
v 0.27882900 0.01219900 -0.04730000
v 0.27882900 0.01219900 -0.04730000
v 0.27720800 0.01291700 -0.04730000
v 0.27720800 0.01291700 -0.04730000
v 0.27720800 0.01291700 -0.04730000
v 0.27720800 0.01291700 -0.04730000
v 0.27720800 0.01291700 -0.04730000
v 0.27719700 0.01292200 -0.04730000
v 0.27712800 0.01297100 -0.04730000
v 0.27712800 0.01297100 -0.04730000
v 0.27853900 0.01289700 -0.04730000
v 0.27899200 0.01270900 -0.04730000
v 0.27898800 0.01269200 -0.04730000
v 0.27898800 0.01269200 -0.04730000
v 0.27853200 0.01287400 -0.04730000
v 0.27853200 0.01287400 -0.04730000
v 0.27853200 0.01287400 -0.04730000
v 0.27853200 0.01287400 -0.04730000
v 0.27898300 0.01267400 -0.04730000
v 0.27898300 0.01267400 -0.04730000
v 0.27898300 0.01267400 -0.04730000
v 0.27900000 0.01266900 -0.04730000
v 0.27900000 0.01266900 -0.04730000
v 0.27901700 0.01266300 -0.04730000
v 0.27901700 0.01266300 -0.04730000
v 0.27836100 0.01240400 -0.04730000
v 0.27836100 0.01240400 -0.04730000
v 0.27853200 0.01287400 -0.04730000
v 0.27853200 0.01287400 -0.04730000
v 0.27853200 0.01287400 -0.04730000
v 0.27834200 0.01241100 -0.04730000
v 0.27834200 0.01241100 -0.04730000
v 0.27801700 0.01122100 -0.04730000
v 0.27801700 0.01122100 -0.04730000
v 0.27801700 0.01122100 -0.04730000
v 0.27847800 0.01103900 -0.04730000
v 0.27847800 0.01103900 -0.04730000
v 0.27847600 0.01103100 -0.04730000
v 0.27847600 0.01103100 -0.04730000
v 0.27843500 0.01095300 -0.04730000
v 0.27868500 0.01172200 -0.04730000
v 0.27868500 0.01172200 -0.04730000
v 0.27835400 0.01231600 -0.04730000
v 0.27835400 0.01231600 -0.04730000
v 0.27835400 0.01231600 -0.04730000
v 0.27882100 0.01217500 -0.04730000
v 0.27882100 0.01217500 -0.04730000
v 0.27882100 0.01217500 -0.04730000
v 0.27836000 0.01234000 -0.04730000
v 0.27836000 0.01234000 -0.04730000
v 0.27836000 0.01234000 -0.04730000
v 0.27882900 0.01219900 -0.04730000
v 0.27882900 0.01219900 -0.04730000
v 0.27882900 0.01219900 -0.04730000
v 0.27836800 0.01236400 -0.04730000
v 0.27836800 0.01236400 -0.04730000
v 0.27900100 0.01273300 -0.04730000
v 0.27900100 0.01273300 -0.04730000
v 0.27853900 0.01289700 -0.04730000
v 0.27853900 0.01289700 -0.04730000
v 0.27853900 0.01289700 -0.04730000
v 0.27900700 0.01275700 -0.04730000
v 0.27900700 0.01275700 -0.04730000
v 0.27900700 0.01275700 -0.04730000
v 0.27867600 0.01335000 -0.04730000
v 0.27867600 0.01335000 -0.04730000
v 0.27934400 0.01385200 -0.04730000
v 0.27934400 0.01385200 -0.04730000
v 0.27934400 0.01385200 -0.04730000
v 0.27867600 0.01335000 -0.04730000
v 0.27888200 0.01403300 -0.04730000
v 0.27888200 0.01403300 -0.04730000
v 0.27936400 0.01390400 -0.04730000
v 0.27936400 0.01390400 -0.04730000
v 0.27936400 0.01390400 -0.04730000
v 0.27936400 0.01390400 -0.04730000
v 0.27936400 0.01390400 -0.04730000
v 0.27888200 0.01403300 -0.04730000
v 0.27888500 0.01404200 -0.04730000
v 0.27888500 0.01404200 -0.04730000
v 0.27892500 0.01412000 -0.04730000
v 0.27892500 0.01412000 -0.04730000
v 0.27899100 0.01418000 -0.04730000
v 0.27899100 0.01418000 -0.04730000
v 0.27902100 0.01419500 -0.04730000
v 0.27902100 0.01419500 -0.04730000
v 0.27902100 0.01419500 -0.04730000
v 0.28015200 0.01215600 -0.04730000
v 0.28015200 0.01215600 -0.04730000
v 0.27929500 0.01199700 -0.04730000
v 0.27929500 0.01199700 -0.04730000
v 0.27926900 0.01255100 -0.04730000
v 0.27806600 0.01307600 -0.04730000
v 0.27809100 0.01252200 -0.04730000
v 0.27809100 0.01252200 -0.04730000
v 0.27809100 0.01252200 -0.04730000
v 0.27741500 0.01337100 -0.04730000
v 0.27741500 0.01337100 -0.04730000
v 0.27740800 0.01337400 -0.04730000
v 0.27737100 0.01338700 -0.04730000
v 0.27829600 0.01243100 -0.04730000
v 0.27829600 0.01243100 -0.04730000
v 0.27829600 0.01243100 -0.04730000
v 0.27833500 0.01295600 -0.04730000
v 0.27833500 0.01295600 -0.04730000
v 0.27816700 0.01248800 -0.04730000
v 0.27816700 0.01248800 -0.04730000
v 0.27816700 0.01248800 -0.04730000
v 0.27831400 0.01296500 -0.04730000
v 0.27831400 0.01296500 -0.04730000
v 0.27829200 0.01297500 -0.04730000
v 0.27901900 0.01266200 -0.04730000
v 0.27901900 0.01266200 -0.04730000
v 0.27906500 0.01264100 -0.04730000
v 0.27906500 0.01264100 -0.04730000
v 0.27902600 0.01211600 -0.04730000
v 0.27902600 0.01211600 -0.04730000
v 0.27902600 0.01211600 -0.04730000
v 0.27906500 0.01264100 -0.04730000
v 0.27919300 0.01258400 -0.04730000
v 0.27919300 0.01258400 -0.04730000
v 0.27904600 0.01210800 -0.04730000
v 0.27904600 0.01210800 -0.04730000
v 0.27904600 0.01210800 -0.04730000
v 0.27919300 0.01258400 -0.04730000
v 0.27926900 0.01255100 -0.04730000
v 0.27926900 0.01255100 -0.04730000
v 0.27906900 0.01209900 -0.04730000
v 0.27836900 0.01089200 -0.04730000
v 0.27836900 0.01089200 -0.04730000
v 0.27834000 0.01087700 -0.04730000
v 0.27834000 0.01087700 -0.04730000
v 0.27799600 0.01116900 -0.04730000
v 0.27834000 0.01087700 -0.04730000
v 0.27834000 0.01087700 -0.04730000
v 0.27798800 0.01108500 -0.04730000
v 0.27918800 0.01420900 -0.04730000
v 0.27926800 0.01417200 -0.04730000
v 0.27910400 0.01421700 -0.04730000
v 0.27933000 0.01410800 -0.04730000
v 0.27933000 0.01410800 -0.04730000
v 0.27902100 0.01419500 -0.04730000
v 0.27935100 0.01407100 -0.04730000
v 0.27935100 0.01407100 -0.04730000
v 0.27937200 0.01398700 -0.04730000
v 0.28029700 0.01186200 -0.04730000
v 0.28025900 0.01178200 -0.04730000
v 0.28025900 0.01178200 -0.04730000
v 0.28030400 0.01194500 -0.04730000
v 0.28030400 0.01194500 -0.04730000
v 0.28030400 0.01194500 -0.04730000
v 0.28019500 0.01171900 -0.04730000
v 0.28019500 0.01171900 -0.04730000
v 0.28019500 0.01171900 -0.04730000
v 0.28019500 0.01171900 -0.04730000
v 0.27817300 0.01086300 -0.04730000
v 0.27809300 0.01090100 -0.04730000
v 0.27825600 0.01085600 -0.04730000
v 0.27803000 0.01096500 -0.04730000
v 0.27803000 0.01096500 -0.04730000
v 0.27801000 0.01100200 -0.04730000
v 0.27801000 0.01100200 -0.04730000
v 0.28028300 0.01202900 -0.04730000
v 0.28023300 0.01210200 -0.04730000
v 0.28023300 0.01210200 -0.04730000
v 0.28023300 0.01210200 -0.04730000
v 0.28016400 0.01215100 -0.04730000
v 0.28016400 0.01215100 -0.04730000
v 0.28016400 0.01215100 -0.04730000
v 0.28015800 0.01169900 -0.04730000
v 0.28015800 0.01169900 -0.04730000
v 0.28015800 0.01169900 -0.04730000
v 0.28007400 0.01167700 -0.04730000
v 0.27707800 0.01304300 -0.04730000
v 0.27707800 0.01304300 -0.04730000
v 0.27705600 0.01312700 -0.04730000
v 0.27705600 0.01312700 -0.04730000
v 0.27706400 0.01321100 -0.04730000
v 0.27706400 0.01321100 -0.04730000
v 0.27728700 0.01339500 -0.04730000
v 0.27720200 0.01337400 -0.04730000
v 0.27716600 0.01335400 -0.04730000
v 0.27706400 0.01321100 -0.04730000
v 0.27710200 0.01329100 -0.04730000
v 0.27994400 0.01170300 -0.04720000
v 0.27994400 0.01170300 -0.04720000
v 0.27994400 0.01170300 -0.04720000
v 0.27995300 0.01169900 -0.04720000
v 0.27999000 0.01168500 -0.04720000
v 0.27853900 0.01289700 -0.04720000
v 0.27853900 0.01289700 -0.04720000
v 0.27853200 0.01287400 -0.04720000
v 0.27853200 0.01287400 -0.04720000
v 0.27853200 0.01287400 -0.04720000
v 0.27853200 0.01287400 -0.04720000
v 0.27882900 0.01219900 -0.04720000
v 0.27882900 0.01219900 -0.04720000
v 0.27882900 0.01219900 -0.04720000
v 0.27882900 0.01219900 -0.04720000
v 0.27882900 0.01219900 -0.04720000
v 0.27882900 0.01219900 -0.04720000
v 0.27882900 0.01219900 -0.04720000
v 0.27882900 0.01219900 -0.04720000
v 0.27836800 0.01236400 -0.04720000
v 0.27836800 0.01236400 -0.04720000
v 0.27836000 0.01234000 -0.04720000
v 0.27836000 0.01234000 -0.04720000
v 0.27836000 0.01234000 -0.04720000
v 0.27829600 0.01243100 -0.04720000
v 0.27829600 0.01243100 -0.04720000
v 0.27834200 0.01241100 -0.04720000
v 0.27834200 0.01241100 -0.04720000
v 0.27836100 0.01240400 -0.04720000
v 0.27836100 0.01240400 -0.04720000
v 0.27837800 0.01239800 -0.04720000
v 0.27837800 0.01239800 -0.04720000
v 0.27837800 0.01239800 -0.04720000
v 0.27837300 0.01238100 -0.04720000
v 0.27837300 0.01238100 -0.04720000
v 0.27888500 0.01404200 -0.04720000
v 0.27888500 0.01404200 -0.04720000
v 0.27888500 0.01404200 -0.04720000
v 0.27888200 0.01403300 -0.04720000
v 0.27888200 0.01403300 -0.04720000
v 0.27936400 0.01390400 -0.04720000
v 0.27936400 0.01390400 -0.04720000
v 0.27936400 0.01390400 -0.04720000
v 0.27934400 0.01385200 -0.04720000
v 0.27934400 0.01385200 -0.04720000
v 0.27847600 0.01103100 -0.04720000
v 0.27847600 0.01103100 -0.04720000
v 0.27847800 0.01103900 -0.04720000
v 0.27801700 0.01122100 -0.04720000
v 0.27801700 0.01122100 -0.04720000
v 0.27835400 0.01231600 -0.04720000
v 0.27868500 0.01172200 -0.04720000
v 0.27882100 0.01217500 -0.04720000
v 0.27882100 0.01217500 -0.04720000
v 0.27919300 0.01258400 -0.04720000
v 0.27919300 0.01258400 -0.04720000
v 0.27906500 0.01264100 -0.04720000
v 0.27906500 0.01264100 -0.04720000
v 0.27901900 0.01266200 -0.04720000
v 0.27901900 0.01266200 -0.04720000
v 0.27901700 0.01266300 -0.04720000
v 0.27901700 0.01266300 -0.04720000
v 0.27899200 0.01270900 -0.04720000
v 0.27898800 0.01269200 -0.04720000
v 0.27898300 0.01267400 -0.04720000
v 0.27900000 0.01266900 -0.04720000
v 0.27816700 0.01248800 -0.04720000
v 0.27833500 0.01295600 -0.04720000
v 0.27833500 0.01295600 -0.04720000
v 0.27809100 0.01252200 -0.04720000
v 0.27809100 0.01252200 -0.04720000
v 0.27809100 0.01252200 -0.04720000
v 0.27809100 0.01252200 -0.04720000
v 0.27809100 0.01252200 -0.04720000
v 0.27831400 0.01296500 -0.04720000
v 0.27831400 0.01296500 -0.04720000
v 0.27829200 0.01297500 -0.04720000
v 0.27829200 0.01297500 -0.04720000
v 0.27843500 0.01095300 -0.04720000
v 0.27836900 0.01089200 -0.04720000
v 0.27836900 0.01089200 -0.04720000
v 0.27834000 0.01087700 -0.04720000
v 0.27834000 0.01087700 -0.04720000
v 0.27799600 0.01116900 -0.04720000
v 0.27799600 0.01116900 -0.04720000
v 0.27902600 0.01211600 -0.04720000
v 0.27902600 0.01211600 -0.04720000
v 0.27904600 0.01210800 -0.04720000
v 0.27904600 0.01210800 -0.04720000
v 0.27926900 0.01255100 -0.04720000
v 0.27892500 0.01412000 -0.04720000
v 0.27899100 0.01418000 -0.04720000
v 0.27899100 0.01418000 -0.04720000
v 0.27899100 0.01418000 -0.04720000
v 0.27902100 0.01419500 -0.04720000
v 0.27902100 0.01419500 -0.04720000
v 0.27902100 0.01419500 -0.04720000
v 0.27937200 0.01398700 -0.04720000
v 0.27937200 0.01398700 -0.04720000
v 0.27900100 0.01273300 -0.04720000
v 0.27900100 0.01273300 -0.04720000
v 0.27900700 0.01275700 -0.04720000
v 0.27900700 0.01275700 -0.04720000
v 0.27900700 0.01275700 -0.04720000
v 0.27867600 0.01335000 -0.04720000
v 0.27806600 0.01307600 -0.04720000
v 0.27806600 0.01307600 -0.04720000
v 0.27741500 0.01337100 -0.04720000
v 0.27741500 0.01337100 -0.04720000
v 0.27741500 0.01337100 -0.04720000
v 0.27720800 0.01291700 -0.04720000
v 0.27720800 0.01291700 -0.04720000
v 0.27720800 0.01291700 -0.04720000
v 0.27740800 0.01337400 -0.04720000
v 0.27740800 0.01337400 -0.04720000
v 0.27740800 0.01337400 -0.04720000
v 0.27719700 0.01292200 -0.04720000
v 0.27719700 0.01292200 -0.04720000
v 0.27719700 0.01292200 -0.04720000
v 0.27719700 0.01292200 -0.04720000
v 0.27719700 0.01292200 -0.04720000
v 0.27737100 0.01338700 -0.04720000
v 0.27737100 0.01338700 -0.04720000
v 0.27728700 0.01339500 -0.04720000
v 0.27728700 0.01339500 -0.04720000
v 0.27803000 0.01096500 -0.04720000
v 0.27803000 0.01096500 -0.04720000
v 0.27803000 0.01096500 -0.04720000
v 0.27809300 0.01090100 -0.04720000
v 0.27817300 0.01086300 -0.04720000
v 0.27817300 0.01086300 -0.04720000
v 0.27906900 0.01209900 -0.04720000
v 0.27929500 0.01199700 -0.04720000
v 0.27929500 0.01199700 -0.04720000
v 0.28015200 0.01215600 -0.04720000
v 0.28015200 0.01215600 -0.04720000
v 0.28016400 0.01215100 -0.04720000
v 0.28016400 0.01215100 -0.04720000
v 0.28016400 0.01215100 -0.04720000
v 0.27933000 0.01410800 -0.04720000
v 0.27933000 0.01410800 -0.04720000
v 0.27926800 0.01417200 -0.04720000
v 0.27918800 0.01420900 -0.04720000
v 0.27918800 0.01420900 -0.04720000
v 0.27825600 0.01085600 -0.04720000
v 0.27825600 0.01085600 -0.04720000
v 0.27801000 0.01100200 -0.04720000
v 0.27798800 0.01108500 -0.04720000
v 0.28025900 0.01178200 -0.04720000
v 0.28029700 0.01186200 -0.04720000
v 0.28019500 0.01171900 -0.04720000
v 0.28019500 0.01171900 -0.04720000
v 0.28019500 0.01171900 -0.04720000
v 0.28030400 0.01194500 -0.04720000
v 0.28030400 0.01194500 -0.04720000
v 0.28028300 0.01202900 -0.04720000
v 0.28028300 0.01202900 -0.04720000
v 0.27935100 0.01407100 -0.04720000
v 0.27935100 0.01407100 -0.04720000
v 0.27910400 0.01421700 -0.04720000
v 0.28007400 0.01167700 -0.04720000
v 0.28015800 0.01169900 -0.04720000
v 0.28015800 0.01169900 -0.04720000
v 0.28015800 0.01169900 -0.04720000
v 0.28023300 0.01210200 -0.04720000
v 0.27710200 0.01329100 -0.04720000
v 0.27706400 0.01321100 -0.04720000
v 0.27706400 0.01321100 -0.04720000
v 0.27716600 0.01335400 -0.04720000
v 0.27716600 0.01335400 -0.04720000
v 0.27716600 0.01335400 -0.04720000
v 0.27716600 0.01335400 -0.04720000
v 0.27716600 0.01335400 -0.04720000
v 0.27705600 0.01312700 -0.04720000
v 0.27705600 0.01312700 -0.04720000
v 0.27707800 0.01304300 -0.04720000
v 0.27707800 0.01304300 -0.04720000
v 0.27720200 0.01337400 -0.04720000
v 0.27720200 0.01337400 -0.04720000
v 0.27712800 0.01297100 -0.04720000
v 0.27712800 0.01297100 -0.04720000
vn -0.93302700 -0.35980700 0.00002600
vn -0.88367400 -0.46810300 0.00000200
vn -0.99071900 -0.13592900 -0.00002300
vn -0.99978400 -0.02079200 0.00002000
vn -0.97845800 0.20644700 0.00000000
vn -0.94799500 0.31828500 0.00000000
vn -0.84854200 0.52912800 0.00000000
vn -0.77865900 0.62744700 0.00002100
vn -0.63287600 0.77425300 0.00000000
vn -0.56172700 0.82732300 0.00000000
vn -0.40972800 0.91220800 0.00000000
vn -0.32915600 0.94427600 0.00000000
vn -0.13452800 0.99091000 -0.00002800
vn -0.01920300 0.99981600 0.00002000
vn 0.17695600 0.98421900 0.00000000
vn 0.25835100 0.96605100 0.00001600
vn 0.37025100 0.92893200 0.00000000
vn 0.40254100 0.91540200 0.00000000
vn 0.41963100 0.90769500 0.00000000
vn 0.42703100 0.90423700 0.00000000
vn 0.41035800 0.91192500 0.00000000
vn 0.41124000 0.91152700 0.00000000
vn 0.40196600 0.91565500 0.00000000
vn 0.40547800 0.91410500 0.00000000
vn 0.39441100 0.91893400 0.00000000
vn 0.39575500 0.91835600 0.00000000
vn 0.38755500 0.92184700 0.00000000
vn 0.38765600 0.92180400 0.00000000
vn 0.38992400 0.92084700 0.00000000
vn 0.38543200 0.92273600 0.00000000
vn 0.38547800 0.92271700 0.00000000
vn 0.38543200 0.92273600 0.00000000
vn -0.95483600 0.29713400 0.00000000
vn -0.94974600 0.31302100 0.00000000
vn -0.95232600 0.30508300 0.00000000
vn -0.94970100 0.31315700 0.00000000
vn -0.95729000 0.28912900 0.00000000
vn -0.95724000 0.28929600 0.00000000
vn -0.95724900 0.28926700 0.00000000
vn -0.95729400 0.28911800 0.00000000
vn -0.95724000 0.28929600 0.00000000
vn -0.95894800 0.28358400 0.00000000
vn -0.95821500 0.28604800 0.00000000
vn -0.95809500 0.28645000 0.00000000
vn -0.91697100 0.39895300 0.00001000
vn -0.94029700 0.34035400 0.00000000
vn -0.82907600 0.55913500 0.00000000
vn -0.75500900 0.65571400 0.00002900
vn -0.60763700 0.79421500 -0.00002000
vn -0.53968800 0.84186500 0.00000000
vn -0.39830900 0.91725100 0.00000000
vn -0.32531400 0.94560600 0.00001500
vn -0.13857000 0.99035300 0.00000000
vn -0.02308100 0.99973400 -0.00000200
vn 0.20481500 0.97880100 0.00002200
vn 0.31703000 0.94841600 0.00000000
vn 0.52829000 0.84906400 -0.00002300
vn 0.62681000 0.77917200 0.00000000
vn 0.77396500 0.63322800 -0.00002100
vn 0.82723200 0.56186100 -0.00000200
vn 0.91221400 0.40971500 -0.00001700
vn 0.94423800 0.32926500 -0.00000200
vn 0.99087000 0.13482300 0.00000000
vn 0.99980900 0.01953200 0.00002200
vn 0.98248000 -0.18636900 -0.00001600
vn 0.96080800 -0.27721500 0.00000000
vn 0.93989400 -0.34146800 0.00000000
vn 0.94813300 -0.31787300 0.00000000
vn 0.96230000 -0.27198900 0.00000000
vn 0.95912800 -0.28297400 0.00000000
vn 0.95893400 -0.28363000 0.00000000
vn 0.95199600 -0.30611000 0.00000000
vn 0.95334400 -0.30188600 0.00000000
vn 0.96142000 -0.27508500 0.00000000
vn 0.96420700 -0.26515100 0.00000400
vn 0.95938800 -0.28209000 0.00000000
vn 0.95418800 -0.29920800 0.00000000
vn 0.95432500 -0.29876900 0.00000000
vn 0.29420800 0.95574100 0.00000000
vn 0.29396200 0.95581700 0.00000000
vn 0.31084200 0.95046200 -0.00000300
vn 0.32730500 0.94491900 0.00000000
vn 0.31786200 0.94813700 0.00000000
vn 0.29178800 0.95648300 0.00000000
vn 0.36583700 0.93067900 0.00001200
vn 0.31604000 0.94874600 -0.00001000
vn 0.40803100 0.91296800 0.00000000
vn 0.40798100 0.91299000 0.00000000
vn 0.41126200 0.91151700 0.00000000
vn 0.40596700 0.91388800 0.00000000
vn 0.40620500 0.91378200 0.00000000
vn 0.40619100 0.91378800 0.00000000
vn 0.40535200 0.91416100 0.00000000
vn 0.40526600 0.91419900 0.00000000
vn 0.40540300 0.91413800 0.00000000
vn 0.40751900 0.91319700 0.00000000
vn 0.40752100 0.91319600 0.00000000
vn 0.40690600 0.91347000 0.00000000
vn 0.40724200 0.91332000 0.00000000
vn 0.40721300 0.91333300 0.00000000
vn 0.42016600 0.90744700 0.00000000
vn 0.41406000 0.91025000 0.00000000
vn 0.52896100 0.84864600 0.00000000
vn 0.47843200 0.87812500 0.00000000
vn 0.66863900 0.74358700 0.00000000
vn 0.75159500 0.65962500 0.00002900
vn 0.88398300 0.46751900 0.00000000
vn 0.93314800 0.35949400 0.00002800
vn 0.99071500 0.13595700 -0.00002000
vn 0.99978500 0.02074700 0.00000000
vn 0.97839800 -0.20672800 0.00000200
vn 0.94782500 -0.31879200 0.00000000
vn 0.84831800 -0.52948700 -0.00002900
vn 0.77860900 -0.62751000 0.00002300
vn 0.63333500 -0.77387800 -0.00002100
vn 0.56250000 -0.82679700 0.00000000
vn 0.41043200 -0.91189100 0.00001600
vn 0.32950300 -0.94415500 0.00000000
vn 0.13387000 -0.99099900 0.00000000
vn 0.01795200 -0.99983900 0.00002200
vn -0.17953900 -0.98375100 0.00000200
vn -0.26146400 -0.96521300 0.00001600
vn -0.36807900 -0.92979400 -0.00000600
vn -0.39474900 -0.91878900 0.00000000
vn -0.41514900 -0.90975300 0.00000000
vn -0.41506400 -0.90979200 0.00000000
vn -0.41750700 -0.90867400 0.00000000
vn -0.41262000 -0.91090300 0.00000000
vn -0.41258300 -0.91092000 0.00000000
vn -0.41258000 -0.91092100 0.00000000
vn -0.41262000 -0.91090300 0.00000000
vn -0.41203800 -0.91116600 0.00000000
vn -0.37482200 -0.92709700 0.00000000
vn -0.39396900 -0.91912400 0.00000000
vn -0.37973900 -0.92509400 -0.00000000
vn -0.36766500 -0.92995800 -0.00000300
vn -0.38733000 -0.92194100 0.00000000
vn -0.38748000 -0.92187800 0.00000000
vn -0.38939400 -0.92107100 0.00000000
vn -0.38498600 -0.92292200 0.00000000
vn -0.38511500 -0.92286900 0.00000000
vn -0.38498600 -0.92292200 0.00000000
vn 0.95496000 -0.29673600 0.00000000
vn 0.95016200 -0.31175600 0.00000000
vn 0.95256900 -0.30432400 0.00000000
vn 0.95008200 -0.31199900 0.00000000
vn 0.95720000 -0.28942600 0.00000000
vn 0.95720300 -0.28941900 0.00000000
vn 0.96354800 -0.26753500 0.00000000
vn 0.96041000 -0.27858900 0.00000000
vn 0.91995600 -0.39202200 0.00001500
vn 0.94576800 -0.32484400 0.00000000
vn 0.82849500 -0.55999600 -0.00003500
vn 0.75443600 -0.65637400 0.00000000
vn 0.60708300 -0.79463900 0.00000000
vn 0.53907500 -0.84225800 0.00000000
vn 0.39727200 -0.91770100 -0.00001500
vn 0.32394400 -0.94607600 0.00000000
vn 0.13680900 -0.99059700 0.00000000
vn 0.02137600 -0.99977100 0.00000000
vn -0.20629700 -0.97848900 0.00000000
vn -0.31825800 -0.94800400 0.00002800
vn -0.52932500 -0.84841900 0.00000000
vn -0.62778600 -0.77838600 0.00002100
vn -0.77474000 -0.63228000 0.00000000
vn -0.82779900 -0.56102500 0.00000000
vn -0.91249000 -0.40910000 0.00000000
vn -0.94440100 -0.32879600 0.00001700
vn -0.99090600 -0.13455200 0.00000000
vn -0.99981200 -0.01937000 0.00003600
vn -0.98246500 0.18644900 0.00000000
vn -0.96079000 0.27727700 0.00000000
vn -0.93986900 0.34153600 0.00000000
vn -0.94812900 0.31788500 0.00000000
vn -0.96109300 0.27622400 0.00000000
vn -0.95850400 0.28507900 0.00000000
vn -0.95817700 0.28617600 -0.00000400
vn -0.95238400 0.30490200 0.00000500
vn -0.95446500 0.29832200 0.00000000
vn -0.96207600 0.27278300 0.00000000
vn -0.96427500 0.26490400 0.00000000
vn -0.95923500 0.28261000 0.00000400
vn -0.95379200 0.30046800 0.00000000
vn -0.95387600 0.30020200 0.00000000
vn -0.30069100 -0.95372200 0.00000000
vn -0.30001100 -0.95393600 0.00000000
vn -0.31862400 -0.94788100 -0.00000500
vn -0.33667000 -0.94162300 -0.00000300
vn -0.36983800 -0.92909600 0.00000400
vn -0.38500000 -0.92291600 0.00000000
vn -0.40563100 -0.91403700 0.00000000
vn -0.40553500 -0.91407900 0.00000000
vn -0.40285800 -0.91526300 -0.00000100
vn -0.40755800 -0.91317900 0.00000000
vn -0.40709700 -0.91338500 0.00000000
vn -0.40730200 -0.91329300 0.00000000
vn -0.40824500 -0.91287200 0.00000000
vn -0.40817100 -0.91290600 0.00000000
vn -0.40774000 -0.91309800 0.00000000
vn -0.40740400 -0.91324800 0.00000000
vn -0.40762000 -0.91315200 0.00000000
vn -0.40696600 -0.91344300 0.00000000
vn -0.40699600 -0.91343000 0.00000000
vn -0.40731500 -0.91328800 0.00000000
vn -0.41559500 -0.90955000 0.00000100
vn -0.41166400 -0.91133600 0.00000000
vn -0.52786800 -0.84932600 0.00000000
vn -0.47451500 -0.88024700 0.00000000
vn -0.66932700 -0.74296800 0.00000000
vn -0.75157900 -0.65964300 0.00000000
vn 0.00002100 -0.00000200 -1.00000000
vn 0.00000000 0.00000000 -1.00000000
vn -0.00018600 0.00001900 -1.00000000
vn -0.00018600 0.00001900 -1.00000000
vn 0.00004700 -0.00000500 -1.00000000
vn 0.00000000 0.00000000 -1.00000000
vn -0.00018600 0.00001900 -1.00000000
vn 0.00004700 -0.00000500 -1.00000000
vn 0.00004700 -0.00000500 -1.00000000
vn 0.00000500 -0.00000100 -1.00000000
vn 0.00000000 0.00000000 -1.00000000
vn -0.00005200 0.00000500 -1.00000000
vn 0.00000000 0.00000000 -1.00000000
vn 0.00000000 0.00000000 -1.00000000
vn 0.00013800 -0.00001400 -1.00000000
vn 0.00025100 -0.00002500 -1.00000000
vn -0.00035600 0.00003600 -1.00000000
vn 0.00001500 -0.00000100 -1.00000000
vn -0.00000100 0.00000000 -1.00000000
vn 0.00001800 -0.00000200 -1.00000000
vn 0.00000000 0.00000000 -1.00000000
vn 0.00018300 -0.00001900 -1.00000000
vn 0.00011000 -0.00001100 -1.00000000
vn 0.00000000 0.00000000 -1.00000000
vn -0.00006300 0.00000600 -1.00000000
vn -0.00000400 0.00000000 -1.00000000
vn 0.00000000 0.00000000 -1.00000000
vn 0.00000000 0.00000000 -1.00000000
vn 0.00018300 -0.00001900 -1.00000000
vn 0.00000000 0.00000000 -1.00000000
vn 0.00000000 0.00000000 -1.00000000
vn -0.00003800 0.00000400 -1.00000000
vn 0.00000000 0.00000000 -1.00000000
vn 0.00001500 -0.00000100 -1.00000000
vn -0.00003800 0.00000400 -1.00000000
vn 0.00013800 -0.00001400 -1.00000000
vn 0.00000000 0.00000000 -1.00000000
vn -0.00035600 0.00003600 -1.00000000
vn -0.00003800 0.00000400 -1.00000000
vn 0.00001500 -0.00000100 -1.00000000
vn -0.00035600 0.00003600 -1.00000000
vn 0.00025100 -0.00002500 -1.00000000
vn -0.00000000 -0.00000000 -1.00000000
vn 0.00025100 -0.00002500 -1.00000000
vn 0.00013800 -0.00001400 -1.00000000
vn -0.00011900 0.00001200 -1.00000000
vn -0.00011900 0.00001200 -1.00000000
vn -0.00003100 0.00000300 -1.00000000
vn 0.00000000 0.00000000 -1.00000000
vn -0.00003100 0.00000300 -1.00000000
vn -0.00011900 0.00001200 -1.00000000
vn -0.00011600 0.00001200 -1.00000000
vn 0.00000000 0.00000000 -1.00000000
vn 0.00006800 -0.00000700 -1.00000000
vn 0.00000000 0.00000000 -1.00000000
vn -0.00011600 0.00001200 -1.00000000
vn -0.00011600 0.00001200 -1.00000000
vn 0.00000000 0.00000000 -1.00000000
vn 0.00000000 0.00000000 -1.00000000
vn 0.00000000 0.00000000 -1.00000000
vn 0.00000400 -0.00000000 -1.00000000
vn 0.00000400 -0.00000000 -1.00000000
vn 0.00001900 -0.00000200 -1.00000000
vn 0.00000000 0.00000000 -1.00000000
vn 0.00001900 -0.00000200 -1.00000000
vn 0.00000400 -0.00000000 -1.00000000
vn -0.00007600 0.00000800 -1.00000000
vn 0.00001900 -0.00000200 -1.00000000
vn -0.00007600 0.00000800 -1.00000000
vn 0.00001900 -0.00000200 -1.00000000
vn -0.00007600 0.00000800 -1.00000000
vn -0.00005200 0.00000500 -1.00000000
vn 0.00001900 -0.00000200 -1.00000000
vn 0.00001900 -0.00000200 -1.00000000
vn -0.00005200 0.00000500 -1.00000000
vn 0.00000000 0.00000000 -1.00000000
vn -0.00007500 0.00000800 -1.00000000
vn 0.00000000 0.00000000 -1.00000000
vn 0.00001600 -0.00000200 -1.00000000
vn -0.00007500 0.00000800 -1.00000000
vn -0.00000600 0.00000100 -1.00000000
vn 0.00001600 -0.00000200 -1.00000000
vn -0.00007500 0.00000800 -1.00000000
vn 0.00001600 -0.00000200 -1.00000000
vn -0.00000600 0.00000100 -1.00000000
vn -0.00000600 0.00000100 -1.00000000
vn -0.00002100 0.00000200 -1.00000000
vn -0.00001600 0.00000200 -1.00000000
vn -0.00002100 0.00000200 -1.00000000
vn -0.00001600 0.00000200 -1.00000000
vn -0.00002100 0.00000200 -1.00000000
vn -0.00001100 0.00000100 -1.00000000
vn -0.00003200 0.00000300 -1.00000000
vn 0.00000000 0.00000000 -1.00000000
vn -0.00001600 0.00000200 -1.00000000
vn 0.00004700 -0.00000500 -1.00000000
vn 0.00004700 -0.00000500 -1.00000000
vn 0.00000000 0.00000000 -1.00000000
vn 0.00004700 -0.00000500 -1.00000000
vn -0.00001100 0.00000100 -1.00000000
vn 0.00000000 0.00000000 -1.00000000
vn -0.00003200 0.00000300 -1.00000000
vn -0.00001100 0.00000100 -1.00000000
vn -0.00003200 0.00000300 -1.00000000
vn 0.00000000 0.00000000 -1.00000000
vn 0.00004700 -0.00000500 -1.00000000
vn 0.00000000 0.00000000 -1.00000000
vn 0.00000500 -0.00000100 -1.00000000
vn 0.00000500 -0.00000100 -1.00000000
vn 0.00000000 0.00000000 -1.00000000
vn 0.00000000 0.00000000 -1.00000000
vn 0.00000000 0.00000000 -1.00000000
vn -0.00001600 0.00000200 -1.00000000
vn -0.00000400 0.00000000 -1.00000000
vn 0.00000000 0.00000000 -1.00000000
vn 0.00000000 0.00000000 -1.00000000
vn -0.00000400 0.00000000 -1.00000000
vn 0.00000000 0.00000000 -1.00000000
vn 0.00000000 0.00000000 -1.00000000
vn -0.00001300 0.00000100 -1.00000000
vn 0.00000000 0.00000000 -1.00000000
vn -0.00003100 0.00000300 -1.00000000
vn -0.00001300 0.00000100 -1.00000000
vn 0.00000000 0.00000000 -1.00000000
vn -0.00001600 0.00000200 -1.00000000
vn 0.00000000 0.00000000 -1.00000000
vn -0.00001300 0.00000100 -1.00000000
vn -0.00001600 0.00000200 -1.00000000
vn 0.00000000 0.00000000 -1.00000000
vn 0.00000000 0.00000000 -1.00000000
vn -0.00000700 0.00000100 -1.00000000
vn 0.00001800 -0.00000200 -1.00000000
vn 0.00000000 0.00000000 -1.00000000
vn 0.00001800 -0.00000200 -1.00000000
vn 0.00000000 0.00000000 -1.00000000
vn 0.00000700 -0.00000100 -1.00000000
vn 0.00032500 -0.00003300 -1.00000000
vn 0.00000700 -0.00000100 -1.00000000
vn 0.00000700 -0.00000100 -1.00000000
vn 0.00032500 -0.00003300 -1.00000000
vn 0.00000000 0.00000000 -1.00000000
vn 0.00032500 -0.00003300 -1.00000000
vn -0.00004400 0.00000400 -1.00000000
vn -0.00004400 0.00000400 -1.00000000
vn 0.00000000 0.00000000 -1.00000000
vn -0.00004400 0.00000400 -1.00000000
vn 0.00000000 0.00000000 -1.00000000
vn 0.00006800 -0.00000700 -1.00000000
vn 0.00000000 0.00000000 -1.00000000
vn 0.00000000 0.00000000 -1.00000000
vn 0.00006800 -0.00000700 -1.00000000
vn 0.00000000 0.00000000 -1.00000000
vn 0.00000000 0.00000000 -1.00000000
vn -0.00002400 0.00000200 -1.00000000
vn 0.00000000 0.00000000 -1.00000000
vn 0.00000000 0.00000000 -1.00000000
vn 0.00000000 0.00000000 -1.00000000
vn 0.00000000 0.00000000 -1.00000000
vn 0.00004700 -0.00000500 -1.00000000
vn 0.00000000 0.00000000 -1.00000000
vn 0.00000000 0.00000000 -1.00000000
vn 0.00000000 0.00000000 -1.00000000
vn 0.00004700 -0.00000500 -1.00000000
vn 0.00000000 0.00000000 -1.00000000
vn 0.00000000 0.00000000 -1.00000000
vn -0.00005900 0.00000600 -1.00000000
vn 0.00000000 0.00000000 -1.00000000
vn -0.00005900 0.00000600 -1.00000000
vn 0.00000000 0.00000000 -1.00000000
vn 0.00005400 -0.00000600 -1.00000000
vn -0.00012700 0.00001300 -1.00000000
vn 0.00002800 -0.00000300 -1.00000000
vn -0.00005900 0.00000600 -1.00000000
vn 0.00005400 -0.00000600 -1.00000000
vn 0.00000000 0.00000000 -1.00000000
vn 0.00000000 0.00000000 -1.00000000
vn 0.00000000 0.00000000 -1.00000000
vn -0.00002400 0.00000200 -1.00000000
vn 0.00000000 0.00000000 -1.00000000
vn 0.00000000 0.00000000 -1.00000000
vn -0.00002400 0.00000200 -1.00000000
vn 0.00000000 0.00000000 -1.00000000
vn 0.00000000 0.00000000 -1.00000000
vn -0.00012700 0.00001300 -1.00000000
vn 0.00005400 -0.00000600 -1.00000000
vn -0.00012700 0.00001300 -1.00000000
vn 0.00002100 -0.00000200 -1.00000000
vn 0.00002800 -0.00000300 -1.00000000
vn 0.00000000 0.00000000 -1.00000000
vn 0.00002800 -0.00000300 -1.00000000
vn 0.00002100 -0.00000200 -1.00000000
vn 0.00000000 0.00000000 -1.00000000
vn 0.00011000 -0.00001100 -1.00000000
vn 0.00018300 -0.00001900 -1.00000000
vn -0.00006300 0.00000600 -1.00000000
vn 0.00011000 -0.00001100 -1.00000000
vn -0.00006300 0.00000600 -1.00000000
vn 0.00000000 0.00000000 -1.00000000
vn 0.00000000 0.00000000 -1.00000000
vn 0.00000000 0.00000000 -1.00000000
vn 0.00000000 0.00000000 -1.00000000
vn 0.00000000 0.00000000 -1.00000000
vn 0.00000000 0.00000000 -1.00000000
vn 0.00003700 -0.00000400 1.00000000
vn 0.00000000 0.00000000 1.00000000
vn -0.00000500 0.00000100 1.00000000
vn 0.00000000 0.00000000 1.00000000
vn 0.00000000 0.00000000 1.00000000
vn -0.00003700 0.00000400 1.00000000
vn 0.00000000 0.00000000 1.00000000
vn 0.00000000 0.00000000 1.00000000
vn -0.00008500 0.00000900 1.00000000
vn 0.00000400 -0.00000000 1.00000000
vn 0.00001300 -0.00000100 1.00000000
vn 0.00000400 -0.00000000 1.00000000
vn -0.00004500 0.00000500 1.00000000
vn 0.00000000 0.00000000 1.00000000
vn 0.00002600 -0.00000300 1.00000000
vn 0.00001900 -0.00000200 1.00000000
vn 0.00019300 -0.00002000 1.00000000
vn -0.00005100 0.00000500 1.00000000
vn -0.00003700 0.00000400 1.00000000
vn -0.00003700 0.00000400 1.00000000
vn 0.00002600 -0.00000300 1.00000000
vn 0.00000000 0.00000000 1.00000000
vn 0.00001900 -0.00000200 1.00000000
vn -0.00003700 0.00000400 1.00000000
vn 0.00001300 -0.00000100 1.00000000
vn 0.00000000 0.00000000 1.00000000
vn 0.00000000 0.00000000 1.00000000
vn 0.00001300 -0.00000100 1.00000000
vn 0.00000000 0.00000000 1.00000000
vn -0.00008500 0.00000900 1.00000000
vn 0.00000400 -0.00000000 1.00000000
vn -0.00008500 0.00000900 1.00000000
vn -0.00005100 0.00000500 1.00000000
vn 0.00002600 -0.00000300 1.00000000
vn -0.00005100 0.00000500 1.00000000
vn 0.00000700 -0.00000100 1.00000000
vn 0.00001100 -0.00000100 1.00000000
vn 0.00000000 0.00000000 1.00000000
vn -0.00001300 0.00000100 1.00000000
vn 0.00000000 0.00000000 1.00000000
vn -0.00002900 0.00000300 1.00000000
vn 0.00001100 -0.00000100 1.00000000
vn 0.00000000 0.00000000 1.00000000
vn 0.00000000 0.00000000 1.00000000
vn -0.00001300 0.00000100 1.00000000
vn 0.00015100 -0.00001500 1.00000000
vn 0.00000000 0.00000000 1.00000000
vn 0.00000000 0.00000000 1.00000000
vn 0.00000000 0.00000000 1.00000000
vn -0.00001900 0.00000200 1.00000000
vn 0.00000000 0.00000000 1.00000000
vn 0.00000000 0.00000000 1.00000000
vn 0.00000000 0.00000000 1.00000000
vn 0.00001900 -0.00000200 1.00000000
vn -0.00009200 0.00000900 1.00000000
vn 0.00000000 0.00000000 1.00000000
vn -0.00004500 0.00000500 1.00000000
vn 0.00000000 0.00000000 1.00000000
vn -0.00004500 0.00000500 1.00000000
vn 0.00019300 -0.00002000 1.00000000
vn 0.00000000 0.00000000 1.00000000
vn 0.00019300 -0.00002000 1.00000000
vn 0.00000000 0.00000000 1.00000000
vn 0.00000000 0.00000000 1.00000000
vn 0.00000000 0.00000000 1.00000000
vn 0.00000000 0.00000000 1.00000000
vn 0.00000000 0.00000000 1.00000000
vn 0.00000000 0.00000000 1.00000000
vn -0.00001500 0.00000200 1.00000000
vn -0.00001500 0.00000200 1.00000000
vn 0.00000700 -0.00000100 1.00000000
vn 0.00000000 0.00000000 1.00000000
vn -0.00001000 0.00000100 1.00000000
vn 0.00002400 -0.00000200 1.00000000
vn -0.00001500 0.00000200 1.00000000
vn 0.00002400 -0.00000200 1.00000000
vn 0.00000000 0.00000000 1.00000000
vn 0.00002400 -0.00000200 1.00000000
vn 0.00015100 -0.00001500 1.00000000
vn 0.00015100 -0.00001500 1.00000000
vn 0.00000000 0.00000000 1.00000000
vn 0.00000000 0.00000000 1.00000000
vn -0.00001900 0.00000200 1.00000000
vn -0.00001900 0.00000200 1.00000000
vn 0.00000000 0.00000000 1.00000000
vn 0.00000000 0.00000000 1.00000000
vn -0.00009200 0.00000900 1.00000000
vn -0.00009200 0.00000900 1.00000000
vn 0.00000000 0.00000000 1.00000000
vn 0.00000000 0.00000000 1.00000000
vn 0.00000600 -0.00000100 1.00000000
vn 0.00000000 0.00000000 1.00000000
vn 0.00001100 -0.00000100 1.00000000
vn 0.00000600 -0.00000100 1.00000000
vn 0.00000000 0.00000000 1.00000000
vn -0.00002900 0.00000300 1.00000000
vn 0.00003600 -0.00000400 1.00000000
vn 0.00003600 -0.00000400 1.00000000
vn -0.00002900 0.00000300 1.00000000
vn -0.00003700 0.00000400 1.00000000
vn 0.00000000 0.00000000 1.00000000
vn -0.00003700 0.00000400 1.00000000
vn -0.00001300 0.00000100 1.00000000
vn 0.00000000 0.00000000 1.00000000
vn 0.00000000 0.00000000 1.00000000
vn -0.00001000 0.00000100 1.00000000
vn 0.00000000 0.00000000 1.00000000
vn 0.00000700 -0.00000100 1.00000000
vn 0.00004600 -0.00000500 1.00000000
vn -0.00001000 0.00000100 1.00000000
vn 0.00000000 0.00000000 1.00000000
vn 0.00004600 -0.00000500 1.00000000
vn 0.00000700 -0.00000100 1.00000000
vn 0.00008500 -0.00000900 1.00000000
vn 0.00004600 -0.00000500 1.00000000
vn 0.00000000 0.00000000 1.00000000
vn 0.00008500 -0.00000900 1.00000000
vn -0.00004500 0.00000500 1.00000000
vn -0.00006900 0.00000700 1.00000000
vn 0.00000000 0.00000000 1.00000000
vn 0.00009500 -0.00001000 1.00000000
vn -0.00004500 0.00000500 1.00000000
vn 0.00008500 -0.00000900 1.00000000
vn 0.00009500 -0.00001000 1.00000000
vn -0.00004500 0.00000500 1.00000000
vn 0.00021200 -0.00002100 1.00000000
vn 0.00016200 -0.00001600 1.00000000
vn 0.00000000 0.00000000 1.00000000
vn 0.00016200 -0.00001600 1.00000000
vn 0.00016200 -0.00001600 1.00000000
vn 0.00021200 -0.00001900 1.00000000
vn 0.00000000 0.00000000 1.00000000
vn 0.00000000 0.00000000 1.00000000
vn -0.00000500 0.00000100 1.00000000
vn -0.00000500 0.00000100 1.00000000
vn 0.00000000 0.00000000 1.00000000
vn 0.00003700 -0.00000400 1.00000000
vn -0.00001400 0.00000100 1.00000000
vn 0.00000000 0.00000000 1.00000000
vn 0.00000000 0.00000000 1.00000000
vn -0.00016200 0.00001600 1.00000000
vn -0.00016200 0.00001600 1.00000000
vn 0.00000000 0.00000000 1.00000000
vn -0.00016200 0.00001600 1.00000000
vn 0.00000000 0.00000000 1.00000000
vn 0.00021100 -0.00002100 1.00000000
vn 0.00000000 0.00000000 1.00000000
vn 0.00000000 0.00000000 1.00000000
vn 0.00000000 0.00000000 1.00000000
vn 0.00000000 0.00000000 1.00000000
vn -0.00006400 0.00000700 1.00000000
vn 0.00000000 0.00000000 1.00000000
vn -0.00001400 0.00000100 1.00000000
vn -0.00006400 0.00000700 1.00000000
vn 0.00000000 0.00000000 1.00000000
vn 0.00000000 0.00000000 1.00000000
vn -0.00006400 0.00000700 1.00000000
vn 0.00003600 -0.00000400 1.00000000
vn 0.00000000 0.00000000 1.00000000
vn 0.00000000 0.00000000 1.00000000
vn 0.00000000 0.00000000 1.00000000
vn 0.00000000 0.00000000 1.00000000
vn -0.00001400 0.00000100 1.00000000
vn 0.00003700 -0.00000400 1.00000000
vn 0.00000000 0.00000000 1.00000000
vn 0.00015300 -0.00001600 1.00000000
vn 0.00033400 -0.00003400 1.00000000
vn 0.00015300 -0.00001600 1.00000000
vn 0.00000000 0.00000000 1.00000000
vn 0.00033400 -0.00003400 1.00000000
vn -0.00008300 0.00000800 1.00000000
vn -0.00006900 0.00000700 1.00000000
vn 0.00015300 -0.00001600 1.00000000
vn 0.00033400 -0.00003400 1.00000000
vn 0.00000000 0.00000000 1.00000000
vn 0.00000000 0.00000000 1.00000000
vn -0.00008300 0.00000800 1.00000000
vn -0.00006900 0.00000700 1.00000000
vn 0.00009500 -0.00001000 1.00000000
vn -0.00008300 0.00000800 1.00000000
vn 0.00000000 0.00000000 1.00000000
f 1//1 2//2 3//3
f 1//1 3//3 4//4
f 4//4 3//3 5//5
f 4//4 5//5 6//6
f 6//6 5//5 7//7
f 6//6 7//7 8//8
f 8//8 7//7 9//9
f 8//8 9//9 10//10
f 10//10 9//9 11//11
f 10//10 11//11 12//12
f 12//12 11//11 13//13
f 12//12 13//13 14//14
f 14//14 13//13 15//15
f 14//14 15//15 16//16
f 16//16 15//15 17//17
f 16//16 17//17 18//18
f 19//19 18//18 20//20
f 20//20 18//18 17//17
f 21//21 19//19 22//22
f 22//22 19//19 20//20
f 23//23 21//21 24//24
f 24//24 21//21 22//22
f 25//25 23//23 26//26
f 26//26 23//23 24//24
f 28//28 25//25 29//29
f 29//29 25//25 26//26
f 30//30 27//27 32//32
f 31//31 28//28 29//29
f 33//33 34//34 35//35
f 35//35 34//34 36//36
f 37//37 33//33 40//40
f 40//40 33//33 35//35
f 42//42 39//39 43//43
f 44//44 38//38 41//41
f 45//45 42//42 46//46
f 46//46 42//42 43//43
f 45//45 46//46 47//47
f 45//45 47//47 48//48
f 48//48 47//47 49//49
f 48//48 49//49 50//50
f 50//50 49//49 51//51
f 50//50 51//51 52//52
f 52//52 51//51 53//53
f 52//52 53//53 54//54
f 54//54 53//53 55//55
f 54//54 55//55 56//56
f 56//56 55//55 57//57
f 56//56 57//57 58//58
f 58//58 57//57 59//59
f 58//58 59//59 60//60
f 60//60 59//59 61//61
f 60//60 61//61 62//62
f 62//62 61//61 63//63
f 62//62 63//63 64//64
f 64//64 63//63 65//65
f 64//64 65//65 66//66
f 66//66 65//65 67//67
f 66//66 67//67 68//68
f 69//69 68//68 70//70
f 70//70 68//68 67//67
f 69//69 70//70 71//71
f 69//69 71//71 72//72
f 72//72 71//71 73//73
f 72//72 73//73 74//74
f 74//74 73//73 75//75
f 74//74 75//75 76//76
f 76//76 75//75 77//77
f 76//76 77//77 78//78
f 79//79 80//80 81//81
f 79//79 81//81 82//82
f 82//82 81//81 83//83
f 82//82 83//83 84//84
f 85//85 84//84 86//86
f 86//86 84//84 83//83
f 87//87 85//85 89//89
f 89//89 85//85 86//86
f 90//90 88//88 94//94
f 93//93 87//87 89//89
f 96//96 91//91 98//98
f 99//99 92//92 95//95
f 101//101 97//97 102//102
f 102//102 97//97 100//100
f 103//103 101//101 104//104
f 104//104 101//101 102//102
f 103//103 104//104 105//105
f 103//103 105//105 106//106
f 106//106 105//105 107//107
f 106//106 107//107 108//108
f 108//108 107//107 109//109
f 108//108 109//109 110//110
f 110//110 109//109 111//111
f 110//110 111//111 112//112
f 112//112 111//111 113//113
f 112//112 113//113 114//114
f 114//114 113//113 115//115
f 114//114 115//115 116//116
f 116//116 115//115 117//117
f 116//116 117//117 118//118
f 118//118 117//117 119//119
f 118//118 119//119 120//120
f 120//120 119//119 121//121
f 120//120 121//121 122//122
f 122//122 121//121 123//123
f 122//122 123//123 124//124
f 125//125 124//124 127//127
f 127//127 124//124 123//123
f 128//128 126//126 131//131
f 132//132 125//125 127//127
f 133//133 129//129 134//134
f 134//134 129//129 130//130
f 135//135 133//133 136//136
f 136//136 133//133 134//134
f 138//138 135//135 139//139
f 139//139 135//135 136//136
f 140//140 137//137 142//142
f 141//141 138//138 139//139
f 143//143 144//144 145//145
f 145//145 144//144 146//146
f 147//147 143//143 148//148
f 148//148 143//143 145//145
f 149//149 147//147 150//150
f 150//150 147//147 148//148
f 151//151 149//149 152//152
f 152//152 149//149 150//150
f 151//151 152//152 153//153
f 151//151 153//153 154//154
f 154//154 153//153 155//155
f 154//154 155//155 156//156
f 156//156 155//155 157//157
f 156//156 157//157 158//158
f 158//158 157//157 159//159
f 158//158 159//159 160//160
f 160//160 159//159 161//161
f 160//160 161//161 162//162
f 162//162 161//161 163//163
f 162//162 163//163 164//164
f 164//164 163//163 165//165
f 164//164 165//165 166//166
f 166//166 165//165 167//167
f 166//166 167//167 168//168
f 168//168 167//167 169//169
f 168//168 169//169 170//170
f 170//170 169//169 171//171
f 170//170 171//171 172//172
f 172//172 171//171 173//173
f 172//172 173//173 174//174
f 175//175 174//174 176//176
f 176//176 174//174 173//173
f 175//175 176//176 177//177
f 175//175 177//177 178//178
f 178//178 177//177 179//179
f 178//178 179//179 180//180
f 180//180 179//179 181//181
f 180//180 181//181 182//182
f 182//182 181//181 183//183
f 182//182 183//183 184//184
f 185//185 186//186 187//187
f 185//185 187//187 188//188
f 188//188 187//187 189//189
f 188//188 189//189 190//190
f 192//192 190//190 193//193
f 193//193 190//190 189//189
f 194//194 191//191 198//198
f 197//197 192//192 193//193
f 200//200 195//195 202//202
f 203//203 196//196 199//199
f 205//205 201//201 206//206
f 206//206 201//201 204//204
f 207//207 205//205 208//208
f 208//208 205//205 206//206
f 207//207 208//208 209//209
f 207//207 209//209 210//210
f 210//210 209//209 2//2
f 210//210 2//2 1//1
f 213//213 214//214 217//217
f 218//218 215//215 219//219
f 223//223 224//224 231//231
f 234//234 237//237 238//238
f 240//240 241//241 243//243
f 240//240 243//243 247//247
f 245//245 242//242 249//249
f 244//244 250//250 228//228
f 227//227 248//248 251//251
f 226//226 252//252 254//254
f 231//231 224//224 247//247
f 246//246 225//225 255//255
f 257//257 256//256 261//261
f 262//262 266//266 267//267
f 263//263 268//268 269//269
f 265//265 263//263 270//270
f 270//270 263//263 274//274
f 271//271 272//272 276//276
f 275//275 273//273 280//280
f 277//277 279//279 281//281
f 283//283 278//278 284//284
f 282//282 285//285 222//222
f 286//286 241//241 288//288
f 287//287 290//290 293//293
f 292//292 289//289 294//294
f 291//291 295//295 296//296
f 297//297 299//299 301//301
f 298//298 300//300 305//305
f 306//306 307//307 309//309
f 308//308 311//311 304//304
f 302//302 310//310 313//313
f 303//303 312//312 314//314
f 317//317 216//216 221//221
f 318//318 220//220 319//319
f 317//317 320//320 321//321
f 322//322 325//325 326//326
f 327//327 324//324 236//236
f 326//326 234//234 328//328
f 328//328 234//234 329//329
f 258//258 260//260 332//332
f 259//259 331//331 334//334
f 333//333 330//330 337//337
f 334//334 336//336 339//339
f 338//338 335//335 323//323
f 339//339 325//325 340//340
f 340//340 325//325 322//322
f 253//253 341//341 229//229
f 230//230 342//342 344//344
f 231//231 343//343 345//345
f 346//346 348//348 349//349
f 347//347 350//350 352//352
f 353//353 354//354 356//356
f 351//351 355//355 357//357
f 357//357 321//321 320//320
f 269//269 359//359 263//263
f 264//264 358//358 361//361
f 263//263 360//360 362//362
f 362//362 363//363 365//365
f 366//366 367//367 368//368
f 368//368 367//367 370//370
f 368//368 370//370 371//371
f 316//316 369//369 373//373
f 315//315 372//372 304//304
f 304//304 372//372 374//374
f 375//375 377//377 379//379
f 378//378 376//376 383//383
f 385//385 386//386 387//387
f 387//387 386//386 389//389
f 387//387 389//389 363//363
f 364//364 388//388 391//391
f 363//363 390//390 365//365
f 392//392 379//379 393//393
f 395//395 380//380 384//384
f 394//394 381//381 396//396
f 398//398 382//382 400//400
f 397//397 401//401 211//211
f 212//212 399//399 402//402
f 239//239 404//404 232//232
f 233//233 403//403 406//406
f 235//235 405//405 407//407
f 409//409 329//329 410//410
f 410//410 329//329 234//234
f 410//410 234//234 411//411
f 411//411 234//234 408//408
f 411//411 412//412 413//413
f 415//415 417//417 418//418
f 420//420 421//421 427//427
f 432//432 433//433 437//437
f 424//424 438//438 441//441
f 440//440 442//442 421//421
f 422//422 443//443 445//445
f 423//423 444//444 425//425
f 431//431 446//446 448//448
f 428//428 447//447 434//434
f 451//451 453//453 456//456
f 456//456 453//453 457//457
f 460//460 461//461 462//462
f 462//462 461//461 464//464
f 464//464 461//461 465//465
f 464//464 465//465 466//466
f 464//464 466//466 435//435
f 436//436 467//467 429//429
f 469//469 471//471 427//427
f 426//426 470//470 472//472
f 430//430 473//473 475//475
f 476//476 420//420 477//477
f 477//477 420//420 478//478
f 478//478 420//420 427//427
f 478//478 427//427 479//479
f 479//479 427//427 474//474
f 439//439 421//421 480//480
f 480//480 421//421 481//481
f 480//480 481//481 485//485
f 483//483 482//482 488//488
f 487//487 489//489 491//491
f 492//492 459//459 493//493
f 494//494 460//460 462//462
f 494//494 462//462 495//495
f 496//496 463//463 497//497
f 427//427 499//499 469//469
f 468//468 500//500 501//501
f 469//469 502//502 503//503
f 504//504 449//449 507//507
f 506//506 450//450 455//455
f 505//505 456//456 508//508
f 509//509 454//454 512//512
f 420//420 476//476 514//514
f 419//419 513//513 515//515
f 458//458 452//452 516//516
f 517//517 453//453 518//518
f 517//517 518//518 420//420
f 490//490 520//520 485//485
f 486//486 519//519 523//523
f 484//484 521//521 526//526
f 525//525 522//522 528//528
f 524//524 529//529 533//533
f 530//530 527//527 536//536
f 531//531 535//535 538//538
f 540//540 542//542 543//543
f 502//502 545//545 503//503
f 503//503 545//545 546//546
f 503//503 546//546 549//549
f 548//548 547//547 416//416
f 549//549 415//415 552//552
f 554//554 555//555 557//557
f 544//544 559//559 539//539
f 541//541 558//558 495//495
f 541//541 495//495 560//560
f 560//560 495//495 498//498
f 560//560 498//498 561//561
f 562//562 563//563 565//565
f 565//565 563//563 568//568
f 564//564 567//567 570//570
f 511//511 571//571 510//510
f 508//508 572//572 553//553
f 508//508 553//553 573//573
f 573//573 553//553 556//556
f 418//418 574//574 415//415
f 415//415 574//574 575//575
f 414//414 577//577 550//550
f 551//551 576//576 566//566
f 552//552 565//565 578//578
f 578//578 565//565 569//569
f 579//579 581//581 586//586
f 583//583 580//580 587//587
f 582//582 588//588 589//589
f 537//537 592//592 534//534
f 532//532 591//591 585//585
f 533//533 582//582 594//594
f 593//593 584//584 590//590

