# https://github.com/mikedh/trimesh
v 0.29415000 0.00936200 0.04730000
v 0.29415000 0.00936200 0.04720000
v 0.29418700 0.00944000 0.04720000
v 0.29418700 0.00944000 0.04730000
v 0.29419600 0.00952300 0.04720000
v 0.29419600 0.00952300 0.04730000
v 0.29418700 0.00957800 0.04720000
v 0.29418700 0.00957800 0.04730000
v 0.29407700 0.01071900 0.04730000
v 0.29407700 0.01071900 0.04720000
v 0.29407500 0.01074400 0.04720000
v 0.29407500 0.01074400 0.04730000
v 0.29407200 0.01076800 0.04720000
v 0.29407200 0.01076800 0.04730000
v 0.29407100 0.01078600 0.04720000
v 0.29407100 0.01078600 0.04730000
v 0.29406900 0.01080400 0.04720000
v 0.29406900 0.01080400 0.04730000
v 0.29406900 0.01080400 0.04730000
v 0.29406900 0.01080400 0.04720000
v 0.29408700 0.01080600 0.04720000
v 0.29408700 0.01080600 0.04730000
v 0.29410600 0.01080900 0.04720000
v 0.29410600 0.01080900 0.04730000
v 0.29415600 0.01082000 0.04730000
v 0.29415600 0.01082000 0.04730000
v 0.29415600 0.01082000 0.04730000
v 0.29415600 0.01082000 0.04720000
v 0.29415600 0.01082000 0.04720000
v 0.29429400 0.01085000 0.04730000
v 0.29429400 0.01085000 0.04730000
v 0.29429400 0.01085000 0.04730000
v 0.29429400 0.01085000 0.04720000
v 0.29429400 0.01085000 0.04720000
v 0.29429400 0.01085000 0.04720000
v 0.29437500 0.01086800 0.04730000
v 0.29437500 0.01086800 0.04730000
v 0.29437500 0.01086800 0.04720000
v 0.29437500 0.01086800 0.04720000
v 0.29437500 0.01086800 0.04720000
v 0.29531900 0.01107700 0.04730000
v 0.29531900 0.01107700 0.04720000
v 0.29533200 0.01108000 0.04730000
v 0.29533200 0.01108000 0.04720000
v 0.29541000 0.01111400 0.04720000
v 0.29541000 0.01111400 0.04730000
v 0.29547300 0.01117500 0.04720000
v 0.29547300 0.01117500 0.04730000
v 0.29551100 0.01125300 0.04720000
v 0.29551100 0.01125300 0.04730000
v 0.29552000 0.01133600 0.04720000
v 0.29552000 0.01133600 0.04730000
v 0.29549900 0.01142200 0.04720000
v 0.29549900 0.01142200 0.04730000
v 0.29544900 0.01149600 0.04720000
v 0.29544900 0.01149600 0.04730000
v 0.29541700 0.01152400 0.04720000
v 0.29541700 0.01152400 0.04730000
v 0.29533900 0.01156200 0.04720000
v 0.29533900 0.01156200 0.04730000
v 0.29525500 0.01157100 0.04720000
v 0.29525500 0.01157100 0.04730000
v 0.29521600 0.01156500 0.04720000
v 0.29521600 0.01156500 0.04730000
v 0.29520700 0.01156300 0.04730000
v 0.29520700 0.01156300 0.04730000
v 0.29520700 0.01156300 0.04720000
v 0.29451100 0.01140600 0.04730000
v 0.29451100 0.01140600 0.04730000
v 0.29451100 0.01140600 0.04720000
v 0.29451100 0.01140600 0.04720000
v 0.29451100 0.01140600 0.04720000
v 0.29427000 0.01135200 0.04730000
v 0.29427000 0.01135200 0.04720000
v 0.29424600 0.01134700 0.04730000
v 0.29424600 0.01134700 0.04720000
v 0.29422400 0.01134200 0.04730000
v 0.29422400 0.01134200 0.04730000
v 0.29422400 0.01134200 0.04720000
v 0.29401500 0.01130100 0.04730000
v 0.29401500 0.01130100 0.04720000
v 0.29401500 0.01130100 0.04720000
v 0.29401200 0.01132600 0.04730000
v 0.29401500 0.01130100 0.04730000
v 0.29401200 0.01132600 0.04720000
v 0.29401500 0.01130100 0.04720000
v 0.29396900 0.01179700 0.04730000
v 0.29396900 0.01179700 0.04730000
v 0.29396900 0.01179700 0.04730000
v 0.29396900 0.01179700 0.04720000
v 0.29396900 0.01179700 0.04720000
v 0.29390400 0.01250700 0.04730000
v 0.29390400 0.01250700 0.04720000
v 0.29390400 0.01250700 0.04720000
v 0.29390300 0.01251600 0.04730000
v 0.29390300 0.01251600 0.04720000
v 0.29388000 0.01260100 0.04720000
v 0.29388000 0.01260100 0.04730000
v 0.29382700 0.01267300 0.04720000
v 0.29382700 0.01267300 0.04730000
v 0.29380100 0.01269400 0.04720000
v 0.29380100 0.01269400 0.04730000
v 0.29372400 0.01273200 0.04720000
v 0.29372400 0.01273200 0.04730000
v 0.29364100 0.01274100 0.04720000
v 0.29364100 0.01274100 0.04730000
v 0.29355500 0.01272100 0.04720000
v 0.29355500 0.01272100 0.04730000
v 0.29348100 0.01267000 0.04720000
v 0.29348100 0.01267000 0.04730000
v 0.29345300 0.01263800 0.04720000
v 0.29345300 0.01263800 0.04730000
v 0.29341500 0.01256100 0.04720000
v 0.29341500 0.01256100 0.04730000
v 0.29340600 0.01247800 0.04720000
v 0.29340600 0.01247800 0.04730000
v 0.29341600 0.01242200 0.04720000
v 0.29341600 0.01242200 0.04730000
v 0.29352500 0.01128200 0.04730000
v 0.29352500 0.01128200 0.04720000
v 0.29352700 0.01125700 0.04720000
v 0.29352700 0.01125700 0.04730000
v 0.29353000 0.01123300 0.04720000
v 0.29353000 0.01123300 0.04730000
v 0.29353000 0.01123300 0.04730000
v 0.29353100 0.01121500 0.04720000
v 0.29353100 0.01121500 0.04720000
v 0.29353100 0.01121500 0.04720000
v 0.29353100 0.01121500 0.04730000
v 0.29353100 0.01121500 0.04730000
v 0.29353300 0.01119600 0.04720000
v 0.29353300 0.01119600 0.04730000
v 0.29353300 0.01119600 0.04730000
v 0.29353300 0.01119600 0.04720000
v 0.29351500 0.01119500 0.04720000
v 0.29351500 0.01119500 0.04730000
v 0.29349700 0.01119200 0.04720000
v 0.29349700 0.01119200 0.04730000
v 0.29349500 0.01119200 0.04730000
v 0.29349500 0.01119200 0.04720000
v 0.29344600 0.01118100 0.04730000
v 0.29344600 0.01118100 0.04730000
v 0.29344600 0.01118100 0.04720000
v 0.29330800 0.01115100 0.04730000
v 0.29330800 0.01115100 0.04730000
v 0.29330800 0.01115100 0.04730000
v 0.29330800 0.01115100 0.04720000
v 0.29330800 0.01115100 0.04720000
v 0.29330800 0.01115100 0.04720000
v 0.29322700 0.01113300 0.04730000
v 0.29322700 0.01113300 0.04730000
v 0.29322700 0.01113300 0.04720000
v 0.29322700 0.01113300 0.04720000
v 0.29322700 0.01113300 0.04720000
v 0.29228200 0.01092400 0.04730000
v 0.29228200 0.01092400 0.04720000
v 0.29227100 0.01092100 0.04730000
v 0.29227100 0.01092100 0.04720000
v 0.29219300 0.01088700 0.04720000
v 0.29219300 0.01088700 0.04730000
v 0.29212900 0.01082600 0.04720000
v 0.29212900 0.01082600 0.04730000
v 0.29209100 0.01074800 0.04720000
v 0.29209100 0.01074800 0.04730000
v 0.29208200 0.01066500 0.04720000
v 0.29208200 0.01066500 0.04730000
v 0.29210300 0.01057900 0.04720000
v 0.29210300 0.01057900 0.04730000
v 0.29215300 0.01050400 0.04720000
v 0.29215300 0.01050400 0.04730000
v 0.29218500 0.01047700 0.04720000
v 0.29218500 0.01047700 0.04730000
v 0.29226400 0.01043900 0.04720000
v 0.29226400 0.01043900 0.04730000
v 0.29234700 0.01043000 0.04720000
v 0.29234700 0.01043000 0.04730000
v 0.29238600 0.01043600 0.04720000
v 0.29238600 0.01043600 0.04730000
v 0.29239400 0.01043800 0.04730000
v 0.29239400 0.01043800 0.04720000
v 0.29309100 0.01059500 0.04730000
v 0.29309100 0.01059500 0.04720000
v 0.29333200 0.01065000 0.04730000
v 0.29333200 0.01065000 0.04720000
v 0.29335700 0.01065400 0.04730000
v 0.29335700 0.01065400 0.04720000
v 0.29337800 0.01065800 0.04730000
v 0.29337800 0.01065800 0.04730000
v 0.29337800 0.01065800 0.04720000
v 0.29358800 0.01069900 0.04730000
v 0.29358800 0.01069900 0.04720000
v 0.29358800 0.01069900 0.04720000
v 0.29359100 0.01067500 0.04730000
v 0.29358800 0.01069900 0.04730000
v 0.29359100 0.01067500 0.04720000
v 0.29358800 0.01069900 0.04720000
v 0.29363300 0.01020400 0.04730000
v 0.29363300 0.01020400 0.04720000
v 0.29369900 0.00949300 0.04730000
v 0.29369900 0.00949300 0.04720000
v 0.29369900 0.00948400 0.04730000
v 0.29369900 0.00948400 0.04720000
v 0.29372300 0.00940000 0.04720000
v 0.29372300 0.00940000 0.04730000
v 0.29377600 0.00932800 0.04720000
v 0.29377600 0.00932800 0.04730000
v 0.29380100 0.00930700 0.04720000
v 0.29380100 0.00930700 0.04730000
v 0.29387900 0.00926900 0.04720000
v 0.29387900 0.00926900 0.04730000
v 0.29396200 0.00926000 0.04720000
v 0.29396200 0.00926000 0.04730000
v 0.29404800 0.00928000 0.04720000
v 0.29404800 0.00928000 0.04730000
v 0.29412200 0.00933100 0.04720000
v 0.29412200 0.00933100 0.04730000
v 0.29234700 0.01043000 0.04730000
v 0.29234700 0.01043000 0.04730000
v 0.29234700 0.01043000 0.04730000
v 0.29238600 0.01043600 0.04730000
v 0.29238600 0.01043600 0.04730000
v 0.29227100 0.01092100 0.04730000
v 0.29227100 0.01092100 0.04730000
v 0.29227100 0.01092100 0.04730000
v 0.29239400 0.01043800 0.04730000
v 0.29239400 0.01043800 0.04730000
v 0.29239400 0.01043800 0.04730000
v 0.29407100 0.01078600 0.04730000
v 0.29407100 0.01078600 0.04730000
v 0.29406900 0.01080400 0.04730000
v 0.29358800 0.01069900 0.04730000
v 0.29358800 0.01069900 0.04730000
v 0.29358800 0.01069900 0.04730000
v 0.29358800 0.01069900 0.04730000
v 0.29358800 0.01069900 0.04730000
v 0.29358800 0.01069900 0.04730000
v 0.29358800 0.01069900 0.04730000
v 0.29358800 0.01069900 0.04730000
v 0.29358800 0.01069900 0.04730000
v 0.29531900 0.01107700 0.04730000
v 0.29531900 0.01107700 0.04730000
v 0.29531900 0.01107700 0.04730000
v 0.29531900 0.01107700 0.04730000
v 0.29531900 0.01107700 0.04730000
v 0.29533200 0.01108000 0.04730000
v 0.29541000 0.01111400 0.04730000
v 0.29541000 0.01111400 0.04730000
v 0.29401200 0.01132600 0.04730000
v 0.29401200 0.01132600 0.04730000
v 0.29353000 0.01123300 0.04730000
v 0.29353000 0.01123300 0.04730000
v 0.29353100 0.01121500 0.04730000
v 0.29353100 0.01121500 0.04730000
v 0.29353100 0.01121500 0.04730000
v 0.29401500 0.01130100 0.04730000
v 0.29401500 0.01130100 0.04730000
v 0.29353300 0.01119600 0.04730000
v 0.29353300 0.01119600 0.04730000
v 0.29353300 0.01119600 0.04730000
v 0.29401500 0.01130100 0.04730000
v 0.29401500 0.01130100 0.04730000
v 0.29401500 0.01130100 0.04730000
v 0.29401500 0.01130100 0.04730000
v 0.29401500 0.01130100 0.04730000
v 0.29351500 0.01119500 0.04730000
v 0.29351500 0.01119500 0.04730000
v 0.29349700 0.01119200 0.04730000
v 0.29349700 0.01119200 0.04730000
v 0.29406900 0.01080400 0.04730000
v 0.29408700 0.01080600 0.04730000
v 0.29408700 0.01080600 0.04730000
v 0.29410600 0.01080900 0.04730000
v 0.29410600 0.01080900 0.04730000
v 0.29418700 0.00957800 0.04730000
v 0.29418700 0.00957800 0.04730000
v 0.29369900 0.00949300 0.04730000
v 0.29369900 0.00949300 0.04730000
v 0.29369900 0.00948400 0.04730000
v 0.29369900 0.00948400 0.04730000
v 0.29372300 0.00940000 0.04730000
v 0.29363300 0.01020400 0.04730000
v 0.29363300 0.01020400 0.04730000
v 0.29407700 0.01071900 0.04730000
v 0.29407700 0.01071900 0.04730000
v 0.29359100 0.01067500 0.04730000
v 0.29359100 0.01067500 0.04730000
v 0.29359100 0.01067500 0.04730000
v 0.29407700 0.01071900 0.04730000
v 0.29407500 0.01074400 0.04730000
v 0.29407500 0.01074400 0.04730000
v 0.29407500 0.01074400 0.04730000
v 0.29407200 0.01076800 0.04730000
v 0.29407200 0.01076800 0.04730000
v 0.29352700 0.01125700 0.04730000
v 0.29352700 0.01125700 0.04730000
v 0.29401200 0.01132600 0.04730000
v 0.29401200 0.01132600 0.04730000
v 0.29401200 0.01132600 0.04730000
v 0.29352500 0.01128200 0.04730000
v 0.29352500 0.01128200 0.04730000
v 0.29352500 0.01128200 0.04730000
v 0.29396900 0.01179700 0.04730000
v 0.29396900 0.01179700 0.04730000
v 0.29341600 0.01242200 0.04730000
v 0.29341600 0.01242200 0.04730000
v 0.29341600 0.01242200 0.04730000
v 0.29396900 0.01179700 0.04730000
v 0.29390400 0.01250700 0.04730000
v 0.29390400 0.01250700 0.04730000
v 0.29340600 0.01247800 0.04730000
v 0.29340600 0.01247800 0.04730000
v 0.29340600 0.01247800 0.04730000
v 0.29340600 0.01247800 0.04730000
v 0.29340600 0.01247800 0.04730000
v 0.29390400 0.01250700 0.04730000
v 0.29390300 0.01251600 0.04730000
v 0.29390300 0.01251600 0.04730000
v 0.29388000 0.01260100 0.04730000
v 0.29388000 0.01260100 0.04730000
v 0.29382700 0.01267300 0.04730000
v 0.29382700 0.01267300 0.04730000
v 0.29380100 0.01269400 0.04730000
v 0.29380100 0.01269400 0.04730000
v 0.29380100 0.01269400 0.04730000
v 0.29228200 0.01092400 0.04730000
v 0.29228200 0.01092400 0.04730000
v 0.29309100 0.01059500 0.04730000
v 0.29322700 0.01113300 0.04730000
v 0.29451100 0.01140600 0.04730000
v 0.29437500 0.01086800 0.04730000
v 0.29437500 0.01086800 0.04730000
v 0.29520700 0.01156300 0.04730000
v 0.29520700 0.01156300 0.04730000
v 0.29531900 0.01107700 0.04730000
v 0.29531900 0.01107700 0.04730000
v 0.29521600 0.01156500 0.04730000
v 0.29525500 0.01157100 0.04730000
v 0.29415600 0.01082000 0.04730000
v 0.29415600 0.01082000 0.04730000
v 0.29422400 0.01134200 0.04730000
v 0.29422400 0.01134200 0.04730000
v 0.29415600 0.01082000 0.04730000
v 0.29429400 0.01085000 0.04730000
v 0.29429400 0.01085000 0.04730000
v 0.29424600 0.01134700 0.04730000
v 0.29424600 0.01134700 0.04730000
v 0.29429400 0.01085000 0.04730000
v 0.29437500 0.01086800 0.04730000
v 0.29437500 0.01086800 0.04730000
v 0.29427000 0.01135200 0.04730000
v 0.29349500 0.01119200 0.04730000
v 0.29349500 0.01119200 0.04730000
v 0.29344600 0.01118100 0.04730000
v 0.29344600 0.01118100 0.04730000
v 0.29337800 0.01065800 0.04730000
v 0.29337800 0.01065800 0.04730000
v 0.29337800 0.01065800 0.04730000
v 0.29344600 0.01118100 0.04730000
v 0.29330800 0.01115100 0.04730000
v 0.29330800 0.01115100 0.04730000
v 0.29335700 0.01065400 0.04730000
v 0.29335700 0.01065400 0.04730000
v 0.29335700 0.01065400 0.04730000
v 0.29330800 0.01115100 0.04730000
v 0.29322700 0.01113300 0.04730000
v 0.29322700 0.01113300 0.04730000
v 0.29333200 0.01065000 0.04730000
v 0.29377600 0.00932800 0.04730000
v 0.29377600 0.00932800 0.04730000
v 0.29418700 0.00957800 0.04730000
v 0.29418700 0.00957800 0.04730000
v 0.29380100 0.00930700 0.04730000
v 0.29380100 0.00930700 0.04730000
v 0.29380100 0.00930700 0.04730000
v 0.29419600 0.00952300 0.04730000
v 0.29418700 0.00944000 0.04730000
v 0.29364100 0.01274100 0.04730000
v 0.29355500 0.01272100 0.04730000
v 0.29372400 0.01273200 0.04730000
v 0.29348100 0.01267000 0.04730000
v 0.29348100 0.01267000 0.04730000
v 0.29380100 0.01269400 0.04730000
v 0.29345300 0.01263800 0.04730000
v 0.29345300 0.01263800 0.04730000
v 0.29341500 0.01256100 0.04730000
v 0.29208200 0.01066500 0.04730000
v 0.29210300 0.01057900 0.04730000
v 0.29210300 0.01057900 0.04730000
v 0.29209100 0.01074800 0.04730000
v 0.29209100 0.01074800 0.04730000
v 0.29209100 0.01074800 0.04730000
v 0.29215300 0.01050400 0.04730000
v 0.29215300 0.01050400 0.04730000
v 0.29215300 0.01050400 0.04730000
v 0.29215300 0.01050400 0.04730000
v 0.29396200 0.00926000 0.04730000
v 0.29404800 0.00928000 0.04730000
v 0.29387900 0.00926900 0.04730000
v 0.29412200 0.00933100 0.04730000
v 0.29412200 0.00933100 0.04730000
v 0.29415000 0.00936200 0.04730000
v 0.29415000 0.00936200 0.04730000
v 0.29212900 0.01082600 0.04730000
v 0.29219300 0.01088700 0.04730000
v 0.29219300 0.01088700 0.04730000
v 0.29219300 0.01088700 0.04730000
v 0.29227100 0.01092100 0.04730000
v 0.29227100 0.01092100 0.04730000
v 0.29227100 0.01092100 0.04730000
v 0.29218500 0.01047700 0.04730000
v 0.29218500 0.01047700 0.04730000
v 0.29218500 0.01047700 0.04730000
v 0.29226400 0.01043900 0.04730000
v 0.29547300 0.01117500 0.04730000
v 0.29547300 0.01117500 0.04730000
v 0.29551100 0.01125300 0.04730000
v 0.29551100 0.01125300 0.04730000
v 0.29552000 0.01133600 0.04730000
v 0.29552000 0.01133600 0.04730000
v 0.29552000 0.01133600 0.04730000
v 0.29533900 0.01156200 0.04730000
v 0.29541700 0.01152400 0.04730000
v 0.29544900 0.01149600 0.04730000
v 0.29544900 0.01149600 0.04730000
v 0.29549900 0.01142200 0.04730000
v 0.29239400 0.01043800 0.04720000
v 0.29239400 0.01043800 0.04720000
v 0.29239400 0.01043800 0.04720000
v 0.29238600 0.01043600 0.04720000
v 0.29234700 0.01043000 0.04720000
v 0.29401200 0.01132600 0.04720000
v 0.29401200 0.01132600 0.04720000
v 0.29401200 0.01132600 0.04720000
v 0.29401200 0.01132600 0.04720000
v 0.29401500 0.01130100 0.04720000
v 0.29401500 0.01130100 0.04720000
v 0.29401500 0.01130100 0.04720000
v 0.29401500 0.01130100 0.04720000
v 0.29358800 0.01069900 0.04720000
v 0.29358800 0.01069900 0.04720000
v 0.29358800 0.01069900 0.04720000
v 0.29358800 0.01069900 0.04720000
v 0.29358800 0.01069900 0.04720000
v 0.29358800 0.01069900 0.04720000
v 0.29358800 0.01069900 0.04720000
v 0.29358800 0.01069900 0.04720000
v 0.29407200 0.01076800 0.04720000
v 0.29407200 0.01076800 0.04720000
v 0.29407500 0.01074400 0.04720000
v 0.29407500 0.01074400 0.04720000
v 0.29407500 0.01074400 0.04720000
v 0.29415600 0.01082000 0.04720000
v 0.29415600 0.01082000 0.04720000
v 0.29410600 0.01080900 0.04720000
v 0.29410600 0.01080900 0.04720000
v 0.29408700 0.01080600 0.04720000
v 0.29408700 0.01080600 0.04720000
v 0.29406900 0.01080400 0.04720000
v 0.29406900 0.01080400 0.04720000
v 0.29406900 0.01080400 0.04720000
v 0.29407100 0.01078600 0.04720000
v 0.29407100 0.01078600 0.04720000
v 0.29390300 0.01251600 0.04720000
v 0.29390300 0.01251600 0.04720000
v 0.29390300 0.01251600 0.04720000
v 0.29390400 0.01250700 0.04720000
v 0.29390400 0.01250700 0.04720000
v 0.29340600 0.01247800 0.04720000
v 0.29340600 0.01247800 0.04720000
v 0.29340600 0.01247800 0.04720000
v 0.29341600 0.01242200 0.04720000
v 0.29341600 0.01242200 0.04720000
v 0.29369900 0.00948400 0.04720000
v 0.29369900 0.00948400 0.04720000
v 0.29369900 0.00949300 0.04720000
v 0.29418700 0.00957800 0.04720000
v 0.29418700 0.00957800 0.04720000
v 0.29407700 0.01071900 0.04720000
v 0.29363300 0.01020400 0.04720000
v 0.29359100 0.01067500 0.04720000
v 0.29359100 0.01067500 0.04720000
v 0.29330800 0.01115100 0.04720000
v 0.29330800 0.01115100 0.04720000
v 0.29344600 0.01118100 0.04720000
v 0.29344600 0.01118100 0.04720000
v 0.29349500 0.01119200 0.04720000
v 0.29349500 0.01119200 0.04720000
v 0.29349700 0.01119200 0.04720000
v 0.29349700 0.01119200 0.04720000
v 0.29353000 0.01123300 0.04720000
v 0.29353000 0.01123300 0.04720000
v 0.29353100 0.01121500 0.04720000
v 0.29353100 0.01121500 0.04720000
v 0.29353300 0.01119600 0.04720000
v 0.29351500 0.01119500 0.04720000
v 0.29429400 0.01085000 0.04720000
v 0.29422400 0.01134200 0.04720000
v 0.29422400 0.01134200 0.04720000
v 0.29437500 0.01086800 0.04720000
v 0.29437500 0.01086800 0.04720000
v 0.29437500 0.01086800 0.04720000
v 0.29437500 0.01086800 0.04720000
v 0.29437500 0.01086800 0.04720000
v 0.29424600 0.01134700 0.04720000
v 0.29424600 0.01134700 0.04720000
v 0.29427000 0.01135200 0.04720000
v 0.29427000 0.01135200 0.04720000
v 0.29372300 0.00940000 0.04720000
v 0.29377600 0.00932800 0.04720000
v 0.29377600 0.00932800 0.04720000
v 0.29380100 0.00930700 0.04720000
v 0.29380100 0.00930700 0.04720000
v 0.29419600 0.00952300 0.04720000
v 0.29419600 0.00952300 0.04720000
v 0.29337800 0.01065800 0.04720000
v 0.29337800 0.01065800 0.04720000
v 0.29335700 0.01065400 0.04720000
v 0.29335700 0.01065400 0.04720000
v 0.29322700 0.01113300 0.04720000
v 0.29388000 0.01260100 0.04720000
v 0.29382700 0.01267300 0.04720000
v 0.29382700 0.01267300 0.04720000
v 0.29382700 0.01267300 0.04720000
v 0.29380100 0.01269400 0.04720000
v 0.29380100 0.01269400 0.04720000
v 0.29380100 0.01269400 0.04720000
v 0.29341500 0.01256100 0.04720000
v 0.29341500 0.01256100 0.04720000
v 0.29352700 0.01125700 0.04720000
v 0.29352700 0.01125700 0.04720000
v 0.29352500 0.01128200 0.04720000
v 0.29352500 0.01128200 0.04720000
v 0.29352500 0.01128200 0.04720000
v 0.29396900 0.01179700 0.04720000
v 0.29451100 0.01140600 0.04720000
v 0.29451100 0.01140600 0.04720000
v 0.29520700 0.01156300 0.04720000
v 0.29520700 0.01156300 0.04720000
v 0.29520700 0.01156300 0.04720000
v 0.29531900 0.01107700 0.04720000
v 0.29531900 0.01107700 0.04720000
v 0.29531900 0.01107700 0.04720000
v 0.29521600 0.01156500 0.04720000
v 0.29521600 0.01156500 0.04720000
v 0.29521600 0.01156500 0.04720000
v 0.29533200 0.01108000 0.04720000
v 0.29533200 0.01108000 0.04720000
v 0.29533200 0.01108000 0.04720000
v 0.29533200 0.01108000 0.04720000
v 0.29533200 0.01108000 0.04720000
v 0.29525500 0.01157100 0.04720000
v 0.29525500 0.01157100 0.04720000
v 0.29533900 0.01156200 0.04720000
v 0.29533900 0.01156200 0.04720000
v 0.29412200 0.00933100 0.04720000
v 0.29412200 0.00933100 0.04720000
v 0.29412200 0.00933100 0.04720000
v 0.29404800 0.00928000 0.04720000
v 0.29396200 0.00926000 0.04720000
v 0.29396200 0.00926000 0.04720000
v 0.29333200 0.01065000 0.04720000
v 0.29309100 0.01059500 0.04720000
v 0.29228200 0.01092400 0.04720000
v 0.29228200 0.01092400 0.04720000
v 0.29227100 0.01092100 0.04720000
v 0.29227100 0.01092100 0.04720000
v 0.29227100 0.01092100 0.04720000
v 0.29227100 0.01092100 0.04720000
v 0.29348100 0.01267000 0.04720000
v 0.29348100 0.01267000 0.04720000
v 0.29355500 0.01272100 0.04720000
v 0.29364100 0.01274100 0.04720000
v 0.29364100 0.01274100 0.04720000
v 0.29387900 0.00926900 0.04720000
v 0.29387900 0.00926900 0.04720000
v 0.29415000 0.00936200 0.04720000
v 0.29418700 0.00944000 0.04720000
v 0.29210300 0.01057900 0.04720000
v 0.29208200 0.01066500 0.04720000
v 0.29215300 0.01050400 0.04720000
v 0.29215300 0.01050400 0.04720000
v 0.29215300 0.01050400 0.04720000
v 0.29209100 0.01074800 0.04720000
v 0.29209100 0.01074800 0.04720000
v 0.29212900 0.01082600 0.04720000
v 0.29212900 0.01082600 0.04720000
v 0.29345300 0.01263800 0.04720000
v 0.29345300 0.01263800 0.04720000
v 0.29372400 0.01273200 0.04720000
v 0.29226400 0.01043900 0.04720000
v 0.29218500 0.01047700 0.04720000
v 0.29218500 0.01047700 0.04720000
v 0.29218500 0.01047700 0.04720000
v 0.29219300 0.01088700 0.04720000
v 0.29549900 0.01142200 0.04720000
v 0.29552000 0.01133600 0.04720000
v 0.29552000 0.01133600 0.04720000
v 0.29544900 0.01149600 0.04720000
v 0.29544900 0.01149600 0.04720000
v 0.29544900 0.01149600 0.04720000
v 0.29544900 0.01149600 0.04720000
v 0.29551100 0.01125300 0.04720000
v 0.29547300 0.01117500 0.04720000
v 0.29547300 0.01117500 0.04720000
v 0.29541700 0.01152400 0.04720000
v 0.29541700 0.01152400 0.04720000
v 0.29541000 0.01111400 0.04720000
v 0.29541000 0.01111400 0.04720000
vn 0.85901400 -0.51195200 -0.00001700
vn 0.81162900 -0.58417400 0.00001900
vn 0.94360500 -0.33107200 -0.00000200
vn 0.97549000 -0.22004400 0.00000000
vn 0.99988900 -0.01493000 -0.00001800
vn 0.99691800 0.07844900 0.00000000
vn 0.98934100 0.14561900 0.00000000
vn 0.99269000 0.12069600 0.00000000
vn 0.99706700 0.07653500 0.00000000
vn 0.99628800 0.08608500 0.00000000
vn 0.99618500 0.08727100 0.00000000
vn 0.99419900 0.10755900 0.00000000
vn 0.99493700 0.10050200 0.00000000
vn 0.99732600 0.07308000 0.00000000
vn 0.99788200 0.06504500 0.00000000
vn 0.99642700 0.08445600 -0.00000500
vn 0.99459700 0.10381000 0.00000000
vn 0.99458600 0.10391700 0.00000000
vn 0.10239000 -0.99474400 0.00000000
vn 0.10230900 -0.99475300 0.00000000
vn 0.11552600 -0.99330400 0.00000000
vn 0.12879000 -0.99167200 0.00000000
vn 0.16562200 -0.98618900 0.00000600
vn 0.18901700 -0.98197400 0.00000000
vn 0.21522200 -0.97656500 0.00000000
vn 0.21503400 -0.97660600 -0.00000100
vn 0.21518900 -0.97657200 0.00000000
vn 0.21364300 -0.97691200 0.00000000
vn 0.21378500 -0.97688100 0.00000000
vn 0.21564300 -0.97647200 0.00000000
vn 0.21560700 -0.97648000 0.00000000
vn 0.21512100 -0.97658700 0.00000000
vn 0.21603200 -0.97638600 0.00000000
vn 0.21611100 -0.97636900 0.00000000
vn 0.21560700 -0.97648000 0.00000000
vn 0.21544800 -0.97651500 0.00000000
vn 0.21557400 -0.97648700 0.00000000
vn 0.21498000 -0.97661800 0.00000000
vn 0.21513900 -0.97658300 0.00000000
vn 0.21557400 -0.97648800 0.00000000
vn 0.22905500 -0.97341300 0.00000000
vn 0.22227200 -0.97498500 0.00000000
vn 0.34880100 -0.93719700 0.00001600
vn 0.29271600 -0.95619900 0.00000000
vn 0.50634700 -0.86233000 0.00000000
vn 0.60361600 -0.79727500 -0.00002800
vn 0.77150600 -0.63622300 0.00000000
vn 0.84162000 -0.54007000 -0.00002800
vn 0.94314500 -0.33238100 0.00002200
vn 0.97519100 -0.22136700 0.00000000
vn 0.99998500 0.00549300 0.00002000
vn 0.99263000 0.12118800 0.00000000
vn 0.93760900 0.34769100 0.00002300
vn 0.88893500 0.45803300 0.00000000
vn 0.77574000 0.63105200 0.00001700
vn 0.71679900 0.69727900 0.00000000
vn 0.58495000 0.81106900 0.00002100
vn 0.51233900 0.85878300 0.00000000
vn 0.33097600 0.94363900 0.00000000
vn 0.21982000 0.97554000 0.00000000
vn 0.02456200 0.99969800 0.00000000
vn -0.05880800 0.99826900 0.00000000
vn -0.16316500 0.98659900 0.00000500
vn -0.18496200 0.98274600 0.00000000
vn -0.21627200 0.97633300 0.00000000
vn -0.21628600 0.97633000 0.00000000
vn -0.21158100 0.97736100 0.00000000
vn -0.21862600 0.97580900 0.00000000
vn -0.21864700 0.97580400 0.00000000
vn -0.21988900 0.97552500 0.00000000
vn -0.21982700 0.97553900 0.00000000
vn -0.21980500 0.97554400 0.00000000
vn -0.20942200 0.97782500 0.00000000
vn -0.21329300 0.97698800 0.00000000
vn -0.20121000 0.97954800 0.00000000
vn -0.20322300 0.97913200 0.00000000
vn -0.19431900 0.98093800 0.00000000
vn -0.19432300 0.98093800 0.00000000
vn -0.19681600 0.98044000 0.00000000
vn -0.19201800 0.98139100 0.00000000
vn -0.19201800 0.98139100 0.00000000
vn -0.19206700 0.98138200 0.00000000
vn 0.99507700 0.09910100 0.00000000
vn 0.99326200 0.11589200 0.00000000
vn 0.99422100 0.10735000 0.00000000
vn 0.99327800 0.11574900 0.00000000
vn 0.99587500 0.09073400 0.00000000
vn 0.99585300 0.09097700 0.00000000
vn 0.99585000 0.09100700 0.00000000
vn 0.99587500 0.09073200 0.00000000
vn 0.99585000 0.09100700 0.00000000
vn 0.99638100 0.08500000 0.00000000
vn 0.99612100 0.08799900 0.00000000
vn 0.99613500 0.08783600 0.00000000
vn 0.97846300 0.20642100 0.00000000
vn 0.98952800 0.14434000 0.00000000
vn 0.92456300 0.38102800 0.00000000
vn 0.87145100 0.49048300 -0.00002100
vn 0.75504600 0.65567200 -0.00000200
vn 0.69816000 0.71594200 0.00000200
vn 0.57486800 0.81824600 0.00000000
vn 0.50898200 0.86077700 0.00000000
vn 0.33489800 0.94225400 0.00000000
vn 0.22362700 0.97467500 0.00000000
vn -0.00387200 0.99999300 0.00000000
vn -0.11985300 0.99279200 0.00000000
vn -0.34679600 0.93794100 -0.00000200
vn -0.45729500 0.88931500 0.00000000
vn -0.63082600 0.77592500 0.00000000
vn -0.69735100 0.71673000 -0.00001700
vn -0.81119000 0.58478300 0.00000000
vn -0.85870900 0.51246400 0.00000000
vn -0.94352000 0.33131500 0.00000000
vn -0.97546800 0.22014300 -0.00002800
vn -0.99988800 0.01498600 0.00000000
vn -0.99692800 -0.07832700 -0.00001800
vn -0.98935900 -0.14549200 0.00000000
vn -0.99268900 -0.12069900 0.00000000
vn -0.99733600 -0.07293800 0.00000000
vn -0.99643700 -0.08434300 0.00000000
vn -0.99702700 -0.07705500 -0.00000000
vn -0.99571100 -0.09251700 -0.00000300
vn -0.99504300 -0.09944500 0.00000000
vn -0.99585400 -0.09097100 0.00000000
vn -0.99585200 -0.09098500 0.00000000
vn -0.99606700 -0.08860600 0.00000000
vn -0.99606300 -0.08864700 0.00000000
vn -0.99606400 -0.08863400 0.00000100
vn -0.99549500 -0.09480900 -0.00000000
vn -0.99549600 -0.09480800 -0.00000000
vn -0.99488800 -0.10098500 0.00000000
vn -0.99484300 -0.10142500 0.00000000
vn -0.09599800 0.99538200 0.00000000
vn -0.09612300 0.99536900 0.00000000
vn -0.11350900 0.99353700 0.00000300
vn -0.13088900 0.99139700 -0.00000400
vn -0.12026900 0.99274100 0.00000000
vn -0.09215100 0.99574500 0.00000000
vn -0.17051400 0.98535500 0.00000000
vn -0.11731800 0.99309400 0.00000000
vn -0.21603400 0.97638600 0.00000000
vn -0.21610200 0.97637100 0.00000000
vn -0.21939600 0.97563600 0.00000000
vn -0.21388100 0.97686000 0.00000000
vn -0.21473600 0.97667200 0.00000000
vn -0.21451600 0.97672000 0.00000000
vn -0.21275700 0.97710500 0.00000000
vn -0.21319300 0.97701000 0.00000000
vn -0.21323700 0.97700000 0.00000100
vn -0.21559300 0.97648300 0.00000000
vn -0.21606500 0.97637900 0.00000000
vn -0.21506400 0.97660000 0.00000000
vn -0.21559600 0.97648300 0.00000000
vn -0.21507800 0.97659700 0.00000000
vn -0.22363800 0.97467200 0.00000000
vn -0.21986700 0.97553000 0.00000000
vn -0.34490700 0.93863700 -0.00001100
vn -0.28674300 0.95800800 0.00000000
vn -0.50541800 0.86287400 0.00000000
vn -0.60360800 0.79728100 -0.00000100
vn -0.77192000 0.63571900 0.00000000
vn -0.84181600 0.53976500 0.00000000
vn -0.94315000 0.33236800 0.00000000
vn -0.97519000 0.22137100 0.00000000
vn -0.99998300 -0.00575800 0.00000000
vn -0.99256700 -0.12169600 0.00000000
vn -0.93746900 -0.34807000 0.00000000
vn -0.88888500 -0.45813100 -0.00002900
vn -0.77603600 -0.63068900 0.00000000
vn -0.71726800 -0.69679800 0.00000000
vn -0.58542700 -0.81072500 0.00000000
vn -0.51261400 -0.85861900 -0.00001700
vn -0.33038000 -0.94384800 0.00002200
vn -0.21863000 -0.97580800 0.00000200
vn -0.02195100 -0.99975900 0.00002000
vn 0.06203700 -0.99807400 0.00000000
vn 0.18648300 -0.98245800 0.00000000
vn 0.22758000 -0.97375900 0.00000000
vn 0.23613600 -0.97172000 0.00000000
vn 0.25222200 -0.96766900 0.00000000
vn 0.22066200 -0.97535000 0.00000000
vn 0.22064900 -0.97535300 0.00000000
vn 0.18072500 -0.98353400 0.00000000
vn 0.20111900 -0.97956700 0.00000000
vn 0.18598200 -0.98255300 -0.00000300
vn 0.17316100 -0.98489300 0.00000000
vn 0.19413700 -0.98097400 0.00000000
vn 0.19416400 -0.98096900 0.00000000
vn 0.19633700 -0.98053600 0.00000000
vn 0.19206700 -0.98138200 -0.00000000
vn 0.19182600 -0.98142900 0.00000000
vn 0.19206700 -0.98138200 0.00000000
vn -0.99512000 -0.09867000 0.00000000
vn -0.99341800 -0.11454800 -0.00000000
vn -0.99431000 -0.10652500 0.00000000
vn -0.99341400 -0.11457900 0.00000000
vn -0.99584500 -0.09106500 0.00000000
vn -0.99584600 -0.09105500 0.00000000
vn -0.99766200 -0.06834700 0.00000000
vn -0.99681200 -0.07978600 0.00000000
vn -0.97998700 -0.19906200 -0.00002000
vn -0.99176300 -0.12808800 0.00001200
vn -0.92417100 -0.38198000 0.00002900
vn -0.87102400 -0.49124000 -0.00002900
vn -0.75448000 -0.65632300 0.00001600
vn -0.69740600 -0.71667600 -0.00000000
vn -0.57373200 -0.81904300 0.00000000
vn -0.50754300 -0.86162600 0.00000000
vn -0.33319000 -0.94286000 0.00002200
vn -0.22197200 -0.97505300 -0.00002800
vn 0.00532500 -0.99998600 0.00000000
vn 0.12111500 -0.99263900 -0.00002200
vn 0.34793700 -0.93751800 0.00000000
vn 0.45848900 -0.88870000 0.00000000
vn 0.63178000 -0.77514700 0.00000000
vn 0.69812800 -0.71597300 0.00000000
vn -0.00002100 0.00000200 1.00000000
vn 0.00018600 -0.00001900 1.00000000
vn 0.00000000 0.00000000 1.00000000
vn 0.00018600 -0.00001900 1.00000000
vn -0.00005200 0.00000500 1.00000000
vn -0.00013700 0.00001400 1.00000000
vn -0.00005200 0.00000500 1.00000000
vn 0.00018600 -0.00001900 1.00000000
vn -0.00013700 0.00001400 1.00000000
vn 0.00000000 0.00000000 1.00000000
vn -0.00005200 0.00000500 1.00000000
vn 0.00000000 0.00000000 1.00000000
vn 0.00005200 -0.00000500 1.00000000
vn 0.00000000 0.00000000 1.00000000
vn -0.00003300 0.00000400 1.00000000
vn -0.00025200 0.00002600 1.00000000
vn -0.00012000 0.00001200 1.00000000
vn -0.00001800 0.00000200 1.00000000
vn -0.00001500 0.00000100 1.00000000
vn 0.00005200 -0.00000500 1.00000000
vn 0.00007600 -0.00000800 1.00000000
vn -0.00001900 0.00000200 1.00000000
vn 0.00000000 0.00000000 1.00000000
vn 0.00027100 -0.00002800 1.00000000
vn 0.00003600 -0.00000400 1.00000000
vn -0.00004400 0.00000400 1.00000000
vn 0.00000000 0.00000000 1.00000000
vn -0.00011000 0.00001100 1.00000000
vn 0.00000000 0.00000000 1.00000000
vn -0.00004400 0.00000400 1.00000000
vn 0.00000000 0.00000000 1.00000000
vn -0.00003800 0.00000400 1.00000000
vn 0.00000000 0.00000000 1.00000000
vn -0.00003800 0.00000400 1.00000000
vn 0.00000000 0.00000000 1.00000000
vn -0.00003800 0.00000400 1.00000000
vn 0.00003800 -0.00000400 1.00000000
vn 0.00000000 0.00000000 1.00000000
vn 0.00003800 -0.00000400 1.00000000
vn 0.00000000 0.00000000 1.00000000
vn -0.00001500 0.00000100 1.00000000
vn -0.00012100 0.00001200 1.00000000
vn 0.00003800 -0.00000400 1.00000000
vn -0.00000400 0.00000000 1.00000000
vn 0.00000000 0.00000000 1.00000000
vn -0.00001500 0.00000100 1.00000000
vn 0.00022200 -0.00002300 1.00000000
vn -0.00013800 0.00001400 1.00000000
vn -0.00025200 0.00002600 1.00000000
vn -0.00012000 0.00001200 1.00000000
vn -0.00025200 0.00002600 1.00000000
vn -0.00003400 0.00000300 1.00000000
vn -0.00013800 0.00001400 1.00000000
vn 0.00022200 -0.00002300 1.00000000
vn -0.00013800 0.00001400 1.00000000
vn -0.00000400 0.00000000 1.00000000
vn 0.00022200 -0.00002300 1.00000000
vn 0.00011600 -0.00001200 1.00000000
vn 0.00000000 0.00000000 1.00000000
vn 0.00011600 -0.00001200 1.00000000
vn 0.00000000 0.00000000 1.00000000
vn 0.00000000 0.00000000 1.00000000
vn 0.00011600 -0.00001200 1.00000000
vn 0.00000000 0.00000000 1.00000000
vn 0.00000000 0.00000000 1.00000000
vn -0.00000400 0.00000000 1.00000000
vn -0.00000400 0.00000000 1.00000000
vn 0.00000000 0.00000000 1.00000000
vn 0.00007600 -0.00000800 1.00000000
vn -0.00001900 0.00000200 1.00000000
vn -0.00000400 0.00000000 1.00000000
vn -0.00001900 0.00000200 1.00000000
vn -0.00001900 0.00000200 1.00000000
vn 0.00007600 -0.00000800 1.00000000
vn -0.00001900 0.00000200 1.00000000
vn 0.00005200 -0.00000500 1.00000000
vn -0.00001900 0.00000200 1.00000000
vn 0.00000000 0.00000000 1.00000000
vn 0.00007500 -0.00000800 1.00000000
vn -0.00001600 0.00000200 1.00000000
vn 0.00007500 -0.00000800 1.00000000
vn 0.00000000 0.00000000 1.00000000
vn -0.00001600 0.00000200 1.00000000
vn 0.00000600 -0.00000100 1.00000000
vn 0.00007500 -0.00000800 1.00000000
vn 0.00000600 -0.00000100 1.00000000
vn -0.00001600 0.00000200 1.00000000
vn 0.00000600 -0.00000100 1.00000000
vn 0.00002100 -0.00000200 1.00000000
vn 0.00001600 -0.00000200 1.00000000
vn 0.00002100 -0.00000200 1.00000000
vn 0.00001600 -0.00000200 1.00000000
vn 0.00002100 -0.00000200 1.00000000
vn -0.00004700 0.00000500 1.00000000
vn 0.00001600 -0.00000200 1.00000000
vn 0.00003200 -0.00000300 1.00000000
vn 0.00000000 0.00000000 1.00000000
vn 0.00001100 -0.00000100 1.00000000
vn -0.00004700 0.00000500 1.00000000
vn -0.00004700 0.00000500 1.00000000
vn 0.00000000 0.00000000 1.00000000
vn 0.00000000 0.00000000 1.00000000
vn 0.00001100 -0.00000100 1.00000000
vn 0.00001100 -0.00000100 1.00000000
vn 0.00003200 -0.00000300 1.00000000
vn 0.00003200 -0.00000300 1.00000000
vn -0.00004700 0.00000500 1.00000000
vn 0.00000000 0.00000000 1.00000000
vn -0.00013700 0.00001400 1.00000000
vn 0.00000000 0.00000000 1.00000000
vn 0.00000000 0.00000000 1.00000000
vn 0.00000000 0.00000000 1.00000000
vn 0.00000000 0.00000000 1.00000000
vn 0.00000000 0.00000000 1.00000000
vn 0.00000400 -0.00000000 1.00000000
vn 0.00000400 -0.00000000 1.00000000
vn 0.00000000 0.00000000 1.00000000
vn 0.00000400 -0.00000000 1.00000000
vn 0.00000000 0.00000000 1.00000000
vn 0.00000000 0.00000000 1.00000000
vn 0.00000000 0.00000000 1.00000000
vn -0.00000400 0.00000000 1.00000000
vn 0.00000000 0.00000000 1.00000000
vn 0.00000000 0.00000000 1.00000000
vn 0.00001300 -0.00000100 1.00000000
vn 0.00001300 -0.00000100 1.00000000
vn 0.00001300 -0.00000100 1.00000000
vn 0.00000000 0.00000000 1.00000000
vn 0.00000000 0.00000000 1.00000000
vn 0.00001600 -0.00000200 1.00000000
vn 0.00001600 -0.00000200 1.00000000
vn 0.00000000 0.00000000 1.00000000
vn 0.00001600 -0.00000200 1.00000000
vn 0.00000000 0.00000000 1.00000000
vn 0.00002000 -0.00000200 1.00000000
vn -0.00001800 0.00000200 1.00000000
vn -0.00001800 0.00000200 1.00000000
vn 0.00000000 0.00000000 1.00000000
vn 0.00000000 0.00000000 1.00000000
vn 0.00000800 -0.00000100 1.00000000
vn -0.00000700 0.00000100 1.00000000
vn -0.00000700 0.00000100 1.00000000
vn 0.00000900 -0.00000100 1.00000000
vn -0.00000700 0.00000100 1.00000000
vn 0.00000900 -0.00000100 1.00000000
vn 0.00004400 -0.00000400 1.00000000
vn 0.00000000 0.00000000 1.00000000
vn 0.00004400 -0.00000400 1.00000000
vn 0.00000000 0.00000000 1.00000000
vn 0.00004400 -0.00000400 1.00000000
vn 0.00000000 0.00000000 1.00000000
vn -0.00006800 0.00000700 1.00000000
vn 0.00000000 0.00000000 1.00000000
vn -0.00006800 0.00000700 1.00000000
vn 0.00000000 0.00000000 1.00000000
vn 0.00000000 0.00000000 1.00000000
vn -0.00006800 0.00000700 1.00000000
vn 0.00002400 -0.00000200 1.00000000
vn 0.00000000 0.00000000 1.00000000
vn 0.00000000 0.00000000 1.00000000
vn 0.00000000 0.00000000 1.00000000
vn 0.00000000 0.00000000 1.00000000
vn 0.00000000 0.00000000 1.00000000
vn 0.00000000 0.00000000 1.00000000
vn -0.00004700 0.00000500 1.00000000
vn 0.00000000 0.00000000 1.00000000
vn -0.00004700 0.00000500 1.00000000
vn 0.00000000 0.00000000 1.00000000
vn 0.00000000 0.00000000 1.00000000
vn 0.00000000 0.00000000 1.00000000
vn 0.00000000 0.00000000 1.00000000
vn 0.00005900 -0.00000600 1.00000000
vn 0.00005900 -0.00000600 1.00000000
vn 0.00000000 0.00000000 1.00000000
vn -0.00005400 0.00000600 1.00000000
vn -0.00002800 0.00000300 1.00000000
vn 0.00005900 -0.00000600 1.00000000
vn -0.00005400 0.00000600 1.00000000
vn -0.00020600 0.00002100 1.00000000
vn 0.00000000 0.00000000 1.00000000
vn 0.00000000 0.00000000 1.00000000
vn 0.00000000 0.00000000 1.00000000
vn 0.00002400 -0.00000200 1.00000000
vn 0.00000000 0.00000000 1.00000000
vn 0.00002400 -0.00000200 1.00000000
vn 0.00000000 0.00000000 1.00000000
vn 0.00000000 0.00000000 1.00000000
vn -0.00020600 0.00002100 1.00000000
vn -0.00005400 0.00000600 1.00000000
vn 0.00000000 0.00000000 1.00000000
vn -0.00002800 0.00000300 1.00000000
vn -0.00002100 0.00000200 1.00000000
vn -0.00020600 0.00002100 1.00000000
vn -0.00002100 0.00000200 1.00000000
vn -0.00002800 0.00000300 1.00000000
vn 0.00000000 0.00000000 1.00000000
vn 0.00000000 0.00000000 1.00000000
vn -0.00011000 0.00001100 1.00000000
vn -0.00004400 0.00000400 1.00000000
vn -0.00011000 0.00001100 1.00000000
vn 0.00027100 -0.00002800 1.00000000
vn 0.00003600 -0.00000400 1.00000000
vn 0.00027100 -0.00002800 1.00000000
vn 0.00000000 0.00000000 1.00000000
vn 0.00000000 0.00000000 1.00000000
vn 0.00000000 0.00000000 1.00000000
vn 0.00003600 -0.00000400 1.00000000
vn 0.00000000 0.00000000 1.00000000
vn 0.00000000 0.00000000 1.00000000
vn -0.00003800 0.00000400 -1.00000000
vn 0.00013700 -0.00001400 -1.00000000
vn 0.00000000 0.00000000 -1.00000000
vn 0.00000000 0.00000000 -1.00000000
vn 0.00000000 0.00000000 -1.00000000
vn 0.00003700 -0.00000400 -1.00000000
vn 0.00001900 -0.00000200 -1.00000000
vn 0.00000000 0.00000000 -1.00000000
vn -0.00010100 0.00001000 -1.00000000
vn 0.00000000 0.00000000 -1.00000000
vn 0.00008400 -0.00000900 -1.00000000
vn -0.00000400 0.00000000 -1.00000000
vn 0.00000400 -0.00000000 -1.00000000
vn 0.00036000 -0.00003700 -1.00000000
vn 0.00004500 -0.00000500 -1.00000000
vn -0.00000400 0.00000000 -1.00000000
vn 0.00005100 -0.00000500 -1.00000000
vn -0.00002600 0.00000300 -1.00000000
vn -0.00001900 0.00000200 -1.00000000
vn 0.00003700 -0.00000400 -1.00000000
vn 0.00000000 0.00000000 -1.00000000
vn 0.00003700 -0.00000400 -1.00000000
vn -0.00002600 0.00000300 -1.00000000
vn -0.00001900 0.00000200 -1.00000000
vn 0.00003700 -0.00000400 -1.00000000
vn 0.00000000 0.00000000 -1.00000000
vn 0.00000000 0.00000000 -1.00000000
vn 0.00000400 -0.00000000 -1.00000000
vn 0.00000000 0.00000000 -1.00000000
vn 0.00000400 -0.00000000 -1.00000000
vn 0.00000000 0.00000000 -1.00000000
vn 0.00008400 -0.00000900 -1.00000000
vn 0.00008400 -0.00000900 -1.00000000
vn 0.00005100 -0.00000500 -1.00000000
vn -0.00000400 0.00000000 -1.00000000
vn -0.00002600 0.00000300 -1.00000000
vn 0.00005100 -0.00000500 -1.00000000
vn -0.00001100 0.00000100 -1.00000000
vn 0.00000000 0.00000000 -1.00000000
vn -0.00015100 0.00001500 -1.00000000
vn 0.00000000 0.00000000 -1.00000000
vn 0.00001300 -0.00000100 -1.00000000
vn 0.00002900 -0.00000300 -1.00000000
vn 0.00000000 0.00000000 -1.00000000
vn -0.00001100 0.00000100 -1.00000000
vn 0.00001300 -0.00000100 -1.00000000
vn 0.00000000 0.00000000 -1.00000000
vn 0.00000000 0.00000000 -1.00000000
vn -0.00015300 0.00001600 -1.00000000
vn 0.00000000 0.00000000 -1.00000000
vn 0.00000000 0.00000000 -1.00000000
vn 0.00001900 -0.00000200 -1.00000000
vn 0.00000000 0.00000000 -1.00000000
vn 0.00000000 0.00000000 -1.00000000
vn -0.00001900 0.00000200 -1.00000000
vn 0.00000000 0.00000000 -1.00000000
vn 0.00000000 0.00000000 -1.00000000
vn 0.00009200 -0.00000900 -1.00000000
vn 0.00004500 -0.00000500 -1.00000000
vn 0.00000000 0.00000000 -1.00000000
vn 0.00004500 -0.00000500 -1.00000000
vn 0.00036000 -0.00003700 -1.00000000
vn 0.00036000 -0.00003700 -1.00000000
vn 0.00000000 0.00000000 -1.00000000
vn 0.00001900 -0.00000200 -1.00000000
vn -0.00010100 0.00001000 -1.00000000
vn 0.00000000 0.00000000 -1.00000000
vn -0.00010100 0.00001000 -1.00000000
vn 0.00000000 0.00000000 -1.00000000
vn 0.00000000 0.00000000 -1.00000000
vn 0.00000000 0.00000000 -1.00000000
vn 0.00001500 -0.00000200 -1.00000000
vn 0.00000000 0.00000000 -1.00000000
vn -0.00035700 0.00003600 -1.00000000
vn 0.00001500 -0.00000200 -1.00000000
vn 0.00001000 -0.00000100 -1.00000000
vn -0.00000700 0.00000100 -1.00000000
vn 0.00000000 0.00000000 -1.00000000
vn 0.00001500 -0.00000200 -1.00000000
vn -0.00035700 0.00003600 -1.00000000
vn -0.00035700 0.00003600 -1.00000000
vn 0.00000000 0.00000000 -1.00000000
vn -0.00015300 0.00001600 -1.00000000
vn 0.00000000 0.00000000 -1.00000000
vn -0.00015300 0.00001600 -1.00000000
vn 0.00001900 -0.00000200 -1.00000000
vn 0.00000000 0.00000000 -1.00000000
vn 0.00000000 0.00000000 -1.00000000
vn 0.00001900 -0.00000200 -1.00000000
vn 0.00009200 -0.00000900 -1.00000000
vn 0.00000000 0.00000000 -1.00000000
vn 0.00000000 0.00000000 -1.00000000
vn 0.00009200 -0.00000900 -1.00000000
vn 0.00000000 0.00000000 -1.00000000
vn -0.00015100 0.00001500 -1.00000000
vn -0.00001100 0.00000100 -1.00000000
vn 0.00000000 0.00000000 -1.00000000
vn -0.00015000 0.00001500 -1.00000000
vn -0.00003600 0.00000400 -1.00000000
vn 0.00002900 -0.00000300 -1.00000000
vn 0.00000000 0.00000000 -1.00000000
vn -0.00003600 0.00000400 -1.00000000
vn 0.00002900 -0.00000300 -1.00000000
vn 0.00001900 -0.00000200 -1.00000000
vn 0.00003700 -0.00000400 -1.00000000
vn 0.00001300 -0.00000100 -1.00000000
vn 0.00000000 0.00000000 -1.00000000
vn 0.00003700 -0.00000400 -1.00000000
vn 0.00000000 0.00000000 -1.00000000
vn 0.00001000 -0.00000100 -1.00000000
vn 0.00000000 0.00000000 -1.00000000
vn 0.00015300 -0.00001600 -1.00000000
vn 0.00001000 -0.00000100 -1.00000000
vn -0.00000700 0.00000100 -1.00000000
vn 0.00000000 0.00000000 -1.00000000
vn -0.00000700 0.00000100 -1.00000000
vn 0.00015300 -0.00001600 -1.00000000
vn 0.00015300 -0.00001600 -1.00000000
vn 0.00000000 0.00000000 -1.00000000
vn -0.00008500 0.00000900 -1.00000000
vn -0.00008500 0.00000900 -1.00000000
vn 0.00000000 0.00000000 -1.00000000
vn 0.00004500 -0.00000500 -1.00000000
vn 0.00006900 -0.00000700 -1.00000000
vn -0.00009500 0.00001000 -1.00000000
vn 0.00004500 -0.00000500 -1.00000000
vn -0.00008500 0.00000900 -1.00000000
vn 0.00004500 -0.00000500 -1.00000000
vn -0.00009500 0.00001000 -1.00000000
vn -0.00016200 0.00001700 -1.00000000
vn -0.00021200 0.00002100 -1.00000000
vn 0.00000000 0.00000000 -1.00000000
vn -0.00016200 0.00001700 -1.00000000
vn -0.00021100 0.00002400 -1.00000000
vn -0.00016200 0.00001700 -1.00000000
vn 0.00000000 0.00000000 -1.00000000
vn 0.00000000 0.00000000 -1.00000000
vn 0.00000000 0.00000000 -1.00000000
vn 0.00013700 -0.00001400 -1.00000000
vn 0.00001400 -0.00000100 -1.00000000
vn 0.00000000 0.00000000 -1.00000000
vn -0.00003800 0.00000400 -1.00000000
vn 0.00013700 -0.00001400 -1.00000000
vn 0.00016200 -0.00001600 -1.00000000
vn 0.00000000 0.00000000 -1.00000000
vn 0.00016200 -0.00001600 -1.00000000
vn 0.00016200 -0.00001600 -1.00000000
vn 0.00000000 0.00000000 -1.00000000
vn -0.00021100 0.00002100 -1.00000000
vn 0.00000000 0.00000000 -1.00000000
vn 0.00000000 0.00000000 -1.00000000
vn 0.00000000 0.00000000 -1.00000000
vn 0.00000000 0.00000000 -1.00000000
vn 0.00000000 0.00000000 -1.00000000
vn 0.00001400 -0.00000100 -1.00000000
vn 0.00006400 -0.00000700 -1.00000000
vn 0.00000000 0.00000000 -1.00000000
vn 0.00000000 0.00000000 -1.00000000
vn 0.00006400 -0.00000700 -1.00000000
vn 0.00006400 -0.00000700 -1.00000000
vn 0.00000000 0.00000000 -1.00000000
vn 0.00000000 0.00000000 -1.00000000
vn -0.00003600 0.00000400 -1.00000000
vn 0.00000000 0.00000000 -1.00000000
vn 0.00000000 0.00000000 -1.00000000
vn -0.00003800 0.00000400 -1.00000000
vn 0.00001400 -0.00000100 -1.00000000
vn 0.00000000 0.00000000 -1.00000000
vn 0.00000000 0.00000000 -1.00000000
vn -0.00015400 0.00001600 -1.00000000
vn 0.00000000 0.00000000 -1.00000000
vn -0.00015400 0.00001600 -1.00000000
vn 0.00006900 -0.00000700 -1.00000000
vn 0.00008300 -0.00000800 -1.00000000
vn -0.00015300 0.00001600 -1.00000000
vn 0.00000000 0.00000000 -1.00000000
vn 0.00000000 0.00000000 -1.00000000
vn 0.00000000 0.00000000 -1.00000000
vn 0.00008300 -0.00000800 -1.00000000
vn 0.00006900 -0.00000700 -1.00000000
vn -0.00009500 0.00001000 -1.00000000
vn 0.00008300 -0.00000800 -1.00000000
vn 0.00000000 0.00000000 -1.00000000
f 1//1 2//2 3//3
f 1//1 3//3 4//4
f 4//4 3//3 5//5
f 4//4 5//5 6//6
f 6//6 5//5 7//7
f 6//6 7//7 8//8
f 9//9 8//8 10//10
f 10//10 8//8 7//7
f 9//9 10//10 11//11
f 9//9 11//11 12//12
f 12//12 11//11 13//13
f 12//12 13//13 14//14
f 14//14 13//13 15//15
f 14//14 15//15 16//16
f 16//16 15//15 17//17
f 16//16 17//17 18//18
f 19//19 20//20 21//21
f 19//19 21//21 22//22
f 22//22 21//21 23//23
f 22//22 23//23 24//24
f 26//26 24//24 28//28
f 28//28 24//24 23//23
f 30//30 25//25 34//34
f 33//33 27//27 29//29
f 36//36 32//32 38//38
f 39//39 31//31 35//35
f 41//41 37//37 42//42
f 42//42 37//37 40//40
f 43//43 41//41 44//44
f 44//44 41//41 42//42
f 43//43 44//44 45//45
f 43//43 45//45 46//46
f 46//46 45//45 47//47
f 46//46 47//47 48//48
f 48//48 47//47 49//49
f 48//48 49//49 50//50
f 50//50 49//49 51//51
f 50//50 51//51 52//52
f 52//52 51//51 53//53
f 52//52 53//53 54//54
f 54//54 53//53 55//55
f 54//54 55//55 56//56
f 56//56 55//55 57//57
f 56//56 57//57 58//58
f 58//58 57//57 59//59
f 58//58 59//59 60//60
f 60//60 59//59 61//61
f 60//60 61//61 62//62
f 62//62 61//61 63//63
f 62//62 63//63 64//64
f 65//65 64//64 67//67
f 67//67 64//64 63//63
f 68//68 66//66 70//70
f 71//71 65//65 67//67
f 73//73 69//69 74//74
f 74//74 69//69 72//72
f 75//75 73//73 76//76
f 76//76 73//73 74//74
f 77//77 75//75 79//79
f 79//79 75//75 76//76
f 80//80 78//78 81//81
f 82//82 77//77 79//79
f 83//83 84//84 85//85
f 85//85 84//84 86//86
f 87//87 83//83 90//90
f 90//90 83//83 85//85
f 92//92 88//88 94//94
f 93//93 89//89 91//91
f 95//95 92//92 96//96
f 96//96 92//92 94//94
f 95//95 96//96 97//97
f 95//95 97//97 98//98
f 98//98 97//97 99//99
f 98//98 99//99 100//100
f 100//100 99//99 101//101
f 100//100 101//101 102//102
f 102//102 101//101 103//103
f 102//102 103//103 104//104
f 104//104 103//103 105//105
f 104//104 105//105 106//106
f 106//106 105//105 107//107
f 106//106 107//107 108//108
f 108//108 107//107 109//109
f 108//108 109//109 110//110
f 110//110 109//109 111//111
f 110//110 111//111 112//112
f 112//112 111//111 113//113
f 112//112 113//113 114//114
f 114//114 113//113 115//115
f 114//114 115//115 116//116
f 116//116 115//115 117//117
f 116//116 117//117 118//118
f 119//119 118//118 120//120
f 120//120 118//118 117//117
f 119//119 120//120 121//121
f 119//119 121//121 122//122
f 122//122 121//121 123//123
f 122//122 123//123 124//124
f 124//124 123//123 126//126
f 125//125 127//127 130//130
f 129//129 128//128 131//131
f 129//129 131//131 132//132
f 133//133 134//134 135//135
f 133//133 135//135 136//136
f 136//136 135//135 137//137
f 136//136 137//137 138//138
f 139//139 138//138 140//140
f 140//140 138//138 137//137
f 142//142 139//139 143//143
f 143//143 139//139 140//140
f 144//144 141//141 147//147
f 148//148 142//142 143//143
f 150//150 146//146 154//154
f 152//152 145//145 149//149
f 155//155 151//151 156//156
f 156//156 151//151 153//153
f 157//157 155//155 158//158
f 158//158 155//155 156//156
f 157//157 158//158 159//159
f 157//157 159//159 160//160
f 160//160 159//159 161//161
f 160//160 161//161 162//162
f 162//162 161//161 163//163
f 162//162 163//163 164//164
f 164//164 163//163 165//165
f 164//164 165//165 166//166
f 166//166 165//165 167//167
f 166//166 167//167 168//168
f 168//168 167//167 169//169
f 168//168 169//169 170//170
f 170//170 169//169 171//171
f 170//170 171//171 172//172
f 172//172 171//171 173//173
f 172//172 173//173 174//174
f 174//174 173//173 175//175
f 174//174 175//175 176//176
f 176//176 175//175 177//177
f 176//176 177//177 178//178
f 179//179 178//178 180//180
f 180//180 178//178 177//177
f 181//181 179//179 182//182
f 182//182 179//179 180//180
f 183//183 181//181 184//184
f 184//184 181//181 182//182
f 185//185 183//183 186//186
f 186//186 183//183 184//184
f 188//188 185//185 189//189
f 189//189 185//185 186//186
f 190//190 187//187 192//192
f 191//191 188//188 189//189
f 193//193 194//194 195//195
f 195//195 194//194 196//196
f 197//197 193//193 198//198
f 198//198 193//193 195//195
f 199//199 197//197 200//200
f 200//200 197//197 198//198
f 201//201 199//199 202//202
f 202//202 199//199 200//200
f 201//201 202//202 203//203
f 201//201 203//203 204//204
f 204//204 203//203 205//205
f 204//204 205//205 206//206
f 206//206 205//205 207//207
f 206//206 207//207 208//208
f 208//208 207//207 209//209
f 208//208 209//209 210//210
f 210//210 209//209 211//211
f 210//210 211//211 212//212
f 212//212 211//211 213//213
f 212//212 213//213 214//214
f 214//214 213//213 215//215
f 214//214 215//215 216//216
f 216//216 215//215 2//2
f 216//216 2//2 1//1
f 218//218 220//220 224//224
f 223//223 221//221 227//227
f 228//228 230//230 239//239
f 243//243 245//245 247//247
f 248//248 250//250 252//252
f 249//249 254//254 256//256
f 255//255 253//253 259//259
f 262//262 257//257 235//235
f 233//233 258//258 266//266
f 232//232 265//265 267//267
f 239//239 230//230 261//261
f 264//264 269//269 271//271
f 263//263 270//270 273//273
f 274//274 276//276 279//279
f 275//275 278//278 280//280
f 277//277 275//275 281//281
f 281//281 275//275 284//284
f 282//282 283//283 287//287
f 286//286 288//288 289//289
f 285//285 290//290 237//237
f 238//238 291//291 293//293
f 236//236 292//292 229//229
f 294//294 251//251 298//298
f 295//295 297//297 301//301
f 299//299 296//296 303//303
f 300//300 302//302 304//304
f 305//305 307//307 309//309
f 306//306 308//308 311//311
f 310//310 315//315 316//316
f 317//317 318//318 313//313
f 314//314 319//319 320//320
f 312//312 321//321 322//322
f 325//325 222//222 225//225
f 326//326 226//226 327//327
f 326//326 327//327 328//328
f 329//329 330//330 333//333
f 332//332 331//331 334//334
f 333//333 335//335 336//336
f 336//336 243//243 337//337
f 260//260 272//272 338//338
f 261//261 339//339 340//340
f 341//341 342//342 343//343
f 340//340 344//344 345//345
f 346//346 347//347 349//349
f 345//345 348//348 350//350
f 350//350 330//330 329//329
f 268//268 351//351 231//231
f 234//234 352//352 353//353
f 239//239 354//354 355//355
f 357//357 358//358 360//360
f 356//356 359//359 361//361
f 362//362 364//364 366//366
f 363//363 365//365 367//367
f 367//367 328//328 327//327
f 280//280 369//369 371//371
f 370//370 368//368 373//373
f 371//371 372//372 375//375
f 375//375 372//372 376//376
f 377//377 378//378 379//379
f 379//379 378//378 380//380
f 379//379 380//380 382//382
f 323//323 381//381 383//383
f 324//324 384//384 313//313
f 313//313 384//384 385//385
f 386//386 387//387 390//390
f 389//389 388//388 393//393
f 396//396 397//397 398//398
f 398//398 397//397 400//400
f 398//398 400//400 372//372
f 374//374 399//399 401//401
f 372//372 402//402 376//376
f 403//403 390//390 406//406
f 405//405 391//391 394//394
f 404//404 395//395 409//409
f 407//407 392//392 411//411
f 408//408 410//410 217//217
f 219//219 412//412 413//413
f 246//246 415//415 242//242
f 244//244 414//414 416//416
f 240//240 417//417 419//419
f 421//421 337//337 422//422
f 422//422 337//337 243//243
f 422//422 243//243 424//424
f 423//423 241//241 418//418
f 424//424 420//420 425//425
f 428//428 429//429 430//430
f 433//433 435//435 446//446
f 445//445 447//447 450//450
f 438//438 453//453 455//455
f 454//454 456//456 435//435
f 436//436 457//457 458//458
f 437//437 460//460 441//441
f 442//442 459//459 462//462
f 443//443 461//461 448//448
f 464//464 466//466 469//469
f 469//469 466//466 472//472
f 473//473 475//475 476//476
f 476//476 475//475 478//478
f 478//478 475//475 479//479
f 478//478 479//479 481//481
f 478//478 481//481 451//451
f 449//449 480//480 444//444
f 482//482 485//485 446//446
f 440//440 484//484 486//486
f 439//439 487//487 488//488
f 491//491 434//434 493//493
f 492//492 433//433 494//494
f 494//494 433//433 446//446
f 494//494 446//446 495//495
f 495//495 446//446 489//489
f 452//452 435//435 496//496
f 496//496 435//435 498//498
f 496//496 498//498 503//503
f 500//500 497//497 504//504
f 499//499 505//505 506//506
f 508//508 474//474 510//510
f 509//509 473//473 476//476
f 509//509 476//476 512//512
f 511//511 477//477 514//514
f 446//446 516//516 482//482
f 483//483 515//515 518//518
f 482//482 517//517 519//519
f 520//520 465//465 523//523
f 521//521 463//463 470//470
f 522//522 469//469 526//526
f 525//525 468//468 528//528
f 432//432 490//490 529//529
f 431//431 530//530 533//533
f 471//471 467//467 531//531
f 532//532 466//466 534//534
f 532//532 534//534 433//433
f 507//507 536//536 503//503
f 501//501 535//535 538//538
f 502//502 539//539 541//541
f 542//542 537//537 543//543
f 540//540 544//544 547//547
f 546//546 545//545 552//552
f 548//548 551//551 553//553
f 555//555 558//558 560//560
f 517//517 561//561 519//519
f 519//519 561//561 562//562
f 519//519 562//562 563//563
f 563//563 562//562 428//428
f 564//564 427//427 568//568
f 569//569 571//571 572//572
f 559//559 574//574 556//556
f 557//557 575//575 512//512
f 557//557 512//512 576//576
f 576//576 512//512 513//513
f 576//576 513//513 577//577
f 578//578 579//579 582//582
f 582//582 579//579 583//583
f 581//581 584//584 585//585
f 527//527 588//588 524//524
f 526//526 587//587 570//570
f 526//526 570//570 589//589
f 589//589 570//570 573//573
f 430//430 590//590 428//428
f 428//428 590//590 593//593
f 426//426 591//591 567//567
f 565//565 592//592 580//580
f 566//566 582//582 594//594
f 594//594 582//582 586//586
f 595//595 597//597 600//600
f 601//601 596//596 602//602
f 601//601 602//602 603//603
f 554//554 606//606 550//550
f 549//549 605//605 598//598
f 547//547 601//601 608//608
f 607//607 599//599 604//604

