# https://github.com/mikedh/trimesh
v 0.17060400 -0.03549000 -0.02020000
v 0.17046100 -0.03546500 -0.02020000
v 0.17060400 -0.03549000 -0.02040000
v 0.17046100 -0.03546500 -0.02040000
v 0.18221300 -0.03770500 -0.02040000
v 0.18221300 -0.03770500 -0.02020000
v 0.18678900 -0.03579900 -0.02040000
v 0.18678900 -0.03579900 -0.02020000
v 0.18555700 -0.03702600 -0.02020000
v 0.18555700 -0.03702600 -0.02040000
v 0.18395200 -0.03769500 -0.02020000
v 0.18395200 -0.03769500 -0.02040000
v 0.19478700 -0.02392400 -0.02040000
v 0.19478700 -0.02392400 -0.02020000
v 0.19350300 -0.02084200 -0.02040000
v 0.19350300 -0.02084200 -0.02020000
v 0.19439000 -0.02125400 -0.02020000
v 0.19439000 -0.02125400 -0.02040000
v 0.19439000 -0.02125400 -0.02040000
v 0.19439000 -0.02125400 -0.02020000
v 0.19497500 -0.02203700 -0.02020000
v 0.19497500 -0.02203700 -0.02040000
v 0.19497500 -0.02203700 -0.02040000
v 0.19497500 -0.02203700 -0.02040000
v 0.19497500 -0.02203700 -0.02020000
v 0.19511900 -0.02300400 -0.02020000
v 0.19511900 -0.02300400 -0.02020000
v 0.19511900 -0.02300400 -0.02040000
v 0.19511900 -0.02300400 -0.02040000
v 0.19511900 -0.02300400 -0.02020000
v 0.08361400 0.00012100 -0.02040000
v 0.08361400 0.00012100 -0.02020000
v 0.08068900 -0.00186700 -0.02040000
v 0.08068900 -0.00186700 -0.02020000
v 0.08105600 -0.00096200 -0.02020000
v 0.08105600 -0.00096200 -0.02040000
v 0.08105600 -0.00096200 -0.02040000
v 0.08105600 -0.00096200 -0.02020000
v 0.08174000 -0.00026700 -0.02020000
v 0.08174000 -0.00026700 -0.02040000
v 0.08263800 0.00011300 -0.02020000
v 0.08263800 0.00011300 -0.02040000
v 0.08263800 0.00011300 -0.02040000
v 0.08263800 0.00011300 -0.02020000
v 0.07812600 -0.01530400 -0.02040000
v 0.07812600 -0.01530400 -0.02020000
v 0.08011300 -0.01822800 -0.02040000
v 0.08011300 -0.01822800 -0.02020000
v 0.07920900 -0.01786200 -0.02020000
v 0.07920900 -0.01786200 -0.02040000
v 0.07851400 -0.01717800 -0.02020000
v 0.07851400 -0.01717800 -0.02040000
v 0.07813400 -0.01628000 -0.02020000
v 0.07813400 -0.01628000 -0.02040000
v 0.07813400 -0.01628000 -0.02040000
v 0.07813400 -0.01628000 -0.02020000
v 0.09011100 -0.02013500 -0.02040000
v 0.09011100 -0.02013500 -0.02020000
v 0.09020600 -0.02015600 -0.02020000
v 0.09020600 -0.02015600 -0.02040000
v 0.19350300 -0.02084200 -0.02040000
v 0.19350300 -0.02084200 -0.02040000
v 0.19350300 -0.02084200 -0.02040000
v 0.17060400 -0.03549000 -0.02040000
v 0.17060400 -0.03549000 -0.02040000
v 0.17046100 -0.03546500 -0.02040000
v 0.17046100 -0.03546500 -0.02040000
v 0.08011300 -0.01822800 -0.02040000
v 0.08011300 -0.01822800 -0.02040000
v 0.07920900 -0.01786200 -0.02040000
v 0.07851400 -0.01717800 -0.02040000
v 0.18555700 -0.03702600 -0.02040000
v 0.18395200 -0.03769500 -0.02040000
v 0.18395200 -0.03769500 -0.02040000
v 0.18678900 -0.03579900 -0.02040000
v 0.18678900 -0.03579900 -0.02040000
v 0.18678900 -0.03579900 -0.02040000
v 0.18221300 -0.03770500 -0.02040000
v 0.18221300 -0.03770500 -0.02040000
v 0.18221300 -0.03770500 -0.02040000
v 0.19478700 -0.02392400 -0.02040000
v 0.08361400 0.00012100 -0.02040000
v 0.08361400 0.00012100 -0.02040000
v 0.08361400 0.00012100 -0.02040000
v 0.09020600 -0.02015600 -0.02040000
v 0.09020600 -0.02015600 -0.02040000
v 0.09011100 -0.02013500 -0.02040000
v 0.09011100 -0.02013500 -0.02040000
v 0.09011100 -0.02013500 -0.02040000
v 0.08068900 -0.00186700 -0.02040000
v 0.08068900 -0.00186700 -0.02040000
v 0.09011100 -0.02013500 -0.02040000
v 0.09011100 -0.02013500 -0.02040000
v 0.09011100 -0.02013500 -0.02040000
v 0.07812600 -0.01530400 -0.02040000
v 0.07812600 -0.01530400 -0.02040000
v 0.07812600 -0.01530400 -0.02040000
v 0.07813400 -0.01628000 -0.02040000
v 0.08263800 0.00011300 -0.02040000
v 0.08174000 -0.00026700 -0.02040000
v 0.08174000 -0.00026700 -0.02040000
v 0.08174000 -0.00026700 -0.02040000
v 0.08105600 -0.00096200 -0.02040000
v 0.08105600 -0.00096200 -0.02040000
v 0.19497500 -0.02203700 -0.02040000
v 0.19511900 -0.02300400 -0.02040000
v 0.19439000 -0.02125400 -0.02040000
v 0.08263800 0.00011300 -0.02020000
v 0.08174000 -0.00026700 -0.02020000
v 0.08174000 -0.00026700 -0.02020000
v 0.09011100 -0.02013500 -0.02020000
v 0.09011100 -0.02013500 -0.02020000
v 0.09011100 -0.02013500 -0.02020000
v 0.07851400 -0.01717800 -0.02020000
v 0.07920900 -0.01786200 -0.02020000
v 0.07920900 -0.01786200 -0.02020000
v 0.07813400 -0.01628000 -0.02020000
v 0.07813400 -0.01628000 -0.02020000
v 0.07813400 -0.01628000 -0.02020000
v 0.08011300 -0.01822800 -0.02020000
v 0.08011300 -0.01822800 -0.02020000
v 0.07812600 -0.01530400 -0.02020000
v 0.07812600 -0.01530400 -0.02020000
v 0.07812600 -0.01530400 -0.02020000
v 0.08068900 -0.00186700 -0.02020000
v 0.08068900 -0.00186700 -0.02020000
v 0.08068900 -0.00186700 -0.02020000
v 0.08105600 -0.00096200 -0.02020000
v 0.08361400 0.00012100 -0.02020000
v 0.08361400 0.00012100 -0.02020000
v 0.08361400 0.00012100 -0.02020000
v 0.09020600 -0.02015600 -0.02020000
v 0.09020600 -0.02015600 -0.02020000
v 0.09020600 -0.02015600 -0.02020000
v 0.19350300 -0.02084200 -0.02020000
v 0.19350300 -0.02084200 -0.02020000
v 0.19350300 -0.02084200 -0.02020000
v 0.19350300 -0.02084200 -0.02020000
v 0.19350300 -0.02084200 -0.02020000
v 0.18395200 -0.03769500 -0.02020000
v 0.18555700 -0.03702600 -0.02020000
v 0.18555700 -0.03702600 -0.02020000
v 0.18221300 -0.03770500 -0.02020000
v 0.18221300 -0.03770500 -0.02020000
v 0.18221300 -0.03770500 -0.02020000
v 0.18678900 -0.03579900 -0.02020000
v 0.18678900 -0.03579900 -0.02020000
v 0.18678900 -0.03579900 -0.02020000
v 0.18678900 -0.03579900 -0.02020000
v 0.17060400 -0.03549000 -0.02020000
v 0.17060400 -0.03549000 -0.02020000
v 0.17060400 -0.03549000 -0.02020000
v 0.17046100 -0.03546500 -0.02020000
v 0.17046100 -0.03546500 -0.02020000
v 0.19497500 -0.02203700 -0.02020000
v 0.19439000 -0.02125400 -0.02020000
v 0.19439000 -0.02125400 -0.02020000
v 0.19511900 -0.02300400 -0.02020000
v 0.19511900 -0.02300400 -0.02020000
v 0.19478700 -0.02392400 -0.02020000
vn -0.18206900 -0.98328600 0.00000000
vn -0.17684200 -0.98423900 -0.00000100
vn -0.17685800 -0.98423600 0.00000000
vn -0.18205400 -0.98328900 0.00000100
vn -0.12347100 -0.99234800 0.00001200
vn -0.05874500 -0.99827300 -0.00000000
vn 0.75017000 -0.66124500 0.00001600
vn 0.79154200 -0.61111500 0.00000000
vn 0.60889300 -0.79325300 -0.00004400
vn 0.50005500 -0.86599400 0.00000000
vn 0.26274400 -0.96486600 -0.00002300
vn 0.13440500 -0.99092600 0.00002500
vn 0.87244800 -0.48870700 0.00001800
vn 0.90978500 -0.41508000 -0.00001600
vn 0.34594500 0.93825500 0.00001400
vn 0.26733100 0.96360500 0.00001300
vn 0.42174600 0.90671400 0.00000000
vn 0.42174300 0.90671600 0.00000000
vn 0.80112200 0.59850100 0.00000000
vn 0.80112200 0.59850100 0.00000000
vn 0.80112200 0.59850100 0.00000000
vn 0.80112200 0.59850100 0.00000000
vn 0.98908900 0.14732200 0.00000000
vn 0.98908300 0.14735800 0.00000000
vn 0.98908900 0.14732200 0.00000000
vn 0.98908900 0.14732200 0.00000000
vn 0.98908300 0.14735800 0.00000000
vn 0.98908300 0.14735800 0.00000000
vn 0.94080700 -0.33894200 0.00000000
vn 0.94069300 -0.33925800 0.00000000
vn 0.12280000 0.99243100 0.00001400
vn 0.05750000 0.99834600 -0.00001100
vn -0.94940500 0.31405600 0.00000000
vn -0.96794400 0.25116400 0.00000000
vn -0.92687300 0.37537500 0.00000000
vn -0.92687400 0.37537300 0.00000000
vn -0.71260700 0.70156300 0.00000000
vn -0.71260500 0.70156500 0.00000000
vn -0.61554800 0.78810000 -0.00002300
vn -0.50615700 0.86244200 0.00002900
vn -0.38994800 0.92083700 0.00000000
vn -0.38994800 0.92083700 0.00000000
vn -0.00781500 0.99996900 0.00000000
vn -0.00781600 0.99996900 0.00000000
vn -0.99243300 0.12278900 0.00001100
vn -0.99834600 0.05749000 0.00000000
vn -0.31403900 -0.94941000 0.00001100
vn -0.25114400 -0.96795000 0.00000100
vn -0.49256100 -0.87027800 -0.00002500
vn -0.60306500 -0.79769200 0.00002500
vn -0.78811700 -0.61552600 -0.00003200
vn -0.86243100 -0.50617500 0.00002500
vn -0.92083700 -0.38994800 0.00000000
vn -0.92083700 -0.38994700 0.00000000
vn -0.99997000 -0.00780600 0.00000000
vn -0.99997000 -0.00780100 0.00000000
vn -0.19537100 -0.98072900 0.00000000
vn -0.20313500 -0.97915100 0.00000000
vn -0.19533600 -0.98073600 0.00000000
vn -0.20316900 -0.97914400 0.00000000
vn -0.00001100 0.00000100 -1.00000000
vn 0.00000000 0.00000000 -1.00000000
vn 0.00000000 0.00000000 -1.00000000
vn -0.00001100 0.00000100 -1.00000000
vn 0.00000000 0.00000000 -1.00000000
vn -0.00001100 0.00000100 -1.00000000
vn 0.00000000 0.00000000 -1.00000000
vn 0.00000000 0.00000000 -1.00000000
vn 0.00000000 -0.00000000 -1.00000000
vn 0.00000000 0.00000000 -1.00000000
vn 0.00000000 0.00000000 -1.00000000
vn 0.00000600 -0.00000100 -1.00000000
vn 0.00000600 -0.00000100 -1.00000000
vn -0.00000200 0.00000000 -1.00000000
vn 0.00000000 0.00000000 -1.00000000
vn -0.00000200 0.00000000 -1.00000000
vn 0.00000600 -0.00000100 -1.00000000
vn 0.00000000 0.00000000 -1.00000000
vn 0.00000000 0.00000000 -1.00000000
vn -0.00000200 0.00000000 -1.00000000
vn 0.00000000 0.00000000 -1.00000000
vn 0.00000100 -0.00000000 -1.00000000
vn 0.00001100 -0.00000100 -1.00000000
vn 0.00000000 0.00000000 -1.00000000
vn 0.00001100 -0.00000100 -1.00000000
vn 0.00000000 0.00000000 -1.00000000
vn 0.00001100 -0.00000100 -1.00000000
vn -0.00000300 0.00000000 -1.00000000
vn 0.00000100 -0.00000000 -1.00000000
vn -0.00000000 0.00000000 -1.00000000
vn 0.00000000 0.00000000 -1.00000000
vn 0.00000000 -0.00000000 -1.00000000
vn -0.00000000 0.00000000 -1.00000000
vn 0.00000000 0.00000000 -1.00000000
vn -0.00000000 0.00000000 -1.00000000
vn 0.00000000 0.00000000 -1.00000000
vn 0.00000000 -0.00000000 -1.00000000
vn 0.00000000 0.00000000 -1.00000000
vn 0.00000000 0.00000000 -1.00000000
vn 0.00000100 -0.00000000 -1.00000000
vn 0.00000000 0.00000000 -1.00000000
vn -0.00000300 0.00000000 -1.00000000
vn -0.00000300 0.00000000 -1.00000000
vn 0.00000000 0.00000000 -1.00000000
vn 0.00000000 0.00000000 -1.00000000
vn 0.00000000 0.00000000 -1.00000000
vn 0.00000000 0.00000000 -1.00000000
vn 0.00000000 0.00000000 1.00000000
vn 0.00000000 0.00000000 1.00000000
vn -0.00001000 0.00000100 1.00000000
vn 0.00000000 -0.00000000 1.00000000
vn 0.00000000 0.00000000 1.00000000
vn -0.00000600 0.00000100 1.00000000
vn -0.00001000 0.00000100 1.00000000
vn -0.00001000 0.00000100 1.00000000
vn 0.00000000 0.00000000 1.00000000
vn 0.00000000 0.00000000 1.00000000
vn -0.00000400 0.00000000 1.00000000
vn -0.00001000 0.00000100 1.00000000
vn 0.00000000 0.00000000 1.00000000
vn -0.00000400 0.00000000 1.00000000
vn -0.00000400 0.00000000 1.00000000
vn 0.00000000 0.00000000 1.00000000
vn 0.00000000 -0.00000000 1.00000000
vn 0.00000000 -0.00000000 1.00000000
vn -0.00001000 0.00000100 1.00000000
vn 0.00000000 0.00000000 1.00000000
vn -0.00001000 0.00000100 1.00000000
vn -0.00000600 0.00000100 1.00000000
vn 0.00000000 0.00000000 1.00000000
vn 0.00000000 0.00000000 1.00000000
vn -0.00000600 0.00000100 1.00000000
vn 0.00000000 0.00000000 1.00000000
vn 0.00000000 0.00000000 1.00000000
vn 0.00000000 0.00000000 1.00000000
vn 0.00000000 0.00000000 1.00000000
vn -0.00000300 0.00000000 1.00000000
vn 0.00000000 -0.00000000 1.00000000
vn 0.00000000 0.00000000 1.00000000
vn 0.00000000 0.00000000 1.00000000
vn 0.00000000 0.00000000 1.00000000
vn 0.00000100 -0.00000000 1.00000000
vn 0.00000000 0.00000000 1.00000000
vn 0.00000000 0.00000000 1.00000000
vn 0.00000100 -0.00000000 1.00000000
vn 0.00000100 -0.00000000 1.00000000
vn 0.00000000 -0.00000000 1.00000000
vn 0.00000000 0.00000000 1.00000000
vn 0.00000000 0.00000000 1.00000000
vn 0.00000000 0.00000000 1.00000000
vn 0.00000000 -0.00000000 1.00000000
vn 0.00000000 0.00000000 1.00000000
vn 0.00000000 0.00000000 1.00000000
vn 0.00000000 0.00000000 1.00000000
vn 0.00000000 0.00000000 1.00000000
vn 0.00000000 0.00000000 1.00000000
vn -0.00000300 0.00000000 1.00000000
vn 0.00000000 0.00000000 1.00000000
vn -0.00000300 0.00000000 1.00000000
vn 0.00000000 0.00000000 1.00000000
f 1//1 2//2 3//3
f 3//3 2//2 4//4
f 3//3 5//5 1//1
f 1//1 5//5 6//6
f 7//7 8//8 9//9
f 7//7 9//9 10//10
f 10//10 9//9 11//11
f 10//10 11//11 12//12
f 12//12 11//11 6//6
f 12//12 6//6 5//5
f 7//7 13//13 8//8
f 8//8 13//13 14//14
f 15//15 16//16 17//17
f 15//15 17//17 18//18
f 19//19 20//20 21//21
f 19//19 21//21 22//22
f 23//23 25//25 26//26
f 24//24 27//27 28//28
f 29//29 30//30 14//14
f 29//29 14//14 13//13
f 15//15 31//31 16//16
f 16//16 31//31 32//32
f 33//33 34//34 35//35
f 33//33 35//35 36//36
f 37//37 38//38 39//39
f 37//37 39//39 40//40
f 40//40 39//39 41//41
f 40//40 41//41 42//42
f 43//43 44//44 32//32
f 43//43 32//32 31//31
f 33//33 45//45 34//34
f 34//34 45//45 46//46
f 47//47 48//48 49//49
f 47//47 49//49 50//50
f 50//50 49//49 51//51
f 50//50 51//51 52//52
f 52//52 51//51 53//53
f 52//52 53//53 54//54
f 55//55 56//56 46//46
f 55//55 46//46 45//45
f 47//47 57//57 48//48
f 48//48 57//57 58//58
f 59//59 58//58 60//60
f 60//60 58//58 57//57
f 60//60 4//4 59//59
f 59//59 4//4 2//2
f 61//61 64//64 66//66
f 68//68 70//70 71//71
f 72//72 73//73 77//77
f 76//76 74//74 80//80
f 75//75 79//79 81//81
f 62//62 67//67 84//84
f 84//84 67//67 86//86
f 83//83 85//85 87//87
f 90//90 93//93 95//95
f 97//97 92//92 69//69
f 96//96 68//68 98//98
f 98//98 68//68 71//71
f 99//99 84//84 101//101
f 100//100 82//82 89//89
f 102//102 88//88 103//103
f 104//104 94//94 91//91
f 105//105 106//106 107//107
f 107//107 106//106 81//81
f 107//107 81//81 62//62
f 62//62 81//81 79//79
f 63//63 78//78 65//65
f 108//108 109//109 112//112
f 114//114 115//115 119//119
f 117//117 116//116 120//120
f 118//118 121//121 122//122
f 123//123 120//120 112//112
f 124//124 111//111 125//125
f 127//127 112//112 109//109
f 126//126 110//110 128//128
f 108//108 112//112 131//131
f 129//129 113//113 132//132
f 130//130 134//134 136//136
f 140//140 141//141 144//144
f 145//145 142//142 146//146
f 143//143 148//148 152//152
f 151//151 147//147 138//138
f 150//150 139//139 153//153
f 154//154 135//135 133//133
f 155//155 156//156 158//158
f 159//159 157//157 137//137
f 158//158 139//139 160//160
f 160//160 139//139 149//149

