# https://github.com/mikedh/trimesh
v 0.28168500 -0.01827400 -0.04720000
v 0.28316000 -0.01848400 -0.04720000
v 0.28316000 -0.01848400 -0.04700000
v 0.28464700 -0.01857500 -0.04700000
v 0.28464700 -0.01857500 -0.04720000
v 0.28761900 -0.01839600 -0.04720000
v 0.28761900 -0.01839600 -0.04700000
v 0.29052400 -0.01774400 -0.04720000
v 0.29052400 -0.01774400 -0.04700000
v 0.29328600 -0.01663400 -0.04720000
v 0.29328600 -0.01663400 -0.04700000
v 0.29583500 -0.01509500 -0.04720000
v 0.29583500 -0.01509500 -0.04700000
v 0.29810400 -0.01316700 -0.04720000
v 0.29810400 -0.01316700 -0.04700000
v 0.30003400 -0.01090000 -0.04720000
v 0.30003400 -0.01090000 -0.04700000
v 0.30157600 -0.00835300 -0.04720000
v 0.30157600 -0.00835300 -0.04700000
v 0.30268900 -0.00559200 -0.04720000
v 0.30268900 -0.00559200 -0.04700000
v 0.30334500 -0.00268800 -0.04720000
v 0.30334500 -0.00268800 -0.04700000
v 0.30352600 0.00028400 -0.04720000
v 0.30352600 0.00028400 -0.04700000
v 0.30322800 0.00324600 -0.04720000
v 0.30322800 0.00324600 -0.04700000
v 0.30245900 0.00612300 -0.04720000
v 0.30245900 0.00612300 -0.04700000
v 0.30123900 0.00883800 -0.04720000
v 0.30123900 0.00883800 -0.04700000
v 0.29959900 0.01132300 -0.04720000
v 0.29959900 0.01132300 -0.04700000
v 0.29758100 0.01351200 -0.04720000
v 0.29758100 0.01351200 -0.04700000
v 0.29523800 0.01535000 -0.04720000
v 0.29523800 0.01535000 -0.04700000
v 0.29263100 0.01678800 -0.04720000
v 0.29263100 0.01678800 -0.04700000
v 0.28982700 0.01778900 -0.04720000
v 0.28982700 0.01778900 -0.04700000
v 0.28689900 0.01832700 -0.04720000
v 0.28689900 0.01832700 -0.04700000
v 0.28392200 0.01838800 -0.04720000
v 0.28392200 0.01838800 -0.04700000
v 0.28097500 0.01797200 -0.04720000
v 0.28097500 0.01797200 -0.04700000
v 0.27813200 0.01708700 -0.04720000
v 0.27813200 0.01708700 -0.04700000
v 0.27546700 0.01575900 -0.04720000
v 0.27546700 0.01575900 -0.04700000
v 0.27305100 0.01402000 -0.04720000
v 0.27305100 0.01402000 -0.04700000
v 0.27094400 0.01191600 -0.04720000
v 0.27094400 0.01191600 -0.04700000
v 0.26920300 0.00950100 -0.04720000
v 0.26920300 0.00950100 -0.04700000
v 0.26787100 0.00683800 -0.04720000
v 0.26787100 0.00683800 -0.04700000
v 0.26698400 0.00399600 -0.04720000
v 0.26698400 0.00399600 -0.04700000
v 0.26656400 0.00104800 -0.04720000
v 0.26656400 0.00104800 -0.04700000
v 0.26662200 -0.00192800 -0.04720000
v 0.26662200 -0.00192800 -0.04700000
v 0.26715700 -0.00485700 -0.04720000
v 0.26715700 -0.00485700 -0.04700000
v 0.26815500 -0.00766200 -0.04720000
v 0.26815500 -0.00766200 -0.04700000
v 0.26959000 -0.01027100 -0.04720000
v 0.26959000 -0.01027100 -0.04700000
v 0.27142500 -0.01261500 -0.04720000
v 0.27142500 -0.01261500 -0.04700000
v 0.27361200 -0.01463500 -0.04720000
v 0.27361200 -0.01463500 -0.04700000
v 0.27609500 -0.01627800 -0.04720000
v 0.27609500 -0.01627800 -0.04700000
v 0.27881000 -0.01750200 -0.04720000
v 0.27881000 -0.01750200 -0.04700000
v 0.28168500 -0.01827400 -0.04700000
v 0.28316000 -0.01848400 -0.04720000
v 0.28316000 -0.01848400 -0.04720000
v 0.28168500 -0.01827400 -0.04720000
v 0.28168500 -0.01827400 -0.04720000
v 0.28503000 -0.00007800 -0.04720000
v 0.28503000 -0.00007800 -0.04720000
v 0.28503000 -0.00007800 -0.04720000
v 0.28503000 -0.00007800 -0.04720000
v 0.28503000 -0.00007800 -0.04720000
v 0.28503000 -0.00007800 -0.04720000
v 0.28503000 -0.00007800 -0.04720000
v 0.28503000 -0.00007800 -0.04720000
v 0.28503000 -0.00007800 -0.04720000
v 0.28503000 -0.00007800 -0.04720000
v 0.28503000 -0.00007800 -0.04720000
v 0.28503000 -0.00007800 -0.04720000
v 0.28503000 -0.00007800 -0.04720000
v 0.28503000 -0.00007800 -0.04720000
v 0.28503000 -0.00007800 -0.04720000
v 0.28503000 -0.00007800 -0.04720000
v 0.28503000 -0.00007800 -0.04720000
v 0.28503000 -0.00007800 -0.04720000
v 0.28503000 -0.00007800 -0.04720000
v 0.28503000 -0.00007800 -0.04720000
v 0.28503000 -0.00007800 -0.04720000
v 0.29052400 -0.01774400 -0.04720000
v 0.29052400 -0.01774400 -0.04720000
v 0.28761900 -0.01839600 -0.04720000
v 0.28761900 -0.01839600 -0.04720000
v 0.28464700 -0.01857500 -0.04720000
v 0.28464700 -0.01857500 -0.04720000
v 0.29810400 -0.01316700 -0.04720000
v 0.29810400 -0.01316700 -0.04720000
v 0.29583500 -0.01509500 -0.04720000
v 0.29583500 -0.01509500 -0.04720000
v 0.29328600 -0.01663400 -0.04720000
v 0.29328600 -0.01663400 -0.04720000
v 0.30268900 -0.00559200 -0.04720000
v 0.30157600 -0.00835300 -0.04720000
v 0.30157600 -0.00835300 -0.04720000
v 0.30003400 -0.01090000 -0.04720000
v 0.30003400 -0.01090000 -0.04720000
v 0.30322800 0.00324600 -0.04720000
v 0.30352600 0.00028400 -0.04720000
v 0.30334500 -0.00268800 -0.04720000
v 0.29959900 0.01132300 -0.04720000
v 0.30123900 0.00883800 -0.04720000
v 0.30245900 0.00612300 -0.04720000
v 0.29263100 0.01678800 -0.04720000
v 0.29263100 0.01678800 -0.04720000
v 0.29523800 0.01535000 -0.04720000
v 0.29523800 0.01535000 -0.04720000
v 0.29758100 0.01351200 -0.04720000
v 0.29758100 0.01351200 -0.04720000
v 0.28392200 0.01838800 -0.04720000
v 0.28392200 0.01838800 -0.04720000
v 0.28689900 0.01832700 -0.04720000
v 0.28689900 0.01832700 -0.04720000
v 0.28982700 0.01778900 -0.04720000
v 0.28982700 0.01778900 -0.04720000
v 0.27546700 0.01575900 -0.04720000
v 0.27813200 0.01708700 -0.04720000
v 0.27813200 0.01708700 -0.04720000
v 0.28097500 0.01797200 -0.04720000
v 0.28097500 0.01797200 -0.04720000
v 0.26920300 0.00950100 -0.04720000
v 0.27094400 0.01191600 -0.04720000
v 0.27094400 0.01191600 -0.04720000
v 0.27305100 0.01402000 -0.04720000
v 0.27305100 0.01402000 -0.04720000
v 0.26656400 0.00104800 -0.04720000
v 0.26698400 0.00399600 -0.04720000
v 0.26787100 0.00683800 -0.04720000
v 0.26815500 -0.00766200 -0.04720000
v 0.26815500 -0.00766200 -0.04720000
v 0.26715700 -0.00485700 -0.04720000
v 0.26715700 -0.00485700 -0.04720000
v 0.26662200 -0.00192800 -0.04720000
v 0.26662200 -0.00192800 -0.04720000
v 0.27361200 -0.01463500 -0.04720000
v 0.27361200 -0.01463500 -0.04720000
v 0.27142500 -0.01261500 -0.04720000
v 0.27142500 -0.01261500 -0.04720000
v 0.26959000 -0.01027100 -0.04720000
v 0.26959000 -0.01027100 -0.04720000
v 0.27881000 -0.01750200 -0.04720000
v 0.27881000 -0.01750200 -0.04720000
v 0.27609500 -0.01627800 -0.04720000
v 0.27609500 -0.01627800 -0.04720000
v 0.28316000 -0.01848400 -0.04700000
v 0.28316000 -0.01848400 -0.04700000
v 0.28464700 -0.01857500 -0.04700000
v 0.28464700 -0.01857500 -0.04700000
v 0.28503000 -0.00007800 -0.04700000
v 0.28503000 -0.00007800 -0.04700000
v 0.28503000 -0.00007800 -0.04700000
v 0.28503000 -0.00007800 -0.04700000
v 0.28503000 -0.00007800 -0.04700000
v 0.28503000 -0.00007800 -0.04700000
v 0.28503000 -0.00007800 -0.04700000
v 0.28503000 -0.00007800 -0.04700000
v 0.28503000 -0.00007800 -0.04700000
v 0.28503000 -0.00007800 -0.04700000
v 0.28503000 -0.00007800 -0.04700000
v 0.28503000 -0.00007800 -0.04700000
v 0.28503000 -0.00007800 -0.04700000
v 0.28503000 -0.00007800 -0.04700000
v 0.28503000 -0.00007800 -0.04700000
v 0.28503000 -0.00007800 -0.04700000
v 0.28503000 -0.00007800 -0.04700000
v 0.28503000 -0.00007800 -0.04700000
v 0.28503000 -0.00007800 -0.04700000
v 0.28503000 -0.00007800 -0.04700000
v 0.28503000 -0.00007800 -0.04700000
v 0.27609500 -0.01627800 -0.04700000
v 0.27609500 -0.01627800 -0.04700000
v 0.27881000 -0.01750200 -0.04700000
v 0.27881000 -0.01750200 -0.04700000
v 0.28168500 -0.01827400 -0.04700000
v 0.28168500 -0.01827400 -0.04700000
v 0.26959000 -0.01027100 -0.04700000
v 0.26959000 -0.01027100 -0.04700000
v 0.27142500 -0.01261500 -0.04700000
v 0.27142500 -0.01261500 -0.04700000
v 0.27361200 -0.01463500 -0.04700000
v 0.27361200 -0.01463500 -0.04700000
v 0.26662200 -0.00192800 -0.04700000
v 0.26715700 -0.00485700 -0.04700000
v 0.26815500 -0.00766200 -0.04700000
v 0.26815500 -0.00766200 -0.04700000
v 0.26787100 0.00683800 -0.04700000
v 0.26787100 0.00683800 -0.04700000
v 0.26698400 0.00399600 -0.04700000
v 0.26698400 0.00399600 -0.04700000
v 0.26656400 0.00104800 -0.04700000
v 0.27305100 0.01402000 -0.04700000
v 0.27305100 0.01402000 -0.04700000
v 0.27094400 0.01191600 -0.04700000
v 0.27094400 0.01191600 -0.04700000
v 0.26920300 0.00950100 -0.04700000
v 0.26920300 0.00950100 -0.04700000
v 0.28097500 0.01797200 -0.04700000
v 0.27813200 0.01708700 -0.04700000
v 0.27546700 0.01575900 -0.04700000
v 0.27546700 0.01575900 -0.04700000
v 0.28982700 0.01778900 -0.04700000
v 0.28689900 0.01832700 -0.04700000
v 0.28689900 0.01832700 -0.04700000
v 0.28392200 0.01838800 -0.04700000
v 0.28392200 0.01838800 -0.04700000
v 0.29758100 0.01351200 -0.04700000
v 0.29758100 0.01351200 -0.04700000
v 0.29523800 0.01535000 -0.04700000
v 0.29523800 0.01535000 -0.04700000
v 0.29263100 0.01678800 -0.04700000
v 0.29263100 0.01678800 -0.04700000
v 0.30245900 0.00612300 -0.04700000
v 0.30123900 0.00883800 -0.04700000
v 0.30123900 0.00883800 -0.04700000
v 0.29959900 0.01132300 -0.04700000
v 0.29959900 0.01132300 -0.04700000
v 0.30334500 -0.00268800 -0.04700000
v 0.30352600 0.00028400 -0.04700000
v 0.30352600 0.00028400 -0.04700000
v 0.30322800 0.00324600 -0.04700000
v 0.30322800 0.00324600 -0.04700000
v 0.30003400 -0.01090000 -0.04700000
v 0.30003400 -0.01090000 -0.04700000
v 0.30157600 -0.00835300 -0.04700000
v 0.30268900 -0.00559200 -0.04700000
v 0.29328600 -0.01663400 -0.04700000
v 0.29328600 -0.01663400 -0.04700000
v 0.29583500 -0.01509500 -0.04700000
v 0.29583500 -0.01509500 -0.04700000
v 0.29810400 -0.01316700 -0.04700000
v 0.29810400 -0.01316700 -0.04700000
v 0.28761900 -0.01839600 -0.04700000
v 0.28761900 -0.01839600 -0.04700000
v 0.29052400 -0.01774400 -0.04700000
v 0.29052400 -0.01774400 -0.04700000
vn -0.20055700 -0.97968200 0.00000000
vn -0.08768000 -0.99614900 0.00000000
vn -0.11441300 -0.99343300 0.00000000
vn -0.00053600 -1.00000000 0.00000000
vn -0.00053600 -1.00000000 0.00000000
vn 0.11330400 -0.99356000 0.00001000
vn 0.16653300 -0.98603600 0.00000000
vn 0.27121700 -0.96251800 0.00001200
vn 0.32254900 -0.94655300 0.00000000
vn 0.42210600 -0.90654600 0.00000000
vn 0.47021300 -0.88255300 0.00000100
vn 0.56205300 -0.82710100 0.00000000
vn 0.60568800 -0.79570200 0.00000000
vn 0.68745800 -0.72622400 0.00000000
vn 0.72549100 -0.68823200 0.00000000
vn 0.79506600 -0.60652300 0.00000000
vn 0.82648200 -0.56296300 0.00000000
vn 0.88205400 -0.47114900 -0.00000100
vn 0.90609800 -0.42306800 -0.00001000
vn 0.94620500 -0.32356800 0.00000000
vn 0.96222500 -0.27225400 -0.00000900
vn 0.98586000 -0.16757100 0.00000000
vn 0.99343500 -0.11440100 0.00000000
vn 0.99997400 -0.00726300 0.00001000
vn 0.99892100 0.04643100 0.00000000
vn 0.98819300 0.15321700 0.00001000
vn 0.97853100 0.20609700 0.00000100
vn 0.95081600 0.30975800 0.00000000
vn 0.93279700 0.36040300 0.00000000
vn 0.88881900 0.45825800 0.00001300
vn 0.86291000 0.50535800 0.00000000
vn 0.80378700 0.59491700 0.00001000
vn 0.77068800 0.63721300 -0.00001300
vn 0.69794700 0.71615000 0.00000000
vn 0.65845500 0.75262000 0.00000000
vn 0.57405100 0.81882000 0.00000000
vn 0.52922100 0.84848400 0.00000000
vn 0.43526400 0.90030300 0.00000000
vn 0.38625500 0.92239200 0.00000000
vn 0.28520200 0.95846700 -0.00000100
vn 0.23328400 0.97240900 -0.00001200
vn 0.12776200 0.99180500 0.00000000
vn 0.07428100 0.99723700 0.00000000
vn -0.03299400 0.99945600 0.00000900
vn -0.08665500 0.99623800 0.00000100
vn -0.19289400 0.98122000 0.00001300
vn -0.24534400 0.96943600 0.00000000
vn -0.34778300 0.93757500 0.00000000
vn -0.39766400 0.91753100 -0.00000000
vn -0.49368000 0.86964300 0.00000000
vn -0.53970000 0.84185700 0.00000000
vn -0.62677900 0.77919700 0.00000000
vn -0.66778200 0.74435700 0.00000000
vn -0.74369000 0.66852500 0.00000000
vn -0.77850900 0.62763300 0.00000100
vn -0.84128000 0.54060000 0.00000000
vn -0.86911500 0.49461000 0.00000100
vn -0.91709800 0.39866200 0.00000000
vn -0.93719600 0.34880300 0.00001000
vn -0.96918400 0.24633800 0.00001000
vn -0.98101200 0.19394800 0.00000100
vn -0.99614600 0.08771500 0.00000000
vn -0.99942000 0.03405700 0.00000000
vn -0.99731700 -0.07320800 0.00001300
vn -0.99194200 -0.12669600 0.00000000
vn -0.97265500 -0.23225600 0.00001500
vn -0.95878300 -0.28414100 0.00000000
vn -0.92280800 -0.38526100 0.00000000
vn -0.90077200 -0.43429200 0.00000000
vn -0.84905700 -0.52830200 0.00000000
vn -0.81944100 -0.57316400 0.00000000
vn -0.75331200 -0.65766300 0.00000000
vn -0.71688400 -0.69719300 0.00000000
vn -0.63806900 -0.76997900 0.00000000
vn -0.59577100 -0.80315500 0.00000000
vn -0.50629800 -0.86235800 0.00000000
vn -0.45922600 -0.88831900 0.00000000
vn -0.36140500 -0.93240900 0.00000000
vn -0.31077700 -0.95048300 0.00000000
vn -0.20055700 -0.97968200 0.00000000
vn 0.00000000 0.00000000 -1.00000000
vn 0.00000200 -0.00000000 -1.00000000
vn 0.00000000 0.00000000 -1.00000000
vn 0.00000200 -0.00000000 -1.00000000
vn 0.00000200 -0.00000000 -1.00000000
vn 0.00000100 -0.00000000 -1.00000000
vn 0.00000000 -0.00000000 -1.00000000
vn 0.00000000 0.00000000 -1.00000000
vn -0.00000200 0.00000000 -1.00000000
vn 0.00000100 -0.00000000 -1.00000000
vn 0.00000100 -0.00000000 -1.00000000
vn -0.00000000 0.00000000 -1.00000000
vn -0.00000200 0.00000000 -1.00000000
vn 0.00000300 -0.00000000 -1.00000000
vn 0.00000200 -0.00000000 -1.00000000
vn -0.00000100 0.00000000 -1.00000000
vn 0.00000100 -0.00000000 -1.00000000
vn 0.00000200 -0.00000000 -1.00000000
vn -0.00000100 0.00000000 -1.00000000
vn 0.00000000 -0.00000000 -1.00000000
vn 0.00000100 -0.00000000 -1.00000000
vn -0.00000400 0.00000000 -1.00000000
vn -0.00000100 0.00000000 -1.00000000
vn 0.00000200 -0.00000000 -1.00000000
vn -0.00000200 0.00000000 -1.00000000
vn 0.00000000 0.00000000 -1.00000000
vn -0.00000200 0.00000000 -1.00000000
vn -0.00000100 0.00000000 -1.00000000
vn 0.00000000 0.00000000 -1.00000000
vn 0.00000200 -0.00000000 -1.00000000
vn -0.00000100 0.00000000 -1.00000000
vn 0.00000000 0.00000000 -1.00000000
vn -0.00000000 0.00000000 -1.00000000
vn 0.00000300 -0.00000000 -1.00000000
vn 0.00000000 0.00000000 -1.00000000
vn -0.00000200 0.00000000 -1.00000000
vn 0.00000300 -0.00000000 -1.00000000
vn 0.00000000 0.00000000 -1.00000000
vn 0.00000000 0.00000000 -1.00000000
vn 0.00000100 -0.00000000 -1.00000000
vn -0.00000000 0.00000000 -1.00000000
vn 0.00000100 -0.00000000 -1.00000000
vn 0.00000000 0.00000000 -1.00000000
vn 0.00000000 0.00000000 -1.00000000
vn 0.00000000 0.00000000 -1.00000000
vn 0.00000000 0.00000000 -1.00000000
vn 0.00000000 0.00000000 -1.00000000
vn 0.00000000 0.00000000 -1.00000000
vn -0.00000200 0.00000000 -1.00000000
vn 0.00000000 0.00000000 -1.00000000
vn 0.00000000 0.00000000 -1.00000000
vn 0.00000100 -0.00000000 -1.00000000
vn 0.00000000 0.00000000 -1.00000000
vn 0.00000100 -0.00000000 -1.00000000
vn 0.00000200 -0.00000000 -1.00000000
vn -0.00000200 0.00000000 -1.00000000
vn -0.00000200 0.00000000 -1.00000000
vn 0.00000100 -0.00000000 -1.00000000
vn 0.00000100 -0.00000000 -1.00000000
vn -0.00000200 0.00000000 -1.00000000
vn 0.00000000 0.00000000 -1.00000000
vn 0.00000000 -0.00000000 -1.00000000
vn 0.00000000 0.00000000 -1.00000000
vn 0.00000000 -0.00000000 -1.00000000
vn 0.00000200 -0.00000000 -1.00000000
vn 0.00000000 0.00000000 -1.00000000
vn -0.00000100 0.00000000 -1.00000000
vn 0.00000000 0.00000000 -1.00000000
vn 0.00000000 0.00000000 -1.00000000
vn -0.00000100 0.00000000 -1.00000000
vn 0.00000000 0.00000000 -1.00000000
vn 0.00000000 0.00000000 -1.00000000
vn 0.00000000 0.00000000 -1.00000000
vn 0.00000000 -0.00000000 -1.00000000
vn 0.00000000 0.00000000 -1.00000000
vn 0.00000000 0.00000000 -1.00000000
vn 0.00000100 -0.00000000 -1.00000000
vn 0.00000000 0.00000000 -1.00000000
vn 0.00000100 -0.00000000 -1.00000000
vn -0.00000400 0.00000000 -1.00000000
vn 0.00000200 -0.00000000 -1.00000000
vn 0.00000100 -0.00000000 -1.00000000
vn -0.00000400 0.00000000 -1.00000000
vn 0.00000100 -0.00000000 -1.00000000
vn 0.00000000 -0.00000000 -1.00000000
vn 0.00000200 -0.00000000 -1.00000000
vn -0.00000100 0.00000000 -1.00000000
vn -0.00000100 0.00000000 -1.00000000
vn 0.00000200 -0.00000000 -1.00000000
vn -0.00000400 0.00000000 1.00000000
vn 0.00000300 -0.00000000 1.00000000
vn -0.00000400 0.00000000 1.00000000
vn 0.00000000 0.00000000 1.00000000
vn -0.00000000 0.00000000 1.00000000
vn -0.00000100 0.00000000 1.00000000
vn 0.00000200 -0.00000000 1.00000000
vn -0.00000200 0.00000000 1.00000000
vn -0.00000100 0.00000000 1.00000000
vn 0.00000000 0.00000000 1.00000000
vn 0.00000300 -0.00000000 1.00000000
vn -0.00000100 0.00000000 1.00000000
vn 0.00000000 -0.00000000 1.00000000
vn -0.00000000 0.00000000 1.00000000
vn 0.00000000 -0.00000000 1.00000000
vn -0.00000100 0.00000000 1.00000000
vn 0.00000200 -0.00000000 1.00000000
vn -0.00000100 0.00000000 1.00000000
vn -0.00000200 0.00000000 1.00000000
vn 0.00000100 -0.00000000 1.00000000
vn 0.00000000 0.00000000 1.00000000
vn -0.00000200 0.00000000 1.00000000
vn -0.00000400 0.00000000 1.00000000
vn 0.00000100 -0.00000000 1.00000000
vn 0.00000100 -0.00000000 1.00000000
vn -0.00000200 0.00000000 1.00000000
vn -0.00000200 0.00000000 1.00000000
vn -0.00000200 0.00000000 1.00000000
vn 0.00000000 0.00000000 1.00000000
vn 0.00000000 0.00000000 1.00000000
vn 0.00000300 -0.00000000 1.00000000
vn 0.00000000 0.00000000 1.00000000
vn -0.00000100 0.00000000 1.00000000
vn 0.00000200 -0.00000000 1.00000000
vn 0.00000000 0.00000000 1.00000000
vn -0.00000200 0.00000000 1.00000000
vn 0.00000200 -0.00000000 1.00000000
vn 0.00000000 0.00000000 1.00000000
vn 0.00000000 0.00000000 1.00000000
vn 0.00000000 0.00000000 1.00000000
vn -0.00000100 0.00000000 1.00000000
vn 0.00000000 0.00000000 1.00000000
vn 0.00000000 -0.00000000 1.00000000
vn 0.00000000 -0.00000000 1.00000000
vn 0.00000000 0.00000000 1.00000000
vn 0.00000000 0.00000000 1.00000000
vn 0.00000000 0.00000000 1.00000000
vn 0.00000100 -0.00000000 1.00000000
vn -0.00000000 0.00000000 1.00000000
vn 0.00000000 0.00000000 1.00000000
vn 0.00000000 0.00000000 1.00000000
vn -0.00000000 0.00000000 1.00000000
vn 0.00000000 0.00000000 1.00000000
vn 0.00000000 0.00000000 1.00000000
vn 0.00000000 0.00000000 1.00000000
vn 0.00000100 -0.00000000 1.00000000
vn 0.00000000 0.00000000 1.00000000
vn 0.00000000 0.00000000 1.00000000
vn -0.00000100 0.00000000 1.00000000
vn -0.00000100 0.00000000 1.00000000
vn 0.00000000 0.00000000 1.00000000
vn 0.00000000 0.00000000 1.00000000
vn -0.00000100 0.00000000 1.00000000
vn 0.00000000 0.00000000 1.00000000
vn -0.00000000 0.00000000 1.00000000
vn 0.00000000 0.00000000 1.00000000
vn -0.00000000 0.00000000 1.00000000
vn 0.00000000 0.00000000 1.00000000
vn 0.00000000 -0.00000000 1.00000000
vn 0.00000000 0.00000000 1.00000000
vn -0.00000100 0.00000000 1.00000000
vn 0.00000000 -0.00000000 1.00000000
vn 0.00000000 0.00000000 1.00000000
vn -0.00000100 0.00000000 1.00000000
vn 0.00000000 0.00000000 1.00000000
vn 0.00000000 0.00000000 1.00000000
vn -0.00000100 0.00000000 1.00000000
vn 0.00000100 -0.00000000 1.00000000
vn 0.00000000 0.00000000 1.00000000
vn 0.00000000 0.00000000 1.00000000
vn 0.00000000 0.00000000 1.00000000
vn 0.00000200 -0.00000000 1.00000000
vn -0.00000200 0.00000000 1.00000000
vn -0.00000100 0.00000000 1.00000000
vn -0.00000200 0.00000000 1.00000000
vn -0.00000100 0.00000000 1.00000000
vn 0.00000100 -0.00000000 1.00000000
vn 0.00000000 0.00000000 1.00000000
vn 0.00000100 -0.00000000 1.00000000
vn 0.00000100 -0.00000000 1.00000000
vn 0.00000200 -0.00000000 1.00000000
f 1//1 2//2 3//3
f 3//3 2//2 4//4
f 2//2 5//5 4//4
f 4//4 5//5 6//6
f 4//4 6//6 7//7
f 7//7 6//6 8//8
f 7//7 8//8 9//9
f 9//9 8//8 10//10
f 9//9 10//10 11//11
f 11//11 10//10 12//12
f 11//11 12//12 13//13
f 13//13 12//12 14//14
f 13//13 14//14 15//15
f 15//15 14//14 16//16
f 15//15 16//16 17//17
f 17//17 16//16 18//18
f 17//17 18//18 19//19
f 19//19 18//18 20//20
f 19//19 20//20 21//21
f 21//21 20//20 22//22
f 21//21 22//22 23//23
f 23//23 22//22 24//24
f 23//23 24//24 25//25
f 25//25 24//24 26//26
f 25//25 26//26 27//27
f 27//27 26//26 28//28
f 27//27 28//28 29//29
f 29//29 28//28 30//30
f 29//29 30//30 31//31
f 31//31 30//30 32//32
f 31//31 32//32 33//33
f 33//33 32//32 34//34
f 33//33 34//34 35//35
f 35//35 34//34 36//36
f 35//35 36//36 37//37
f 37//37 36//36 38//38
f 37//37 38//38 39//39
f 39//39 38//38 40//40
f 39//39 40//40 41//41
f 41//41 40//40 42//42
f 41//41 42//42 43//43
f 43//43 42//42 44//44
f 43//43 44//44 45//45
f 45//45 44//44 46//46
f 45//45 46//46 47//47
f 47//47 46//46 48//48
f 47//47 48//48 49//49
f 49//49 48//48 50//50
f 49//49 50//50 51//51
f 51//51 50//50 52//52
f 51//51 52//52 53//53
f 53//53 52//52 54//54
f 53//53 54//54 55//55
f 55//55 54//54 56//56
f 55//55 56//56 57//57
f 57//57 56//56 58//58
f 57//57 58//58 59//59
f 59//59 58//58 60//60
f 59//59 60//60 61//61
f 61//61 60//60 62//62
f 61//61 62//62 63//63
f 63//63 62//62 64//64
f 63//63 64//64 65//65
f 65//65 64//64 66//66
f 65//65 66//66 67//67
f 67//67 66//66 68//68
f 67//67 68//68 69//69
f 69//69 68//68 70//70
f 69//69 70//70 71//71
f 71//71 70//70 72//72
f 71//71 72//72 73//73
f 73//73 72//72 74//74
f 73//73 74//74 75//75
f 75//75 74//74 76//76
f 75//75 76//76 77//77
f 77//77 76//76 78//78
f 77//77 78//78 79//79
f 79//79 78//78 1//1
f 79//79 1//1 80//80
f 80//80 1//1 3//3
f 81//81 83//83 88//88
f 106//106 109//109 88//88
f 96//96 108//108 111//111
f 95//95 110//110 82//82
f 112//112 115//115 88//88
f 94//94 114//114 117//117
f 93//93 116//116 107//107
f 118//118 119//119 88//88
f 90//90 120//120 122//122
f 92//92 121//121 113//113
f 123//123 124//124 88//88
f 88//88 124//124 125//125
f 88//88 125//125 118//118
f 126//126 127//127 88//88
f 88//88 127//127 128//128
f 88//88 128//128 123//123
f 130//130 131//131 88//88
f 91//91 132//132 134//134
f 88//88 133//133 126//126
f 136//136 137//137 89//89
f 86//86 138//138 139//139
f 105//105 140//140 129//129
f 141//141 143//143 88//88
f 87//87 142//142 144//144
f 85//85 145//145 135//135
f 146//146 148//148 88//88
f 103//103 147//147 150//150
f 88//88 149//149 141//141
f 151//151 152//152 88//88
f 88//88 152//152 153//153
f 88//88 153//153 146//146
f 155//155 156//156 88//88
f 101//101 157//157 159//159
f 88//88 158//158 151//151
f 160//160 163//163 102//102
f 97//97 162//162 164//164
f 100//100 165//165 154//154
f 84//84 166//166 98//98
f 99//99 167//167 168//168
f 104//104 169//169 161//161
f 170//170 172//172 192//192
f 195//195 197//197 191//191
f 190//190 198//198 199//199
f 180//180 200//200 171//171
f 201//201 204//204 179//179
f 186//186 203//203 206//206
f 177//177 205//205 196//196
f 207//207 208//208 179//179
f 179//179 208//208 209//209
f 178//178 210//210 202//202
f 212//212 213//213 184//184
f 179//179 214//214 215//215
f 179//179 215//215 207//207
f 216//216 219//219 179//179
f 174//174 218//218 221//221
f 179//179 220//220 211//211
f 222//222 223//223 179//179
f 179//179 223//223 224//224
f 189//189 225//225 217//217
f 226//226 227//227 179//179
f 185//185 228//228 229//229
f 179//179 230//230 222//222
f 231//231 233//233 179//179
f 183//183 234//234 236//236
f 179//179 235//235 226//226
f 237//237 239//239 179//179
f 182//182 238//238 241//241
f 181//181 240//240 232//232
f 242//242 244//244 179//179
f 187//187 243//243 246//246
f 179//179 245//245 237//237
f 248//248 249//249 179//179
f 179//179 249//249 250//250
f 179//179 250//250 242//242
f 252//252 254//254 188//188
f 175//175 253//253 255//255
f 193//193 256//256 247//247
f 173//173 257//257 179//179
f 194//194 258//258 259//259
f 176//176 260//260 251//251

