# https://github.com/mikedh/trimesh
v 0.11815000 -0.01423500 -0.02040000
v 0.11821400 -0.01423600 -0.02050000
v 0.11821400 -0.01423600 -0.02040000
v 0.11827800 -0.01422700 -0.02050000
v 0.11827800 -0.01422700 -0.02040000
v 0.11833900 -0.01420800 -0.02050000
v 0.11833900 -0.01420800 -0.02040000
v 0.11839700 -0.01417900 -0.02050000
v 0.11839700 -0.01417900 -0.02040000
v 0.11844900 -0.01414200 -0.02050000
v 0.11844900 -0.01414200 -0.02040000
v 0.11849400 -0.01409600 -0.02050000
v 0.11849400 -0.01409600 -0.02040000
v 0.11853200 -0.01404400 -0.02050000
v 0.11853200 -0.01404400 -0.02040000
v 0.11856100 -0.01398600 -0.02050000
v 0.11856100 -0.01398600 -0.02040000
v 0.11858000 -0.01392500 -0.02050000
v 0.11858000 -0.01392500 -0.02040000
v 0.11858900 -0.01386100 -0.02050000
v 0.11858900 -0.01386100 -0.02040000
v 0.11858800 -0.01379700 -0.02050000
v 0.11858800 -0.01379700 -0.02040000
v 0.11857600 -0.01373400 -0.02050000
v 0.11857600 -0.01373400 -0.02040000
v 0.11855500 -0.01367300 -0.02050000
v 0.11855500 -0.01367300 -0.02040000
v 0.11852400 -0.01361700 -0.02050000
v 0.11852400 -0.01361700 -0.02040000
v 0.11848400 -0.01356600 -0.02050000
v 0.11848400 -0.01356600 -0.02040000
v 0.11843700 -0.01352200 -0.02050000
v 0.11843700 -0.01352200 -0.02040000
v 0.11838300 -0.01348700 -0.02050000
v 0.11838300 -0.01348700 -0.02040000
v 0.11832400 -0.01346000 -0.02050000
v 0.11832400 -0.01346000 -0.02040000
v 0.11826200 -0.01344400 -0.02050000
v 0.11826200 -0.01344400 -0.02040000
v 0.11819800 -0.01343700 -0.02050000
v 0.11819800 -0.01343700 -0.02040000
v 0.11813400 -0.01344100 -0.02050000
v 0.11813400 -0.01344100 -0.02040000
v 0.11807100 -0.01345500 -0.02050000
v 0.11807100 -0.01345500 -0.02040000
v 0.11801100 -0.01347900 -0.02050000
v 0.11801100 -0.01347900 -0.02040000
v 0.11795600 -0.01351200 -0.02050000
v 0.11795600 -0.01351200 -0.02040000
v 0.11790700 -0.01355400 -0.02050000
v 0.11790700 -0.01355400 -0.02040000
v 0.11786600 -0.01360300 -0.02050000
v 0.11786600 -0.01360300 -0.02040000
v 0.11783200 -0.01365800 -0.02050000
v 0.11783200 -0.01365800 -0.02040000
v 0.11780800 -0.01371800 -0.02050000
v 0.11780800 -0.01371800 -0.02040000
v 0.11779400 -0.01378000 -0.02050000
v 0.11779400 -0.01378000 -0.02040000
v 0.11779000 -0.01384500 -0.02050000
v 0.11779000 -0.01384500 -0.02040000
v 0.11779700 -0.01390900 -0.02050000
v 0.11779700 -0.01390900 -0.02040000
v 0.11781300 -0.01397100 -0.02050000
v 0.11781300 -0.01397100 -0.02040000
v 0.11784000 -0.01403000 -0.02050000
v 0.11784000 -0.01403000 -0.02040000
v 0.11787500 -0.01408300 -0.02050000
v 0.11787500 -0.01408300 -0.02040000
v 0.11791900 -0.01413000 -0.02050000
v 0.11791900 -0.01413000 -0.02040000
v 0.11796900 -0.01417000 -0.02050000
v 0.11796900 -0.01417000 -0.02040000
v 0.11802600 -0.01420100 -0.02050000
v 0.11802600 -0.01420100 -0.02040000
v 0.11808600 -0.01422300 -0.02050000
v 0.11808600 -0.01422300 -0.02040000
v 0.11815000 -0.01423500 -0.02050000
v 0.11827800 -0.01422700 -0.02050000
v 0.11827800 -0.01422700 -0.02050000
v 0.11821400 -0.01423600 -0.02050000
v 0.11821400 -0.01423600 -0.02050000
v 0.11819000 -0.01383700 -0.02050000
v 0.11819000 -0.01383700 -0.02050000
v 0.11819000 -0.01383700 -0.02050000
v 0.11819000 -0.01383700 -0.02050000
v 0.11819000 -0.01383700 -0.02050000
v 0.11819000 -0.01383700 -0.02050000
v 0.11819000 -0.01383700 -0.02050000
v 0.11819000 -0.01383700 -0.02050000
v 0.11819000 -0.01383700 -0.02050000
v 0.11819000 -0.01383700 -0.02050000
v 0.11819000 -0.01383700 -0.02050000
v 0.11819000 -0.01383700 -0.02050000
v 0.11819000 -0.01383700 -0.02050000
v 0.11819000 -0.01383700 -0.02050000
v 0.11819000 -0.01383700 -0.02050000
v 0.11819000 -0.01383700 -0.02050000
v 0.11819000 -0.01383700 -0.02050000
v 0.11819000 -0.01383700 -0.02050000
v 0.11819000 -0.01383700 -0.02050000
v 0.11819000 -0.01383700 -0.02050000
v 0.11819000 -0.01383700 -0.02050000
v 0.11819000 -0.01383700 -0.02050000
v 0.11819000 -0.01383700 -0.02050000
v 0.11815000 -0.01423500 -0.02050000
v 0.11815000 -0.01423500 -0.02050000
v 0.11808600 -0.01422300 -0.02050000
v 0.11808600 -0.01422300 -0.02050000
v 0.11844900 -0.01414200 -0.02050000
v 0.11844900 -0.01414200 -0.02050000
v 0.11839700 -0.01417900 -0.02050000
v 0.11833900 -0.01420800 -0.02050000
v 0.11833900 -0.01420800 -0.02050000
v 0.11856100 -0.01398600 -0.02050000
v 0.11853200 -0.01404400 -0.02050000
v 0.11853200 -0.01404400 -0.02050000
v 0.11849400 -0.01409600 -0.02050000
v 0.11849400 -0.01409600 -0.02050000
v 0.11858800 -0.01379700 -0.02050000
v 0.11858800 -0.01379700 -0.02050000
v 0.11858900 -0.01386100 -0.02050000
v 0.11858000 -0.01392500 -0.02050000
v 0.11852400 -0.01361700 -0.02050000
v 0.11852400 -0.01361700 -0.02050000
v 0.11855500 -0.01367300 -0.02050000
v 0.11855500 -0.01367300 -0.02050000
v 0.11857600 -0.01373400 -0.02050000
v 0.11857600 -0.01373400 -0.02050000
v 0.11838300 -0.01348700 -0.02050000
v 0.11838300 -0.01348700 -0.02050000
v 0.11843700 -0.01352200 -0.02050000
v 0.11843700 -0.01352200 -0.02050000
v 0.11848400 -0.01356600 -0.02050000
v 0.11848400 -0.01356600 -0.02050000
v 0.11819800 -0.01343700 -0.02050000
v 0.11819800 -0.01343700 -0.02050000
v 0.11826200 -0.01344400 -0.02050000
v 0.11826200 -0.01344400 -0.02050000
v 0.11832400 -0.01346000 -0.02050000
v 0.11832400 -0.01346000 -0.02050000
v 0.11801100 -0.01347900 -0.02050000
v 0.11801100 -0.01347900 -0.02050000
v 0.11807100 -0.01345500 -0.02050000
v 0.11807100 -0.01345500 -0.02050000
v 0.11813400 -0.01344100 -0.02050000
v 0.11813400 -0.01344100 -0.02050000
v 0.11786600 -0.01360300 -0.02050000
v 0.11786600 -0.01360300 -0.02050000
v 0.11790700 -0.01355400 -0.02050000
v 0.11790700 -0.01355400 -0.02050000
v 0.11795600 -0.01351200 -0.02050000
v 0.11795600 -0.01351200 -0.02050000
v 0.11779400 -0.01378000 -0.02050000
v 0.11780800 -0.01371800 -0.02050000
v 0.11780800 -0.01371800 -0.02050000
v 0.11783200 -0.01365800 -0.02050000
v 0.11783200 -0.01365800 -0.02050000
v 0.11781300 -0.01397100 -0.02050000
v 0.11781300 -0.01397100 -0.02050000
v 0.11779700 -0.01390900 -0.02050000
v 0.11779000 -0.01384500 -0.02050000
v 0.11791900 -0.01413000 -0.02050000
v 0.11787500 -0.01408300 -0.02050000
v 0.11787500 -0.01408300 -0.02050000
v 0.11784000 -0.01403000 -0.02050000
v 0.11784000 -0.01403000 -0.02050000
v 0.11802600 -0.01420100 -0.02050000
v 0.11802600 -0.01420100 -0.02050000
v 0.11796900 -0.01417000 -0.02050000
v 0.11796900 -0.01417000 -0.02050000
v 0.11802600 -0.01420100 -0.02040000
v 0.11802600 -0.01420100 -0.02040000
v 0.11808600 -0.01422300 -0.02040000
v 0.11808600 -0.01422300 -0.02040000
v 0.11819000 -0.01383700 -0.02040000
v 0.11819000 -0.01383700 -0.02040000
v 0.11819000 -0.01383700 -0.02040000
v 0.11819000 -0.01383700 -0.02040000
v 0.11819000 -0.01383700 -0.02040000
v 0.11819000 -0.01383700 -0.02040000
v 0.11819000 -0.01383700 -0.02040000
v 0.11819000 -0.01383700 -0.02040000
v 0.11819000 -0.01383700 -0.02040000
v 0.11819000 -0.01383700 -0.02040000
v 0.11819000 -0.01383700 -0.02040000
v 0.11819000 -0.01383700 -0.02040000
v 0.11819000 -0.01383700 -0.02040000
v 0.11819000 -0.01383700 -0.02040000
v 0.11819000 -0.01383700 -0.02040000
v 0.11819000 -0.01383700 -0.02040000
v 0.11819000 -0.01383700 -0.02040000
v 0.11819000 -0.01383700 -0.02040000
v 0.11819000 -0.01383700 -0.02040000
v 0.11819000 -0.01383700 -0.02040000
v 0.11819000 -0.01383700 -0.02040000
v 0.11819000 -0.01383700 -0.02040000
v 0.11819000 -0.01383700 -0.02040000
v 0.11819000 -0.01383700 -0.02040000
v 0.11815000 -0.01423500 -0.02040000
v 0.11815000 -0.01423500 -0.02040000
v 0.11821400 -0.01423600 -0.02040000
v 0.11821400 -0.01423600 -0.02040000
v 0.11787500 -0.01408300 -0.02040000
v 0.11791900 -0.01413000 -0.02040000
v 0.11791900 -0.01413000 -0.02040000
v 0.11796900 -0.01417000 -0.02040000
v 0.11796900 -0.01417000 -0.02040000
v 0.11779700 -0.01390900 -0.02040000
v 0.11779700 -0.01390900 -0.02040000
v 0.11781300 -0.01397100 -0.02040000
v 0.11781300 -0.01397100 -0.02040000
v 0.11784000 -0.01403000 -0.02040000
v 0.11784000 -0.01403000 -0.02040000
v 0.11780800 -0.01371800 -0.02040000
v 0.11780800 -0.01371800 -0.02040000
v 0.11779400 -0.01378000 -0.02040000
v 0.11779400 -0.01378000 -0.02040000
v 0.11779000 -0.01384500 -0.02040000
v 0.11779000 -0.01384500 -0.02040000
v 0.11790700 -0.01355400 -0.02040000
v 0.11790700 -0.01355400 -0.02040000
v 0.11786600 -0.01360300 -0.02040000
v 0.11786600 -0.01360300 -0.02040000
v 0.11783200 -0.01365800 -0.02040000
v 0.11783200 -0.01365800 -0.02040000
v 0.11807100 -0.01345500 -0.02040000
v 0.11807100 -0.01345500 -0.02040000
v 0.11801100 -0.01347900 -0.02040000
v 0.11801100 -0.01347900 -0.02040000
v 0.11795600 -0.01351200 -0.02040000
v 0.11795600 -0.01351200 -0.02040000
v 0.11826200 -0.01344400 -0.02040000
v 0.11826200 -0.01344400 -0.02040000
v 0.11819800 -0.01343700 -0.02040000
v 0.11819800 -0.01343700 -0.02040000
v 0.11813400 -0.01344100 -0.02040000
v 0.11813400 -0.01344100 -0.02040000
v 0.11843700 -0.01352200 -0.02040000
v 0.11843700 -0.01352200 -0.02040000
v 0.11838300 -0.01348700 -0.02040000
v 0.11838300 -0.01348700 -0.02040000
v 0.11832400 -0.01346000 -0.02040000
v 0.11832400 -0.01346000 -0.02040000
v 0.11855500 -0.01367300 -0.02040000
v 0.11855500 -0.01367300 -0.02040000
v 0.11852400 -0.01361700 -0.02040000
v 0.11852400 -0.01361700 -0.02040000
v 0.11848400 -0.01356600 -0.02040000
v 0.11848400 -0.01356600 -0.02040000
v 0.11858900 -0.01386100 -0.02040000
v 0.11858800 -0.01379700 -0.02040000
v 0.11857600 -0.01373400 -0.02040000
v 0.11857600 -0.01373400 -0.02040000
v 0.11853200 -0.01404400 -0.02040000
v 0.11853200 -0.01404400 -0.02040000
v 0.11856100 -0.01398600 -0.02040000
v 0.11856100 -0.01398600 -0.02040000
v 0.11858000 -0.01392500 -0.02040000
v 0.11858000 -0.01392500 -0.02040000
v 0.11839700 -0.01417900 -0.02040000
v 0.11839700 -0.01417900 -0.02040000
v 0.11844900 -0.01414200 -0.02040000
v 0.11849400 -0.01409600 -0.02040000
v 0.11849400 -0.01409600 -0.02040000
v 0.11827800 -0.01422700 -0.02040000
v 0.11827800 -0.01422700 -0.02040000
v 0.11833900 -0.01420800 -0.02040000
v 0.11833900 -0.01420800 -0.02040000
vn -0.07423800 -0.99724100 0.00000000
vn 0.03300200 -0.99945500 0.00000900
vn 0.08672500 -0.99623200 0.00000900
vn 0.19288400 -0.98122100 0.00001300
vn 0.24531300 -0.96944400 0.00000100
vn 0.34775100 -0.93758700 0.00001000
vn 0.39768400 -0.91752200 -0.00001000
vn 0.49370400 -0.86963000 0.00001300
vn 0.53975500 -0.84182200 0.00000000
vn 0.62680400 -0.77917700 0.00001300
vn 0.66775400 -0.74438200 0.00000000
vn 0.74360800 -0.66861600 0.00000000
vn 0.77847800 -0.62767100 -0.00001100
vn 0.84124700 -0.54065100 0.00000000
vn 0.86910100 -0.49463400 0.00000100
vn 0.91712000 -0.39861100 0.00000900
vn 0.93721200 -0.34876000 -0.00001300
vn 0.96916900 -0.24639700 0.00000000
vn 0.98101600 -0.19392700 0.00000100
vn 0.99614400 -0.08773500 0.00001000
vn 0.99941900 -0.03408900 0.00000000
vn 0.99731600 0.07321700 0.00001000
vn 0.99193700 0.12673100 -0.00001000
vn 0.97264700 0.23228800 0.00000000
vn 0.95876300 0.28420600 0.00000000
vn 0.92281200 0.38525100 0.00000000
vn 0.90079100 0.43425300 -0.00001300
vn 0.84906100 0.52829600 0.00000000
vn 0.81944700 0.57315500 0.00000000
vn 0.75333700 0.65763400 0.00001300
vn 0.71686400 0.69721300 -0.00001300
vn 0.63808200 0.76996800 0.00001300
vn 0.59575000 0.80317000 -0.00001300
vn 0.50629700 0.86235900 0.00000000
vn 0.45920900 0.88832800 -0.00001300
vn 0.36137700 0.93242000 0.00000000
vn 0.31073800 0.95049600 0.00000000
vn 0.20712100 0.97831500 -0.00000100
vn 0.15428000 0.98802700 0.00000100
vn 0.04755400 0.99886900 0.00001000
vn -0.00618200 0.99998100 0.00000000
vn -0.11328900 0.99356200 0.00000000
vn -0.16651000 0.98604000 0.00000000
vn -0.27121500 0.96251900 0.00000000
vn -0.32252300 0.94656200 0.00000000
vn -0.42208400 0.90655700 0.00000000
vn -0.47019300 0.88256400 0.00000000
vn -0.56206900 0.82709000 0.00001000
vn -0.60569200 0.79569900 0.00000000
vn -0.68744200 0.72624000 0.00000000
vn -0.72554600 0.68817400 0.00000000
vn -0.79506500 0.60652500 -0.00000100
vn -0.82648700 0.56295600 -0.00001000
vn -0.88204500 0.47116600 0.00001000
vn -0.90608500 0.42309500 -0.00000900
vn -0.94619700 0.32359000 0.00001000
vn -0.96221400 0.27229500 0.00000000
vn -0.98585900 0.16757900 0.00000900
vn -0.99344200 0.11433700 -0.00001300
vn -0.99997300 0.00728300 0.00001000
vn -0.99891900 -0.04649100 0.00000000
vn -0.98819600 -0.15319500 0.00000000
vn -0.97851900 -0.20615700 0.00000000
vn -0.95081200 -0.30976900 0.00000000
vn -0.93279900 -0.36039800 -0.00001300
vn -0.88882100 -0.45825400 0.00000000
vn -0.86289200 -0.50538800 0.00000000
vn -0.80377000 -0.59494000 0.00000000
vn -0.77066900 -0.63723600 0.00000000
vn -0.69798700 -0.71611100 0.00001300
vn -0.65846200 -0.75261400 -0.00001300
vn -0.57405600 -0.81881600 0.00000000
vn -0.52915700 -0.84852400 0.00000000
vn -0.43525500 -0.90030700 0.00000900
vn -0.38623800 -0.92239900 0.00000100
vn -0.28522900 -0.95846000 -0.00000100
vn -0.23329200 -0.97240700 0.00000100
vn -0.12775100 -0.99180600 0.00000000
vn 0.00000000 0.00000000 -1.00000000
vn -0.00000900 0.00000100 -1.00000000
vn 0.00000000 0.00000000 -1.00000000
vn 0.00002200 -0.00000200 -1.00000000
vn 0.00000000 0.00000000 -1.00000000
vn 0.00002200 -0.00000200 -1.00000000
vn -0.00002200 0.00000200 -1.00000000
vn -0.00002600 0.00000300 -1.00000000
vn -0.00002000 0.00000200 -1.00000000
vn 0.00002600 -0.00000300 -1.00000000
vn -0.00001800 0.00000200 -1.00000000
vn 0.00001800 -0.00000200 -1.00000000
vn 0.00000900 -0.00000100 -1.00000000
vn -0.00000900 0.00000100 -1.00000000
vn -0.00003500 0.00000400 -1.00000000
vn 0.00000900 -0.00000100 -1.00000000
vn -0.00001800 0.00000200 -1.00000000
vn -0.00000900 0.00000100 -1.00000000
vn 0.00001800 -0.00000200 -1.00000000
vn -0.00000900 0.00000100 -1.00000000
vn 0.00000900 -0.00000100 -1.00000000
vn -0.00000900 0.00000100 -1.00000000
vn 0.00003500 -0.00000400 -1.00000000
vn -0.00001800 0.00000200 -1.00000000
vn 0.00002000 -0.00000200 -1.00000000
vn 0.00000900 -0.00000100 -1.00000000
vn 0.00001800 -0.00000200 -1.00000000
vn -0.00002200 0.00000200 -1.00000000
vn 0.00002200 -0.00000200 -1.00000000
vn -0.00002200 0.00000200 -1.00000000
vn 0.00000000 0.00000000 -1.00000000
vn 0.00000900 -0.00000100 -1.00000000
vn 0.00000000 0.00000000 -1.00000000
vn 0.00000000 0.00000000 -1.00000000
vn 0.00000000 0.00000000 -1.00000000
vn -0.00000900 0.00000100 -1.00000000
vn 0.00000000 0.00000000 -1.00000000
vn -0.00001800 0.00000200 -1.00000000
vn 0.00000000 0.00000000 -1.00000000
vn -0.00001800 0.00000200 -1.00000000
vn 0.00000900 -0.00000100 -1.00000000
vn 0.00000000 0.00000000 -1.00000000
vn 0.00000900 -0.00000100 -1.00000000
vn 0.00000000 0.00000000 -1.00000000
vn 0.00000000 0.00000000 -1.00000000
vn -0.00003500 0.00000400 -1.00000000
vn 0.00001800 -0.00000200 -1.00000000
vn -0.00000900 0.00000100 -1.00000000
vn -0.00003500 0.00000400 -1.00000000
vn 0.00000900 -0.00000100 -1.00000000
vn -0.00000900 0.00000100 -1.00000000
vn 0.00000000 0.00000000 -1.00000000
vn 0.00002600 -0.00000300 -1.00000000
vn -0.00001800 0.00000200 -1.00000000
vn 0.00000000 0.00000000 -1.00000000
vn 0.00001800 -0.00000200 -1.00000000
vn -0.00001800 0.00000200 -1.00000000
vn 0.00000000 0.00000000 -1.00000000
vn 0.00002000 -0.00000200 -1.00000000
vn 0.00000000 0.00000000 -1.00000000
vn -0.00002000 0.00000200 -1.00000000
vn -0.00002000 0.00000200 -1.00000000
vn 0.00002600 -0.00000300 -1.00000000
vn 0.00000000 0.00000000 -1.00000000
vn 0.00001800 -0.00000200 -1.00000000
vn -0.00002600 0.00000300 -1.00000000
vn 0.00000000 0.00000000 -1.00000000
vn -0.00002600 0.00000300 -1.00000000
vn 0.00002000 -0.00000200 -1.00000000
vn 0.00000900 -0.00000100 -1.00000000
vn 0.00003500 -0.00000400 -1.00000000
vn 0.00003500 -0.00000400 -1.00000000
vn -0.00001800 0.00000200 -1.00000000
vn 0.00001800 -0.00000200 -1.00000000
vn -0.00001800 0.00000200 -1.00000000
vn 0.00000000 0.00000000 -1.00000000
vn -0.00000900 0.00000100 -1.00000000
vn 0.00000000 0.00000000 -1.00000000
vn 0.00000900 -0.00000100 -1.00000000
vn -0.00000900 0.00000100 -1.00000000
vn 0.00000000 0.00000000 -1.00000000
vn 0.00001800 -0.00000200 -1.00000000
vn 0.00000000 0.00000000 -1.00000000
vn 0.00000000 0.00000000 -1.00000000
vn 0.00000000 0.00000000 -1.00000000
vn 0.00000000 0.00000000 -1.00000000
vn -0.00000900 0.00000100 -1.00000000
vn 0.00001800 -0.00000200 -1.00000000
vn -0.00000900 0.00000100 -1.00000000
vn 0.00000000 0.00000000 -1.00000000
vn 0.00000900 -0.00000100 -1.00000000
vn 0.00000000 0.00000000 -1.00000000
vn 0.00000900 -0.00000100 -1.00000000
vn 0.00000000 0.00000000 1.00000000
vn 0.00004000 -0.00000400 1.00000000
vn 0.00000000 0.00000000 1.00000000
vn -0.00002900 0.00000300 1.00000000
vn 0.00002600 -0.00000300 1.00000000
vn -0.00004000 0.00000400 1.00000000
vn -0.00000900 0.00000100 1.00000000
vn -0.00001800 0.00000200 1.00000000
vn -0.00001800 0.00000200 1.00000000
vn 0.00002900 -0.00000300 1.00000000
vn -0.00002900 0.00000300 1.00000000
vn 0.00001800 -0.00000200 1.00000000
vn -0.00001900 0.00000200 1.00000000
vn 0.00002600 -0.00000300 1.00000000
vn 0.00000200 -0.00000000 1.00000000
vn -0.00002600 0.00000300 1.00000000
vn 0.00004000 -0.00000400 1.00000000
vn 0.00001800 -0.00000200 1.00000000
vn 0.00000200 -0.00000000 1.00000000
vn 0.00000900 -0.00000100 1.00000000
vn -0.00003500 0.00000400 1.00000000
vn 0.00000900 -0.00000100 1.00000000
vn -0.00000900 0.00000100 1.00000000
vn 0.00000000 0.00000000 1.00000000
vn 0.00001900 -0.00000200 1.00000000
vn -0.00000200 0.00000000 1.00000000
vn 0.00003500 -0.00000400 1.00000000
vn -0.00002600 0.00000300 1.00000000
vn -0.00002900 0.00000300 1.00000000
vn 0.00002900 -0.00000300 1.00000000
vn 0.00000000 0.00000000 1.00000000
vn 0.00002900 -0.00000300 1.00000000
vn 0.00000000 0.00000000 1.00000000
vn 0.00000000 0.00000000 1.00000000
vn -0.00002600 0.00000300 1.00000000
vn -0.00002600 0.00000300 1.00000000
vn 0.00004000 -0.00000400 1.00000000
vn 0.00000900 -0.00000100 1.00000000
vn 0.00000000 0.00000000 1.00000000
vn 0.00001800 -0.00000200 1.00000000
vn 0.00000000 0.00000000 1.00000000
vn 0.00000000 0.00000000 1.00000000
vn 0.00001800 -0.00000200 1.00000000
vn 0.00000000 0.00000000 1.00000000
vn 0.00000200 -0.00000000 1.00000000
vn 0.00000200 -0.00000000 1.00000000
vn 0.00000000 0.00000000 1.00000000
vn 0.00000000 0.00000000 1.00000000
vn 0.00000900 -0.00000100 1.00000000
vn -0.00003500 0.00000400 1.00000000
vn 0.00002600 -0.00000300 1.00000000
vn 0.00001800 -0.00000200 1.00000000
vn -0.00003500 0.00000400 1.00000000
vn 0.00000000 0.00000000 1.00000000
vn 0.00001800 -0.00000200 1.00000000
vn 0.00000200 -0.00000000 1.00000000
vn 0.00000000 0.00000000 1.00000000
vn -0.00000900 0.00000100 1.00000000
vn 0.00000000 0.00000000 1.00000000
vn 0.00002600 -0.00000300 1.00000000
vn -0.00000900 0.00000100 1.00000000
vn 0.00001900 -0.00000200 1.00000000
vn 0.00000000 0.00000000 1.00000000
vn 0.00000000 0.00000000 1.00000000
vn -0.00001900 0.00000200 1.00000000
vn -0.00001900 0.00000200 1.00000000
vn 0.00000200 -0.00000000 1.00000000
vn 0.00000900 -0.00000100 1.00000000
vn 0.00000000 0.00000000 1.00000000
vn 0.00000000 0.00000000 1.00000000
vn -0.00000200 0.00000000 1.00000000
vn -0.00000200 0.00000000 1.00000000
vn 0.00001900 -0.00000200 1.00000000
vn -0.00001800 0.00000200 1.00000000
vn 0.00003500 -0.00000400 1.00000000
vn -0.00002600 0.00000300 1.00000000
vn 0.00003500 -0.00000400 1.00000000
vn -0.00002600 0.00000300 1.00000000
vn 0.00000900 -0.00000100 1.00000000
vn 0.00000000 0.00000000 1.00000000
vn 0.00000000 0.00000000 1.00000000
vn -0.00001800 0.00000200 1.00000000
vn 0.00000000 0.00000000 1.00000000
vn 0.00000000 0.00000000 1.00000000
vn -0.00001800 0.00000200 1.00000000
vn 0.00000000 0.00000000 1.00000000
vn -0.00000900 0.00000100 1.00000000
vn -0.00000900 0.00000100 1.00000000
vn 0.00000000 0.00000000 1.00000000
vn 0.00002600 -0.00000300 1.00000000
vn 0.00000000 0.00000000 1.00000000
vn 0.00000000 0.00000000 1.00000000
vn 0.00000000 0.00000000 1.00000000
vn -0.00001800 0.00000200 1.00000000
vn -0.00004000 0.00000400 1.00000000
vn 0.00000000 0.00000000 1.00000000
vn -0.00004000 0.00000400 1.00000000
vn 0.00002600 -0.00000300 1.00000000
f 1//1 2//2 3//3
f 3//3 2//2 4//4
f 3//3 4//4 5//5
f 5//5 4//4 6//6
f 5//5 6//6 7//7
f 7//7 6//6 8//8
f 7//7 8//8 9//9
f 9//9 8//8 10//10
f 9//9 10//10 11//11
f 11//11 10//10 12//12
f 11//11 12//12 13//13
f 13//13 12//12 14//14
f 13//13 14//14 15//15
f 15//15 14//14 16//16
f 15//15 16//16 17//17
f 17//17 16//16 18//18
f 17//17 18//18 19//19
f 19//19 18//18 20//20
f 19//19 20//20 21//21
f 21//21 20//20 22//22
f 21//21 22//22 23//23
f 23//23 22//22 24//24
f 23//23 24//24 25//25
f 25//25 24//24 26//26
f 25//25 26//26 27//27
f 27//27 26//26 28//28
f 27//27 28//28 29//29
f 29//29 28//28 30//30
f 29//29 30//30 31//31
f 31//31 30//30 32//32
f 31//31 32//32 33//33
f 33//33 32//32 34//34
f 33//33 34//34 35//35
f 35//35 34//34 36//36
f 35//35 36//36 37//37
f 37//37 36//36 38//38
f 37//37 38//38 39//39
f 39//39 38//38 40//40
f 39//39 40//40 41//41
f 41//41 40//40 42//42
f 41//41 42//42 43//43
f 43//43 42//42 44//44
f 43//43 44//44 45//45
f 45//45 44//44 46//46
f 45//45 46//46 47//47
f 47//47 46//46 48//48
f 47//47 48//48 49//49
f 49//49 48//48 50//50
f 49//49 50//50 51//51
f 51//51 50//50 52//52
f 51//51 52//52 53//53
f 53//53 52//52 54//54
f 53//53 54//54 55//55
f 55//55 54//54 56//56
f 55//55 56//56 57//57
f 57//57 56//56 58//58
f 57//57 58//58 59//59
f 59//59 58//58 60//60
f 59//59 60//60 61//61
f 61//61 60//60 62//62
f 61//61 62//62 63//63
f 63//63 62//62 64//64
f 63//63 64//64 65//65
f 65//65 64//64 66//66
f 65//65 66//66 67//67
f 67//67 66//66 68//68
f 67//67 68//68 69//69
f 69//69 68//68 70//70
f 69//69 70//70 71//71
f 71//71 70//70 72//72
f 71//71 72//72 73//73
f 73//73 72//72 74//74
f 73//73 74//74 75//75
f 75//75 74//74 76//76
f 75//75 76//76 77//77
f 77//77 76//76 78//78
f 77//77 78//78 1//1
f 1//1 78//78 2//2
f 79//79 81//81 83//83
f 84//84 82//82 107//107
f 85//85 106//106 108//108
f 111//111 112//112 83//83
f 83//83 112//112 113//113
f 96//96 114//114 80//80
f 115//115 117//117 83//83
f 95//95 116//116 118//118
f 94//94 119//119 110//110
f 120//120 122//122 83//83
f 83//83 122//122 123//123
f 83//83 123//123 115//115
f 124//124 127//127 93//93
f 92//92 126//126 129//129
f 91//91 128//128 121//121
f 130//130 133//133 83//83
f 89//89 132//132 135//135
f 90//90 134//134 125//125
f 136//136 138//138 83//83
f 87//87 139//139 140//140
f 88//88 141//141 131//131
f 142//142 145//145 83//83
f 86//86 144//144 146//146
f 103//103 147//147 137//137
f 149//149 150//150 101//101
f 102//102 151//151 153//153
f 97//97 152//152 143//143
f 154//154 156//156 83//83
f 100//100 155//155 158//158
f 99//99 157//157 148//148
f 159//159 161//161 83//83
f 83//83 161//161 162//162
f 83//83 162//162 154//154
f 163//163 164//164 83//83
f 98//98 165//165 167//167
f 105//105 166//166 160//160
f 109//109 168//168 83//83
f 104//104 169//169 171//171
f 83//83 170//170 163//163
f 172//172 174//174 195//195
f 182//182 175//175 200//200
f 181//181 201//201 203//203
f 204//204 205//205 195//195
f 187//187 206//206 207//207
f 188//188 208//208 173//173
f 210//210 212//212 195//195
f 189//189 211//211 214//214
f 195//195 213//213 204//204
f 216//216 217//217 190//190
f 195//195 218//218 219//219
f 191//191 220//220 209//209
f 221//221 224//224 192//192
f 183//183 223//223 226//226
f 195//195 225//225 215//215
f 228//228 230//230 195//195
f 194//194 229//229 232//232
f 185//185 231//231 222//222
f 234//234 235//235 195//195
f 184//184 236//236 237//237
f 186//186 238//238 227//227
f 240//240 241//241 195//195
f 197//197 242//242 243//243
f 196//196 244//244 233//233
f 246//246 248//248 198//198
f 199//199 247//247 249//249
f 193//193 250//250 239//239
f 251//251 252//252 195//195
f 195//195 252//252 254//254
f 180//180 253//253 245//245
f 255//255 257//257 195//195
f 178//178 258//258 259//259
f 195//195 260//260 251//251
f 262//262 263//263 195//195
f 195//195 263//263 264//264
f 179//179 265//265 256//256
f 202//202 267//267 195//195
f 177//177 266//266 268//268
f 176//176 269//269 261//261

