# https://github.com/mikedh/trimesh
v 0.11651700 -0.02188600 0.02050000
v 0.11651700 -0.02188600 0.02040000
v 0.11654700 -0.02155200 0.02040000
v 0.11654700 -0.02155200 0.02050000
v 0.11663700 -0.02113700 0.02040000
v 0.11663700 -0.02113700 0.02050000
v 0.11678300 -0.02074100 0.02040000
v 0.11678300 -0.02074100 0.02050000
v 0.11698300 -0.02036900 0.02040000
v 0.11698300 -0.02036900 0.02050000
v 0.11723200 -0.02003000 0.02040000
v 0.11723200 -0.02003000 0.02050000
v 0.11748600 -0.01976400 0.02040000
v 0.11748600 -0.01976400 0.02050000
v 0.11780900 -0.01950300 0.02040000
v 0.11780900 -0.01950300 0.02050000
v 0.11816100 -0.01929000 0.02040000
v 0.11816100 -0.01929000 0.02050000
v 0.11853900 -0.01912700 0.02040000
v 0.11853900 -0.01912700 0.02050000
v 0.11894200 -0.01901500 0.02040000
v 0.11894200 -0.01901500 0.02050000
v 0.11916400 -0.01895100 0.02040000
v 0.11916400 -0.01895100 0.02050000
v 0.11943200 -0.01882000 0.02040000
v 0.11943200 -0.01882000 0.02050000
v 0.11966600 -0.01863800 0.02040000
v 0.11966600 -0.01863800 0.02050000
v 0.11986000 -0.01841500 0.02040000
v 0.11986000 -0.01841500 0.02050000
v 0.11989500 -0.01836300 0.02040000
v 0.11989500 -0.01836300 0.02050000
v 0.12002800 -0.01810500 0.02040000
v 0.12002800 -0.01810500 0.02050000
v 0.12010800 -0.01783000 0.02040000
v 0.12010800 -0.01783000 0.02050000
v 0.12013300 -0.01754700 0.02040000
v 0.12013300 -0.01754700 0.02050000
v 0.12010300 -0.01725700 0.02040000
v 0.12010300 -0.01725700 0.02050000
v 0.12003900 -0.01703500 0.02040000
v 0.12003900 -0.01703500 0.02050000
v 0.11990800 -0.01676700 0.02040000
v 0.11990800 -0.01676700 0.02050000
v 0.11972600 -0.01653200 0.02040000
v 0.11972600 -0.01653200 0.02050000
v 0.11950300 -0.01633900 0.02040000
v 0.11950300 -0.01633900 0.02050000
v 0.11945100 -0.01630400 0.02040000
v 0.11945100 -0.01630400 0.02050000
v 0.11919300 -0.01617100 0.02040000
v 0.11919300 -0.01617100 0.02050000
v 0.11891800 -0.01609100 0.02040000
v 0.11891800 -0.01609100 0.02050000
v 0.11863500 -0.01606600 0.02040000
v 0.11863500 -0.01606600 0.02050000
v 0.11834400 -0.01609600 0.02040000
v 0.11834400 -0.01609600 0.02050000
v 0.11822600 -0.01612500 0.02040000
v 0.11822600 -0.01612500 0.02050000
v 0.11795000 -0.01623700 0.02040000
v 0.11795000 -0.01623700 0.02050000
v 0.11770200 -0.01640100 0.02040000
v 0.11770200 -0.01640100 0.02050000
v 0.11749300 -0.01660900 0.02040000
v 0.11749300 -0.01660900 0.02050000
v 0.11732900 -0.01685300 0.02040000
v 0.11732900 -0.01685300 0.02050000
v 0.11721900 -0.01711900 0.02040000
v 0.11721900 -0.01711900 0.02050000
v 0.11716200 -0.01739800 0.02040000
v 0.11716200 -0.01739800 0.02050000
v 0.11715900 -0.01769000 0.02040000
v 0.11715900 -0.01769000 0.02050000
v 0.11717100 -0.01802600 0.02040000
v 0.11717100 -0.01802600 0.02050000
v 0.11713300 -0.01844800 0.02040000
v 0.11713300 -0.01844800 0.02050000
v 0.11703700 -0.01885900 0.02040000
v 0.11703700 -0.01885900 0.02050000
v 0.11688400 -0.01925300 0.02040000
v 0.11688400 -0.01925300 0.02050000
v 0.11668000 -0.01962000 0.02040000
v 0.11668000 -0.01962000 0.02050000
v 0.11646000 -0.01991600 0.02040000
v 0.11646000 -0.01991600 0.02050000
v 0.11617200 -0.02021500 0.02040000
v 0.11617200 -0.02021500 0.02050000
v 0.11584800 -0.02047000 0.02040000
v 0.11584800 -0.02047000 0.02050000
v 0.11549400 -0.02067800 0.02040000
v 0.11549400 -0.02067800 0.02050000
v 0.11510800 -0.02083800 0.02040000
v 0.11510800 -0.02083800 0.02050000
v 0.11490300 -0.02093200 0.02040000
v 0.11490300 -0.02093200 0.02050000
v 0.11470300 -0.02108600 0.02040000
v 0.11470300 -0.02108600 0.02050000
v 0.11454600 -0.02128200 0.02040000
v 0.11454600 -0.02128200 0.02050000
v 0.11444900 -0.02147600 0.02040000
v 0.11444900 -0.02147600 0.02050000
v 0.11439000 -0.02171200 0.02040000
v 0.11439000 -0.02171200 0.02050000
v 0.11438600 -0.02195100 0.02040000
v 0.11438600 -0.02195100 0.02050000
v 0.11443800 -0.02219200 0.02040000
v 0.11443800 -0.02219200 0.02050000
v 0.11453200 -0.02239700 0.02040000
v 0.11453200 -0.02239700 0.02050000
v 0.11468600 -0.02259700 0.02040000
v 0.11468600 -0.02259700 0.02050000
v 0.11488100 -0.02275400 0.02040000
v 0.11488100 -0.02275400 0.02050000
v 0.11507600 -0.02285100 0.02040000
v 0.11507600 -0.02285100 0.02050000
v 0.11531100 -0.02290900 0.02040000
v 0.11531100 -0.02290900 0.02050000
v 0.11555000 -0.02291400 0.02040000
v 0.11555000 -0.02291400 0.02050000
v 0.11579100 -0.02286200 0.02040000
v 0.11579100 -0.02286200 0.02050000
v 0.11585800 -0.02283700 0.02040000
v 0.11585800 -0.02283700 0.02050000
v 0.11606200 -0.02272500 0.02040000
v 0.11606200 -0.02272500 0.02050000
v 0.11624900 -0.02255900 0.02040000
v 0.11624900 -0.02255900 0.02050000
v 0.11639100 -0.02235500 0.02040000
v 0.11639100 -0.02235500 0.02050000
v 0.11648000 -0.02213000 0.02040000
v 0.11648000 -0.02213000 0.02050000
v 0.11986000 -0.01841500 0.02050000
v 0.11986000 -0.01841500 0.02050000
v 0.11989500 -0.01836300 0.02050000
v 0.11989500 -0.01836300 0.02050000
v 0.11717100 -0.01802600 0.02050000
v 0.11717100 -0.01802600 0.02050000
v 0.11717100 -0.01802600 0.02050000
v 0.11717100 -0.01802600 0.02050000
v 0.11717100 -0.01802600 0.02050000
v 0.11717100 -0.01802600 0.02050000
v 0.11950300 -0.01633900 0.02050000
v 0.11950300 -0.01633900 0.02050000
v 0.11945100 -0.01630400 0.02050000
v 0.11715900 -0.01769000 0.02050000
v 0.11715900 -0.01769000 0.02050000
v 0.11715900 -0.01769000 0.02050000
v 0.11715900 -0.01769000 0.02050000
v 0.11715900 -0.01769000 0.02050000
v 0.11715900 -0.01769000 0.02050000
v 0.11715900 -0.01769000 0.02050000
v 0.11715900 -0.01769000 0.02050000
v 0.11715900 -0.01769000 0.02050000
v 0.12002800 -0.01810500 0.02050000
v 0.12002800 -0.01810500 0.02050000
v 0.12010800 -0.01783000 0.02050000
v 0.12010800 -0.01783000 0.02050000
v 0.11549400 -0.02067800 0.02050000
v 0.11510800 -0.02083800 0.02050000
v 0.11510800 -0.02083800 0.02050000
v 0.11663700 -0.02113700 0.02050000
v 0.11470300 -0.02108600 0.02050000
v 0.11470300 -0.02108600 0.02050000
v 0.11454600 -0.02128200 0.02050000
v 0.11654700 -0.02155200 0.02050000
v 0.11654700 -0.02155200 0.02050000
v 0.11444900 -0.02147600 0.02050000
v 0.11444900 -0.02147600 0.02050000
v 0.11444900 -0.02147600 0.02050000
v 0.11651700 -0.02188600 0.02050000
v 0.11651700 -0.02188600 0.02050000
v 0.11651700 -0.02188600 0.02050000
v 0.11439000 -0.02171200 0.02050000
v 0.11439000 -0.02171200 0.02050000
v 0.11439000 -0.02171200 0.02050000
v 0.11439000 -0.02171200 0.02050000
v 0.11648000 -0.02213000 0.02050000
v 0.11648000 -0.02213000 0.02050000
v 0.11654700 -0.02155200 0.02050000
v 0.11654700 -0.02155200 0.02050000
v 0.11654700 -0.02155200 0.02050000
v 0.11490300 -0.02093200 0.02050000
v 0.11490300 -0.02093200 0.02050000
v 0.11439000 -0.02171200 0.02050000
v 0.11439000 -0.02171200 0.02050000
v 0.11439000 -0.02171200 0.02050000
v 0.11439000 -0.02171200 0.02050000
v 0.11439000 -0.02171200 0.02050000
v 0.11439000 -0.02171200 0.02050000
v 0.11585800 -0.02283700 0.02050000
v 0.11585800 -0.02283700 0.02050000
v 0.11606200 -0.02272500 0.02050000
v 0.11606200 -0.02272500 0.02050000
v 0.11894200 -0.01901500 0.02050000
v 0.11894200 -0.01901500 0.02050000
v 0.11916400 -0.01895100 0.02050000
v 0.11713300 -0.01844800 0.02050000
v 0.11713300 -0.01844800 0.02050000
v 0.11713300 -0.01844800 0.02050000
v 0.11943200 -0.01882000 0.02050000
v 0.11943200 -0.01882000 0.02050000
v 0.11966600 -0.01863800 0.02050000
v 0.11966600 -0.01863800 0.02050000
v 0.11688400 -0.01925300 0.02050000
v 0.11688400 -0.01925300 0.02050000
v 0.11780900 -0.01950300 0.02050000
v 0.11703700 -0.01885900 0.02050000
v 0.11780900 -0.01950300 0.02050000
v 0.11816100 -0.01929000 0.02050000
v 0.11816100 -0.01929000 0.02050000
v 0.11853900 -0.01912700 0.02050000
v 0.11853900 -0.01912700 0.02050000
v 0.11663700 -0.02113700 0.02050000
v 0.11663700 -0.02113700 0.02050000
v 0.11584800 -0.02047000 0.02050000
v 0.11584800 -0.02047000 0.02050000
v 0.11584800 -0.02047000 0.02050000
v 0.11678300 -0.02074100 0.02050000
v 0.11678300 -0.02074100 0.02050000
v 0.11617200 -0.02021500 0.02050000
v 0.11617200 -0.02021500 0.02050000
v 0.12010800 -0.01783000 0.02050000
v 0.12013300 -0.01754700 0.02050000
v 0.12010300 -0.01725700 0.02050000
v 0.12010300 -0.01725700 0.02050000
v 0.12003900 -0.01703500 0.02050000
v 0.12003900 -0.01703500 0.02050000
v 0.11919300 -0.01617100 0.02050000
v 0.11919300 -0.01617100 0.02050000
v 0.11891800 -0.01609100 0.02050000
v 0.11891800 -0.01609100 0.02050000
v 0.11863500 -0.01606600 0.02050000
v 0.11863500 -0.01606600 0.02050000
v 0.11732900 -0.01685300 0.02050000
v 0.11732900 -0.01685300 0.02050000
v 0.11721900 -0.01711900 0.02050000
v 0.11822600 -0.01612500 0.02050000
v 0.11822600 -0.01612500 0.02050000
v 0.11822600 -0.01612500 0.02050000
v 0.11834400 -0.01609600 0.02050000
v 0.11834400 -0.01609600 0.02050000
v 0.11822600 -0.01612500 0.02050000
v 0.11822600 -0.01612500 0.02050000
v 0.11716200 -0.01739800 0.02050000
v 0.11716200 -0.01739800 0.02050000
v 0.11990800 -0.01676700 0.02050000
v 0.11990800 -0.01676700 0.02050000
v 0.11972600 -0.01653200 0.02050000
v 0.11972600 -0.01653200 0.02050000
v 0.11531100 -0.02290900 0.02050000
v 0.11531100 -0.02290900 0.02050000
v 0.11555000 -0.02291400 0.02050000
v 0.11555000 -0.02291400 0.02050000
v 0.11579100 -0.02286200 0.02050000
v 0.11579100 -0.02286200 0.02050000
v 0.11624900 -0.02255900 0.02050000
v 0.11624900 -0.02255900 0.02050000
v 0.11639100 -0.02235500 0.02050000
v 0.11639100 -0.02235500 0.02050000
v 0.11678300 -0.02074100 0.02050000
v 0.11646000 -0.01991600 0.02050000
v 0.11698300 -0.02036900 0.02050000
v 0.11668000 -0.01962000 0.02050000
v 0.11698300 -0.02036900 0.02050000
v 0.11723200 -0.02003000 0.02050000
v 0.11723200 -0.02003000 0.02050000
v 0.11748600 -0.01976400 0.02050000
v 0.11748600 -0.01976400 0.02050000
v 0.11795000 -0.01623700 0.02050000
v 0.11770200 -0.01640100 0.02050000
v 0.11770200 -0.01640100 0.02050000
v 0.11749300 -0.01660900 0.02050000
v 0.11749300 -0.01660900 0.02050000
v 0.11438600 -0.02195100 0.02050000
v 0.11438600 -0.02195100 0.02050000
v 0.11488100 -0.02275400 0.02050000
v 0.11488100 -0.02275400 0.02050000
v 0.11488100 -0.02275400 0.02050000
v 0.11507600 -0.02285100 0.02050000
v 0.11507600 -0.02285100 0.02050000
v 0.11443800 -0.02219200 0.02050000
v 0.11443800 -0.02219200 0.02050000
v 0.11453200 -0.02239700 0.02050000
v 0.11453200 -0.02239700 0.02050000
v 0.11468600 -0.02259700 0.02050000
v 0.11916400 -0.01895100 0.02040000
v 0.11916400 -0.01895100 0.02040000
v 0.11894200 -0.01901500 0.02040000
v 0.11894200 -0.01901500 0.02040000
v 0.11713300 -0.01844800 0.02040000
v 0.11713300 -0.01844800 0.02040000
v 0.11713300 -0.01844800 0.02040000
v 0.11713300 -0.01844800 0.02040000
v 0.11713300 -0.01844800 0.02040000
v 0.11853900 -0.01912700 0.02040000
v 0.11853900 -0.01912700 0.02040000
v 0.11853900 -0.01912700 0.02040000
v 0.11703700 -0.01885900 0.02040000
v 0.11703700 -0.01885900 0.02040000
v 0.11703700 -0.01885900 0.02040000
v 0.11816100 -0.01929000 0.02040000
v 0.11816100 -0.01929000 0.02040000
v 0.11816100 -0.01929000 0.02040000
v 0.11688400 -0.01925300 0.02040000
v 0.11688400 -0.01925300 0.02040000
v 0.11688400 -0.01925300 0.02040000
v 0.11688400 -0.01925300 0.02040000
v 0.11454600 -0.02128200 0.02040000
v 0.11454600 -0.02128200 0.02040000
v 0.11470300 -0.02108600 0.02040000
v 0.11470300 -0.02108600 0.02040000
v 0.11654700 -0.02155200 0.02040000
v 0.11654700 -0.02155200 0.02040000
v 0.11654700 -0.02155200 0.02040000
v 0.11654700 -0.02155200 0.02040000
v 0.11490300 -0.02093200 0.02040000
v 0.11490300 -0.02093200 0.02040000
v 0.11490300 -0.02093200 0.02040000
v 0.11663700 -0.02113700 0.02040000
v 0.11663700 -0.02113700 0.02040000
v 0.11663700 -0.02113700 0.02040000
v 0.12010300 -0.01725700 0.02040000
v 0.12013300 -0.01754700 0.02040000
v 0.11715900 -0.01769000 0.02040000
v 0.11715900 -0.01769000 0.02040000
v 0.11715900 -0.01769000 0.02040000
v 0.11715900 -0.01769000 0.02040000
v 0.11715900 -0.01769000 0.02040000
v 0.11715900 -0.01769000 0.02040000
v 0.11715900 -0.01769000 0.02040000
v 0.11715900 -0.01769000 0.02040000
v 0.11715900 -0.01769000 0.02040000
v 0.12010800 -0.01783000 0.02040000
v 0.12010800 -0.01783000 0.02040000
v 0.12010800 -0.01783000 0.02040000
v 0.11717100 -0.01802600 0.02040000
v 0.11717100 -0.01802600 0.02040000
v 0.11717100 -0.01802600 0.02040000
v 0.11717100 -0.01802600 0.02040000
v 0.11717100 -0.01802600 0.02040000
v 0.12002800 -0.01810500 0.02040000
v 0.12002800 -0.01810500 0.02040000
v 0.11989500 -0.01836300 0.02040000
v 0.11822600 -0.01612500 0.02040000
v 0.11822600 -0.01612500 0.02040000
v 0.11822600 -0.01612500 0.02040000
v 0.11834400 -0.01609600 0.02040000
v 0.11834400 -0.01609600 0.02040000
v 0.11510800 -0.02083800 0.02040000
v 0.11549400 -0.02067800 0.02040000
v 0.11549400 -0.02067800 0.02040000
v 0.11549400 -0.02067800 0.02040000
v 0.11678300 -0.02074100 0.02040000
v 0.11678300 -0.02074100 0.02040000
v 0.11678300 -0.02074100 0.02040000
v 0.11678300 -0.02074100 0.02040000
v 0.11986000 -0.01841500 0.02040000
v 0.11986000 -0.01841500 0.02040000
v 0.11966600 -0.01863800 0.02040000
v 0.11966600 -0.01863800 0.02040000
v 0.11966600 -0.01863800 0.02040000
v 0.11943200 -0.01882000 0.02040000
v 0.11943200 -0.01882000 0.02040000
v 0.11863500 -0.01606600 0.02040000
v 0.11863500 -0.01606600 0.02040000
v 0.11891800 -0.01609100 0.02040000
v 0.11891800 -0.01609100 0.02040000
v 0.11919300 -0.01617100 0.02040000
v 0.11919300 -0.01617100 0.02040000
v 0.11444900 -0.02147600 0.02040000
v 0.11444900 -0.02147600 0.02040000
v 0.11651700 -0.02188600 0.02040000
v 0.11651700 -0.02188600 0.02040000
v 0.11439000 -0.02171200 0.02040000
v 0.11439000 -0.02171200 0.02040000
v 0.11439000 -0.02171200 0.02040000
v 0.11439000 -0.02171200 0.02040000
v 0.11439000 -0.02171200 0.02040000
v 0.11439000 -0.02171200 0.02040000
v 0.11439000 -0.02171200 0.02040000
v 0.11648000 -0.02213000 0.02040000
v 0.11648000 -0.02213000 0.02040000
v 0.11639100 -0.02235500 0.02040000
v 0.11639100 -0.02235500 0.02040000
v 0.11716200 -0.01739800 0.02040000
v 0.11716200 -0.01739800 0.02040000
v 0.11721900 -0.01711900 0.02040000
v 0.11721900 -0.01711900 0.02040000
v 0.11732900 -0.01685300 0.02040000
v 0.11732900 -0.01685300 0.02040000
v 0.11945100 -0.01630400 0.02040000
v 0.11945100 -0.01630400 0.02040000
v 0.11950300 -0.01633900 0.02040000
v 0.11950300 -0.01633900 0.02040000
v 0.11972600 -0.01653200 0.02040000
v 0.11972600 -0.01653200 0.02040000
v 0.11584800 -0.02047000 0.02040000
v 0.11584800 -0.02047000 0.02040000
v 0.11617200 -0.02021500 0.02040000
v 0.11617200 -0.02021500 0.02040000
v 0.11617200 -0.02021500 0.02040000
v 0.11698300 -0.02036900 0.02040000
v 0.11698300 -0.02036900 0.02040000
v 0.11698300 -0.02036900 0.02040000
v 0.11646000 -0.01991600 0.02040000
v 0.11646000 -0.01991600 0.02040000
v 0.11723200 -0.02003000 0.02040000
v 0.11723200 -0.02003000 0.02040000
v 0.11668000 -0.01962000 0.02040000
v 0.11748600 -0.01976400 0.02040000
v 0.11748600 -0.01976400 0.02040000
v 0.11780900 -0.01950300 0.02040000
v 0.11780900 -0.01950300 0.02040000
v 0.11624900 -0.02255900 0.02040000
v 0.11606200 -0.02272500 0.02040000
v 0.11606200 -0.02272500 0.02040000
v 0.11585800 -0.02283700 0.02040000
v 0.11585800 -0.02283700 0.02040000
v 0.11579100 -0.02286200 0.02040000
v 0.11579100 -0.02286200 0.02040000
v 0.11555000 -0.02291400 0.02040000
v 0.11555000 -0.02291400 0.02040000
v 0.11531100 -0.02290900 0.02040000
v 0.11531100 -0.02290900 0.02040000
v 0.11990800 -0.01676700 0.02040000
v 0.11990800 -0.01676700 0.02040000
v 0.12003900 -0.01703500 0.02040000
v 0.12003900 -0.01703500 0.02040000
v 0.11443800 -0.02219200 0.02040000
v 0.11443800 -0.02219200 0.02040000
v 0.11488100 -0.02275400 0.02040000
v 0.11488100 -0.02275400 0.02040000
v 0.11488100 -0.02275400 0.02040000
v 0.11488100 -0.02275400 0.02040000
v 0.11488100 -0.02275400 0.02040000
v 0.11453200 -0.02239700 0.02040000
v 0.11453200 -0.02239700 0.02040000
v 0.11468600 -0.02259700 0.02040000
v 0.11507600 -0.02285100 0.02040000
v 0.11507600 -0.02285100 0.02040000
v 0.11438600 -0.02195100 0.02040000
v 0.11438600 -0.02195100 0.02040000
v 0.11749300 -0.01660900 0.02040000
v 0.11770200 -0.01640100 0.02040000
v 0.11795000 -0.01623700 0.02040000
vn 0.99407500 -0.10870000 -0.00000400
vn 0.99169200 -0.12863800 0.00000000
vn 0.99149400 -0.13015400 0.00000000
vn 0.98520200 -0.17139900 0.00000000
vn 0.96620500 -0.25777400 0.00000000
vn 0.95312700 -0.30257200 0.00000000
vn 0.92084400 -0.38993200 0.00000000
vn 0.90170600 -0.43235000 0.00000000
vn 0.85781800 -0.51395400 0.00000000
vn 0.83312200 -0.55309000 0.00000000
vn 0.78045600 -0.62521100 0.00000000
vn 0.75265600 -0.65841400 0.00000000
vn 0.69320400 -0.72074100 0.00000000
vn 0.66155700 -0.74989500 0.00000000
vn 0.59274700 -0.80538900 0.00000000
vn 0.55545800 -0.83154500 0.00000000
vn 0.47765400 -0.87854800 0.00000000
vn 0.43727300 -0.89932900 0.00000000
vn 0.35377700 -0.93533000 0.00000000
vn 0.31073600 -0.95049600 0.00000000
vn 0.26991700 -0.96288400 0.00000000
vn 0.27246400 -0.96216600 -0.00000000
vn 0.33177600 -0.94335800 0.00001100
vn 0.38724900 -0.92197500 0.00000000
vn 0.50031500 -0.86584300 0.00000000
vn 0.55733700 -0.83028600 -0.00001300
vn 0.66272700 -0.74886100 0.00001600
vn 0.71103800 -0.70315400 0.00000000
vn 0.78150700 -0.62389600 0.00000900
vn 0.80576000 -0.59224200 0.00000000
vn 0.85007400 -0.52666300 0.00000000
vn 0.87010400 -0.49286700 -0.00000900
vn 0.91648400 -0.40007100 0.00000000
vn 0.94043400 -0.33997600 0.00000100
vn 0.97628400 -0.21649200 0.00001900
vn 0.98819700 -0.15318700 0.00000100
vn 0.99968900 -0.02495100 0.00000000
vn 0.99920300 0.03992300 -0.00001200
vn 0.98681000 0.16188600 0.00000000
vn 0.97574200 0.21892300 0.00000000
vn 0.94340400 0.33164500 0.00000000
vn 0.92200300 0.38718200 0.00000100
vn 0.86587100 0.50026800 0.00000000
vn 0.83028700 0.55733600 -0.00001300
vn 0.74886800 0.66271900 0.00001300
vn 0.70315700 0.71103400 -0.00001600
vn 0.62387700 0.78152200 0.00000000
vn 0.59222500 0.80577300 0.00000000
vn 0.52659100 0.85011900 0.00000900
vn 0.49276200 0.87016400 -0.00001200
vn 0.39996200 0.91653200 0.00000000
vn 0.33992600 0.94045200 0.00000000
vn 0.21643900 0.97629600 0.00002200
vn 0.15318200 0.98819800 0.00000000
vn 0.02487200 0.99969100 -0.00000100
vn -0.04001400 0.99919900 0.00000000
vn -0.14994100 0.98869500 0.00001100
vn -0.19507800 0.98078800 -0.00000900
vn -0.28511700 0.95849300 0.00000900
vn -0.32989100 0.94401900 -0.00000800
vn -0.43505000 0.90040600 -0.00000100
vn -0.49454700 0.86915100 0.00000000
vn -0.60566800 0.79571700 0.00000000
vn -0.65719400 0.75372200 0.00000000
vn -0.75067900 0.66066700 0.00000000
vn -0.79261200 0.60972600 -0.00001300
vn -0.86529400 0.50126500 0.00000000
vn -0.89611800 0.44381600 -0.00002100
vn -0.94585800 0.32458000 0.00000000
vn -0.96480700 0.26295900 0.00000000
vn -0.99061600 0.13667600 0.00001200
vn -0.99739500 0.07213800 0.00000000
vn -0.99997800 -0.00670600 0.00000300
vn -0.99978200 -0.02089900 -0.00000400
vn -0.99997800 0.00660400 0.00000000
vn -0.99883000 0.04835200 0.00000000
vn -0.99065400 0.13639900 0.00000000
vn -0.98321100 0.18247200 0.00000000
vn -0.96196200 0.27318400 0.00000000
vn -0.94820700 0.31765500 0.00000000
vn -0.91472500 0.40407700 0.00000000
vn -0.89507500 0.44591600 0.00000000
vn -0.85165300 0.52410500 0.00000000
vn -0.82821400 0.56041100 0.00000000
vn -0.77688500 0.62964200 0.00000000
vn -0.74913600 0.66241600 0.00000000
vn -0.68765800 0.72603500 0.00000000
vn -0.65388700 0.75659300 0.00000000
vn -0.58247800 0.81284600 0.00000000
vn -0.54497600 0.83845200 0.00000000
vn -0.46652200 0.88451000 0.00000000
vn -0.42568000 0.90487400 0.00000000
vn -0.39529900 0.91855200 0.00000000
vn -0.40645500 0.91367100 0.00000000
vn -0.48431900 0.87489100 0.00000000
vn -0.54869400 0.83602300 0.00000000
vn -0.67014200 0.74223300 0.00000000
vn -0.72681400 0.68683500 -0.00001500
vn -0.82223200 0.56915200 0.00001600
vn -0.86160500 0.50758000 0.00000000
vn -0.92564500 0.37839300 0.00001400
vn -0.95041400 0.31098800 -0.00001700
vn -0.98571300 0.16843300 0.00000000
vn -0.99564300 0.09324900 0.00000100
vn -0.99829900 -0.05829800 -0.00000100
vn -0.99091700 -0.13447600 -0.00001700
vn -0.95991700 -0.28028300 0.00001400
vn -0.93678200 -0.34991300 0.00000100
vn -0.87501300 -0.48409900 0.00000000
vn -0.83616600 -0.54847700 0.00000000
vn -0.74237400 -0.66998600 0.00000000
vn -0.68699500 -0.72666200 -0.00001900
vn -0.56933400 -0.82210600 0.00000000
vn -0.50765100 -0.86156300 -0.00001800
vn -0.37833400 -0.92566900 0.00001700
vn -0.31089000 -0.95044600 0.00000000
vn -0.16819800 -0.98575300 0.00000000
vn -0.09297100 -0.99566900 -0.00001300
vn 0.05861100 -0.99828100 0.00000000
vn 0.13477800 -0.99087600 0.00000000
vn 0.25745400 -0.96629100 0.00000900
vn 0.30460900 -0.95247700 -0.00000900
vn 0.39490100 -0.91872400 0.00000000
vn 0.43807800 -0.89893700 0.00000000
vn 0.54506700 -0.83839300 -0.00000100
vn 0.60710800 -0.79462000 -0.00001500
vn 0.72135700 -0.69256300 0.00000000
vn 0.77328800 -0.63405500 -0.00001900
vn 0.86162300 -0.50754900 0.00001500
vn 0.89809500 -0.43980100 0.00000000
vn 0.95464600 -0.29774400 0.00000000
vn 0.97467700 -0.22361500 0.00000000
vn -0.00000100 0.00000000 1.00000000
vn 0.00000000 0.00000000 1.00000000
vn -0.00000100 0.00000000 1.00000000
vn -0.00000100 0.00000000 1.00000000
vn -0.00000100 0.00000000 1.00000000
vn 0.00000200 -0.00000000 1.00000000
vn -0.00000100 0.00000000 1.00000000
vn 0.00000100 -0.00000000 1.00000000
vn -0.00000100 0.00000000 1.00000000
vn 0.00000000 0.00000000 1.00000000
vn 0.00000000 0.00000000 1.00000000
vn 0.00000100 -0.00000000 1.00000000
vn 0.00000000 0.00000000 1.00000000
vn -0.00000100 0.00000000 1.00000000
vn -0.00000100 0.00000000 1.00000000
vn 0.00000000 0.00000000 1.00000000
vn -0.00000600 0.00000100 1.00000000
vn 0.00000200 -0.00000000 1.00000000
vn 0.00003800 -0.00000400 1.00000000
vn 0.00000100 -0.00000000 1.00000000
vn -0.00001200 0.00000100 1.00000000
vn 0.00000100 -0.00000000 1.00000000
vn -0.00000100 0.00000000 1.00000000
vn -0.00000100 0.00000000 1.00000000
vn -0.00000100 0.00000000 1.00000000
vn 0.00000100 -0.00000000 1.00000000
vn 0.00000000 0.00000000 1.00000000
vn 0.00000000 0.00000000 1.00000000
vn -0.00000200 0.00000000 1.00000000
vn 0.00000000 0.00000000 1.00000000
vn -0.00000100 0.00000000 1.00000000
vn 0.00000000 0.00000000 1.00000000
vn 0.00000000 0.00000000 1.00000000
vn 0.00000000 0.00000000 1.00000000
vn -0.00000100 0.00000000 1.00000000
vn -0.00000100 0.00000000 1.00000000
vn 0.00000000 0.00000000 1.00000000
vn 0.00000200 -0.00000000 1.00000000
vn 0.00000200 -0.00000000 1.00000000
vn 0.00000000 0.00000000 1.00000000
vn -0.00000100 0.00000000 1.00000000
vn 0.00000000 0.00000000 1.00000000
vn 0.00000200 -0.00000000 1.00000000
vn -0.00000200 0.00000000 1.00000000
vn 0.00000200 -0.00000000 1.00000000
vn 0.00000000 0.00000000 1.00000000
vn -0.00000200 0.00000000 1.00000000
vn -0.00000200 0.00000000 1.00000000
vn -0.00000100 0.00000000 1.00000000
vn 0.00000000 0.00000000 1.00000000
vn -0.00000100 0.00000000 1.00000000
vn -0.00000200 0.00000000 1.00000000
vn 0.00000400 -0.00000000 1.00000000
vn 0.00000700 -0.00000100 1.00000000
vn -0.00000200 0.00000000 1.00000000
vn 0.00000400 -0.00000000 1.00000000
vn 0.00000000 0.00000000 1.00000000
vn -0.00000600 0.00000100 1.00000000
vn -0.00000600 0.00000100 1.00000000
vn -0.00000200 0.00000000 1.00000000
vn 0.00000400 -0.00000000 1.00000000
vn -0.00000600 0.00000100 1.00000000
vn 0.00000100 -0.00000000 1.00000000
vn 0.00000000 0.00000000 1.00000000
vn 0.00000000 0.00000000 1.00000000
vn -0.00000200 0.00000000 1.00000000
vn 0.00000100 -0.00000000 1.00000000
vn 0.00000000 0.00000000 1.00000000
vn 0.00000000 0.00000000 1.00000000
vn 0.00000200 -0.00000000 1.00000000
vn 0.00000200 -0.00000000 1.00000000
vn 0.00000000 0.00000000 1.00000000
vn 0.00000000 0.00000000 1.00000000
vn -0.00000300 0.00000000 1.00000000
vn 0.00000000 0.00000000 1.00000000
vn 0.00000000 0.00000000 1.00000000
vn 0.00000000 0.00000000 1.00000000
vn 0.00000000 0.00000000 1.00000000
vn -0.00000200 0.00000000 1.00000000
vn 0.00000100 -0.00000000 1.00000000
vn -0.00000200 0.00000000 1.00000000
vn 0.00000000 0.00000000 1.00000000
vn -0.00000400 0.00000000 1.00000000
vn 0.00000000 0.00000000 1.00000000
vn 0.00000600 -0.00000100 1.00000000
vn -0.00000400 0.00000000 1.00000000
vn 0.00000600 -0.00000100 1.00000000
vn -0.00000400 0.00000000 1.00000000
vn 0.00000600 -0.00000100 1.00000000
vn 0.00000000 0.00000000 1.00000000
vn 0.00000000 0.00000000 1.00000000
vn 0.00000000 0.00000000 1.00000000
vn 0.00000000 0.00000000 1.00000000
vn -0.00000100 0.00000000 1.00000000
vn -0.00000100 0.00000000 1.00000000
vn 0.00000000 0.00000000 1.00000000
vn 0.00000000 0.00000000 1.00000000
vn 0.00000200 -0.00000000 1.00000000
vn 0.00000200 -0.00000000 1.00000000
vn -0.00000600 0.00000100 1.00000000
vn -0.00000600 0.00000100 1.00000000
vn 0.00000000 0.00000000 1.00000000
vn -0.00000900 0.00000100 1.00000000
vn 0.00000000 0.00000000 1.00000000
vn 0.00000000 0.00000000 1.00000000
vn 0.00005100 -0.00000500 1.00000000
vn -0.00000900 0.00000100 1.00000000
vn 0.00000000 0.00000000 1.00000000
vn 0.00000000 0.00000000 1.00000000
vn 0.00003800 -0.00000400 1.00000000
vn 0.00003800 -0.00000400 1.00000000
vn -0.00001200 0.00000100 1.00000000
vn -0.00001200 0.00000100 1.00000000
vn 0.00000000 0.00000000 1.00000000
vn -0.00000100 0.00000000 1.00000000
vn 0.00000000 0.00000000 1.00000000
vn -0.00000100 0.00000000 1.00000000
vn 0.00000100 -0.00000000 1.00000000
vn 0.00000000 0.00000000 1.00000000
vn 0.00000400 -0.00000000 1.00000000
vn 0.00000700 -0.00000100 1.00000000
vn 0.00000000 0.00000000 1.00000000
vn 0.00000700 -0.00000100 1.00000000
vn -0.00000200 0.00000000 1.00000000
vn 0.00000400 -0.00000000 1.00000000
vn 0.00000200 -0.00000000 1.00000000
vn 0.00000200 -0.00000000 1.00000000
vn -0.00000200 0.00000000 1.00000000
vn 0.00000000 0.00000000 1.00000000
vn 0.00000000 0.00000000 1.00000000
vn 0.00000000 0.00000000 1.00000000
vn 0.00000000 0.00000000 1.00000000
vn 0.00000000 0.00000000 1.00000000
vn 0.00000000 0.00000000 1.00000000
vn -0.00000300 0.00000000 1.00000000
vn 0.00000000 0.00000000 1.00000000
vn -0.00000300 0.00000000 1.00000000
vn 0.00005100 -0.00000500 1.00000000
vn 0.00005100 -0.00000500 1.00000000
vn 0.00000000 0.00000000 1.00000000
vn 0.00000000 0.00000000 1.00000000
vn -0.00000900 0.00000100 1.00000000
vn -0.00002300 0.00000200 1.00000000
vn 0.00000000 0.00000000 1.00000000
vn -0.00002400 0.00000200 1.00000000
vn -0.00002300 0.00000200 1.00000000
vn 0.00000000 0.00000000 1.00000000
vn 0.00000000 0.00000000 1.00000000
vn 0.00000400 -0.00000000 1.00000000
vn -0.00002400 0.00000200 1.00000000
vn -0.00002300 0.00000200 1.00000000
vn 0.00000000 0.00000000 1.00000000
vn -0.00002400 0.00000200 1.00000000
vn 0.00000000 0.00000000 1.00000000
vn -0.00000100 0.00000000 -1.00000000
vn 0.00000000 0.00000000 -1.00000000
vn 0.00000200 -0.00000000 -1.00000000
vn 0.00000000 0.00000000 -1.00000000
vn -0.00000100 0.00000000 -1.00000000
vn -0.00000100 0.00000000 -1.00000000
vn 0.00000100 -0.00000000 -1.00000000
vn 0.00000000 0.00000000 -1.00000000
vn 0.00000200 -0.00000000 -1.00000000
vn 0.00000000 0.00000000 -1.00000000
vn -0.00000100 0.00000000 -1.00000000
vn 0.00000200 -0.00000000 -1.00000000
vn 0.00000000 0.00000000 -1.00000000
vn -0.00000000 0.00000000 -1.00000000
vn -0.00000100 0.00000000 -1.00000000
vn -0.00000000 0.00000000 -1.00000000
vn -0.00000100 0.00000000 -1.00000000
vn 0.00000000 0.00000000 -1.00000000
vn -0.00000100 0.00000000 -1.00000000
vn -0.00000100 0.00000000 -1.00000000
vn -0.00000000 0.00000000 -1.00000000
vn 0.00000000 0.00000000 -1.00000000
vn -0.00000200 0.00000000 -1.00000000
vn 0.00000000 0.00000000 -1.00000000
vn 0.00000100 -0.00000000 -1.00000000
vn -0.00000200 0.00000000 -1.00000000
vn -0.00000100 0.00000000 -1.00000000
vn 0.00000000 0.00000000 -1.00000000
vn -0.00000200 0.00000000 -1.00000000
vn 0.00000100 -0.00000000 -1.00000000
vn 0.00000000 0.00000000 -1.00000000
vn -0.00000100 0.00000000 -1.00000000
vn 0.00000100 -0.00000000 -1.00000000
vn 0.00000000 -0.00000000 -1.00000000
vn -0.00000100 0.00000000 -1.00000000
vn 0.00000000 0.00000000 -1.00000000
vn 0.00000000 0.00000000 -1.00000000
vn 0.00000000 0.00000000 -1.00000000
vn -0.00001700 0.00000200 -1.00000000
vn 0.00001000 -0.00000100 -1.00000000
vn 0.00000200 -0.00000000 -1.00000000
vn -0.00001100 0.00000100 -1.00000000
vn 0.00000000 0.00000000 -1.00000000
vn -0.00000200 0.00000000 -1.00000000
vn -0.00000100 0.00000000 -1.00000000
vn -0.00000100 0.00000000 -1.00000000
vn 0.00000800 -0.00000100 -1.00000000
vn 0.00000000 0.00000000 -1.00000000
vn -0.00000200 0.00000000 -1.00000000
vn 0.00000100 -0.00000000 -1.00000000
vn 0.00000100 -0.00000000 -1.00000000
vn -0.00000100 0.00000000 -1.00000000
vn 0.00000000 0.00000000 -1.00000000
vn -0.00000200 0.00000000 -1.00000000
vn 0.00000100 -0.00000000 -1.00000000
vn 0.00000000 0.00000000 -1.00000000
vn 0.00000100 -0.00000000 -1.00000000
vn 0.00000000 0.00000000 -1.00000000
vn 0.00000000 0.00000000 -1.00000000
vn -0.00000400 0.00000000 -1.00000000
vn -0.00000600 0.00000100 -1.00000000
vn 0.00000000 0.00000000 -1.00000000
vn -0.00001700 0.00000200 -1.00000000
vn 0.00000000 0.00000000 -1.00000000
vn 0.00000200 -0.00000000 -1.00000000
vn 0.00000000 0.00000000 -1.00000000
vn 0.00000000 -0.00000000 -1.00000000
vn 0.00000200 -0.00000000 -1.00000000
vn -0.00000400 0.00000000 -1.00000000
vn 0.00000300 -0.00000000 -1.00000000
vn 0.00000000 -0.00000000 -1.00000000
vn -0.00000100 0.00000000 -1.00000000
vn 0.00000000 0.00000000 -1.00000000
vn -0.00000100 0.00000000 -1.00000000
vn 0.00000100 -0.00000000 -1.00000000
vn 0.00000000 0.00000000 -1.00000000
vn -0.00000100 0.00000000 -1.00000000
vn 0.00000000 0.00000000 -1.00000000
vn -0.00001700 0.00000200 -1.00000000
vn 0.00000200 -0.00000000 -1.00000000
vn 0.00001000 -0.00000100 -1.00000000
vn 0.00000200 -0.00000000 -1.00000000
vn 0.00001000 -0.00000100 -1.00000000
vn -0.00001100 0.00000100 -1.00000000
vn 0.00000000 -0.00000000 -1.00000000
vn 0.00000000 0.00000000 -1.00000000
vn 0.00000000 -0.00000000 -1.00000000
vn 0.00000000 0.00000000 -1.00000000
vn 0.00000000 0.00000000 -1.00000000
vn -0.00000800 0.00000100 -1.00000000
vn 0.00000700 -0.00000100 -1.00000000
vn 0.00000000 -0.00000000 -1.00000000
vn -0.00000200 0.00000000 -1.00000000
vn 0.00000200 -0.00000000 -1.00000000
vn 0.00000300 -0.00000000 -1.00000000
vn 0.00000000 0.00000000 -1.00000000
vn -0.00000200 0.00000000 -1.00000000
vn -0.00000200 0.00000000 -1.00000000
vn 0.00000000 0.00000000 -1.00000000
vn 0.00000000 0.00000000 -1.00000000
vn -0.00000400 0.00000000 -1.00000000
vn -0.00000600 0.00000100 -1.00000000
vn -0.00000400 0.00000000 -1.00000000
vn -0.00000600 0.00000100 -1.00000000
vn 0.00000000 0.00000000 -1.00000000
vn -0.00001100 0.00000100 -1.00000000
vn 0.00000800 -0.00000100 -1.00000000
vn 0.00000800 -0.00000100 -1.00000000
vn -0.00000100 0.00000000 -1.00000000
vn 0.00000000 0.00000000 -1.00000000
vn -0.00000100 0.00000000 -1.00000000
vn 0.00000200 -0.00000000 -1.00000000
vn 0.00000300 -0.00000000 -1.00000000
vn -0.00000400 0.00000000 -1.00000000
vn 0.00000300 -0.00000000 -1.00000000
vn 0.00000000 0.00000000 -1.00000000
vn -0.00000100 0.00000000 -1.00000000
vn -0.00000400 0.00000000 -1.00000000
vn 0.00000000 0.00000000 -1.00000000
vn 0.00000000 0.00000000 -1.00000000
vn -0.00000100 0.00000000 -1.00000000
vn -0.00000100 0.00000000 -1.00000000
vn 0.00000000 0.00000000 -1.00000000
vn 0.00000000 0.00000000 -1.00000000
vn 0.00000000 0.00000000 -1.00000000
vn -0.00000100 0.00000000 -1.00000000
vn -0.00000100 0.00000000 -1.00000000
vn -0.00000100 0.00000000 -1.00000000
vn 0.00000000 0.00000000 -1.00000000
vn 0.00000000 0.00000000 -1.00000000
vn 0.00000700 -0.00000100 -1.00000000
vn 0.00000700 -0.00000100 -1.00000000
vn 0.00000000 0.00000000 -1.00000000
vn 0.00000000 0.00000000 -1.00000000
vn -0.00000800 0.00000100 -1.00000000
vn 0.00000200 -0.00000000 -1.00000000
vn -0.00000800 0.00000100 -1.00000000
vn 0.00000000 0.00000000 -1.00000000
vn 0.00000200 -0.00000000 -1.00000000
vn -0.00000100 0.00000000 -1.00000000
vn 0.00000000 0.00000000 -1.00000000
vn 0.00000000 0.00000000 -1.00000000
vn -0.00000100 0.00000000 -1.00000000
vn -0.00002300 0.00000200 -1.00000000
vn -0.00002400 0.00000200 -1.00000000
vn -0.00002300 0.00000200 -1.00000000
vn 0.00000300 -0.00000000 -1.00000000
vn 0.00003000 -0.00000300 -1.00000000
vn -0.00002400 0.00000200 -1.00000000
vn 0.00000000 0.00000000 -1.00000000
vn 0.00003000 -0.00000300 -1.00000000
vn -0.00002400 0.00000200 -1.00000000
vn 0.00003000 -0.00000300 -1.00000000
vn 0.00000000 0.00000000 -1.00000000
vn 0.00000300 -0.00000000 -1.00000000
vn -0.00002300 0.00000200 -1.00000000
vn 0.00000000 0.00000000 -1.00000000
vn 0.00000000 0.00000000 -1.00000000
vn 0.00000000 0.00000000 -1.00000000
vn 0.00000000 0.00000000 -1.00000000
f 1//1 2//2 3//3
f 1//1 3//3 4//4
f 4//4 3//3 5//5
f 4//4 5//5 6//6
f 6//6 5//5 7//7
f 6//6 7//7 8//8
f 8//8 7//7 9//9
f 8//8 9//9 10//10
f 10//10 9//9 11//11
f 10//10 11//11 12//12
f 12//12 11//11 13//13
f 12//12 13//13 14//14
f 14//14 13//13 15//15
f 14//14 15//15 16//16
f 16//16 15//15 17//17
f 16//16 17//17 18//18
f 18//18 17//17 19//19
f 18//18 19//19 20//20
f 20//20 19//19 21//21
f 20//20 21//21 22//22
f 22//22 21//21 23//23
f 22//22 23//23 24//24
f 24//24 23//23 25//25
f 24//24 25//25 26//26
f 26//26 25//25 27//27
f 26//26 27//27 28//28
f 28//28 27//27 29//29
f 28//28 29//29 30//30
f 30//30 29//29 31//31
f 30//30 31//31 32//32
f 32//32 31//31 33//33
f 32//32 33//33 34//34
f 34//34 33//33 35//35
f 34//34 35//35 36//36
f 36//36 35//35 37//37
f 36//36 37//37 38//38
f 38//38 37//37 39//39
f 38//38 39//39 40//40
f 40//40 39//39 41//41
f 40//40 41//41 42//42
f 42//42 41//41 43//43
f 42//42 43//43 44//44
f 44//44 43//43 45//45
f 44//44 45//45 46//46
f 46//46 45//45 47//47
f 46//46 47//47 48//48
f 48//48 47//47 49//49
f 48//48 49//49 50//50
f 50//50 49//49 51//51
f 50//50 51//51 52//52
f 52//52 51//51 53//53
f 52//52 53//53 54//54
f 54//54 53//53 55//55
f 54//54 55//55 56//56
f 56//56 55//55 57//57
f 56//56 57//57 58//58
f 58//58 57//57 59//59
f 58//58 59//59 60//60
f 60//60 59//59 61//61
f 60//60 61//61 62//62
f 62//62 61//61 63//63
f 62//62 63//63 64//64
f 64//64 63//63 65//65
f 64//64 65//65 66//66
f 66//66 65//65 67//67
f 66//66 67//67 68//68
f 68//68 67//67 69//69
f 68//68 69//69 70//70
f 70//70 69//69 71//71
f 70//70 71//71 72//72
f 72//72 71//71 73//73
f 72//72 73//73 74//74
f 74//74 73//73 75//75
f 74//74 75//75 76//76
f 76//76 75//75 77//77
f 76//76 77//77 78//78
f 78//78 77//77 79//79
f 78//78 79//79 80//80
f 80//80 79//79 81//81
f 80//80 81//81 82//82
f 82//82 81//81 83//83
f 82//82 83//83 84//84
f 84//84 83//83 85//85
f 84//84 85//85 86//86
f 86//86 85//85 87//87
f 86//86 87//87 88//88
f 88//88 87//87 89//89
f 88//88 89//89 90//90
f 90//90 89//89 91//91
f 90//90 91//91 92//92
f 92//92 91//91 93//93
f 92//92 93//93 94//94
f 94//94 93//93 95//95
f 94//94 95//95 96//96
f 96//96 95//95 97//97
f 96//96 97//97 98//98
f 98//98 97//97 99//99
f 98//98 99//99 100//100
f 100//100 99//99 101//101
f 100//100 101//101 102//102
f 102//102 101//101 103//103
f 102//102 103//103 104//104
f 104//104 103//103 105//105
f 104//104 105//105 106//106
f 106//106 105//105 107//107
f 106//106 107//107 108//108
f 108//108 107//107 109//109
f 108//108 109//109 110//110
f 110//110 109//109 111//111
f 110//110 111//111 112//112
f 112//112 111//111 113//113
f 112//112 113//113 114//114
f 114//114 113//113 115//115
f 114//114 115//115 116//116
f 116//116 115//115 117//117
f 116//116 117//117 118//118
f 118//118 117//117 119//119
f 118//118 119//119 120//120
f 120//120 119//119 121//121
f 120//120 121//121 122//122
f 122//122 121//121 123//123
f 122//122 123//123 124//124
f 124//124 123//123 125//125
f 124//124 125//125 126//126
f 126//126 125//125 127//127
f 126//126 127//127 128//128
f 128//128 127//127 129//129
f 128//128 129//129 130//130
f 130//130 129//129 131//131
f 130//130 131//131 132//132
f 132//132 131//131 2//2
f 132//132 2//2 1//1
f 133//133 136//136 137//137
f 143//143 145//145 148//148
f 135//135 156//156 141//141
f 139//139 155//155 157//157
f 140//140 158//158 152//152
f 159//159 160//160 162//162
f 164//164 165//165 166//166
f 166//166 165//165 169//169
f 167//167 168//168 173//173
f 171//171 170//170 177//177
f 172//172 174//174 178//178
f 162//162 160//160 182//182
f 180//180 161//161 184//184
f 181//181 183//183 163//163
f 190//190 191//191 194//194
f 196//196 197//197 200//200
f 200//200 197//197 201//201
f 200//200 201//201 142//142
f 138//138 202//202 203//203
f 142//142 204//204 134//134
f 205//205 207//207 208//208
f 208//208 209//209 210//210
f 208//208 210//210 200//200
f 198//198 211//211 213//213
f 199//199 212//212 195//195
f 159//159 214//214 216//216
f 218//218 215//215 220//220
f 217//217 219//219 221//221
f 223//223 224//224 148//148
f 148//148 224//224 225//225
f 147//147 226//226 227//227
f 145//145 229//229 148//148
f 150//150 230//230 231//231
f 149//149 232//232 233//233
f 236//236 237//237 240//240
f 234//234 241//241 148//148
f 151//151 242//242 243//243
f 153//153 244//244 245//245
f 246//246 240//240 237//237
f 228//228 248//248 148//148
f 146//146 247//247 249//249
f 154//154 250//250 144//144
f 251//251 254//254 189//189
f 186//186 253//253 255//255
f 187//187 256//256 192//192
f 193//193 257//257 188//188
f 175//175 258//258 259//259
f 176//176 260//260 179//179
f 222//222 261//261 262//262
f 262//262 261//261 263//263
f 262//262 263//263 264//264
f 264//264 265//265 266//266
f 264//264 266//266 205//205
f 206//206 267//267 269//269
f 205//205 268//268 207//207
f 270//270 271//271 238//238
f 240//240 272//272 273//273
f 239//239 274//274 235//235
f 276//276 279//279 189//189
f 189//189 279//279 280//280
f 185//185 281//281 252//252
f 275//275 283//283 278//278
f 277//277 282//282 285//285
f 279//279 284//284 286//286
f 288//288 290//290 294//294
f 295//295 289//289 298//298
f 292//292 297//297 301//301
f 299//299 296//296 304//304
f 300//300 302//302 307//307
f 309//309 312//312 315//315
f 316//316 311//311 319//319
f 313//313 318//318 321//321
f 323//323 324//324 329//329
f 329//329 324//324 334//334
f 330//330 335//335 340//340
f 341//341 336//336 343//343
f 339//339 342//342 344//344
f 345//345 348//348 329//329
f 317//317 350//350 322//322
f 322//322 350//350 352//352
f 320//320 353//353 357//357
f 344//344 359//359 339//339
f 338//338 358//358 360//360
f 337//337 361//361 293//293
f 294//294 362//362 364//364
f 291//291 363//363 287//287
f 349//349 365//365 325//325
f 327//327 366//366 368//368
f 326//326 367//367 369//369
f 310//310 314//314 372//372
f 372//372 314//314 374//374
f 371//371 373//373 378//378
f 375//375 374//374 382//382
f 379//379 383//383 384//384
f 329//329 386//386 345//345
f 346//346 387//387 389//389
f 347//347 388//388 390//390
f 370//370 392//392 328//328
f 333//333 393//393 394//394
f 332//332 395//395 397//397
f 351//351 398//398 354//354
f 356//356 399//399 401//401
f 355//355 400//400 404//404
f 405//405 402//402 406//406
f 403//403 407//407 408//408
f 409//409 406//406 410//410
f 409//409 410//410 411//411
f 411//411 410//410 308//308
f 412//412 305//305 414//414
f 413//413 306//306 303//303
f 385//385 415//415 375//375
f 375//375 415//415 416//416
f 377//377 417//417 418//418
f 419//419 420//420 375//375
f 376//376 421//421 423//423
f 380//380 422//422 425//425
f 396//396 427//427 329//329
f 331//331 426//426 429//429
f 329//329 428//428 323//323
f 431//431 435//435 438//438
f 437//437 434//434 439//439
f 424//424 440//440 375//375
f 381//381 441//441 433//433
f 375//375 436//436 443//443
f 442//442 432//432 430//430
f 391//391 444//444 345//345
f 345//345 444//444 445//445
f 345//345 445//445 446//446

