# https://github.com/mikedh/trimesh
v -0.00884400 -0.01218500 0.02525000
v -0.00875900 -0.01273900 0.01475000
v -0.00875900 -0.01273900 0.02525000
v -0.00855300 -0.01325900 0.01475000
v -0.00855300 -0.01325900 0.02525000
v -0.00823700 -0.01372100 0.01475000
v -0.00823700 -0.01372100 0.02525000
v -0.00782500 -0.01410000 0.01475000
v -0.00782500 -0.01410000 0.02525000
v -0.00734000 -0.01437900 0.01475000
v -0.00734000 -0.01437900 0.02525000
v -0.00680400 -0.01454300 0.01475000
v -0.00680400 -0.01454300 0.02525000
v -0.00624600 -0.01458300 0.01475000
v -0.00624600 -0.01458300 0.02525000
v -0.00569300 -0.01449800 0.01475000
v -0.00569300 -0.01449800 0.02525000
v -0.00517200 -0.01429200 0.01475000
v -0.00517200 -0.01429200 0.02525000
v -0.00471000 -0.01397600 0.01475000
v -0.00471000 -0.01397600 0.02525000
v -0.00433100 -0.01356400 0.01475000
v -0.00433100 -0.01356400 0.02525000
v -0.00405200 -0.01307900 0.01475000
v -0.00405200 -0.01307900 0.02525000
v -0.00388800 -0.01254300 0.01475000
v -0.00388800 -0.01254300 0.02525000
v -0.00384800 -0.01198500 0.01475000
v -0.00384800 -0.01198500 0.02525000
v -0.00393300 -0.01143200 0.01475000
v -0.00393300 -0.01143200 0.02525000
v -0.00413900 -0.01091100 0.01475000
v -0.00413900 -0.01091100 0.02525000
v -0.00445500 -0.01044900 0.01475000
v -0.00445500 -0.01044900 0.02525000
v -0.00486700 -0.01007000 0.01475000
v -0.00486700 -0.01007000 0.02525000
v -0.00535200 -0.00979100 0.01475000
v -0.00535200 -0.00979100 0.02525000
v -0.00588800 -0.00962700 0.01475000
v -0.00588800 -0.00962700 0.02525000
v -0.00644600 -0.00958700 0.01475000
v -0.00644600 -0.00958700 0.02525000
v -0.00700000 -0.00967200 0.01475000
v -0.00700000 -0.00967200 0.02525000
v -0.00752000 -0.00987800 0.01475000
v -0.00752000 -0.00987800 0.02525000
v -0.00798200 -0.01019400 0.01475000
v -0.00798200 -0.01019400 0.02525000
v -0.00836200 -0.01060600 0.01475000
v -0.00836200 -0.01060600 0.02525000
v -0.00864000 -0.01109100 0.01475000
v -0.00864000 -0.01109100 0.02525000
v -0.00880400 -0.01162700 0.01475000
v -0.00880400 -0.01162700 0.02525000
v -0.00884400 -0.01218500 0.01475000
v -0.00434800 -0.01200500 0.01425000
v -0.00434800 -0.01200500 0.01425000
v -0.00438000 -0.01245200 0.01425000
v -0.00634600 -0.01208500 0.01425000
v -0.00634600 -0.01208500 0.01425000
v -0.00634600 -0.01208500 0.01425000
v -0.00634600 -0.01208500 0.01425000
v -0.00634600 -0.01208500 0.01425000
v -0.00634600 -0.01208500 0.01425000
v -0.00634600 -0.01208500 0.01425000
v -0.00634600 -0.01208500 0.01425000
v -0.00634600 -0.01208500 0.01425000
v -0.00634600 -0.01208500 0.01425000
v -0.00634600 -0.01208500 0.01425000
v -0.00634600 -0.01208500 0.01425000
v -0.00634600 -0.01208500 0.01425000
v -0.00634600 -0.01208500 0.01425000
v -0.00634600 -0.01208500 0.01425000
v -0.00634600 -0.01208500 0.01425000
v -0.00634600 -0.01208500 0.01425000
v -0.00634600 -0.01208500 0.01425000
v -0.00483400 -0.01077600 0.01425000
v -0.00483400 -0.01077600 0.01425000
v -0.00458000 -0.01114600 0.01425000
v -0.00458000 -0.01114600 0.01425000
v -0.00441600 -0.01156200 0.01425000
v -0.00441600 -0.01156200 0.01425000
v -0.00597900 -0.01011900 0.01425000
v -0.00597900 -0.01011900 0.01425000
v -0.00555100 -0.01025000 0.01425000
v -0.00555100 -0.01025000 0.01425000
v -0.00516300 -0.01047300 0.01425000
v -0.00516300 -0.01047300 0.01425000
v -0.00728500 -0.01031900 0.01425000
v -0.00728500 -0.01031900 0.01425000
v -0.00686900 -0.01015500 0.01425000
v -0.00686900 -0.01015500 0.01425000
v -0.00642600 -0.01008700 0.01425000
v -0.00642600 -0.01008700 0.01425000
v -0.00818100 -0.01129000 0.01425000
v -0.00818100 -0.01129000 0.01425000
v -0.00795800 -0.01090200 0.01425000
v -0.00795800 -0.01090200 0.01425000
v -0.00765500 -0.01057300 0.01425000
v -0.00765500 -0.01057300 0.01425000
v -0.00827700 -0.01260800 0.01425000
v -0.00827700 -0.01260800 0.01425000
v -0.00834400 -0.01216500 0.01425000
v -0.00834400 -0.01216500 0.01425000
v -0.00831200 -0.01171800 0.01425000
v -0.00831200 -0.01171800 0.01425000
v -0.00752900 -0.01369700 0.01425000
v -0.00785900 -0.01339400 0.01425000
v -0.00811200 -0.01302400 0.01425000
v -0.00811200 -0.01302400 0.01425000
v -0.00626600 -0.01408300 0.01425000
v -0.00671300 -0.01405100 0.01425000
v -0.00671300 -0.01405100 0.01425000
v -0.00714100 -0.01392000 0.01425000
v -0.00714100 -0.01392000 0.01425000
v -0.00503700 -0.01359800 0.01425000
v -0.00503700 -0.01359800 0.01425000
v -0.00540700 -0.01385100 0.01425000
v -0.00540700 -0.01385100 0.01425000
v -0.00582300 -0.01401600 0.01425000
v -0.00582300 -0.01401600 0.01425000
v -0.00451100 -0.01288000 0.01425000
v -0.00451100 -0.01288000 0.01425000
v -0.00473400 -0.01326800 0.01425000
v -0.00473400 -0.01326800 0.01425000
v -0.00434800 -0.01200500 0.02575000
v -0.00434800 -0.01200500 0.02575000
v -0.00441600 -0.01156200 0.02575000
v -0.00441600 -0.01156200 0.02575000
v -0.00634600 -0.01208500 0.02575000
v -0.00634600 -0.01208500 0.02575000
v -0.00634600 -0.01208500 0.02575000
v -0.00634600 -0.01208500 0.02575000
v -0.00634600 -0.01208500 0.02575000
v -0.00634600 -0.01208500 0.02575000
v -0.00634600 -0.01208500 0.02575000
v -0.00634600 -0.01208500 0.02575000
v -0.00634600 -0.01208500 0.02575000
v -0.00634600 -0.01208500 0.02575000
v -0.00634600 -0.01208500 0.02575000
v -0.00634600 -0.01208500 0.02575000
v -0.00634600 -0.01208500 0.02575000
v -0.00634600 -0.01208500 0.02575000
v -0.00634600 -0.01208500 0.02575000
v -0.00634600 -0.01208500 0.02575000
v -0.00634600 -0.01208500 0.02575000
v -0.00634600 -0.01208500 0.02575000
v -0.00634600 -0.01208500 0.02575000
v -0.00473400 -0.01326800 0.02575000
v -0.00473400 -0.01326800 0.02575000
v -0.00451100 -0.01288000 0.02575000
v -0.00451100 -0.01288000 0.02575000
v -0.00438000 -0.01245200 0.02575000
v -0.00438000 -0.01245200 0.02575000
v -0.00582300 -0.01401600 0.02575000
v -0.00540700 -0.01385100 0.02575000
v -0.00503700 -0.01359800 0.02575000
v -0.00503700 -0.01359800 0.02575000
v -0.00714100 -0.01392000 0.02575000
v -0.00714100 -0.01392000 0.02575000
v -0.00671300 -0.01405100 0.02575000
v -0.00671300 -0.01405100 0.02575000
v -0.00626600 -0.01408300 0.02575000
v -0.00626600 -0.01408300 0.02575000
v -0.00811200 -0.01302400 0.02575000
v -0.00811200 -0.01302400 0.02575000
v -0.00785900 -0.01339400 0.02575000
v -0.00785900 -0.01339400 0.02575000
v -0.00752900 -0.01369700 0.02575000
v -0.00752900 -0.01369700 0.02575000
v -0.00831200 -0.01171800 0.02575000
v -0.00831200 -0.01171800 0.02575000
v -0.00834400 -0.01216500 0.02575000
v -0.00834400 -0.01216500 0.02575000
v -0.00827700 -0.01260800 0.02575000
v -0.00827700 -0.01260800 0.02575000
v -0.00765500 -0.01057300 0.02575000
v -0.00765500 -0.01057300 0.02575000
v -0.00795800 -0.01090200 0.02575000
v -0.00795800 -0.01090200 0.02575000
v -0.00818100 -0.01129000 0.02575000
v -0.00818100 -0.01129000 0.02575000
v -0.00642600 -0.01008700 0.02575000
v -0.00642600 -0.01008700 0.02575000
v -0.00686900 -0.01015500 0.02575000
v -0.00686900 -0.01015500 0.02575000
v -0.00728500 -0.01031900 0.02575000
v -0.00728500 -0.01031900 0.02575000
v -0.00516300 -0.01047300 0.02575000
v -0.00516300 -0.01047300 0.02575000
v -0.00555100 -0.01025000 0.02575000
v -0.00555100 -0.01025000 0.02575000
v -0.00597900 -0.01011900 0.02575000
v -0.00458000 -0.01114600 0.02575000
v -0.00458000 -0.01114600 0.02575000
v -0.00483400 -0.01077600 0.02575000
v -0.00483400 -0.01077600 0.02575000
v -0.00884400 -0.01218500 0.01475000
v -0.00827700 -0.01260800 0.01425000
v -0.00875900 -0.01273900 0.01475000
v -0.00811200 -0.01302400 0.01425000
v -0.00855300 -0.01325900 0.01475000
v -0.00785900 -0.01339400 0.01425000
v -0.00823700 -0.01372100 0.01475000
v -0.00752900 -0.01369700 0.01425000
v -0.00782500 -0.01410000 0.01475000
v -0.00714100 -0.01392000 0.01425000
v -0.00734000 -0.01437900 0.01475000
v -0.00671300 -0.01405100 0.01425000
v -0.00680400 -0.01454300 0.01475000
v -0.00626600 -0.01408300 0.01425000
v -0.00624600 -0.01458300 0.01475000
v -0.00582300 -0.01401600 0.01425000
v -0.00569300 -0.01449800 0.01475000
v -0.00540700 -0.01385100 0.01425000
v -0.00517200 -0.01429200 0.01475000
v -0.00503700 -0.01359800 0.01425000
v -0.00471000 -0.01397600 0.01475000
v -0.00473400 -0.01326800 0.01425000
v -0.00433100 -0.01356400 0.01475000
v -0.00451100 -0.01288000 0.01425000
v -0.00405200 -0.01307900 0.01475000
v -0.00438000 -0.01245200 0.01425000
v -0.00388800 -0.01254300 0.01475000
v -0.00434800 -0.01200500 0.01425000
v -0.00384800 -0.01198500 0.01475000
v -0.00441600 -0.01156200 0.01425000
v -0.00393300 -0.01143200 0.01475000
v -0.00458000 -0.01114600 0.01425000
v -0.00413900 -0.01091100 0.01475000
v -0.00483400 -0.01077600 0.01425000
v -0.00445500 -0.01044900 0.01475000
v -0.00516300 -0.01047300 0.01425000
v -0.00486700 -0.01007000 0.01475000
v -0.00555100 -0.01025000 0.01425000
v -0.00535200 -0.00979100 0.01475000
v -0.00597900 -0.01011900 0.01425000
v -0.00588800 -0.00962700 0.01475000
v -0.00642600 -0.01008700 0.01425000
v -0.00644600 -0.00958700 0.01475000
v -0.00686900 -0.01015500 0.01425000
v -0.00700000 -0.00967200 0.01475000
v -0.00728500 -0.01031900 0.01425000
v -0.00752000 -0.00987800 0.01475000
v -0.00765500 -0.01057300 0.01425000
v -0.00798200 -0.01019400 0.01475000
v -0.00795800 -0.01090200 0.01425000
v -0.00836200 -0.01060600 0.01475000
v -0.00818100 -0.01129000 0.01425000
v -0.00864000 -0.01109100 0.01475000
v -0.00831200 -0.01171800 0.01425000
v -0.00880400 -0.01162700 0.01475000
v -0.00834400 -0.01216500 0.01425000
v -0.00384800 -0.01198500 0.02525000
v -0.00438000 -0.01245200 0.02575000
v -0.00388800 -0.01254300 0.02525000
v -0.00451100 -0.01288000 0.02575000
v -0.00405200 -0.01307900 0.02525000
v -0.00473400 -0.01326800 0.02575000
v -0.00433100 -0.01356400 0.02525000
v -0.00503700 -0.01359800 0.02575000
v -0.00471000 -0.01397600 0.02525000
v -0.00540700 -0.01385100 0.02575000
v -0.00517200 -0.01429200 0.02525000
v -0.00582300 -0.01401600 0.02575000
v -0.00569300 -0.01449800 0.02525000
v -0.00626600 -0.01408300 0.02575000
v -0.00624600 -0.01458300 0.02525000
v -0.00671300 -0.01405100 0.02575000
v -0.00680400 -0.01454300 0.02525000
v -0.00714100 -0.01392000 0.02575000
v -0.00734000 -0.01437900 0.02525000
v -0.00752900 -0.01369700 0.02575000
v -0.00782500 -0.01410000 0.02525000
v -0.00785900 -0.01339400 0.02575000
v -0.00823700 -0.01372100 0.02525000
v -0.00811200 -0.01302400 0.02575000
v -0.00855300 -0.01325900 0.02525000
v -0.00827700 -0.01260800 0.02575000
v -0.00875900 -0.01273900 0.02525000
v -0.00834400 -0.01216500 0.02575000
v -0.00884400 -0.01218500 0.02525000
v -0.00831200 -0.01171800 0.02575000
v -0.00880400 -0.01162700 0.02525000
v -0.00818100 -0.01129000 0.02575000
v -0.00864000 -0.01109100 0.02525000
v -0.00795800 -0.01090200 0.02575000
v -0.00836200 -0.01060600 0.02525000
v -0.00765500 -0.01057300 0.02575000
v -0.00798200 -0.01019400 0.02525000
v -0.00728500 -0.01031900 0.02575000
v -0.00752000 -0.00987800 0.02525000
v -0.00686900 -0.01015500 0.02575000
v -0.00700000 -0.00967200 0.02525000
v -0.00642600 -0.01008700 0.02575000
v -0.00644600 -0.00958700 0.02525000
v -0.00597900 -0.01011900 0.02575000
v -0.00588800 -0.00962700 0.02525000
v -0.00555100 -0.01025000 0.02575000
v -0.00535200 -0.00979100 0.02525000
v -0.00516300 -0.01047300 0.02575000
v -0.00486700 -0.01007000 0.02525000
v -0.00483400 -0.01077600 0.02575000
v -0.00445500 -0.01044900 0.02525000
v -0.00458000 -0.01114600 0.02575000
v -0.00413900 -0.01091100 0.02525000
v -0.00441600 -0.01156200 0.02575000
v -0.00393300 -0.01143200 0.02525000
v -0.00434800 -0.01200500 0.02575000
vn -0.99699200 -0.07749900 -0.00001400
vn -0.97435600 -0.22501300 0.00000000
vn -0.95475900 -0.29738200 0.00000100
vn -0.89985100 -0.43619700 0.00000000
vn -0.86464200 -0.50238800 0.00000000
vn -0.78023300 -0.62548900 0.00001800
vn -0.73117600 -0.68218900 0.00000000
vn -0.62149200 -0.78342100 0.00000000
vn -0.56104800 -0.82778300 0.00000000
vn -0.43158300 -0.90207300 0.00001800
vn -0.36278300 -0.93187400 -0.00001800
vn -0.22004200 -0.97549000 0.00001300
vn -0.14629200 -0.98924100 -0.00001800
vn 0.00253900 -0.99999700 0.00000000
vn 0.07749800 -0.99699200 0.00000000
vn 0.22502400 -0.97435300 0.00000000
vn 0.29739200 -0.95475500 0.00000000
vn 0.43618600 -0.89985700 0.00001300
vn 0.50237500 -0.86465000 0.00000000
vn 0.62547200 -0.78024600 0.00000000
vn 0.68220800 -0.73115800 0.00000000
vn 0.78342200 -0.62149000 0.00001800
vn 0.82778400 -0.56104700 -0.00002200
vn 0.90207500 -0.43158000 0.00000000
vn 0.93187400 -0.36278200 -0.00001400
vn 0.97549100 -0.22004100 0.00001800
vn 0.98924200 -0.14628900 0.00000100
vn 0.99999700 0.00253400 0.00000000
vn 0.99699300 0.07749800 0.00000000
vn 0.97435400 0.22502000 0.00000000
vn 0.95475600 0.29738900 0.00000000
vn 0.89985700 0.43618500 0.00000000
vn 0.86462300 0.50242100 0.00000000
vn 0.78023900 0.62548100 0.00000000
vn 0.73118500 0.68217900 -0.00001800
vn 0.62148300 0.78342700 0.00000000
vn 0.56104100 0.82778800 0.00000000
vn 0.43157800 0.90207600 0.00000000
vn 0.36273600 0.93189200 0.00000000
vn 0.22004100 0.97549100 0.00001700
vn 0.14629100 0.98924200 0.00001400
vn -0.00253300 0.99999700 0.00001800
vn -0.07744800 0.99699600 -0.00001400
vn -0.22501100 0.97435600 0.00000000
vn -0.29737800 0.95476000 0.00000000
vn -0.43619500 0.89985200 0.00000000
vn -0.50238700 0.86464300 0.00000000
vn -0.62549900 0.78022500 0.00001400
vn -0.68219600 0.73117000 -0.00000000
vn -0.78342900 0.62148200 0.00000000
vn -0.82779000 0.56103800 0.00000000
vn -0.90207500 0.43158000 0.00001800
vn -0.93187400 0.36278200 0.00000000
vn -0.97549000 0.22004400 0.00001300
vn -0.98924100 0.14629200 0.00000000
vn -0.99999700 -0.00253400 0.00001400
vn 0.00000000 0.00000000 -1.00000000
vn 0.00000000 -0.00000000 -1.00000000
vn 0.00000000 0.00000000 -1.00000000
vn 0.00000000 0.00000000 -1.00000000
vn -0.00000000 0.00000200 -1.00000000
vn 0.00000000 -0.00000000 -1.00000000
vn 0.00000000 -0.00000200 -1.00000000
vn -0.00000100 0.00000400 -1.00000000
vn -0.00000100 0.00000400 -1.00000000
vn -0.00000000 0.00000200 -1.00000000
vn -0.00000000 0.00000200 -1.00000000
vn 0.00000000 -0.00000100 -1.00000000
vn 0.00000000 -0.00000100 -1.00000000
vn -0.00000000 0.00000200 -1.00000000
vn -0.00000000 0.00000100 -1.00000000
vn 0.00000000 -0.00000200 -1.00000000
vn 0.00000000 -0.00000100 -1.00000000
vn 0.00000000 -0.00000100 -1.00000000
vn 0.00000000 -0.00000100 -1.00000000
vn 0.00000000 -0.00000100 -1.00000000
vn -0.00000000 0.00000200 -1.00000000
vn 0.00000000 -0.00000200 -1.00000000
vn 0.00000000 0.00000000 -1.00000000
vn 0.00000000 0.00000000 -1.00000000
vn -0.00000000 0.00000200 -1.00000000
vn 0.00000000 -0.00000000 -1.00000000
vn -0.00000000 0.00000200 -1.00000000
vn 0.00000000 -0.00000100 -1.00000000
vn 0.00000000 0.00000000 -1.00000000
vn 0.00000000 0.00000000 -1.00000000
vn -0.00000100 0.00000400 -1.00000000
vn -0.00000100 0.00000400 -1.00000000
vn 0.00000000 -0.00000200 -1.00000000
vn -0.00000000 0.00000200 -1.00000000
vn 0.00000000 -0.00000100 -1.00000000
vn 0.00000000 -0.00000100 -1.00000000
vn -0.00000000 0.00000200 -1.00000000
vn 0.00000000 -0.00000100 -1.00000000
vn 0.00000000 -0.00000100 -1.00000000
vn -0.00000100 0.00000400 -1.00000000
vn -0.00000000 0.00000100 -1.00000000
vn -0.00000100 0.00000400 -1.00000000
vn 0.00000000 -0.00000100 -1.00000000
vn 0.00000000 -0.00000100 -1.00000000
vn 0.00000000 -0.00000100 -1.00000000
vn -0.00000000 0.00000200 -1.00000000
vn 0.00000000 0.00000000 -1.00000000
vn 0.00000000 -0.00000200 -1.00000000
vn 0.00000000 0.00000000 -1.00000000
vn 0.00000000 -0.00000200 -1.00000000
vn -0.00000000 0.00000100 -1.00000000
vn 0.00000000 0.00000000 -1.00000000
vn 0.00000000 0.00000000 -1.00000000
vn -0.00000000 0.00000200 -1.00000000
vn 0.00000000 0.00000000 -1.00000000
vn 0.00000000 0.00000000 -1.00000000
vn 0.00000000 -0.00000100 -1.00000000
vn 0.00000000 0.00000000 -1.00000000
vn 0.00000000 0.00000000 -1.00000000
vn 0.00000000 -0.00000100 -1.00000000
vn -0.00000000 0.00000200 -1.00000000
vn 0.00000000 0.00000000 -1.00000000
vn 0.00000000 -0.00000100 -1.00000000
vn -0.00000000 0.00000200 -1.00000000
vn 0.00000000 0.00000000 -1.00000000
vn 0.00000000 -0.00000100 -1.00000000
vn -0.00000000 0.00000200 -1.00000000
vn 0.00000000 0.00000000 -1.00000000
vn 0.00000000 0.00000000 -1.00000000
vn -0.00000000 0.00000200 -1.00000000
vn 0.00000000 0.00000000 1.00000000
vn 0.00000000 -0.00000100 1.00000000
vn 0.00000000 0.00000000 1.00000000
vn -0.00000200 0.00000800 1.00000000
vn -0.00000200 0.00000800 1.00000000
vn -0.00000100 0.00000400 1.00000000
vn -0.00000000 0.00000200 1.00000000
vn -0.00000100 0.00000500 1.00000000
vn 0.00000100 -0.00000400 1.00000000
vn 0.00000000 -0.00000100 1.00000000
vn 0.00000100 -0.00000300 1.00000000
vn -0.00000000 0.00000100 1.00000000
vn -0.00000100 0.00000500 1.00000000
vn 0.00000100 -0.00000600 1.00000000
vn 0.00000000 -0.00000200 1.00000000
vn -0.00000000 0.00000200 1.00000000
vn 0.00000000 -0.00000100 1.00000000
vn 0.00000000 0.00000000 1.00000000
vn -0.00000000 0.00000100 1.00000000
vn 0.00000100 -0.00000500 1.00000000
vn -0.00000000 0.00000200 1.00000000
vn 0.00000000 -0.00000100 1.00000000
vn 0.00000000 -0.00000200 1.00000000
vn -0.00000000 0.00000200 1.00000000
vn 0.00000000 0.00000000 1.00000000
vn 0.00000000 -0.00000100 1.00000000
vn 0.00000000 0.00000000 1.00000000
vn 0.00000000 -0.00000100 1.00000000
vn 0.00000000 -0.00000100 1.00000000
vn 0.00000000 0.00000000 1.00000000
vn 0.00000000 0.00000000 1.00000000
vn -0.00000000 0.00000200 1.00000000
vn 0.00000000 0.00000000 1.00000000
vn 0.00000000 -0.00000200 1.00000000
vn 0.00000100 -0.00000400 1.00000000
vn 0.00000100 -0.00000400 1.00000000
vn -0.00000000 0.00000200 1.00000000
vn 0.00000000 0.00000000 1.00000000
vn -0.00000000 0.00000200 1.00000000
vn 0.00000000 0.00000000 1.00000000
vn 0.00000100 -0.00000300 1.00000000
vn 0.00000000 0.00000000 1.00000000
vn -0.00000100 0.00000500 1.00000000
vn -0.00000100 0.00000500 1.00000000
vn 0.00000000 -0.00000200 1.00000000
vn 0.00000100 -0.00000600 1.00000000
vn 0.00000000 0.00000000 1.00000000
vn 0.00000000 0.00000000 1.00000000
vn -0.00000100 0.00000500 1.00000000
vn 0.00000100 -0.00000300 1.00000000
vn -0.00000100 0.00000500 1.00000000
vn 0.00000000 0.00000000 1.00000000
vn -0.00000000 0.00000200 1.00000000
vn 0.00000000 0.00000000 1.00000000
vn -0.00000000 0.00000100 1.00000000
vn -0.00000000 0.00000100 1.00000000
vn 0.00000100 -0.00000600 1.00000000
vn 0.00000000 0.00000000 1.00000000
vn 0.00000000 -0.00000100 1.00000000
vn 0.00000000 -0.00000100 1.00000000
vn 0.00000000 -0.00000200 1.00000000
vn 0.00000000 -0.00000200 1.00000000
vn -0.00000000 0.00000200 1.00000000
vn -0.00000100 0.00000400 1.00000000
vn 0.00000100 -0.00000500 1.00000000
vn 0.00000000 0.00000000 1.00000000
vn -0.00000100 0.00000400 1.00000000
vn 0.00000000 0.00000000 1.00000000
vn -0.00000000 0.00000100 1.00000000
vn -0.00000200 0.00000800 1.00000000
vn 0.00000100 -0.00000500 1.00000000
vn -0.00000000 0.00000100 1.00000000
vn -0.70522700 -0.05484400 -0.70685700
vn -0.68922000 -0.15915600 -0.70685600
vn -0.67534300 -0.21039500 -0.70685600
vn -0.63652900 -0.30851900 -0.70685700
vn -0.61159000 -0.35540300 -0.70685700
vn -0.55191700 -0.44243000 -0.70685400
vn -0.51718700 -0.48257100 -0.70685400
vn -0.43963600 -0.55414200 -0.70685800
vn -0.39683000 -0.58555500 -0.70686000
vn -0.30526900 -0.63809500 -0.70685600
vn -0.25655800 -0.65918800 -0.70685900
vn -0.15566600 -0.69000700 -0.70686500
vn -0.10345600 -0.69974200 -0.70686500
vn 0.00179100 -0.70735400 -0.70685700
vn 0.05484600 -0.70523000 -0.70685400
vn 0.15915300 -0.68921600 -0.70686000
vn 0.21036700 -0.67534600 -0.70686200
vn 0.30850900 -0.63653400 -0.70685700
vn 0.35533900 -0.61162700 -0.70685700
vn 0.44241900 -0.55192200 -0.70685700
vn 0.48255200 -0.51720200 -0.70685600
vn 0.55415600 -0.43962800 -0.70685100
vn 0.58557500 -0.39681700 -0.70685100
vn 0.63809300 -0.30527500 -0.70685500
vn 0.65916800 -0.25660700 -0.70686000
vn 0.69001400 -0.15567300 -0.70685700
vn 0.69975300 -0.10346500 -0.70685300
vn 0.70735900 0.00178800 -0.70685200
vn 0.70523400 0.05484500 -0.70685000
vn 0.68921900 0.15916600 -0.70685400
vn 0.67534300 0.21039500 -0.70685600
vn 0.63653500 0.30852000 -0.70685200
vn 0.61161900 0.35537300 -0.70684700
vn 0.55192300 0.44243700 -0.70684500
vn 0.51719500 0.48257500 -0.70684600
vn 0.43962800 0.55415500 -0.70685200
vn 0.39683600 0.58555600 -0.70685600
vn 0.30529600 0.63808500 -0.70685400
vn 0.25656900 0.65919000 -0.70685300
vn 0.15567600 0.69001700 -0.70685300
vn 0.10345700 0.69975600 -0.70685100
vn -0.00179400 0.70736000 -0.70685200
vn -0.05484300 0.70523100 -0.70685300
vn -0.15916400 0.68921500 -0.70685900
vn -0.21038900 0.67533600 -0.70686500
vn -0.30850500 0.63653200 -0.70686000
vn -0.35537500 0.61161000 -0.70685400
vn -0.44243100 0.55192500 -0.70684800
vn -0.48258400 0.51718600 -0.70684600
vn -0.55414800 0.43964100 -0.70685000
vn -0.58555900 0.39683000 -0.70685600
vn -0.63808100 0.30529100 -0.70685900
vn -0.65914700 0.25665700 -0.70686100
vn -0.69001100 0.15568100 -0.70685800
vn -0.69975100 0.10345900 -0.70685600
vn -0.70735300 -0.00179100 -0.70685800
vn 0.70736000 0.00176500 0.70685100
vn 0.69975200 -0.10345800 0.70685500
vn 0.69001500 -0.15566400 0.70685800
vn 0.65917200 -0.25658900 0.70686200
vn 0.63808000 -0.30529600 0.70685800
vn 0.58556400 -0.39682900 0.70685400
vn 0.55414200 -0.43964300 0.70685300
vn 0.48255800 -0.51719700 0.70685600
vn 0.44243200 -0.55190900 0.70686000
vn 0.35538300 -0.61160200 0.70685600
vn 0.30852600 -0.63652500 0.70685800
vn 0.21037400 -0.67534200 0.70686300
vn 0.15915500 -0.68921300 0.70686200
vn 0.05484100 -0.70523000 0.70685500
vn 0.00176800 -0.70735500 0.70685600
vn -0.10345200 -0.69974400 0.70686300
vn -0.15566000 -0.69000800 0.70686500
vn -0.25657000 -0.65918200 0.70686000
vn -0.30531900 -0.63807300 0.70685500
vn -0.39684300 -0.58554700 0.70685900
vn -0.43962900 -0.55414400 0.70686000
vn -0.51719000 -0.48256500 0.70685700
vn -0.55192700 -0.44241900 0.70685400
vn -0.61158900 -0.35540500 0.70685700
vn -0.63652300 -0.30852500 0.70686000
vn -0.67534300 -0.21039200 0.70685700
vn -0.68922000 -0.15914800 0.70685800
vn -0.70522600 -0.05483900 0.70685800
vn -0.70735200 -0.00181400 0.70685900
vn -0.69974700 0.10347500 0.70685800
vn -0.69001400 0.15566800 0.70685800
vn -0.65918700 0.25655800 0.70686000
vn -0.63807700 0.30529900 0.70685900
vn -0.58556500 0.39682100 0.70685700
vn -0.55413900 0.43964700 0.70685200
vn -0.48254700 0.51721700 0.70684900
vn -0.44241300 0.55194000 0.70684700
vn -0.35537600 0.61161100 0.70685200
vn -0.30851100 0.63652900 0.70686100
vn -0.21039700 0.67533500 0.70686300
vn -0.15914400 0.68921800 0.70686100
vn -0.05479500 0.70523100 0.70685700
vn -0.00176800 0.70736000 0.70685100
vn 0.10352800 0.69974400 0.70685300
vn 0.15562100 0.69002900 0.70685400
vn 0.25655800 0.65919300 0.70685400
vn 0.30529800 0.63808400 0.70685300
vn 0.39685000 0.58554800 0.70685500
vn 0.43964900 0.55413700 0.70685300
vn 0.51721300 0.48255000 0.70684900
vn 0.55194600 0.44240700 0.70684600
vn 0.61161600 0.35537500 0.70684900
vn 0.63654300 0.30850300 0.70685100
vn 0.67534200 0.21040100 0.70685600
vn 0.68922300 0.15915400 0.70685300
vn 0.70523300 0.05483100 0.70685300
f 1//1 2//2 3//3
f 3//3 2//2 4//4
f 3//3 4//4 5//5
f 5//5 4//4 6//6
f 5//5 6//6 7//7
f 7//7 6//6 8//8
f 7//7 8//8 9//9
f 9//9 8//8 10//10
f 9//9 10//10 11//11
f 11//11 10//10 12//12
f 11//11 12//12 13//13
f 13//13 12//12 14//14
f 13//13 14//14 15//15
f 15//15 14//14 16//16
f 15//15 16//16 17//17
f 17//17 16//16 18//18
f 17//17 18//18 19//19
f 19//19 18//18 20//20
f 19//19 20//20 21//21
f 21//21 20//20 22//22
f 21//21 22//22 23//23
f 23//23 22//22 24//24
f 23//23 24//24 25//25
f 25//25 24//24 26//26
f 25//25 26//26 27//27
f 27//27 26//26 28//28
f 27//27 28//28 29//29
f 29//29 28//28 30//30
f 29//29 30//30 31//31
f 31//31 30//30 32//32
f 31//31 32//32 33//33
f 33//33 32//32 34//34
f 33//33 34//34 35//35
f 35//35 34//34 36//36
f 35//35 36//36 37//37
f 37//37 36//36 38//38
f 37//37 38//38 39//39
f 39//39 38//38 40//40
f 39//39 40//40 41//41
f 41//41 40//40 42//42
f 41//41 42//42 43//43
f 43//43 42//42 44//44
f 43//43 44//44 45//45
f 45//45 44//44 46//46
f 45//45 46//46 47//47
f 47//47 46//46 48//48
f 47//47 48//48 49//49
f 49//49 48//48 50//50
f 49//49 50//50 51//51
f 51//51 50//50 52//52
f 51//51 52//52 53//53
f 53//53 52//52 54//54
f 53//53 54//54 55//55
f 55//55 54//54 56//56
f 55//55 56//56 1//1
f 1//1 56//56 2//2
f 57//57 59//59 60//60
f 79//79 80//80 60//60
f 61//61 81//81 83//83
f 62//62 82//82 58//58
f 85//85 86//86 60//60
f 64//64 87//87 88//88
f 63//63 89//89 78//78
f 90//90 93//93 77//77
f 73//73 92//92 94//94
f 76//76 95//95 84//84
f 96//96 98//98 65//65
f 74//74 99//99 100//100
f 75//75 101//101 91//91
f 103//103 105//105 60//60
f 72//72 104//104 106//106
f 71//71 107//107 97//97
f 108//108 109//109 60//60
f 60//60 109//109 111//111
f 70//70 110//110 102//102
f 112//112 114//114 60//60
f 69//69 113//113 116//116
f 60//60 115//115 108//108
f 117//117 120//120 66//66
f 68//68 119//119 122//122
f 60//60 121//121 112//112
f 59//59 124//124 60//60
f 67//67 123//123 126//126
f 60//60 125//125 118//118
f 127//127 129//129 144//144
f 151//151 153//153 144//144
f 148//148 152//152 155//155
f 136//136 154//154 128//128
f 156//156 157//157 144//144
f 144//144 157//157 159//159
f 147//147 158//158 150//150
f 161//161 162//162 135//135
f 133//133 163//163 165//165
f 144//144 164//164 156//156
f 166//166 168//168 144//144
f 134//134 169//169 170//170
f 149//149 171//171 160//160
f 173//173 174//174 144//144
f 139//139 175//175 177//177
f 137//137 176//176 167//167
f 178//178 180//180 144//144
f 138//138 181//181 182//182
f 140//140 183//183 172//172
f 185//185 186//186 143//143
f 141//141 187//187 188//188
f 142//142 189//189 179//179
f 190//190 193//193 132//132
f 144//144 192//192 194//194
f 144//144 194//194 184//184
f 130//130 196//196 131//131
f 145//145 195//195 198//198
f 146//146 197//197 191//191
f 199//199 200//200 201//201
f 201//201 200//200 202//202
f 201//201 202//202 203//203
f 203//203 202//202 204//204
f 203//203 204//204 205//205
f 205//205 204//204 206//206
f 205//205 206//206 207//207
f 207//207 206//206 208//208
f 207//207 208//208 209//209
f 209//209 208//208 210//210
f 209//209 210//210 211//211
f 211//211 210//210 212//212
f 211//211 212//212 213//213
f 213//213 212//212 214//214
f 213//213 214//214 215//215
f 215//215 214//214 216//216
f 215//215 216//216 217//217
f 217//217 216//216 218//218
f 217//217 218//218 219//219
f 219//219 218//218 220//220
f 219//219 220//220 221//221
f 221//221 220//220 222//222
f 221//221 222//222 223//223
f 223//223 222//222 224//224
f 223//223 224//224 225//225
f 225//225 224//224 226//226
f 225//225 226//226 227//227
f 227//227 226//226 228//228
f 227//227 228//228 229//229
f 229//229 228//228 230//230
f 229//229 230//230 231//231
f 231//231 230//230 232//232
f 231//231 232//232 233//233
f 233//233 232//232 234//234
f 233//233 234//234 235//235
f 235//235 234//234 236//236
f 235//235 236//236 237//237
f 237//237 236//236 238//238
f 237//237 238//238 239//239
f 239//239 238//238 240//240
f 239//239 240//240 241//241
f 241//241 240//240 242//242
f 241//241 242//242 243//243
f 243//243 242//242 244//244
f 243//243 244//244 245//245
f 245//245 244//244 246//246
f 245//245 246//246 247//247
f 247//247 246//246 248//248
f 247//247 248//248 249//249
f 249//249 248//248 250//250
f 249//249 250//250 251//251
f 251//251 250//250 252//252
f 251//251 252//252 253//253
f 253//253 252//252 254//254
f 253//253 254//254 199//199
f 199//199 254//254 200//200
f 255//255 256//256 257//257
f 257//257 256//256 258//258
f 257//257 258//258 259//259
f 259//259 258//258 260//260
f 259//259 260//260 261//261
f 261//261 260//260 262//262
f 261//261 262//262 263//263
f 263//263 262//262 264//264
f 263//263 264//264 265//265
f 265//265 264//264 266//266
f 265//265 266//266 267//267
f 267//267 266//266 268//268
f 267//267 268//268 269//269
f 269//269 268//268 270//270
f 269//269 270//270 271//271
f 271//271 270//270 272//272
f 271//271 272//272 273//273
f 273//273 272//272 274//274
f 273//273 274//274 275//275
f 275//275 274//274 276//276
f 275//275 276//276 277//277
f 277//277 276//276 278//278
f 277//277 278//278 279//279
f 279//279 278//278 280//280
f 279//279 280//280 281//281
f 281//281 280//280 282//282
f 281//281 282//282 283//283
f 283//283 282//282 284//284
f 283//283 284//284 285//285
f 285//285 284//284 286//286
f 285//285 286//286 287//287
f 287//287 286//286 288//288
f 287//287 288//288 289//289
f 289//289 288//288 290//290
f 289//289 290//290 291//291
f 291//291 290//290 292//292
f 291//291 292//292 293//293
f 293//293 292//292 294//294
f 293//293 294//294 295//295
f 295//295 294//294 296//296
f 295//295 296//296 297//297
f 297//297 296//296 298//298
f 297//297 298//298 299//299
f 299//299 298//298 300//300
f 299//299 300//300 301//301
f 301//301 300//300 302//302
f 301//301 302//302 303//303
f 303//303 302//302 304//304
f 303//303 304//304 305//305
f 305//305 304//304 306//306
f 305//305 306//306 307//307
f 307//307 306//306 308//308
f 307//307 308//308 309//309
f 309//309 308//308 310//310
f 309//309 310//310 255//255
f 255//255 310//310 256//256

