# https://github.com/mikedh/trimesh
v -0.02344200 -0.09523200 -0.01975500
v -0.02344200 -0.09523200 -0.01975500
v -0.02344200 -0.09523200 -0.01975500
v -0.02344200 -0.09523200 -0.01975500
v -0.02344200 -0.09523200 -0.01975500
v -0.02344200 -0.09523200 -0.01975500
v -0.02344200 -0.09523200 -0.01975500
v -0.02342200 -0.09543800 -0.01973900
v -0.02350100 -0.09577800 -0.01971200
v -0.02350100 -0.09577800 -0.01971200
v -0.02350100 -0.09577800 -0.01971200
v -0.02350100 -0.09577800 -0.01971200
v -0.02350100 -0.09577800 -0.01971200
v -0.02350100 -0.09577800 -0.01971200
v -0.02350100 -0.09577800 -0.01971200
v -0.02350100 -0.09577800 -0.01971200
v -0.02350100 -0.09577800 -0.01971200
v -0.02350100 -0.09577800 -0.01971200
v -0.02495300 -0.09571200 -0.01971700
v -0.02495300 -0.09571200 -0.01971700
v -0.02495300 -0.09571200 -0.01971700
v -0.02495300 -0.09549500 -0.01973500
v -0.02495000 -0.09548600 -0.01973500
v -0.02495000 -0.09548600 -0.01973500
v -0.02495000 -0.09548600 -0.01973500
v -0.02492100 -0.09584400 -0.01970700
v -0.02492100 -0.09584400 -0.01970700
v -0.02378800 -0.09610600 -0.01968600
v -0.02406700 -0.09623700 -0.01967500
v -0.02406700 -0.09623700 -0.01967500
v -0.02437500 -0.09626000 -0.01967300
v -0.02437500 -0.09626000 -0.01967300
v -0.02465900 -0.09617800 -0.01968000
v -0.02465900 -0.09617800 -0.01968000
v -0.02486700 -0.09596900 -0.01969700
v -0.02486700 -0.09596900 -0.01969700
v -0.02494800 -0.09547600 -0.01973600
v -0.02494800 -0.09547600 -0.01973600
v -0.02494800 -0.09547600 -0.01973600
v -0.02487600 -0.09523600 -0.01975500
v -0.02487600 -0.09523600 -0.01975500
v -0.02473300 -0.09503100 -0.01977200
v -0.02473300 -0.09503100 -0.01977200
v -0.02374600 -0.09483900 -0.01978700
v -0.02351900 -0.09504700 -0.01977000
v -0.02351900 -0.09504700 -0.01977000
v -0.02406400 -0.09476000 -0.01979300
v -0.02406400 -0.09476000 -0.01979300
v -0.02406400 -0.09476000 -0.01979300
v -0.02444300 -0.09482700 -0.01978800
v -0.02444300 -0.09482700 -0.01978800
vn 0.00039800 -0.07960800 -0.99682600
vn 0.00029700 -0.07966800 -0.99682100
vn 0.00030000 -0.07956500 -0.99683000
vn 0.00030300 -0.07953100 -0.99683200
vn 0.00026300 -0.07962100 -0.99682500
vn 0.00031000 -0.07956200 -0.99683000
vn 0.00030200 -0.07969200 -0.99681900
vn 0.00039800 -0.07960800 -0.99682600
vn 0.00032800 -0.07961900 -0.99682500
vn 0.00032700 -0.07948000 -0.99683600
vn 0.00029700 -0.07966800 -0.99682100
vn 0.00039800 -0.07960800 -0.99682600
vn 0.00030900 -0.07961000 -0.99682600
vn 0.00035900 -0.07959300 -0.99682700
vn 0.00020000 -0.07941100 -0.99684200
vn 0.00030700 -0.07986900 -0.99680500
vn 0.00028600 -0.07930400 -0.99685000
vn 0.00027000 -0.07976200 -0.99681400
vn 0.00024500 -0.07977300 -0.99681300
vn 0.00032700 -0.07948000 -0.99683600
vn 0.00030700 -0.07986900 -0.99680500
vn 0.00024600 -0.07977300 -0.99681300
vn 0.00024700 -0.07977300 -0.99681300
vn 0.00031200 -0.07942700 -0.99684100
vn 0.00032700 -0.07948000 -0.99683600
vn 0.00028600 -0.07930400 -0.99685000
vn 0.00030700 -0.07986900 -0.99680500
vn 0.00035900 -0.07959300 -0.99682700
vn 0.00030900 -0.07961000 -0.99682600
vn 0.00035900 -0.07959300 -0.99682700
vn 0.00020000 -0.07941100 -0.99684200
vn 0.00030900 -0.07961000 -0.99682600
vn 0.00032800 -0.07961900 -0.99682500
vn 0.00020000 -0.07941100 -0.99684200
vn 0.00032800 -0.07961900 -0.99682500
vn 0.00028600 -0.07930400 -0.99685000
vn 0.00032700 -0.07943100 -0.99684000
vn 0.00030200 -0.07969200 -0.99681900
vn 0.00029700 -0.07966800 -0.99682100
vn 0.00030200 -0.07969200 -0.99681900
vn 0.00030000 -0.07956500 -0.99683000
vn 0.00030000 -0.07956500 -0.99683000
vn 0.00030300 -0.07953100 -0.99683200
vn 0.00031300 -0.07966700 -0.99682100
vn 0.00031300 -0.07966700 -0.99682100
vn 0.00031100 -0.07956200 -0.99683000
vn 0.00031100 -0.07956200 -0.99683000
vn 0.00031300 -0.07966700 -0.99682100
vn 0.00026300 -0.07962100 -0.99682500
vn 0.00026300 -0.07962100 -0.99682500
vn 0.00030300 -0.07953100 -0.99683200
f 1//1 8//8 12//12
f 19//19 22//22 23//23
f 16//16 27//27 21//21
f 28//28 30//30 14//14
f 13//13 29//29 32//32
f 31//31 34//34 15//15
f 9//9 33//33 35//35
f 17//17 36//36 26//26
f 20//20 25//25 10//10
f 18//18 24//24 37//37
f 11//11 39//39 2//2
f 7//7 38//38 40//40
f 3//3 41//41 42//42
f 44//44 45//45 48//48
f 47//47 46//46 6//6
f 49//49 5//5 50//50
f 51//51 4//4 43//43

