# https://github.com/mikedh/trimesh
v 0.29221100 -0.01240400 0.04730000
v 0.29221100 -0.01240400 0.04720000
v 0.29223800 -0.01242100 0.04720000
v 0.29223800 -0.01242100 0.04730000
v 0.29226600 -0.01243300 0.04720000
v 0.29226600 -0.01243300 0.04730000
v 0.29229600 -0.01244200 0.04720000
v 0.29229600 -0.01244200 0.04730000
v 0.29232600 -0.01244600 0.04720000
v 0.29232600 -0.01244600 0.04730000
v 0.29235800 -0.01244600 0.04720000
v 0.29235800 -0.01244600 0.04730000
v 0.29238900 -0.01244200 0.04720000
v 0.29238900 -0.01244200 0.04730000
v 0.29242000 -0.01243300 0.04720000
v 0.29242000 -0.01243300 0.04730000
v 0.29244900 -0.01242000 0.04720000
v 0.29244900 -0.01242000 0.04730000
v 0.29247600 -0.01240400 0.04720000
v 0.29247600 -0.01240400 0.04730000
v 0.29250000 -0.01238300 0.04720000
v 0.29250000 -0.01238300 0.04730000
v 0.29252000 -0.01236100 0.04720000
v 0.29252000 -0.01236100 0.04730000
v 0.29252600 -0.01235300 0.04720000
v 0.29252600 -0.01235300 0.04730000
v 0.29253600 -0.01234000 0.04730000
v 0.29253600 -0.01234000 0.04720000
v 0.29255300 -0.01231300 0.04720000
v 0.29255300 -0.01231300 0.04730000
v 0.29256500 -0.01228500 0.04720000
v 0.29256500 -0.01228500 0.04730000
v 0.29257300 -0.01225500 0.04720000
v 0.29257300 -0.01225500 0.04730000
v 0.29257800 -0.01222400 0.04720000
v 0.29257800 -0.01222400 0.04730000
v 0.29257800 -0.01219300 0.04720000
v 0.29257800 -0.01219300 0.04730000
v 0.29257500 -0.01217200 0.04720000
v 0.29257500 -0.01217200 0.04730000
v 0.29256800 -0.01214100 0.04720000
v 0.29256800 -0.01214100 0.04730000
v 0.29255700 -0.01211200 0.04720000
v 0.29255700 -0.01211200 0.04730000
v 0.29254200 -0.01208500 0.04720000
v 0.29254200 -0.01208500 0.04730000
v 0.29252300 -0.01206000 0.04720000
v 0.29252300 -0.01206000 0.04730000
v 0.29250100 -0.01203700 0.04720000
v 0.29250100 -0.01203700 0.04730000
v 0.29248500 -0.01202500 0.04720000
v 0.29248500 -0.01202500 0.04730000
v 0.29245800 -0.01200800 0.04720000
v 0.29245800 -0.01200800 0.04730000
v 0.29243000 -0.01199600 0.04720000
v 0.29243000 -0.01199600 0.04730000
v 0.29240000 -0.01198700 0.04720000
v 0.29240000 -0.01198700 0.04730000
v 0.29236900 -0.01198300 0.04720000
v 0.29236900 -0.01198300 0.04730000
v 0.29233800 -0.01198200 0.04720000
v 0.29233800 -0.01198200 0.04730000
v 0.29230700 -0.01198600 0.04720000
v 0.29230700 -0.01198600 0.04730000
v 0.29227600 -0.01199500 0.04720000
v 0.29227600 -0.01199500 0.04730000
v 0.29224700 -0.01200800 0.04720000
v 0.29224700 -0.01200800 0.04730000
v 0.29222000 -0.01202500 0.04720000
v 0.29222000 -0.01202500 0.04730000
v 0.29219600 -0.01204500 0.04720000
v 0.29219600 -0.01204500 0.04730000
v 0.29217600 -0.01206700 0.04720000
v 0.29217600 -0.01206700 0.04730000
v 0.29216900 -0.01207500 0.04720000
v 0.29216900 -0.01207500 0.04730000
v 0.29216000 -0.01208900 0.04730000
v 0.29216000 -0.01208900 0.04720000
v 0.29214300 -0.01211600 0.04720000
v 0.29214300 -0.01211600 0.04730000
v 0.29213100 -0.01214400 0.04720000
v 0.29213100 -0.01214400 0.04730000
v 0.29212200 -0.01217300 0.04720000
v 0.29212200 -0.01217300 0.04730000
v 0.29211800 -0.01220400 0.04720000
v 0.29211800 -0.01220400 0.04730000
v 0.29211800 -0.01223500 0.04720000
v 0.29211800 -0.01223500 0.04730000
v 0.29212000 -0.01225700 0.04720000
v 0.29212000 -0.01225700 0.04730000
v 0.29212800 -0.01228800 0.04720000
v 0.29212800 -0.01228800 0.04730000
v 0.29214000 -0.01231800 0.04720000
v 0.29214000 -0.01231800 0.04730000
v 0.29215600 -0.01234600 0.04720000
v 0.29215600 -0.01234600 0.04730000
v 0.29217500 -0.01237200 0.04720000
v 0.29217500 -0.01237200 0.04730000
v 0.29219800 -0.01239400 0.04720000
v 0.29219800 -0.01239400 0.04730000
v 0.29252000 -0.01236100 0.04730000
v 0.29252000 -0.01236100 0.04730000
v 0.29252600 -0.01235300 0.04730000
v 0.29252600 -0.01235300 0.04730000
v 0.29216000 -0.01208900 0.04730000
v 0.29216000 -0.01208900 0.04730000
v 0.29216000 -0.01208900 0.04730000
v 0.29216000 -0.01208900 0.04730000
v 0.29216000 -0.01208900 0.04730000
v 0.29216000 -0.01208900 0.04730000
v 0.29216000 -0.01208900 0.04730000
v 0.29216000 -0.01208900 0.04730000
v 0.29216000 -0.01208900 0.04730000
v 0.29216000 -0.01208900 0.04730000
v 0.29216000 -0.01208900 0.04730000
v 0.29257800 -0.01219300 0.04730000
v 0.29257800 -0.01219300 0.04730000
v 0.29257500 -0.01217200 0.04730000
v 0.29217600 -0.01206700 0.04730000
v 0.29217600 -0.01206700 0.04730000
v 0.29217600 -0.01206700 0.04730000
v 0.29217600 -0.01206700 0.04730000
v 0.29217600 -0.01206700 0.04730000
v 0.29217600 -0.01206700 0.04730000
v 0.29217600 -0.01206700 0.04730000
v 0.29254200 -0.01208500 0.04730000
v 0.29252300 -0.01206000 0.04730000
v 0.29250100 -0.01203700 0.04730000
v 0.29248500 -0.01202500 0.04730000
v 0.29248500 -0.01202500 0.04730000
v 0.29219600 -0.01204500 0.04730000
v 0.29219600 -0.01204500 0.04730000
v 0.29219600 -0.01204500 0.04730000
v 0.29219600 -0.01204500 0.04730000
v 0.29219600 -0.01204500 0.04730000
v 0.29219600 -0.01204500 0.04730000
v 0.29219600 -0.01204500 0.04730000
v 0.29216900 -0.01207500 0.04730000
v 0.29216900 -0.01207500 0.04730000
v 0.29252600 -0.01235300 0.04730000
v 0.29253600 -0.01234000 0.04730000
v 0.29253600 -0.01234000 0.04730000
v 0.29253600 -0.01234000 0.04730000
v 0.29255300 -0.01231300 0.04730000
v 0.29255300 -0.01231300 0.04730000
v 0.29256500 -0.01228500 0.04730000
v 0.29256500 -0.01228500 0.04730000
v 0.29232600 -0.01244600 0.04730000
v 0.29232600 -0.01244600 0.04730000
v 0.29235800 -0.01244600 0.04730000
v 0.29235800 -0.01244600 0.04730000
v 0.29257300 -0.01225500 0.04730000
v 0.29257300 -0.01225500 0.04730000
v 0.29257800 -0.01222400 0.04730000
v 0.29257800 -0.01222400 0.04730000
v 0.29256800 -0.01214100 0.04730000
v 0.29256800 -0.01214100 0.04730000
v 0.29255700 -0.01211200 0.04730000
v 0.29255700 -0.01211200 0.04730000
v 0.29248500 -0.01202500 0.04730000
v 0.29245800 -0.01200800 0.04730000
v 0.29245800 -0.01200800 0.04730000
v 0.29243000 -0.01199600 0.04730000
v 0.29243000 -0.01199600 0.04730000
v 0.29240000 -0.01198700 0.04730000
v 0.29240000 -0.01198700 0.04730000
v 0.29214300 -0.01211600 0.04730000
v 0.29214300 -0.01211600 0.04730000
v 0.29213100 -0.01214400 0.04730000
v 0.29213100 -0.01214400 0.04730000
v 0.29219800 -0.01239400 0.04730000
v 0.29219800 -0.01239400 0.04730000
v 0.29219800 -0.01239400 0.04730000
v 0.29219800 -0.01239400 0.04730000
v 0.29219800 -0.01239400 0.04730000
v 0.29219800 -0.01239400 0.04730000
v 0.29219800 -0.01239400 0.04730000
v 0.29219800 -0.01239400 0.04730000
v 0.29219800 -0.01239400 0.04730000
v 0.29212200 -0.01217300 0.04730000
v 0.29212200 -0.01217300 0.04730000
v 0.29212000 -0.01225700 0.04730000
v 0.29212000 -0.01225700 0.04730000
v 0.29212800 -0.01228800 0.04730000
v 0.29212800 -0.01228800 0.04730000
v 0.29223800 -0.01242100 0.04730000
v 0.29223800 -0.01242100 0.04730000
v 0.29226600 -0.01243300 0.04730000
v 0.29226600 -0.01243300 0.04730000
v 0.29229600 -0.01244200 0.04730000
v 0.29229600 -0.01244200 0.04730000
v 0.29211800 -0.01220400 0.04730000
v 0.29211800 -0.01220400 0.04730000
v 0.29211800 -0.01223500 0.04730000
v 0.29211800 -0.01223500 0.04730000
v 0.29221100 -0.01240400 0.04730000
v 0.29221100 -0.01240400 0.04730000
v 0.29214000 -0.01231800 0.04730000
v 0.29214000 -0.01231800 0.04730000
v 0.29215600 -0.01234600 0.04730000
v 0.29215600 -0.01234600 0.04730000
v 0.29217500 -0.01237200 0.04730000
v 0.29238900 -0.01244200 0.04730000
v 0.29238900 -0.01244200 0.04730000
v 0.29242000 -0.01243300 0.04730000
v 0.29242000 -0.01243300 0.04730000
v 0.29244900 -0.01242000 0.04730000
v 0.29244900 -0.01242000 0.04730000
v 0.29236900 -0.01198300 0.04730000
v 0.29236900 -0.01198300 0.04730000
v 0.29233800 -0.01198200 0.04730000
v 0.29233800 -0.01198200 0.04730000
v 0.29230700 -0.01198600 0.04730000
v 0.29230700 -0.01198600 0.04730000
v 0.29247600 -0.01240400 0.04730000
v 0.29247600 -0.01240400 0.04730000
v 0.29250000 -0.01238300 0.04730000
v 0.29250000 -0.01238300 0.04730000
v 0.29227600 -0.01199500 0.04730000
v 0.29227600 -0.01199500 0.04730000
v 0.29224700 -0.01200800 0.04730000
v 0.29224700 -0.01200800 0.04730000
v 0.29222000 -0.01202500 0.04730000
v 0.29216000 -0.01208900 0.04720000
v 0.29216000 -0.01208900 0.04720000
v 0.29216000 -0.01208900 0.04720000
v 0.29216000 -0.01208900 0.04720000
v 0.29216000 -0.01208900 0.04720000
v 0.29216000 -0.01208900 0.04720000
v 0.29216000 -0.01208900 0.04720000
v 0.29216000 -0.01208900 0.04720000
v 0.29216000 -0.01208900 0.04720000
v 0.29216900 -0.01207500 0.04720000
v 0.29216900 -0.01207500 0.04720000
v 0.29253600 -0.01234000 0.04720000
v 0.29253600 -0.01234000 0.04720000
v 0.29217600 -0.01206700 0.04720000
v 0.29217600 -0.01206700 0.04720000
v 0.29217600 -0.01206700 0.04720000
v 0.29217600 -0.01206700 0.04720000
v 0.29217600 -0.01206700 0.04720000
v 0.29217600 -0.01206700 0.04720000
v 0.29217600 -0.01206700 0.04720000
v 0.29217600 -0.01206700 0.04720000
v 0.29217600 -0.01206700 0.04720000
v 0.29217600 -0.01206700 0.04720000
v 0.29255300 -0.01231300 0.04720000
v 0.29252600 -0.01235300 0.04720000
v 0.29252600 -0.01235300 0.04720000
v 0.29252000 -0.01236100 0.04720000
v 0.29252000 -0.01236100 0.04720000
v 0.29250000 -0.01238300 0.04720000
v 0.29212000 -0.01225700 0.04720000
v 0.29211800 -0.01223500 0.04720000
v 0.29219800 -0.01239400 0.04720000
v 0.29219800 -0.01239400 0.04720000
v 0.29219800 -0.01239400 0.04720000
v 0.29219800 -0.01239400 0.04720000
v 0.29219800 -0.01239400 0.04720000
v 0.29238900 -0.01244200 0.04720000
v 0.29238900 -0.01244200 0.04720000
v 0.29235800 -0.01244600 0.04720000
v 0.29212800 -0.01228800 0.04720000
v 0.29240000 -0.01198700 0.04720000
v 0.29240000 -0.01198700 0.04720000
v 0.29243000 -0.01199600 0.04720000
v 0.29219600 -0.01204500 0.04720000
v 0.29219600 -0.01204500 0.04720000
v 0.29219600 -0.01204500 0.04720000
v 0.29219600 -0.01204500 0.04720000
v 0.29252300 -0.01206000 0.04720000
v 0.29252300 -0.01206000 0.04720000
v 0.29254200 -0.01208500 0.04720000
v 0.29254200 -0.01208500 0.04720000
v 0.29255700 -0.01211200 0.04720000
v 0.29255700 -0.01211200 0.04720000
v 0.29257800 -0.01219300 0.04720000
v 0.29257800 -0.01219300 0.04720000
v 0.29257800 -0.01222400 0.04720000
v 0.29257800 -0.01222400 0.04720000
v 0.29242000 -0.01243300 0.04720000
v 0.29242000 -0.01243300 0.04720000
v 0.29232600 -0.01244600 0.04720000
v 0.29232600 -0.01244600 0.04720000
v 0.29229600 -0.01244200 0.04720000
v 0.29229600 -0.01244200 0.04720000
v 0.29226600 -0.01243300 0.04720000
v 0.29226600 -0.01243300 0.04720000
v 0.29214300 -0.01211600 0.04720000
v 0.29213100 -0.01214400 0.04720000
v 0.29245800 -0.01200800 0.04720000
v 0.29248500 -0.01202500 0.04720000
v 0.29248500 -0.01202500 0.04720000
v 0.29250100 -0.01203700 0.04720000
v 0.29250100 -0.01203700 0.04720000
v 0.29256800 -0.01214100 0.04720000
v 0.29256800 -0.01214100 0.04720000
v 0.29257500 -0.01217200 0.04720000
v 0.29257500 -0.01217200 0.04720000
v 0.29257300 -0.01225500 0.04720000
v 0.29257300 -0.01225500 0.04720000
v 0.29256500 -0.01228500 0.04720000
v 0.29256500 -0.01228500 0.04720000
v 0.29223800 -0.01242100 0.04720000
v 0.29223800 -0.01242100 0.04720000
v 0.29221100 -0.01240400 0.04720000
v 0.29221100 -0.01240400 0.04720000
v 0.29211800 -0.01220400 0.04720000
v 0.29211800 -0.01220400 0.04720000
v 0.29212200 -0.01217300 0.04720000
v 0.29212200 -0.01217300 0.04720000
v 0.29217500 -0.01237200 0.04720000
v 0.29215600 -0.01234600 0.04720000
v 0.29215600 -0.01234600 0.04720000
v 0.29214000 -0.01231800 0.04720000
v 0.29214000 -0.01231800 0.04720000
v 0.29230700 -0.01198600 0.04720000
v 0.29233800 -0.01198200 0.04720000
v 0.29233800 -0.01198200 0.04720000
v 0.29236900 -0.01198300 0.04720000
v 0.29236900 -0.01198300 0.04720000
v 0.29247600 -0.01240400 0.04720000
v 0.29244900 -0.01242000 0.04720000
v 0.29244900 -0.01242000 0.04720000
v 0.29222000 -0.01202500 0.04720000
v 0.29224700 -0.01200800 0.04720000
v 0.29224700 -0.01200800 0.04720000
v 0.29227600 -0.01199500 0.04720000
v 0.29227600 -0.01199500 0.04720000
vn -0.55718200 -0.83039000 -0.00001000
vn -0.58600200 -0.81031000 0.00000700
vn -0.48813100 -0.87277100 -0.00000100
vn -0.44742100 -0.89432300 0.00000000
vn -0.36325100 -0.93169100 0.00000000
vn -0.31985800 -0.94746600 0.00000900
vn -0.23142100 -0.97285400 -0.00000100
vn -0.18647900 -0.98245900 0.00000000
vn -0.09563900 -0.99541600 0.00000000
vn -0.04982200 -0.99875800 0.00000000
vn 0.04231500 -0.99910400 0.00000000
vn 0.08849100 -0.99607700 0.00000000
vn 0.18021100 -0.98362800 0.00000900
vn 0.22563400 -0.97421200 0.00000000
vn 0.31518400 -0.94903100 0.00000000
vn 0.35927300 -0.93323300 0.00000000
vn 0.44533200 -0.89536500 0.00000000
vn 0.48716800 -0.87330800 0.00000000
vn 0.56758400 -0.82331600 0.00000900
vn 0.60598400 -0.79547600 0.00000000
vn 0.67722200 -0.73577900 0.00000000
vn 0.71009600 -0.70410500 0.00000000
vn 0.76050000 -0.64933800 0.00000000
vn 0.77893600 -0.62710300 0.00000000
vn 0.80057800 -0.59922900 0.00000000
vn 0.80431800 -0.59419800 -0.00000000
vn 0.83682400 -0.54747200 -0.00000500
vn 0.82279600 -0.56833700 0.00000500
vn 0.87368400 -0.48649300 0.00000000
vn 0.89519300 -0.44567800 -0.00000900
vn 0.93240000 -0.36142900 0.00000000
vn 0.94803900 -0.31815300 -0.00000900
vn 0.97324100 -0.22978700 -0.00000900
vn 0.98277400 -0.18481200 0.00000000
vn 0.99561000 -0.09359700 0.00000900
vn 0.99887300 -0.04745400 0.00000000
vn 0.99926800 0.03825300 0.00000000
vn 0.99697100 0.07777600 0.00000000
vn 0.98852400 0.15106300 0.00000000
vn 0.98278000 0.18477900 0.00000000
vn 0.96437000 0.26455600 0.00000000
vn 0.95066500 0.31022000 0.00000000
vn 0.91693200 0.39904300 0.00000000
vn 0.89700100 0.44202900 -0.00001400
vn 0.85119600 0.52484700 0.00000000
vn 0.82543000 0.56450400 -0.00001300
vn 0.76853800 0.63980400 0.00000000
vn 0.73755000 0.67529200 0.00000000
vn 0.67812000 0.73495100 0.00000000
vn 0.65039100 0.75960000 0.00000700
vn 0.59141500 0.80636700 0.00000000
vn 0.56022000 0.82834400 0.00000000
vn 0.48864600 0.87248200 0.00000000
vn 0.44804700 0.89401000 0.00000000
vn 0.36439100 0.93124600 -0.00000100
vn 0.32136900 0.94695400 0.00000000
vn 0.23341200 0.97237800 -0.00000100
vn 0.18861100 0.98205200 -0.00001100
vn 0.09774400 0.99521200 0.00000000
vn 0.05184200 0.99865500 0.00000900
vn -0.04059400 0.99917600 -0.00000700
vn -0.08693100 0.99621400 0.00000000
vn -0.17905200 0.98384000 0.00001000
vn -0.22468600 0.97443100 0.00000100
vn -0.31467000 0.94920100 0.00000000
vn -0.35892200 0.93336800 0.00000000
vn -0.44524200 0.89541000 0.00000000
vn -0.48714600 0.87332100 -0.00001100
vn -0.56737500 0.82346000 0.00000900
vn -0.60561500 0.79575800 0.00000000
vn -0.67688000 0.73609300 0.00001200
vn -0.70985500 0.70434800 0.00000000
vn -0.76069600 0.64910800 0.00000000
vn -0.77938600 0.62654400 0.00000000
vn -0.80063100 0.59915800 0.00000000
vn -0.80400400 0.59462400 0.00000000
vn -0.83658300 0.54784000 0.00000000
vn -0.82221600 0.56917500 0.00000000
vn -0.87381600 0.48625600 0.00000000
vn -0.89542600 0.44521000 0.00000000
vn -0.93253800 0.36107300 0.00000000
vn -0.94810900 0.31794600 0.00000000
vn -0.97327300 0.22965200 0.00000000
vn -0.98281900 0.18457000 0.00000000
vn -0.99561600 0.09353800 0.00000900
vn -0.99886000 0.04773100 0.00000000
vn -0.99930900 -0.03717800 0.00000000
vn -0.99710000 -0.07610600 -0.00000700
vn -0.98785600 -0.15537000 -0.00000100
vn -0.98069300 -0.19555300 0.00000000
vn -0.96009800 -0.27966300 0.00000000
vn -0.94626100 -0.32340300 -0.00000800
vn -0.91222100 -0.40969800 0.00000000
vn -0.89197400 -0.45208700 0.00000000
vn -0.84550200 -0.53397300 0.00000800
vn -0.81930600 -0.57335700 0.00000100
vn -0.76124100 -0.64846900 0.00000900
vn -0.72941700 -0.68406900 0.00000000
vn -0.66953500 -0.74278100 0.00000000
vn -0.64217400 -0.76655900 -0.00000000
vn 0.00007900 -0.00000800 1.00000000
vn 0.00003400 -0.00000300 1.00000000
vn 0.00000000 0.00000000 1.00000000
vn 0.00007900 -0.00000800 1.00000000
vn 0.00000000 0.00000000 1.00000000
vn -0.00007100 0.00000700 1.00000000
vn -0.00009300 0.00000900 1.00000000
vn 0.00013300 -0.00001300 1.00000000
vn 0.00000200 -0.00000000 1.00000000
vn 0.00007800 -0.00000800 1.00000000
vn 0.00014600 -0.00001500 1.00000000
vn 0.00008000 -0.00000800 1.00000000
vn 0.00013100 -0.00001300 1.00000000
vn -0.00010500 0.00001100 1.00000000
vn 0.00003400 -0.00000300 1.00000000
vn 0.00001800 -0.00000200 1.00000000
vn 0.00000000 0.00000000 1.00000000
vn 0.00000000 0.00000000 1.00000000
vn -0.00002100 0.00000200 1.00000000
vn -0.00007600 0.00000800 1.00000000
vn -0.00001700 0.00000200 1.00000000
vn 0.00001800 -0.00000200 1.00000000
vn -0.00001600 0.00000200 1.00000000
vn 0.00000000 0.00000000 1.00000000
vn 0.00008300 -0.00000800 1.00000000
vn 0.00000000 0.00000000 1.00000000
vn 0.00000000 0.00000000 1.00000000
vn 0.00000000 0.00000000 1.00000000
vn 0.00000000 0.00000000 1.00000000
vn -0.00007600 0.00000800 1.00000000
vn 0.00053100 -0.00005400 1.00000000
vn 0.00018500 -0.00001900 1.00000000
vn 0.00001600 -0.00000200 1.00000000
vn 0.00002600 -0.00000300 1.00000000
vn -0.00007600 0.00000800 1.00000000
vn 0.00000000 0.00000000 1.00000000
vn 0.00003100 -0.00000300 1.00000000
vn 0.00004500 -0.00000500 1.00000000
vn 0.00000000 0.00000000 1.00000000
vn 0.00004500 -0.00000500 1.00000000
vn 0.00004500 -0.00000500 1.00000000
vn 0.00000000 0.00000000 1.00000000
vn -0.00001600 0.00000200 1.00000000
vn 0.00008300 -0.00000800 1.00000000
vn -0.00001600 0.00000200 1.00000000
vn 0.00000000 0.00000000 1.00000000
vn 0.00008300 -0.00000800 1.00000000
vn -0.00007100 0.00000700 1.00000000
vn 0.00000200 -0.00000000 1.00000000
vn -0.00007100 0.00000700 1.00000000
vn 0.00000000 0.00000000 1.00000000
vn -0.00001700 0.00000200 1.00000000
vn 0.00000000 0.00000000 1.00000000
vn -0.00001700 0.00000200 1.00000000
vn 0.00001800 -0.00000200 1.00000000
vn -0.00002100 0.00000200 1.00000000
vn 0.00000000 0.00000000 1.00000000
vn -0.00002100 0.00000200 1.00000000
vn 0.00000000 0.00000000 1.00000000
vn 0.00000000 0.00000000 1.00000000
vn 0.00002600 -0.00000300 1.00000000
vn 0.00000000 0.00000000 1.00000000
vn 0.00002600 -0.00000300 1.00000000
vn 0.00001600 -0.00000200 1.00000000
vn 0.00000000 0.00000000 1.00000000
vn 0.00001600 -0.00000200 1.00000000
vn 0.00002800 -0.00000300 1.00000000
vn 0.00000000 0.00000000 1.00000000
vn 0.00002800 -0.00000300 1.00000000
vn 0.00005500 -0.00000600 1.00000000
vn 0.00002800 -0.00000300 1.00000000
vn 0.00017800 -0.00001800 1.00000000
vn 0.00009000 -0.00000900 1.00000000
vn 0.00007800 -0.00000800 1.00000000
vn 0.00000000 0.00000000 1.00000000
vn 0.00005500 -0.00000600 1.00000000
vn -0.00005200 0.00000500 1.00000000
vn -0.00007300 0.00000700 1.00000000
vn -0.00005600 0.00000600 1.00000000
vn 0.00005500 -0.00000600 1.00000000
vn -0.00007300 0.00000700 1.00000000
vn 0.00000000 0.00000000 1.00000000
vn 0.00017800 -0.00001800 1.00000000
vn -0.00005200 0.00000500 1.00000000
vn 0.00000000 0.00000000 1.00000000
vn -0.00010500 0.00001100 1.00000000
vn 0.00000000 0.00000000 1.00000000
vn 0.00000000 0.00000000 1.00000000
vn 0.00014600 -0.00001500 1.00000000
vn 0.00014600 -0.00001500 1.00000000
vn 0.00000200 -0.00000000 1.00000000
vn -0.00007300 0.00000700 1.00000000
vn 0.00009000 -0.00000900 1.00000000
vn 0.00009000 -0.00000900 1.00000000
vn 0.00017800 -0.00001800 1.00000000
vn 0.00007800 -0.00000800 1.00000000
vn -0.00010500 0.00001100 1.00000000
vn -0.00005200 0.00000500 1.00000000
vn -0.00005600 0.00000600 1.00000000
vn -0.00005600 0.00000600 1.00000000
vn 0.00000000 0.00000000 1.00000000
vn 0.00000000 0.00000000 1.00000000
vn 0.00013300 -0.00001300 1.00000000
vn 0.00000000 0.00000000 1.00000000
vn -0.00009300 0.00000900 1.00000000
vn 0.00013300 -0.00001300 1.00000000
vn 0.00013100 -0.00001300 1.00000000
vn -0.00009300 0.00000900 1.00000000
vn 0.00000000 0.00000000 1.00000000
vn 0.00018500 -0.00001900 1.00000000
vn 0.00018500 -0.00001900 1.00000000
vn 0.00000000 0.00000000 1.00000000
vn 0.00000000 0.00000000 1.00000000
vn 0.00003100 -0.00000300 1.00000000
vn 0.00013100 -0.00001300 1.00000000
vn 0.00000000 0.00000000 1.00000000
vn 0.00000000 0.00000000 1.00000000
vn 0.00003400 -0.00000300 1.00000000
vn 0.00053100 -0.00005400 1.00000000
vn 0.00003100 -0.00000300 1.00000000
vn 0.00053100 -0.00005400 1.00000000
vn 0.00000000 0.00000000 1.00000000
vn 0.00000000 0.00000000 1.00000000
vn 0.00000000 0.00000000 -1.00000000
vn -0.00008500 0.00000900 -1.00000000
vn -0.00019200 0.00002000 -1.00000000
vn -0.00010000 0.00001000 -1.00000000
vn -0.00012800 0.00001300 -1.00000000
vn -0.00004500 0.00000500 -1.00000000
vn -0.00012500 0.00001300 -1.00000000
vn -0.00012400 0.00001300 -1.00000000
vn -0.00011600 0.00001200 -1.00000000
vn 0.00000000 0.00000000 -1.00000000
vn -0.00015400 0.00001600 -1.00000000
vn 0.00000000 0.00000000 -1.00000000
vn -0.00015400 0.00001600 -1.00000000
vn -0.00015400 0.00001600 -1.00000000
vn -0.00005700 0.00000600 -1.00000000
vn 0.00005000 -0.00000500 -1.00000000
vn -0.00002700 0.00000300 -1.00000000
vn 0.00002100 -0.00000200 -1.00000000
vn 0.00000000 0.00000000 -1.00000000
vn -0.00006800 0.00000700 -1.00000000
vn 0.00001300 -0.00000100 -1.00000000
vn -0.00002000 0.00000200 -1.00000000
vn 0.00007000 -0.00000700 -1.00000000
vn 0.00000000 0.00000000 -1.00000000
vn 0.00000000 0.00000000 -1.00000000
vn -0.00012400 0.00001300 -1.00000000
vn -0.00012400 0.00001300 -1.00000000
vn 0.00000000 0.00000000 -1.00000000
vn 0.00000000 0.00000000 -1.00000000
vn 0.00000000 0.00000000 -1.00000000
vn 0.00000000 0.00000000 -1.00000000
vn -0.00000700 0.00000100 -1.00000000
vn -0.00012500 0.00001300 -1.00000000
vn 0.00005600 -0.00000600 -1.00000000
vn 0.00000000 0.00000000 -1.00000000
vn 0.00027500 -0.00002800 -1.00000000
vn -0.00019200 0.00002000 -1.00000000
vn 0.00000000 0.00000000 -1.00000000
vn 0.00000000 0.00000000 -1.00000000
vn 0.00000000 0.00000000 -1.00000000
vn 0.00000000 0.00000000 -1.00000000
vn 0.00007300 -0.00000700 -1.00000000
vn 0.00000000 0.00000000 -1.00000000
vn 0.00007100 -0.00000700 -1.00000000
vn -0.00026500 0.00002700 -1.00000000
vn 0.00007300 -0.00000700 -1.00000000
vn 0.00000000 0.00000000 -1.00000000
vn 0.00001300 -0.00000100 -1.00000000
vn -0.00005700 0.00000600 -1.00000000
vn 0.00001300 -0.00000100 -1.00000000
vn 0.00000000 0.00000000 -1.00000000
vn 0.00000000 0.00000000 -1.00000000
vn 0.00002100 -0.00000200 -1.00000000
vn -0.00002700 0.00000300 -1.00000000
vn 0.00000000 0.00000000 -1.00000000
vn 0.00007000 -0.00000700 -1.00000000
vn 0.00000000 0.00000000 -1.00000000
vn -0.00008500 0.00000900 -1.00000000
vn -0.00019200 0.00002000 -1.00000000
vn 0.00000000 0.00000000 -1.00000000
vn -0.00010000 0.00001000 -1.00000000
vn -0.00012800 0.00001300 -1.00000000
vn -0.00010000 0.00001000 -1.00000000
vn -0.00011600 0.00001200 -1.00000000
vn -0.00012800 0.00001300 -1.00000000
vn 0.00000000 0.00000000 -1.00000000
vn 0.00000000 0.00000000 -1.00000000
vn 0.00000000 0.00000000 -1.00000000
vn 0.00005000 -0.00000500 -1.00000000
vn 0.00000000 0.00000000 -1.00000000
vn -0.00005700 0.00000600 -1.00000000
vn 0.00005000 -0.00000500 -1.00000000
vn 0.00002100 -0.00000200 -1.00000000
vn -0.00002000 0.00000200 -1.00000000
vn -0.00002000 0.00000200 -1.00000000
vn -0.00002700 0.00000300 -1.00000000
vn -0.00006800 0.00000700 -1.00000000
vn 0.00007000 -0.00000700 -1.00000000
vn 0.00000000 0.00000000 -1.00000000
vn -0.00006800 0.00000700 -1.00000000
vn -0.00004500 0.00000500 -1.00000000
vn -0.00011600 0.00001200 -1.00000000
vn -0.00004500 0.00000500 -1.00000000
vn -0.00012500 0.00001300 -1.00000000
vn 0.00027500 -0.00002800 -1.00000000
vn 0.00000000 0.00000000 -1.00000000
vn 0.00027500 -0.00002800 -1.00000000
vn 0.00000000 0.00000000 -1.00000000
vn -0.00000200 -0.00000000 -1.00000000
vn 0.00005600 -0.00000600 -1.00000000
vn 0.00000300 -0.00000000 -1.00000000
vn 0.00000000 0.00000000 -1.00000000
vn 0.00005600 -0.00000600 -1.00000000
vn 0.00000000 0.00000000 -1.00000000
vn 0.00000000 0.00000000 -1.00000000
vn 0.00007100 -0.00000700 -1.00000000
vn 0.00007300 -0.00000700 -1.00000000
vn 0.00007100 -0.00000700 -1.00000000
vn 0.00000000 0.00000000 -1.00000000
vn 0.00000000 0.00000000 -1.00000000
vn -0.00008500 0.00000900 -1.00000000
vn 0.00000000 0.00000000 -1.00000000
vn -0.00026500 0.00002700 -1.00000000
vn 0.00000000 0.00000000 -1.00000000
vn 0.00000000 0.00000000 -1.00000000
vn -0.00026500 0.00002700 -1.00000000
f 1//1 2//2 3//3
f 1//1 3//3 4//4
f 4//4 3//3 5//5
f 4//4 5//5 6//6
f 6//6 5//5 7//7
f 6//6 7//7 8//8
f 8//8 7//7 9//9
f 8//8 9//9 10//10
f 10//10 9//9 11//11
f 10//10 11//11 12//12
f 12//12 11//11 13//13
f 12//12 13//13 14//14
f 14//14 13//13 15//15
f 14//14 15//15 16//16
f 16//16 15//15 17//17
f 16//16 17//17 18//18
f 18//18 17//17 19//19
f 18//18 19//19 20//20
f 20//20 19//19 21//21
f 20//20 21//21 22//22
f 22//22 21//21 23//23
f 22//22 23//23 24//24
f 24//24 23//23 25//25
f 24//24 25//25 26//26
f 27//27 26//26 28//28
f 28//28 26//26 25//25
f 27//27 28//28 29//29
f 27//27 29//29 30//30
f 30//30 29//29 31//31
f 30//30 31//31 32//32
f 32//32 31//31 33//33
f 32//32 33//33 34//34
f 34//34 33//33 35//35
f 34//34 35//35 36//36
f 36//36 35//35 37//37
f 36//36 37//37 38//38
f 38//38 37//37 39//39
f 38//38 39//39 40//40
f 40//40 39//39 41//41
f 40//40 41//41 42//42
f 42//42 41//41 43//43
f 42//42 43//43 44//44
f 44//44 43//43 45//45
f 44//44 45//45 46//46
f 46//46 45//45 47//47
f 46//46 47//47 48//48
f 48//48 47//47 49//49
f 48//48 49//49 50//50
f 50//50 49//49 51//51
f 50//50 51//51 52//52
f 52//52 51//51 53//53
f 52//52 53//53 54//54
f 54//54 53//53 55//55
f 54//54 55//55 56//56
f 56//56 55//55 57//57
f 56//56 57//57 58//58
f 58//58 57//57 59//59
f 58//58 59//59 60//60
f 60//60 59//59 61//61
f 60//60 61//61 62//62
f 62//62 61//61 63//63
f 62//62 63//63 64//64
f 64//64 63//63 65//65
f 64//64 65//65 66//66
f 66//66 65//65 67//67
f 66//66 67//67 68//68
f 68//68 67//67 69//69
f 68//68 69//69 70//70
f 70//70 69//69 71//71
f 70//70 71//71 72//72
f 72//72 71//71 73//73
f 72//72 73//73 74//74
f 74//74 73//73 75//75
f 74//74 75//75 76//76
f 77//77 76//76 78//78
f 78//78 76//76 75//75
f 77//77 78//78 79//79
f 77//77 79//79 80//80
f 80//80 79//79 81//81
f 80//80 81//81 82//82
f 82//82 81//81 83//83
f 82//82 83//83 84//84
f 84//84 83//83 85//85
f 84//84 85//85 86//86
f 86//86 85//85 87//87
f 86//86 87//87 88//88
f 88//88 87//87 89//89
f 88//88 89//89 90//90
f 90//90 89//89 91//91
f 90//90 91//91 92//92
f 92//92 91//91 93//93
f 92//92 93//93 94//94
f 94//94 93//93 95//95
f 94//94 95//95 96//96
f 96//96 95//95 97//97
f 96//96 97//97 98//98
f 98//98 97//97 99//99
f 98//98 99//99 100//100
f 100//100 99//99 2//2
f 100//100 2//2 1//1
f 101//101 104//104 112//112
f 117//117 118//118 124//124
f 126//126 127//127 124//124
f 127//127 128//128 124//124
f 124//124 128//128 129//129
f 120//120 130//130 135//135
f 105//105 103//103 139//139
f 138//138 140//140 141//141
f 139//139 142//142 124//124
f 123//123 143//143 145//145
f 125//125 144//144 147//147
f 106//106 148//148 150//150
f 146//146 153//153 124//124
f 121//121 152//152 154//154
f 122//122 155//155 116//116
f 118//118 157//157 124//124
f 119//119 156//156 158//158
f 124//124 159//159 126//126
f 160//160 162//162 136//136
f 134//134 161//161 163//163
f 133//133 164//164 166//166
f 167//167 169//169 171//171
f 176//176 170//170 180//180
f 175//175 182//182 185//185
f 187//187 188//188 105//105
f 111//111 189//189 190//190
f 109//109 191//191 149//149
f 181//181 192//192 178//178
f 173//173 193//193 194//194
f 172//172 195//195 183//183
f 168//168 175//175 105//105
f 110//110 174//174 196//196
f 114//114 197//197 186//186
f 184//184 198//198 177//177
f 179//179 199//199 200//200
f 175//175 201//201 202//202
f 151//151 204//204 105//105
f 108//108 203//203 206//206
f 107//107 205//205 208//208
f 165//165 209//209 136//136
f 132//132 210//210 211//211
f 136//136 212//212 213//213
f 207//207 215//215 113//113
f 105//105 216//216 217//217
f 115//115 218//218 102//102
f 214//214 220//220 137//137
f 131//131 219//219 221//221
f 136//136 222//222 223//223
f 224//224 233//233 235//235
f 236//236 234//234 237//237
f 235//235 242//242 247//247
f 235//235 248//248 224//224
f 231//231 249//249 250//250
f 224//224 251//251 252//252
f 253//253 254//254 258//258
f 261//261 262//262 224//224
f 253//253 258//258 263//263
f 264//264 266//266 270//270
f 271//271 273//273 244//244
f 242//242 274//274 275//275
f 242//242 278//278 280//280
f 260//260 226//226 282//282
f 262//262 283//283 224//224
f 227//227 284//284 286//286
f 228//228 285//285 288//288
f 224//224 258//258 289//289
f 289//289 258//258 290//290
f 266//266 291//291 270//270
f 270//270 291//291 293//293
f 270//270 293//293 242//242
f 239//239 292//292 295//295
f 238//238 294//294 272//272
f 276//276 296//296 241//241
f 245//245 297//297 298//298
f 240//240 299//299 277//277
f 279//279 301//301 246//246
f 243//243 300//300 303//303
f 242//242 302//302 247//247
f 287//287 305//305 232//232
f 229//229 304//304 306//306
f 230//230 307//307 256//256
f 254//254 309//309 258//258
f 259//259 308//308 310//310
f 258//258 311//311 290//290
f 312//312 314//314 255//255
f 257//257 313//313 316//316
f 258//258 315//315 263//263
f 317//317 318//318 270//270
f 267//267 319//319 321//321
f 269//269 320//320 265//265
f 252//252 322//322 224//224
f 224//224 322//322 323//323
f 225//225 324//324 281//281
f 325//325 327//327 270//270
f 268//268 326//326 329//329
f 270//270 328//328 317//317

