# https://github.com/mikedh/trimesh
v 0.12052800 -0.02094300 0.02050000
v 0.12052800 -0.02094300 0.02040000
v 0.12053700 -0.02107200 0.02040000
v 0.12053700 -0.02107200 0.02050000
v 0.12056400 -0.02119600 0.02040000
v 0.12056400 -0.02119600 0.02050000
v 0.12060700 -0.02131500 0.02040000
v 0.12060700 -0.02131500 0.02050000
v 0.12066700 -0.02142700 0.02040000
v 0.12066700 -0.02142700 0.02050000
v 0.12074200 -0.02153100 0.02040000
v 0.12074200 -0.02153100 0.02050000
v 0.12083300 -0.02162400 0.02040000
v 0.12083300 -0.02162400 0.02050000
v 0.12093600 -0.02170400 0.02040000
v 0.12093600 -0.02170400 0.02050000
v 0.12104900 -0.02176800 0.02040000
v 0.12104900 -0.02176800 0.02050000
v 0.12117000 -0.02181600 0.02040000
v 0.12117000 -0.02181600 0.02050000
v 0.12129800 -0.02184600 0.02040000
v 0.12129800 -0.02184600 0.02050000
v 0.12141900 -0.02185700 0.02040000
v 0.12141900 -0.02185700 0.02050000
v 0.12144200 -0.02185700 0.02040000
v 0.12144200 -0.02185700 0.02050000
v 0.12157100 -0.02184800 0.02040000
v 0.12157100 -0.02184800 0.02050000
v 0.12169500 -0.02182200 0.02040000
v 0.12169500 -0.02182200 0.02050000
v 0.12181300 -0.02177800 0.02040000
v 0.12181300 -0.02177800 0.02050000
v 0.12192600 -0.02171900 0.02040000
v 0.12192600 -0.02171900 0.02050000
v 0.12203000 -0.02164300 0.02040000
v 0.12203000 -0.02164300 0.02050000
v 0.12212300 -0.02155300 0.02040000
v 0.12212300 -0.02155300 0.02050000
v 0.12220300 -0.02145000 0.02040000
v 0.12220300 -0.02145000 0.02050000
v 0.12226700 -0.02133700 0.02040000
v 0.12226700 -0.02133700 0.02050000
v 0.12231500 -0.02121500 0.02040000
v 0.12231500 -0.02121500 0.02050000
v 0.12234400 -0.02108800 0.02040000
v 0.12234400 -0.02108800 0.02050000
v 0.12235600 -0.02096600 0.02040000
v 0.12235600 -0.02096600 0.02050000
v 0.12235600 -0.02094300 0.02040000
v 0.12235600 -0.02094300 0.02050000
v 0.12234700 -0.02081500 0.02040000
v 0.12234700 -0.02081500 0.02050000
v 0.12232000 -0.02069100 0.02040000
v 0.12232000 -0.02069100 0.02050000
v 0.12227700 -0.02057100 0.02040000
v 0.12227700 -0.02057100 0.02050000
v 0.12221600 -0.02045800 0.02040000
v 0.12221600 -0.02045800 0.02050000
v 0.12214000 -0.02035300 0.02040000
v 0.12214000 -0.02035300 0.02050000
v 0.12204900 -0.02026000 0.02040000
v 0.12204900 -0.02026000 0.02050000
v 0.12194600 -0.02018100 0.02040000
v 0.12194600 -0.02018100 0.02050000
v 0.12183200 -0.02011700 0.02040000
v 0.12183200 -0.02011700 0.02050000
v 0.12170500 -0.02006800 0.02040000
v 0.12170500 -0.02006800 0.02050000
v 0.12052900 -0.01971500 0.02050000
v 0.12052900 -0.01971500 0.02040000
v 0.12083000 -0.02082700 0.02050000
v 0.12083000 -0.02082700 0.02040000
v 0.12085800 -0.02072400 0.02040000
v 0.12085800 -0.02072400 0.02050000
v 0.12090300 -0.02063000 0.02040000
v 0.12090300 -0.02063000 0.02050000
v 0.12096300 -0.02054500 0.02040000
v 0.12096300 -0.02054500 0.02050000
v 0.12103700 -0.02047000 0.02040000
v 0.12103700 -0.02047000 0.02050000
v 0.12112400 -0.02040700 0.02040000
v 0.12112400 -0.02040700 0.02050000
v 0.12122000 -0.02036000 0.02040000
v 0.12122000 -0.02036000 0.02050000
v 0.12132400 -0.02033100 0.02040000
v 0.12132400 -0.02033100 0.02050000
v 0.12143200 -0.02032000 0.02040000
v 0.12143200 -0.02032000 0.02050000
v 0.12154000 -0.02032800 0.02040000
v 0.12154000 -0.02032800 0.02050000
v 0.12161400 -0.02034400 0.02040000
v 0.12161400 -0.02034400 0.02050000
v 0.12171300 -0.02038100 0.02040000
v 0.12171300 -0.02038100 0.02050000
v 0.12180200 -0.02043400 0.02040000
v 0.12180200 -0.02043400 0.02050000
v 0.12188200 -0.02050200 0.02040000
v 0.12188200 -0.02050200 0.02050000
v 0.12195100 -0.02058200 0.02040000
v 0.12195100 -0.02058200 0.02050000
v 0.12197800 -0.02062500 0.02040000
v 0.12197800 -0.02062500 0.02050000
v 0.12202500 -0.02072200 0.02040000
v 0.12202500 -0.02072200 0.02050000
v 0.12205500 -0.02082500 0.02040000
v 0.12205500 -0.02082500 0.02050000
v 0.12206600 -0.02093300 0.02040000
v 0.12206600 -0.02093300 0.02050000
v 0.12205900 -0.02103300 0.02040000
v 0.12205900 -0.02103300 0.02050000
v 0.12205500 -0.02106000 0.02040000
v 0.12205500 -0.02106000 0.02050000
v 0.12202600 -0.02116300 0.02040000
v 0.12202600 -0.02116300 0.02050000
v 0.12198200 -0.02125700 0.02040000
v 0.12198200 -0.02125700 0.02050000
v 0.12192200 -0.02134200 0.02040000
v 0.12192200 -0.02134200 0.02050000
v 0.12184800 -0.02141700 0.02040000
v 0.12184800 -0.02141700 0.02050000
v 0.12176100 -0.02147900 0.02040000
v 0.12176100 -0.02147900 0.02050000
v 0.12166400 -0.02152600 0.02040000
v 0.12166400 -0.02152600 0.02050000
v 0.12156000 -0.02155600 0.02040000
v 0.12156000 -0.02155600 0.02050000
v 0.12145300 -0.02156700 0.02040000
v 0.12145300 -0.02156700 0.02050000
v 0.12134400 -0.02155900 0.02040000
v 0.12134400 -0.02155900 0.02050000
v 0.12127100 -0.02154300 0.02040000
v 0.12127100 -0.02154300 0.02050000
v 0.12117200 -0.02150600 0.02040000
v 0.12117200 -0.02150600 0.02050000
v 0.12108300 -0.02145300 0.02040000
v 0.12108300 -0.02145300 0.02050000
v 0.12100300 -0.02138600 0.02040000
v 0.12100300 -0.02138600 0.02050000
v 0.12093400 -0.02130500 0.02040000
v 0.12093400 -0.02130500 0.02050000
v 0.12090500 -0.02126000 0.02040000
v 0.12090500 -0.02126000 0.02050000
v 0.12085900 -0.02116300 0.02040000
v 0.12085900 -0.02116300 0.02050000
v 0.12082900 -0.02105900 0.02040000
v 0.12082900 -0.02105900 0.02050000
v 0.12081900 -0.02095200 0.02040000
v 0.12081900 -0.02095200 0.02050000
v 0.12082500 -0.02085200 0.02040000
v 0.12082500 -0.02085200 0.02050000
v 0.12052900 -0.01971500 0.02050000
v 0.12052900 -0.01971500 0.02040000
v 0.12134400 -0.02155900 0.02050000
v 0.12134400 -0.02155900 0.02050000
v 0.12134400 -0.02155900 0.02050000
v 0.12134400 -0.02155900 0.02050000
v 0.12141900 -0.02185700 0.02050000
v 0.12141900 -0.02185700 0.02050000
v 0.12145300 -0.02156700 0.02050000
v 0.12145300 -0.02156700 0.02050000
v 0.12141900 -0.02185700 0.02050000
v 0.12144200 -0.02185700 0.02050000
v 0.12144200 -0.02185700 0.02050000
v 0.12156000 -0.02155600 0.02050000
v 0.12156000 -0.02155600 0.02050000
v 0.12143200 -0.02032000 0.02050000
v 0.12143200 -0.02032000 0.02050000
v 0.12170500 -0.02006800 0.02050000
v 0.12170500 -0.02006800 0.02050000
v 0.12132400 -0.02033100 0.02050000
v 0.12132400 -0.02033100 0.02050000
v 0.12052900 -0.01971500 0.02050000
v 0.12052900 -0.01971500 0.02050000
v 0.12052900 -0.01971500 0.02050000
v 0.12052900 -0.01971500 0.02050000
v 0.12052900 -0.01971500 0.02050000
v 0.12052900 -0.01971500 0.02050000
v 0.12052900 -0.01971500 0.02050000
v 0.12122000 -0.02036000 0.02050000
v 0.12112400 -0.02040700 0.02050000
v 0.12112400 -0.02040700 0.02050000
v 0.12090300 -0.02063000 0.02050000
v 0.12090300 -0.02063000 0.02050000
v 0.12096300 -0.02054500 0.02050000
v 0.12096300 -0.02054500 0.02050000
v 0.12103700 -0.02047000 0.02050000
v 0.12103700 -0.02047000 0.02050000
v 0.12082900 -0.02105900 0.02050000
v 0.12082900 -0.02105900 0.02050000
v 0.12056400 -0.02119600 0.02050000
v 0.12056400 -0.02119600 0.02050000
v 0.12085900 -0.02116300 0.02050000
v 0.12085900 -0.02116300 0.02050000
v 0.12056400 -0.02119600 0.02050000
v 0.12060700 -0.02131500 0.02050000
v 0.12090500 -0.02126000 0.02050000
v 0.12090500 -0.02126000 0.02050000
v 0.12060700 -0.02131500 0.02050000
v 0.12066700 -0.02142700 0.02050000
v 0.12066700 -0.02142700 0.02050000
v 0.12093400 -0.02130500 0.02050000
v 0.12093400 -0.02130500 0.02050000
v 0.12093400 -0.02130500 0.02050000
v 0.12066700 -0.02142700 0.02050000
v 0.12074200 -0.02153100 0.02050000
v 0.12074200 -0.02153100 0.02050000
v 0.12100300 -0.02138600 0.02050000
v 0.12074200 -0.02153100 0.02050000
v 0.12083300 -0.02162400 0.02050000
v 0.12108300 -0.02145300 0.02050000
v 0.12108300 -0.02145300 0.02050000
v 0.12083300 -0.02162400 0.02050000
v 0.12093600 -0.02170400 0.02050000
v 0.12093600 -0.02170400 0.02050000
v 0.12117200 -0.02150600 0.02050000
v 0.12117200 -0.02150600 0.02050000
v 0.12117200 -0.02150600 0.02050000
v 0.12093600 -0.02170400 0.02050000
v 0.12104900 -0.02176800 0.02050000
v 0.12104900 -0.02176800 0.02050000
v 0.12127100 -0.02154300 0.02050000
v 0.12127100 -0.02154300 0.02050000
v 0.12127100 -0.02154300 0.02050000
v 0.12104900 -0.02176800 0.02050000
v 0.12117000 -0.02181600 0.02050000
v 0.12117000 -0.02181600 0.02050000
v 0.12117000 -0.02181600 0.02050000
v 0.12129800 -0.02184600 0.02050000
v 0.12129800 -0.02184600 0.02050000
v 0.12081900 -0.02095200 0.02050000
v 0.12052800 -0.02094300 0.02050000
v 0.12052800 -0.02094300 0.02050000
v 0.12052800 -0.02094300 0.02050000
v 0.12053700 -0.02107200 0.02050000
v 0.12144200 -0.02185700 0.02050000
v 0.12157100 -0.02184800 0.02050000
v 0.12157100 -0.02184800 0.02050000
v 0.12169500 -0.02182200 0.02050000
v 0.12169500 -0.02182200 0.02050000
v 0.12166400 -0.02152600 0.02050000
v 0.12166400 -0.02152600 0.02050000
v 0.12166400 -0.02152600 0.02050000
v 0.12169500 -0.02182200 0.02050000
v 0.12181300 -0.02177800 0.02050000
v 0.12181300 -0.02177800 0.02050000
v 0.12176100 -0.02147900 0.02050000
v 0.12176100 -0.02147900 0.02050000
v 0.12176100 -0.02147900 0.02050000
v 0.12181300 -0.02177800 0.02050000
v 0.12192600 -0.02171900 0.02050000
v 0.12192600 -0.02171900 0.02050000
v 0.12184800 -0.02141700 0.02050000
v 0.12184800 -0.02141700 0.02050000
v 0.12192600 -0.02171900 0.02050000
v 0.12203000 -0.02164300 0.02050000
v 0.12203000 -0.02164300 0.02050000
v 0.12192200 -0.02134200 0.02050000
v 0.12192200 -0.02134200 0.02050000
v 0.12203000 -0.02164300 0.02050000
v 0.12212300 -0.02155300 0.02050000
v 0.12212300 -0.02155300 0.02050000
v 0.12198200 -0.02125700 0.02050000
v 0.12198200 -0.02125700 0.02050000
v 0.12198200 -0.02125700 0.02050000
v 0.12198200 -0.02125700 0.02050000
v 0.12082500 -0.02085200 0.02050000
v 0.12082500 -0.02085200 0.02050000
v 0.12083000 -0.02082700 0.02050000
v 0.12083000 -0.02082700 0.02050000
v 0.12083000 -0.02082700 0.02050000
v 0.12085800 -0.02072400 0.02050000
v 0.12085800 -0.02072400 0.02050000
v 0.12154000 -0.02032800 0.02050000
v 0.12154000 -0.02032800 0.02050000
v 0.12170500 -0.02006800 0.02050000
v 0.12170500 -0.02006800 0.02050000
v 0.12170500 -0.02006800 0.02050000
v 0.12161400 -0.02034400 0.02050000
v 0.12161400 -0.02034400 0.02050000
v 0.12183200 -0.02011700 0.02050000
v 0.12183200 -0.02011700 0.02050000
v 0.12171300 -0.02038100 0.02050000
v 0.12171300 -0.02038100 0.02050000
v 0.12171300 -0.02038100 0.02050000
v 0.12194600 -0.02018100 0.02050000
v 0.12194600 -0.02018100 0.02050000
v 0.12194600 -0.02018100 0.02050000
v 0.12180200 -0.02043400 0.02050000
v 0.12180200 -0.02043400 0.02050000
v 0.12204900 -0.02026000 0.02050000
v 0.12204900 -0.02026000 0.02050000
v 0.12188200 -0.02050200 0.02050000
v 0.12188200 -0.02050200 0.02050000
v 0.12188200 -0.02050200 0.02050000
v 0.12214000 -0.02035300 0.02050000
v 0.12214000 -0.02035300 0.02050000
v 0.12214000 -0.02035300 0.02050000
v 0.12195100 -0.02058200 0.02050000
v 0.12195100 -0.02058200 0.02050000
v 0.12221600 -0.02045800 0.02050000
v 0.12197800 -0.02062500 0.02050000
v 0.12197800 -0.02062500 0.02050000
v 0.12227700 -0.02057100 0.02050000
v 0.12227700 -0.02057100 0.02050000
v 0.12227700 -0.02057100 0.02050000
v 0.12202500 -0.02072200 0.02050000
v 0.12202500 -0.02072200 0.02050000
v 0.12202500 -0.02072200 0.02050000
v 0.12232000 -0.02069100 0.02050000
v 0.12232000 -0.02069100 0.02050000
v 0.12232000 -0.02069100 0.02050000
v 0.12205500 -0.02082500 0.02050000
v 0.12205500 -0.02082500 0.02050000
v 0.12212300 -0.02155300 0.02050000
v 0.12220300 -0.02145000 0.02050000
v 0.12220300 -0.02145000 0.02050000
v 0.12226700 -0.02133700 0.02050000
v 0.12226700 -0.02133700 0.02050000
v 0.12202600 -0.02116300 0.02050000
v 0.12202600 -0.02116300 0.02050000
v 0.12226700 -0.02133700 0.02050000
v 0.12231500 -0.02121500 0.02050000
v 0.12205500 -0.02106000 0.02050000
v 0.12205500 -0.02106000 0.02050000
v 0.12231500 -0.02121500 0.02050000
v 0.12234400 -0.02108800 0.02050000
v 0.12234400 -0.02108800 0.02050000
v 0.12205900 -0.02103300 0.02050000
v 0.12205900 -0.02103300 0.02050000
v 0.12205900 -0.02103300 0.02050000
v 0.12234400 -0.02108800 0.02050000
v 0.12235600 -0.02096600 0.02050000
v 0.12235600 -0.02096600 0.02050000
v 0.12206600 -0.02093300 0.02050000
v 0.12206600 -0.02093300 0.02050000
v 0.12206600 -0.02093300 0.02050000
v 0.12235600 -0.02096600 0.02050000
v 0.12235600 -0.02094300 0.02050000
v 0.12235600 -0.02094300 0.02050000
v 0.12235600 -0.02094300 0.02050000
v 0.12234700 -0.02081500 0.02050000
v 0.12161400 -0.02034400 0.02040000
v 0.12154000 -0.02032800 0.02040000
v 0.12170500 -0.02006800 0.02040000
v 0.12170500 -0.02006800 0.02040000
v 0.12170500 -0.02006800 0.02040000
v 0.12143200 -0.02032000 0.02040000
v 0.12143200 -0.02032000 0.02040000
v 0.12143200 -0.02032000 0.02040000
v 0.12052900 -0.01971500 0.02040000
v 0.12052900 -0.01971500 0.02040000
v 0.12132400 -0.02033100 0.02040000
v 0.12132400 -0.02033100 0.02040000
v 0.12052900 -0.01971500 0.02040000
v 0.12052900 -0.01971500 0.02040000
v 0.12052900 -0.01971500 0.02040000
v 0.12052900 -0.01971500 0.02040000
v 0.12052900 -0.01971500 0.02040000
v 0.12052900 -0.01971500 0.02040000
v 0.12122000 -0.02036000 0.02040000
v 0.12122000 -0.02036000 0.02040000
v 0.12166400 -0.02152600 0.02040000
v 0.12166400 -0.02152600 0.02040000
v 0.12166400 -0.02152600 0.02040000
v 0.12169500 -0.02182200 0.02040000
v 0.12169500 -0.02182200 0.02040000
v 0.12169500 -0.02182200 0.02040000
v 0.12156000 -0.02155600 0.02040000
v 0.12156000 -0.02155600 0.02040000
v 0.12157100 -0.02184800 0.02040000
v 0.12157100 -0.02184800 0.02040000
v 0.12145300 -0.02156700 0.02040000
v 0.12145300 -0.02156700 0.02040000
v 0.12221600 -0.02045800 0.02040000
v 0.12221600 -0.02045800 0.02040000
v 0.12221600 -0.02045800 0.02040000
v 0.12221600 -0.02045800 0.02040000
v 0.12227700 -0.02057100 0.02040000
v 0.12227700 -0.02057100 0.02040000
v 0.12202500 -0.02072200 0.02040000
v 0.12202500 -0.02072200 0.02040000
v 0.12202500 -0.02072200 0.02040000
v 0.12202500 -0.02072200 0.02040000
v 0.12232000 -0.02069100 0.02040000
v 0.12232000 -0.02069100 0.02040000
v 0.12232000 -0.02069100 0.02040000
v 0.12205500 -0.02082500 0.02040000
v 0.12205500 -0.02082500 0.02040000
v 0.12234700 -0.02081500 0.02040000
v 0.12234700 -0.02081500 0.02040000
v 0.12206600 -0.02093300 0.02040000
v 0.12206600 -0.02093300 0.02040000
v 0.12206600 -0.02093300 0.02040000
v 0.12144200 -0.02185700 0.02040000
v 0.12144200 -0.02185700 0.02040000
v 0.12141900 -0.02185700 0.02040000
v 0.12141900 -0.02185700 0.02040000
v 0.12141900 -0.02185700 0.02040000
v 0.12134400 -0.02155900 0.02040000
v 0.12134400 -0.02155900 0.02040000
v 0.12129800 -0.02184600 0.02040000
v 0.12129800 -0.02184600 0.02040000
v 0.12129800 -0.02184600 0.02040000
v 0.12127100 -0.02154300 0.02040000
v 0.12127100 -0.02154300 0.02040000
v 0.12117000 -0.02181600 0.02040000
v 0.12117000 -0.02181600 0.02040000
v 0.12117000 -0.02181600 0.02040000
v 0.12117200 -0.02150600 0.02040000
v 0.12117200 -0.02150600 0.02040000
v 0.12117200 -0.02150600 0.02040000
v 0.12104900 -0.02176800 0.02040000
v 0.12104900 -0.02176800 0.02040000
v 0.12104900 -0.02176800 0.02040000
v 0.12108300 -0.02145300 0.02040000
v 0.12108300 -0.02145300 0.02040000
v 0.12093600 -0.02170400 0.02040000
v 0.12100300 -0.02138600 0.02040000
v 0.12100300 -0.02138600 0.02040000
v 0.12171300 -0.02038100 0.02040000
v 0.12171300 -0.02038100 0.02040000
v 0.12183200 -0.02011700 0.02040000
v 0.12183200 -0.02011700 0.02040000
v 0.12183200 -0.02011700 0.02040000
v 0.12180200 -0.02043400 0.02040000
v 0.12180200 -0.02043400 0.02040000
v 0.12194600 -0.02018100 0.02040000
v 0.12194600 -0.02018100 0.02040000
v 0.12188200 -0.02050200 0.02040000
v 0.12112400 -0.02040700 0.02040000
v 0.12112400 -0.02040700 0.02040000
v 0.12103700 -0.02047000 0.02040000
v 0.12103700 -0.02047000 0.02040000
v 0.12096300 -0.02054500 0.02040000
v 0.12085900 -0.02116300 0.02040000
v 0.12085900 -0.02116300 0.02040000
v 0.12090500 -0.02126000 0.02040000
v 0.12090500 -0.02126000 0.02040000
v 0.12066700 -0.02142700 0.02040000
v 0.12066700 -0.02142700 0.02040000
v 0.12093400 -0.02130500 0.02040000
v 0.12093400 -0.02130500 0.02040000
v 0.12093400 -0.02130500 0.02040000
v 0.12074200 -0.02153100 0.02040000
v 0.12074200 -0.02153100 0.02040000
v 0.12083300 -0.02162400 0.02040000
v 0.12197800 -0.02062500 0.02040000
v 0.12197800 -0.02062500 0.02040000
v 0.12195100 -0.02058200 0.02040000
v 0.12195100 -0.02058200 0.02040000
v 0.12214000 -0.02035300 0.02040000
v 0.12204900 -0.02026000 0.02040000
v 0.12234400 -0.02108800 0.02040000
v 0.12234400 -0.02108800 0.02040000
v 0.12234400 -0.02108800 0.02040000
v 0.12231500 -0.02121500 0.02040000
v 0.12231500 -0.02121500 0.02040000
v 0.12202600 -0.02116300 0.02040000
v 0.12202600 -0.02116300 0.02040000
v 0.12202600 -0.02116300 0.02040000
v 0.12202600 -0.02116300 0.02040000
v 0.12226700 -0.02133700 0.02040000
v 0.12226700 -0.02133700 0.02040000
v 0.12198200 -0.02125700 0.02040000
v 0.12198200 -0.02125700 0.02040000
v 0.12220300 -0.02145000 0.02040000
v 0.12220300 -0.02145000 0.02040000
v 0.12220300 -0.02145000 0.02040000
v 0.12192200 -0.02134200 0.02040000
v 0.12192200 -0.02134200 0.02040000
v 0.12192200 -0.02134200 0.02040000
v 0.12212300 -0.02155300 0.02040000
v 0.12212300 -0.02155300 0.02040000
v 0.12184800 -0.02141700 0.02040000
v 0.12203000 -0.02164300 0.02040000
v 0.12203000 -0.02164300 0.02040000
v 0.12176100 -0.02147900 0.02040000
v 0.12176100 -0.02147900 0.02040000
v 0.12192600 -0.02171900 0.02040000
v 0.12192600 -0.02171900 0.02040000
v 0.12192600 -0.02171900 0.02040000
v 0.12181300 -0.02177800 0.02040000
v 0.12181300 -0.02177800 0.02040000
v 0.12090300 -0.02063000 0.02040000
v 0.12090300 -0.02063000 0.02040000
v 0.12085800 -0.02072400 0.02040000
v 0.12085800 -0.02072400 0.02040000
v 0.12085800 -0.02072400 0.02040000
v 0.12052800 -0.02094300 0.02040000
v 0.12052800 -0.02094300 0.02040000
v 0.12052800 -0.02094300 0.02040000
v 0.12083000 -0.02082700 0.02040000
v 0.12083000 -0.02082700 0.02040000
v 0.12060700 -0.02131500 0.02040000
v 0.12060700 -0.02131500 0.02040000
v 0.12056400 -0.02119600 0.02040000
v 0.12056400 -0.02119600 0.02040000
v 0.12082900 -0.02105900 0.02040000
v 0.12082900 -0.02105900 0.02040000
v 0.12053700 -0.02107200 0.02040000
v 0.12053700 -0.02107200 0.02040000
v 0.12081900 -0.02095200 0.02040000
v 0.12081900 -0.02095200 0.02040000
v 0.12082500 -0.02085200 0.02040000
v 0.12205500 -0.02106000 0.02040000
v 0.12205500 -0.02106000 0.02040000
v 0.12205900 -0.02103300 0.02040000
v 0.12235600 -0.02096600 0.02040000
v 0.12235600 -0.02096600 0.02040000
v 0.12235600 -0.02094300 0.02040000
v 0.12235600 -0.02094300 0.02040000
vn -0.99891800 -0.04651600 0.00000400
vn -0.99973000 -0.02322800 0.00000400
vn -0.99322700 -0.11618800 0.00001100
vn -0.98672800 -0.16238300 0.00000100
vn -0.96735800 -0.25341600 0.00000000
vn -0.95451800 -0.29815500 0.00000000
vn -0.92270800 -0.38550000 0.00001100
vn -0.90376000 -0.42804000 0.00000000
vn -0.86005700 -0.51019800 -0.00000900
vn -0.83532000 -0.54976400 0.00000000
vn -0.78037500 -0.62531200 0.00000000
vn -0.75012800 -0.66129200 0.00000000
vn -0.68470900 -0.72881600 0.00000000
vn -0.64952000 -0.76034400 0.00000000
vn -0.57477300 -0.81831300 0.00000900
vn -0.53523700 -0.84470200 0.00000000
vn -0.45240300 -0.89181400 0.00000000
vn -0.40920200 -0.91244400 0.00000000
vn -0.32002800 -0.94740800 0.00000000
vn -0.27411300 -0.96169800 0.00000100
vn -0.18242100 -0.98322100 0.00000000
vn -0.13667100 -0.99061600 0.00000000
vn -0.06464000 -0.99790900 0.00000000
vn -0.03862700 -0.99925400 0.00000000
vn 0.01497200 -0.99988800 0.00000500
vn 0.04239500 -0.99910100 -0.00000500
vn 0.11621800 -0.99322400 0.00000800
vn 0.16241100 -0.98672300 0.00000000
vn 0.25341200 -0.96735800 0.00000000
vn 0.29814700 -0.95452000 0.00000100
vn 0.38548700 -0.92271300 0.00000000
vn 0.42802500 -0.90376700 0.00000800
vn 0.51019100 -0.86006100 0.00000000
vn 0.54977000 -0.83531600 0.00000000
vn 0.62531600 -0.78037200 0.00000000
vn 0.66127300 -0.75014500 0.00000000
vn 0.72884500 -0.68467900 0.00000000
vn 0.76037600 -0.64948300 0.00000000
vn 0.81834400 -0.57472900 0.00000900
vn 0.84470900 -0.53522600 0.00000000
vn 0.89180800 -0.45241400 0.00000800
vn 0.91241800 -0.40926000 0.00000000
vn 0.94740900 -0.32002500 0.00000900
vn 0.96170200 -0.27409800 -0.00001100
vn 0.98323300 -0.18235600 0.00000000
vn 0.99060800 -0.13673000 -0.00000800
vn 0.99791300 -0.06457900 0.00000000
vn 0.99926300 -0.03839800 -0.00000500
vn 0.99988300 0.01531700 0.00000000
vn 0.99908600 0.04275600 -0.00000700
vn 0.99317600 0.11662900 0.00000900
vn 0.98662800 0.16298600 0.00001100
vn 0.96716900 0.25413200 0.00000000
vn 0.95428400 0.29890100 0.00000000
vn 0.92230400 0.38646600 -0.00000100
vn 0.90325000 0.42911400 0.00000000
vn 0.85919700 0.51164500 0.00001000
vn 0.83418000 0.55149200 0.00000000
vn 0.77853000 0.62760700 0.00000000
vn 0.74796700 0.66373600 0.00000000
vn 0.68177300 0.73156400 0.00000000
vn 0.64617600 0.76318900 0.00000000
vn 0.57065600 0.82118900 0.00001100
vn 0.53079000 0.84750300 -0.00001500
vn 0.44669900 0.89468400 0.00000900
vn 0.40255400 0.91539600 0.00000100
vn 0.33443200 0.94242000 0.00000000
vn 0.31118800 0.95034800 0.00000000
vn 0.28773400 0.95771100 0.00000000
vn 0.28773300 0.95771100 0.00000000
vn 0.97176600 -0.23594500 0.00000000
vn 0.97940900 -0.20188800 0.00000000
vn 0.94625400 -0.32342400 0.00000000
vn 0.92651000 -0.37626900 0.00000000
vn 0.87848800 -0.47776400 0.00000000
vn 0.85028300 -0.52632500 0.00000000
vn 0.78605700 -0.61815400 0.00000000
vn 0.75008100 -0.66134600 0.00000000
vn 0.67095500 -0.74149900 0.00000000
vn 0.62784600 -0.77833700 0.00000000
vn 0.53545300 -0.84456500 0.00000000
vn 0.48623000 -0.87383100 0.00000000
vn 0.38300300 -0.92374700 0.00000000
vn 0.32904800 -0.94431300 0.00000000
vn 0.21784400 -0.97598400 0.00000000
vn 0.16069500 -0.98700400 0.00000000
vn 0.04501200 -0.99898600 0.00000000
vn -0.01334100 -0.99991100 0.00000000
vn -0.12023300 -0.99274600 0.00000000
vn -0.16866900 -0.98567300 0.00000000
vn -0.26352000 -0.96465400 0.00000000
vn -0.30973600 -0.95082300 0.00000000
vn -0.40719300 -0.91334200 0.00000000
vn -0.45808400 -0.88890900 0.00000000
vn -0.55485600 -0.83194600 0.00000000
vn -0.60068200 -0.79948800 0.00000000
vn -0.68651000 -0.72712000 0.00000000
vn -0.72638800 -0.68728500 0.00000000
vn -0.79007300 -0.61301300 0.00000000
vn -0.81493300 -0.57955500 0.00000000
vn -0.86054700 -0.50937100 0.00000000
vn -0.88119500 -0.47275300 0.00000000
vn -0.92385200 -0.38275000 0.00000000
vn -0.94439400 -0.32881700 0.00000000
vn -0.97604300 -0.21757800 0.00000000
vn -0.98706200 -0.16033700 0.00000000
vn -0.99889900 -0.04691800 0.00000000
vn -0.99995800 0.00919700 0.00000000
vn -0.99509300 0.09894000 0.00000000
vn -0.99116000 0.13267400 0.00000000
vn -0.97959700 0.20097200 0.00000000
vn -0.97188100 0.23547300 0.00000000
vn -0.94623000 0.32349600 0.00000000
vn -0.92645400 0.37640700 0.00000000
vn -0.87842500 0.47788000 0.00000000
vn -0.85020800 0.52644700 0.00000000
vn -0.78598600 0.61824400 0.00000000
vn -0.74997600 0.66146500 0.00000000
vn -0.67086100 0.74158400 0.00000000
vn -0.62770600 0.77845000 0.00000000
vn -0.53535300 0.84462800 0.00000000
vn -0.48613000 0.87388600 0.00000000
vn -0.38288300 0.92379700 0.00000000
vn -0.32902400 0.94432200 0.00000000
vn -0.21778200 0.97599800 0.00000000
vn -0.16055000 0.98702800 0.00000000
vn -0.04481900 0.99899500 0.00000000
vn 0.01355200 0.99990800 0.00000000
vn 0.12029300 0.99273800 0.00000000
vn 0.16854400 0.98569400 0.00000000
vn 0.26296000 0.96480700 0.00000000
vn 0.30894800 0.95107900 0.00000000
vn 0.40617700 0.91379400 0.00000000
vn 0.45707300 0.88942900 0.00000000
vn 0.55384200 0.83262200 0.00000000
vn 0.59976000 0.80018000 0.00000000
vn 0.68565000 0.72793100 0.00000000
vn 0.72555000 0.68817000 0.00000000
vn 0.78970400 0.61348800 0.00000000
vn 0.81497700 0.57949300 0.00000000
vn 0.86123500 0.50820700 0.00000000
vn 0.88216800 0.47093400 0.00000000
vn 0.92489900 0.38021200 0.00000000
vn 0.94530400 0.32619000 0.00000000
vn 0.97664000 0.21488100 0.00000000
vn 0.98750800 0.15756800 0.00000000
vn 0.99902900 0.04406700 0.00000000
vn 0.99992700 -0.01211500 0.00000000
vn 0.99484400 -0.10141700 0.00000000
vn 0.99090000 -0.13460200 0.00000000
vn -1.00000000 0.00018200 0.00000000
vn -1.00000000 0.00018200 0.00000000
vn -0.00001900 0.00000200 1.00000000
vn 0.00000000 0.00000000 1.00000000
vn 0.00001300 -0.00000100 1.00000000
vn 0.00004200 -0.00000400 1.00000000
vn 0.00000000 0.00000000 1.00000000
vn 0.00001300 -0.00000100 1.00000000
vn -0.00002200 0.00000200 1.00000000
vn 0.00000000 0.00000000 1.00000000
vn -0.00002200 0.00000200 1.00000000
vn -0.00002200 0.00000200 1.00000000
vn 0.00000000 0.00000000 1.00000000
vn 0.00001600 -0.00000200 1.00000000
vn 0.00000000 0.00000000 1.00000000
vn 0.00000000 0.00000000 1.00000000
vn -0.00003100 0.00000300 1.00000000
vn 0.00000000 0.00000000 1.00000000
vn 0.00000200 -0.00000000 1.00000000
vn 0.00000200 -0.00000000 1.00000000
vn 0.00000000 0.00000000 1.00000000
vn 0.00000000 0.00000000 1.00000000
vn -0.00001000 0.00000100 1.00000000
vn -0.00000700 0.00000100 1.00000000
vn 0.00000600 -0.00000100 1.00000000
vn -0.00000700 0.00000100 1.00000000
vn 0.00000200 -0.00000000 1.00000000
vn -0.00000200 0.00000000 1.00000000
vn 0.00000000 0.00000000 1.00000000
vn -0.00000200 0.00000000 1.00000000
vn 0.00000000 0.00000000 1.00000000
vn 0.00000000 0.00000000 1.00000000
vn 0.00000600 -0.00000100 1.00000000
vn -0.00000700 0.00000100 1.00000000
vn 0.00000000 0.00000000 1.00000000
vn -0.00000200 0.00000000 1.00000000
vn -0.00000700 0.00000100 1.00000000
vn 0.00000000 0.00000000 1.00000000
vn -0.00000700 0.00000100 1.00000000
vn -0.00000700 0.00000100 1.00000000
vn 0.00000000 0.00000000 1.00000000
vn 0.00000000 0.00000000 1.00000000
vn -0.00000700 0.00000100 1.00000000
vn 0.00000000 0.00000000 1.00000000
vn 0.00000000 0.00000000 1.00000000
vn 0.00002900 -0.00000300 1.00000000
vn 0.00000000 0.00000000 1.00000000
vn 0.00000000 0.00000000 1.00000000
vn 0.00002900 -0.00000300 1.00000000
vn 0.00000000 0.00000000 1.00000000
vn 0.00000000 0.00000000 1.00000000
vn -0.00001200 0.00000100 1.00000000
vn 0.00002900 -0.00000300 1.00000000
vn -0.00001200 0.00000100 1.00000000
vn -0.00001200 0.00000100 1.00000000
vn 0.00000000 0.00000000 1.00000000
vn 0.00000000 0.00000000 1.00000000
vn 0.00000000 0.00000000 1.00000000
vn 0.00000000 0.00000000 1.00000000
vn 0.00003000 -0.00000300 1.00000000
vn 0.00000000 0.00000000 1.00000000
vn 0.00000000 0.00000000 1.00000000
vn 0.00003000 -0.00000300 1.00000000
vn 0.00000000 0.00000000 1.00000000
vn 0.00000000 0.00000000 1.00000000
vn -0.00000600 0.00000100 1.00000000
vn 0.00003000 -0.00000300 1.00000000
vn -0.00000600 0.00000100 1.00000000
vn -0.00000600 0.00000100 1.00000000
vn 0.00000000 0.00000000 1.00000000
vn 0.00000000 0.00000000 1.00000000
vn -0.00000600 0.00000100 1.00000000
vn 0.00004200 -0.00000400 1.00000000
vn -0.00000600 0.00000100 1.00000000
vn 0.00004200 -0.00000400 1.00000000
vn -0.00000600 0.00000100 1.00000000
vn -0.00001900 0.00000200 1.00000000
vn -0.00001900 0.00000200 1.00000000
vn 0.00001300 -0.00000100 1.00000000
vn 0.00000000 0.00000000 1.00000000
vn -0.00001000 0.00000100 1.00000000
vn -0.00003200 0.00000300 1.00000000
vn 0.00000000 0.00000000 1.00000000
vn 0.00000000 0.00000000 1.00000000
vn 0.00000000 0.00000000 1.00000000
vn 0.00001600 -0.00000200 1.00000000
vn 0.00000000 0.00000000 1.00000000
vn 0.00001600 -0.00000200 1.00000000
vn 0.00000000 0.00000000 1.00000000
vn -0.00002900 0.00000300 1.00000000
vn 0.00000600 -0.00000100 1.00000000
vn 0.00000000 0.00000000 1.00000000
vn 0.00000600 -0.00000100 1.00000000
vn 0.00000600 -0.00000100 1.00000000
vn -0.00002900 0.00000300 1.00000000
vn -0.00002900 0.00000300 1.00000000
vn 0.00001800 -0.00000200 1.00000000
vn 0.00000000 0.00000000 1.00000000
vn 0.00001800 -0.00000200 1.00000000
vn 0.00001800 -0.00000200 1.00000000
vn 0.00000000 0.00000000 1.00000000
vn 0.00000000 0.00000000 1.00000000
vn -0.00000600 0.00000100 1.00000000
vn -0.00000600 0.00000100 1.00000000
vn 0.00000000 0.00000000 1.00000000
vn -0.00000600 0.00000100 1.00000000
vn 0.00000000 0.00000000 1.00000000
vn 0.00001200 -0.00000100 1.00000000
vn 0.00001200 -0.00000100 1.00000000
vn 0.00001200 -0.00000100 1.00000000
vn 0.00000000 0.00000000 1.00000000
vn 0.00000000 0.00000000 1.00000000
vn 0.00001500 -0.00000200 1.00000000
vn 0.00001200 -0.00000100 1.00000000
vn -0.00001200 0.00000100 1.00000000
vn 0.00000000 0.00000000 1.00000000
vn -0.00003200 0.00000300 1.00000000
vn -0.00000700 0.00000100 1.00000000
vn -0.00003200 0.00000300 1.00000000
vn -0.00001000 0.00000100 1.00000000
vn -0.00000700 0.00000100 1.00000000
vn 0.00000600 -0.00000100 1.00000000
vn 0.00001700 -0.00000200 1.00000000
vn -0.00003100 0.00000300 1.00000000
vn 0.00001700 -0.00000200 1.00000000
vn 0.00000000 0.00000000 1.00000000
vn -0.00003100 0.00000300 1.00000000
vn 0.00001700 -0.00000200 1.00000000
vn 0.00000000 0.00000000 1.00000000
vn 0.00000000 0.00000000 1.00000000
vn -0.00002400 0.00000200 1.00000000
vn 0.00001100 -0.00000100 1.00000000
vn 0.00000000 0.00000000 1.00000000
vn -0.00002400 0.00000200 1.00000000
vn 0.00001100 -0.00000100 1.00000000
vn -0.00002400 0.00000200 1.00000000
vn 0.00000000 0.00000000 1.00000000
vn 0.00001100 -0.00000100 1.00000000
vn 0.00000000 0.00000000 1.00000000
vn 0.00000000 0.00000000 1.00000000
vn 0.00001200 -0.00000100 1.00000000
vn 0.00001200 -0.00000100 1.00000000
vn 0.00000000 0.00000000 1.00000000
vn -0.00000700 0.00000100 1.00000000
vn -0.00000700 0.00000100 1.00000000
vn 0.00000000 0.00000000 1.00000000
vn 0.00001200 -0.00000100 1.00000000
vn -0.00000700 0.00000100 1.00000000
vn 0.00000000 0.00000000 1.00000000
vn 0.00000000 0.00000000 1.00000000
vn 0.00000000 0.00000000 1.00000000
vn -0.00000700 0.00000100 1.00000000
vn -0.00000700 0.00000100 1.00000000
vn 0.00000000 0.00000000 1.00000000
vn 0.00000600 -0.00000100 1.00000000
vn 0.00001400 -0.00000100 1.00000000
vn 0.00000600 -0.00000100 1.00000000
vn -0.00000700 0.00000100 1.00000000
vn 0.00000000 0.00000000 1.00000000
vn 0.00001400 -0.00000100 1.00000000
vn 0.00000600 -0.00000100 1.00000000
vn 0.00000000 0.00000000 1.00000000
vn 0.00001400 -0.00000100 1.00000000
vn -0.00001200 0.00000100 1.00000000
vn -0.00001200 0.00000100 1.00000000
vn 0.00001200 -0.00000100 1.00000000
vn 0.00001200 -0.00000100 1.00000000
vn 0.00001500 -0.00000200 1.00000000
vn 0.00000000 0.00000000 1.00000000
vn 0.00001500 -0.00000200 1.00000000
vn 0.00000000 0.00000000 1.00000000
vn 0.00000000 0.00000000 1.00000000
vn 0.00001400 -0.00000100 1.00000000
vn 0.00000000 0.00000000 1.00000000
vn 0.00000000 0.00000000 1.00000000
vn 0.00001400 -0.00000100 1.00000000
vn 0.00000000 0.00000000 1.00000000
vn 0.00001400 -0.00000100 1.00000000
vn 0.00001400 -0.00000100 1.00000000
vn -0.00001300 0.00000100 1.00000000
vn -0.00001300 0.00000100 1.00000000
vn 0.00001400 -0.00000100 1.00000000
vn -0.00001300 0.00000100 1.00000000
vn 0.00000000 0.00000000 1.00000000
vn 0.00000900 -0.00000100 1.00000000
vn 0.00001400 -0.00000100 1.00000000
vn 0.00000900 -0.00000100 1.00000000
vn 0.00000000 0.00000000 1.00000000
vn 0.00000900 -0.00000100 1.00000000
vn 0.00000000 0.00000000 1.00000000
vn 0.00000000 0.00000000 1.00000000
vn 0.00000000 0.00000000 -1.00000000
vn 0.00000000 0.00000000 -1.00000000
vn 0.00000000 0.00000000 -1.00000000
vn 0.00000500 -0.00000000 -1.00000000
vn -0.00000900 0.00000100 -1.00000000
vn 0.00000000 0.00000000 -1.00000000
vn 0.00000500 -0.00000000 -1.00000000
vn 0.00000800 -0.00000100 -1.00000000
vn 0.00000500 -0.00000000 -1.00000000
vn 0.00000800 -0.00000100 -1.00000000
vn 0.00000800 -0.00000100 -1.00000000
vn -0.00001600 0.00000200 -1.00000000
vn -0.00000400 0.00000000 -1.00000000
vn 0.00003000 -0.00000300 -1.00000000
vn -0.00001200 0.00000100 -1.00000000
vn 0.00000000 0.00000000 -1.00000000
vn -0.00001600 0.00000200 -1.00000000
vn 0.00001900 -0.00000200 -1.00000000
vn -0.00001600 0.00000200 -1.00000000
vn 0.00001900 -0.00000200 -1.00000000
vn 0.00000600 -0.00000100 -1.00000000
vn 0.00000000 0.00000000 -1.00000000
vn -0.00001200 0.00000100 -1.00000000
vn 0.00000000 0.00000000 -1.00000000
vn 0.00000600 -0.00000100 -1.00000000
vn 0.00000900 -0.00000100 -1.00000000
vn 0.00000000 0.00000000 -1.00000000
vn 0.00000900 -0.00000100 -1.00000000
vn 0.00000900 -0.00000100 -1.00000000
vn 0.00000000 0.00000000 -1.00000000
vn 0.00000000 0.00000000 -1.00000000
vn 0.00003100 -0.00000300 -1.00000000
vn 0.00000000 0.00000000 -1.00000000
vn -0.00001200 0.00000100 -1.00000000
vn -0.00000800 0.00000100 -1.00000000
vn 0.00002900 -0.00000300 -1.00000000
vn 0.00001200 -0.00000100 -1.00000000
vn -0.00001200 0.00000100 -1.00000000
vn 0.00001200 -0.00000100 -1.00000000
vn -0.00001400 0.00000100 -1.00000000
vn -0.00001200 0.00000100 -1.00000000
vn 0.00002900 -0.00000300 -1.00000000
vn 0.00001200 -0.00000100 -1.00000000
vn 0.00000000 0.00000000 -1.00000000
vn -0.00001400 0.00000100 -1.00000000
vn 0.00000000 0.00000000 -1.00000000
vn -0.00001400 0.00000100 -1.00000000
vn 0.00001200 -0.00000100 -1.00000000
vn 0.00000000 0.00000000 -1.00000000
vn 0.00000900 -0.00000100 -1.00000000
vn 0.00001200 -0.00000100 -1.00000000
vn 0.00000000 0.00000000 -1.00000000
vn 0.00000000 0.00000000 -1.00000000
vn 0.00003100 -0.00000300 -1.00000000
vn -0.00001500 0.00000200 -1.00000000
vn 0.00000000 0.00000000 -1.00000000
vn 0.00003100 -0.00000300 -1.00000000
vn 0.00000000 0.00000000 -1.00000000
vn -0.00001500 0.00000200 -1.00000000
vn -0.00000900 0.00000100 -1.00000000
vn -0.00001500 0.00000200 -1.00000000
vn 0.00000000 0.00000000 -1.00000000
vn 0.00000000 0.00000000 -1.00000000
vn -0.00000900 0.00000100 -1.00000000
vn 0.00000000 0.00000000 -1.00000000
vn -0.00000600 0.00000100 -1.00000000
vn -0.00000900 0.00000100 -1.00000000
vn 0.00003000 -0.00000300 -1.00000000
vn -0.00000600 0.00000100 -1.00000000
vn 0.00000000 0.00000000 -1.00000000
vn 0.00003000 -0.00000300 -1.00000000
vn -0.00000600 0.00000100 -1.00000000
vn 0.00000000 0.00000000 -1.00000000
vn 0.00000000 0.00000000 -1.00000000
vn 0.00003000 -0.00000300 -1.00000000
vn 0.00000000 0.00000000 -1.00000000
vn -0.00000700 0.00000100 -1.00000000
vn 0.00000000 0.00000000 -1.00000000
vn 0.00000000 0.00000000 -1.00000000
vn -0.00000900 0.00000100 -1.00000000
vn -0.00000900 0.00000100 -1.00000000
vn 0.00000000 0.00000000 -1.00000000
vn -0.00000600 0.00000100 -1.00000000
vn 0.00000000 0.00000000 -1.00000000
vn -0.00000600 0.00000100 -1.00000000
vn -0.00000600 0.00000100 -1.00000000
vn 0.00000000 0.00000000 -1.00000000
vn 0.00000000 0.00000000 -1.00000000
vn 0.00001900 -0.00000200 -1.00000000
vn -0.00001200 0.00000100 -1.00000000
vn 0.00000000 0.00000000 -1.00000000
vn -0.00001200 0.00000100 -1.00000000
vn 0.00000000 0.00000000 -1.00000000
vn 0.00000000 0.00000000 -1.00000000
vn 0.00001200 -0.00000100 -1.00000000
vn -0.00002200 0.00000200 -1.00000000
vn 0.00000000 0.00000000 -1.00000000
vn 0.00000000 0.00000000 -1.00000000
vn -0.00002200 0.00000200 -1.00000000
vn -0.00002200 0.00000200 -1.00000000
vn -0.00000700 0.00000100 -1.00000000
vn 0.00000000 0.00000000 -1.00000000
vn -0.00000700 0.00000100 -1.00000000
vn 0.00000000 0.00000000 -1.00000000
vn 0.00000000 0.00000000 -1.00000000
vn -0.00000800 0.00000100 -1.00000000
vn 0.00002900 -0.00000300 -1.00000000
vn 0.00000000 0.00000000 -1.00000000
vn -0.00000800 0.00000100 -1.00000000
vn 0.00000000 0.00000000 -1.00000000
vn 0.00000000 0.00000000 -1.00000000
vn 0.00000000 -0.00000000 -1.00000000
vn 0.00000000 0.00000000 -1.00000000
vn 0.00000300 -0.00000000 -1.00000000
vn 0.00000300 -0.00000000 -1.00000000
vn 0.00001200 -0.00000100 -1.00000000
vn 0.00000000 0.00000000 -1.00000000
vn 0.00000300 -0.00000000 -1.00000000
vn 0.00001200 -0.00000100 -1.00000000
vn 0.00000000 -0.00000000 -1.00000000
vn 0.00001200 -0.00000100 -1.00000000
vn 0.00000000 0.00000000 -1.00000000
vn 0.00000700 -0.00000100 -1.00000000
vn 0.00000000 0.00000000 -1.00000000
vn 0.00000000 0.00000000 -1.00000000
vn -0.00001200 0.00000100 -1.00000000
vn 0.00000700 -0.00000100 -1.00000000
vn 0.00000700 -0.00000100 -1.00000000
vn -0.00001200 0.00000100 -1.00000000
vn 0.00000000 0.00000000 -1.00000000
vn 0.00000000 0.00000000 -1.00000000
vn -0.00001200 0.00000100 -1.00000000
vn 0.00000000 0.00000000 -1.00000000
vn 0.00000000 0.00000000 -1.00000000
vn 0.00000600 -0.00000100 -1.00000000
vn 0.00000600 -0.00000100 -1.00000000
vn 0.00000000 0.00000000 -1.00000000
vn 0.00000600 -0.00000100 -1.00000000
vn -0.00001200 0.00000100 -1.00000000
vn 0.00000000 0.00000000 -1.00000000
vn -0.00001200 0.00000100 -1.00000000
vn 0.00000600 -0.00000100 -1.00000000
vn 0.00000000 0.00000000 -1.00000000
vn 0.00003000 -0.00000300 -1.00000000
vn 0.00003000 -0.00000300 -1.00000000
vn -0.00001600 0.00000200 -1.00000000
vn -0.00000400 0.00000000 -1.00000000
vn 0.00000000 0.00000000 -1.00000000
vn -0.00000400 0.00000000 -1.00000000
vn -0.00001600 0.00000200 -1.00000000
vn -0.00001600 0.00000200 -1.00000000
vn 0.00000000 0.00000000 -1.00000000
vn 0.00001200 -0.00000100 -1.00000000
vn 0.00000000 0.00000000 -1.00000000
vn 0.00001200 -0.00000100 -1.00000000
vn 0.00000000 0.00000000 -1.00000000
vn -0.00001400 0.00000100 -1.00000000
vn 0.00000000 0.00000000 -1.00000000
vn 0.00000000 0.00000000 -1.00000000
vn -0.00001400 0.00000100 -1.00000000
vn -0.00001400 0.00000100 -1.00000000
vn 0.00000000 0.00000000 -1.00000000
vn 0.00000000 0.00000000 -1.00000000
vn 0.00000000 0.00000000 -1.00000000
vn 0.00000000 -0.00000000 -1.00000000
vn 0.00000000 0.00000000 -1.00000000
vn 0.00000900 -0.00000100 -1.00000000
vn 0.00000000 0.00000000 -1.00000000
vn 0.00001200 -0.00000100 -1.00000000
vn 0.00000900 -0.00000100 -1.00000000
f 1//1 2//2 3//3
f 1//1 3//3 4//4
f 4//4 3//3 5//5
f 4//4 5//5 6//6
f 6//6 5//5 7//7
f 6//6 7//7 8//8
f 8//8 7//7 9//9
f 8//8 9//9 10//10
f 10//10 9//9 11//11
f 10//10 11//11 12//12
f 12//12 11//11 13//13
f 12//12 13//13 14//14
f 14//14 13//13 15//15
f 14//14 15//15 16//16
f 16//16 15//15 17//17
f 16//16 17//17 18//18
f 18//18 17//17 19//19
f 18//18 19//19 20//20
f 20//20 19//19 21//21
f 20//20 21//21 22//22
f 22//22 21//21 23//23
f 22//22 23//23 24//24
f 24//24 23//23 25//25
f 24//24 25//25 26//26
f 26//26 25//25 27//27
f 26//26 27//27 28//28
f 28//28 27//27 29//29
f 28//28 29//29 30//30
f 30//30 29//29 31//31
f 30//30 31//31 32//32
f 32//32 31//31 33//33
f 32//32 33//33 34//34
f 34//34 33//33 35//35
f 34//34 35//35 36//36
f 36//36 35//35 37//37
f 36//36 37//37 38//38
f 38//38 37//37 39//39
f 38//38 39//39 40//40
f 40//40 39//39 41//41
f 40//40 41//41 42//42
f 42//42 41//41 43//43
f 42//42 43//43 44//44
f 44//44 43//43 45//45
f 44//44 45//45 46//46
f 46//46 45//45 47//47
f 46//46 47//47 48//48
f 48//48 47//47 49//49
f 48//48 49//49 50//50
f 50//50 49//49 51//51
f 50//50 51//51 52//52
f 52//52 51//51 53//53
f 52//52 53//53 54//54
f 54//54 53//53 55//55
f 54//54 55//55 56//56
f 56//56 55//55 57//57
f 56//56 57//57 58//58
f 58//58 57//57 59//59
f 58//58 59//59 60//60
f 60//60 59//59 61//61
f 60//60 61//61 62//62
f 62//62 61//61 63//63
f 62//62 63//63 64//64
f 64//64 63//63 65//65
f 64//64 65//65 66//66
f 66//66 65//65 67//67
f 66//66 67//67 68//68
f 69//69 68//68 70//70
f 70//70 68//68 67//67
f 71//71 72//72 73//73
f 71//71 73//73 74//74
f 74//74 73//73 75//75
f 74//74 75//75 76//76
f 76//76 75//75 77//77
f 76//76 77//77 78//78
f 78//78 77//77 79//79
f 78//78 79//79 80//80
f 80//80 79//79 81//81
f 80//80 81//81 82//82
f 82//82 81//81 83//83
f 82//82 83//83 84//84
f 84//84 83//83 85//85
f 84//84 85//85 86//86
f 86//86 85//85 87//87
f 86//86 87//87 88//88
f 88//88 87//87 89//89
f 88//88 89//89 90//90
f 90//90 89//89 91//91
f 90//90 91//91 92//92
f 92//92 91//91 93//93
f 92//92 93//93 94//94
f 94//94 93//93 95//95
f 94//94 95//95 96//96
f 96//96 95//95 97//97
f 96//96 97//97 98//98
f 98//98 97//97 99//99
f 98//98 99//99 100//100
f 100//100 99//99 101//101
f 100//100 101//101 102//102
f 102//102 101//101 103//103
f 102//102 103//103 104//104
f 104//104 103//103 105//105
f 104//104 105//105 106//106
f 106//106 105//105 107//107
f 106//106 107//107 108//108
f 108//108 107//107 109//109
f 108//108 109//109 110//110
f 110//110 109//109 111//111
f 110//110 111//111 112//112
f 112//112 111//111 113//113
f 112//112 113//113 114//114
f 114//114 113//113 115//115
f 114//114 115//115 116//116
f 116//116 115//115 117//117
f 116//116 117//117 118//118
f 118//118 117//117 119//119
f 118//118 119//119 120//120
f 120//120 119//119 121//121
f 120//120 121//121 122//122
f 122//122 121//121 123//123
f 122//122 123//123 124//124
f 124//124 123//123 125//125
f 124//124 125//125 126//126
f 126//126 125//125 127//127
f 126//126 127//127 128//128
f 128//128 127//127 129//129
f 128//128 129//129 130//130
f 130//130 129//129 131//131
f 130//130 131//131 132//132
f 132//132 131//131 133//133
f 132//132 133//133 134//134
f 134//134 133//133 135//135
f 134//134 135//135 136//136
f 136//136 135//135 137//137
f 136//136 137//137 138//138
f 138//138 137//137 139//139
f 138//138 139//139 140//140
f 140//140 139//139 141//141
f 140//140 141//141 142//142
f 142//142 141//141 143//143
f 142//142 143//143 144//144
f 144//144 143//143 145//145
f 144//144 145//145 146//146
f 146//146 145//145 147//147
f 146//146 147//147 148//148
f 148//148 147//147 149//149
f 148//148 149//149 150//150
f 150//150 149//149 72//72
f 150//150 72//72 71//71
f 1//1 151//151 2//2
f 2//2 151//151 152//152
f 154//154 157//157 160//160
f 159//159 161//161 162//162
f 160//160 163//163 165//165
f 166//166 168//168 171//171
f 170//170 169//169 177//177
f 171//171 172//172 179//179
f 179//179 172//172 181//181
f 182//182 185//185 172//172
f 176//176 184//184 187//187
f 178//178 186//186 180//180
f 189//189 190//190 193//193
f 192//192 194//194 195//195
f 192//192 195//195 197//197
f 197//197 198//198 200//200
f 196//196 199//199 203//203
f 202//202 204//204 205//205
f 201//201 206//206 207//207
f 207//207 208//208 209//209
f 207//207 209//209 211//211
f 211//211 212//212 214//214
f 210//210 213//213 217//217
f 216//216 218//218 219//219
f 215//215 220//220 221//221
f 222//222 224//224 226//226
f 223//223 225//225 156//156
f 153//153 227//227 228//228
f 155//155 229//229 158//158
f 230//230 233//233 188//188
f 188//188 233//233 234//234
f 188//188 234//234 191//191
f 235//235 237//237 165//165
f 164//164 236//236 238//238
f 165//165 239//239 242//242
f 241//241 243//243 244//244
f 240//240 245//245 246//246
f 247//247 249//249 250//250
f 248//248 251//251 252//252
f 253//253 254//254 256//256
f 252//252 255//255 257//257
f 258//258 259//259 260//260
f 257//257 261//261 262//262
f 230//230 266//266 233//233
f 232//232 267//267 269//269
f 231//231 270//270 173//173
f 174//174 268//268 271//271
f 175//175 272//272 183//183
f 167//167 274//274 277//277
f 275//275 273//273 278//278
f 276//276 279//279 280//280
f 280//280 279//279 283//283
f 281//281 284//284 286//286
f 285//285 282//282 288//288
f 287//287 289//289 290//290
f 290//290 289//289 293//293
f 291//291 292//292 297//297
f 295//295 294//294 298//298
f 296//296 299//299 300//300
f 300//300 299//299 301//301
f 300//300 301//301 304//304
f 303//303 302//302 308//308
f 305//305 307//307 311//311
f 310//310 306//306 313//313
f 314//314 315//315 265//265
f 264//264 316//316 317//317
f 263//263 318//318 320//320
f 319//319 321//321 322//322
f 319//319 322//322 324//324
f 324//324 325//325 327//327
f 323//323 326//326 328//328
f 330//330 331//331 333//333
f 329//329 332//332 336//336
f 335//335 337//337 339//339
f 334//334 338//338 312//312
f 312//312 340//340 341//341
f 312//312 341//341 309//309
f 342//342 343//343 344//344
f 344//344 343//343 347//347
f 345//345 348//348 350//350
f 351//351 349//349 352//352
f 358//358 353//353 360//360
f 363//363 365//365 368//368
f 369//369 367//367 370//370
f 368//368 371//371 372//372
f 375//375 379//379 382//382
f 380//380 378//378 384//384
f 381//381 386//386 388//388
f 387//387 385//385 390//390
f 387//387 390//390 393//393
f 371//371 394//394 372//372
f 373//373 395//395 398//398
f 372//372 397//397 399//399
f 400//400 396//396 402//402
f 399//399 403//403 404//404
f 405//405 401//401 408//408
f 404//404 406//406 411//411
f 410//410 407//407 413//413
f 409//409 412//412 416//416
f 415//415 414//414 417//417
f 415//415 417//417 419//419
f 342//342 344//344 420//420
f 421//421 346//346 422//422
f 420//420 423//423 425//425
f 426//426 424//424 427//427
f 425//425 428//428 429//429
f 361//361 430//430 359//359
f 356//356 431//431 433//433
f 357//357 432//432 434//434
f 435//435 438//438 439//439
f 440//440 437//437 441//441
f 439//439 443//443 445//445
f 444//444 442//442 418//418
f 445//445 419//419 446//446
f 446//446 419//419 417//417
f 383//383 448//448 377//377
f 376//376 447//447 450//450
f 374//374 449//449 451//451
f 451//451 449//449 429//429
f 451//451 429//429 452//452
f 452//452 429//429 428//428
f 455//455 456//456 459//459
f 460//460 457//457 462//462
f 458//458 463//463 465//465
f 465//465 463//463 466//466
f 464//464 468//468 469//469
f 470//470 467//467 473//473
f 471//471 472//472 474//474
f 474//474 472//472 475//475
f 474//474 475//475 478//478
f 477//477 476//476 479//479
f 478//478 481//481 363//363
f 364//364 480//480 482//482
f 362//362 483//483 366//366
f 434//434 484//484 357//357
f 355//355 485//485 486//486
f 354//354 488//488 490//490
f 491//491 487//487 492//492
f 439//439 495//495 435//435
f 436//436 494//494 496//496
f 435//435 497//497 499//499
f 499//499 497//497 500//500
f 498//498 501//501 502//502
f 503//503 500//500 489//489
f 503//503 489//489 504//504
f 504//504 489//489 493//493
f 461//461 506//506 453//453
f 454//454 505//505 507//507
f 454//454 507//507 509//509
f 509//509 507//507 393//393
f 508//508 391//391 511//511
f 510//510 392//392 389//389

