# https://github.com/mikedh/trimesh
v 0.17046100 -0.03546500 0.02020000
v 0.17060400 -0.03549000 0.02020000
v 0.17046100 -0.03546500 0.02040000
v 0.17060400 -0.03549000 0.02040000
v 0.18221300 -0.03770500 0.02040000
v 0.18221300 -0.03770500 0.02020000
v 0.18395200 -0.03769500 0.02020000
v 0.18395200 -0.03769500 0.02040000
v 0.18555700 -0.03702600 0.02020000
v 0.18555700 -0.03702600 0.02040000
v 0.18678900 -0.03579900 0.02020000
v 0.18678900 -0.03579900 0.02040000
v 0.19478700 -0.02392400 0.02040000
v 0.19478700 -0.02392400 0.02020000
v 0.19511900 -0.02300400 0.02020000
v 0.19511900 -0.02300400 0.02040000
v 0.19511900 -0.02300400 0.02040000
v 0.19511900 -0.02300400 0.02040000
v 0.19511900 -0.02300400 0.02020000
v 0.19497500 -0.02203700 0.02020000
v 0.19497500 -0.02203700 0.02020000
v 0.19497500 -0.02203700 0.02040000
v 0.19497500 -0.02203700 0.02040000
v 0.19497500 -0.02203700 0.02020000
v 0.19439000 -0.02125400 0.02020000
v 0.19439000 -0.02125400 0.02040000
v 0.19439000 -0.02125400 0.02040000
v 0.19439000 -0.02125400 0.02020000
v 0.19350300 -0.02084200 0.02020000
v 0.19350300 -0.02084200 0.02040000
v 0.08361400 0.00012100 0.02040000
v 0.08361400 0.00012100 0.02020000
v 0.08263800 0.00011300 0.02020000
v 0.08263800 0.00011300 0.02040000
v 0.08263800 0.00011300 0.02040000
v 0.08263800 0.00011300 0.02020000
v 0.08174000 -0.00026700 0.02020000
v 0.08174000 -0.00026700 0.02040000
v 0.08105600 -0.00096200 0.02020000
v 0.08105600 -0.00096200 0.02040000
v 0.08105600 -0.00096200 0.02040000
v 0.08105600 -0.00096200 0.02020000
v 0.08068900 -0.00186700 0.02020000
v 0.08068900 -0.00186700 0.02040000
v 0.07812600 -0.01530400 0.02040000
v 0.07812600 -0.01530400 0.02020000
v 0.07813400 -0.01628000 0.02020000
v 0.07813400 -0.01628000 0.02040000
v 0.07813400 -0.01628000 0.02040000
v 0.07813400 -0.01628000 0.02020000
v 0.07851400 -0.01717800 0.02020000
v 0.07851400 -0.01717800 0.02040000
v 0.07920900 -0.01786200 0.02020000
v 0.07920900 -0.01786200 0.02040000
v 0.08011300 -0.01822800 0.02020000
v 0.08011300 -0.01822800 0.02040000
v 0.09011100 -0.02013500 0.02040000
v 0.09011100 -0.02013500 0.02020000
v 0.09020600 -0.02015600 0.02020000
v 0.09020600 -0.02015600 0.02040000
v 0.08174000 -0.00026700 0.02040000
v 0.08174000 -0.00026700 0.02040000
v 0.08174000 -0.00026700 0.02040000
v 0.08105600 -0.00096200 0.02040000
v 0.08068900 -0.00186700 0.02040000
v 0.08068900 -0.00186700 0.02040000
v 0.08068900 -0.00186700 0.02040000
v 0.07851400 -0.01717800 0.02040000
v 0.07851400 -0.01717800 0.02040000
v 0.07920900 -0.01786200 0.02040000
v 0.08011300 -0.01822800 0.02040000
v 0.08011300 -0.01822800 0.02040000
v 0.08011300 -0.01822800 0.02040000
v 0.08263800 0.00011300 0.02040000
v 0.08263800 0.00011300 0.02040000
v 0.09011100 -0.02013500 0.02040000
v 0.09011100 -0.02013500 0.02040000
v 0.09011100 -0.02013500 0.02040000
v 0.09011100 -0.02013500 0.02040000
v 0.09011100 -0.02013500 0.02040000
v 0.09011100 -0.02013500 0.02040000
v 0.07812600 -0.01530400 0.02040000
v 0.07812600 -0.01530400 0.02040000
v 0.07812600 -0.01530400 0.02040000
v 0.07813400 -0.01628000 0.02040000
v 0.08361400 0.00012100 0.02040000
v 0.08361400 0.00012100 0.02040000
v 0.08361400 0.00012100 0.02040000
v 0.09020600 -0.02015600 0.02040000
v 0.09020600 -0.02015600 0.02040000
v 0.09020600 -0.02015600 0.02040000
v 0.19350300 -0.02084200 0.02040000
v 0.19350300 -0.02084200 0.02040000
v 0.19350300 -0.02084200 0.02040000
v 0.19350300 -0.02084200 0.02040000
v 0.18395200 -0.03769500 0.02040000
v 0.18555700 -0.03702600 0.02040000
v 0.18555700 -0.03702600 0.02040000
v 0.18221300 -0.03770500 0.02040000
v 0.18221300 -0.03770500 0.02040000
v 0.18221300 -0.03770500 0.02040000
v 0.18678900 -0.03579900 0.02040000
v 0.18678900 -0.03579900 0.02040000
v 0.18678900 -0.03579900 0.02040000
v 0.17060400 -0.03549000 0.02040000
v 0.17060400 -0.03549000 0.02040000
v 0.17060400 -0.03549000 0.02040000
v 0.17046100 -0.03546500 0.02040000
v 0.17046100 -0.03546500 0.02040000
v 0.19497500 -0.02203700 0.02040000
v 0.19439000 -0.02125400 0.02040000
v 0.19511900 -0.02300400 0.02040000
v 0.19478700 -0.02392400 0.02040000
v 0.19350300 -0.02084200 0.02020000
v 0.19350300 -0.02084200 0.02020000
v 0.19350300 -0.02084200 0.02020000
v 0.19350300 -0.02084200 0.02020000
v 0.19350300 -0.02084200 0.02020000
v 0.17060400 -0.03549000 0.02020000
v 0.17060400 -0.03549000 0.02020000
v 0.17046100 -0.03546500 0.02020000
v 0.08011300 -0.01822800 0.02020000
v 0.08011300 -0.01822800 0.02020000
v 0.07812600 -0.01530400 0.02020000
v 0.07812600 -0.01530400 0.02020000
v 0.07812600 -0.01530400 0.02020000
v 0.07812600 -0.01530400 0.02020000
v 0.09011100 -0.02013500 0.02020000
v 0.09011100 -0.02013500 0.02020000
v 0.09011100 -0.02013500 0.02020000
v 0.09011100 -0.02013500 0.02020000
v 0.08068900 -0.00186700 0.02020000
v 0.08068900 -0.00186700 0.02020000
v 0.18555700 -0.03702600 0.02020000
v 0.18395200 -0.03769500 0.02020000
v 0.18395200 -0.03769500 0.02020000
v 0.18678900 -0.03579900 0.02020000
v 0.18678900 -0.03579900 0.02020000
v 0.18678900 -0.03579900 0.02020000
v 0.18221300 -0.03770500 0.02020000
v 0.18221300 -0.03770500 0.02020000
v 0.18221300 -0.03770500 0.02020000
v 0.18221300 -0.03770500 0.02020000
v 0.19478700 -0.02392400 0.02020000
v 0.19478700 -0.02392400 0.02020000
v 0.19478700 -0.02392400 0.02020000
v 0.19478700 -0.02392400 0.02020000
v 0.17046100 -0.03546500 0.02020000
v 0.17046100 -0.03546500 0.02020000
v 0.08361400 0.00012100 0.02020000
v 0.08361400 0.00012100 0.02020000
v 0.08361400 0.00012100 0.02020000
v 0.08361400 0.00012100 0.02020000
v 0.09020600 -0.02015600 0.02020000
v 0.09020600 -0.02015600 0.02020000
v 0.07920900 -0.01786200 0.02020000
v 0.07920900 -0.01786200 0.02020000
v 0.07851400 -0.01717800 0.02020000
v 0.07851400 -0.01717800 0.02020000
v 0.07813400 -0.01628000 0.02020000
v 0.08263800 0.00011300 0.02020000
v 0.08174000 -0.00026700 0.02020000
v 0.08174000 -0.00026700 0.02020000
v 0.08105600 -0.00096200 0.02020000
v 0.08105600 -0.00096200 0.02020000
v 0.19497500 -0.02203700 0.02020000
v 0.19511900 -0.02300400 0.02020000
v 0.19439000 -0.02125400 0.02020000
v 0.19439000 -0.02125400 0.02020000
vn -0.18210000 -0.98328000 0.00000000
vn -0.17681200 -0.98424500 0.00000000
vn -0.17684200 -0.98423900 0.00000000
vn -0.18207000 -0.98328600 0.00000000
vn -0.05874400 -0.99827300 -0.00001100
vn -0.12347000 -0.99234800 -0.00000100
vn 0.13440900 -0.99092600 0.00002500
vn 0.26274700 -0.96486500 0.00003400
vn 0.50005200 -0.86599600 0.00000000
vn 0.60893100 -0.79322400 0.00000300
vn 0.75017000 -0.66124500 0.00000000
vn 0.79154200 -0.61111500 -0.00001200
vn 0.90978500 -0.41508000 -0.00001600
vn 0.87244800 -0.48870700 0.00001400
vn 0.94080700 -0.33894200 0.00000000
vn 0.94080700 -0.33894300 0.00000000
vn 0.98908300 0.14735800 0.00000000
vn 0.98908900 0.14732200 0.00000000
vn 0.98908300 0.14735800 0.00000000
vn 0.98908300 0.14735800 0.00000000
vn 0.98908900 0.14732200 0.00000000
vn 0.98908900 0.14732200 0.00000000
vn 0.80112200 0.59850100 0.00000000
vn 0.80112200 0.59850100 0.00000000
vn 0.80112200 0.59850100 0.00000000
vn 0.80112200 0.59850100 0.00000000
vn 0.42174600 0.90671400 0.00000000
vn 0.42174300 0.90671600 0.00000000
vn 0.34594400 0.93825500 0.00000000
vn 0.26733000 0.96360500 0.00000000
vn 0.05749900 0.99834600 -0.00001400
vn 0.12280000 0.99243100 0.00001100
vn -0.00781400 0.99996900 0.00000000
vn -0.00781300 0.99996900 0.00000000
vn -0.38995300 0.92083500 0.00000000
vn -0.38995600 0.92083400 0.00000000
vn -0.50619400 0.86241900 0.00002500
vn -0.61554100 0.78810500 0.00000000
vn -0.71261300 0.70155700 0.00000000
vn -0.71261300 0.70155700 0.00000000
vn -0.92687500 0.37537100 0.00000000
vn -0.92687600 0.37536800 0.00000000
vn -0.94940400 0.31405800 0.00000000
vn -0.96794400 0.25116700 -0.00001600
vn -0.99834600 0.05748900 0.00000000
vn -0.99242700 0.12283700 0.00001300
vn -0.99997000 -0.00780400 0.00000000
vn -0.99997000 -0.00779900 0.00000000
vn -0.92083400 -0.38995400 0.00000000
vn -0.92083400 -0.38995600 0.00000000
vn -0.86243100 -0.50617500 0.00003200
vn -0.78811800 -0.61552400 0.00000000
vn -0.60306500 -0.79769200 0.00002900
vn -0.49256200 -0.87027700 0.00000000
vn -0.31404000 -0.94941000 0.00000000
vn -0.25114700 -0.96794900 0.00000000
vn -0.20313500 -0.97915100 0.00000000
vn -0.19537100 -0.98072900 0.00000000
vn -0.20312200 -0.97915300 0.00000000
vn -0.19533700 -0.98073600 0.00000000
vn -0.00001000 0.00000100 1.00000000
vn 0.00000300 -0.00000000 1.00000000
vn -0.00000200 0.00000000 1.00000000
vn -0.00001000 0.00000100 1.00000000
vn -0.00000200 0.00000000 1.00000000
vn -0.00001000 0.00000100 1.00000000
vn -0.00000000 0.00000000 1.00000000
vn -0.00000200 0.00000000 1.00000000
vn 0.00000000 0.00000000 1.00000000
vn -0.00000200 0.00000000 1.00000000
vn -0.00000200 0.00000000 1.00000000
vn 0.00000000 0.00000000 1.00000000
vn 0.00000000 -0.00000000 1.00000000
vn 0.00000300 -0.00000000 1.00000000
vn 0.00000000 0.00000000 1.00000000
vn -0.00000200 0.00000000 1.00000000
vn 0.00000000 -0.00000000 1.00000000
vn -0.00000000 0.00000000 1.00000000
vn 0.00000000 0.00000000 1.00000000
vn 0.00000300 -0.00000000 1.00000000
vn 0.00001100 -0.00000100 1.00000000
vn -0.00000000 0.00000000 1.00000000
vn 0.00000000 -0.00000000 1.00000000
vn 0.00000000 0.00000000 1.00000000
vn 0.00000000 0.00000000 1.00000000
vn 0.00000000 0.00000000 1.00000000
vn 0.00001100 -0.00000100 1.00000000
vn 0.00000000 0.00000000 1.00000000
vn 0.00001100 -0.00000100 1.00000000
vn 0.00000000 0.00000000 1.00000000
vn 0.00000000 0.00000000 1.00000000
vn 0.00000000 0.00000000 1.00000000
vn 0.00000000 0.00000000 1.00000000
vn -0.00002200 0.00000200 1.00000000
vn 0.00000000 0.00000000 1.00000000
vn 0.00000300 -0.00000000 1.00000000
vn -0.00000100 0.00000000 1.00000000
vn 0.00000300 -0.00000000 1.00000000
vn 0.00000300 -0.00000000 1.00000000
vn -0.00000100 0.00000000 1.00000000
vn 0.00000000 0.00000000 1.00000000
vn 0.00000000 0.00000000 1.00000000
vn 0.00000000 0.00000000 1.00000000
vn -0.00000100 0.00000000 1.00000000
vn 0.00000000 0.00000000 1.00000000
vn 0.00000000 0.00000000 1.00000000
vn -0.00002200 0.00000200 1.00000000
vn -0.00002200 0.00000200 1.00000000
vn 0.00000000 0.00000000 1.00000000
vn 0.00000000 0.00000000 1.00000000
vn 0.00000000 0.00000000 1.00000000
vn 0.00000000 0.00000000 1.00000000
vn 0.00000000 0.00000000 1.00000000
vn 0.00000800 -0.00000100 -1.00000000
vn 0.00000000 0.00000000 -1.00000000
vn 0.00000000 0.00000000 -1.00000000
vn -0.00000300 0.00000000 -1.00000000
vn 0.00000100 -0.00000000 -1.00000000
vn 0.00000800 -0.00000100 -1.00000000
vn 0.00000000 0.00000000 -1.00000000
vn 0.00000800 -0.00000100 -1.00000000
vn 0.00000000 0.00000000 -1.00000000
vn -0.00000400 0.00000000 -1.00000000
vn -0.00000400 0.00000000 -1.00000000
vn 0.00000000 -0.00000000 -1.00000000
vn 0.00000000 0.00000000 -1.00000000
vn -0.00000200 0.00000000 -1.00000000
vn 0.00000000 0.00000000 -1.00000000
vn 0.00000000 -0.00000000 -1.00000000
vn -0.00000600 0.00000100 -1.00000000
vn -0.00000300 0.00000000 -1.00000000
vn 0.00000000 0.00000000 -1.00000000
vn 0.00000000 -0.00000000 -1.00000000
vn 0.00000000 0.00000000 -1.00000000
vn 0.00000000 0.00000000 -1.00000000
vn 0.00000100 -0.00000000 -1.00000000
vn 0.00000100 -0.00000000 -1.00000000
vn 0.00000000 0.00000000 -1.00000000
vn -0.00000100 0.00000000 -1.00000000
vn -0.00000100 0.00000000 -1.00000000
vn 0.00000000 0.00000000 -1.00000000
vn 0.00000100 -0.00000000 -1.00000000
vn 0.00000100 -0.00000000 -1.00000000
vn 0.00000000 0.00000000 -1.00000000
vn -0.00000300 0.00000000 -1.00000000
vn 0.00000100 -0.00000000 -1.00000000
vn -0.00000100 0.00000000 -1.00000000
vn 0.00000000 0.00000000 -1.00000000
vn 0.00000000 0.00000000 -1.00000000
vn 0.00000000 0.00000000 -1.00000000
vn -0.00000600 0.00000100 -1.00000000
vn 0.00000000 0.00000000 -1.00000000
vn 0.00000000 0.00000000 -1.00000000
vn -0.00000600 0.00000100 -1.00000000
vn 0.00000000 0.00000000 -1.00000000
vn -0.00000200 0.00000000 -1.00000000
vn -0.00000400 0.00000000 -1.00000000
vn -0.00000200 0.00000000 -1.00000000
vn 0.00000000 0.00000000 -1.00000000
vn 0.00000000 0.00000000 -1.00000000
vn 0.00000000 0.00000000 -1.00000000
vn 0.00000000 0.00000000 -1.00000000
vn -0.00000300 0.00000000 -1.00000000
vn 0.00000000 0.00000000 -1.00000000
vn -0.00000300 0.00000000 -1.00000000
vn 0.00000000 0.00000000 -1.00000000
vn 0.00000000 0.00000000 -1.00000000
vn 0.00000000 0.00000000 -1.00000000
vn -0.00000300 0.00000000 -1.00000000
f 1//1 2//2 3//3
f 3//3 2//2 4//4
f 5//5 4//4 6//6
f 6//6 4//4 2//2
f 5//5 6//6 7//7
f 5//5 7//7 8//8
f 8//8 7//7 9//9
f 8//8 9//9 10//10
f 10//10 9//9 11//11
f 10//10 11//11 12//12
f 13//13 12//12 14//14
f 14//14 12//12 11//11
f 13//13 14//14 15//15
f 13//13 15//15 16//16
f 17//17 19//19 20//20
f 18//18 21//21 22//22
f 23//23 24//24 25//25
f 23//23 25//25 26//26
f 27//27 28//28 29//29
f 27//27 29//29 30//30
f 31//31 30//30 32//32
f 32//32 30//30 29//29
f 31//31 32//32 33//33
f 31//31 33//33 34//34
f 35//35 36//36 37//37
f 35//35 37//37 38//38
f 38//38 37//37 39//39
f 38//38 39//39 40//40
f 41//41 42//42 43//43
f 41//41 43//43 44//44
f 45//45 44//44 46//46
f 46//46 44//44 43//43
f 45//45 46//46 47//47
f 45//45 47//47 48//48
f 49//49 50//50 51//51
f 49//49 51//51 52//52
f 52//52 51//51 53//53
f 52//52 53//53 54//54
f 54//54 53//53 55//55
f 54//54 55//55 56//56
f 57//57 56//56 58//58
f 58//58 56//56 55//55
f 58//58 59//59 57//57
f 57//57 59//59 60//60
f 3//3 60//60 1//1
f 1//1 60//60 59//59
f 61//61 64//64 66//66
f 68//68 70//70 71//71
f 74//74 62//62 80//80
f 63//63 65//65 76//76
f 78//78 67//67 82//82
f 77//77 83//83 73//73
f 72//72 84//84 85//85
f 72//72 85//85 69//69
f 75//75 79//79 86//86
f 87//87 81//81 89//89
f 88//88 90//90 93//93
f 96//96 98//98 99//99
f 100//100 97//97 104//104
f 101//101 103//103 106//106
f 105//105 102//102 92//92
f 107//107 94//94 108//108
f 109//109 95//95 91//91
f 110//110 111//111 112//112
f 112//112 111//111 92//92
f 112//112 92//92 113//113
f 113//113 92//92 102//102
f 114//114 119//119 121//121
f 122//122 126//126 128//128
f 129//129 125//125 133//133
f 134//134 135//135 138//138
f 137//137 136//136 142//142
f 139//139 140//140 147//147
f 116//116 148//148 153//153
f 150//150 149//149 155//155
f 151//151 154//154 130//130
f 123//123 157//157 124//124
f 127//127 156//156 158//158
f 126//126 159//159 160//160
f 161//161 152//152 162//162
f 162//162 152//152 128//128
f 163//163 131//131 165//165
f 164//164 128//128 132//132
f 166//166 167//167 168//168
f 168//168 167//167 144//144
f 169//169 145//145 117//117
f 118//118 146//146 143//143
f 115//115 141//141 120//120

