# https://github.com/mikedh/trimesh
v -0.02191800 -0.09812000 -0.01952400
v -0.02191800 -0.09812000 -0.01952400
v -0.02191800 -0.09812000 -0.01952400
v -0.02191800 -0.09812000 -0.01952400
v -0.02192300 -0.09811400 -0.01952500
v -0.02192300 -0.09811400 -0.01952500
v -0.02241300 -0.09675700 -0.01963300
v -0.02241300 -0.09675700 -0.01963300
v -0.02241300 -0.09675700 -0.01963300
v -0.02241300 -0.09675700 -0.01963300
v -0.02241300 -0.09675700 -0.01963300
v -0.02241300 -0.09675700 -0.01963300
v -0.02241300 -0.09675700 -0.01963300
v -0.02193500 -0.09811100 -0.01952500
v -0.02193500 -0.09811100 -0.01952500
v -0.02449700 -0.09701400 -0.01961300
v -0.02449700 -0.09701400 -0.01961300
v -0.02336100 -0.09829000 -0.01951100
v -0.02336100 -0.09829000 -0.01951100
v -0.02336100 -0.09829000 -0.01951100
v -0.02336100 -0.09829000 -0.01951100
v -0.02336100 -0.09829000 -0.01951100
v -0.02451300 -0.09701600 -0.01961300
v -0.02451300 -0.09701600 -0.01961300
v -0.02451300 -0.09701600 -0.01961300
v -0.02451300 -0.09701600 -0.01961300
v -0.02337300 -0.09830700 -0.01951000
v -0.02337300 -0.09830700 -0.01951000
v -0.02337300 -0.09830700 -0.01951000
v -0.02337300 -0.09830700 -0.01951000
v -0.02327800 -0.09961600 -0.01940500
v -0.02327800 -0.09961600 -0.01940500
v -0.02327800 -0.09961600 -0.01940500
v -0.02327800 -0.09961600 -0.01940500
v -0.02305900 -0.09981900 -0.01938900
v -0.02305900 -0.09981900 -0.01938900
v -0.02305900 -0.09981900 -0.01938900
v -0.02305900 -0.09981900 -0.01938900
v -0.02421500 -0.10079900 -0.01931100
v -0.02421500 -0.10079900 -0.01931100
v -0.02421500 -0.10079900 -0.01931100
v -0.01855200 -0.09767900 -0.01955800
v -0.01855200 -0.09767900 -0.01955800
v -0.01855200 -0.09767900 -0.01955800
v -0.01855200 -0.09767900 -0.01955800
v -0.01861100 -0.09770000 -0.01955700
v -0.01861100 -0.09770000 -0.01955700
v -0.01861100 -0.09770000 -0.01955700
v -0.01862200 -0.09629100 -0.01966900
v -0.01862200 -0.09629100 -0.01966900
v -0.01862200 -0.09629100 -0.01966900
v -0.01896800 -0.09633400 -0.01966600
v -0.01896800 -0.09633400 -0.01966600
v -0.01896800 -0.09633400 -0.01966600
v -0.01896800 -0.09633400 -0.01966600
v -0.01871700 -0.09771300 -0.01955600
v -0.01871700 -0.09771300 -0.01955600
v -0.01882300 -0.09772600 -0.01955500
v -0.01882300 -0.09772600 -0.01955500
v -0.01882300 -0.09772600 -0.01955500
v -0.01931400 -0.09637600 -0.01966300
v -0.01931400 -0.09637600 -0.01966300
v -0.01931400 -0.09637600 -0.01966300
v -0.01918300 -0.09776800 -0.01955200
v -0.01918300 -0.09776800 -0.01955200
v -0.01918300 -0.09776800 -0.01955200
v -0.01965900 -0.09641900 -0.01965900
v -0.01965900 -0.09641900 -0.01965900
v -0.01965900 -0.09641900 -0.01965900
v -0.01954300 -0.09781000 -0.01954800
v -0.01954300 -0.09781000 -0.01954800
v -0.01954300 -0.09781000 -0.01954800
v -0.02000500 -0.09646200 -0.01965600
v -0.02000500 -0.09646200 -0.01965600
v -0.02000500 -0.09646200 -0.01965600
v -0.01992700 -0.09785700 -0.01954500
v -0.01992700 -0.09785700 -0.01954500
v -0.01992700 -0.09785700 -0.01954500
v -0.02034900 -0.09650400 -0.01965300
v -0.02034900 -0.09650400 -0.01965300
v -0.02034900 -0.09650400 -0.01965300
v -0.02031000 -0.09790400 -0.01954100
v -0.02031000 -0.09790400 -0.01954100
v -0.02031000 -0.09790400 -0.01954100
v -0.02069200 -0.09654600 -0.01965000
v -0.02069200 -0.09654600 -0.01965000
v -0.02069200 -0.09654600 -0.01965000
v -0.02049200 -0.09792500 -0.01953900
v -0.02049200 -0.09792500 -0.01953900
v -0.02049200 -0.09792500 -0.01953900
v -0.02103800 -0.09658900 -0.01964600
v -0.02103800 -0.09658900 -0.01964600
v -0.02103800 -0.09658900 -0.01964600
v -0.02067400 -0.09794700 -0.01953800
v -0.02067400 -0.09794700 -0.01953800
v -0.02067400 -0.09794700 -0.01953800
v -0.02138400 -0.09663100 -0.01964300
v -0.02138400 -0.09663100 -0.01964300
v -0.02138400 -0.09663100 -0.01964300
v -0.02072300 -0.09795900 -0.01953700
v -0.02072300 -0.09795900 -0.01953700
v -0.02072300 -0.09795900 -0.01953700
v -0.02172800 -0.09667300 -0.01964000
v -0.02172800 -0.09667300 -0.01964000
v -0.02172800 -0.09667300 -0.01964000
v -0.02073900 -0.09797300 -0.01953600
v -0.02073900 -0.09797300 -0.01953600
v -0.02073900 -0.09797300 -0.01953600
v -0.02073900 -0.09797300 -0.01953600
v -0.02073900 -0.09797300 -0.01953600
v -0.02207100 -0.09671500 -0.01963600
v -0.02207100 -0.09671500 -0.01963600
v -0.02191900 -0.09915300 -0.01944200
v -0.02191900 -0.09915300 -0.01944200
v -0.02191900 -0.09915300 -0.01944200
v -0.02191900 -0.09915300 -0.01944200
v -0.02086600 -0.09981300 -0.01938900
v -0.02086600 -0.09981300 -0.01938900
v -0.02086600 -0.09981300 -0.01938900
v -0.02202900 -0.09949100 -0.01941500
v -0.02202900 -0.09949100 -0.01941500
v -0.02202900 -0.09949100 -0.01941500
v -0.02102400 -0.10018900 -0.01935900
v -0.02102400 -0.10018900 -0.01935900
v -0.02102400 -0.10018900 -0.01935900
v -0.02227200 -0.09975000 -0.01939400
v -0.02227200 -0.09975000 -0.01939400
v -0.02227200 -0.09975000 -0.01939400
v -0.02138700 -0.10068300 -0.01931900
v -0.02138700 -0.10068300 -0.01931900
v -0.02138700 -0.10068300 -0.01931900
v -0.02250000 -0.09985600 -0.01938600
v -0.02250000 -0.09985600 -0.01938600
v -0.02250000 -0.09985600 -0.01938600
v -0.02188200 -0.10104500 -0.01929100
v -0.02188200 -0.10104500 -0.01929100
v -0.02188200 -0.10104500 -0.01929100
v -0.02274900 -0.09989000 -0.01938300
v -0.02274900 -0.09989000 -0.01938300
v -0.02274900 -0.09989000 -0.01938300
v -0.02254700 -0.10127200 -0.01927300
v -0.02254700 -0.10127200 -0.01927300
v -0.02254700 -0.10127200 -0.01927300
v -0.02290900 -0.09987600 -0.01938400
v -0.02290900 -0.09987600 -0.01938400
v -0.02290900 -0.09987600 -0.01938400
v -0.02324900 -0.10128700 -0.01927200
v -0.02324900 -0.10128700 -0.01927200
v -0.02324900 -0.10128700 -0.01927200
v -0.02377800 -0.10113600 -0.01928400
v -0.02377800 -0.10113600 -0.01928400
v -0.01849300 -0.09635200 -0.01966400
v -0.01849300 -0.09761400 -0.01956400
v -0.01849300 -0.09761400 -0.01956400
v -0.01852500 -0.09630900 -0.01966800
v -0.01852500 -0.09630900 -0.01966800
v -0.01852500 -0.09630900 -0.01966800
v -0.01855300 -0.09629200 -0.01966900
v -0.01855300 -0.09629200 -0.01966900
v -0.02074900 -0.09800000 -0.01953300
v -0.02074900 -0.09800000 -0.01953300
v -0.02074900 -0.09800000 -0.01953300
v -0.02191300 -0.09813600 -0.01952300
v -0.02191300 -0.09813600 -0.01952300
v -0.02191300 -0.09813600 -0.01952300
v -0.02075100 -0.09803500 -0.01953100
v -0.02075100 -0.09803500 -0.01953100
v -0.02075100 -0.09803500 -0.01953100
v -0.02075100 -0.09803500 -0.01953100
v -0.02191200 -0.09816900 -0.01952000
v -0.02191200 -0.09816900 -0.01952000
v -0.02440200 -0.10053600 -0.01933200
v -0.02440200 -0.10053600 -0.01933200
v -0.02453100 -0.10024000 -0.01935600
v -0.02453100 -0.10024000 -0.01935600
v -0.02453100 -0.10024000 -0.01935600
v -0.02333600 -0.09949500 -0.01941500
v -0.02333600 -0.09949500 -0.01941500
v -0.02333600 -0.09949500 -0.01941500
v -0.02460600 -0.09989700 -0.01938300
v -0.02460600 -0.09989700 -0.01938300
v -0.02460600 -0.09989700 -0.01938300
v -0.02337600 -0.09927000 -0.01943300
v -0.02337600 -0.09927000 -0.01943300
v -0.02337600 -0.09927000 -0.01943300
v -0.02462700 -0.09954700 -0.01941100
v -0.02462700 -0.09954700 -0.01941100
v -0.02462700 -0.09954700 -0.01941100
v -0.02337900 -0.09834600 -0.01950700
v -0.02337900 -0.09834600 -0.01950700
v -0.02337900 -0.09834600 -0.01950700
v -0.02462900 -0.09716000 -0.01960200
v -0.02462900 -0.09716000 -0.01960200
v -0.02462900 -0.09716000 -0.01960200
v -0.02461500 -0.09708500 -0.01960800
v -0.02461500 -0.09708500 -0.01960800
v -0.02461500 -0.09708500 -0.01960800
v -0.02458200 -0.09704400 -0.01961100
v -0.02197300 -0.09811300 -0.01952500
v -0.02197300 -0.09811300 -0.01952500
v -0.02233600 -0.09815700 -0.01952100
v -0.02233600 -0.09815700 -0.01952100
v -0.02233600 -0.09815700 -0.01952100
v -0.02275500 -0.09679900 -0.01963000
v -0.02275500 -0.09679900 -0.01963000
v -0.02275500 -0.09679900 -0.01963000
v -0.02270000 -0.09820100 -0.01951800
v -0.02270000 -0.09820100 -0.01951800
v -0.02270000 -0.09820100 -0.01951800
v -0.02310200 -0.09684200 -0.01962700
v -0.02310200 -0.09684200 -0.01962700
v -0.02310200 -0.09684200 -0.01962700
v -0.02300800 -0.09823800 -0.01951500
v -0.02300800 -0.09823800 -0.01951500
v -0.02300800 -0.09823800 -0.01951500
v -0.02345000 -0.09688500 -0.01962300
v -0.02345000 -0.09688500 -0.01962300
v -0.02345000 -0.09688500 -0.01962300
v -0.02331600 -0.09827500 -0.01951200
v -0.02331600 -0.09827500 -0.01951200
v -0.02331600 -0.09827500 -0.01951200
v -0.02376400 -0.09692400 -0.01962000
v -0.02376400 -0.09692400 -0.01962000
v -0.02376400 -0.09692400 -0.01962000
v -0.02333300 -0.09827800 -0.01951200
v -0.02333300 -0.09827800 -0.01951200
v -0.02333300 -0.09827800 -0.01951200
v -0.02407700 -0.09696200 -0.01961700
v -0.02407700 -0.09696200 -0.01961700
v -0.02407700 -0.09696200 -0.01961700
v -0.02428700 -0.09698800 -0.01961500
v -0.02428700 -0.09698800 -0.01961500
v -0.02191100 -0.09840100 -0.01950200
v -0.02191100 -0.09840100 -0.01950200
v -0.02191100 -0.09840100 -0.01950200
v -0.02075000 -0.09860400 -0.01948500
v -0.02075000 -0.09860400 -0.01948500
v -0.02075000 -0.09860400 -0.01948500
v -0.02191100 -0.09865800 -0.01948100
v -0.02191100 -0.09865800 -0.01948100
v -0.02191100 -0.09865800 -0.01948100
v -0.02075600 -0.09917200 -0.01944000
v -0.02075600 -0.09917200 -0.01944000
v -0.02075600 -0.09917200 -0.01944000
v -0.02191000 -0.09889300 -0.01946200
v -0.02191000 -0.09889300 -0.01946200
v -0.02191000 -0.09889300 -0.01946200
v -0.02076400 -0.09929400 -0.01943000
v -0.02076400 -0.09929400 -0.01943000
v -0.02076400 -0.09929400 -0.01943000
v -0.02077800 -0.09941600 -0.01942000
v -0.02077800 -0.09941600 -0.01942000
vn 0.00040100 -0.07953900 -0.99683200
vn 0.00026600 -0.07933100 -0.99684800
vn 0.00028400 -0.07962800 -0.99682500
vn 0.00031000 -0.07971100 -0.99681800
vn 0.00029900 -0.07961900 -0.99682500
vn 0.00040700 -0.07955500 -0.99683000
vn 0.00029900 -0.07961900 -0.99682500
vn 0.00027100 -0.07960300 -0.99682700
vn 0.00028400 -0.07962800 -0.99682500
vn 0.00029000 -0.07961400 -0.99682600
vn -0.00015200 -0.07977400 -0.99681300
vn 0.00021700 -0.07962000 -0.99682500
vn 0.00038100 -0.07950700 -0.99683400
vn -0.00015200 -0.07977400 -0.99681300
vn 0.00029900 -0.07961900 -0.99682500
vn 0.00024100 -0.07961400 -0.99682600
vn 0.00011000 -0.07972900 -0.99681700
vn 0.00027700 -0.07961700 -0.99682600
vn 0.00050800 -0.07952200 -0.99683300
vn 0.00024100 -0.07961400 -0.99682600
vn 0.00049500 -0.07947400 -0.99683700
vn 0.00011000 -0.07972900 -0.99681700
vn 0.00027100 -0.07960400 -0.99682700
vn 0.00035300 -0.07963200 -0.99682400
vn 0.00027700 -0.07961700 -0.99682600
vn 0.00024100 -0.07961400 -0.99682600
vn 0.00033100 -0.07955000 -0.99683100
vn 0.00029200 -0.07961000 -0.99682600
vn 0.00027700 -0.07961700 -0.99682600
vn 0.00027100 -0.07960400 -0.99682700
vn 0.00029800 -0.07961200 -0.99682600
vn 0.00034900 -0.07966400 -0.99682200
vn 0.00031400 -0.07960800 -0.99682600
vn 0.00033000 -0.07964400 -0.99682300
vn 0.00029300 -0.07959100 -0.99682800
vn 0.00034900 -0.07966400 -0.99682200
vn 0.00023900 -0.07960000 -0.99682700
vn 0.00030400 -0.07960300 -0.99682700
vn 0.00034900 -0.07966400 -0.99682200
vn 0.00029300 -0.07959100 -0.99682800
vn 0.00033000 -0.07964400 -0.99682300
vn 0.00039400 -0.07961500 -0.99682600
vn -0.00002500 -0.07961600 -0.99682600
vn 0.00018800 -0.07958400 -0.99682800
vn 0.00005400 -0.07960200 -0.99682700
vn 0.00007300 -0.07957300 -0.99682900
vn 0.00071500 -0.07951200 -0.99683400
vn 0.00005400 -0.07960200 -0.99682700
vn 0.00007300 -0.07957300 -0.99682900
vn -0.00002500 -0.07961600 -0.99682600
vn 0.00005400 -0.07960200 -0.99682700
vn 0.00027700 -0.07962700 -0.99682500
vn 0.00071500 -0.07951200 -0.99683400
vn 0.00007300 -0.07957300 -0.99682900
vn -0.00011500 -0.07967000 -0.99682100
vn -0.00011500 -0.07967000 -0.99682100
vn 0.00071500 -0.07951200 -0.99683400
vn 0.00041100 -0.07957900 -0.99682800
vn 0.00027700 -0.07962700 -0.99682500
vn -0.00011500 -0.07967000 -0.99682100
vn 0.00027700 -0.07962700 -0.99682500
vn 0.00024900 -0.07959900 -0.99682700
vn 0.00041100 -0.07957900 -0.99682800
vn 0.00024900 -0.07959900 -0.99682700
vn 0.00017600 -0.07962100 -0.99682500
vn 0.00041100 -0.07957900 -0.99682800
vn 0.00039700 -0.07960300 -0.99682700
vn 0.00024900 -0.07959900 -0.99682700
vn 0.00017600 -0.07962100 -0.99682500
vn 0.00041500 -0.07959400 -0.99682700
vn 0.00039700 -0.07960300 -0.99682700
vn 0.00017600 -0.07962100 -0.99682500
vn 0.00039700 -0.07960300 -0.99682700
vn 0.00022300 -0.07960700 -0.99682600
vn 0.00041500 -0.07959400 -0.99682700
vn 0.00022300 -0.07960700 -0.99682600
vn 0.00026800 -0.07959100 -0.99682800
vn 0.00041500 -0.07959400 -0.99682700
vn 0.00022200 -0.07959600 -0.99682700
vn 0.00022300 -0.07960700 -0.99682600
vn 0.00026800 -0.07959100 -0.99682800
vn 0.00049100 -0.07956000 -0.99683000
vn 0.00022200 -0.07959600 -0.99682700
vn 0.00026800 -0.07959100 -0.99682800
vn 0.00022200 -0.07959600 -0.99682700
vn 0.00037500 -0.07958200 -0.99682800
vn 0.00049100 -0.07956000 -0.99683000
vn 0.00027900 -0.07961900 -0.99682500
vn 0.00049100 -0.07956000 -0.99683000
vn 0.00037500 -0.07958200 -0.99682800
vn 0.00027900 -0.07961900 -0.99682500
vn 0.00037500 -0.07958200 -0.99682800
vn 0.00022300 -0.07963700 -0.99682400
vn 0.00026000 -0.07961700 -0.99682500
vn 0.00027900 -0.07961900 -0.99682500
vn 0.00022300 -0.07963700 -0.99682400
vn 0.00040800 -0.07951100 -0.99683400
vn 0.00026000 -0.07961700 -0.99682500
vn 0.00022300 -0.07963700 -0.99682400
vn 0.00020600 -0.07966400 -0.99682200
vn 0.00040800 -0.07951100 -0.99683400
vn 0.00026000 -0.07961700 -0.99682500
vn 0.00022600 -0.07966000 -0.99682200
vn 0.00040800 -0.07951100 -0.99683400
vn 0.00020600 -0.07966400 -0.99682200
vn 0.00031000 -0.07971100 -0.99681800
vn 0.00020600 -0.07966400 -0.99682200
vn 0.00022600 -0.07966000 -0.99682200
vn 0.00038100 -0.07950700 -0.99683400
vn 0.00028400 -0.07962800 -0.99682500
vn 0.00038100 -0.07950700 -0.99683400
vn 0.00022600 -0.07966000 -0.99682200
vn 0.00027800 -0.07960900 -0.99682600
vn 0.00025300 -0.07960700 -0.99682600
vn 0.00032600 -0.07951800 -0.99683300
vn 0.00035800 -0.07947800 -0.99683700
vn 0.00035800 -0.07947800 -0.99683700
vn 0.00031900 -0.07963400 -0.99682400
vn 0.00027800 -0.07960900 -0.99682600
vn 0.00035800 -0.07947800 -0.99683700
vn 0.00031100 -0.07963200 -0.99682400
vn 0.00031900 -0.07963400 -0.99682400
vn 0.00031100 -0.07963200 -0.99682400
vn 0.00033100 -0.07958900 -0.99682800
vn 0.00031900 -0.07963400 -0.99682400
vn 0.00033100 -0.07958900 -0.99682800
vn 0.00034300 -0.07957100 -0.99682900
vn 0.00031100 -0.07963200 -0.99682400
vn 0.00033100 -0.07958900 -0.99682800
vn 0.00033800 -0.07957800 -0.99682900
vn 0.00034300 -0.07957100 -0.99682900
vn 0.00034300 -0.07957100 -0.99682900
vn 0.00032500 -0.07959100 -0.99682800
vn 0.00033800 -0.07957800 -0.99682900
vn 0.00032500 -0.07959100 -0.99682800
vn 0.00033800 -0.07957800 -0.99682900
vn 0.00032200 -0.07958900 -0.99682800
vn 0.00032500 -0.07959100 -0.99682800
vn 0.00051800 -0.07957500 -0.99682900
vn 0.00032200 -0.07958900 -0.99682800
vn 0.00051800 -0.07957500 -0.99682900
vn 0.00032200 -0.07958900 -0.99682800
vn 0.00024400 -0.07959300 -0.99682700
vn 0.00051800 -0.07957500 -0.99682900
vn 0.00024400 -0.07959300 -0.99682700
vn 0.00023900 -0.07960000 -0.99682700
vn 0.00024400 -0.07959300 -0.99682700
vn 0.00030400 -0.07960300 -0.99682700
vn 0.00023900 -0.07960000 -0.99682700
vn 0.00029300 -0.07959100 -0.99682800
vn 0.00030400 -0.07960300 -0.99682700
vn 0.00046200 -0.07960200 -0.99682700
vn 0.00046200 -0.07960200 -0.99682700
vn 0.00018800 -0.07958400 -0.99682800
vn 0.00046200 -0.07960300 -0.99682700
vn 0.00018800 -0.07958400 -0.99682800
vn 0.00039400 -0.07961500 -0.99682600
vn 0.00039400 -0.07961500 -0.99682600
vn -0.00002500 -0.07961600 -0.99682600
vn 0.00031000 -0.07971100 -0.99681800
vn 0.00030300 -0.07961700 -0.99682500
vn 0.00026600 -0.07933100 -0.99684800
vn 0.00026600 -0.07933100 -0.99684800
vn 0.00027200 -0.07938400 -0.99684400
vn 0.00030300 -0.07961700 -0.99682500
vn 0.00030300 -0.07961700 -0.99682500
vn 0.00029200 -0.07961900 -0.99682500
vn 0.00030200 -0.07965300 -0.99682300
vn 0.00027200 -0.07938400 -0.99684400
vn 0.00029200 -0.07961900 -0.99682500
vn 0.00027200 -0.07938500 -0.99684400
vn 0.00033000 -0.07964400 -0.99682300
vn 0.00029800 -0.07961200 -0.99682600
vn 0.00027600 -0.07958300 -0.99682800
vn 0.00029800 -0.07961200 -0.99682600
vn 0.00031400 -0.07960800 -0.99682600
vn 0.00027600 -0.07958300 -0.99682800
vn 0.00022600 -0.07941800 -0.99684100
vn 0.00031400 -0.07960800 -0.99682600
vn 0.00027600 -0.07958300 -0.99682800
vn 0.00030500 -0.07957300 -0.99682900
vn 0.00022600 -0.07941800 -0.99684100
vn 0.00022600 -0.07941800 -0.99684100
vn 0.00031700 -0.07963300 -0.99682400
vn 0.00030500 -0.07957300 -0.99682900
vn 0.00031700 -0.07963300 -0.99682400
vn 0.00028300 -0.07959700 -0.99682700
vn 0.00030500 -0.07957300 -0.99682900
vn 0.00028300 -0.07959700 -0.99682700
vn 0.00031700 -0.07963300 -0.99682400
vn 0.00033100 -0.07955000 -0.99683100
vn 0.00029200 -0.07961000 -0.99682600
vn 0.00033100 -0.07955000 -0.99683100
vn 0.00028300 -0.07959700 -0.99682700
vn 0.00027100 -0.07960400 -0.99682700
vn 0.00029200 -0.07961000 -0.99682600
vn 0.00035300 -0.07963200 -0.99682400
vn 0.00035300 -0.07963200 -0.99682400
vn -0.00015200 -0.07977400 -0.99681300
vn 0.00029000 -0.07961400 -0.99682600
vn 0.00029000 -0.07961400 -0.99682600
vn 0.00021700 -0.07962000 -0.99682500
vn 0.00031100 -0.07959400 -0.99682700
vn 0.00021700 -0.07962000 -0.99682500
vn 0.00038700 -0.07958600 -0.99682800
vn 0.00031100 -0.07959400 -0.99682700
vn 0.00038700 -0.07958600 -0.99682800
vn 0.00031100 -0.07959400 -0.99682700
vn 0.00030800 -0.07961300 -0.99682600
vn 0.00022800 -0.07961600 -0.99682600
vn 0.00038700 -0.07958600 -0.99682800
vn 0.00030800 -0.07961300 -0.99682600
vn 0.00022800 -0.07961600 -0.99682600
vn 0.00030800 -0.07961300 -0.99682600
vn 0.00032500 -0.07958900 -0.99682800
vn 0.00032500 -0.07958900 -0.99682800
vn 0.00022800 -0.07961600 -0.99682600
vn 0.00035900 -0.07958200 -0.99682800
vn 0.00035900 -0.07958200 -0.99682800
vn 0.00032500 -0.07958900 -0.99682800
vn 0.00022000 -0.07963900 -0.99682400
vn 0.00050800 -0.07950300 -0.99683500
vn 0.00035900 -0.07958200 -0.99682800
vn 0.00022000 -0.07963900 -0.99682400
vn 0.00050800 -0.07950300 -0.99683500
vn 0.00022000 -0.07963900 -0.99682400
vn 0.00050800 -0.07952200 -0.99683300
vn 0.00050800 -0.07950300 -0.99683500
vn 0.00050800 -0.07952200 -0.99683300
vn 0.00049500 -0.07947400 -0.99683700
vn 0.00049500 -0.07947400 -0.99683700
vn 0.00011000 -0.07972900 -0.99681700
vn 0.00029200 -0.07961900 -0.99682500
vn 0.00030200 -0.07965300 -0.99682300
vn 0.00032800 -0.07951700 -0.99683300
vn 0.00030200 -0.07965300 -0.99682300
vn 0.00032800 -0.07951700 -0.99683300
vn 0.00032700 -0.07954200 -0.99683100
vn 0.00032800 -0.07951700 -0.99683300
vn 0.00032700 -0.07954200 -0.99683100
vn 0.00020300 -0.07980500 -0.99681000
vn 0.00026300 -0.07959100 -0.99682800
vn 0.00032700 -0.07954200 -0.99683100
vn 0.00020300 -0.07980500 -0.99681000
vn 0.00020300 -0.07980500 -0.99681000
vn 0.00026300 -0.07959100 -0.99682800
vn 0.00025300 -0.07960700 -0.99682600
vn 0.00026300 -0.07959100 -0.99682800
vn 0.00032600 -0.07951800 -0.99683300
vn 0.00025300 -0.07960700 -0.99682600
vn 0.00032600 -0.07951800 -0.99683300
vn 0.00027800 -0.07960900 -0.99682600
f 1//1 6//6 8//8
f 7//7 5//5 15//15
f 16//16 20//20 26//26
f 25//25 18//18 29//29
f 32//32 36//36 39//39
f 45//45 48//48 51//51
f 49//49 46//46 54//54
f 47//47 57//57 53//53
f 55//55 56//56 60//60
f 52//52 59//59 61//61
f 63//63 58//58 66//66
f 62//62 64//64 68//68
f 69//69 65//65 72//72
f 67//67 71//71 73//73
f 75//75 70//70 78//78
f 74//74 76//76 80//80
f 81//81 77//77 84//84
f 79//79 83//83 85//85
f 87//87 82//82 89//89
f 86//86 90//90 92//92
f 91//91 88//88 95//95
f 93//93 96//96 99//99
f 98//98 94//94 102//102
f 97//97 101//101 104//104
f 105//105 100//100 107//107
f 103//103 108//108 112//112
f 111//111 109//109 13//13
f 116//116 117//117 120//120
f 122//122 118//118 125//125
f 121//121 123//123 128//128
f 126//126 124//124 129//129
f 127//127 131//131 132//132
f 134//134 130//130 136//136
f 133//133 135//135 138//138
f 140//140 137//137 142//142
f 139//139 141//141 144//144
f 145//145 143//143 147//147
f 146//146 149//149 37//37
f 38//38 148//148 151//151
f 35//35 150//150 40//40
f 152//152 153//153 155//155
f 156//156 154//154 44//44
f 157//157 42//42 158//158
f 159//159 43//43 50//50
f 9//9 110//110 3//3
f 4//4 106//106 160//160
f 2//2 162//162 163//163
f 165//165 161//161 166//166
f 164//164 169//169 171//171
f 41//41 172//172 34//34
f 31//31 173//173 175//175
f 33//33 176//176 179//179
f 177//177 174//174 180//180
f 178//178 182//182 183//183
f 185//185 181//181 188//188
f 184//184 186//186 190//190
f 189//189 187//187 194//194
f 191//191 193//193 27//27
f 28//28 192//192 196//196
f 30//30 195//195 23//23
f 24//24 197//197 198//198
f 14//14 199//199 11//11
f 10//10 200//200 201//201
f 12//12 202//202 204//204
f 206//206 203//203 208//208
f 205//205 207//207 211//211
f 212//212 209//209 214//214
f 210//210 213//213 217//217
f 216//216 215//215 220//220
f 218//218 219//219 223//223
f 224//224 221//221 226//226
f 222//222 225//225 228//228
f 229//229 227//227 19//19
f 230//230 21//21 231//231
f 232//232 22//22 17//17
f 170//170 167//167 233//233
f 234//234 168//168 236//236
f 235//235 237//237 239//239
f 240//240 238//238 243//243
f 241//241 244//244 245//245
f 246//246 242//242 248//248
f 247//247 250//250 114//114
f 115//115 249//249 251//251
f 113//113 252//252 119//119

