# https://github.com/mikedh/trimesh
v -0.01853100 -0.10494300 0.01897800
v -0.01853100 -0.10494300 0.01897800
v -0.01858300 -0.10493100 0.01897900
v -0.01858300 -0.10493100 0.01897900
v -0.01858300 -0.10493100 0.01897900
v -0.01875500 -0.10631900 0.01886900
v -0.01875500 -0.10631900 0.01886900
v -0.01875500 -0.10631900 0.01886900
v -0.01875500 -0.10631900 0.01886900
v -0.01875500 -0.10631900 0.01886900
v -0.02282000 -0.10586200 0.01890600
v -0.02282000 -0.10586200 0.01890600
v -0.02249600 -0.10589800 0.01890300
v -0.02249600 -0.10589800 0.01890300
v -0.02249600 -0.10589800 0.01890300
v -0.02249600 -0.10589800 0.01890300
v -0.02249600 -0.10589800 0.01890300
v -0.02297900 -0.10550300 0.01893500
v -0.02297900 -0.10550300 0.01893500
v -0.02297900 -0.10550300 0.01893500
v -0.02297900 -0.10550300 0.01893500
v -0.02297900 -0.10550300 0.01893500
v -0.01864500 -0.10633000 0.01886800
v -0.01864500 -0.10633000 0.01886800
v -0.01853600 -0.10634800 0.01886600
v -0.01853600 -0.10634800 0.01886600
v -0.01845000 -0.10502100 0.01897200
v -0.01845000 -0.10502100 0.01897200
v -0.01845000 -0.10502100 0.01897200
v -0.01845000 -0.10502100 0.01897200
v -0.01845000 -0.10502100 0.01897200
v -0.01850600 -0.10634700 0.01886600
v -0.01850600 -0.10634700 0.01886600
v -0.01850600 -0.10634700 0.01886600
v -0.01850600 -0.10634700 0.01886600
v -0.01844500 -0.10566700 0.01892100
v -0.01844500 -0.10566700 0.01892100
v -0.01907100 -0.10628300 0.01887200
v -0.01907100 -0.10628300 0.01887200
v -0.01907100 -0.10628300 0.01887200
v -0.01907100 -0.10628300 0.01887200
v -0.01843800 -0.10631200 0.01886900
v -0.01843800 -0.10631200 0.01886900
v -0.01843800 -0.10631200 0.01886900
v -0.01847500 -0.10634800 0.01886600
v -0.01847500 -0.10634800 0.01886600
v -0.01847500 -0.10634800 0.01886600
v -0.01847500 -0.10634800 0.01886600
v -0.01847500 -0.10634800 0.01886600
v -0.01843900 -0.10632300 0.01886800
v -0.01843900 -0.10632300 0.01886800
v -0.01882900 -0.10490300 0.01898200
v -0.01882900 -0.10490300 0.01898200
v -0.01907500 -0.10487400 0.01898400
v -0.01907500 -0.10487400 0.01898400
v -0.01907500 -0.10487400 0.01898400
v -0.01938700 -0.10624800 0.01887400
v -0.01938700 -0.10624800 0.01887400
v -0.01938700 -0.10624800 0.01887400
v -0.01939900 -0.10483800 0.01898700
v -0.01939900 -0.10483800 0.01898700
v -0.01939900 -0.10483800 0.01898700
v -0.02009100 -0.10616900 0.01888100
v -0.02009100 -0.10616900 0.01888100
v -0.02009100 -0.10616900 0.01888100
v -0.02009100 -0.10616900 0.01888100
v -0.02298100 -0.10528000 0.01895300
v -0.02298100 -0.10528000 0.01895300
v -0.02298100 -0.10528000 0.01895300
v -0.02298100 -0.10528000 0.01895300
v -0.01849500 -0.10496300 0.01897700
v -0.01849500 -0.10496300 0.01897700
v -0.02286000 -0.10444900 0.01901900
v -0.02286000 -0.10444900 0.01901900
v -0.02286000 -0.10444900 0.01901900
v -0.02286000 -0.10444900 0.01901900
v -0.02293200 -0.10445200 0.01901900
v -0.02296000 -0.10446700 0.01901800
v -0.02296000 -0.10446700 0.01901800
v -0.01845500 -0.10634800 0.01886600
v -0.01844700 -0.10634400 0.01886600
v -0.01844700 -0.10634400 0.01886600
v -0.01844300 -0.10633900 0.01886700
v -0.01844300 -0.10633900 0.01886700
v -0.02297800 -0.10449600 0.01901500
v -0.02297800 -0.10449600 0.01901500
v -0.02298700 -0.10456500 0.01901000
v -0.02298700 -0.10456500 0.01901000
v -0.02298700 -0.10456500 0.01901000
v -0.02254800 -0.10448300 0.01901600
v -0.02254800 -0.10448300 0.01901600
v -0.02254800 -0.10448300 0.01901600
v -0.02223600 -0.10451900 0.01901300
v -0.02223600 -0.10451900 0.01901300
v -0.02223600 -0.10451900 0.01901300
v -0.02188400 -0.10455800 0.01901000
v -0.02188400 -0.10455800 0.01901000
v -0.02188400 -0.10455800 0.01901000
v -0.02217200 -0.10593400 0.01890000
v -0.02217200 -0.10593400 0.01890000
v -0.02217200 -0.10593400 0.01890000
v -0.02153100 -0.10459800 0.01900700
v -0.02153100 -0.10459800 0.01900700
v -0.02153100 -0.10459800 0.01900700
v -0.02186600 -0.10596900 0.01889700
v -0.02186600 -0.10596900 0.01889700
v -0.02186600 -0.10596900 0.01889700
v -0.02125500 -0.10462900 0.01900400
v -0.02125500 -0.10462900 0.01900400
v -0.02125500 -0.10462900 0.01900400
v -0.02156000 -0.10600400 0.01889500
v -0.02156000 -0.10600400 0.01889500
v -0.02156000 -0.10600400 0.01889500
v -0.02097900 -0.10466000 0.01900200
v -0.02097900 -0.10466000 0.01900200
v -0.02097900 -0.10466000 0.01900200
v -0.02120800 -0.10604300 0.01889100
v -0.02120800 -0.10604300 0.01889100
v -0.02120800 -0.10604300 0.01889100
v -0.02062500 -0.10470000 0.01899800
v -0.02062500 -0.10470000 0.01899800
v -0.02062500 -0.10470000 0.01899800
v -0.02085500 -0.10608200 0.01888800
v -0.02085500 -0.10608200 0.01888800
v -0.02085500 -0.10608200 0.01888800
v -0.02027100 -0.10474000 0.01899500
v -0.02027100 -0.10474000 0.01899500
v -0.02027100 -0.10474000 0.01899500
v -0.02047300 -0.10612500 0.01888400
v -0.02047300 -0.10612500 0.01888400
v -0.02047300 -0.10612500 0.01888400
v -0.01999700 -0.10477100 0.01899300
v -0.01999700 -0.10477100 0.01899300
v -0.01999700 -0.10477100 0.01899300
v -0.01972300 -0.10480200 0.01899000
v -0.01972300 -0.10480200 0.01899000
v -0.02295900 -0.10579900 0.01891100
v -0.02292500 -0.10583300 0.01890900
v -0.02292500 -0.10583300 0.01890900
v -0.02297700 -0.10572600 0.01891700
v -0.02297700 -0.10572600 0.01891700
v -0.02297700 -0.10572600 0.01891700
v -0.02287200 -0.10585400 0.01890700
v -0.02287200 -0.10585400 0.01890700
v -0.02287200 -0.10585400 0.01890700
v -0.02284600 -0.10585800 0.01890700
v -0.02284600 -0.10585800 0.01890700
vn 0.00038800 -0.07956700 0.99682900
vn 0.00039900 -0.07959600 0.99682700
vn 0.00029600 -0.07958700 0.99682800
vn 0.00038800 -0.07956700 0.99682900
vn 0.00040400 -0.07963500 0.99682400
vn 0.00029600 -0.07958700 0.99682800
vn 0.00003000 -0.07951400 0.99683400
vn 0.00038800 -0.07956700 0.99682900
vn 0.00039900 -0.07959600 0.99682700
vn 0.00043100 -0.07961900 0.99682500
vn 0.00029100 -0.07949100 0.99683600
vn 0.00032700 -0.07955100 0.99683100
vn 0.00029100 -0.07949100 0.99683600
vn 0.00028000 -0.07955800 0.99683000
vn 0.00043900 -0.07963800 0.99682400
vn 0.00016900 -0.07962600 0.99682500
vn 0.00023000 -0.07955700 0.99683000
vn 0.00016900 -0.07962600 0.99682500
vn 0.00041300 -0.07957900 0.99682900
vn 0.00029100 -0.07949100 0.99683600
vn 0.00020800 -0.07965900 0.99682200
vn 0.00032700 -0.07955100 0.99683100
vn 0.00003000 -0.07951400 0.99683400
vn 0.00039000 -0.07957100 0.99682900
vn 0.00028200 -0.07961500 0.99682600
vn 0.00039000 -0.07957100 0.99682900
vn 0.00043100 -0.07961900 0.99682500
vn 0.00003000 -0.07951400 0.99683400
vn 0.00028200 -0.07961500 0.99682600
vn 0.00039000 -0.07957100 0.99682900
vn 0.00024100 -0.07959100 0.99682800
vn 0.00024400 -0.07962400 0.99682500
vn 0.00010000 -0.07957900 0.99682900
vn 0.00024100 -0.07959100 0.99682800
vn 0.00028200 -0.07961500 0.99682600
vn 0.00010000 -0.07957900 0.99682900
vn 0.00024100 -0.07959100 0.99682800
vn 0.00018500 -0.07958900 0.99682800
vn 0.00040400 -0.07963500 0.99682400
vn 0.00029600 -0.07958700 0.99682800
vn 0.00039000 -0.07959500 0.99682700
vn 0.00063200 -0.07963800 0.99682400
vn 0.00024400 -0.07962400 0.99682500
vn 0.00010000 -0.07957900 0.99682900
vn 0.00044300 -0.08005100 0.99679100
vn 0.00036400 -0.07964900 0.99682300
vn 0.00039400 -0.07968000 0.99682000
vn 0.00063200 -0.07963800 0.99682400
vn 0.00024400 -0.07962400 0.99682500
vn 0.00039400 -0.07968000 0.99682000
vn 0.00063200 -0.07963800 0.99682400
vn 0.00040400 -0.07963500 0.99682400
vn 0.00018500 -0.07958900 0.99682800
vn 0.00027700 -0.07956200 0.99683000
vn 0.00039000 -0.07959500 0.99682700
vn 0.00018500 -0.07958900 0.99682800
vn 0.00039000 -0.07959500 0.99682700
vn 0.00027700 -0.07956200 0.99683000
vn 0.00024500 -0.07956300 0.99683000
vn 0.00030200 -0.07960200 0.99682700
vn 0.00024500 -0.07956300 0.99683000
vn 0.00027700 -0.07956200 0.99683000
vn 0.00029100 -0.07963500 0.99682400
vn 0.00024500 -0.07956300 0.99683000
vn 0.00030200 -0.07960200 0.99682700
vn 0.00048500 -0.07964200 0.99682300
vn 0.00019200 -0.07957000 0.99682900
vn 0.00028000 -0.07955800 0.99683000
vn 0.00016900 -0.07962600 0.99682500
vn 0.00017600 -0.07946000 0.99683800
vn 0.00043100 -0.07961900 0.99682500
vn 0.00039900 -0.07959600 0.99682700
vn 0.00021000 -0.07913100 0.99686400
vn 0.00035800 -0.07975200 0.99681500
vn -0.00002800 -0.07961400 0.99682600
vn 0.00024900 -0.07987400 0.99680500
vn 0.00021000 -0.07913100 0.99686400
vn 0.00021000 -0.07913100 0.99686400
vn 0.00035800 -0.07975200 0.99681500
vn 0.00044200 -0.08005100 0.99679100
vn 0.00036900 -0.07970900 0.99681800
vn 0.00038900 -0.07979600 0.99681100
vn 0.00036600 -0.07959600 0.99682700
vn 0.00039400 -0.07968000 0.99682000
vn 0.00035800 -0.07975200 0.99681500
vn -0.00002800 -0.07961400 0.99682600
vn 0.00019200 -0.07957000 0.99682900
vn 0.00024900 -0.07987400 0.99680500
vn -0.00002800 -0.07961400 0.99682600
vn 0.00019200 -0.07957000 0.99682900
vn 0.00024900 -0.07987400 0.99680500
vn 0.00017600 -0.07946000 0.99683800
vn 0.00023000 -0.07955700 0.99683000
vn 0.00017600 -0.07946000 0.99683800
vn 0.00028000 -0.07955800 0.99683000
vn 0.00039300 -0.07963700 0.99682400
vn 0.00043900 -0.07963800 0.99682400
vn 0.00023000 -0.07955700 0.99683000
vn 0.00024400 -0.07956500 0.99683000
vn 0.00039300 -0.07963700 0.99682400
vn 0.00043900 -0.07963800 0.99682400
vn 0.00024400 -0.07956500 0.99683000
vn 0.00018500 -0.07954000 0.99683200
vn 0.00039300 -0.07963700 0.99682400
vn 0.00027300 -0.07958800 0.99682800
vn 0.00018500 -0.07954000 0.99683200
vn 0.00024400 -0.07956500 0.99683000
vn 0.00040700 -0.07961800 0.99682500
vn 0.00027300 -0.07958800 0.99682800
vn 0.00018500 -0.07954000 0.99683200
vn 0.00025600 -0.07955700 0.99683000
vn 0.00040700 -0.07961800 0.99682500
vn 0.00027300 -0.07958800 0.99682800
vn 0.00014700 -0.07953100 0.99683200
vn 0.00025600 -0.07955700 0.99683000
vn 0.00040700 -0.07961800 0.99682500
vn 0.00039300 -0.07963500 0.99682400
vn 0.00014700 -0.07953100 0.99683200
vn 0.00025600 -0.07955700 0.99683000
vn 0.00014700 -0.07953100 0.99683200
vn 0.00039300 -0.07963500 0.99682400
vn 0.00032400 -0.07962900 0.99682500
vn 0.00034100 -0.07963500 0.99682400
vn 0.00032400 -0.07962900 0.99682500
vn 0.00039300 -0.07963500 0.99682400
vn 0.00034100 -0.07963500 0.99682400
vn 0.00026700 -0.07961800 0.99682500
vn 0.00032400 -0.07962900 0.99682500
vn 0.00026700 -0.07961800 0.99682500
vn 0.00034100 -0.07963500 0.99682400
vn 0.00029100 -0.07963500 0.99682400
vn 0.00026700 -0.07961800 0.99682500
vn 0.00048500 -0.07964200 0.99682300
vn 0.00029100 -0.07963500 0.99682400
vn 0.00048500 -0.07964200 0.99682300
vn 0.00030200 -0.07960200 0.99682700
vn 0.00015100 -0.07959700 0.99682700
vn 0.00015100 -0.07959700 0.99682700
vn 0.00035700 -0.07953600 0.99683200
vn 0.00015100 -0.07959700 0.99682700
vn 0.00035700 -0.07953600 0.99683200
vn 0.00020800 -0.07965900 0.99682200
vn 0.00035700 -0.07953600 0.99683200
vn 0.00020800 -0.07965900 0.99682200
vn 0.00041300 -0.07957900 0.99682900
vn 0.00041300 -0.07957900 0.99682900
vn 0.00032700 -0.07955100 0.99683100
f 1//1 4//4 8//8
f 11//11 13//13 20//20
f 24//24 26//26 30//30
f 29//29 25//25 35//35
f 31//31 34//34 37//37
f 6//6 3//3 40//40
f 36//36 33//33 44//44
f 43//43 32//32 49//49
f 42//42 48//48 51//51
f 5//5 52//52 39//39
f 38//38 53//53 56//56
f 41//41 55//55 57//57
f 58//58 54//54 62//62
f 59//59 61//61 64//64
f 18//18 16//16 69//69
f 23//23 28//28 7//7
f 10//10 27//27 71//71
f 9//9 72//72 2//2
f 73//73 77//77 78//78
f 80//80 81//81 45//45
f 46//46 82//82 83//83
f 47//47 84//84 50//50
f 79//79 85//85 74//74
f 75//75 86//86 89//89
f 76//76 88//88 91//91
f 90//90 87//87 67//67
f 92//92 70//70 94//94
f 95//95 68//68 14//14
f 93//93 17//17 98//98
f 97//97 15//15 101//101
f 96//96 100//100 104//104
f 102//102 99//99 107//107
f 103//103 106//106 110//110
f 109//109 105//105 113//113
f 108//108 112//112 116//116
f 115//115 111//111 119//119
f 114//114 118//118 120//120
f 121//121 117//117 125//125
f 122//122 124//124 128//128
f 126//126 123//123 130//130
f 127//127 129//129 132//132
f 134//134 131//131 63//63
f 133//133 66//66 135//135
f 136//136 65//65 60//60
f 137//137 138//138 140//140
f 141//141 139//139 143//143
f 142//142 144//144 21//21
f 19//19 145//145 146//146
f 22//22 147//147 12//12

