# https://github.com/mikedh/trimesh
v 0.29886300 -0.00284300 -0.04730000
v 0.29886300 -0.00284300 -0.04720000
v 0.29889500 -0.00284100 -0.04720000
v 0.29889500 -0.00284100 -0.04730000
v 0.29892700 -0.00284300 -0.04720000
v 0.29892700 -0.00284300 -0.04730000
v 0.29895900 -0.00284900 -0.04720000
v 0.29895900 -0.00284900 -0.04730000
v 0.29898900 -0.00286000 -0.04720000
v 0.29898900 -0.00286000 -0.04730000
v 0.29901700 -0.00287400 -0.04720000
v 0.29901700 -0.00287400 -0.04730000
v 0.29903100 -0.00288400 -0.04720000
v 0.29903100 -0.00288400 -0.04730000
v 0.29905500 -0.00290400 -0.04720000
v 0.29905500 -0.00290400 -0.04730000
v 0.29907600 -0.00292600 -0.04720000
v 0.29907600 -0.00292600 -0.04730000
v 0.29909300 -0.00295200 -0.04720000
v 0.29909300 -0.00295200 -0.04730000
v 0.29910700 -0.00298000 -0.04720000
v 0.29910700 -0.00298000 -0.04730000
v 0.29911700 -0.00300900 -0.04720000
v 0.29911700 -0.00300900 -0.04730000
v 0.29912300 -0.00304000 -0.04720000
v 0.29912300 -0.00304000 -0.04730000
v 0.29912400 -0.00307200 -0.04720000
v 0.29912400 -0.00307200 -0.04730000
v 0.29912100 -0.00310400 -0.04720000
v 0.29912100 -0.00310400 -0.04730000
v 0.29911400 -0.00313500 -0.04720000
v 0.29911400 -0.00313500 -0.04730000
v 0.29910200 -0.00316400 -0.04720000
v 0.29910200 -0.00316400 -0.04730000
v 0.29908800 -0.00319000 -0.04720000
v 0.29908800 -0.00319000 -0.04730000
v 0.29908200 -0.00319800 -0.04720000
v 0.29908200 -0.00319800 -0.04730000
v 0.29907200 -0.00321200 -0.04730000
v 0.29907200 -0.00321200 -0.04720000
v 0.29905200 -0.00323600 -0.04720000
v 0.29905200 -0.00323600 -0.04730000
v 0.29903000 -0.00325700 -0.04720000
v 0.29903000 -0.00325700 -0.04730000
v 0.29900400 -0.00327400 -0.04720000
v 0.29900400 -0.00327400 -0.04730000
v 0.29897700 -0.00328800 -0.04720000
v 0.29897700 -0.00328800 -0.04730000
v 0.29894800 -0.00329700 -0.04720000
v 0.29894800 -0.00329700 -0.04730000
v 0.29892500 -0.00330200 -0.04720000
v 0.29892500 -0.00330200 -0.04730000
v 0.29889400 -0.00330500 -0.04720000
v 0.29889400 -0.00330500 -0.04730000
v 0.29886300 -0.00330400 -0.04720000
v 0.29886300 -0.00330400 -0.04730000
v 0.29883200 -0.00329800 -0.04720000
v 0.29883200 -0.00329800 -0.04730000
v 0.29880200 -0.00328800 -0.04720000
v 0.29880200 -0.00328800 -0.04730000
v 0.29877400 -0.00327300 -0.04720000
v 0.29877400 -0.00327300 -0.04730000
v 0.29875700 -0.00326300 -0.04720000
v 0.29875700 -0.00326300 -0.04730000
v 0.29873300 -0.00324300 -0.04720000
v 0.29873300 -0.00324300 -0.04730000
v 0.29871200 -0.00322000 -0.04720000
v 0.29871200 -0.00322000 -0.04730000
v 0.29869500 -0.00319400 -0.04720000
v 0.29869500 -0.00319400 -0.04730000
v 0.29868100 -0.00316600 -0.04720000
v 0.29868100 -0.00316600 -0.04730000
v 0.29867100 -0.00313700 -0.04720000
v 0.29867100 -0.00313700 -0.04730000
v 0.29866500 -0.00310500 -0.04720000
v 0.29866500 -0.00310500 -0.04730000
v 0.29866400 -0.00307400 -0.04720000
v 0.29866400 -0.00307400 -0.04730000
v 0.29866700 -0.00304200 -0.04720000
v 0.29866700 -0.00304200 -0.04730000
v 0.29867400 -0.00301100 -0.04720000
v 0.29867400 -0.00301100 -0.04730000
v 0.29868600 -0.00298200 -0.04720000
v 0.29868600 -0.00298200 -0.04730000
v 0.29870000 -0.00295600 -0.04720000
v 0.29870000 -0.00295600 -0.04730000
v 0.29870600 -0.00294800 -0.04720000
v 0.29870600 -0.00294800 -0.04730000
v 0.29871600 -0.00293400 -0.04730000
v 0.29871600 -0.00293400 -0.04720000
v 0.29873600 -0.00291000 -0.04720000
v 0.29873600 -0.00291000 -0.04730000
v 0.29875900 -0.00288900 -0.04720000
v 0.29875900 -0.00288900 -0.04730000
v 0.29878400 -0.00287200 -0.04720000
v 0.29878400 -0.00287200 -0.04730000
v 0.29881200 -0.00285800 -0.04720000
v 0.29881200 -0.00285800 -0.04730000
v 0.29884200 -0.00284800 -0.04720000
v 0.29884200 -0.00284800 -0.04730000
v 0.29910200 -0.00316400 -0.04730000
v 0.29910200 -0.00316400 -0.04730000
v 0.29910200 -0.00316400 -0.04730000
v 0.29910200 -0.00316400 -0.04730000
v 0.29910200 -0.00316400 -0.04730000
v 0.29910200 -0.00316400 -0.04730000
v 0.29910200 -0.00316400 -0.04730000
v 0.29910200 -0.00316400 -0.04730000
v 0.29910200 -0.00316400 -0.04730000
v 0.29908800 -0.00319000 -0.04730000
v 0.29908800 -0.00319000 -0.04730000
v 0.29908800 -0.00319000 -0.04730000
v 0.29908800 -0.00319000 -0.04730000
v 0.29908800 -0.00319000 -0.04730000
v 0.29908800 -0.00319000 -0.04730000
v 0.29908800 -0.00319000 -0.04730000
v 0.29908800 -0.00319000 -0.04730000
v 0.29908800 -0.00319000 -0.04730000
v 0.29903100 -0.00288400 -0.04730000
v 0.29903100 -0.00288400 -0.04730000
v 0.29868600 -0.00298200 -0.04730000
v 0.29868600 -0.00298200 -0.04730000
v 0.29868600 -0.00298200 -0.04730000
v 0.29868600 -0.00298200 -0.04730000
v 0.29868600 -0.00298200 -0.04730000
v 0.29868600 -0.00298200 -0.04730000
v 0.29868600 -0.00298200 -0.04730000
v 0.29870000 -0.00295600 -0.04730000
v 0.29870000 -0.00295600 -0.04730000
v 0.29870000 -0.00295600 -0.04730000
v 0.29870000 -0.00295600 -0.04730000
v 0.29870000 -0.00295600 -0.04730000
v 0.29870000 -0.00295600 -0.04730000
v 0.29870000 -0.00295600 -0.04730000
v 0.29870000 -0.00295600 -0.04730000
v 0.29870000 -0.00295600 -0.04730000
v 0.29870000 -0.00295600 -0.04730000
v 0.29875700 -0.00326300 -0.04730000
v 0.29877400 -0.00327300 -0.04730000
v 0.29877400 -0.00327300 -0.04730000
v 0.29903000 -0.00325700 -0.04730000
v 0.29903000 -0.00325700 -0.04730000
v 0.29900400 -0.00327400 -0.04730000
v 0.29900400 -0.00327400 -0.04730000
v 0.29897700 -0.00328800 -0.04730000
v 0.29897700 -0.00328800 -0.04730000
v 0.29894800 -0.00329700 -0.04730000
v 0.29894800 -0.00329700 -0.04730000
v 0.29892500 -0.00330200 -0.04730000
v 0.29892500 -0.00330200 -0.04730000
v 0.29889400 -0.00330500 -0.04730000
v 0.29889400 -0.00330500 -0.04730000
v 0.29886300 -0.00330400 -0.04730000
v 0.29886300 -0.00330400 -0.04730000
v 0.29873600 -0.00291000 -0.04730000
v 0.29873600 -0.00291000 -0.04730000
v 0.29875900 -0.00288900 -0.04730000
v 0.29875900 -0.00288900 -0.04730000
v 0.29908800 -0.00319000 -0.04730000
v 0.29908800 -0.00319000 -0.04730000
v 0.29908800 -0.00319000 -0.04730000
v 0.29878400 -0.00287200 -0.04730000
v 0.29878400 -0.00287200 -0.04730000
v 0.29871600 -0.00293400 -0.04730000
v 0.29871600 -0.00293400 -0.04730000
v 0.29908200 -0.00319800 -0.04730000
v 0.29870600 -0.00294800 -0.04730000
v 0.29870600 -0.00294800 -0.04730000
v 0.29908200 -0.00319800 -0.04730000
v 0.29907200 -0.00321200 -0.04730000
v 0.29907200 -0.00321200 -0.04730000
v 0.29907200 -0.00321200 -0.04730000
v 0.29905200 -0.00323600 -0.04730000
v 0.29905200 -0.00323600 -0.04730000
v 0.29883200 -0.00329800 -0.04730000
v 0.29883200 -0.00329800 -0.04730000
v 0.29880200 -0.00328800 -0.04730000
v 0.29880200 -0.00328800 -0.04730000
v 0.29875700 -0.00326300 -0.04730000
v 0.29873300 -0.00324300 -0.04730000
v 0.29873300 -0.00324300 -0.04730000
v 0.29871200 -0.00322000 -0.04730000
v 0.29871200 -0.00322000 -0.04730000
v 0.29869500 -0.00319400 -0.04730000
v 0.29869500 -0.00319400 -0.04730000
v 0.29881200 -0.00285800 -0.04730000
v 0.29881200 -0.00285800 -0.04730000
v 0.29884200 -0.00284800 -0.04730000
v 0.29884200 -0.00284800 -0.04730000
v 0.29886300 -0.00284300 -0.04730000
v 0.29886300 -0.00284300 -0.04730000
v 0.29903100 -0.00288400 -0.04730000
v 0.29905500 -0.00290400 -0.04730000
v 0.29905500 -0.00290400 -0.04730000
v 0.29907600 -0.00292600 -0.04730000
v 0.29907600 -0.00292600 -0.04730000
v 0.29909300 -0.00295200 -0.04730000
v 0.29909300 -0.00295200 -0.04730000
v 0.29889500 -0.00284100 -0.04730000
v 0.29889500 -0.00284100 -0.04730000
v 0.29892700 -0.00284300 -0.04730000
v 0.29892700 -0.00284300 -0.04730000
v 0.29895900 -0.00284900 -0.04730000
v 0.29895900 -0.00284900 -0.04730000
v 0.29898900 -0.00286000 -0.04730000
v 0.29898900 -0.00286000 -0.04730000
v 0.29901700 -0.00287400 -0.04730000
v 0.29901700 -0.00287400 -0.04730000
v 0.29868100 -0.00316600 -0.04730000
v 0.29868100 -0.00316600 -0.04730000
v 0.29867100 -0.00313700 -0.04730000
v 0.29867100 -0.00313700 -0.04730000
v 0.29866500 -0.00310500 -0.04730000
v 0.29866500 -0.00310500 -0.04730000
v 0.29910700 -0.00298000 -0.04730000
v 0.29910700 -0.00298000 -0.04730000
v 0.29911700 -0.00300900 -0.04730000
v 0.29911700 -0.00300900 -0.04730000
v 0.29912300 -0.00304000 -0.04730000
v 0.29912300 -0.00304000 -0.04730000
v 0.29866400 -0.00307400 -0.04730000
v 0.29866400 -0.00307400 -0.04730000
v 0.29866700 -0.00304200 -0.04730000
v 0.29866700 -0.00304200 -0.04730000
v 0.29867400 -0.00301100 -0.04730000
v 0.29912400 -0.00307200 -0.04730000
v 0.29912400 -0.00307200 -0.04730000
v 0.29912100 -0.00310400 -0.04730000
v 0.29912100 -0.00310400 -0.04730000
v 0.29911400 -0.00313500 -0.04730000
v 0.29889400 -0.00330500 -0.04720000
v 0.29889400 -0.00330500 -0.04720000
v 0.29892500 -0.00330200 -0.04720000
v 0.29892500 -0.00330200 -0.04720000
v 0.29870000 -0.00295600 -0.04720000
v 0.29870000 -0.00295600 -0.04720000
v 0.29870000 -0.00295600 -0.04720000
v 0.29870000 -0.00295600 -0.04720000
v 0.29870000 -0.00295600 -0.04720000
v 0.29870000 -0.00295600 -0.04720000
v 0.29870000 -0.00295600 -0.04720000
v 0.29870000 -0.00295600 -0.04720000
v 0.29870000 -0.00295600 -0.04720000
v 0.29870000 -0.00295600 -0.04720000
v 0.29894800 -0.00329700 -0.04720000
v 0.29894800 -0.00329700 -0.04720000
v 0.29886300 -0.00284300 -0.04720000
v 0.29884200 -0.00284800 -0.04720000
v 0.29908800 -0.00319000 -0.04720000
v 0.29908800 -0.00319000 -0.04720000
v 0.29908800 -0.00319000 -0.04720000
v 0.29908800 -0.00319000 -0.04720000
v 0.29908800 -0.00319000 -0.04720000
v 0.29908800 -0.00319000 -0.04720000
v 0.29908800 -0.00319000 -0.04720000
v 0.29908800 -0.00319000 -0.04720000
v 0.29908800 -0.00319000 -0.04720000
v 0.29889500 -0.00284100 -0.04720000
v 0.29889500 -0.00284100 -0.04720000
v 0.29909300 -0.00295200 -0.04720000
v 0.29909300 -0.00295200 -0.04720000
v 0.29907600 -0.00292600 -0.04720000
v 0.29910200 -0.00316400 -0.04720000
v 0.29910200 -0.00316400 -0.04720000
v 0.29910200 -0.00316400 -0.04720000
v 0.29910200 -0.00316400 -0.04720000
v 0.29910200 -0.00316400 -0.04720000
v 0.29910200 -0.00316400 -0.04720000
v 0.29907200 -0.00321200 -0.04720000
v 0.29907200 -0.00321200 -0.04720000
v 0.29908200 -0.00319800 -0.04720000
v 0.29908200 -0.00319800 -0.04720000
v 0.29871600 -0.00293400 -0.04720000
v 0.29871600 -0.00293400 -0.04720000
v 0.29873600 -0.00291000 -0.04720000
v 0.29873600 -0.00291000 -0.04720000
v 0.29875900 -0.00288900 -0.04720000
v 0.29875900 -0.00288900 -0.04720000
v 0.29869500 -0.00319400 -0.04720000
v 0.29869500 -0.00319400 -0.04720000
v 0.29871200 -0.00322000 -0.04720000
v 0.29868600 -0.00298200 -0.04720000
v 0.29868600 -0.00298200 -0.04720000
v 0.29868600 -0.00298200 -0.04720000
v 0.29868600 -0.00298200 -0.04720000
v 0.29868600 -0.00298200 -0.04720000
v 0.29868600 -0.00298200 -0.04720000
v 0.29897700 -0.00328800 -0.04720000
v 0.29897700 -0.00328800 -0.04720000
v 0.29900400 -0.00327400 -0.04720000
v 0.29900400 -0.00327400 -0.04720000
v 0.29903000 -0.00325700 -0.04720000
v 0.29903000 -0.00325700 -0.04720000
v 0.29881200 -0.00285800 -0.04720000
v 0.29881200 -0.00285800 -0.04720000
v 0.29878400 -0.00287200 -0.04720000
v 0.29878400 -0.00287200 -0.04720000
v 0.29873300 -0.00324300 -0.04720000
v 0.29873300 -0.00324300 -0.04720000
v 0.29875700 -0.00326300 -0.04720000
v 0.29875700 -0.00326300 -0.04720000
v 0.29875700 -0.00326300 -0.04720000
v 0.29877400 -0.00327300 -0.04720000
v 0.29877400 -0.00327300 -0.04720000
v 0.29880200 -0.00328800 -0.04720000
v 0.29880200 -0.00328800 -0.04720000
v 0.29883200 -0.00329800 -0.04720000
v 0.29883200 -0.00329800 -0.04720000
v 0.29886300 -0.00330400 -0.04720000
v 0.29886300 -0.00330400 -0.04720000
v 0.29870600 -0.00294800 -0.04720000
v 0.29870600 -0.00294800 -0.04720000
v 0.29905200 -0.00323600 -0.04720000
v 0.29905200 -0.00323600 -0.04720000
v 0.29898900 -0.00286000 -0.04720000
v 0.29898900 -0.00286000 -0.04720000
v 0.29895900 -0.00284900 -0.04720000
v 0.29895900 -0.00284900 -0.04720000
v 0.29892700 -0.00284300 -0.04720000
v 0.29892700 -0.00284300 -0.04720000
v 0.29912300 -0.00304000 -0.04720000
v 0.29912300 -0.00304000 -0.04720000
v 0.29911700 -0.00300900 -0.04720000
v 0.29911700 -0.00300900 -0.04720000
v 0.29910700 -0.00298000 -0.04720000
v 0.29910700 -0.00298000 -0.04720000
v 0.29905500 -0.00290400 -0.04720000
v 0.29905500 -0.00290400 -0.04720000
v 0.29903100 -0.00288400 -0.04720000
v 0.29903100 -0.00288400 -0.04720000
v 0.29903100 -0.00288400 -0.04720000
v 0.29901700 -0.00287400 -0.04720000
v 0.29901700 -0.00287400 -0.04720000
v 0.29866500 -0.00310500 -0.04720000
v 0.29866500 -0.00310500 -0.04720000
v 0.29867100 -0.00313700 -0.04720000
v 0.29867100 -0.00313700 -0.04720000
v 0.29868100 -0.00316600 -0.04720000
v 0.29868100 -0.00316600 -0.04720000
v 0.29911400 -0.00313500 -0.04720000
v 0.29912100 -0.00310400 -0.04720000
v 0.29912100 -0.00310400 -0.04720000
v 0.29912400 -0.00307200 -0.04720000
v 0.29912400 -0.00307200 -0.04720000
v 0.29867400 -0.00301100 -0.04720000
v 0.29866700 -0.00304200 -0.04720000
v 0.29866700 -0.00304200 -0.04720000
v 0.29866400 -0.00307400 -0.04720000
v 0.29866400 -0.00307400 -0.04720000
vn -0.12405400 0.99227500 0.00000000
vn -0.16645400 0.98604900 -0.00000700
vn -0.03541100 0.99937300 -0.00000900
vn 0.01082300 0.99994100 0.00000000
vn 0.10315400 0.99466500 0.00000100
vn 0.14911000 0.98882100 0.00000800
vn 0.24068000 0.97060500 -0.00000800
vn 0.28611800 0.95819500 0.00000000
vn 0.37513700 0.92697000 0.00000000
vn 0.41858800 0.90817600 0.00000800
vn 0.49262200 0.87024400 0.00000000
vn 0.52345400 0.85205400 -0.00000100
vn 0.58334800 0.81222200 -0.00000800
vn 0.61232000 0.79061000 0.00000000
vn 0.67511900 0.73770900 -0.00001100
vn 0.70833900 0.70587200 0.00000000
vn 0.77008600 0.63794000 0.00000100
vn 0.79858400 0.60188300 -0.00001100
vn 0.85030800 0.52628500 0.00000000
vn 0.87346900 0.48688000 0.00000000
vn 0.91439900 0.40481400 0.00000000
vn 0.93207400 0.36226700 0.00000900
vn 0.96143700 0.27502400 0.00000000
vn 0.97310700 0.23035200 0.00000900
vn 0.99024100 0.13936200 0.00000000
vn 0.99566300 0.09303700 0.00000000
vn 1.00000000 0.00015900 0.00000000
vn 0.99892400 -0.04638700 0.00000900
vn 0.99016000 -0.13994000 0.00000000
vn 0.98235700 -0.18701700 0.00000000
vn 0.96023200 -0.27920300 0.00000700
vn 0.94593100 -0.32436700 0.00001200
vn 0.91177400 -0.41069200 -0.00000900
vn 0.89206600 -0.45190400 0.00001200
vn 0.85541000 -0.51795100 0.00000000
vn 0.83952000 -0.54332900 0.00000000
vn 0.81790700 -0.57535100 0.00000000
vn 0.81278400 -0.58256600 0.00000000
vn 0.78312100 -0.62187000 0.00000000
vn 0.79551800 -0.60592900 -0.00000400
vn 0.73986800 -0.67275200 0.00000000
vn 0.70772800 -0.70648500 0.00000000
vn 0.63929200 -0.76896400 0.00000000
vn 0.60315400 -0.79762500 0.00001000
vn 0.52706600 -0.84982400 0.00000000
vn 0.48720400 -0.87328800 0.00000000
vn 0.40457500 -0.91450500 -0.00000900
vn 0.36188300 -0.93222400 -0.00000900
vn 0.28106000 -0.95969000 0.00000000
vn 0.24305400 -0.97001300 0.00001000
vn 0.16946100 -0.98553700 0.00000100
vn 0.13387900 -0.99099800 0.00000600
vn 0.05120000 -0.99868800 0.00000000
vn 0.00398000 -0.99999200 0.00000000
vn -0.09033600 -0.99591100 -0.00001500
vn -0.13737600 -0.99051900 0.00000800
vn -0.23021300 -0.97314000 0.00000000
vn -0.27582400 -0.96120800 0.00000000
vn -0.36510500 -0.93096600 0.00000000
vn -0.40870000 -0.91266900 0.00000000
vn -0.48482200 -0.87461300 -0.00000900
vn -0.51766300 -0.85558400 0.00000700
vn -0.58079600 -0.81404900 -0.00000800
vn -0.61104400 -0.79159600 0.00000900
vn -0.67495300 -0.73786100 -0.00000800
vn -0.70815600 -0.70605600 0.00000000
vn -0.76992700 -0.63813200 0.00000000
vn -0.79841100 -0.60211200 0.00000000
vn -0.85004500 -0.52671000 0.00000000
vn -0.87312800 -0.48749200 0.00000900
vn -0.91403600 -0.40563300 -0.00000800
vn -0.93174200 -0.36312000 0.00000900
vn -0.96130600 -0.27548400 0.00000000
vn -0.97309200 -0.23041700 -0.00000800
vn -0.99026400 -0.13920500 0.00000000
vn -0.99565600 -0.09310400 0.00000000
vn -1.00000000 0.00026100 0.00000000
vn -0.99887200 0.04748200 0.00000900
vn -0.98997200 0.14126200 -0.00000900
vn -0.98222800 0.18769300 0.00000000
vn -0.96012100 0.27958400 -0.00000900
vn -0.94574400 0.32491400 -0.00000100
vn -0.91140400 0.41151400 0.00000000
vn -0.89159800 0.45282700 0.00000000
vn -0.85522800 0.51825100 0.00000000
vn -0.83984800 0.54282100 0.00000000
vn -0.82186300 0.56968600 0.00000000
vn -0.82015700 0.57213800 0.00000000
vn -0.78458700 0.62001800 0.00000000
vn -0.80182200 0.59756400 0.00000000
vn -0.73647300 0.67646700 -0.00000900
vn -0.70469800 0.70950700 0.00000000
vn -0.63689000 0.77095400 0.00000000
vn -0.60093800 0.79929500 0.00000000
vn -0.52556700 0.85075200 -0.00000900
vn -0.48633700 0.87377100 0.00000900
vn -0.40490500 0.91435900 0.00000000
vn -0.36286500 0.93184200 0.00000000
vn -0.28332700 0.95902300 0.00000100
vn -0.24611700 0.96924000 0.00000000
vn 0.00011400 -0.00001200 -1.00000000
vn -0.00001100 0.00000100 -1.00000000
vn -0.00006500 0.00000700 -1.00000000
vn -0.00006100 0.00000600 -1.00000000
vn 0.00000400 -0.00000000 -1.00000000
vn -0.00013800 0.00001400 -1.00000000
vn -0.00021000 0.00002100 -1.00000000
vn 0.00000000 0.00000000 -1.00000000
vn 0.00003000 -0.00000300 -1.00000000
vn -0.00001800 0.00000200 -1.00000000
vn 0.00007500 -0.00000800 -1.00000000
vn 0.00009900 -0.00001000 -1.00000000
vn -0.00020200 0.00002100 -1.00000000
vn -0.00019500 0.00002000 -1.00000000
vn 0.00028300 -0.00002900 -1.00000000
vn 0.00012400 -0.00001300 -1.00000000
vn 0.00000000 0.00000000 -1.00000000
vn 0.00003000 -0.00000300 -1.00000000
vn -0.00019500 0.00002000 -1.00000000
vn 0.00003000 -0.00000300 -1.00000000
vn -0.00034000 0.00003500 -1.00000000
vn 0.00016700 -0.00001700 -1.00000000
vn -0.00001800 0.00000200 -1.00000000
vn -0.00010400 0.00001100 -1.00000000
vn -0.00002300 0.00000200 -1.00000000
vn 0.00026200 -0.00002700 -1.00000000
vn 0.00000000 0.00000000 -1.00000000
vn -0.00003300 0.00000300 -1.00000000
vn 0.00003200 -0.00000300 -1.00000000
vn 0.00034500 -0.00003500 -1.00000000
vn -0.00030700 0.00003100 -1.00000000
vn 0.00007300 -0.00000700 -1.00000000
vn 0.00002800 -0.00000300 -1.00000000
vn 0.00000000 0.00000000 -1.00000000
vn 0.00010800 -0.00001100 -1.00000000
vn 0.00012000 -0.00001200 -1.00000000
vn -0.00020700 0.00002100 -1.00000000
vn 0.00000000 0.00000000 -1.00000000
vn 0.00002800 -0.00000300 -1.00000000
vn 0.00000000 0.00000000 -1.00000000
vn 0.00000000 0.00000000 -1.00000000
vn -0.00003300 0.00000300 -1.00000000
vn -0.00030700 0.00003100 -1.00000000
vn 0.00000000 0.00000000 -1.00000000
vn 0.00007300 -0.00000700 -1.00000000
vn -0.00030700 0.00003100 -1.00000000
vn 0.00000000 0.00000000 -1.00000000
vn 0.00007300 -0.00000700 -1.00000000
vn 0.00034500 -0.00003500 -1.00000000
vn 0.00000000 0.00000000 -1.00000000
vn -0.00020700 0.00002100 -1.00000000
vn 0.00034500 -0.00003500 -1.00000000
vn -0.00020700 0.00002100 -1.00000000
vn 0.00010700 -0.00001100 -1.00000000
vn 0.00000000 0.00000000 -1.00000000
vn 0.00012800 -0.00001300 -1.00000000
vn 0.00001700 -0.00000200 -1.00000000
vn 0.00000000 0.00000000 -1.00000000
vn 0.00000000 0.00000000 -1.00000000
vn 0.00001700 -0.00000200 -1.00000000
vn 0.00012800 -0.00001300 -1.00000000
vn 0.00001700 -0.00000200 -1.00000000
vn 0.00000000 0.00000000 -1.00000000
vn 0.00012800 -0.00001300 -1.00000000
vn 0.00000000 0.00000000 -1.00000000
vn 0.00000000 0.00000000 -1.00000000
vn 0.00007500 -0.00000800 -1.00000000
vn 0.00000000 0.00000000 -1.00000000
vn 0.00007500 -0.00000800 -1.00000000
vn 0.00007500 -0.00000800 -1.00000000
vn 0.00000000 0.00000000 -1.00000000
vn 0.00003200 -0.00000300 -1.00000000
vn -0.00003300 0.00000300 -1.00000000
vn 0.00003200 -0.00000300 -1.00000000
vn 0.00012000 -0.00001200 -1.00000000
vn 0.00010800 -0.00001100 -1.00000000
vn 0.00002800 -0.00000300 -1.00000000
vn 0.00012000 -0.00001200 -1.00000000
vn 0.00000000 0.00000000 -1.00000000
vn -0.00010400 0.00001100 -1.00000000
vn 0.00000000 0.00000000 -1.00000000
vn -0.00010400 0.00001100 -1.00000000
vn 0.00026200 -0.00002700 -1.00000000
vn 0.00000000 0.00000000 -1.00000000
vn 0.00026200 -0.00002700 -1.00000000
vn -0.00001800 0.00000200 -1.00000000
vn 0.00000000 0.00000000 -1.00000000
vn -0.00001800 0.00000200 -1.00000000
vn 0.00012400 -0.00001300 -1.00000000
vn 0.00000000 0.00000000 -1.00000000
vn 0.00012400 -0.00001300 -1.00000000
vn 0.00000400 -0.00000000 -1.00000000
vn 0.00000400 -0.00000000 -1.00000000
vn -0.00021000 0.00002100 -1.00000000
vn -0.00013800 0.00001400 -1.00000000
vn -0.00021000 0.00002100 -1.00000000
vn -0.00013800 0.00001400 -1.00000000
vn 0.00000000 0.00000000 -1.00000000
vn 0.00000000 0.00000000 -1.00000000
vn 0.00007600 -0.00000800 -1.00000000
vn 0.00007500 -0.00000800 -1.00000000
vn 0.00028300 -0.00002900 -1.00000000
vn -0.00020200 0.00002100 -1.00000000
vn 0.00028300 -0.00002900 -1.00000000
vn -0.00020200 0.00002100 -1.00000000
vn 0.00009900 -0.00001000 -1.00000000
vn -0.00019500 0.00002000 -1.00000000
vn 0.00009900 -0.00001000 -1.00000000
vn -0.00034000 0.00003500 -1.00000000
vn 0.00000000 0.00000000 -1.00000000
vn 0.00016700 -0.00001700 -1.00000000
vn -0.00034000 0.00003500 -1.00000000
vn 0.00000000 0.00000000 -1.00000000
vn 0.00016700 -0.00001700 -1.00000000
vn 0.00011400 -0.00001200 -1.00000000
vn 0.00000000 0.00000000 -1.00000000
vn 0.00000000 0.00000000 -1.00000000
vn 0.00011400 -0.00001200 -1.00000000
vn -0.00006500 0.00000600 -1.00000000
vn 0.00000000 0.00000000 -1.00000000
vn 0.00000000 0.00000000 -1.00000000
vn -0.00002200 0.00000200 -1.00000000
vn -0.00002200 0.00000200 -1.00000000
vn -0.00001800 0.00000200 -1.00000000
vn -0.00001800 0.00000200 -1.00000000
vn -0.00006100 0.00000600 -1.00000000
vn -0.00006500 0.00000700 -1.00000000
vn -0.00001200 0.00000100 -1.00000000
vn -0.00006100 0.00000600 -1.00000000
vn -0.00001200 0.00000100 -1.00000000
vn -0.00007400 0.00000800 1.00000000
vn 0.00000000 0.00000000 1.00000000
vn 0.00000000 0.00000000 1.00000000
vn 0.00001900 -0.00000200 1.00000000
vn 0.00001400 -0.00000100 1.00000000
vn 0.00029700 -0.00003000 1.00000000
vn -0.00007400 0.00000800 1.00000000
vn 0.00001900 -0.00000200 1.00000000
vn 0.00020700 -0.00002100 1.00000000
vn -0.00013300 0.00001400 1.00000000
vn 0.00006800 -0.00000700 1.00000000
vn 0.00000000 0.00000000 1.00000000
vn -0.00007400 0.00000800 1.00000000
vn -0.00000900 0.00000100 1.00000000
vn 0.00001900 -0.00000200 1.00000000
vn 0.00000000 0.00000000 1.00000000
vn 0.00000000 0.00000000 1.00000000
vn 0.00000000 0.00000000 1.00000000
vn -0.00003100 0.00000300 1.00000000
vn -0.00000800 0.00000100 1.00000000
vn 0.00000000 0.00000000 1.00000000
vn 0.00002300 -0.00000200 1.00000000
vn -0.00018500 0.00001900 1.00000000
vn 0.00008500 -0.00000900 1.00000000
vn 0.00021100 -0.00002100 1.00000000
vn -0.00013200 0.00001300 1.00000000
vn 0.00003500 -0.00000400 1.00000000
vn -0.00018500 0.00001900 1.00000000
vn 0.00000000 0.00000000 1.00000000
vn 0.00000000 0.00000000 1.00000000
vn -0.00008400 0.00000900 1.00000000
vn 0.00000000 0.00000000 1.00000000
vn -0.00020700 0.00002100 1.00000000
vn 0.00006100 -0.00000600 1.00000000
vn 0.00006300 -0.00000600 1.00000000
vn -0.00008400 0.00000900 1.00000000
vn 0.00011400 -0.00001200 1.00000000
vn 0.00000000 0.00000000 1.00000000
vn 0.00000000 0.00000000 1.00000000
vn -0.00007400 0.00000800 1.00000000
vn 0.00000000 0.00000000 1.00000000
vn 0.00021100 -0.00002100 1.00000000
vn 0.00021100 -0.00002100 1.00000000
vn 0.00000000 0.00000000 1.00000000
vn 0.00000000 0.00000000 1.00000000
vn -0.00013200 0.00001300 1.00000000
vn -0.00000800 0.00000100 1.00000000
vn -0.00013200 0.00001300 1.00000000
vn 0.00008300 -0.00000800 1.00000000
vn 0.00000000 0.00000000 1.00000000
vn 0.00000000 0.00000000 1.00000000
vn 0.00000000 0.00000000 1.00000000
vn 0.00011800 -0.00001200 1.00000000
vn 0.00008300 -0.00000800 1.00000000
vn -0.00014800 0.00001500 1.00000000
vn 0.00034000 -0.00003500 1.00000000
vn -0.00004500 0.00000500 1.00000000
vn -0.00000900 0.00000100 1.00000000
vn 0.00000000 0.00000000 1.00000000
vn -0.00000900 0.00000100 1.00000000
vn 0.00006800 -0.00000700 1.00000000
vn 0.00006800 -0.00000700 1.00000000
vn -0.00013300 0.00001400 1.00000000
vn 0.00003500 -0.00000400 1.00000000
vn 0.00000000 0.00000000 1.00000000
vn -0.00000800 0.00000100 1.00000000
vn 0.00003500 -0.00000400 1.00000000
vn -0.00014800 0.00001500 1.00000000
vn 0.00000000 0.00000000 1.00000000
vn -0.00014800 0.00001500 1.00000000
vn 0.00000000 0.00000000 1.00000000
vn 0.00020700 -0.00002100 1.00000000
vn 0.00001400 -0.00000100 1.00000000
vn 0.00020700 -0.00002100 1.00000000
vn 0.00000000 0.00000000 1.00000000
vn 0.00001400 -0.00000100 1.00000000
vn 0.00000000 0.00000000 1.00000000
vn 0.00029700 -0.00003000 1.00000000
vn -0.00007400 0.00000800 1.00000000
vn 0.00029700 -0.00003000 1.00000000
vn -0.00007400 0.00000800 1.00000000
vn 0.00000000 0.00000000 1.00000000
vn -0.00013300 0.00001400 1.00000000
vn 0.00000000 0.00000000 1.00000000
vn 0.00000000 0.00000000 1.00000000
vn 0.00008500 -0.00000900 1.00000000
vn 0.00002300 -0.00000200 1.00000000
vn 0.00000000 0.00000000 1.00000000
vn -0.00018500 0.00001900 1.00000000
vn 0.00002300 -0.00000200 1.00000000
vn -0.00020700 0.00002100 1.00000000
vn 0.00000000 0.00000000 1.00000000
vn 0.00000000 0.00000000 1.00000000
vn 0.00011400 -0.00001200 1.00000000
vn 0.00011400 -0.00001200 1.00000000
vn -0.00008400 0.00000900 1.00000000
vn 0.00000000 0.00000000 1.00000000
vn 0.00006300 -0.00000600 1.00000000
vn -0.00003100 0.00000300 1.00000000
vn 0.00006300 -0.00000600 1.00000000
vn 0.00000000 0.00000000 1.00000000
vn 0.00008500 -0.00000900 1.00000000
vn -0.00003100 0.00000300 1.00000000
vn -0.00004500 0.00000500 1.00000000
vn 0.00000000 0.00000000 1.00000000
vn 0.00034000 -0.00003500 1.00000000
vn 0.00000000 0.00000000 1.00000000
vn 0.00034000 -0.00003500 1.00000000
vn 0.00008300 -0.00000800 1.00000000
vn 0.00000000 0.00000000 1.00000000
vn 0.00006100 -0.00000600 1.00000000
vn 0.00000000 0.00000000 1.00000000
vn -0.00020700 0.00002100 1.00000000
vn 0.00006100 -0.00000600 1.00000000
vn 0.00000000 0.00000000 1.00000000
vn 0.00011800 -0.00001200 1.00000000
vn 0.00000000 0.00000000 1.00000000
vn -0.00004500 0.00000500 1.00000000
vn 0.00011800 -0.00001200 1.00000000
f 1//1 2//2 3//3
f 1//1 3//3 4//4
f 4//4 3//3 5//5
f 4//4 5//5 6//6
f 6//6 5//5 7//7
f 6//6 7//7 8//8
f 8//8 7//7 9//9
f 8//8 9//9 10//10
f 10//10 9//9 11//11
f 10//10 11//11 12//12
f 12//12 11//11 13//13
f 12//12 13//13 14//14
f 14//14 13//13 15//15
f 14//14 15//15 16//16
f 16//16 15//15 17//17
f 16//16 17//17 18//18
f 18//18 17//17 19//19
f 18//18 19//19 20//20
f 20//20 19//19 21//21
f 20//20 21//21 22//22
f 22//22 21//21 23//23
f 22//22 23//23 24//24
f 24//24 23//23 25//25
f 24//24 25//25 26//26
f 26//26 25//25 27//27
f 26//26 27//27 28//28
f 28//28 27//27 29//29
f 28//28 29//29 30//30
f 30//30 29//29 31//31
f 30//30 31//31 32//32
f 32//32 31//31 33//33
f 32//32 33//33 34//34
f 34//34 33//33 35//35
f 34//34 35//35 36//36
f 36//36 35//35 37//37
f 36//36 37//37 38//38
f 39//39 38//38 40//40
f 40//40 38//38 37//37
f 39//39 40//40 41//41
f 39//39 41//41 42//42
f 42//42 41//41 43//43
f 42//42 43//43 44//44
f 44//44 43//43 45//45
f 44//44 45//45 46//46
f 46//46 45//45 47//47
f 46//46 47//47 48//48
f 48//48 47//47 49//49
f 48//48 49//49 50//50
f 50//50 49//49 51//51
f 50//50 51//51 52//52
f 52//52 51//51 53//53
f 52//52 53//53 54//54
f 54//54 53//53 55//55
f 54//54 55//55 56//56
f 56//56 55//55 57//57
f 56//56 57//57 58//58
f 58//58 57//57 59//59
f 58//58 59//59 60//60
f 60//60 59//59 61//61
f 60//60 61//61 62//62
f 62//62 61//61 63//63
f 62//62 63//63 64//64
f 64//64 63//63 65//65
f 64//64 65//65 66//66
f 66//66 65//65 67//67
f 66//66 67//67 68//68
f 68//68 67//67 69//69
f 68//68 69//69 70//70
f 70//70 69//69 71//71
f 70//70 71//71 72//72
f 72//72 71//71 73//73
f 72//72 73//73 74//74
f 74//74 73//73 75//75
f 74//74 75//75 76//76
f 76//76 75//75 77//77
f 76//76 77//77 78//78
f 78//78 77//77 79//79
f 78//78 79//79 80//80
f 80//80 79//79 81//81
f 80//80 81//81 82//82
f 82//82 81//81 83//83
f 82//82 83//83 84//84
f 84//84 83//83 85//85
f 84//84 85//85 86//86
f 86//86 85//85 87//87
f 86//86 87//87 88//88
f 89//89 88//88 90//90
f 90//90 88//88 87//87
f 89//89 90//90 91//91
f 89//89 91//91 92//92
f 92//92 91//91 93//93
f 92//92 93//93 94//94
f 94//94 93//93 95//95
f 94//94 95//95 96//96
f 96//96 95//95 97//97
f 96//96 97//97 98//98
f 98//98 97//97 99//99
f 98//98 99//99 100//100
f 100//100 99//99 2//2
f 100//100 2//2 1//1
f 109//109 118//118 120//120
f 127//127 134//134 138//138
f 138//138 134//134 140//140
f 141//141 144//144 134//134
f 131//131 143//143 146//146
f 132//132 145//145 148//148
f 147//147 150//150 134//134
f 130//130 149//149 152//152
f 137//137 151//151 153//153
f 155//155 158//158 159//159
f 160//160 157//157 162//162
f 156//156 161//161 164//164
f 165//165 159//159 166//166
f 165//165 166//166 168//168
f 167//167 169//169 170//170
f 168//168 171//171 134//134
f 129//129 172//172 174//174
f 128//128 173//173 142//142
f 154//154 176//176 135//135
f 136//136 175//175 178//178
f 133//133 177//177 139//139
f 179//179 181//181 127//127
f 124//124 180//180 182//182
f 126//126 183//183 185//185
f 163//163 187//187 159//159
f 110//110 186//186 188//188
f 116//116 189//189 191//191
f 192//192 193//193 105//105
f 107//107 194//194 196//196
f 106//106 195//195 197//197
f 190//190 199//199 117//117
f 111//111 200//200 201//201
f 115//115 202//202 204//204
f 203//203 205//205 113//113
f 112//112 206//206 208//208
f 114//114 207//207 119//119
f 184//184 210//210 127//127
f 121//121 209//209 212//212
f 122//122 211//211 214//214
f 198//198 216//216 108//108
f 101//101 215//215 218//218
f 108//108 217//217 220//220
f 213//213 221//221 127//127
f 125//125 222//222 223//223
f 123//123 224//224 225//225
f 219//219 227//227 103//103
f 104//104 226//226 229//229
f 102//102 228//228 230//230
f 232//232 233//233 242//242
f 238//238 234//234 245//245
f 247//247 248//248 251//251
f 247//247 251//251 259//259
f 260//260 262//262 268//268
f 269//269 271//271 274//274
f 273//273 272//272 255//255
f 274//274 251//251 275//275
f 276//276 256//256 278//278
f 280//280 281//281 282//282
f 246//246 289//289 242//242
f 244//244 288//288 290//290
f 241//241 291//291 292//292
f 248//248 295//295 251//251
f 257//257 294//294 297//297
f 250//250 296//296 277//277
f 281//281 299//299 282//282
f 285//285 298//298 300//300
f 282//282 301//301 242//242
f 239//239 302//302 304//304
f 235//235 303//303 306//306
f 305//305 307//307 242//242
f 236//236 308//308 310//310
f 237//237 309//309 231//231
f 274//274 312//312 269//269
f 270//270 311//311 243//243
f 269//269 242//242 314//314
f 313//313 240//240 293//293
f 315//315 318//318 251//251
f 252//252 317//317 320//320
f 253//253 319//319 258//258
f 322//322 323//323 268//268
f 267//267 324//324 325//325
f 266//266 326//326 261//261
f 262//262 327//327 268//268
f 265//265 328//328 330//330
f 268//268 331//331 251//251
f 249//249 329//329 333//333
f 254//254 332//332 316//316
f 335//335 337//337 282//282
f 286//286 336//336 338//338
f 284//284 339//339 279//279
f 340//340 342//342 268//268
f 264//264 341//341 344//344
f 263//263 343//343 321//321
f 345//345 347//347 282//282
f 283//283 346//346 349//349
f 287//287 348//348 334//334

