# https://github.com/mikedh/trimesh
v 0.29563700 -0.01555800 0.04700000
v 0.28731900 -0.00193600 0.04700000
v 0.28603500 -0.00280900 0.04700000
v 0.28151800 -0.01848200 0.04700000
v 0.28519600 -0.01881500 0.04700000
v 0.28448600 -0.00292300 0.04700000
v 0.28886800 -0.01842400 0.04700000
v 0.29239400 -0.01732400 0.04700000
v 0.27797500 -0.01743700 0.04700000
v 0.28308800 -0.00224700 0.04700000
v 0.27470400 -0.01572200 0.04700000
v 0.28221500 -0.00096200 0.04700000
v 0.26946600 -0.01056500 0.04700000
v 0.27183100 -0.01340200 0.04700000
v 0.28406100 0.00285700 0.04700000
v 0.27770200 0.01737300 0.04700000
v 0.27445800 0.01560600 0.04700000
v 0.28700800 0.00229500 0.04700000
v 0.28788100 0.00101100 0.04700000
v 0.30063000 0.01061400 0.04700000
v 0.26654200 0.00355500 0.04700000
v 0.26620900 -0.00012400 0.04700000
v 0.28210100 0.00058600 0.04700000
v 0.26659900 -0.00379600 0.04700000
v 0.26769900 -0.00732200 0.04700000
v 0.28277700 0.00198500 0.04700000
v 0.29212100 0.01748600 0.04700000
v 0.28561000 0.00297100 0.04700000
v 0.29539100 0.01577100 0.04700000
v 0.29826500 0.01345000 0.04700000
v 0.30355400 -0.00350600 0.04700000
v 0.30388700 0.00017200 0.04700000
v 0.28799500 -0.00053800 0.04700000
v 0.30349600 0.00384500 0.04700000
v 0.30239600 0.00737100 0.04700000
v 0.27162200 0.01324100 0.04700000
v 0.26930100 0.01036800 0.04700000
v 0.26758600 0.00709700 0.04700000
v 0.28857800 0.01853100 0.04700000
v 0.28490000 0.01886400 0.04700000
v 0.28122700 0.01847300 0.04700000
v 0.29847400 -0.01319200 0.04700000
v 0.30079400 -0.01031900 0.04700000
v 0.30251000 -0.00704800 0.04700000
v 0.30438400 -0.00366400 0.04718700
v 0.30473200 0.00017900 0.04718700
v 0.30432400 0.00401600 0.04718700
v 0.30317500 0.00770000 0.04718700
v 0.30132900 0.01108900 0.04718700
v 0.29885800 0.01405300 0.04718700
v 0.29585500 0.01647700 0.04718700
v 0.29243800 0.01827000 0.04718700
v 0.28873700 0.01936100 0.04718700
v 0.28489300 0.01970900 0.04718700
v 0.28105600 0.01930000 0.04718700
v 0.27737200 0.01815100 0.04718700
v 0.27398300 0.01630500 0.04718700
v 0.27102000 0.01383400 0.04718700
v 0.26859500 0.01083200 0.04718700
v 0.26680300 0.00741400 0.04718700
v 0.26571100 0.00371300 0.04718700
v 0.26536300 -0.00013000 0.04718700
v 0.26577200 -0.00396800 0.04718700
v 0.26692100 -0.00765100 0.04718700
v 0.26876700 -0.01104000 0.04718700
v 0.27123800 -0.01400400 0.04718700
v 0.27424000 -0.01642900 0.04718700
v 0.27765800 -0.01822100 0.04718700
v 0.28135900 -0.01931200 0.04718700
v 0.28520200 -0.01966000 0.04718700
v 0.28904000 -0.01925200 0.04718700
v 0.29272400 -0.01810300 0.04718700
v 0.29611300 -0.01625700 0.04718700
v 0.29907600 -0.01378500 0.04718700
v 0.30150100 -0.01078300 0.04718700
v 0.30329300 -0.00736600 0.04718700
v 0.30714500 0.00019800 0.04831300
v 0.30668700 0.00450600 0.04831300
v 0.30539700 0.00864100 0.04831300
v 0.30332500 0.01244500 0.04831300
v 0.30055000 0.01577200 0.04831300
v 0.29718000 0.01849400 0.04831300
v 0.29334400 0.02050600 0.04831300
v 0.28918900 0.02173100 0.04831300
v 0.28487400 0.02212200 0.04831300
v 0.28056700 0.02166300 0.04831300
v 0.27643100 0.02037300 0.04831300
v 0.27262700 0.01830100 0.04831300
v 0.26930000 0.01552700 0.04831300
v 0.26657800 0.01215700 0.04831300
v 0.26456600 0.00832000 0.04831300
v 0.26334100 0.00416500 0.04831300
v 0.26295000 -0.00014900 0.04831300
v 0.26340900 -0.00445700 0.04831300
v 0.26469900 -0.00859200 0.04831300
v 0.26677100 -0.01239700 0.04831300
v 0.26954500 -0.01572400 0.04831300
v 0.27291600 -0.01844500 0.04831300
v 0.27675200 -0.02045700 0.04831300
v 0.28090700 -0.02168200 0.04831300
v 0.28522100 -0.02207300 0.04831300
v 0.28952900 -0.02161500 0.04831300
v 0.29366500 -0.02032500 0.04831300
v 0.29746900 -0.01825300 0.04831300
v 0.30079600 -0.01547800 0.04831300
v 0.30351800 -0.01210800 0.04831300
v 0.30553000 -0.00827200 0.04831300
v 0.30675500 -0.00411600 0.04831300
v 0.30799100 0.00020500 0.04850000
v 0.30751500 0.00467700 0.04850000
v 0.30617500 0.00897100 0.04850000
v 0.30402400 0.01292000 0.04850000
v 0.30114300 0.01637500 0.04850000
v 0.29764400 0.01920100 0.04850000
v 0.29366100 0.02129000 0.04850000
v 0.28934700 0.02256100 0.04850000
v 0.28486800 0.02296700 0.04850000
v 0.28039500 0.02249100 0.04850000
v 0.27610200 0.02115200 0.04850000
v 0.27215200 0.01900000 0.04850000
v 0.26869800 0.01612000 0.04850000
v 0.26587200 0.01262100 0.04850000
v 0.26378300 0.00863800 0.04850000
v 0.26251100 0.00432300 0.04850000
v 0.26210500 -0.00015600 0.04850000
v 0.26258100 -0.00462800 0.04850000
v 0.26392100 -0.00892200 0.04850000
v 0.26607200 -0.01287200 0.04850000
v 0.26895200 -0.01632600 0.04850000
v 0.27245100 -0.01915200 0.04850000
v 0.27643500 -0.02124100 0.04850000
v 0.28074900 -0.02251300 0.04850000
v 0.28522800 -0.02291800 0.04850000
v 0.28970100 -0.02244200 0.04850000
v 0.29399400 -0.02110300 0.04850000
v 0.29794400 -0.01895200 0.04850000
v 0.30139800 -0.01607100 0.04850000
v 0.30422400 -0.01257200 0.04850000
v 0.30631300 -0.00858900 0.04850000
v 0.30758500 -0.00427500 0.04850000
v 0.26919300 0.01946400 0.04850000
v 0.26605800 0.01641600 0.04850000
v 0.26350000 0.01286900 0.04850000
v 0.26159700 0.00893300 0.04850000
v 0.26040600 0.00472500 0.04850000
v 0.25996400 0.00037500 0.04850000
v 0.26028500 -0.00398600 0.04850000
v 0.26135700 -0.00822600 0.04850000
v 0.26315000 -0.01221400 0.04850000
v 0.26560800 -0.01583100 0.04850000
v 0.26865600 -0.01896500 0.04850000
v 0.27220300 -0.02152300 0.04850000
v 0.27614000 -0.02342600 0.04850000
v 0.28034700 -0.02461700 0.04850000
v 0.28469800 -0.02505900 0.04850000
v 0.28905900 -0.02473900 0.04850000
v 0.29329800 -0.02366600 0.04850000
v 0.30448800 0.01587900 0.04850000
v 0.30143900 0.01901400 0.04850000
v 0.29789300 0.02157200 0.04850000
v 0.29395600 0.02347500 0.04850000
v 0.28974900 0.02466600 0.04850000
v 0.28539800 0.02510800 0.04850000
v 0.28103700 0.02478700 0.04850000
v 0.27679800 0.02371500 0.04850000
v 0.27281000 0.02192200 0.04850000
v 0.29728600 -0.02187400 0.04850000
v 0.30090300 -0.01941600 0.04850000
v 0.30403800 -0.01636700 0.04850000
v 0.30659600 -0.01282100 0.04850000
v 0.30849900 -0.00888400 0.04850000
v 0.30968900 -0.00467600 0.04850000
v 0.31013100 -0.00032600 0.04850000
v 0.30981100 0.00403500 0.04850000
v 0.30873800 0.00827400 0.04850000
v 0.30694600 0.01226300 0.04850000
v 0.31051400 -0.00033100 0.04842400
v 0.31018900 0.00409600 0.04842400
v 0.30910000 0.00840000 0.04842400
v 0.30728000 0.01244900 0.04842400
v 0.30478500 0.01612100 0.04842400
v 0.30169000 0.01930400 0.04842400
v 0.29808900 0.02190100 0.04842400
v 0.29409200 0.02383300 0.04842400
v 0.28982000 0.02504200 0.04842400
v 0.28540400 0.02549000 0.04842400
v 0.28097600 0.02516500 0.04842400
v 0.27667200 0.02407600 0.04842400
v 0.27262300 0.02225600 0.04842400
v 0.26895100 0.01976100 0.04842400
v 0.26576800 0.01666600 0.04842400
v 0.26317100 0.01306500 0.04842400
v 0.26123900 0.00906800 0.04842400
v 0.26003000 0.00479700 0.04842400
v 0.25958200 0.00038000 0.04842400
v 0.25990700 -0.00404800 0.04842400
v 0.26099600 -0.00835100 0.04842400
v 0.26281600 -0.01240100 0.04842400
v 0.26531100 -0.01607200 0.04842400
v 0.26840600 -0.01925500 0.04842400
v 0.27200700 -0.02185200 0.04842400
v 0.27600400 -0.02378400 0.04842400
v 0.28027600 -0.02499300 0.04842400
v 0.28469200 -0.02544200 0.04842400
v 0.28912000 -0.02511700 0.04842400
v 0.29342400 -0.02402800 0.04842400
v 0.29747300 -0.02220800 0.04842400
v 0.30114500 -0.01971200 0.04842400
v 0.30432700 -0.01661700 0.04842400
v 0.30692400 -0.01301700 0.04842400
v 0.30885600 -0.00902000 0.04842400
v 0.31006500 -0.00474800 0.04842400
v 0.25386800 -0.01014700 0.04570000
v 0.24842200 -0.01912600 0.04570000
v 0.25661300 -0.01511500 0.04570000
v 0.26350300 -0.02392500 0.04570000
v 0.25857300 -0.01832900 0.04570000
v 0.24968100 -0.02195600 0.04570000
v 0.24831200 -0.02087000 0.04570000
v 0.24886300 -0.02158100 0.04570000
v 0.24815300 -0.01998400 0.04570000
v 0.26320000 -0.02453500 0.04570000
v 0.26345800 -0.02456800 0.04570000
v 0.26373900 -0.02417700 0.04570000
v 0.26368600 -0.02455100 0.04570000
v 0.26376400 -0.02452000 0.04570000
v 0.25450500 -0.01021800 0.04570000
v 0.25447400 -0.01013600 0.04570000
v 0.25402800 -0.00995200 0.04570000
v 0.25410000 -0.00990600 0.04570000
v 0.26382200 -0.02433000 0.04570000
v 0.26383400 -0.02439900 0.04570000
v 0.26382700 -0.02444400 0.04570000
v 0.26380400 -0.02448500 0.04570000
v 0.25424800 -0.00988800 0.04570000
v 0.25418200 -0.00988300 0.04570000
v 0.25430800 -0.00991400 0.04570000
v 0.25438300 -0.00998100 0.04570000
v 0.24809500 -0.01892700 0.04577600
v 0.24809500 -0.01892700 0.04577600
v 0.24777100 -0.01996000 0.04577600
v 0.24796200 -0.02102600 0.04577600
v 0.24862500 -0.02188100 0.04577600
v 0.24960900 -0.02233200 0.04577600
v 0.24781800 -0.01875900 0.04599300
v 0.24777100 -0.01996000 0.04577600
v 0.24744700 -0.01994000 0.04599300
v 0.24796200 -0.02102600 0.04577600
v 0.24766500 -0.02115800 0.04599300
v 0.24862500 -0.02188100 0.04577600
v 0.24842400 -0.02213500 0.04599300
v 0.24960900 -0.02233200 0.04577600
v 0.24954900 -0.02265100 0.04599300
v 0.25354100 -0.00994800 0.04577600
v 0.25354100 -0.00994800 0.04577600
v 0.25326300 -0.00978000 0.04599300
v 0.25486800 -0.01009600 0.04577600
v 0.25517600 -0.00999300 0.04599300
v 0.25506800 -0.00988000 0.04593700
v 0.25486800 -0.01009600 0.04577600
v 0.25479000 -0.01000000 0.04576100
v 0.25476500 -0.00966000 0.04583400
v 0.25458000 -0.00981500 0.04573400
v 0.25460400 -0.00958500 0.04580200
v 0.25442100 -0.00973200 0.04572300
v 0.25453000 -0.00955800 0.04579200
v 0.25434500 -0.00951200 0.04577900
v 0.25429700 -0.00969600 0.04572000
v 0.25414900 -0.00949200 0.04578000
v 0.25416500 -0.00968300 0.04572000
v 0.25390800 -0.00950700 0.04580300
v 0.25400100 -0.00970100 0.04572600
v 0.25370500 -0.00955400 0.04584200
v 0.25386100 -0.00974500 0.04573600
v 0.25695000 -0.01493500 0.04577600
v 0.25888800 -0.01811100 0.04577600
v 0.26375900 -0.02364000 0.04577600
v 0.25723700 -0.01478200 0.04599300
v 0.25695000 -0.01493500 0.04577600
v 0.25915400 -0.01792600 0.04599300
v 0.25888800 -0.01811100 0.04577600
v 0.26142500 -0.02082400 0.04599300
v 0.26375900 -0.02364000 0.04577600
v 0.26397600 -0.02339900 0.04599300
v 0.26312800 -0.02491100 0.04577600
v 0.26306700 -0.02522900 0.04599300
v 0.26342900 -0.02512500 0.04587000
v 0.26344300 -0.02485900 0.04574300
v 0.26378000 -0.02491300 0.04577200
v 0.26373400 -0.02473600 0.04571800
v 0.26392000 -0.02477000 0.04574500
v 0.26384300 -0.02464600 0.04571100
v 0.26400500 -0.02465000 0.04573400
v 0.26390500 -0.02456900 0.04570900
v 0.26406800 -0.02452600 0.04573300
v 0.26394900 -0.02448600 0.04570800
v 0.26411300 -0.02440000 0.04574000
v 0.26397500 -0.02439900 0.04571000
v 0.26414700 -0.02422700 0.04576000
v 0.26398700 -0.02427800 0.04571500
v 0.26413800 -0.02388700 0.04583000
v 0.26394500 -0.02402700 0.04573300
v 0.24703600 -0.01828500 0.04690700
v 0.24653400 -0.01988200 0.04690700
v 0.24683000 -0.02152900 0.04690700
v 0.24785600 -0.02285200 0.04690700
v 0.24937700 -0.02354900 0.04690700
v 0.25354700 -0.00754800 0.04690700
v 0.25502800 -0.00669100 0.04697600
v 0.25547900 -0.00782600 0.04690700
v 0.25440000 -0.00621700 0.04711200
v 0.25407200 -0.00657600 0.04705500
v 0.25433000 -0.00658000 0.04697600
v 0.25536700 -0.00712200 0.04700600
v 0.25516000 -0.00647000 0.04709400
v 0.25497900 -0.00620400 0.04712700
v 0.25460700 -0.00610300 0.04713200
v 0.25471500 -0.00608600 0.04713700
v 0.25481900 -0.00610200 0.04713700
v 0.26211100 -0.02021900 0.04690700
v 0.26577500 -0.02423900 0.04651300
v 0.26732300 -0.02491000 0.04690700
v 0.25804400 -0.01435300 0.04690700
v 0.26854000 -0.02728500 0.04706700
v 0.26992900 -0.02742600 0.04715900
v 0.26526600 -0.02555100 0.04616100
v 0.26491600 -0.02611200 0.04651300
v 0.26526600 -0.02555100 0.04616100
v 0.26557800 -0.02487000 0.04616100
v 0.26992800 -0.02655900 0.04713900
v 0.26911800 -0.02600300 0.04707200
v 0.27047500 -0.02726900 0.04718800
v 0.27049000 -0.02722600 0.04718800
v 0.27007000 -0.02710600 0.04711900
v 0.27049200 -0.02717800 0.04718700
v 0.27041600 -0.02732900 0.04718600
v 0.27027600 -0.02738700 0.04717900
v 0.27011100 -0.02670400 0.04715400
v 0.27019800 -0.02678000 0.04716100
v 0.27045800 -0.02708000 0.04718300
v 0.26650900 -0.02681700 0.04690700
v 0.24924500 -0.02424300 0.04720000
v 0.24931700 -0.02386700 0.04712400
v 0.24765400 -0.02310600 0.04712400
v 0.24931700 -0.02386700 0.04712400
v 0.24765400 -0.02310600 0.04712400
v 0.24653400 -0.02166100 0.04712400
v 0.24621100 -0.01986100 0.04712400
v 0.24675800 -0.01811700 0.04712400
v 0.24741600 -0.02340600 0.04720000
v 0.24653400 -0.02166100 0.04712400
v 0.24618400 -0.02181600 0.04720000
v 0.24621100 -0.01986100 0.04712400
v 0.24582900 -0.01983700 0.04720000
v 0.24643100 -0.01791800 0.04720000
v 0.25294300 -0.00718200 0.04720000
v 0.25327000 -0.00738000 0.04712400
v 0.25579300 -0.00774300 0.04712400
v 0.25616300 -0.00764500 0.04720000
v 0.25591200 -0.00689300 0.04720000
v 0.25579300 -0.00774300 0.04712400
v 0.25562500 -0.00701400 0.04715000
v 0.25562500 -0.00701400 0.04715000
v 0.25550800 -0.00618700 0.04720000
v 0.25532900 -0.00633200 0.04717300
v 0.25518300 -0.00588800 0.04720000
v 0.25507900 -0.00604900 0.04718100
v 0.25490800 -0.00576500 0.04720000
v 0.25486300 -0.00593600 0.04718400
v 0.25473400 -0.00573700 0.04720000
v 0.25472400 -0.00591500 0.04718400
v 0.25455900 -0.00574400 0.04720000
v 0.25458400 -0.00592700 0.04718300
v 0.25422800 -0.00584400 0.04720000
v 0.25431600 -0.00603500 0.04717800
v 0.25372200 -0.00619300 0.04720000
v 0.25390400 -0.00639100 0.04716300
v 0.26751100 -0.02464600 0.04712400
v 0.26235400 -0.02000500 0.04712400
v 0.26773200 -0.02433400 0.04720000
v 0.26264100 -0.01975100 0.04720000
v 0.26235400 -0.02000500 0.04712400
v 0.25866800 -0.01402000 0.04720000
v 0.25833000 -0.01420000 0.04712400
v 0.25833000 -0.01420000 0.04712400
v 0.26644900 -0.02713500 0.04712400
v 0.26637700 -0.02751100 0.04720000
v 0.26851600 -0.02778300 0.04720000
v 0.26852800 -0.02752500 0.04716600
v 0.26999300 -0.02770200 0.04720000
v 0.26852800 -0.02752500 0.04716600
v 0.26996100 -0.02756200 0.04719000
v 0.27037400 -0.02756500 0.04720000
v 0.27032500 -0.02747600 0.04719500
v 0.27053700 -0.02744300 0.04720000
v 0.27047600 -0.02738600 0.04719600
v 0.27061300 -0.02733500 0.04720000
v 0.27054300 -0.02730200 0.04719700
v 0.27063900 -0.02726300 0.04720000
v 0.27056400 -0.02724400 0.04719700
v 0.27065000 -0.02718800 0.04720000
v 0.27057100 -0.02718300 0.04719700
v 0.27063600 -0.02703800 0.04720000
v 0.27054700 -0.02705900 0.04719600
v 0.27042200 -0.02661800 0.04720000
v 0.27030900 -0.02670000 0.04719000
v 0.27005200 -0.02644400 0.04718500
v 0.27018000 -0.02632600 0.04720000
v 0.26943300 -0.02562800 0.04720000
v 0.26927000 -0.02582200 0.04716700
v 0.28044200 -0.03291400 0.04720000
v 0.24874400 -0.02686700 0.04720000
v 0.24716800 -0.02636400 0.04720000
v 0.24575700 -0.02549900 0.04720000
v 0.24459300 -0.02432300 0.04720000
v 0.24374300 -0.02290200 0.04720000
v 0.24325700 -0.02132000 0.04720000
v 0.24316300 -0.01966800 0.04720000
v 0.25903200 0.00801000 0.04720000
v 0.25831600 0.00512400 0.04720000
v 0.25783600 0.00040400 0.04720000
v 0.25818400 -0.00432700 0.04720000
v 0.24346500 -0.01804100 0.04720000
v 0.24414700 -0.01653300 0.04720000
v 0.28912300 -0.03151600 0.04720000
v 0.28939900 -0.02684000 0.04720000
v 0.28466800 -0.02718700 0.04720000
v 0.28341900 -0.03313000 0.04720000
v 0.28636500 -0.03265500 0.04720000
v 0.29399800 -0.02567600 0.04720000
v 0.29154500 -0.02977300 0.04720000
v 0.29791800 -0.02395400 0.04720000
v 0.27994800 -0.02670800 0.04720000
v 0.27538400 -0.02541600 0.04720000
v 0.27111300 -0.02335200 0.04720000
v 0.25934700 -0.00892600 0.04720000
v 0.26129200 -0.01325200 0.04720000
v 0.26395800 -0.01717600 0.04720000
v 0.26726600 -0.02057700 0.04720000
v 0.24861200 -0.02756200 0.04690700
v 0.24867300 -0.02724300 0.04712400
v 0.24700800 -0.02671200 0.04712400
v 0.24867300 -0.02724300 0.04712400
v 0.24700800 -0.02671200 0.04712400
v 0.24551900 -0.02579900 0.04712400
v 0.24429000 -0.02455700 0.04712400
v 0.24339300 -0.02305800 0.04712400
v 0.24288000 -0.02138800 0.04712400
v 0.24278100 -0.01964400 0.04712400
v 0.24310000 -0.01792600 0.04712400
v 0.24382000 -0.01633400 0.04712400
v 0.24687300 -0.02700700 0.04690700
v 0.24551900 -0.02579900 0.04712400
v 0.24531700 -0.02605300 0.04690700
v 0.24429000 -0.02455700 0.04712400
v 0.24403400 -0.02475600 0.04690700
v 0.24339300 -0.02305800 0.04712400
v 0.24309700 -0.02319000 0.04690700
v 0.24288000 -0.02138800 0.04712400
v 0.24256100 -0.02144500 0.04690700
v 0.24278100 -0.01964400 0.04712400
v 0.24245700 -0.01962300 0.04690700
v 0.24310000 -0.01792600 0.04712400
v 0.24279000 -0.01782900 0.04690700
v 0.24354200 -0.01616600 0.04690700
v 0.26066500 0.01157600 0.04709200
v 0.26186500 0.01403900 0.04691000
v 0.26188200 0.01407400 0.04690700
v 0.26186700 0.01403900 0.04691200
v 0.26079800 0.01153800 0.04717400
v 0.26079800 0.01153800 0.04717400
v 0.25939700 0.00789700 0.04727600
v 0.26186800 0.01403800 0.04691300
v 0.26091700 0.01150700 0.04727600
v 0.25939700 0.00789700 0.04727600
v 0.25970800 0.00780200 0.04749300
v 0.25869200 0.00505200 0.04727600
v 0.25821900 0.00039900 0.04727600
v 0.25856100 -0.00426500 0.04727600
v 0.25970900 -0.00880000 0.04727600
v 0.26162600 -0.01306600 0.04727600
v 0.26425500 -0.01693400 0.04727600
v 0.26751600 -0.02028700 0.04727600
v 0.27130900 -0.02302300 0.04727600
v 0.27552000 -0.02505800 0.04727600
v 0.28002000 -0.02633200 0.04727600
v 0.28467300 -0.02680500 0.04727600
v 0.28933800 -0.02646200 0.04727600
v 0.29387200 -0.02531500 0.04727600
v 0.29773700 -0.02361700 0.04727600
v 0.25901000 0.00499100 0.04749300
v 0.25869200 0.00505200 0.04727600
v 0.25854300 0.00039400 0.04749300
v 0.25821900 0.00039900 0.04727600
v 0.25888200 -0.00421400 0.04749300
v 0.25856100 -0.00426500 0.04727600
v 0.26001500 -0.00869300 0.04749300
v 0.25970900 -0.00880000 0.04727600
v 0.26190900 -0.01290700 0.04749300
v 0.26162600 -0.01306600 0.04727600
v 0.26450600 -0.01672900 0.04749300
v 0.26425500 -0.01693400 0.04727600
v 0.26772800 -0.02004100 0.04749300
v 0.26751600 -0.02028700 0.04727600
v 0.27147500 -0.02274400 0.04749300
v 0.27130900 -0.02302300 0.04727600
v 0.27563500 -0.02475500 0.04749300
v 0.27552000 -0.02505800 0.04727600
v 0.28008100 -0.02601300 0.04749300
v 0.28002000 -0.02633200 0.04727600
v 0.28467800 -0.02648000 0.04749300
v 0.28467300 -0.02680500 0.04727600
v 0.28928600 -0.02614200 0.04749300
v 0.28933800 -0.02646200 0.04727600
v 0.29376500 -0.02500800 0.04749300
v 0.29387200 -0.02531500 0.04727600
v 0.29758300 -0.02333100 0.04749300
v 0.30103800 -0.02153800 0.04717400
v 0.30331500 -0.01998400 0.04690700
v 0.30328300 -0.02000500 0.04691300
v 0.30328400 -0.02000600 0.04691200
v 0.30203400 -0.02079500 0.04713000
v 0.30098400 -0.02142800 0.04727600
v 0.30328500 -0.02000800 0.04691000
v 0.30110100 -0.02166100 0.04709200
v 0.31006500 -0.00474800 0.04842400
v 0.31083800 -0.00033600 0.04820700
v 0.31051400 -0.00033100 0.04842400
v 0.31050900 0.00414800 0.04820700
v 0.31018900 0.00409600 0.04842400
v 0.30940600 0.00850700 0.04820700
v 0.30910000 0.00840000 0.04842400
v 0.30756300 0.01260800 0.04820700
v 0.30728000 0.01244900 0.04842400
v 0.30503600 0.01632600 0.04820700
v 0.30478500 0.01612100 0.04842400
v 0.30190200 0.01954900 0.04820700
v 0.30169000 0.01930400 0.04842400
v 0.29825500 0.02217900 0.04820700
v 0.29808900 0.02190100 0.04842400
v 0.29420700 0.02413600 0.04820700
v 0.29409200 0.02383300 0.04842400
v 0.28988100 0.02536000 0.04820700
v 0.28982000 0.02504200 0.04842400
v 0.28540800 0.02581500 0.04820700
v 0.28540400 0.02549000 0.04842400
v 0.28092400 0.02548500 0.04820700
v 0.28097600 0.02516500 0.04842400
v 0.27656600 0.02438300 0.04820700
v 0.27667200 0.02407600 0.04842400
v 0.27246500 0.02254000 0.04820700
v 0.27262300 0.02225600 0.04842400
v 0.26874600 0.02001200 0.04820700
v 0.26895100 0.01976100 0.04842400
v 0.26552300 0.01687800 0.04820700
v 0.26576800 0.01666600 0.04842400
v 0.26289300 0.01323100 0.04820700
v 0.26317100 0.01306500 0.04842400
v 0.26093600 0.00918400 0.04820700
v 0.26123900 0.00906800 0.04842400
v 0.25971200 0.00485700 0.04820700
v 0.26003000 0.00479700 0.04842400
v 0.25925700 0.00038400 0.04820700
v 0.25958200 0.00038000 0.04842400
v 0.25958700 -0.00409900 0.04820700
v 0.25990700 -0.00404800 0.04842400
v 0.26069000 -0.00845800 0.04820700
v 0.26099600 -0.00835100 0.04842400
v 0.26253300 -0.01255900 0.04820700
v 0.26281600 -0.01240100 0.04842400
v 0.26506000 -0.01627700 0.04820700
v 0.26531100 -0.01607200 0.04842400
v 0.26819400 -0.01950100 0.04820700
v 0.26840600 -0.01925500 0.04842400
v 0.27184100 -0.02213100 0.04820700
v 0.27200700 -0.02185200 0.04842400
v 0.27588900 -0.02408700 0.04820700
v 0.27600400 -0.02378400 0.04842400
v 0.28021500 -0.02531200 0.04820700
v 0.28027600 -0.02499300 0.04842400
v 0.28468800 -0.02576600 0.04820700
v 0.28469200 -0.02544200 0.04842400
v 0.28917200 -0.02543700 0.04820700
v 0.28912000 -0.02511700 0.04842400
v 0.29353000 -0.02433400 0.04820700
v 0.29342400 -0.02402800 0.04842400
v 0.29763100 -0.02249100 0.04820700
v 0.29747300 -0.02220800 0.04842400
v 0.30135000 -0.01996400 0.04820700
v 0.30114500 -0.01971200 0.04842400
v 0.30457300 -0.01682900 0.04820700
v 0.30432700 -0.01661700 0.04842400
v 0.30720300 -0.01318300 0.04820700
v 0.30692400 -0.01301700 0.04842400
v 0.30916000 -0.00913500 0.04820700
v 0.30885600 -0.00902000 0.04842400
v 0.31038400 -0.00480900 0.04820700
v 0.29180300 -0.03005500 0.04712400
v 0.29180300 -0.03005500 0.04712400
v 0.29202200 -0.03029500 0.04690700
v 0.28930900 -0.03185000 0.04712400
v 0.28930900 -0.03185000 0.04712400
v 0.28646900 -0.03302400 0.04712400
v 0.28343500 -0.03351200 0.04712400
v 0.28037000 -0.03329000 0.04712400
v 0.28946700 -0.03213400 0.04690700
v 0.28646900 -0.03302400 0.04712400
v 0.28655700 -0.03333600 0.04690700
v 0.28343500 -0.03351200 0.04712400
v 0.28344900 -0.03383600 0.04690700
v 0.28031000 -0.03360900 0.04690700
v 0.24259000 -0.01558800 0.04579300
v 0.24172700 -0.01749500 0.04579300
v 0.24134500 -0.01955300 0.04579300
v 0.24146400 -0.02164200 0.04579300
v 0.24207900 -0.02364300 0.04579300
v 0.24315300 -0.02543900 0.04579300
v 0.24462500 -0.02692600 0.04579300
v 0.24640900 -0.02802000 0.04579300
v 0.24840300 -0.02865600 0.04579300
v 0.26093000 0.01465200 0.04579300
v 0.30406700 -0.02080700 0.04579300
v 0.30734000 -0.01725800 0.04579300
v 0.31295700 -0.00406200 0.04579300
v 0.31324500 0.00075700 0.04579300
v 0.31289200 0.00453400 0.04579300
v 0.31270800 0.00555500 0.04579300
v 0.31135900 0.01019000 0.04579300
v 0.30967000 0.01378500 0.04579300
v 0.30924000 0.01452800 0.04579300
v 0.30641300 0.01844100 0.04579300
v 0.30347900 0.02137700 0.04579300
v 0.30295900 0.02181500 0.04579300
v 0.29898100 0.02455000 0.04579300
v 0.29506400 0.02639300 0.04579300
v 0.29459500 0.02656700 0.04579300
v 0.28992900 0.02780600 0.04579300
v 0.28544200 0.02822900 0.04579300
v 0.28512000 0.02823100 0.04579300
v 0.28030900 0.02783100 0.04579300
v 0.26377700 0.01855000 0.04579300
v 0.26724800 0.02190600 0.04579300
v 0.27124000 0.02462100 0.04579300
v 0.27563700 0.02661500 0.04579300
v 0.27577100 0.02666300 0.04579300
v 0.30927700 -0.01441900 0.04579300
v 0.30996100 -0.01320400 0.04579300
v 0.31185200 -0.00876200 0.04579300
v 0.31275500 -0.00526100 0.04579300
v 0.29277300 -0.03111800 0.04579300
v 0.28010100 -0.03470300 0.04579300
v 0.28349800 -0.03495000 0.04579300
v 0.28686100 -0.03440800 0.04579300
v 0.29000900 -0.03310700 0.04579300
v 0.24240400 -0.01547600 0.04546800
v 0.24152000 -0.01743000 0.04546800
v 0.24233900 -0.01543600 0.04508600
v 0.24144800 -0.01740700 0.04508600
v 0.24105300 -0.01953400 0.04508600
v 0.24112800 -0.01953900 0.04546800
v 0.24117600 -0.02169400 0.04508600
v 0.24125100 -0.02168000 0.04546800
v 0.24181100 -0.02376200 0.04508600
v 0.24188100 -0.02373100 0.04546800
v 0.24292200 -0.02561800 0.04508600
v 0.24292200 -0.02561800 0.04508600
v 0.24298200 -0.02557100 0.04546800
v 0.24444300 -0.02715600 0.04508600
v 0.24449000 -0.02709600 0.04546800
v 0.24628700 -0.02828600 0.04508600
v 0.24628700 -0.02828600 0.04508600
v 0.24631900 -0.02821700 0.04546800
v 0.24834800 -0.02894400 0.04508600
v 0.24836200 -0.02886900 0.04546800
v 0.26067900 0.01480300 0.04508600
v 0.26074400 0.01476400 0.04546800
v 0.30421300 -0.02096700 0.04546800
v 0.30426400 -0.02102300 0.04508600
v 0.30757200 -0.01743800 0.04508600
v 0.30751200 -0.01739100 0.04546800
v 0.31015200 -0.01330500 0.04546800
v 0.31205800 -0.00882900 0.04546800
v 0.31317200 -0.00409400 0.04546800
v 0.31346200 0.00076300 0.04546800
v 0.31292000 0.00559700 0.04546800
v 0.31156200 0.01026800 0.04546800
v 0.30942600 0.01464000 0.04546800
v 0.30657700 0.01858300 0.04546800
v 0.30309700 0.02198200 0.04546800
v 0.29908800 0.02473800 0.04546800
v 0.29466800 0.02677100 0.04546800
v 0.28996600 0.02801900 0.04546800
v 0.28512000 0.02844800 0.04546800
v 0.28027300 0.02804400 0.04546800
v 0.31022000 -0.01334100 0.04508600
v 0.31213000 -0.00885300 0.04508600
v 0.31324700 -0.00410500 0.04508600
v 0.31353800 0.00076400 0.04508600
v 0.31299500 0.00561200 0.04508600
v 0.31163300 0.01029600 0.04508600
v 0.30949200 0.01467900 0.04508600
v 0.30663500 0.01863200 0.04508600
v 0.30314500 0.02204100 0.04508600
v 0.29912600 0.02480500 0.04508600
v 0.29469400 0.02684200 0.04508600
v 0.28998000 0.02809400 0.04508600
v 0.28512100 0.02852400 0.04508600
v 0.28026000 0.02811900 0.04508600
v 0.27553900 0.02689100 0.04508600
v 0.27556400 0.02681900 0.04546800
v 0.27109700 0.02487600 0.04508600
v 0.27113400 0.02481000 0.04546800
v 0.26706300 0.02213300 0.04508600
v 0.26711100 0.02207400 0.04546800
v 0.26355600 0.01874200 0.04508600
v 0.26361400 0.01869200 0.04546800
v 0.29297100 -0.03133400 0.04508600
v 0.29291900 -0.03127800 0.04546800
v 0.28006000 -0.03491600 0.04546800
v 0.28350700 -0.03516600 0.04546800
v 0.28004600 -0.03499100 0.04508600
v 0.28351100 -0.03524200 0.04508600
v 0.28694000 -0.03469000 0.04508600
v 0.28692000 -0.03461700 0.04546800
v 0.29015100 -0.03336300 0.04508600
v 0.29011400 -0.03329700 0.04546800
v 0.24834800 -0.02894400 0.04420000
v 0.28004600 -0.03499100 0.04420000
v 0.28694000 -0.03469000 0.04420000
v 0.29297100 -0.03133400 0.04420000
v 0.30426400 -0.02102300 0.04420000
v 0.31022000 -0.01334100 0.04420000
v 0.31324700 -0.00410500 0.04420000
v 0.31299500 0.00561200 0.04420000
v 0.30949200 0.01467900 0.04420000
v 0.30314500 0.02204100 0.04420000
v 0.29469400 0.02684200 0.04420000
v 0.28512100 0.02852400 0.04420000
v 0.27553900 0.02689100 0.04420000
v 0.26706300 0.02213300 0.04420000
v 0.26067900 0.01480300 0.04420000
v 0.24233900 -0.01543600 0.04420000
v 0.24233900 -0.01543600 0.04420000
v 0.24105300 -0.01953400 0.04420000
v 0.24181100 -0.02376200 0.04420000
v 0.24444300 -0.02715600 0.04420000
v 0.24444300 -0.02715600 0.04420000
v 0.24181100 -0.02376200 0.04420000
v 0.26142500 -0.02082400 0.04599300
v 0.25888800 -0.01811100 0.04577600
v 0.26375900 -0.02364000 0.04577600
v 0.28351100 -0.03524200 0.04508600
v 0.28004600 -0.03499100 0.04420000
v 0.28694000 -0.03469000 0.04420000
v 0.29015100 -0.03336300 0.04508600
v 0.28694000 -0.03469000 0.04420000
v 0.29297100 -0.03133400 0.04420000
v 0.30757200 -0.01743800 0.04508600
v 0.30426400 -0.02102300 0.04420000
v 0.31022000 -0.01334100 0.04420000
v 0.31213000 -0.00885300 0.04508600
v 0.31022000 -0.01334100 0.04420000
v 0.31324700 -0.00410500 0.04420000
v 0.31353800 0.00076400 0.04508600
v 0.31324700 -0.00410500 0.04420000
v 0.31299500 0.00561200 0.04420000
v 0.31163300 0.01029600 0.04508600
v 0.31299500 0.00561200 0.04420000
v 0.30949200 0.01467900 0.04420000
v 0.30663500 0.01863200 0.04508600
v 0.30949200 0.01467900 0.04420000
v 0.30314500 0.02204100 0.04420000
v 0.29912600 0.02480500 0.04508600
v 0.30314500 0.02204100 0.04420000
v 0.29469400 0.02684200 0.04420000
v 0.28998000 0.02809400 0.04508600
v 0.29469400 0.02684200 0.04420000
v 0.28512100 0.02852400 0.04420000
v 0.28026000 0.02811900 0.04508600
v 0.28512100 0.02852400 0.04420000
v 0.27553900 0.02689100 0.04420000
v 0.27109700 0.02487600 0.04508600
v 0.27553900 0.02689100 0.04420000
v 0.26706300 0.02213300 0.04420000
v 0.26355600 0.01874200 0.04508600
v 0.26706300 0.02213300 0.04420000
v 0.26067900 0.01480300 0.04420000
v 0.24144800 -0.01740700 0.04508600
v 0.24233900 -0.01543600 0.04420000
v 0.24105300 -0.01953400 0.04508600
v 0.24834800 -0.02894400 0.04508600
v 0.24628700 -0.02828600 0.04508600
v 0.24444300 -0.02715600 0.04420000
v 0.24181100 -0.02376200 0.04420000
v 0.24444300 -0.02715600 0.04508600
v 0.24292200 -0.02561800 0.04508600
v 0.28799500 -0.00053800 0.04350000
v 0.28799500 -0.00053800 0.04700000
v 0.28799500 -0.00053800 0.04700000
v 0.28788100 0.00101100 0.04350000
v 0.28788100 0.00101100 0.04350000
v 0.28788100 0.00101100 0.04700000
v 0.28788100 0.00101100 0.04350000
v 0.28788100 0.00101100 0.04700000
v 0.28788100 0.00101100 0.04700000
v 0.28700800 0.00229500 0.04350000
v 0.28700800 0.00229500 0.04350000
v 0.28700800 0.00229500 0.04700000
v 0.28700800 0.00229500 0.04350000
v 0.28700800 0.00229500 0.04700000
v 0.28700800 0.00229500 0.04700000
v 0.28561000 0.00297100 0.04350000
v 0.28561000 0.00297100 0.04350000
v 0.28561000 0.00297100 0.04700000
v 0.28561000 0.00297100 0.04350000
v 0.28561000 0.00297100 0.04700000
v 0.28561000 0.00297100 0.04700000
v 0.28406100 0.00285700 0.04350000
v 0.28406100 0.00285700 0.04350000
v 0.28406100 0.00285700 0.04700000
v 0.28406100 0.00285700 0.04350000
v 0.28406100 0.00285700 0.04700000
v 0.28406100 0.00285700 0.04700000
v 0.28277700 0.00198500 0.04350000
v 0.28277700 0.00198500 0.04350000
v 0.28277700 0.00198500 0.04700000
v 0.28277700 0.00198500 0.04350000
v 0.28277700 0.00198500 0.04700000
v 0.28277700 0.00198500 0.04700000
v 0.28210100 0.00058600 0.04350000
v 0.28210100 0.00058600 0.04350000
v 0.28210100 0.00058600 0.04700000
v 0.28210100 0.00058600 0.04350000
v 0.28210100 0.00058600 0.04700000
v 0.28210100 0.00058600 0.04700000
v 0.28221500 -0.00096200 0.04350000
v 0.28221500 -0.00096200 0.04350000
v 0.28221500 -0.00096200 0.04700000
v 0.28221500 -0.00096200 0.04350000
v 0.28221500 -0.00096200 0.04700000
v 0.28221500 -0.00096200 0.04700000
v 0.28308800 -0.00224700 0.04350000
v 0.28308800 -0.00224700 0.04350000
v 0.28308800 -0.00224700 0.04700000
v 0.28308800 -0.00224700 0.04350000
v 0.28308800 -0.00224700 0.04700000
v 0.28308800 -0.00224700 0.04700000
v 0.28448600 -0.00292300 0.04350000
v 0.28448600 -0.00292300 0.04350000
v 0.28448600 -0.00292300 0.04700000
v 0.28448600 -0.00292300 0.04350000
v 0.28448600 -0.00292300 0.04700000
v 0.28448600 -0.00292300 0.04700000
v 0.28603500 -0.00280900 0.04350000
v 0.28603500 -0.00280900 0.04350000
v 0.28603500 -0.00280900 0.04700000
v 0.28603500 -0.00280900 0.04350000
v 0.28603500 -0.00280900 0.04700000
v 0.28731900 -0.00193600 0.04350000
v 0.28731900 -0.00193600 0.04700000
v 0.28731900 -0.00193600 0.04350000
v 0.28731900 -0.00193600 0.04700000
v 0.28731900 -0.00193600 0.04700000
v 0.28799500 -0.00053800 0.04350000
v 0.28799500 -0.00053800 0.04350000
v 0.28799500 -0.00053800 0.04700000
vn -0.05825400 0.09205200 0.99404900
vn 0.00000100 -0.00000000 1.00000000
vn 0.00000000 0.00000000 1.00000000
vn 0.02868500 0.12748100 0.99142600
vn 0.00326200 0.13063000 0.99142600
vn -0.00000200 0.00000000 1.00000000
vn -0.01859000 0.10733500 0.99404900
vn -0.04697500 0.12193300 0.99142600
vn 0.04418100 0.09953300 0.99405300
vn -0.00000200 0.00000000 1.00000000
vn 0.07528600 0.10680100 0.99142600
vn -0.00000100 0.00000000 1.00000000
vn 0.09205100 0.05825300 0.99404900
vn 0.09466800 0.09005500 0.99142700
vn 0.00000200 -0.00000000 1.00000000
vn 0.04696700 -0.12189700 0.99143100
vn 0.05825600 -0.09205300 0.99404900
vn 0.00000100 -0.00000000 1.00000000
vn 0.00000100 -0.00000000 1.00000000
vn -0.09203100 -0.05821100 0.99405300
vn 0.12748100 -0.02868300 0.99142600
vn 0.13062800 -0.00326000 0.99142600
vn 0.00000000 -0.00000000 1.00000000
vn 0.10734000 0.01859400 0.99404800
vn 0.12192600 0.04697400 0.99142700
vn 0.00000300 -0.00000000 1.00000000
vn -0.05299800 -0.11943300 0.99142700
vn 0.00000100 -0.00000000 1.00000000
vn -0.06275300 -0.08904700 0.99404900
vn -0.09467200 -0.09006000 0.99142600
vn -0.12747000 0.02868100 0.99142800
vn -0.13063000 0.00326200 0.99142600
vn 0.00000100 -0.00000000 1.00000000
vn -0.10734800 -0.01859900 0.99404800
vn -0.12194000 -0.04698000 0.99142500
vn 0.09006300 -0.09467100 0.99142600
vn 0.08900300 -0.06274900 0.99405300
vn 0.11943600 -0.05299900 0.99142600
vn -0.02868000 -0.12748100 0.99142600
vn -0.00273200 -0.10885600 0.99405400
vn 0.02228800 -0.12875900 0.99142500
vn -0.09006200 0.09467200 0.99142600
vn -0.08908100 0.06275700 0.99404500
vn -0.11943600 0.05300000 0.99142600
vn -0.31508900 0.06356100 0.94693100
vn -0.32148000 0.00084400 0.94691600
vn -0.31543400 -0.06185900 0.94692900
vn -0.29730300 -0.12220700 0.94693000
vn -0.26776400 -0.17789000 0.94692000
vn -0.22790500 -0.22667700 0.94693000
vn -0.17930300 -0.26678400 0.94693000
vn -0.12380600 -0.29667500 0.94691900
vn -0.06356100 -0.31508900 0.94693100
vn -0.00086800 -0.32143800 0.94693000
vn 0.06185800 -0.31543100 0.94693000
vn 0.12220900 -0.29730300 0.94693000
vn 0.17789600 -0.26776600 0.94691800
vn 0.22671500 -0.22791600 0.94691800
vn 0.26678400 -0.17930200 0.94693000
vn 0.29667400 -0.12380600 0.94692000
vn 0.31508800 -0.06356100 0.94693200
vn 0.32143700 -0.00087000 0.94693000
vn 0.31543000 0.06185600 0.94693100
vn 0.29732300 0.12223600 0.94692000
vn 0.26774700 0.17785700 0.94693100
vn 0.22790400 0.22667200 0.94693200
vn 0.17930600 0.26682500 0.94691800
vn 0.12381100 0.29663400 0.94693100
vn 0.06356100 0.31509200 0.94693000
vn 0.00086700 0.32143900 0.94693000
vn -0.06188300 0.31546000 0.94691900
vn -0.12220400 0.29730000 0.94693100
vn -0.17785700 0.26774500 0.94693100
vn -0.22667100 0.22790300 0.94693200
vn -0.26673200 0.17930000 0.94694500
vn -0.29663800 0.12381000 0.94693000
vn -0.32130100 -0.01308600 0.94688700
vn -0.31257400 -0.07551700 0.94688700
vn -0.29183600 -0.13504400 0.94688700
vn -0.25988500 -0.18934100 0.94689500
vn -0.21795600 -0.23640500 0.94689400
vn -0.16762500 -0.27442200 0.94688700
vn -0.11086700 -0.30185400 0.94688600
vn -0.04988500 -0.31765200 0.94689400
vn 0.01308700 -0.32130300 0.94688600
vn 0.07551900 -0.31257700 0.94688600
vn 0.13504800 -0.29183900 0.94688500
vn 0.18938800 -0.25988600 0.94688500
vn 0.23645000 -0.21794300 0.94688600
vn 0.27438300 -0.16764900 0.94689400
vn 0.30185500 -0.11086800 0.94688500
vn 0.31768400 -0.04984600 0.94688500
vn 0.32130400 0.01309200 0.94688600
vn 0.31257500 0.07551900 0.94688700
vn 0.29183500 0.13504800 0.94688700
vn 0.25988600 0.18934100 0.94689500
vn 0.21794000 0.23645100 0.94688600
vn 0.16762600 0.27442500 0.94688600
vn 0.11086700 0.30185300 0.94688600
vn 0.04984800 0.31768300 0.94688600
vn -0.01304300 0.32127800 0.94689500
vn -0.07547100 0.31255900 0.94689600
vn -0.13504700 0.29183700 0.94688600
vn -0.18938900 0.25988500 0.94688500
vn -0.23640500 0.21795400 0.94689400
vn -0.27442800 0.16762400 0.94688500
vn -0.30185400 0.11086800 0.94688600
vn -0.31768400 0.04985000 0.94688500
vn -0.10890400 0.00273100 0.99404800
vn -0.10729200 -0.01858300 0.99405400
vn -0.10163100 -0.03915300 0.99405100
vn -0.07890000 -0.04993200 0.99563100
vn -0.07889400 -0.07506200 0.99405300
vn -0.06274100 -0.08901400 0.99405200
vn -0.04417100 -0.09954600 0.99405200
vn -0.02393100 -0.10628400 0.99404800
vn -0.00270600 -0.10885500 0.99405400
vn 0.01858100 -0.10729300 0.99405400
vn 0.03915400 -0.10163900 0.99405100
vn 0.04992600 -0.07889600 0.99563200
vn 0.07506400 -0.07889800 0.99405300
vn 0.08899300 -0.06269900 0.99405700
vn 0.09951700 -0.04413600 0.99405700
vn 0.10621300 -0.02387100 0.99405700
vn 0.10890500 -0.00273400 0.99404800
vn 0.10724300 0.01859500 0.99405900
vn 0.10164100 0.03915300 0.99405000
vn 0.07889500 0.04992400 0.99563200
vn 0.07890200 0.07506400 0.99405200
vn 0.06274000 0.08901500 0.99405200
vn 0.04417000 0.09954400 0.99405200
vn 0.02390000 0.10624600 0.99405300
vn 0.00273000 0.10890100 0.99404900
vn -0.01858400 0.10729000 0.99405400
vn -0.03915400 0.10163800 0.99405100
vn -0.04992500 0.07889600 0.99563200
vn -0.07506600 0.07890500 0.99405200
vn -0.08901600 0.06274300 0.99405200
vn -0.09954100 0.04416500 0.99405300
vn -0.10624300 0.02389400 0.99405300
vn -0.06416600 0.07417400 0.99517900
vn -0.07607000 0.06189900 0.99517900
vn -0.08567200 0.04776300 0.99517800
vn -0.09264500 0.03213700 0.99518000
vn -0.09679700 0.01554800 0.99518300
vn -0.09802800 -0.00149800 0.99518300
vn -0.09630600 -0.01848700 0.99518000
vn -0.09166600 -0.03492600 0.99517700
vn -0.10093300 -0.06032100 0.99306300
vn -0.07418100 -0.06416700 0.99517800
vn -0.06190200 -0.07607100 0.99517900
vn -0.04778400 -0.08568500 0.99517600
vn -0.03214900 -0.09265300 0.99517900
vn -0.01557200 -0.09682800 0.99517900
vn 0.00147800 -0.09806500 0.99517900
vn 0.01848300 -0.09631900 0.99517900
vn 0.03492600 -0.09165600 0.99517800
vn 0.07413500 0.06415700 0.99518200
vn 0.06190400 0.07607000 0.99517900
vn 0.04775100 0.08566500 0.99517900
vn 0.03214800 0.09265300 0.99517900
vn 0.01557400 0.09682900 0.99517900
vn -0.00147700 0.09806400 0.99517900
vn -0.01848300 0.09631800 0.99517900
vn -0.03492700 0.09164800 0.99517900
vn -0.06033200 0.10094100 0.99306100
vn 0.06033400 -0.10094200 0.99306100
vn 0.06416600 -0.07417500 0.99517900
vn 0.07607400 -0.06191300 0.99517800
vn 0.08565800 -0.04774000 0.99518000
vn 0.09265900 -0.03215600 0.99517800
vn 0.09681100 -0.01555900 0.99518100
vn 0.09804400 0.00148800 0.99518100
vn 0.09629000 0.01849300 0.99518200
vn 0.09164100 0.03492900 0.99517900
vn 0.10095700 0.06034400 0.99305900
vn 0.19499400 -0.00837600 0.98076900
vn 0.19348200 0.02565600 0.98076800
vn 0.18609700 0.05882400 0.98076900
vn 0.17305500 0.09024000 0.98076900
vn 0.15475800 0.11891700 0.98076900
vn 0.13178800 0.14395500 0.98077000
vn 0.10475200 0.16468100 0.98076900
vn 0.07460700 0.18035300 0.98076800
vn 0.04206300 0.19058600 0.98076900
vn 0.00837700 0.19499300 0.98076900
vn -0.02556200 0.19349200 0.98076900
vn -0.05886500 0.18608500 0.98076900
vn -0.09021100 0.17307700 0.98076800
vn -0.11888400 0.15478700 0.98076900
vn -0.14395900 0.13179900 0.98076700
vn -0.16468400 0.10475000 0.98076800
vn -0.18037200 0.07456100 0.98076800
vn -0.19056900 0.04215600 0.98076800
vn -0.19499200 0.00837600 0.98076900
vn -0.19348000 -0.02566100 0.98076900
vn -0.18611400 -0.05877700 0.98076800
vn -0.17308500 -0.09020400 0.98076800
vn -0.15476100 -0.11891900 0.98076900
vn -0.13179500 -0.14395600 0.98076800
vn -0.10479200 -0.16465600 0.98076900
vn -0.07456400 -0.18037000 0.98076900
vn -0.04210800 -0.19057800 0.98076900
vn -0.00837700 -0.19499300 0.98076900
vn 0.02561000 -0.19348700 0.98076900
vn 0.05882100 -0.18609800 0.98076900
vn 0.09019900 -0.17307700 0.98076900
vn 0.11892100 -0.15475300 0.98077000
vn 0.14395400 -0.13179100 0.98076900
vn 0.16468100 -0.10474700 0.98076900
vn 0.18037000 -0.07456500 0.98076800
vn 0.19056900 -0.04215400 0.98076800
vn 0.06971800 -0.04705500 0.99645600
vn 0.07198100 -0.03240300 0.99688000
vn -0.08597200 -0.04701300 0.99518800
vn -0.04860900 -0.04416000 0.99784100
vn -0.05797700 -0.04539200 0.99728500
vn 0.03020100 0.09404500 0.99511000
vn 0.09279200 0.03251700 0.99515400
vn 0.10059300 0.10754200 0.98909800
vn 0.11668100 -0.01700200 0.99302400
vn 0.02545500 0.10505000 0.99414100
vn 0.00589800 0.06519000 0.99785500
vn -0.03949300 -0.04187500 0.99834200
vn -0.00987600 0.05253800 0.99857000
vn -0.01584600 0.02648900 0.99952400
vn -0.12135100 -0.03805300 0.99188000
vn -0.06410100 -0.02546000 0.99761900
vn 0.07607200 -0.05751600 0.99544200
vn 0.02866200 -0.04379600 0.99862900
vn -0.06638600 -0.03976200 0.99700100
vn -0.03801600 -0.00630400 0.99925700
vn -0.03908200 0.00890400 0.99919600
vn -0.03948200 0.02910000 0.99879600
vn -0.01400800 -0.07379600 0.99717500
vn 0.01401300 -0.06210100 0.99797100
vn -0.02811100 -0.04462100 0.99860800
vn -0.05867200 -0.04517600 0.99725500
vn 0.29402400 -0.13245200 0.94657600
vn 0.29415800 -0.13248500 0.94653000
vn 0.19568600 0.00358200 0.98066000
vn 0.17174900 0.09385400 0.98066000
vn 0.10868400 0.16277300 0.98065900
vn 0.06001200 0.18711500 0.98050300
vn 0.56494600 -0.26828700 0.78029400
vn 0.55100200 -0.08046200 0.83061600
vn 0.63250100 -0.04620300 0.77318100
vn 0.52554700 0.18406700 0.83061400
vn 0.58189600 0.25219700 0.77317100
vn 0.38039400 0.40666700 0.83061600
vn 0.39876100 0.49313900 0.77317800
vn 0.17047000 0.53176200 0.82956000
vn 0.20192000 0.63050300 0.74946300
vn 0.15758100 -0.09144400 0.98326300
vn 0.44387300 -0.33761600 0.83005500
vn 0.46905000 -0.33249300 0.81819400
vn -0.52412900 -0.18439200 0.83143800
vn -0.58976500 -0.21619600 0.77809800
vn -0.51562100 -0.21613600 0.82910800
vn -0.28066800 -0.10680400 0.95384400
vn -0.29591200 -0.13302400 0.94590700
vn -0.38089800 -0.27051200 0.88416100
vn -0.20085400 -0.15404600 0.96743300
vn -0.33358300 -0.28024000 0.90010400
vn -0.12875300 -0.18937900 0.97342600
vn -0.18921400 -0.30471500 0.93346000
vn -0.09264100 -0.32059000 0.94267700
vn -0.04348900 -0.19474000 0.97989000
vn 0.01348700 -0.33951500 0.94050400
vn 0.03108200 -0.20591600 0.97807600
vn 0.20231300 -0.35256500 0.91365600
vn 0.11089700 -0.20992100 0.97140900
vn 0.31235800 -0.32667400 0.89203000
vn 0.21689500 -0.20585100 0.95424400
vn -0.17547900 -0.08552200 0.98076100
vn -0.16036200 -0.11111000 0.98078500
vn -0.12396300 -0.13297900 0.98333600
vn -0.53890000 -0.28646400 0.79216500
vn -0.48741800 -0.26666100 0.83145400
vn -0.48738900 -0.33194000 0.80763100
vn -0.45670900 -0.31637300 0.83146000
vn -0.47582100 -0.41957100 0.77301600
vn -0.43273700 -0.35533500 0.82853800
vn -0.40803100 -0.41436000 0.81352100
vn 0.06746200 0.35312700 0.93314000
vn 0.11005100 0.59297600 0.79766400
vn 0.03413300 0.50640100 0.86162200
vn 0.01529400 0.27239000 0.96206500
vn -0.04992900 0.38644000 0.92096200
vn -0.03691600 0.18276600 0.98246300
vn -0.12361400 0.23189100 0.96485500
vn -0.07581200 0.12553800 0.98918800
vn -0.17124200 0.15156200 0.97350200
vn -0.10355800 0.08068200 0.99134600
vn -0.21440300 0.08260600 0.97324600
vn -0.12710300 0.03736500 0.99118500
vn -0.23502300 -0.00398900 0.97198200
vn -0.14980100 -0.01042700 0.98866100
vn -0.26476700 -0.10870100 0.95816600
vn -0.17860900 -0.08002600 0.98066000
vn -0.33046500 -0.27735300 0.90214600
vn -0.21592100 -0.18657200 0.95842000
vn 0.57658000 -0.24653100 0.77896000
vn 0.63533300 0.01168600 0.77214900
vn 0.55757400 0.30477900 0.77215400
vn 0.35281200 0.52850200 0.77214600
vn 0.18213500 0.62517400 0.75893700
vn 0.44639800 -0.36378300 0.81755200
vn -0.17780300 -0.31719300 0.93154400
vn -0.51770200 -0.23658500 0.82220000
vn 0.17164300 -0.33242500 0.92737900
vn 0.30326500 -0.32415500 0.89607700
vn 0.15510800 -0.35884700 0.92041800
vn -0.41928800 -0.22455500 0.87964400
vn -0.27303100 -0.24843200 0.92937400
vn -0.13367800 -0.24966400 0.95906100
vn 0.03799000 -0.29456500 0.95487600
vn -0.02498100 -0.25135700 0.96757200
vn -0.05030700 -0.22797100 0.97236700
vn -0.47572800 -0.40265900 0.78201600
vn -0.41304100 -0.40604000 0.81518600
vn -0.36965300 -0.42235600 0.82763000
vn -0.55913400 -0.27623400 0.78170600
vn 0.00262700 0.39602500 0.91823600
vn -0.08141100 0.20156200 0.97608700
vn -0.00925900 0.47211700 0.88148700
vn 0.06518200 0.61257300 0.78772200
vn -0.20908600 0.13313500 0.96879200
vn -0.30107300 -0.15287000 0.94126800
vn -0.24794900 -0.24810800 0.93646300
vn -0.30813300 -0.37703600 0.87344000
vn -0.10669700 0.05598600 0.99271400
vn -0.12863100 0.03084100 0.99121300
vn -0.14611900 0.04246600 0.98835500
vn -0.12740300 -0.00254500 0.99184800
vn -0.08656500 0.06150100 0.99434600
vn -0.08297500 0.10862900 0.99061300
vn -0.21211500 -0.13708100 0.96758300
vn -0.14798900 -0.06314200 0.98697100
vn -0.12926400 -0.03660700 0.99093400
vn 0.07530900 0.54476600 0.83520000
vn 0.03448800 0.10741800 0.99361600
vn 0.08369300 0.37359800 0.92380700
vn 0.10866200 0.16279200 0.98065800
vn 0.23600200 0.51538200 0.82382300
vn 0.38040300 0.40667000 0.83061000
vn 0.52555700 0.18405300 0.83061100
vn 0.55101400 -0.08046000 0.83060800
vn 0.29408700 -0.13250600 0.94654900
vn 0.05755500 0.06150600 0.99644600
vn 0.17173700 0.09388100 0.98065900
vn 0.07948100 0.02787000 0.99644700
vn 0.19569000 0.00360700 0.98065900
vn 0.08334900 -0.01218700 0.99644600
vn 0.07200500 -0.03241600 0.99687700
vn 0.08452200 -0.06038300 0.99459000
vn 0.34151900 -0.23904200 0.90896800
vn -0.17018300 -0.06741400 0.98310400
vn -0.09230300 -0.03440700 0.99513600
vn -0.07783500 -0.03501300 0.99635100
vn -0.52451000 -0.18711200 0.83058900
vn -0.36828600 -0.15885500 0.91604100
vn -0.14000200 -0.07355100 0.98741600
vn -0.06165200 -0.04762900 0.99696100
vn -0.19318700 -0.15142000 0.96940700
vn -0.02913100 -0.04229400 0.99868000
vn -0.11063400 -0.16505800 0.98005900
vn -0.01216800 -0.03735900 0.99922800
vn -0.05338800 -0.17260600 0.98354300
vn -0.00491500 -0.05334700 0.99856400
vn -0.01328300 -0.17779600 0.98397800
vn 0.00603900 -0.05458900 0.99849100
vn 0.02571200 -0.18342900 0.98269700
vn 0.02224100 -0.05675600 0.99814000
vn 0.08471300 -0.19166800 0.97779700
vn 0.04777400 -0.05895600 0.99711700
vn 0.17643300 -0.19818900 0.96415400
vn -0.22475900 -0.27011900 0.93622600
vn -0.40259800 -0.38323900 0.83129000
vn -0.05583400 -0.06662000 0.99621500
vn -0.07101800 -0.06762300 0.99518000
vn -0.15136800 -0.12332300 0.98075400
vn -0.08470400 -0.04950500 0.99517600
vn -0.17564500 -0.08521700 0.98075800
vn -0.47990100 -0.28054300 0.83125900
vn 0.04962300 0.30617300 0.95068100
vn 0.01229500 0.07746600 0.99691900
vn 0.00434400 0.09116200 0.99582700
vn -0.00109900 0.13029700 0.99147400
vn -0.00923000 0.05382900 0.99850800
vn 0.02070000 0.35197100 0.93578200
vn -0.02935400 0.16441800 0.98595400
vn -0.01599100 0.03088200 0.99939500
vn -0.05115100 0.09750200 0.99392000
vn -0.01903900 0.01911700 0.99963600
vn -0.06215600 0.06098000 0.99620200
vn -0.02077800 0.01142000 0.99971900
vn -0.06912600 0.03667700 0.99693400
vn -0.01237000 0.00357500 0.99991700
vn -0.07434300 0.02022600 0.99702800
vn -0.01954000 0.00157800 0.99980800
vn -0.07989300 0.00431300 0.99679400
vn -0.02146300 -0.00437500 0.99976000
vn -0.08994600 -0.02321700 0.99567600
vn -0.03236800 -0.01883700 0.99929800
vn -0.13183200 -0.08657400 0.98748400
vn -0.11898500 -0.11451800 0.98627000
vn -0.03091500 -0.02682300 0.99916200
vn -0.04598500 -0.05095300 0.99764200
vn -0.16010200 -0.18499200 0.96961100
vn -0.00850400 -0.06491400 0.99785500
vn -0.01935400 -0.07612200 0.99691100
vn -0.03722000 -0.09076200 0.99517700
vn -0.06933900 -0.09510400 0.99304900
vn -0.07504800 -0.06317700 0.99517700
vn -0.10550500 -0.05212900 0.99305100
vn -0.09578700 -0.02120300 0.99517600
vn -0.11764300 0.00270700 0.99305200
vn -0.10728300 0.05035600 0.99295200
vn -0.11636400 0.01740300 0.99305400
vn -0.09803400 -0.00148700 0.99518200
vn -0.08254100 -0.01584600 0.99646200
vn -0.09470700 0.02560600 0.99517600
vn -0.08790300 0.04406300 0.99515400
vn 0.03823300 -0.06283000 0.99729200
vn 0.02218300 -0.11550600 0.99305900
vn 0.00127700 -0.08402200 0.99646300
vn 0.00969400 -0.11728100 0.99305100
vn 0.03639600 -0.11188500 0.99305400
vn 0.03437400 -0.09177500 0.99518600
vn 0.06186500 -0.07623000 0.99516900
vn 0.10035500 -0.12707800 0.98680300
vn -0.01556800 -0.09677100 0.99518500
vn -0.02755200 -0.07941100 0.99646100
vn -0.04092500 -0.07342300 0.99646100
vn -0.09160500 -0.03491600 0.99518300
vn -0.08413800 -0.05027500 0.99518500
vn -0.07413800 -0.06414100 0.99518300
vn -0.06187200 -0.07603800 0.99518300
vn -0.15970200 -0.60357800 0.78114600
vn -0.16977200 -0.53192400 0.82959900
vn -0.21087000 -0.51432900 0.83126400
vn -0.06008800 -0.26396500 0.96265900
vn -0.08835700 -0.17410900 0.98075400
vn -0.12731700 -0.14802200 0.98075500
vn -0.15898900 -0.11333000 0.98075400
vn -0.18143600 -0.07212400 0.98075400
vn -0.19341000 -0.02674000 0.98075400
vn -0.19420300 0.02017300 0.98075400
vn -0.18377800 0.06593400 0.98075400
vn -0.34542000 0.17817100 0.92137900
vn -0.28726600 -0.56591700 0.77279800
vn -0.32750800 -0.44915700 0.83126200
vn -0.41400100 -0.48103200 0.77279500
vn -0.42524400 -0.35800800 0.83126300
vn -0.51682100 -0.36834500 0.77279900
vn -0.49837700 -0.24622100 0.83126100
vn -0.58978400 -0.23439500 0.77279600
vn -0.54272600 -0.12021000 0.83126300
vn -0.62867300 -0.08689900 0.77280000
vn -0.55573100 0.01277800 0.83126400
vn -0.63125000 0.06563900 0.77279700
vn -0.53663800 0.14501900 0.83125700
vn -0.59735300 0.21436600 0.77279800
vn -0.56610100 0.31766300 0.76067100
vn -0.45412500 0.26637900 0.85018400
vn -0.58087000 0.34712900 0.73626900
vn -0.59215100 0.38493700 0.70794100
vn -0.57757500 0.34103000 0.74169100
vn -0.55775100 0.29841200 0.77450900
vn -0.32258600 0.16844100 0.93143200
vn -0.18221900 0.07101800 0.98069000
vn -0.59416200 0.33603200 0.73079000
vn -0.58130900 0.27409600 0.76612700
vn -0.54807100 0.18392300 0.81596000
vn -0.61713600 0.19422300 0.76251000
vn -0.19136900 0.03792800 0.98078500
vn -0.19498300 0.00842600 0.98077100
vn -0.19348600 -0.02556000 0.98077000
vn -0.18609700 -0.05881900 0.98076900
vn -0.17305700 -0.09024200 0.98076900
vn -0.15473200 -0.11895100 0.98076900
vn -0.13175600 -0.14398000 0.98077000
vn -0.10474800 -0.16467800 0.98077000
vn -0.07456400 -0.18036200 0.98077000
vn -0.04210600 -0.19056700 0.98077100
vn -0.00842800 -0.19498300 0.98077000
vn 0.02560800 -0.19347700 0.98077000
vn 0.05826300 -0.18628400 0.98076700
vn 0.19162300 -0.32224500 0.92705900
vn -0.62536200 0.10689700 0.77297800
vn -0.54977700 0.08221000 0.83125600
vn -0.63431000 0.00666100 0.77305000
vn -0.55567500 -0.00842500 0.83135700
vn -0.62579400 -0.10355700 0.77308400
vn -0.54575800 -0.10478700 0.83136500
vn -0.59833100 -0.21068800 0.77305300
vn -0.51927400 -0.19795900 0.83136400
vn -0.55266700 -0.31140700 0.77303600
vn -0.47700000 -0.28513400 0.83136600
vn -0.49018300 -0.40261400 0.77306100
vn -0.42023800 -0.36361800 0.83137300
vn -0.41282600 -0.48164800 0.77303900
vn -0.35070800 -0.43107400 0.83137200
vn -0.32291700 -0.54603500 0.77302700
vn -0.27053300 -0.48542400 0.83136900
vn -0.22320900 -0.59375000 0.77307100
vn -0.18213000 -0.52503300 0.83136600
vn -0.11669800 -0.62353000 0.77304100
vn -0.08818700 -0.54869300 0.83136000
vn -0.00665300 -0.63432200 0.77304000
vn 0.00842600 -0.55566900 0.83136100
vn 0.10362100 -0.62586400 0.77301800
vn 0.10479100 -0.54575300 0.83136800
vn 0.20750000 -0.59584400 0.77583100
vn 0.19497300 -0.52033900 0.83140400
vn 0.31076300 -0.54820100 0.77646700
vn 0.38784300 -0.50444400 0.77143700
vn 0.47855300 -0.51321600 0.71245800
vn 0.46012400 -0.50944300 0.72715400
vn 0.47564400 -0.55455100 0.68281400
vn 0.45982500 -0.54249800 0.70303400
vn 0.38991900 -0.54211600 0.74436100
vn 0.42415200 -0.47020200 0.77395400
vn 0.27317000 -0.31634300 0.90846300
vn 0.54870100 -0.08819300 0.83135400
vn 0.63198700 -0.02244600 0.77465400
vn 0.55567500 0.00842300 0.83135700
vn 0.63551200 0.09084300 0.76672800
vn 0.54575800 0.10479400 0.83136400
vn 0.60198900 0.19439500 0.77448100
vn 0.51927600 0.19796000 0.83136300
vn 0.56677400 0.30236400 0.76638300
vn 0.47701300 0.28513900 0.83135700
vn 0.49983900 0.38817700 0.77426100
vn 0.42026800 0.36364400 0.83134700
vn 0.42998300 0.47790700 0.76597600
vn 0.35072800 0.43109700 0.83135100
vn 0.33772700 0.53554900 0.77403300
vn 0.27053500 0.48543600 0.83136200
vn 0.24137700 0.59638700 0.76554600
vn 0.18212400 0.52503400 0.83136600
vn 0.13496200 0.61891400 0.77377700
vn 0.08819100 0.54868400 0.83136600
vn 0.02348900 0.64352700 0.76506300
vn -0.00842200 0.55566300 0.83136500
vn -0.08414900 0.62819300 0.77349400
vn -0.10479200 0.54575600 0.83136600
vn -0.19760900 0.61355200 0.76452900
vn -0.19797400 0.51927600 0.83136000
vn -0.29350600 0.56219500 0.77317000
vn -0.28514000 0.47701300 0.83135700
vn -0.38655600 0.50305100 0.77299100
vn -0.36363300 0.42025400 0.83135900
vn -0.48277700 0.42701200 0.76458300
vn -0.43107000 0.35070600 0.83137500
vn -0.54029000 0.33232500 0.77307700
vn -0.48543500 0.27053200 0.83136400
vn -0.58017000 0.24484400 0.77682300
vn -0.52504200 0.18213000 0.83136000
vn -0.61258900 0.13103000 0.77946500
vn -0.54870400 0.08819300 0.83135200
vn -0.63393900 0.02736100 0.77289900
vn -0.55567500 -0.00843000 0.83135700
vn -0.62905300 -0.08314300 0.77290300
vn -0.54575700 -0.10478300 0.83136600
vn -0.60505500 -0.19110700 0.77290800
vn -0.51925800 -0.19796600 0.83137200
vn -0.56267500 -0.29326300 0.77291300
vn -0.47699800 -0.28511900 0.83137200
vn -0.50319200 -0.38655900 0.77289700
vn -0.42024200 -0.36365000 0.83135700
vn -0.42845300 -0.46803000 0.77290100
vn -0.35073000 -0.43108300 0.83135800
vn -0.34066500 -0.53532900 0.77289800
vn -0.27054800 -0.48543400 0.83135900
vn -0.24253800 -0.58634300 0.77290200
vn -0.18212800 -0.52503500 0.83136500
vn -0.13703200 -0.61955100 0.77290300
vn -0.08819300 -0.54869400 0.83135900
vn -0.02736100 -0.63393600 0.77290100
vn 0.00843000 -0.55566800 0.83136100
vn 0.08312900 -0.62905500 0.77290300
vn 0.10478600 -0.54576100 0.83136300
vn 0.19111000 -0.60506600 0.77289800
vn 0.19797200 -0.51928900 0.83135200
vn 0.29323100 -0.56335100 0.77243200
vn 0.28513600 -0.47702600 0.83135000
vn 0.39030800 -0.51065600 0.76608800
vn 0.36363400 -0.42025600 0.83135800
vn 0.47152100 -0.44618100 0.76065100
vn 0.43108200 -0.35071600 0.83136500
vn 0.54530500 -0.33742500 0.76732500
vn 0.48542800 -0.27053100 0.83136800
vn 0.58628600 -0.23648000 0.77482000
vn 0.52504100 -0.18212500 0.83136200
vn 0.62803100 -0.13130400 0.76703100
vn 0.12797900 -0.15656800 0.97934100
vn 0.36698800 -0.43463100 0.82244500
vn 0.40320800 -0.50413700 0.76372100
vn 0.28897300 -0.47485000 0.83127100
vn 0.08826000 -0.17414500 0.98075700
vn 0.04583800 -0.18978100 0.98075600
vn 0.00095800 -0.19523500 0.98075600
vn -0.05763200 -0.43972700 0.89628000
vn 0.28683900 -0.56610900 0.77281600
vn 0.17199300 -0.52858700 0.83127300
vn 0.14892900 -0.61691100 0.77281300
vn 0.04579000 -0.55397200 0.83127500
vn 0.00301100 -0.63462000 0.77281800
vn -0.09265500 -0.64322900 0.76004700
vn -0.69519400 0.35931000 0.62257700
vn -0.74644900 0.20171000 0.63413500
vn -0.77302100 0.01777300 0.63413200
vn -0.75494000 -0.16716400 0.63413100
vn -0.69323300 -0.34248700 0.63413800
vn -0.59147100 -0.49802000 0.63414400
vn -0.45559800 -0.62474500 0.63413200
vn -0.29332300 -0.71542800 0.63413300
vn -0.17900900 -0.73935100 0.64908900
vn -0.63616100 0.41682500 0.64927400
vn 0.55391500 -0.55431500 0.62121900
vn 0.59907900 -0.46826100 0.64949000
vn 0.76921000 -0.07849400 0.63415700
vn 0.76009300 0.02051300 0.64949100
vn 0.79857000 0.10481200 0.59270600
vn 0.75049200 0.18608500 0.63414100
vn 0.70827500 0.27652600 0.64952300
vn 0.71350900 0.36759500 0.59647200
vn 0.64347500 0.42877400 0.63410800
vn 0.57289300 0.49990900 0.64952600
vn 0.54494800 0.58514500 0.60053000
vn 0.46076400 0.62099200 0.63408600
vn 0.36993100 0.66431800 0.64948600
vn 0.31340000 0.73200000 0.60494300
vn 0.22377500 0.74019400 0.63406400
vn 0.12325400 0.75031400 0.64949000
vn 0.04695100 0.79125700 0.60967900
vn -0.03955400 0.77228800 0.63404000
vn -0.13796400 0.74777600 0.64945900
vn -0.59736400 0.49077800 0.63426600
vn -0.50493600 0.58517300 0.63451700
vn -0.39748300 0.66304900 0.63433000
vn -0.29822400 0.71351600 0.63400100
vn -0.22258700 0.75685100 0.61451700
vn 0.68633000 -0.43018900 0.58642000
vn 0.69742100 -0.33381700 0.63416900
vn 0.72217600 -0.23790400 0.64951000
vn 0.78927300 -0.17211000 0.58942800
vn 0.48580000 -0.58539600 0.64908400
vn -0.09589100 -0.77661400 0.62263600
vn 0.06369700 -0.77057700 0.63415600
vn 0.23925100 -0.73525500 0.63416000
vn 0.40195600 -0.66051800 0.63415100
vn -0.83809100 0.44156800 0.32034400
vn -0.88229600 0.27387300 0.38281500
vn -0.87627800 0.47540900 0.07824800
vn -0.92404600 0.35305300 0.14660200
vn -0.98683700 0.11061400 0.11796800
vn -0.92214900 0.05541900 0.38284500
vn -0.98633200 -0.15669900 0.05094700
vn -0.90874600 -0.16620800 0.38282600
vn -0.91676600 -0.38173400 0.11755100
vn -0.84285800 -0.37823100 0.38279400
vn -0.85413500 -0.51086800 0.09730000
vn -0.77511300 -0.60094900 0.19508900
vn -0.72822800 -0.56842700 0.38285100
vn -0.65379500 -0.74741800 0.11798000
vn -0.57158900 -0.72577100 0.38280800
vn -0.52012100 -0.84852900 0.09732500
vn -0.40834500 -0.89173700 0.19508900
vn -0.38190500 -0.84119400 0.38280600
vn -0.26348200 -0.95577400 0.13066400
vn -0.22080600 -0.86923900 0.44234500
vn -0.82492300 0.54996900 0.13052200
vn -0.74608300 0.49742600 0.44263700
vn 0.66755200 -0.67203000 0.32054600
vn 0.69696600 -0.71281200 0.07833500
vn 0.77434900 -0.62172900 0.11762800
vn 0.73678900 -0.55803800 0.38175200
vn 0.83140600 -0.43082800 0.35092900
vn 0.88057400 -0.27738200 0.38425100
vn 0.92681600 -0.12566500 0.35386500
vn 0.92138900 0.03493400 0.38706900
vn 0.91378200 0.19341800 0.35720100
vn 0.85472600 0.34228800 0.39023300
vn 0.79410800 0.48902600 0.36089500
vn 0.68869600 0.60885900 0.39368600
vn 0.58209400 0.72660100 0.36499000
vn 0.44305900 0.80360400 0.39739000
vn 0.30293000 0.87851200 0.36939300
vn 0.14673800 0.90410900 0.40131700
vn -0.01065100 0.92737200 0.37398800
vn -0.16549800 0.89903500 0.40539800
vn 0.86903800 -0.48056800 0.11758900
vn 0.93825000 -0.32534200 0.11764000
vn 0.98000000 -0.16056200 0.11755700
vn 0.99302000 0.00888600 0.11761100
vn 0.97696500 0.17810500 0.11754600
vn 0.93228600 0.34207300 0.11759900
vn 0.86029800 0.49604900 0.11757100
vn 0.76309800 0.63548500 0.11764700
vn 0.64356900 0.75630400 0.11756900
vn 0.50515600 0.85497000 0.11766100
vn 0.35197800 0.92859400 0.11757800
vn 0.18847000 0.97500800 0.11763300
vn 0.01944900 0.99287400 0.11757200
vn -0.15014100 0.98164400 0.11761000
vn -0.31532200 0.94166900 0.11760400
vn -0.32166200 0.86777000 0.37882600
vn -0.47129500 0.87410100 0.11759300
vn -0.45412400 0.80452600 0.38276600
vn -0.61345200 0.78092900 0.11758400
vn -0.58466400 0.71529500 0.38278000
vn -0.73763400 0.66487400 0.11763800
vn -0.69807200 0.60511900 0.38278700
vn 0.62490700 -0.76973600 0.13037500
vn 0.56521600 -0.69627600 0.44241400
vn -0.12322300 -0.93925000 0.32035300
vn 0.04320000 -0.92280300 0.38284300
vn -0.14125500 -0.98687400 0.07827400
vn 0.02034900 -0.99285400 0.11758900
vn 0.24818300 -0.96155000 0.11758600
vn 0.25430900 -0.88812800 0.38282500
vn 0.46271800 -0.87867600 0.11756300
vn 0.45179700 -0.80580000 0.38283900
vn -0.26544000 -0.96412700 0.00000000
vn -0.13010200 -0.99150100 0.00000000
vn 0.27225600 -0.96222500 0.00000000
vn 0.64518500 -0.76402600 0.00000000
vn 0.70525000 -0.70895900 0.00000000
vn 0.88322000 -0.46895800 0.00000000
vn 0.98944900 -0.14487800 0.00000000
vn 0.98059200 0.19605800 0.00000000
vn 0.85767800 0.51418700 0.00000000
vn 0.63500300 0.77251000 0.00000000
vn 0.33846600 0.94097900 0.00000000
vn 0.00255500 0.99999700 0.00000000
vn -0.33365300 0.94269600 0.00000000
vn -0.63104400 0.77574700 0.00000000
vn -0.83988300 0.54276800 0.00000000
vn -0.88469200 0.46617700 0.00000000
vn -0.95407800 0.29955800 0.00000000
vn -0.99499800 0.02508400 -0.09669000
vn -0.93833700 -0.33219200 -0.09577400
vn -0.41635300 -0.90920300 0.00000000
vn -0.66731800 -0.74477300 -0.00000000
vn -0.79029500 -0.61272600 0.00000000
vn -0.66856500 -0.58896400 0.45402900
vn -0.66856500 -0.58896400 0.45402900
vn -0.66856500 -0.58896400 0.45402900
vn 0.03970100 -0.90965000 -0.41347500
vn 0.03970100 -0.90965000 -0.41347500
vn 0.03970100 -0.90965000 -0.41347500
vn 0.44277400 -0.79561100 -0.41346600
vn 0.44277400 -0.79561100 -0.41346600
vn 0.44277400 -0.79561100 -0.41346600
vn 0.71488400 -0.55422900 -0.42634600
vn 0.71488400 -0.55422900 -0.42634600
vn 0.71488400 -0.55422900 -0.42634600
vn 0.85958200 -0.28175700 -0.42630000
vn 0.85958200 -0.28175700 -0.42630000
vn 0.85958200 -0.28175700 -0.42630000
vn 0.90428100 0.02349100 -0.42629200
vn 0.90428100 0.02349100 -0.42629200
vn 0.90428100 0.02349100 -0.42629200
vn 0.84379600 0.32601700 -0.42628700
vn 0.84379600 0.32601700 -0.42628700
vn 0.84379600 0.32601700 -0.42628700
vn 0.68516300 0.59061800 -0.42628900
vn 0.68516300 0.59061800 -0.42628900
vn 0.68516300 0.59061800 -0.42628900
vn 0.44683100 0.78652300 -0.42629000
vn 0.44683100 0.78652300 -0.42629000
vn 0.44683100 0.78652300 -0.42629000
vn 0.15652800 0.89092500 -0.42632300
vn 0.15652800 0.89092500 -0.42632300
vn 0.15652800 0.89092500 -0.42632300
vn -0.15197200 0.89171700 -0.42631600
vn -0.15197200 0.89171700 -0.42631600
vn -0.15197200 0.89171700 -0.42631600
vn -0.44280400 0.78879500 -0.42629500
vn -0.44280400 0.78879500 -0.42629500
vn -0.44280400 0.78879500 -0.42629500
vn -0.68213300 0.59410500 -0.42630300
vn -0.68213300 0.59410500 -0.42630300
vn -0.68213300 0.59410500 -0.42630300
vn -0.84944900 0.15784400 -0.50351000
vn -0.84944900 0.15784400 -0.50351000
vn -0.84944900 0.15784400 -0.50351000
vn -0.26273000 -0.82311400 -0.50344400
vn -0.26273000 -0.82311400 -0.50344400
vn -0.26273000 -0.82311400 -0.50344400
vn -0.61425500 -0.60762100 -0.50347400
vn -0.61425500 -0.60762100 -0.50347400
vn -0.61425500 -0.60762100 -0.50347400
vn -0.99731100 -0.07329000 0.00000000
vn -0.99731400 -0.07324900 0.00000000
vn -0.99731100 -0.07329000 0.00000000
vn -0.99731400 -0.07324900 0.00000000
vn -0.99731100 -0.07329000 0.00000000
vn -0.99731400 -0.07324900 0.00000000
vn -0.82706800 -0.56210200 0.00000000
vn -0.82708700 -0.56207400 0.00000000
vn -0.82706800 -0.56210200 0.00000000
vn -0.82708700 -0.56207400 0.00000000
vn -0.82706800 -0.56210200 0.00000000
vn -0.82708700 -0.56207400 0.00000000
vn -0.43522600 -0.90032100 0.00000000
vn -0.43521200 -0.90032800 0.00000000
vn -0.43522600 -0.90032100 0.00000000
vn -0.43521200 -0.90032800 0.00000000
vn -0.43522600 -0.90032100 0.00000000
vn -0.43521200 -0.90032800 0.00000000
vn 0.07323700 -0.99731500 0.00000000
vn 0.07323000 -0.99731500 0.00000000
vn 0.07323700 -0.99731500 0.00000000
vn 0.07323700 -0.99731500 0.00000000
vn 0.07323000 -0.99731500 0.00000000
vn 0.07323000 -0.99731500 0.00000000
vn 0.56210400 -0.82706700 0.00000000
vn 0.56208100 -0.82708200 0.00000000
vn 0.56210400 -0.82706700 0.00000000
vn 0.56208100 -0.82708200 0.00000000
vn 0.56210400 -0.82706700 0.00000000
vn 0.56208100 -0.82708200 0.00000000
vn 0.90034400 -0.43517900 0.00000000
vn 0.90030900 -0.43525100 0.00000000
vn 0.90034400 -0.43517900 0.00000000
vn 0.90030900 -0.43525100 0.00000000
vn 0.90034400 -0.43517900 0.00000000
vn 0.90030900 -0.43525100 0.00000000
vn 0.99731000 0.07329900 0.00000000
vn 0.99731000 0.07329900 0.00000000
vn 0.99731300 0.07325600 0.00000000
vn 0.99731300 0.07325600 0.00000000
vn 0.99731000 0.07329900 0.00000000
vn 0.99731300 0.07325600 0.00000000
vn 0.82711900 0.56202700 0.00000000
vn 0.82710100 0.56205400 0.00000000
vn 0.82711900 0.56202700 0.00000000
vn 0.82710100 0.56205400 0.00000000
vn 0.82711900 0.56202700 0.00000000
vn 0.82710100 0.56205400 0.00000000
vn 0.43524400 0.90031300 0.00000000
vn 0.43523100 0.90031900 0.00000000
vn 0.43524400 0.90031300 0.00000000
vn 0.43523100 0.90031900 0.00000000
vn 0.43524400 0.90031300 0.00000000
vn 0.43523100 0.90031900 0.00000000
vn -0.07325900 0.99731300 0.00000000
vn -0.07325900 0.99731300 0.00000000
vn -0.07325900 0.99731300 0.00000000
vn -0.07325900 0.99731300 0.00000000
vn -0.07325900 0.99731300 0.00000000
vn -0.07325900 0.99731300 0.00000000
vn -0.56208200 0.82708200 0.00000000
vn -0.56208200 0.82708200 0.00000000
vn -0.56208200 0.82708200 0.00000000
vn -0.56208200 0.82708200 0.00000000
vn -0.90033800 0.43519100 0.00000000
vn -0.90030300 0.43526300 0.00000000
vn -0.90033800 0.43519100 0.00000000
vn -0.90030300 0.43526300 0.00000000
vn -0.90033800 0.43519100 0.00000000
vn -0.90030300 0.43526300 0.00000000
f 1//1 2//2 3//3
f 4//4 5//5 6//6
f 6//6 5//5 7//7
f 6//6 7//7 3//3
f 3//3 7//7 8//8
f 3//3 8//8 1//1
f 4//4 6//6 9//9
f 9//9 6//6 10//10
f 9//9 10//10 11//11
f 12//12 13//13 10//10
f 10//10 13//13 14//14
f 10//10 14//14 11//11
f 15//15 16//16 17//17
f 18//18 19//19 20//20
f 21//21 22//22 23//23
f 23//23 22//22 24//24
f 23//23 24//24 12//12
f 12//12 24//24 25//25
f 12//12 25//25 13//13
f 15//15 17//17 26//26
f 27//27 28//28 29//29
f 29//29 28//28 18//18
f 29//29 18//18 30//30
f 30//30 18//18 20//20
f 31//31 32//32 33//33
f 33//33 32//32 34//34
f 33//33 34//34 19//19
f 19//19 34//34 35//35
f 19//19 35//35 20//20
f 17//17 36//36 26//26
f 26//26 36//36 37//37
f 26//26 37//37 23//23
f 23//23 37//37 38//38
f 23//23 38//38 21//21
f 27//27 39//39 28//28
f 28//28 39//39 40//40
f 28//28 40//40 15//15
f 15//15 40//40 41//41
f 15//15 41//41 16//16
f 1//1 42//42 2//2
f 2//2 42//42 43//43
f 2//2 43//43 33//33
f 33//33 43//43 44//44
f 33//33 44//44 31//31
f 31//31 45//45 32//32
f 32//32 45//45 46//46
f 32//32 46//46 34//34
f 34//34 46//46 47//47
f 34//34 47//47 35//35
f 35//35 47//47 48//48
f 35//35 48//48 20//20
f 20//20 48//48 49//49
f 20//20 49//49 30//30
f 30//30 49//49 50//50
f 30//30 50//50 29//29
f 29//29 50//50 51//51
f 29//29 51//51 27//27
f 27//27 51//51 52//52
f 27//27 52//52 39//39
f 39//39 52//52 53//53
f 39//39 53//53 40//40
f 40//40 53//53 54//54
f 40//40 54//54 41//41
f 41//41 54//54 55//55
f 41//41 55//55 16//16
f 16//16 55//55 56//56
f 16//16 56//56 17//17
f 17//17 56//56 57//57
f 17//17 57//57 36//36
f 36//36 57//57 58//58
f 36//36 58//58 37//37
f 37//37 58//58 59//59
f 37//37 59//59 38//38
f 38//38 59//59 60//60
f 38//38 60//60 21//21
f 21//21 60//60 61//61
f 21//21 61//61 22//22
f 22//22 61//61 62//62
f 22//22 62//62 24//24
f 24//24 62//62 63//63
f 24//24 63//63 25//25
f 25//25 63//63 64//64
f 25//25 64//64 13//13
f 13//13 64//64 65//65
f 13//13 65//65 14//14
f 14//14 65//65 66//66
f 14//14 66//66 11//11
f 11//11 66//66 67//67
f 11//11 67//67 9//9
f 9//9 67//67 68//68
f 9//9 68//68 4//4
f 4//4 68//68 69//69
f 4//4 69//69 5//5
f 5//5 69//69 70//70
f 5//5 70//70 7//7
f 7//7 70//70 71//71
f 7//7 71//71 8//8
f 8//8 71//71 72//72
f 8//8 72//72 1//1
f 1//1 72//72 73//73
f 1//1 73//73 42//42
f 42//42 73//73 74//74
f 42//42 74//74 43//43
f 43//43 74//74 75//75
f 43//43 75//75 44//44
f 44//44 75//75 76//76
f 44//44 76//76 31//31
f 31//31 76//76 45//45
f 46//46 77//77 47//47
f 47//47 77//77 78//78
f 47//47 78//78 48//48
f 48//48 78//78 79//79
f 48//48 79//79 49//49
f 49//49 79//79 80//80
f 49//49 80//80 50//50
f 50//50 80//80 81//81
f 50//50 81//81 51//51
f 51//51 81//81 82//82
f 51//51 82//82 52//52
f 52//52 82//82 83//83
f 52//52 83//83 53//53
f 53//53 83//83 84//84
f 53//53 84//84 54//54
f 54//54 84//84 85//85
f 54//54 85//85 55//55
f 55//55 85//85 86//86
f 55//55 86//86 56//56
f 56//56 86//86 87//87
f 56//56 87//87 57//57
f 57//57 87//87 88//88
f 57//57 88//88 58//58
f 58//58 88//88 89//89
f 58//58 89//89 59//59
f 59//59 89//89 90//90
f 59//59 90//90 60//60
f 60//60 90//90 91//91
f 60//60 91//91 61//61
f 61//61 91//91 92//92
f 61//61 92//92 62//62
f 62//62 92//92 93//93
f 62//62 93//93 63//63
f 63//63 93//93 94//94
f 63//63 94//94 64//64
f 64//64 94//94 95//95
f 64//64 95//95 65//65
f 65//65 95//95 96//96
f 65//65 96//96 66//66
f 66//66 96//96 97//97
f 66//66 97//97 67//67
f 67//67 97//97 98//98
f 67//67 98//98 68//68
f 68//68 98//98 99//99
f 68//68 99//99 69//69
f 69//69 99//99 100//100
f 69//69 100//100 70//70
f 70//70 100//100 101//101
f 70//70 101//101 71//71
f 71//71 101//101 102//102
f 71//71 102//102 72//72
f 72//72 102//102 103//103
f 72//72 103//103 73//73
f 73//73 103//103 104//104
f 73//73 104//104 74//74
f 74//74 104//104 105//105
f 74//74 105//105 75//75
f 75//75 105//105 106//106
f 75//75 106//106 76//76
f 76//76 106//106 107//107
f 76//76 107//107 45//45
f 45//45 107//107 108//108
f 45//45 108//108 46//46
f 46//46 108//108 77//77
f 108//108 109//109 77//77
f 77//77 109//109 110//110
f 77//77 110//110 78//78
f 78//78 110//110 111//111
f 78//78 111//111 79//79
f 79//79 111//111 112//112
f 79//79 112//112 80//80
f 80//80 112//112 113//113
f 80//80 113//113 81//81
f 81//81 113//113 114//114
f 81//81 114//114 82//82
f 82//82 114//114 115//115
f 82//82 115//115 83//83
f 83//83 115//115 116//116
f 83//83 116//116 84//84
f 84//84 116//116 117//117
f 84//84 117//117 85//85
f 85//85 117//117 118//118
f 85//85 118//118 86//86
f 86//86 118//118 119//119
f 86//86 119//119 87//87
f 87//87 119//119 120//120
f 87//87 120//120 88//88
f 88//88 120//120 121//121
f 88//88 121//121 89//89
f 89//89 121//121 122//122
f 89//89 122//122 90//90
f 90//90 122//122 123//123
f 90//90 123//123 91//91
f 91//91 123//123 124//124
f 91//91 124//124 92//92
f 92//92 124//124 125//125
f 92//92 125//125 93//93
f 93//93 125//125 126//126
f 93//93 126//126 94//94
f 94//94 126//126 127//127
f 94//94 127//127 95//95
f 95//95 127//127 128//128
f 95//95 128//128 96//96
f 96//96 128//128 129//129
f 96//96 129//129 97//97
f 97//97 129//129 130//130
f 97//97 130//130 98//98
f 98//98 130//130 131//131
f 98//98 131//131 99//99
f 99//99 131//131 132//132
f 99//99 132//132 100//100
f 100//100 132//132 133//133
f 100//100 133//133 101//101
f 101//101 133//133 134//134
f 101//101 134//134 102//102
f 102//102 134//134 135//135
f 102//102 135//135 103//103
f 103//103 135//135 136//136
f 103//103 136//136 104//104
f 104//104 136//136 137//137
f 104//104 137//137 105//105
f 105//105 137//137 138//138
f 105//105 138//138 106//106
f 106//106 138//138 139//139
f 106//106 139//139 107//107
f 107//107 139//139 140//140
f 107//107 140//140 108//108
f 108//108 140//140 109//109
f 120//120 141//141 121//121
f 121//121 141//141 142//142
f 121//121 142//142 122//122
f 122//122 142//142 143//143
f 122//122 143//143 123//123
f 123//123 143//143 144//144
f 123//123 144//144 124//124
f 124//124 144//144 145//145
f 124//124 145//145 125//125
f 125//125 145//145 146//146
f 125//125 146//146 126//126
f 126//126 146//146 147//147
f 126//126 147//147 127//127
f 127//127 147//147 148//148
f 127//127 148//148 128//128
f 148//148 149//149 128//128
f 128//128 149//149 150//150
f 128//128 150//150 129//129
f 129//129 150//150 151//151
f 129//129 151//151 130//130
f 130//130 151//151 152//152
f 130//130 152//152 131//131
f 131//131 152//152 153//153
f 131//131 153//153 132//132
f 132//132 153//153 154//154
f 132//132 154//154 133//133
f 133//133 154//154 155//155
f 133//133 155//155 134//134
f 134//134 155//155 156//156
f 134//134 156//156 135//135
f 135//135 156//156 157//157
f 135//135 157//157 136//136
f 112//112 158//158 113//113
f 113//113 158//158 159//159
f 113//113 159//159 114//114
f 114//114 159//159 160//160
f 114//114 160//160 115//115
f 115//115 160//160 161//161
f 115//115 161//161 116//116
f 116//116 161//161 162//162
f 116//116 162//162 117//117
f 117//117 162//162 163//163
f 117//117 163//163 118//118
f 118//118 163//163 164//164
f 118//118 164//164 119//119
f 119//119 164//164 165//165
f 119//119 165//165 120//120
f 120//120 165//165 166//166
f 120//120 166//166 141//141
f 157//157 167//167 136//136
f 136//136 167//167 168//168
f 136//136 168//168 137//137
f 137//137 168//168 169//169
f 137//137 169//169 138//138
f 138//138 169//169 170//170
f 138//138 170//170 139//139
f 139//139 170//170 171//171
f 139//139 171//171 140//140
f 140//140 171//171 172//172
f 140//140 172//172 109//109
f 109//109 172//172 173//173
f 109//109 173//173 110//110
f 110//110 173//173 174//174
f 110//110 174//174 111//111
f 111//111 174//174 175//175
f 111//111 175//175 112//112
f 112//112 175//175 176//176
f 112//112 176//176 158//158
f 172//172 177//177 173//173
f 173//173 177//177 178//178
f 173//173 178//178 174//174
f 174//174 178//178 179//179
f 174//174 179//179 175//175
f 175//175 179//179 180//180
f 175//175 180//180 176//176
f 176//176 180//180 181//181
f 176//176 181//181 158//158
f 158//158 181//181 182//182
f 158//158 182//182 159//159
f 159//159 182//182 183//183
f 159//159 183//183 160//160
f 160//160 183//183 184//184
f 160//160 184//184 161//161
f 161//161 184//184 185//185
f 161//161 185//185 162//162
f 162//162 185//185 186//186
f 162//162 186//186 163//163
f 163//163 186//186 187//187
f 163//163 187//187 164//164
f 164//164 187//187 188//188
f 164//164 188//188 165//165
f 165//165 188//188 189//189
f 165//165 189//189 166//166
f 166//166 189//189 190//190
f 166//166 190//190 141//141
f 141//141 190//190 191//191
f 141//141 191//191 142//142
f 142//142 191//191 192//192
f 142//142 192//192 143//143
f 143//143 192//192 193//193
f 143//143 193//193 144//144
f 144//144 193//193 194//194
f 144//144 194//194 145//145
f 145//145 194//194 195//195
f 145//145 195//195 146//146
f 146//146 195//195 196//196
f 146//146 196//196 147//147
f 147//147 196//196 197//197
f 147//147 197//197 148//148
f 148//148 197//197 198//198
f 148//148 198//198 149//149
f 149//149 198//198 199//199
f 149//149 199//199 150//150
f 150//150 199//199 200//200
f 150//150 200//200 151//151
f 151//151 200//200 201//201
f 151//151 201//201 152//152
f 152//152 201//201 202//202
f 152//152 202//202 153//153
f 153//153 202//202 203//203
f 153//153 203//203 154//154
f 154//154 203//203 204//204
f 154//154 204//204 155//155
f 155//155 204//204 205//205
f 155//155 205//205 156//156
f 156//156 205//205 206//206
f 156//156 206//206 157//157
f 157//157 206//206 207//207
f 157//157 207//207 167//167
f 167//167 207//207 208//208
f 167//167 208//208 168//168
f 168//168 208//208 209//209
f 168//168 209//209 169//169
f 169//169 209//209 210//210
f 169//169 210//210 170//170
f 170//170 210//210 211//211
f 170//170 211//211 171//171
f 171//171 211//211 212//212
f 171//171 212//212 172//172
f 172//172 212//212 177//177
f 213//213 214//214 215//215
f 216//216 217//217 218//218
f 218//218 217//217 219//219
f 218//218 219//219 220//220
f 215//215 214//214 217//217
f 217//217 214//214 221//221
f 217//217 221//221 219//219
f 218//218 222//222 216//216
f 216//216 222//222 223//223
f 216//216 223//223 224//224
f 224//224 223//223 225//225
f 224//224 225//225 226//226
f 215//215 227//227 213//213
f 213//213 227//227 228//228
f 213//213 228//228 229//229
f 229//229 228//228 230//230
f 231//231 224//224 232//232
f 232//232 224//224 226//226
f 232//232 226//226 233//233
f 233//233 226//226 234//234
f 235//235 236//236 237//237
f 237//237 236//236 230//230
f 237//237 230//230 238//238
f 238//238 230//230 228//228
f 214//214 239//239 221//221
f 221//221 239//239 241//241
f 221//221 241//241 219//219
f 219//219 241//241 242//242
f 219//219 242//242 220//220
f 220//220 242//242 243//243
f 220//220 243//243 218//218
f 218//218 243//243 244//244
f 240//240 245//245 246//246
f 246//246 245//245 247//247
f 246//246 247//247 248//248
f 248//248 247//247 249//249
f 248//248 249//249 250//250
f 250//250 249//249 251//251
f 250//250 251//251 252//252
f 252//252 251//251 253//253
f 214//214 213//213 239//239
f 239//239 213//213 254//254
f 240//240 255//255 245//245
f 245//245 255//255 256//256
f 257//257 258//258 259//259
f 227//227 260//260 261//261
f 260//260 259//259 261//261
f 261//261 259//259 262//262
f 261//261 262//262 263//263
f 263//263 262//262 264//264
f 263//263 264//264 265//265
f 264//264 266//266 265//265
f 265//265 266//266 267//267
f 265//265 267//267 268//268
f 268//268 267//267 269//269
f 268//268 269//269 270//270
f 270//270 269//269 271//271
f 270//270 271//271 272//272
f 272//272 271//271 273//273
f 272//272 273//273 274//274
f 274//274 273//273 256//256
f 274//274 256//256 255//255
f 227//227 261//261 228//228
f 228//228 261//261 263//263
f 228//228 263//263 238//238
f 238//238 263//263 265//265
f 238//238 265//265 237//237
f 237//237 265//265 268//268
f 237//237 268//268 235//235
f 235//235 268//268 270//270
f 235//235 270//270 236//236
f 236//236 270//270 272//272
f 236//236 272//272 230//230
f 230//230 272//272 274//274
f 230//230 274//274 229//229
f 229//229 274//274 254//254
f 229//229 254//254 213//213
f 260//260 227//227 275//275
f 275//275 227//227 215//215
f 275//275 215//215 276//276
f 276//276 215//215 217//217
f 276//276 217//217 277//277
f 277//277 217//217 216//216
f 258//258 257//257 278//278
f 278//278 257//257 279//279
f 278//278 279//279 280//280
f 280//280 279//279 281//281
f 280//280 281//281 282//282
f 282//282 283//283 284//284
f 285//285 286//286 287//287
f 222//222 285//285 288//288
f 285//285 287//287 288//288
f 288//288 287//287 289//289
f 288//288 289//289 290//290
f 290//290 289//289 291//291
f 290//290 291//291 292//292
f 292//292 291//291 293//293
f 292//292 293//293 294//294
f 294//294 293//293 295//295
f 294//294 295//295 296//296
f 296//296 295//295 297//297
f 296//296 297//297 298//298
f 298//298 297//297 299//299
f 298//298 299//299 300//300
f 300//300 299//299 301//301
f 300//300 301//301 302//302
f 302//302 301//301 284//284
f 302//302 284//284 283//283
f 222//222 288//288 223//223
f 223//223 288//288 290//290
f 223//223 290//290 225//225
f 225//225 290//290 292//292
f 225//225 292//292 226//226
f 226//226 292//292 294//294
f 226//226 294//294 234//234
f 234//234 294//294 296//296
f 234//234 296//296 233//233
f 233//233 296//296 298//298
f 233//233 298//298 232//232
f 232//232 298//298 300//300
f 232//232 300//300 231//231
f 231//231 300//300 302//302
f 231//231 302//302 224//224
f 224//224 302//302 277//277
f 224//224 277//277 216//216
f 222//222 218//218 285//285
f 285//285 218//218 244//244
f 285//285 252//252 286//286
f 286//286 252//252 253//253
f 245//245 303//303 247//247
f 247//247 303//303 304//304
f 247//247 304//304 249//249
f 249//249 304//304 305//305
f 249//249 305//305 251//251
f 251//251 305//305 306//306
f 251//251 306//306 253//253
f 253//253 306//306 307//307
f 303//303 245//245 308//308
f 308//308 245//245 256//256
f 266//266 264//264 309//309
f 258//258 310//310 259//259
f 259//259 310//310 262//262
f 311//311 312//312 313//313
f 313//313 312//312 308//308
f 256//256 273//273 308//308
f 308//308 273//273 271//271
f 308//308 271//271 313//313
f 313//313 271//271 269//269
f 313//313 269//269 309//309
f 309//309 269//269 267//267
f 309//309 267//267 266//266
f 262//262 310//310 264//264
f 264//264 310//310 314//314
f 264//264 314//314 309//309
f 309//309 314//314 315//315
f 309//309 315//315 316//316
f 311//311 313//313 317//317
f 317//317 313//313 309//309
f 317//317 309//309 318//318
f 318//318 309//309 316//316
f 318//318 316//316 319//319
f 282//282 284//284 320//320
f 320//320 284//284 321//321
f 320//320 321//321 322//322
f 310//310 258//258 323//323
f 323//323 258//258 278//278
f 323//323 278//278 320//320
f 320//320 278//278 280//280
f 320//320 280//280 282//282
f 324//324 325//325 326//326
f 291//291 289//289 326//326
f 287//287 286//286 327//327
f 287//287 327//327 289//289
f 291//291 328//328 293//293
f 301//301 299//299 329//329
f 329//329 299//299 297//297
f 329//329 297//297 295//295
f 330//330 331//331 329//329
f 284//284 301//301 321//321
f 321//321 301//301 329//329
f 321//321 329//329 322//322
f 322//322 329//329 331//331
f 332//332 333//333 334//334
f 334//334 333//333 335//335
f 336//336 332//332 337//337
f 337//337 332//332 334//334
f 337//337 334//334 325//325
f 325//325 334//334 329//329
f 325//325 329//329 328//328
f 328//328 329//329 295//295
f 328//328 295//295 293//293
f 330//330 329//329 338//338
f 338//338 329//329 334//334
f 338//338 334//334 339//339
f 339//339 334//334 335//335
f 339//339 335//335 340//340
f 289//289 327//327 326//326
f 326//326 327//327 341//341
f 326//326 341//341 324//324
f 286//286 253//253 327//327
f 327//327 253//253 307//307
f 327//327 307//307 341//341
f 342//342 343//343 344//344
f 345//345 307//307 306//306
f 345//345 306//306 346//346
f 346//346 306//306 305//305
f 346//346 305//305 347//347
f 347//347 305//305 304//304
f 347//347 304//304 348//348
f 348//348 304//304 303//303
f 348//348 303//303 349//349
f 342//342 344//344 350//350
f 350//350 344//344 351//351
f 350//350 351//351 352//352
f 352//352 351//351 353//353
f 352//352 353//353 354//354
f 354//354 353//353 349//349
f 354//354 349//349 355//355
f 356//356 355//355 349//349
f 356//356 349//349 357//357
f 357//357 349//349 303//303
f 357//357 303//303 308//308
f 358//358 359//359 360//360
f 310//310 361//361 362//362
f 358//358 360//360 363//363
f 363//363 360//360 364//364
f 362//362 364//364 365//365
f 365//365 364//364 366//366
f 365//365 366//366 367//367
f 367//367 366//366 368//368
f 367//367 368//368 369//369
f 369//369 368//368 370//370
f 369//369 370//370 371//371
f 371//371 370//370 372//372
f 371//371 372//372 373//373
f 373//373 372//372 374//374
f 373//373 374//374 375//375
f 375//375 374//374 376//376
f 375//375 376//376 377//377
f 377//377 376//376 356//356
f 377//377 356//356 357//357
f 310//310 362//362 314//314
f 314//314 362//362 365//365
f 314//314 365//365 315//315
f 315//315 365//365 367//367
f 315//315 367//367 316//316
f 316//316 367//367 369//369
f 316//316 369//369 319//319
f 319//319 369//369 371//371
f 319//319 371//371 318//318
f 318//318 371//371 373//373
f 318//318 373//373 317//317
f 317//317 373//373 375//375
f 317//317 375//375 311//311
f 311//311 375//375 377//377
f 311//311 377//377 312//312
f 312//312 377//377 357//357
f 312//312 357//357 308//308
f 322//322 378//378 379//379
f 378//378 380//380 381//381
f 378//378 381//381 382//382
f 382//382 381//381 383//383
f 382//382 383//383 384//384
f 384//384 383//383 359//359
f 384//384 359//359 358//358
f 322//322 379//379 320//320
f 320//320 379//379 385//385
f 320//320 385//385 323//323
f 323//323 385//385 361//361
f 323//323 361//361 310//310
f 386//386 387//387 388//388
f 386//386 388//388 389//389
f 389//389 388//388 390//390
f 391//391 390//390 392//392
f 392//392 390//390 393//393
f 392//392 393//393 394//394
f 394//394 393//393 395//395
f 394//394 395//395 396//396
f 396//396 395//395 397//397
f 396//396 397//397 398//398
f 398//398 397//397 399//399
f 398//398 399//399 400//400
f 400//400 399//399 401//401
f 400//400 401//401 402//402
f 402//402 401//401 403//403
f 402//402 403//403 404//404
f 404//404 403//403 405//405
f 404//404 405//405 406//406
f 406//406 340//340 404//404
f 404//404 340//340 335//335
f 404//404 335//335 402//402
f 402//402 335//335 333//333
f 402//402 333//333 400//400
f 400//400 333//333 332//332
f 400//400 332//332 398//398
f 398//398 332//332 336//336
f 398//398 336//336 396//396
f 396//396 336//336 337//337
f 396//396 337//337 394//394
f 394//394 337//337 325//325
f 394//394 325//325 392//392
f 392//392 325//325 324//324
f 392//392 324//324 391//391
f 391//391 324//324 341//341
f 391//391 341//341 386//386
f 330//330 338//338 406//406
f 406//406 338//338 339//339
f 406//406 339//339 340//340
f 407//407 408//408 409//409
f 407//407 409//409 410//410
f 410//410 409//409 380//380
f 410//410 380//380 378//378
f 405//405 408//408 406//406
f 406//406 408//408 407//407
f 406//406 407//407 330//330
f 330//330 407//407 410//410
f 330//330 410//410 331//331
f 331//331 410//410 378//378
f 331//331 378//378 322//322
f 342//342 387//387 386//386
f 342//342 386//386 343//343
f 343//343 386//386 341//341
f 343//343 341//341 307//307
f 397//397 395//395 411//411
f 411//411 395//395 393//393
f 411//411 387//387 412//412
f 412//412 387//387 342//342
f 412//412 342//342 413//413
f 413//413 342//342 350//350
f 413//413 350//350 414//414
f 414//414 350//350 415//415
f 415//415 350//350 352//352
f 415//415 352//352 416//416
f 416//416 352//352 417//417
f 417//417 352//352 354//354
f 417//417 354//354 418//418
f 393//393 390//390 411//411
f 411//411 390//390 388//388
f 411//411 388//388 387//387
f 419//419 374//374 372//372
f 372//372 370//370 419//419
f 419//419 370//370 368//368
f 419//419 368//368 420//420
f 420//420 368//368 421//421
f 421//421 368//368 366//366
f 421//421 366//366 422//422
f 418//418 354//354 423//423
f 423//423 354//354 355//355
f 423//423 355//355 424//424
f 424//424 355//355 356//356
f 424//424 356//356 419//419
f 419//419 356//356 376//376
f 419//419 376//376 374//374
f 425//425 426//426 427//427
f 397//397 411//411 399//399
f 399//399 411//411 428//428
f 399//399 428//428 429//429
f 426//426 425//425 430//430
f 430//430 425//425 431//431
f 430//430 431//431 432//432
f 429//429 425//425 399//399
f 399//399 425//425 427//427
f 399//399 427//427 401//401
f 401//401 427//427 433//433
f 401//401 433//433 403//403
f 403//403 433//433 434//434
f 435//435 408//408 434//434
f 434//434 408//408 405//405
f 434//434 405//405 403//403
f 366//366 364//364 422//422
f 422//422 364//364 360//360
f 422//422 360//360 436//436
f 436//436 360//360 359//359
f 436//436 359//359 437//437
f 437//437 359//359 383//383
f 437//437 383//383 438//438
f 438//438 383//383 381//381
f 438//438 381//381 439//439
f 439//439 381//381 380//380
f 439//439 380//380 435//435
f 435//435 380//380 409//409
f 435//435 409//409 408//408
f 440//440 441//441 442//442
f 443//443 412//412 413//413
f 443//443 413//413 444//444
f 444//444 413//413 414//414
f 444//444 414//414 445//445
f 445//445 414//414 415//415
f 445//445 415//415 446//446
f 446//446 415//415 416//416
f 446//446 416//416 447//447
f 447//447 416//416 417//417
f 447//447 417//417 448//448
f 448//448 417//417 418//418
f 448//448 418//418 449//449
f 449//449 418//418 423//423
f 449//449 423//423 450//450
f 450//450 423//423 424//424
f 450//450 424//424 451//451
f 440//440 442//442 452//452
f 452//452 442//442 453//453
f 452//452 453//453 454//454
f 454//454 453//453 455//455
f 454//454 455//455 456//456
f 456//456 455//455 457//457
f 456//456 457//457 458//458
f 458//458 457//457 459//459
f 458//458 459//459 460//460
f 460//460 459//459 461//461
f 460//460 461//461 462//462
f 462//462 461//461 463//463
f 462//462 463//463 464//464
f 464//464 463//463 451//451
f 464//464 451//451 465//465
f 424//424 419//419 451//451
f 451//451 419//419 466//466
f 451//451 466//466 465//465
f 465//465 466//466 467//467
f 465//465 467//467 468//468
f 468//468 467//467 469//469
f 469//469 467//467 466//466
f 469//469 466//466 470//470
f 471//471 466//466 419//419
f 471//471 419//419 472//472
f 468//468 469//469 473//473
f 473//473 469//469 470//470
f 473//473 470//470 474//474
f 474//474 470//470 475//475
f 474//474 475//475 476//476
f 472//472 419//419 477//477
f 477//477 419//419 420//420
f 477//477 420//420 478//478
f 478//478 420//420 421//421
f 478//478 421//421 479//479
f 479//479 421//421 422//422
f 479//479 422//422 480//480
f 480//480 422//422 436//436
f 480//480 436//436 481//481
f 481//481 436//436 437//437
f 481//481 437//437 482//482
f 482//482 437//437 438//438
f 482//482 438//438 483//483
f 483//483 438//438 439//439
f 483//483 439//439 484//484
f 484//484 439//439 435//435
f 484//484 435//435 485//485
f 485//485 435//435 434//434
f 485//485 434//434 486//486
f 486//486 434//434 433//433
f 486//486 433//433 487//487
f 487//487 433//433 427//427
f 487//487 427//427 488//488
f 488//488 427//427 426//426
f 488//488 426//426 489//489
f 489//489 426//426 430//430
f 489//489 430//430 490//490
f 490//490 430//430 432//432
f 476//476 475//475 491//491
f 491//491 475//475 492//492
f 491//491 492//492 493//493
f 493//493 492//492 494//494
f 493//493 494//494 495//495
f 495//495 494//494 496//496
f 495//495 496//496 497//497
f 497//497 496//496 498//498
f 497//497 498//498 499//499
f 499//499 498//498 500//500
f 499//499 500//500 501//501
f 501//501 500//500 502//502
f 501//501 502//502 503//503
f 503//503 502//502 504//504
f 503//503 504//504 505//505
f 505//505 504//504 506//506
f 505//505 506//506 507//507
f 507//507 506//506 508//508
f 507//507 508//508 509//509
f 509//509 508//508 510//510
f 509//509 510//510 511//511
f 511//511 510//510 512//512
f 511//511 512//512 513//513
f 513//513 512//512 514//514
f 513//513 514//514 515//515
f 515//515 514//514 516//516
f 515//515 516//516 517//517
f 517//517 516//516 490//490
f 517//517 490//490 518//518
f 519//519 520//520 521//521
f 521//521 520//520 522//522
f 521//521 522//522 518//518
f 518//518 522//522 523//523
f 518//518 523//523 517//517
f 519//519 521//521 524//524
f 524//524 521//521 518//518
f 524//524 518//518 525//525
f 525//525 518//518 490//490
f 525//525 490//490 432//432
f 526//526 527//527 528//528
f 528//528 527//527 529//529
f 528//528 529//529 530//530
f 530//530 529//529 531//531
f 530//530 531//531 532//532
f 532//532 531//531 533//533
f 532//532 533//533 534//534
f 534//534 533//533 535//535
f 534//534 535//535 536//536
f 536//536 535//535 537//537
f 536//536 537//537 538//538
f 538//538 537//537 539//539
f 538//538 539//539 540//540
f 540//540 539//539 541//541
f 540//540 541//541 542//542
f 542//542 541//541 543//543
f 542//542 543//543 544//544
f 544//544 543//543 545//545
f 544//544 545//545 546//546
f 546//546 545//545 547//547
f 546//546 547//547 548//548
f 548//548 547//547 549//549
f 548//548 549//549 550//550
f 550//550 549//549 551//551
f 550//550 551//551 552//552
f 552//552 551//551 553//553
f 552//552 553//553 554//554
f 554//554 553//553 555//555
f 554//554 555//555 556//556
f 556//556 555//555 557//557
f 556//556 557//557 558//558
f 558//558 557//557 559//559
f 558//558 559//559 560//560
f 560//560 559//559 561//561
f 560//560 561//561 562//562
f 562//562 561//561 563//563
f 562//562 563//563 564//564
f 564//564 563//563 565//565
f 564//564 565//565 566//566
f 566//566 565//565 567//567
f 566//566 567//567 568//568
f 568//568 567//567 569//569
f 568//568 569//569 570//570
f 570//570 569//569 571//571
f 570//570 571//571 572//572
f 572//572 571//571 573//573
f 572//572 573//573 574//574
f 574//574 573//573 575//575
f 574//574 575//575 576//576
f 576//576 575//575 577//577
f 576//576 577//577 578//578
f 578//578 577//577 579//579
f 578//578 579//579 580//580
f 580//580 579//579 581//581
f 580//580 581//581 582//582
f 582//582 581//581 583//583
f 582//582 583//583 584//584
f 584//584 583//583 585//585
f 584//584 585//585 586//586
f 586//586 585//585 587//587
f 586//586 587//587 588//588
f 588//588 587//587 589//589
f 588//588 589//589 590//590
f 590//590 589//589 591//591
f 590//590 591//591 592//592
f 592//592 591//591 593//593
f 592//592 593//593 594//594
f 594//594 593//593 595//595
f 594//594 595//595 596//596
f 596//596 595//595 597//597
f 596//596 597//597 526//526
f 526//526 597//597 527//527
f 431//431 598//598 432//432
f 432//432 598//598 525//525
f 525//525 599//599 524//524
f 524//524 599//599 600//600
f 524//524 600//600 519//519
f 600//600 599//599 601//601
f 598//598 431//431 425//425
f 598//598 425//425 602//602
f 602//602 425//425 429//429
f 602//602 429//429 603//603
f 603//603 429//429 428//428
f 603//603 428//428 604//604
f 604//604 428//428 411//411
f 604//604 411//411 605//605
f 600//600 601//601 606//606
f 606//606 601//601 607//607
f 606//606 607//607 608//608
f 608//608 607//607 609//609
f 608//608 609//609 610//610
f 610//610 609//609 605//605
f 610//610 605//605 611//611
f 411//411 412//412 443//443
f 411//411 443//443 605//605
f 605//605 443//443 440//440
f 605//605 440//440 611//611
f 465//465 612//612 464//464
f 464//464 612//612 613//613
f 464//464 613//613 462//462
f 462//462 613//613 614//614
f 462//462 614//614 460//460
f 460//460 614//614 615//615
f 460//460 615//615 458//458
f 458//458 615//615 616//616
f 458//458 616//616 456//456
f 456//456 616//616 617//617
f 456//456 617//617 454//454
f 454//454 617//617 618//618
f 454//454 618//618 452//452
f 452//452 618//618 619//619
f 452//452 619//619 440//440
f 440//440 619//619 620//620
f 468//468 621//621 465//465
f 465//465 621//621 612//612
f 589//589 522//522 591//591
f 591//591 522//522 520//520
f 591//591 520//520 519//519
f 519//519 622//622 591//591
f 591//591 622//622 623//623
f 591//591 623//623 593//593
f 559//559 476//476 561//561
f 561//561 476//476 491//491
f 561//561 491//491 563//563
f 563//563 491//491 493//493
f 563//563 493//493 565//565
f 565//565 493//493 495//495
f 565//565 495//495 567//567
f 567//567 495//495 497//497
f 567//567 497//497 569//569
f 569//569 497//497 499//499
f 569//569 499//499 571//571
f 571//571 499//499 501//501
f 571//571 501//501 573//573
f 573//573 501//501 503//503
f 573//573 503//503 575//575
f 575//575 503//503 505//505
f 575//575 505//505 577//577
f 577//577 505//505 507//507
f 577//577 507//507 579//579
f 579//579 507//507 509//509
f 579//579 509//509 581//581
f 581//581 509//509 511//511
f 581//581 511//511 583//583
f 583//583 511//511 513//513
f 583//583 513//513 585//585
f 585//585 513//513 515//515
f 585//585 515//515 587//587
f 587//587 515//515 517//517
f 587//587 517//517 589//589
f 589//589 517//517 523//523
f 589//589 523//523 522//522
f 555//555 468//468 557//557
f 557//557 468//468 473//473
f 557//557 473//473 559//559
f 559//559 473//473 474//474
f 559//559 474//474 476//476
f 597//597 624//624 527//527
f 527//527 624//624 625//625
f 527//527 625//625 529//529
f 625//625 626//626 529//529
f 529//529 626//626 627//627
f 529//529 627//627 531//531
f 531//531 627//627 628//628
f 531//531 628//628 533//533
f 628//628 629//629 533//533
f 533//533 629//629 630//630
f 533//533 630//630 535//535
f 535//535 630//630 631//631
f 535//535 631//631 537//537
f 631//631 632//632 537//537
f 537//537 632//632 633//633
f 537//537 633//633 539//539
f 539//539 633//633 634//634
f 539//539 634//634 541//541
f 634//634 635//635 541//541
f 541//541 635//635 636//636
f 541//541 636//636 543//543
f 543//543 636//636 637//637
f 543//543 637//637 545//545
f 637//637 638//638 545//545
f 545//545 638//638 639//639
f 545//545 639//639 547//547
f 547//547 639//639 640//640
f 547//547 640//640 549//549
f 621//621 468//468 641//641
f 641//641 468//468 555//555
f 641//641 555//555 642//642
f 642//642 555//555 553//553
f 642//642 553//553 643//643
f 643//643 553//553 551//551
f 643//643 551//551 644//644
f 644//644 551//551 549//549
f 644//644 549//549 645//645
f 645//645 549//549 640//640
f 623//623 646//646 593//593
f 593//593 646//646 647//647
f 593//593 647//647 595//595
f 595//595 647//647 648//648
f 595//595 648//648 597//597
f 597//597 648//648 649//649
f 597//597 649//649 624//624
f 622//622 519//519 650//650
f 650//650 519//519 600//600
f 611//611 651//651 610//610
f 610//610 651//651 652//652
f 610//610 652//652 608//608
f 608//608 652//652 653//653
f 608//608 653//653 606//606
f 606//606 653//653 654//654
f 606//606 654//654 600//600
f 600//600 654//654 650//650
f 440//440 620//620 611//611
f 611//611 620//620 651//651
f 612//612 655//655 656//656
f 655//655 657//657 658//658
f 655//655 658//658 656//656
f 656//656 658//658 659//659
f 656//656 659//659 660//660
f 660//660 659//659 661//661
f 660//660 661//661 662//662
f 662//662 661//661 663//663
f 662//662 663//663 664//664
f 664//664 663//663 665//665
f 664//664 666//666 667//667
f 667//667 666//666 668//668
f 667//667 668//668 669//669
f 669//669 668//668 670//670
f 669//669 671//671 672//672
f 672//672 671//671 673//673
f 672//672 673//673 674//674
f 612//612 656//656 613//613
f 613//613 656//656 660//660
f 613//613 660//660 614//614
f 614//614 660//660 662//662
f 614//614 662//662 615//615
f 615//615 662//662 664//664
f 615//615 664//664 616//616
f 616//616 664//664 667//667
f 616//616 667//667 617//617
f 617//617 667//667 669//669
f 617//617 669//669 618//618
f 618//618 669//669 672//672
f 618//618 672//672 619//619
f 619//619 672//672 674//674
f 619//619 674//674 620//620
f 675//675 657//657 655//655
f 675//675 655//655 676//676
f 676//676 655//655 612//612
f 676//676 612//612 621//621
f 677//677 678//678 679//679
f 677//677 680//680 622//622
f 622//622 680//680 623//623
f 623//623 680//680 646//646
f 646//646 680//680 681//681
f 646//646 681//681 647//647
f 647//647 681//681 682//682
f 647//647 682//682 648//648
f 648//648 682//682 649//649
f 649//649 682//682 683//683
f 649//649 683//683 624//624
f 624//624 683//683 684//684
f 624//624 684//684 625//625
f 625//625 684//684 626//626
f 626//626 684//684 685//685
f 626//626 685//685 627//627
f 627//627 685//685 686//686
f 627//627 686//686 628//628
f 628//628 686//686 629//629
f 629//629 686//686 687//687
f 629//629 687//687 630//630
f 630//630 687//687 688//688
f 630//630 688//688 631//631
f 631//631 688//688 632//632
f 632//632 688//688 689//689
f 632//632 689//689 633//633
f 633//633 689//689 690//690
f 633//633 690//690 634//634
f 634//634 690//690 635//635
f 635//635 690//690 691//691
f 635//635 691//691 636//636
f 636//636 691//691 692//692
f 636//636 692//692 637//637
f 637//637 692//692 638//638
f 638//638 692//692 693//693
f 638//638 693//693 639//639
f 639//639 693//693 694//694
f 639//639 694//694 640//640
f 677//677 679//679 680//680
f 680//680 679//679 695//695
f 680//680 695//695 681//681
f 681//681 695//695 696//696
f 681//681 696//696 682//682
f 682//682 696//696 697//697
f 682//682 697//697 683//683
f 683//683 697//697 698//698
f 683//683 698//698 684//684
f 684//684 698//698 699//699
f 684//684 699//699 685//685
f 685//685 699//699 700//700
f 685//685 700//700 686//686
f 686//686 700//700 701//701
f 686//686 701//701 687//687
f 687//687 701//701 702//702
f 687//687 702//702 688//688
f 688//688 702//702 703//703
f 688//688 703//703 689//689
f 689//689 703//703 704//704
f 689//689 704//704 690//690
f 690//690 704//704 705//705
f 690//690 705//705 691//691
f 691//691 705//705 706//706
f 691//691 706//706 692//692
f 692//692 706//706 707//707
f 692//692 707//707 693//693
f 693//693 707//707 708//708
f 693//693 708//708 694//694
f 694//694 708//708 709//709
f 694//694 709//709 710//710
f 710//710 709//709 711//711
f 710//710 711//711 712//712
f 712//712 711//711 713//713
f 712//712 713//713 714//714
f 714//714 713//713 715//715
f 714//714 715//715 716//716
f 716//716 715//715 675//675
f 716//716 675//675 676//676
f 640//640 694//694 645//645
f 645//645 694//694 710//710
f 645//645 710//710 644//644
f 644//644 710//710 712//712
f 644//644 712//712 643//643
f 643//643 712//712 714//714
f 643//643 714//714 642//642
f 642//642 714//714 716//716
f 642//642 716//716 641//641
f 641//641 716//716 676//676
f 641//641 676//676 621//621
f 717//717 678//678 677//677
f 717//717 677//677 718//718
f 718//718 677//677 622//622
f 718//718 622//622 650//650
f 651//651 719//719 720//720
f 719//719 721//721 722//722
f 719//719 722//722 720//720
f 720//720 722//722 723//723
f 720//720 723//723 724//724
f 724//724 723//723 725//725
f 724//724 725//725 726//726
f 726//726 725//725 717//717
f 726//726 717//717 718//718
f 651//651 720//720 652//652
f 652//652 720//720 724//724
f 652//652 724//724 653//653
f 653//653 724//724 726//726
f 653//653 726//726 654//654
f 654//654 726//726 718//718
f 654//654 718//718 650//650
f 673//673 721//721 719//719
f 673//673 719//719 674//674
f 674//674 719//719 651//651
f 674//674 651//651 620//620
f 673//673 727//727 721//721
f 721//721 727//727 728//728
f 721//721 728//728 722//722
f 722//722 729//729 723//723
f 723//723 729//729 725//725
f 725//725 730//730 717//717
f 717//717 730//730 678//678
f 678//678 730//730 731//731
f 678//678 731//731 679//679
f 679//679 732//732 695//695
f 695//695 732//732 696//696
f 696//696 733//733 697//697
f 697//697 733//733 698//698
f 698//698 734//734 699//699
f 699//699 734//734 700//700
f 700//700 735//735 701//701
f 701//701 735//735 702//702
f 702//702 736//736 703//703
f 703//703 736//736 704//704
f 704//704 737//737 705//705
f 705//705 737//737 706//706
f 706//706 738//738 707//707
f 707//707 738//738 708//708
f 708//708 739//739 709//709
f 709//709 739//739 711//711
f 711//711 740//740 713//713
f 713//713 740//740 715//715
f 715//715 741//741 675//675
f 675//675 741//741 657//657
f 657//657 741//741 742//742
f 658//658 657//657 742//742
f 659//659 743//743 744//744
f 659//659 744//744 661//661
f 661//661 744//744 745//745
f 661//661 745//745 663//663
f 746//746 727//727 673//673
f 747//747 670//670 668//668
f 747//747 668//668 748//748
f 745//745 665//665 663//663
f 749//749 750//750 751//751
f 752//752 753//753 754//754
f 755//755 756//756 757//757
f 758//758 759//759 760//760
f 761//761 762//762 763//763
f 764//764 765//765 766//766
f 767//767 768//768 769//769
f 770//770 771//771 772//772
f 773//773 774//774 775//775
f 776//776 777//777 778//778
f 779//779 780//780 781//781
f 782//782 783//783 784//784
f 785//785 786//786 787//787
f 788//788 789//789 790//790
f 791//791 792//792 793//793
f 794//794 795//795 796//796
f 797//797 799//799 801//801
f 800//800 798//798 802//802
f 803//803 805//805 807//807
f 806//806 804//804 808//808
f 809//809 811//811 813//813
f 812//812 810//810 814//814
f 815//815 817//817 818//818
f 819//819 816//816 820//820
f 821//821 823//823 825//825
f 824//824 822//822 826//826
f 827//827 829//829 831//831
f 830//830 828//828 832//832
f 833//833 834//834 837//837
f 836//836 835//835 838//838
f 839//839 841//841 843//843
f 842//842 840//840 844//844
f 845//845 847//847 849//849
f 848//848 846//846 850//850
f 851//851 853//853 855//855
f 854//854 852//852 856//856
f 857//857 858//858 859//859
f 859//859 858//858 860//860
f 861//861 863//863 865//865
f 864//864 862//862 866//866

