# https://github.com/mikedh/trimesh
v 0.15817600 -0.02353100 0.02050000
v 0.15817600 -0.02353100 0.02040000
v 0.15818300 -0.02341600 0.02040000
v 0.15818300 -0.02341600 0.02050000
v 0.15814900 -0.02327700 0.02040000
v 0.15814900 -0.02327700 0.02050000
v 0.15807400 -0.02315800 0.02040000
v 0.15807400 -0.02315800 0.02050000
v 0.15696600 -0.02128400 0.02050000
v 0.15696600 -0.02128400 0.02040000
v 0.15877900 -0.01989700 0.02050000
v 0.15696600 -0.02128400 0.02050000
v 0.15877900 -0.01989700 0.02040000
v 0.15696600 -0.02128400 0.02040000
v 0.15881100 -0.01986800 0.02040000
v 0.15881100 -0.01986800 0.02050000
v 0.15889100 -0.01976000 0.02040000
v 0.15889100 -0.01976000 0.02050000
v 0.15893300 -0.01964000 0.02040000
v 0.15893300 -0.01964000 0.02050000
v 0.15893800 -0.01949700 0.02040000
v 0.15893800 -0.01949700 0.02050000
v 0.15889600 -0.01936100 0.02040000
v 0.15889600 -0.01936100 0.02050000
v 0.15881500 -0.01924600 0.02040000
v 0.15881500 -0.01924600 0.02050000
v 0.15870100 -0.01916300 0.02040000
v 0.15870100 -0.01916300 0.02050000
v 0.15857500 -0.01912100 0.02040000
v 0.15857500 -0.01912100 0.02050000
v 0.15848700 -0.01911500 0.02040000
v 0.15848700 -0.01911500 0.02050000
v 0.15835400 -0.01913900 0.02040000
v 0.15835400 -0.01913900 0.02050000
v 0.15823100 -0.01920600 0.02040000
v 0.15823100 -0.01920600 0.02050000
v 0.15650600 -0.02053000 0.02050000
v 0.15650600 -0.02053000 0.02040000
v 0.15541700 -0.01867000 0.02050000
v 0.15650600 -0.02053000 0.02050000
v 0.15541700 -0.01867000 0.02040000
v 0.15650600 -0.02053000 0.02040000
v 0.15537400 -0.01861000 0.02040000
v 0.15537400 -0.01861000 0.02050000
v 0.15527200 -0.01852100 0.02040000
v 0.15527200 -0.01852100 0.02050000
v 0.15514400 -0.01846700 0.02040000
v 0.15514400 -0.01846700 0.02050000
v 0.15502000 -0.01845400 0.02040000
v 0.15502000 -0.01845400 0.02050000
v 0.15488000 -0.01848300 0.02040000
v 0.15488000 -0.01848300 0.02050000
v 0.15476200 -0.01855000 0.02040000
v 0.15476200 -0.01855000 0.02050000
v 0.15467000 -0.01865000 0.02040000
v 0.15467000 -0.01865000 0.02050000
v 0.15461200 -0.01877600 0.02040000
v 0.15461200 -0.01877600 0.02050000
v 0.15459600 -0.01888100 0.02040000
v 0.15459600 -0.01888100 0.02050000
v 0.15459700 -0.01892700 0.02040000
v 0.15459700 -0.01892700 0.02050000
v 0.15463100 -0.01906600 0.02040000
v 0.15463100 -0.01906600 0.02050000
v 0.15470600 -0.01918500 0.02040000
v 0.15470600 -0.01918500 0.02050000
v 0.15581400 -0.02105900 0.02050000
v 0.15581400 -0.02105900 0.02040000
v 0.15400100 -0.02244600 0.02050000
v 0.15581400 -0.02105900 0.02050000
v 0.15400100 -0.02244600 0.02040000
v 0.15581400 -0.02105900 0.02040000
v 0.15396900 -0.02247500 0.02040000
v 0.15396900 -0.02247500 0.02050000
v 0.15388900 -0.02258300 0.02040000
v 0.15388900 -0.02258300 0.02050000
v 0.15384700 -0.02270300 0.02040000
v 0.15384700 -0.02270300 0.02050000
v 0.15384200 -0.02284600 0.02040000
v 0.15384200 -0.02284600 0.02050000
v 0.15388400 -0.02298200 0.02040000
v 0.15388400 -0.02298200 0.02050000
v 0.15396600 -0.02309700 0.02040000
v 0.15396600 -0.02309700 0.02050000
v 0.15407900 -0.02318100 0.02040000
v 0.15407900 -0.02318100 0.02050000
v 0.15420600 -0.02322200 0.02040000
v 0.15420600 -0.02322200 0.02050000
v 0.15429300 -0.02322900 0.02040000
v 0.15429300 -0.02322900 0.02050000
v 0.15442600 -0.02320400 0.02040000
v 0.15442600 -0.02320400 0.02050000
v 0.15454900 -0.02313700 0.02040000
v 0.15454900 -0.02313700 0.02050000
v 0.15627500 -0.02181300 0.02050000
v 0.15627500 -0.02181300 0.02040000
v 0.15736400 -0.02367300 0.02050000
v 0.15627500 -0.02181300 0.02050000
v 0.15736400 -0.02367300 0.02040000
v 0.15627500 -0.02181300 0.02040000
v 0.15742300 -0.02375200 0.02040000
v 0.15742300 -0.02375200 0.02050000
v 0.15752900 -0.02383400 0.02040000
v 0.15752900 -0.02383400 0.02050000
v 0.15766000 -0.02388100 0.02040000
v 0.15766000 -0.02388100 0.02050000
v 0.15779300 -0.02388700 0.02040000
v 0.15779300 -0.02388700 0.02050000
v 0.15793100 -0.02384700 0.02040000
v 0.15793100 -0.02384700 0.02050000
v 0.15804700 -0.02376800 0.02040000
v 0.15804700 -0.02376800 0.02050000
v 0.15812900 -0.02366100 0.02040000
v 0.15812900 -0.02366100 0.02050000
v 0.15818300 -0.02341600 0.02050000
v 0.15818300 -0.02341600 0.02050000
v 0.15818300 -0.02341600 0.02050000
v 0.15814900 -0.02327700 0.02050000
v 0.15807400 -0.02315800 0.02050000
v 0.15807400 -0.02315800 0.02050000
v 0.15807400 -0.02315800 0.02050000
v 0.15627500 -0.02181300 0.02050000
v 0.15627500 -0.02181300 0.02050000
v 0.15581400 -0.02105900 0.02050000
v 0.15581400 -0.02105900 0.02050000
v 0.15454900 -0.02313700 0.02050000
v 0.15454900 -0.02313700 0.02050000
v 0.15581400 -0.02105900 0.02050000
v 0.15400100 -0.02244600 0.02050000
v 0.15400100 -0.02244600 0.02050000
v 0.15396900 -0.02247500 0.02050000
v 0.15396900 -0.02247500 0.02050000
v 0.15650600 -0.02053000 0.02050000
v 0.15650600 -0.02053000 0.02050000
v 0.15696600 -0.02128400 0.02050000
v 0.15696600 -0.02128400 0.02050000
v 0.15823100 -0.01920600 0.02050000
v 0.15823100 -0.01920600 0.02050000
v 0.15877900 -0.01989700 0.02050000
v 0.15881100 -0.01986800 0.02050000
v 0.15407900 -0.02318100 0.02050000
v 0.15407900 -0.02318100 0.02050000
v 0.15420600 -0.02322200 0.02050000
v 0.15420600 -0.02322200 0.02050000
v 0.15384700 -0.02270300 0.02050000
v 0.15870100 -0.01916300 0.02050000
v 0.15870100 -0.01916300 0.02050000
v 0.15857500 -0.01912100 0.02050000
v 0.15857500 -0.01912100 0.02050000
v 0.15857500 -0.01912100 0.02050000
v 0.15857500 -0.01912100 0.02050000
v 0.15893300 -0.01964000 0.02050000
v 0.15893300 -0.01964000 0.02050000
v 0.15442600 -0.02320400 0.02050000
v 0.15429300 -0.02322900 0.02050000
v 0.15396900 -0.02247500 0.02050000
v 0.15396900 -0.02247500 0.02050000
v 0.15388900 -0.02258300 0.02050000
v 0.15388900 -0.02258300 0.02050000
v 0.15742300 -0.02375200 0.02050000
v 0.15742300 -0.02375200 0.02050000
v 0.15752900 -0.02383400 0.02050000
v 0.15752900 -0.02383400 0.02050000
v 0.15817600 -0.02353100 0.02050000
v 0.15817600 -0.02353100 0.02050000
v 0.15766000 -0.02388100 0.02050000
v 0.15766000 -0.02388100 0.02050000
v 0.15766000 -0.02388100 0.02050000
v 0.15812900 -0.02366100 0.02050000
v 0.15736400 -0.02367300 0.02050000
v 0.15736400 -0.02367300 0.02050000
v 0.15736400 -0.02367300 0.02050000
v 0.15807400 -0.02315800 0.02050000
v 0.15696600 -0.02128400 0.02050000
v 0.15696600 -0.02128400 0.02050000
v 0.15650600 -0.02053000 0.02050000
v 0.15541700 -0.01867000 0.02050000
v 0.15541700 -0.01867000 0.02050000
v 0.15470600 -0.01918500 0.02050000
v 0.15470600 -0.01918500 0.02050000
v 0.15470600 -0.01918500 0.02050000
v 0.15835400 -0.01913900 0.02050000
v 0.15848700 -0.01911500 0.02050000
v 0.15881100 -0.01986800 0.02050000
v 0.15881100 -0.01986800 0.02050000
v 0.15889100 -0.01976000 0.02050000
v 0.15889100 -0.01976000 0.02050000
v 0.15463100 -0.01906600 0.02050000
v 0.15459700 -0.01892700 0.02050000
v 0.15459700 -0.01892700 0.02050000
v 0.15459700 -0.01892700 0.02050000
v 0.15541700 -0.01867000 0.02050000
v 0.15541700 -0.01867000 0.02050000
v 0.15541700 -0.01867000 0.02050000
v 0.15459600 -0.01888100 0.02050000
v 0.15459600 -0.01888100 0.02050000
v 0.15537400 -0.01861000 0.02050000
v 0.15537400 -0.01861000 0.02050000
v 0.15461200 -0.01877600 0.02050000
v 0.15461200 -0.01877600 0.02050000
v 0.15461200 -0.01877600 0.02050000
v 0.15461200 -0.01877600 0.02050000
v 0.15537400 -0.01861000 0.02050000
v 0.15527200 -0.01852100 0.02050000
v 0.15527200 -0.01852100 0.02050000
v 0.15502000 -0.01845400 0.02050000
v 0.15502000 -0.01845400 0.02050000
v 0.15488000 -0.01848300 0.02050000
v 0.15476200 -0.01855000 0.02050000
v 0.15476200 -0.01855000 0.02050000
v 0.15779300 -0.02388700 0.02050000
v 0.15793100 -0.02384700 0.02050000
v 0.15793100 -0.02384700 0.02050000
v 0.15766000 -0.02388100 0.02050000
v 0.15804700 -0.02376800 0.02050000
v 0.15804700 -0.02376800 0.02050000
v 0.15514400 -0.01846700 0.02050000
v 0.15514400 -0.01846700 0.02050000
v 0.15502000 -0.01845400 0.02050000
v 0.15502000 -0.01845400 0.02050000
v 0.15467000 -0.01865000 0.02050000
v 0.15467000 -0.01865000 0.02050000
v 0.15384200 -0.02284600 0.02050000
v 0.15388400 -0.02298200 0.02050000
v 0.15388400 -0.02298200 0.02050000
v 0.15384700 -0.02270300 0.02050000
v 0.15384700 -0.02270300 0.02050000
v 0.15384700 -0.02270300 0.02050000
v 0.15396600 -0.02309700 0.02050000
v 0.15396600 -0.02309700 0.02050000
v 0.15893800 -0.01949700 0.02050000
v 0.15889600 -0.01936100 0.02050000
v 0.15889600 -0.01936100 0.02050000
v 0.15893300 -0.01964000 0.02050000
v 0.15893300 -0.01964000 0.02050000
v 0.15893300 -0.01964000 0.02050000
v 0.15881500 -0.01924600 0.02050000
v 0.15881500 -0.01924600 0.02050000
v 0.15581400 -0.02105900 0.02040000
v 0.15581400 -0.02105900 0.02040000
v 0.15470600 -0.01918500 0.02040000
v 0.15470600 -0.01918500 0.02040000
v 0.15541700 -0.01867000 0.02040000
v 0.15541700 -0.01867000 0.02040000
v 0.15541700 -0.01867000 0.02040000
v 0.15541700 -0.01867000 0.02040000
v 0.15541700 -0.01867000 0.02040000
v 0.15541700 -0.01867000 0.02040000
v 0.15463100 -0.01906600 0.02040000
v 0.15463100 -0.01906600 0.02040000
v 0.15893300 -0.01964000 0.02040000
v 0.15893300 -0.01964000 0.02040000
v 0.15893300 -0.01964000 0.02040000
v 0.15893300 -0.01964000 0.02040000
v 0.15889100 -0.01976000 0.02040000
v 0.15889100 -0.01976000 0.02040000
v 0.15857500 -0.01912100 0.02040000
v 0.15857500 -0.01912100 0.02040000
v 0.15857500 -0.01912100 0.02040000
v 0.15881100 -0.01986800 0.02040000
v 0.15881100 -0.01986800 0.02040000
v 0.15881100 -0.01986800 0.02040000
v 0.15881100 -0.01986800 0.02040000
v 0.15848700 -0.01911500 0.02040000
v 0.15848700 -0.01911500 0.02040000
v 0.15814900 -0.02327700 0.02040000
v 0.15814900 -0.02327700 0.02040000
v 0.15742300 -0.02375200 0.02040000
v 0.15742300 -0.02375200 0.02040000
v 0.15742300 -0.02375200 0.02040000
v 0.15742300 -0.02375200 0.02040000
v 0.15807400 -0.02315800 0.02040000
v 0.15807400 -0.02315800 0.02040000
v 0.15736400 -0.02367300 0.02040000
v 0.15736400 -0.02367300 0.02040000
v 0.15736400 -0.02367300 0.02040000
v 0.15696600 -0.02128400 0.02040000
v 0.15696600 -0.02128400 0.02040000
v 0.15696600 -0.02128400 0.02040000
v 0.15384700 -0.02270300 0.02040000
v 0.15384700 -0.02270300 0.02040000
v 0.15388900 -0.02258300 0.02040000
v 0.15388900 -0.02258300 0.02040000
v 0.15420600 -0.02322200 0.02040000
v 0.15420600 -0.02322200 0.02040000
v 0.15420600 -0.02322200 0.02040000
v 0.15396900 -0.02247500 0.02040000
v 0.15396900 -0.02247500 0.02040000
v 0.15396900 -0.02247500 0.02040000
v 0.15396900 -0.02247500 0.02040000
v 0.15429300 -0.02322900 0.02040000
v 0.15429300 -0.02322900 0.02040000
v 0.15627500 -0.02181300 0.02040000
v 0.15627500 -0.02181300 0.02040000
v 0.15650600 -0.02053000 0.02040000
v 0.15650600 -0.02053000 0.02040000
v 0.15650600 -0.02053000 0.02040000
v 0.15877900 -0.01989700 0.02040000
v 0.15877900 -0.01989700 0.02040000
v 0.15823100 -0.01920600 0.02040000
v 0.15823100 -0.01920600 0.02040000
v 0.15835400 -0.01913900 0.02040000
v 0.15835400 -0.01913900 0.02040000
v 0.15818300 -0.02341600 0.02040000
v 0.15818300 -0.02341600 0.02040000
v 0.15817600 -0.02353100 0.02040000
v 0.15817600 -0.02353100 0.02040000
v 0.15752900 -0.02383400 0.02040000
v 0.15766000 -0.02388100 0.02040000
v 0.15766000 -0.02388100 0.02040000
v 0.15766000 -0.02388100 0.02040000
v 0.15400100 -0.02244600 0.02040000
v 0.15454900 -0.02313700 0.02040000
v 0.15454900 -0.02313700 0.02040000
v 0.15442600 -0.02320400 0.02040000
v 0.15442600 -0.02320400 0.02040000
v 0.15476200 -0.01855000 0.02040000
v 0.15476200 -0.01855000 0.02040000
v 0.15488000 -0.01848300 0.02040000
v 0.15502000 -0.01845400 0.02040000
v 0.15502000 -0.01845400 0.02040000
v 0.15502000 -0.01845400 0.02040000
v 0.15459700 -0.01892700 0.02040000
v 0.15459700 -0.01892700 0.02040000
v 0.15459600 -0.01888100 0.02040000
v 0.15459600 -0.01888100 0.02040000
v 0.15459600 -0.01888100 0.02040000
v 0.15537400 -0.01861000 0.02040000
v 0.15537400 -0.01861000 0.02040000
v 0.15537400 -0.01861000 0.02040000
v 0.15461200 -0.01877600 0.02040000
v 0.15461200 -0.01877600 0.02040000
v 0.15461200 -0.01877600 0.02040000
v 0.15461200 -0.01877600 0.02040000
v 0.15527200 -0.01852100 0.02040000
v 0.15527200 -0.01852100 0.02040000
v 0.15514400 -0.01846700 0.02040000
v 0.15793100 -0.02384700 0.02040000
v 0.15779300 -0.02388700 0.02040000
v 0.15779300 -0.02388700 0.02040000
v 0.15804700 -0.02376800 0.02040000
v 0.15804700 -0.02376800 0.02040000
v 0.15804700 -0.02376800 0.02040000
v 0.15812900 -0.02366100 0.02040000
v 0.15812900 -0.02366100 0.02040000
v 0.15889600 -0.01936100 0.02040000
v 0.15893800 -0.01949700 0.02040000
v 0.15893800 -0.01949700 0.02040000
v 0.15881500 -0.01924600 0.02040000
v 0.15881500 -0.01924600 0.02040000
v 0.15881500 -0.01924600 0.02040000
v 0.15870100 -0.01916300 0.02040000
v 0.15870100 -0.01916300 0.02040000
v 0.15388400 -0.02298200 0.02040000
v 0.15384200 -0.02284600 0.02040000
v 0.15396600 -0.02309700 0.02040000
v 0.15407900 -0.02318100 0.02040000
v 0.15407900 -0.02318100 0.02040000
v 0.15467000 -0.01865000 0.02040000
v 0.15467000 -0.01865000 0.02040000
vn 0.98822500 -0.15300500 0.00000000
vn 0.96891900 -0.24737800 0.00001700
vn 0.99918500 0.04036000 0.00000000
vn 0.99025200 0.13928900 -0.00001700
vn 0.94078800 0.33899500 0.00002100
vn 0.89841500 0.43914800 0.00000000
vn 0.85102300 0.52512800 0.00000000
vn 0.85596400 0.51703600 0.00000000
vn 0.86083100 0.50889200 0.00000000
vn 0.86083000 0.50889200 0.00000000
vn 0.64832000 -0.76136800 0.00000000
vn 0.60767200 -0.79418800 0.00000000
vn 0.62825100 -0.77801100 0.00000500
vn 0.60767100 -0.79418900 0.00000000
vn 0.71629700 -0.69779600 0.00000000
vn 0.76159600 -0.64805200 0.00000000
vn 0.85860300 -0.51264100 0.00002400
vn 0.90580000 -0.42370500 -0.00001700
vn 0.97235400 -0.23351000 0.00000000
vn 0.99122000 -0.13222600 0.00000000
vn 0.99697500 0.07772700 0.00000000
vn 0.98248400 0.18634500 0.00000000
vn 0.92000200 0.39191400 0.00002600
vn 0.87234900 0.48888400 0.00000000
vn 0.74899200 0.66257800 0.00000000
vn 0.67351100 0.73917700 0.00000000
vn 0.50426500 0.86354900 0.00000000
vn 0.41093100 0.91166700 0.00000000
vn 0.23463000 0.97208500 0.00000000
vn 0.15306000 0.98821700 0.00000000
vn -0.01358300 0.99990800 0.00001500
vn -0.09858200 0.99512900 0.00000000
vn -0.28432500 0.95872800 0.00000000
vn -0.38431200 0.92320300 0.00000000
vn -0.52361700 0.85195400 0.00000000
vn -0.56694200 0.82375700 -0.00001200
vn -0.60868500 0.79341200 0.00000000
vn -0.60868500 0.79341200 0.00000000
vn 0.83192200 0.55489300 0.00000000
vn 0.86296400 0.50526600 0.00000000
vn 0.84783000 0.53026800 0.00000000
vn 0.86296300 0.50526700 0.00000000
vn 0.76666900 0.64204200 0.00000000
vn 0.71284100 0.70132600 0.00000000
vn 0.57261300 0.81982600 0.00000000
vn 0.48330000 0.87545500 0.00000000
vn 0.29691500 0.95490400 0.00002400
vn 0.20038600 0.97971700 0.00000000
vn 0.00144800 0.99999900 0.00000000
vn -0.10093600 0.99489300 0.00000000
vn -0.30325400 0.95291000 0.00002600
vn -0.40283600 0.91527200 0.00000000
vn -0.58278500 0.81262700 0.00000000
vn -0.66325300 0.74839500 0.00000000
vn -0.80242200 0.59675700 0.00000000
vn -0.86063400 0.50922400 0.00000000
vn -0.94349300 0.33139300 -0.00000200
vn -0.97021200 0.24225600 0.00000000
vn -0.99551700 0.09457900 0.00000000
vn -0.99931700 0.03695400 0.00000000
vn -0.99567300 -0.09292800 0.00001700
vn -0.98629800 -0.16497500 0.00000000
vn -0.94080300 -0.33895300 0.00000000
vn -0.89844400 -0.43908800 0.00000000
vn -0.85107900 -0.52503800 0.00000000
vn -0.85596700 -0.51703100 0.00000000
vn -0.86083100 -0.50889200 0.00000000
vn -0.86083000 -0.50889200 0.00000000
vn -0.64543200 0.76381800 0.00000000
vn -0.60768100 0.79418200 0.00000000
vn -0.62676200 0.77921100 0.00000000
vn -0.60768000 0.79418200 0.00000000
vn -0.71362200 0.70053100 0.00001700
vn -0.76032600 0.64954200 0.00000000
vn -0.85863800 0.51258200 0.00000000
vn -0.90589300 0.42350600 0.00000000
vn -0.97240400 0.23330300 -0.00002000
vn -0.99123700 0.13209900 -0.00002500
vn -0.99696800 -0.07781000 0.00000000
vn -0.98248500 -0.18634400 0.00000000
vn -0.91998800 -0.39194500 0.00002600
vn -0.87232800 -0.48892000 0.00000000
vn -0.74900200 -0.66256700 0.00002100
vn -0.67356000 -0.73913300 0.00000000
vn -0.50431400 -0.86352100 0.00001800
vn -0.41095900 -0.91165400 0.00000000
vn -0.23464400 -0.97208100 0.00000000
vn -0.15309300 -0.98821200 0.00000000
vn 0.01358000 -0.99990800 0.00000000
vn 0.09861100 -0.99512600 -0.00002000
vn 0.28439000 -0.95870900 0.00002300
vn 0.38433200 -0.92319500 0.00000000
vn 0.52366300 -0.85192500 0.00000000
vn 0.56692500 -0.82376900 -0.00001000
vn 0.60864900 -0.79344000 0.00000000
vn 0.60864900 -0.79344000 0.00000000
vn -0.82136700 -0.57040000 0.00000000
vn -0.86295300 -0.50528300 0.00000000
vn -0.84276700 -0.53827800 0.00000000
vn -0.86295300 -0.50528400 0.00000000
vn -0.74227100 -0.67010000 0.00000000
vn -0.67948100 -0.73369300 0.00000000
vn -0.52634500 -0.85027100 0.00000000
vn -0.43424900 -0.90079300 -0.00002000
vn -0.24078800 -0.97057800 0.00000000
vn -0.13966000 -0.99020000 0.00000000
vn 0.06663100 -0.99777800 0.00002000
vn 0.17159600 -0.98516700 -0.00002000
vn 0.37488700 -0.92707000 0.00000000
vn 0.47289000 -0.88112100 0.00000000
vn 0.64704200 -0.76245400 0.00000000
vn 0.72340800 -0.69042100 0.00000000
vn 0.85029400 -0.52630900 0.00000000
vn 0.90072600 -0.43438700 0.00000000
vn -0.00007000 0.00000700 1.00000000
vn 0.00000000 0.00000000 1.00000000
vn -0.00000400 0.00000000 1.00000000
vn -0.00007000 0.00000700 1.00000000
vn 0.00000000 0.00000000 1.00000000
vn -0.00007000 0.00000700 1.00000000
vn -0.00000400 0.00000000 1.00000000
vn 0.00000000 0.00000000 1.00000000
vn 0.00000200 -0.00000000 1.00000000
vn 0.00000000 0.00000000 1.00000000
vn -0.00000100 0.00000000 1.00000000
vn 0.00000300 -0.00000000 1.00000000
vn 0.00000000 0.00000000 1.00000000
vn 0.00000000 0.00000000 1.00000000
vn 0.00000300 -0.00000000 1.00000000
vn 0.00000000 0.00000000 1.00000000
vn 0.00000000 0.00000000 1.00000000
vn 0.00000300 -0.00000000 1.00000000
vn 0.00000000 0.00000000 1.00000000
vn -0.00000400 0.00000000 1.00000000
vn -0.00000400 0.00000000 1.00000000
vn 0.00000000 0.00000000 1.00000000
vn -0.00000400 0.00000000 1.00000000
vn 0.00000000 0.00000000 1.00000000
vn 0.00000000 0.00000000 1.00000000
vn 0.00000000 0.00000000 1.00000000
vn 0.00000000 0.00000000 1.00000000
vn -0.00002600 0.00000300 1.00000000
vn 0.00000000 0.00000000 1.00000000
vn 0.00001100 -0.00000100 1.00000000
vn 0.00000000 0.00000000 1.00000000
vn 0.00003900 -0.00000400 1.00000000
vn -0.00003600 0.00000400 1.00000000
vn -0.00003600 0.00000400 1.00000000
vn 0.00000000 0.00000000 1.00000000
vn 0.00000500 -0.00000100 1.00000000
vn 0.00001400 -0.00000100 1.00000000
vn 0.00001400 -0.00000100 1.00000000
vn -0.00003600 0.00000400 1.00000000
vn 0.00000000 0.00000000 1.00000000
vn 0.00000000 0.00000000 1.00000000
vn 0.00001100 -0.00000100 1.00000000
vn 0.00000000 0.00000000 1.00000000
vn 0.00001100 -0.00000100 1.00000000
vn 0.00000000 0.00000000 1.00000000
vn 0.00000000 0.00000000 1.00000000
vn -0.00000400 0.00000000 1.00000000
vn 0.00000000 0.00000000 1.00000000
vn 0.00000500 -0.00000000 1.00000000
vn 0.00000500 -0.00000000 1.00000000
vn 0.00000000 0.00000000 1.00000000
vn 0.00001300 -0.00000100 1.00000000
vn 0.00000500 -0.00000000 1.00000000
vn 0.00000000 0.00000000 1.00000000
vn 0.00000000 0.00000000 1.00000000
vn 0.00000000 0.00000000 1.00000000
vn 0.00000200 -0.00000000 1.00000000
vn -0.00000400 0.00000000 1.00000000
vn -0.00000400 0.00000000 1.00000000
vn 0.00000200 -0.00000000 1.00000000
vn -0.00000400 0.00000000 1.00000000
vn 0.00000000 0.00000000 1.00000000
vn 0.00000000 0.00000000 1.00000000
vn -0.00000100 0.00000000 1.00000000
vn -0.00000100 0.00000000 1.00000000
vn 0.00014000 -0.00001400 1.00000000
vn 0.00000800 -0.00000100 1.00000000
vn 0.00000000 0.00000000 1.00000000
vn 0.00000000 0.00000000 1.00000000
vn 0.00000500 -0.00000100 1.00000000
vn 0.00000000 0.00000000 1.00000000
vn 0.00000500 -0.00000100 1.00000000
vn 0.00001400 -0.00000100 1.00000000
vn 0.00014000 -0.00001400 1.00000000
vn 0.00000800 -0.00000100 1.00000000
vn 0.00014000 -0.00001400 1.00000000
vn 0.00000000 0.00000000 1.00000000
vn 0.00000000 0.00000000 1.00000000
vn 0.00000800 -0.00000100 1.00000000
vn 0.00000800 -0.00000100 1.00000000
vn 0.00000000 0.00000000 1.00000000
vn 0.00000800 -0.00000100 1.00000000
vn 0.00000800 -0.00000100 1.00000000
vn 0.00000000 0.00000000 1.00000000
vn 0.00000000 0.00000000 1.00000000
vn 0.00002800 -0.00000300 1.00000000
vn -0.00000900 0.00000100 1.00000000
vn -0.00000500 0.00000100 1.00000000
vn -0.00000500 0.00000100 1.00000000
vn -0.00000500 0.00000100 1.00000000
vn 0.00000000 0.00000000 1.00000000
vn 0.00000000 0.00000000 1.00000000
vn -0.00002700 0.00000300 1.00000000
vn 0.00000000 0.00000000 1.00000000
vn 0.00000000 0.00000000 1.00000000
vn -0.00002700 0.00000300 1.00000000
vn 0.00003800 -0.00000400 1.00000000
vn 0.00003800 -0.00000400 1.00000000
vn 0.00001300 -0.00000100 1.00000000
vn 0.00003800 -0.00000400 1.00000000
vn 0.00001300 -0.00000100 1.00000000
vn 0.00000000 0.00000000 1.00000000
vn 0.00000000 0.00000000 1.00000000
vn -0.00000900 0.00000100 1.00000000
vn -0.00000900 0.00000100 1.00000000
vn 0.00002800 -0.00000300 1.00000000
vn -0.00002700 0.00000300 1.00000000
vn 0.00002800 -0.00000300 1.00000000
vn -0.00013800 0.00001400 1.00000000
vn -0.00013800 0.00001400 1.00000000
vn 0.00004900 -0.00000500 1.00000000
vn 0.00004900 -0.00000500 1.00000000
vn -0.00013800 0.00001400 1.00000000
vn -0.00002600 0.00000300 1.00000000
vn 0.00004900 -0.00000500 1.00000000
vn -0.00002600 0.00000300 1.00000000
vn 0.00013900 -0.00001400 1.00000000
vn 0.00013900 -0.00001400 1.00000000
vn -0.00004900 0.00000500 1.00000000
vn 0.00003900 -0.00000400 1.00000000
vn 0.00013900 -0.00001400 1.00000000
vn -0.00004900 0.00000500 1.00000000
vn 0.00003900 -0.00000400 1.00000000
vn -0.00004900 0.00000500 1.00000000
vn -0.00000100 0.00000000 -1.00000000
vn 0.00000000 0.00000000 -1.00000000
vn 0.00000000 0.00000000 -1.00000000
vn -0.00000400 0.00000000 -1.00000000
vn -0.00000400 0.00000000 -1.00000000
vn -0.00001600 0.00000200 -1.00000000
vn 0.00000700 -0.00000100 -1.00000000
vn 0.00000600 -0.00000100 -1.00000000
vn 0.00000000 0.00000000 -1.00000000
vn -0.00000100 0.00000000 -1.00000000
vn 0.00000700 -0.00000100 -1.00000000
vn -0.00000400 0.00000000 -1.00000000
vn 0.00004800 -0.00000500 -1.00000000
vn -0.00005200 0.00000500 -1.00000000
vn 0.00002800 -0.00000300 -1.00000000
vn 0.00000000 0.00000000 -1.00000000
vn -0.00000500 0.00000100 -1.00000000
vn 0.00002800 -0.00000300 -1.00000000
vn -0.00000500 0.00000100 -1.00000000
vn 0.00002800 -0.00000300 -1.00000000
vn 0.00000000 0.00000000 -1.00000000
vn -0.00000500 0.00000100 -1.00000000
vn -0.00000200 0.00000000 -1.00000000
vn -0.00000300 0.00000000 -1.00000000
vn 0.00000000 0.00000000 -1.00000000
vn -0.00000300 0.00000000 -1.00000000
vn 0.00000000 0.00000000 -1.00000000
vn -0.00001500 0.00000200 -1.00000000
vn 0.00000000 0.00000000 -1.00000000
vn 0.00001000 -0.00000100 -1.00000000
vn 0.00001100 -0.00000100 -1.00000000
vn -0.00001500 0.00000200 -1.00000000
vn 0.00000000 0.00000000 -1.00000000
vn 0.00001000 -0.00000100 -1.00000000
vn 0.00000000 0.00000000 -1.00000000
vn 0.00000000 0.00000000 -1.00000000
vn -0.00000100 0.00000000 -1.00000000
vn 0.00001000 -0.00000100 -1.00000000
vn -0.00000100 0.00000000 -1.00000000
vn 0.00000000 0.00000000 -1.00000000
vn 0.00000200 -0.00000000 -1.00000000
vn 0.00000000 0.00000000 -1.00000000
vn -0.00003600 0.00000400 -1.00000000
vn 0.00000500 -0.00000100 -1.00000000
vn 0.00000000 0.00000000 -1.00000000
vn 0.00000000 0.00000000 -1.00000000
vn 0.00000500 -0.00000100 -1.00000000
vn -0.00003600 0.00000400 -1.00000000
vn 0.00000500 -0.00000100 -1.00000000
vn 0.00000600 -0.00000100 -1.00000000
vn 0.00000000 0.00000000 -1.00000000
vn 0.00000600 -0.00000100 -1.00000000
vn 0.00000600 -0.00000100 -1.00000000
vn 0.00000000 0.00000000 -1.00000000
vn 0.00000000 0.00000000 -1.00000000
vn -0.00000100 0.00000000 -1.00000000
vn -0.00000100 0.00000000 -1.00000000
vn 0.00000000 0.00000000 -1.00000000
vn 0.00000200 -0.00000000 -1.00000000
vn 0.00000200 -0.00000000 -1.00000000
vn 0.00000000 0.00000000 -1.00000000
vn 0.00000000 0.00000000 -1.00000000
vn -0.00000200 0.00000000 -1.00000000
vn -0.00000200 0.00000000 -1.00000000
vn -0.00000300 0.00000000 -1.00000000
vn 0.00001100 -0.00000100 -1.00000000
vn -0.00001500 0.00000200 -1.00000000
vn 0.00001100 -0.00000100 -1.00000000
vn 0.00000000 0.00000000 -1.00000000
vn 0.00000000 0.00000000 -1.00000000
vn 0.00001800 -0.00000200 -1.00000000
vn 0.00002800 -0.00000300 -1.00000000
vn 0.00000000 0.00000000 -1.00000000
vn 0.00000000 0.00000000 -1.00000000
vn 0.00000600 -0.00000100 -1.00000000
vn 0.00000000 0.00000000 -1.00000000
vn 0.00000600 -0.00000100 -1.00000000
vn 0.00000600 -0.00000100 -1.00000000
vn 0.00000000 0.00000000 -1.00000000
vn 0.00002700 -0.00000300 -1.00000000
vn 0.00000000 0.00000000 -1.00000000
vn -0.00001400 0.00000100 -1.00000000
vn 0.00000000 0.00000000 -1.00000000
vn 0.00002700 -0.00000300 -1.00000000
vn 0.00000700 -0.00000100 -1.00000000
vn 0.00000600 -0.00000100 -1.00000000
vn -0.00001600 0.00000200 -1.00000000
vn 0.00000600 -0.00000100 -1.00000000
vn 0.00001200 -0.00000100 -1.00000000
vn -0.00001600 0.00000200 -1.00000000
vn 0.00001200 -0.00000100 -1.00000000
vn -0.00001100 0.00000100 -1.00000000
vn -0.00001400 0.00000100 -1.00000000
vn 0.00000000 0.00000000 -1.00000000
vn 0.00001200 -0.00000100 -1.00000000
vn -0.00001100 0.00000100 -1.00000000
vn 0.00000000 0.00000000 -1.00000000
vn -0.00001100 0.00000100 -1.00000000
vn 0.00000000 0.00000000 -1.00000000
vn 0.00026300 -0.00002700 -1.00000000
vn 0.00026300 -0.00002700 -1.00000000
vn 0.00001800 -0.00000200 -1.00000000
vn 0.00001800 -0.00000200 -1.00000000
vn 0.00026300 -0.00002700 -1.00000000
vn 0.00002800 -0.00000300 -1.00000000
vn 0.00002800 -0.00000300 -1.00000000
vn 0.00000000 0.00000000 -1.00000000
vn 0.00000000 0.00000000 -1.00000000
vn 0.00004800 -0.00000500 -1.00000000
vn 0.00000000 0.00000000 -1.00000000
vn 0.00000000 0.00000000 -1.00000000
vn 0.00004800 -0.00000500 -1.00000000
vn -0.00005200 0.00000500 -1.00000000
vn 0.00000000 0.00000000 -1.00000000
vn -0.00005200 0.00000500 -1.00000000
vn 0.00000000 0.00000000 -1.00000000
vn 0.00000000 0.00000000 -1.00000000
vn 0.00000000 0.00000000 -1.00000000
vn -0.00003600 0.00000400 -1.00000000
vn 0.00000000 0.00000000 -1.00000000
vn 0.00002700 -0.00000300 -1.00000000
vn -0.00001400 0.00000100 -1.00000000
f 1//1 2//2 3//3
f 1//1 3//3 4//4
f 4//4 3//3 5//5
f 4//4 5//5 6//6
f 6//6 5//5 7//7
f 6//6 7//7 8//8
f 9//9 8//8 10//10
f 10//10 8//8 7//7
f 11//11 12//12 13//13
f 13//13 12//12 14//14
f 11//11 13//13 15//15
f 11//11 15//15 16//16
f 16//16 15//15 17//17
f 16//16 17//17 18//18
f 18//18 17//17 19//19
f 18//18 19//19 20//20
f 20//20 19//19 21//21
f 20//20 21//21 22//22
f 22//22 21//21 23//23
f 22//22 23//23 24//24
f 24//24 23//23 25//25
f 24//24 25//25 26//26
f 26//26 25//25 27//27
f 26//26 27//27 28//28
f 28//28 27//27 29//29
f 28//28 29//29 30//30
f 30//30 29//29 31//31
f 30//30 31//31 32//32
f 32//32 31//31 33//33
f 32//32 33//33 34//34
f 34//34 33//33 35//35
f 34//34 35//35 36//36
f 37//37 36//36 38//38
f 38//38 36//36 35//35
f 39//39 40//40 41//41
f 41//41 40//40 42//42
f 39//39 41//41 43//43
f 39//39 43//43 44//44
f 44//44 43//43 45//45
f 44//44 45//45 46//46
f 46//46 45//45 47//47
f 46//46 47//47 48//48
f 48//48 47//47 49//49
f 48//48 49//49 50//50
f 50//50 49//49 51//51
f 50//50 51//51 52//52
f 52//52 51//51 53//53
f 52//52 53//53 54//54
f 54//54 53//53 55//55
f 54//54 55//55 56//56
f 56//56 55//55 57//57
f 56//56 57//57 58//58
f 58//58 57//57 59//59
f 58//58 59//59 60//60
f 60//60 59//59 61//61
f 60//60 61//61 62//62
f 62//62 61//61 63//63
f 62//62 63//63 64//64
f 64//64 63//63 65//65
f 64//64 65//65 66//66
f 67//67 66//66 68//68
f 68//68 66//66 65//65
f 69//69 70//70 71//71
f 71//71 70//70 72//72
f 69//69 71//71 73//73
f 69//69 73//73 74//74
f 74//74 73//73 75//75
f 74//74 75//75 76//76
f 76//76 75//75 77//77
f 76//76 77//77 78//78
f 78//78 77//77 79//79
f 78//78 79//79 80//80
f 80//80 79//79 81//81
f 80//80 81//81 82//82
f 82//82 81//81 83//83
f 82//82 83//83 84//84
f 84//84 83//83 85//85
f 84//84 85//85 86//86
f 86//86 85//85 87//87
f 86//86 87//87 88//88
f 88//88 87//87 89//89
f 88//88 89//89 90//90
f 90//90 89//89 91//91
f 90//90 91//91 92//92
f 92//92 91//91 93//93
f 92//92 93//93 94//94
f 95//95 94//94 96//96
f 96//96 94//94 93//93
f 97//97 98//98 99//99
f 99//99 98//98 100//100
f 97//97 99//99 101//101
f 97//97 101//101 102//102
f 102//102 101//101 103//103
f 102//102 103//103 104//104
f 104//104 103//103 105//105
f 104//104 105//105 106//106
f 106//106 105//105 107//107
f 106//106 107//107 108//108
f 108//108 107//107 109//109
f 108//108 109//109 110//110
f 110//110 109//109 111//111
f 110//110 111//111 112//112
f 112//112 111//111 113//113
f 112//112 113//113 114//114
f 114//114 113//113 2//2
f 114//114 2//2 1//1
f 115//115 118//118 120//120
f 122//122 124//124 127//127
f 127//127 128//128 130//130
f 126//126 129//129 132//132
f 134//134 135//135 137//137
f 138//138 136//136 139//139
f 138//138 139//139 140//140
f 141//141 143//143 145//145
f 147//147 148//148 153//153
f 154//154 127//127 155//155
f 155//155 127//127 131//131
f 155//155 157//157 143//143
f 144//144 156//156 158//158
f 143//143 159//159 145//145
f 160//160 162//162 165//165
f 164//164 163//163 167//167
f 165//165 168//168 169//169
f 165//165 116//116 160//160
f 161//161 117//117 121//121
f 160//160 119//119 170//170
f 172//172 173//173 175//175
f 171//171 174//174 123//123
f 122//122 136//136 133//133
f 122//122 133//133 124//124
f 124//124 176//176 177//177
f 125//125 178//178 179//179
f 182//182 138//138 183//183
f 183//183 138//138 140//140
f 183//183 185//185 149//149
f 150//150 184//184 186//186
f 151//151 187//187 152//152
f 188//188 180//180 190//190
f 189//189 181//181 194//194
f 191//191 192//192 195//195
f 196//196 193//193 197//197
f 195//195 198//198 199//199
f 202//202 203//203 204//204
f 206//206 208//208 209//209
f 211//211 212//212 214//214
f 166//166 213//213 215//215
f 168//168 216//216 169//169
f 205//205 217//217 199//199
f 201//201 218//218 219//219
f 200//200 220//220 222//222
f 221//221 207//207 210//210
f 223//223 224//224 227//227
f 226//226 225//225 229//229
f 228//228 230//230 142//142
f 231//231 232//232 235//235
f 236//236 233//233 238//238
f 234//234 237//237 146//146
f 240//240 241//241 247//247
f 243//243 242//242 250//250
f 253//253 256//256 258//258
f 257//257 255//255 260//260
f 259//259 263//263 265//265
f 267//267 271//271 273//273
f 272//272 268//268 276//276
f 273//273 274//274 278//278
f 280//280 283//283 284//284
f 285//285 282//282 287//287
f 284//284 289//289 292//292
f 275//275 294//294 277//277
f 278//278 293//293 296//296
f 279//279 297//297 298//298
f 299//299 296//296 300//300
f 299//299 300//300 263//263
f 261//261 301//301 302//302
f 262//262 303//303 264//264
f 266//266 305//305 270//270
f 269//269 304//304 306//306
f 271//271 307//307 308//308
f 308//308 307//307 311//311
f 248//248 295//295 239//239
f 240//240 296//296 293//293
f 240//240 293//293 312//312
f 312//312 293//293 314//314
f 312//312 314//314 289//289
f 288//288 313//313 316//316
f 290//290 315//315 291//291
f 317//317 319//319 321//321
f 249//249 323//323 245//245
f 246//246 324//324 326//326
f 244//244 325//325 328//328
f 329//329 327//327 333//333
f 330//330 334//334 336//336
f 335//335 332//332 337//337
f 338//338 339//339 342//342
f 341//341 340//340 309//309
f 343//343 310//310 344//344
f 345//345 311//311 307//307
f 346//346 348//348 349//349
f 350//350 347//347 251//251
f 351//351 252//252 353//353
f 352//352 254//254 259//259
f 354//354 355//355 356//356
f 356//356 355//355 280//280
f 356//356 280//280 358//358
f 357//357 281//281 286//286
f 337//337 332//332 321//321
f 320//320 331//331 360//360
f 322//322 359//359 318//318

