# https://github.com/mikedh/trimesh
v -0.02204400 -0.10812700 -0.01872500
v -0.02204400 -0.10812700 -0.01872500
v -0.02204700 -0.10811400 -0.01872600
v -0.02204700 -0.10811400 -0.01872600
v -0.02204700 -0.10811400 -0.01872600
v -0.02204700 -0.10811400 -0.01872600
v -0.02204700 -0.10811400 -0.01872600
v -0.02204700 -0.10811400 -0.01872600
v -0.02105800 -0.10996500 -0.01857800
v -0.02105800 -0.10996500 -0.01857800
v -0.02105800 -0.10996500 -0.01857800
v -0.02105800 -0.10996500 -0.01857800
v -0.02105800 -0.10996500 -0.01857800
v -0.02105800 -0.10996500 -0.01857800
v -0.02105800 -0.10996500 -0.01857800
v -0.02105800 -0.10996500 -0.01857800
v -0.02105800 -0.10996500 -0.01857800
v -0.02105800 -0.10996500 -0.01857800
v -0.02105800 -0.10996500 -0.01857800
v -0.02337400 -0.10880900 -0.01867100
v -0.02337400 -0.10880900 -0.01867100
v -0.02337500 -0.10905000 -0.01865200
v -0.02337500 -0.10905000 -0.01865200
v -0.02460200 -0.10991100 -0.01858400
v -0.02460200 -0.10991100 -0.01858400
v -0.02460200 -0.10991100 -0.01858400
v -0.02460200 -0.10991100 -0.01858400
v -0.02460200 -0.10991100 -0.01858400
v -0.02460200 -0.10991100 -0.01858400
v -0.02337300 -0.10929100 -0.01863300
v -0.02337300 -0.10929100 -0.01863300
v -0.02332600 -0.10952600 -0.01861400
v -0.02332600 -0.10952600 -0.01861400
v -0.02332600 -0.10952600 -0.01861400
v -0.02453300 -0.11023500 -0.01855800
v -0.02453300 -0.11023500 -0.01855800
v -0.02453300 -0.11023500 -0.01855800
v -0.02319000 -0.10972400 -0.01859800
v -0.02319000 -0.10972400 -0.01859800
v -0.02319000 -0.10972400 -0.01859800
v -0.02319000 -0.10972400 -0.01859800
v -0.02319000 -0.10972400 -0.01859800
v -0.02440600 -0.11053000 -0.01853400
v -0.02440600 -0.11053000 -0.01853400
v -0.02204300 -0.10814500 -0.01872400
v -0.02204300 -0.10814500 -0.01872400
v -0.02285800 -0.10986000 -0.01858700
v -0.02285800 -0.10986000 -0.01858700
v -0.02285800 -0.10986000 -0.01858700
v -0.02285800 -0.10986000 -0.01858700
v -0.02324800 -0.11125900 -0.01847500
v -0.02324800 -0.11125900 -0.01847500
v -0.02324800 -0.11125900 -0.01847500
v -0.02303700 -0.10982200 -0.01859000
v -0.02303700 -0.10982200 -0.01859000
v -0.02303700 -0.10982200 -0.01859000
v -0.02377800 -0.11111600 -0.01848700
v -0.02377800 -0.11111600 -0.01848700
v -0.02377800 -0.11111600 -0.01848700
v -0.02421800 -0.11079000 -0.01851300
v -0.02421800 -0.11079000 -0.01851300
v -0.02109100 -0.11001600 -0.01857400
v -0.02109100 -0.11001600 -0.01857400
v -0.02124300 -0.11033400 -0.01854900
v -0.02124300 -0.11033400 -0.01854900
v -0.02221300 -0.10959300 -0.01860800
v -0.02221300 -0.10959300 -0.01860800
v -0.02221300 -0.10959300 -0.01860800
v -0.02221300 -0.10959300 -0.01860800
v -0.02221300 -0.10959300 -0.01860800
v -0.02145200 -0.11061500 -0.01852600
v -0.02145200 -0.11061500 -0.01852600
v -0.02145200 -0.11061500 -0.01852600
v -0.02251400 -0.10981200 -0.01859100
v -0.02251400 -0.10981200 -0.01859100
v -0.02251400 -0.10981200 -0.01859100
v -0.02182500 -0.11093600 -0.01850100
v -0.02182500 -0.11093600 -0.01850100
v -0.02182500 -0.11093600 -0.01850100
v -0.02268300 -0.10985500 -0.01858700
v -0.02268300 -0.10985500 -0.01858700
v -0.02268300 -0.10985500 -0.01858700
v -0.02226800 -0.11115100 -0.01848400
v -0.02226800 -0.11115100 -0.01848400
v -0.02226800 -0.11115100 -0.01848400
v -0.02275200 -0.11126000 -0.01847500
v -0.02275200 -0.11126000 -0.01847500
v -0.02454900 -0.10699700 -0.01881600
v -0.02454900 -0.10699700 -0.01881600
v -0.02454900 -0.10699700 -0.01881600
v -0.02453100 -0.10699200 -0.01881700
v -0.02453100 -0.10699200 -0.01881700
v -0.02336600 -0.10826700 -0.01871400
v -0.02336600 -0.10826700 -0.01871400
v -0.02336600 -0.10826700 -0.01871400
v -0.02336600 -0.10826700 -0.01871400
v -0.02336600 -0.10826700 -0.01871400
v -0.02336600 -0.10826700 -0.01871400
v -0.02433500 -0.10696700 -0.01881800
v -0.02433500 -0.10696700 -0.01881800
v -0.02433500 -0.10696700 -0.01881800
v -0.02335300 -0.10825300 -0.01871600
v -0.02335300 -0.10825300 -0.01871600
v -0.02335300 -0.10825300 -0.01871600
v -0.02335300 -0.10825300 -0.01871600
v -0.02107300 -0.10997800 -0.01857700
v -0.02107300 -0.10997800 -0.01857700
v -0.02107300 -0.10997800 -0.01857700
v -0.02205900 -0.10925500 -0.01863500
v -0.02205900 -0.10925500 -0.01863500
v -0.02205900 -0.10925500 -0.01863500
v -0.02204700 -0.10916700 -0.01864200
v -0.02204700 -0.10916700 -0.01864200
v -0.02204300 -0.10907900 -0.01864900
v -0.02204300 -0.10907900 -0.01864900
v -0.02093200 -0.10853900 -0.01869200
v -0.02093200 -0.10853900 -0.01869200
v -0.02092500 -0.10857400 -0.01868900
v -0.02092500 -0.10857400 -0.01868900
v -0.02092500 -0.10857400 -0.01868900
v -0.02350400 -0.10686500 -0.01882600
v -0.02350400 -0.10686500 -0.01882600
v -0.02350400 -0.10686500 -0.01882600
v -0.02350400 -0.10686500 -0.01882600
v -0.02332700 -0.10824400 -0.01871600
v -0.02332700 -0.10824400 -0.01871600
v -0.02332700 -0.10824400 -0.01871600
v -0.02382200 -0.10690400 -0.01882300
v -0.02382200 -0.10690400 -0.01882300
v -0.02382200 -0.10690400 -0.01882300
v -0.02413900 -0.10694300 -0.01882000
v -0.02413900 -0.10694300 -0.01882000
v -0.02092300 -0.10796700 -0.01873800
v -0.02092300 -0.10796700 -0.01873800
v -0.02092300 -0.10796700 -0.01873800
v -0.02205400 -0.10810200 -0.01872700
v -0.02205400 -0.10810200 -0.01872700
v -0.02205400 -0.10810200 -0.01872700
v -0.02205400 -0.10810200 -0.01872700
v -0.02205400 -0.10810200 -0.01872700
v -0.02144600 -0.10661200 -0.01884600
v -0.02144600 -0.10661200 -0.01884600
v -0.02144600 -0.10661200 -0.01884600
v -0.02144600 -0.10661200 -0.01884600
v -0.02144600 -0.10661200 -0.01884600
v -0.02144600 -0.10661200 -0.01884600
v -0.02206500 -0.10809600 -0.01872800
v -0.02206500 -0.10809600 -0.01872800
v -0.02206500 -0.10809600 -0.01872800
v -0.02206500 -0.10809600 -0.01872800
v -0.02178600 -0.10665400 -0.01884300
v -0.02178600 -0.10665400 -0.01884300
v -0.02458600 -0.10701900 -0.01881400
v -0.02461400 -0.10707400 -0.01881000
v -0.02461400 -0.10707400 -0.01881000
v -0.02461400 -0.10707400 -0.01881000
v -0.02462400 -0.10715800 -0.01880300
v -0.02462400 -0.10715800 -0.01880300
v -0.02462400 -0.10715800 -0.01880300
v -0.02337500 -0.10831100 -0.01871100
v -0.02337500 -0.10831100 -0.01871100
v -0.02337500 -0.10831100 -0.01871100
v -0.02462100 -0.10958100 -0.01861000
v -0.02462100 -0.10958100 -0.01861000
v -0.02462100 -0.10958100 -0.01861000
v -0.02337400 -0.10856000 -0.01869100
v -0.02337400 -0.10856000 -0.01869100
v -0.02337400 -0.10856000 -0.01869100
v -0.02204300 -0.10862100 -0.01868600
v -0.02204300 -0.10862100 -0.01868600
v -0.02204300 -0.10816300 -0.01872200
v -0.02204300 -0.10816300 -0.01872200
v -0.02090700 -0.10859500 -0.01868800
v -0.02090700 -0.10859500 -0.01868800
v -0.02090700 -0.10859500 -0.01868800
v -0.02104100 -0.10996200 -0.01857800
v -0.02104100 -0.10996200 -0.01857800
v -0.02104100 -0.10996200 -0.01857800
v -0.02086700 -0.10861300 -0.01868600
v -0.02086700 -0.10861300 -0.01868600
v -0.02086700 -0.10861300 -0.01868600
v -0.02099700 -0.10997200 -0.01857800
v -0.02099700 -0.10997200 -0.01857800
v -0.02099700 -0.10997200 -0.01857800
v -0.02099700 -0.10997200 -0.01857800
v -0.02099700 -0.10997200 -0.01857800
v -0.02099700 -0.10997200 -0.01857800
v -0.02099700 -0.10997200 -0.01857800
v -0.02067200 -0.10867200 -0.01868100
v -0.02067200 -0.10867200 -0.01868100
v -0.02047800 -0.10873100 -0.01867600
v -0.02047800 -0.10873100 -0.01867600
v -0.02018400 -0.10786300 -0.01874600
v -0.02018400 -0.10786300 -0.01874600
v -0.02018400 -0.10786300 -0.01874600
v -0.02018400 -0.10786300 -0.01874600
v -0.02070900 -0.10792700 -0.01874100
v -0.02070900 -0.10792700 -0.01874100
v -0.02074300 -0.10652600 -0.01885300
v -0.02074300 -0.10652600 -0.01885300
v -0.02074300 -0.10652600 -0.01885300
v -0.02074300 -0.10652600 -0.01885300
v -0.02079300 -0.10793700 -0.01874000
v -0.02079300 -0.10793700 -0.01874000
v -0.02079300 -0.10793700 -0.01874000
v -0.02109400 -0.10656900 -0.01884900
v -0.02109400 -0.10656900 -0.01884900
v -0.02109400 -0.10656900 -0.01884900
v -0.02087700 -0.10794500 -0.01873900
v -0.02087700 -0.10794500 -0.01873900
v -0.02087700 -0.10794500 -0.01873900
v -0.02090900 -0.10795400 -0.01873900
v -0.02090900 -0.10795400 -0.01873900
v -0.02316400 -0.10682300 -0.01883000
v -0.02316400 -0.10682300 -0.01883000
v -0.02316400 -0.10682300 -0.01883000
v -0.02316400 -0.10682300 -0.01883000
v -0.02318400 -0.10822800 -0.01871700
v -0.02318400 -0.10822800 -0.01871700
v -0.02318400 -0.10822800 -0.01871700
v -0.02325600 -0.10823600 -0.01871700
v -0.02325600 -0.10823600 -0.01871700
v -0.01848900 -0.11071000 -0.01851800
v -0.01848900 -0.11071000 -0.01851800
v -0.01848900 -0.11071000 -0.01851800
v -0.01848900 -0.11071000 -0.01851800
v -0.01848900 -0.11071000 -0.01851800
v -0.01848900 -0.11071000 -0.01851800
v -0.01848900 -0.11071000 -0.01851800
v -0.01848900 -0.11071000 -0.01851800
v -0.01848900 -0.11071000 -0.01851800
v -0.01848900 -0.11071000 -0.01851800
v -0.01848900 -0.11071000 -0.01851800
v -0.01929900 -0.11055000 -0.01853100
v -0.01929900 -0.11055000 -0.01853100
v -0.01946900 -0.11049200 -0.01853600
v -0.01946900 -0.11049200 -0.01853600
v -0.01848800 -0.10632800 -0.01886800
v -0.01848700 -0.10757400 -0.01876800
v -0.01848700 -0.10757400 -0.01876800
v -0.01852300 -0.10627600 -0.01887200
v -0.01852300 -0.10627600 -0.01887200
v -0.01852300 -0.10627600 -0.01887200
v -0.01852300 -0.10762900 -0.01876400
v -0.01852300 -0.10762900 -0.01876400
v -0.01852300 -0.10762900 -0.01876400
v -0.01852300 -0.10762900 -0.01876400
v -0.02040100 -0.10648400 -0.01885600
v -0.02040100 -0.10648400 -0.01885600
v -0.02005900 -0.10644200 -0.01885900
v -0.02005900 -0.10644200 -0.01885900
v -0.02005900 -0.10644200 -0.01885900
v -0.01965800 -0.10779800 -0.01875100
v -0.01965800 -0.10779800 -0.01875100
v -0.01965800 -0.10779800 -0.01875100
v -0.01971600 -0.10640000 -0.01886200
v -0.01971600 -0.10640000 -0.01886200
v -0.01971600 -0.10640000 -0.01886200
v -0.01916300 -0.10773700 -0.01875500
v -0.01916300 -0.10773700 -0.01875500
v -0.01916300 -0.10773700 -0.01875500
v -0.01937200 -0.10635800 -0.01886600
v -0.01937200 -0.10635800 -0.01886600
v -0.01937200 -0.10635800 -0.01886600
v -0.01866700 -0.10767700 -0.01876000
v -0.01866700 -0.10767700 -0.01876000
v -0.01866700 -0.10767700 -0.01876000
v -0.01899100 -0.10631000 -0.01886900
v -0.01899100 -0.10631000 -0.01886900
v -0.01899100 -0.10631000 -0.01886900
v -0.01858200 -0.10766100 -0.01876100
v -0.01858200 -0.10766100 -0.01876100
v -0.01858200 -0.10766100 -0.01876100
v -0.01860900 -0.10626400 -0.01887300
v -0.01860900 -0.10626400 -0.01887300
v -0.01860900 -0.10626400 -0.01887300
v -0.01854600 -0.10626300 -0.01887300
v -0.01854600 -0.10626300 -0.01887300
v -0.02212500 -0.10669600 -0.01883900
v -0.02212500 -0.10669600 -0.01883900
v -0.02212500 -0.10669600 -0.01883900
v -0.02208500 -0.10809500 -0.01872800
v -0.02208500 -0.10809500 -0.01872800
v -0.02208500 -0.10809500 -0.01872800
v -0.02247500 -0.10673900 -0.01883600
v -0.02247500 -0.10673900 -0.01883600
v -0.02247500 -0.10673900 -0.01883600
v -0.02231100 -0.10812300 -0.01872600
v -0.02231100 -0.10812300 -0.01872600
v -0.02231100 -0.10812300 -0.01872600
v -0.02282500 -0.10678100 -0.01883300
v -0.02282500 -0.10678100 -0.01883300
v -0.02282500 -0.10678100 -0.01883300
v -0.02253600 -0.10815100 -0.01872300
v -0.02253600 -0.10815100 -0.01872300
v -0.02253600 -0.10815100 -0.01872300
v -0.02286000 -0.10818900 -0.01872000
v -0.02286000 -0.10818900 -0.01872000
v -0.01852200 -0.10933800 -0.01862700
v -0.01848600 -0.10939100 -0.01862300
v -0.01848600 -0.10939100 -0.01862300
v -0.01858400 -0.10930400 -0.01863000
v -0.01858400 -0.10930400 -0.01863000
v -0.01858400 -0.10930400 -0.01863000
v -0.01858400 -0.10930400 -0.01863000
v -0.01848500 -0.11070100 -0.01851900
v -0.01848500 -0.11070100 -0.01851900
v -0.01963900 -0.11043400 -0.01854000
v -0.01963900 -0.11043400 -0.01854000
v -0.02031800 -0.11020300 -0.01855900
v -0.02031800 -0.11020300 -0.01855900
v -0.02093100 -0.10798900 -0.01873600
v -0.02093100 -0.10798900 -0.01873600
v -0.02093200 -0.10800400 -0.01873500
v -0.02093200 -0.10800400 -0.01873500
v -0.02093200 -0.10800400 -0.01873500
v -0.02093000 -0.10827100 -0.01871300
v -0.02093000 -0.10827100 -0.01871300
v -0.02008000 -0.10885100 -0.01866700
v -0.02008000 -0.10885100 -0.01866700
v -0.01968300 -0.10897100 -0.01865700
v -0.01968300 -0.10897100 -0.01865700
v -0.01968300 -0.10897100 -0.01865700
v -0.01913400 -0.10913800 -0.01864400
v -0.01913400 -0.10913800 -0.01864400
v -0.01858900 -0.11078800 -0.01851200
v -0.01858900 -0.11078800 -0.01851200
v -0.01861000 -0.11078300 -0.01851200
v -0.01861000 -0.11078300 -0.01851200
v -0.01849300 -0.11072000 -0.01851700
v -0.01849300 -0.11072000 -0.01851700
v -0.01849300 -0.11072000 -0.01851700
v -0.01849300 -0.11072000 -0.01851700
v -0.01849300 -0.11072000 -0.01851700
v -0.01849300 -0.11072000 -0.01851700
v -0.01863200 -0.11077700 -0.01851300
v -0.01863200 -0.11077700 -0.01851300
v -0.01863200 -0.11077700 -0.01851300
v -0.01896600 -0.11066300 -0.01852200
v -0.01896600 -0.11066300 -0.01852200
v -0.01851000 -0.11076500 -0.01851300
v -0.01853000 -0.11078300 -0.01851200
v -0.01853000 -0.11078300 -0.01851200
v -0.01855900 -0.11079000 -0.01851200
v -0.01855900 -0.11079000 -0.01851200
vn -0.00001400 -0.07972000 -0.99681700
vn 0.00015200 -0.07966700 -0.99682200
vn 0.00030100 -0.07967700 -0.99682100
vn 0.00029100 -0.07967600 -0.99682100
vn 0.00027900 -0.07963200 -0.99682400
vn 0.00030900 -0.07957900 -0.99682800
vn 0.00030700 -0.07960900 -0.99682600
vn 0.00031300 -0.07959900 -0.99682700
vn 0.00034200 -0.07959100 -0.99682800
vn 0.00031300 -0.07959900 -0.99682700
vn 0.00031400 -0.07957800 -0.99682900
vn 0.00057900 -0.07936600 -0.99684500
vn 0.00035700 -0.07952600 -0.99683300
vn 0.00042900 -0.07967900 -0.99682000
vn 0.00049500 -0.07934100 -0.99684700
vn 0.00029100 -0.07967600 -0.99682100
vn 0.00040700 -0.07952300 -0.99683300
vn 0.00031400 -0.07957600 -0.99682900
vn 0.00041900 -0.07945500 -0.99683800
vn 0.00041800 -0.07969600 -0.99681900
vn 0.00027600 -0.07958200 -0.99682800
vn 0.00027600 -0.07958200 -0.99682800
vn 0.00031700 -0.07963900 -0.99682400
vn 0.00027600 -0.07958200 -0.99682800
vn 0.00027500 -0.07954900 -0.99683100
vn 0.00029100 -0.07956500 -0.99683000
vn 0.00030600 -0.07961100 -0.99682600
vn 0.00031700 -0.07963900 -0.99682400
vn 0.00041800 -0.07969600 -0.99681900
vn 0.00030600 -0.07961100 -0.99682600
vn 0.00031700 -0.07963900 -0.99682400
vn 0.00029100 -0.07956500 -0.99683000
vn 0.00029400 -0.07955500 -0.99683000
vn 0.00030600 -0.07961100 -0.99682600
vn 0.00029100 -0.07956500 -0.99683000
vn 0.00029400 -0.07955500 -0.99683000
vn 0.00022100 -0.07939300 -0.99684300
vn 0.00036800 -0.07964200 -0.99682300
vn 0.00029400 -0.07955500 -0.99683000
vn 0.00022100 -0.07939300 -0.99684300
vn 0.00020700 -0.07948400 -0.99683600
vn 0.00026700 -0.07959000 -0.99682800
vn 0.00022100 -0.07939300 -0.99684300
vn 0.00020700 -0.07948400 -0.99683600
vn 0.00041900 -0.07945500 -0.99683800
vn 0.00031400 -0.07957800 -0.99682900
vn 0.00037300 -0.07961400 -0.99682600
vn 0.00027300 -0.07959300 -0.99682700
vn 0.00023400 -0.07963100 -0.99682400
vn 0.00031200 -0.07959200 -0.99682700
vn 0.00037300 -0.07961400 -0.99682600
vn 0.00024400 -0.07958500 -0.99682800
vn 0.00027300 -0.07959300 -0.99682700
vn 0.00026700 -0.07959000 -0.99682800
vn 0.00027300 -0.07959300 -0.99682700
vn 0.00024400 -0.07958500 -0.99682800
vn 0.00036800 -0.07964200 -0.99682300
vn 0.00024400 -0.07958500 -0.99682800
vn 0.00026700 -0.07959000 -0.99682800
vn 0.00036800 -0.07964200 -0.99682300
vn 0.00020700 -0.07948400 -0.99683600
vn 0.00029900 -0.07956500 -0.99683000
vn 0.00031700 -0.07958900 -0.99682800
vn 0.00032100 -0.07954300 -0.99683100
vn 0.00029900 -0.07956500 -0.99683000
vn 0.00026100 -0.07972500 -0.99681700
vn 0.00036800 -0.07951700 -0.99683300
vn 0.00031700 -0.07958900 -0.99682800
vn 0.00029900 -0.07956500 -0.99683000
vn 0.00032100 -0.07954300 -0.99683100
vn 0.00026100 -0.07963900 -0.99682400
vn 0.00032100 -0.07954300 -0.99683100
vn 0.00036800 -0.07951700 -0.99683300
vn 0.00026100 -0.07963900 -0.99682400
vn 0.00030600 -0.07962700 -0.99682500
vn 0.00036800 -0.07951700 -0.99683300
vn 0.00030600 -0.07962700 -0.99682500
vn 0.00036100 -0.07957400 -0.99682900
vn 0.00026100 -0.07963900 -0.99682400
vn 0.00030600 -0.07962700 -0.99682500
vn 0.00036100 -0.07957400 -0.99682900
vn 0.00031200 -0.07959200 -0.99682700
vn 0.00031200 -0.07959200 -0.99682700
vn 0.00036100 -0.07957400 -0.99682900
vn 0.00023400 -0.07963100 -0.99682400
vn 0.00037300 -0.07961400 -0.99682600
vn 0.00023400 -0.07963100 -0.99682400
vn 0.00010900 -0.07980200 -0.99681100
vn 0.00050400 -0.07978700 -0.99681200
vn 0.00021900 -0.07968400 -0.99682000
vn 0.00021900 -0.07968400 -0.99682000
vn 0.00028800 -0.07960800 -0.99682600
vn 0.00044600 -0.07943600 -0.99684000
vn 0.00010900 -0.07980200 -0.99681100
vn 0.00033700 -0.07950500 -0.99683400
vn 0.00025100 -0.07963200 -0.99682400
vn 0.00016800 -0.07964200 -0.99682400
vn 0.00028800 -0.07960800 -0.99682600
vn 0.00017000 -0.07966800 -0.99682100
vn 0.00028800 -0.07960800 -0.99682600
vn 0.00039700 -0.07955000 -0.99683100
vn 0.00039700 -0.07955000 -0.99683100
vn 0.00017000 -0.07966800 -0.99682100
vn 0.00031700 -0.07959000 -0.99682800
vn 0.00034900 -0.07956000 -0.99683000
vn 0.00042900 -0.07967900 -0.99682000
vn 0.00031700 -0.07958900 -0.99682800
vn 0.00026100 -0.07972500 -0.99681700
vn 0.00042900 -0.07967900 -0.99682000
vn 0.00026100 -0.07972500 -0.99681700
vn 0.00049500 -0.07934100 -0.99684700
vn 0.00035700 -0.07952600 -0.99683300
vn 0.00049500 -0.07934100 -0.99684700
vn 0.00040700 -0.07952300 -0.99683300
vn 0.00035700 -0.07952600 -0.99683300
vn 0.00030100 -0.07967700 -0.99682100
vn 0.00030700 -0.07960900 -0.99682600
vn 0.00031300 -0.07959900 -0.99682700
vn 0.00031400 -0.07957600 -0.99682900
vn 0.00030100 -0.07967700 -0.99682100
vn 0.00034500 -0.07957900 -0.99682800
vn 0.00026600 -0.07957700 -0.99682900
vn 0.00014900 -0.07960600 -0.99682600
vn 0.00021000 -0.07959200 -0.99682700
vn 0.00014900 -0.07960600 -0.99682600
vn 0.00034500 -0.07957900 -0.99682800
vn 0.00031700 -0.07959000 -0.99682800
vn 0.00034500 -0.07957900 -0.99682800
vn 0.00031700 -0.07959000 -0.99682800
vn 0.00034900 -0.07956000 -0.99683000
vn 0.00034900 -0.07956000 -0.99683000
vn 0.00017000 -0.07966800 -0.99682100
vn 0.00029300 -0.07959700 -0.99682700
vn 0.00035400 -0.07962600 -0.99682500
vn 0.00031000 -0.07959800 -0.99682700
vn 0.00031000 -0.07959800 -0.99682700
vn 0.00027900 -0.07963200 -0.99682400
vn 0.00044400 -0.07987700 -0.99680500
vn 0.00029300 -0.07959700 -0.99682700
vn 0.00029100 -0.07953700 -0.99683200
vn 0.00023200 -0.07955800 -0.99683000
vn 0.00035400 -0.07962600 -0.99682500
vn 0.00028700 -0.07958700 -0.99682800
vn 0.00030900 -0.07960800 -0.99682600
vn 0.00013900 -0.07955800 -0.99683000
vn 0.00031000 -0.07959800 -0.99682700
vn 0.00043000 -0.07959900 -0.99682700
vn 0.00019200 -0.07959000 -0.99682800
vn 0.00013800 -0.07956600 -0.99683000
vn 0.00023200 -0.07955800 -0.99683000
vn 0.00043000 -0.07959900 -0.99682700
vn 0.00023200 -0.07955800 -0.99683000
vn 0.00028700 -0.07953100 -0.99683200
vn 0.00030400 -0.07958100 -0.99682800
vn 0.00010900 -0.07980200 -0.99681100
vn 0.00025100 -0.07963200 -0.99682400
vn 0.00033700 -0.07950500 -0.99683400
vn 0.00028200 -0.07958800 -0.99682800
vn 0.00025100 -0.07963200 -0.99682400
vn 0.00028200 -0.07958800 -0.99682800
vn 0.00033700 -0.07950500 -0.99683400
vn 0.00036400 -0.07967000 -0.99682100
vn 0.00028200 -0.07958800 -0.99682800
vn 0.00027500 -0.07954900 -0.99683100
vn 0.00036400 -0.07967000 -0.99682100
vn 0.00036400 -0.07967000 -0.99682100
vn 0.00027500 -0.07954900 -0.99683100
vn 0.00041800 -0.07969600 -0.99681900
vn 0.00040700 -0.07952300 -0.99683300
vn 0.00057900 -0.07936600 -0.99684500
vn 0.00057900 -0.07936600 -0.99684500
vn 0.00031400 -0.07957800 -0.99682900
vn 0.00009800 -0.07955900 -0.99683000
vn 0.00034200 -0.07959100 -0.99682800
vn 0.00031400 -0.07957600 -0.99682900
vn 0.00034200 -0.07959100 -0.99682800
vn 0.00009800 -0.07955900 -0.99683000
vn 0.00011300 -0.07955500 -0.99683000
vn 0.00009800 -0.07955900 -0.99683000
vn 0.00011300 -0.07955500 -0.99683000
vn 0.00029600 -0.07957900 -0.99682900
vn 0.00029600 -0.07957900 -0.99682900
vn 0.00033600 -0.07958800 -0.99682800
vn 0.00011300 -0.07955500 -0.99683000
vn 0.00030200 -0.07957300 -0.99682900
vn 0.00028500 -0.07967800 -0.99682100
vn 0.00033000 -0.07959600 -0.99682700
vn 0.00031800 -0.07958300 -0.99682800
vn 0.00033600 -0.07958800 -0.99682800
vn 0.00029600 -0.07957900 -0.99682900
vn 0.00030200 -0.07957300 -0.99682900
vn 0.00033600 -0.07958800 -0.99682800
vn 0.00035700 -0.07960200 -0.99682700
vn 0.00034300 -0.07959100 -0.99682800
vn 0.00010900 -0.07964500 -0.99682300
vn 0.00020200 -0.07959000 -0.99682800
vn 0.00039100 -0.07960100 -0.99682700
vn 0.00034300 -0.07959100 -0.99682800
vn 0.00026300 -0.07960400 -0.99682700
vn 0.00010900 -0.07964500 -0.99682300
vn 0.00034300 -0.07959100 -0.99682800
vn 0.00039100 -0.07960100 -0.99682700
vn 0.00026300 -0.07960400 -0.99682700
vn 0.00039100 -0.07960100 -0.99682700
vn 0.00051900 -0.07954600 -0.99683100
vn 0.00028700 -0.07958700 -0.99682800
vn 0.00051900 -0.07954600 -0.99683100
vn 0.00026300 -0.07960400 -0.99682700
vn 0.00028700 -0.07958700 -0.99682800
vn 0.00051900 -0.07954600 -0.99683100
vn 0.00030900 -0.07960800 -0.99682600
vn 0.00035400 -0.07962600 -0.99682500
vn 0.00030900 -0.07960800 -0.99682600
vn 0.00021000 -0.07959200 -0.99682700
vn 0.00030200 -0.07957800 -0.99682900
vn 0.00025900 -0.07959300 -0.99682700
vn 0.00025500 -0.07960400 -0.99682700
vn 0.00021000 -0.07959200 -0.99682700
vn 0.00026600 -0.07957700 -0.99682900
vn 0.00025900 -0.07959300 -0.99682700
vn 0.00014900 -0.07960600 -0.99682600
vn 0.00026600 -0.07957700 -0.99682900
vn 0.00026900 -0.07966300 -0.99682200
vn 0.00036600 -0.07963700 -0.99682400
vn 0.00046100 -0.07979900 -0.99681100
vn 0.00032600 -0.07961000 -0.99682600
vn 0.00029500 -0.07966500 -0.99682200
vn 0.00031800 -0.07958300 -0.99682800
vn 0.00028100 -0.07961500 -0.99682600
vn 0.00020900 -0.07963400 -0.99682400
vn 0.00028600 -0.07967800 -0.99682100
vn 0.00031800 -0.07962500 -0.99682500
vn 0.00030100 -0.07973300 -0.99681600
vn 0.00026900 -0.07966300 -0.99682200
vn 0.00029500 -0.07966500 -0.99682200
vn 0.00030100 -0.07973300 -0.99681600
vn 0.00029500 -0.07966500 -0.99682200
vn -0.00005000 -0.07957900 -0.99682900
vn 0.00011800 -0.07958800 -0.99682800
vn -0.00005000 -0.07957900 -0.99682900
vn -0.00005000 -0.07957900 -0.99682900
vn 0.00011800 -0.07958800 -0.99682800
vn 0.00027200 -0.07962900 -0.99682500
vn 0.00038300 -0.07958000 -0.99682800
vn 0.00035300 -0.07960500 -0.99682600
vn 0.00027200 -0.07962900 -0.99682500
vn 0.00011800 -0.07958800 -0.99682800
vn 0.00020200 -0.07959000 -0.99682800
vn 0.00010900 -0.07964500 -0.99682300
vn 0.00037500 -0.07959800 -0.99682700
vn 0.00020200 -0.07959000 -0.99682800
vn 0.00035700 -0.07960200 -0.99682700
vn 0.00021800 -0.07960500 -0.99682600
vn 0.00037500 -0.07959800 -0.99682700
vn 0.00035700 -0.07960200 -0.99682700
vn 0.00021800 -0.07960500 -0.99682600
vn 0.00037500 -0.07959800 -0.99682700
vn 0.00020300 -0.07960900 -0.99682600
vn 0.00034400 -0.07958700 -0.99682800
vn 0.00021800 -0.07960500 -0.99682600
vn 0.00020300 -0.07960900 -0.99682600
vn 0.00020300 -0.07960900 -0.99682600
vn 0.00033200 -0.07959300 -0.99682700
vn 0.00034400 -0.07958700 -0.99682800
vn 0.00033200 -0.07959300 -0.99682700
vn 0.00062300 -0.07953300 -0.99683200
vn 0.00034400 -0.07958700 -0.99682800
vn 0.00062300 -0.07953300 -0.99683200
vn 0.00028100 -0.07962600 -0.99682500
vn 0.00033200 -0.07959300 -0.99682700
vn 0.00038300 -0.07958000 -0.99682800
vn 0.00062300 -0.07953300 -0.99683200
vn 0.00028100 -0.07962600 -0.99682500
vn 0.00035300 -0.07960500 -0.99682600
vn 0.00038300 -0.07958000 -0.99682800
vn 0.00028100 -0.07962600 -0.99682500
vn 0.00035300 -0.07960500 -0.99682600
vn 0.00027200 -0.07962900 -0.99682500
vn 0.00019200 -0.07959000 -0.99682800
vn 0.00043000 -0.07959900 -0.99682700
vn 0.00021400 -0.07963500 -0.99682400
vn 0.00019200 -0.07959100 -0.99682800
vn 0.00021400 -0.07963500 -0.99682400
vn 0.00054600 -0.07954200 -0.99683100
vn 0.00036500 -0.07956600 -0.99683000
vn 0.00054600 -0.07954200 -0.99683100
vn 0.00021400 -0.07963500 -0.99682400
vn 0.00026900 -0.07959900 -0.99682700
vn 0.00036500 -0.07956600 -0.99683000
vn 0.00054600 -0.07954200 -0.99683100
vn 0.00025500 -0.07960400 -0.99682700
vn 0.00026900 -0.07959900 -0.99682700
vn 0.00036500 -0.07956600 -0.99683000
vn 0.00030200 -0.07957800 -0.99682900
vn 0.00025500 -0.07960400 -0.99682700
vn 0.00026900 -0.07959900 -0.99682700
vn 0.00030200 -0.07957800 -0.99682900
vn 0.00025900 -0.07959300 -0.99682700
vn 0.00026800 -0.07947800 -0.99683700
vn 0.00026800 -0.07947800 -0.99683700
vn 0.00076900 -0.07957500 -0.99682900
vn 0.00076900 -0.07957500 -0.99682900
vn 0.00031400 -0.07959600 -0.99682700
vn 0.00026800 -0.07947800 -0.99683700
vn 0.00020900 -0.07963400 -0.99682400
vn 0.00031600 -0.07961500 -0.99682600
vn -0.00009300 -0.07961800 -0.99682500
vn 0.00032600 -0.07961000 -0.99682600
vn 0.00032400 -0.07915400 -0.99686200
vn 0.00028500 -0.07967800 -0.99682100
vn 0.00032600 -0.07961000 -0.99682600
vn 0.00029100 -0.07953700 -0.99683200
vn 0.00029300 -0.07959700 -0.99682700
vn 0.00027900 -0.07963200 -0.99682400
vn 0.00030900 -0.07957900 -0.99682800
vn 0.00029100 -0.07953600 -0.99683200
vn 0.00030700 -0.07960900 -0.99682600
vn 0.00030900 -0.07957900 -0.99682800
vn 0.00033000 -0.07959600 -0.99682700
vn 0.00030200 -0.07957300 -0.99682900
vn 0.00028100 -0.07961500 -0.99682600
vn 0.00033000 -0.07959600 -0.99682700
vn 0.00031800 -0.07958300 -0.99682800
vn 0.00020900 -0.07963400 -0.99682400
vn 0.00028100 -0.07961500 -0.99682600
vn 0.00035300 -0.07970300 -0.99681900
vn 0.00020000 -0.07946100 -0.99683800
vn 0.00029000 -0.07950000 -0.99683500
vn 0.00035300 -0.07970300 -0.99681900
vn 0.00009800 -0.07942400 -0.99684100
vn 0.00042700 -0.07975000 -0.99681500
vn 0.00020000 -0.07946100 -0.99683800
vn 0.00046100 -0.07980000 -0.99681100
vn 0.00035300 -0.07970300 -0.99681900
vn 0.00029000 -0.07950000 -0.99683500
vn 0.00046100 -0.07980000 -0.99681100
vn 0.00029000 -0.07950000 -0.99683500
vn 0.00036600 -0.07963700 -0.99682400
vn 0.00026900 -0.07966300 -0.99682200
vn 0.00036600 -0.07963700 -0.99682400
vn 0.00009800 -0.07942400 -0.99684100
vn 0.00025100 -0.07950900 -0.99683400
vn 0.00009800 -0.07942400 -0.99684100
vn 0.00028400 -0.07946800 -0.99683700
vn 0.00055200 -0.07979800 -0.99681100
f 1//1 4//4 16//16
f 21//21 22//22 24//24
f 23//23 31//31 28//28
f 27//27 30//30 34//34
f 26//26 32//32 35//35
f 36//36 33//33 39//39
f 37//37 40//40 43//43
f 2//2 19//19 45//45
f 48//48 53//53 55//55
f 56//56 52//52 58//58
f 54//54 59//59 42//42
f 38//38 57//57 60//60
f 41//41 61//61 44//44
f 62//62 65//65 69//69
f 70//70 64//64 72//72
f 67//67 73//73 76//76
f 74//74 71//71 79//79
f 75//75 77//77 80//80
f 81//81 78//78 84//84
f 82//82 83//83 50//50
f 49//49 85//85 87//87
f 47//47 86//86 51//51
f 90//90 91//91 93//93
f 98//98 92//92 100//100
f 97//97 101//101 102//102
f 63//63 68//68 107//107
f 108//108 66//66 110//110
f 106//106 109//109 14//14
f 15//15 111//111 113//113
f 13//13 112//112 115//115
f 116//116 120//120 3//3
f 121//121 126//126 128//128
f 129//129 127//127 104//104
f 130//130 105//105 131//131
f 132//132 103//103 99//99
f 135//135 136//136 146//146
f 145//145 138//138 149//149
f 141//141 150//150 152//152
f 153//153 89//89 154//154
f 155//155 88//88 94//94
f 156//156 96//96 159//159
f 157//157 95//95 161//161
f 158//158 160//160 163//163
f 165//165 162//162 166//166
f 164//164 167//167 25//25
f 29//29 168//168 20//20
f 114//114 169//169 17//17
f 12//12 170//170 171//171
f 11//11 172//172 46//46
f 8//8 118//118 10//10
f 18//18 119//119 175//175
f 9//9 174//174 176//176
f 177//177 173//173 179//179
f 178//178 180//180 184//184
f 182//182 181//181 190//190
f 183//183 189//189 192//192
f 194//194 198//198 201//201
f 202//202 197//197 204//204
f 199//199 203//203 208//208
f 207//207 205//205 210//210
f 206//206 209//209 143//143
f 144//144 211//211 213//213
f 142//142 212//212 134//134
f 214//214 218//218 124//124
f 122//122 219//219 222//222
f 123//123 221//221 125//125
f 227//227 235//235 237//237
f 238//238 240//240 241//241
f 242//242 239//239 247//247
f 200//200 249//249 195//195
f 196//196 248//248 251//251
f 193//193 252//252 255//255
f 254//254 250//250 257//257
f 253//253 256//256 260//260
f 261//261 258//258 262//262
f 259//259 264//264 267//267
f 265//265 263//263 270//270
f 266//266 268//268 272//272
f 273//273 269//269 276//276
f 271//271 275//275 244//244
f 245//245 274//274 277//277
f 246//246 278//278 243//243
f 151//151 147//147 280//280
f 279//279 148//148 282//282
f 281//281 283//283 287//287
f 286//286 284//284 290//290
f 285//285 289//289 293//293
f 292//292 288//288 296//296
f 291//291 295//295 217//217
f 215//215 294//294 297//297
f 216//216 298//298 220//220
f 299//299 300//300 304//304
f 302//302 301//301 307//307
f 303//303 306//306 232//232
f 236//236 309//309 233//233
f 226//226 308//308 311//311
f 231//231 310//310 186//186
f 133//133 313//313 139//139
f 140//140 312//312 316//316
f 137//137 314//314 5//5
f 6//6 315//315 318//318
f 7//7 317//317 117//117
f 191//191 320//320 185//185
f 187//187 319//319 322//322
f 188//188 323//323 228//228
f 229//229 321//321 325//325
f 230//230 324//324 305//305
f 326//326 329//329 334//334
f 335//335 328//328 337//337
f 333//333 336//336 225//225
f 224//224 338//338 340//340
f 223//223 339//339 234//234
f 341//341 343//343 330//330
f 331//331 342//342 344//344
f 332//332 345//345 327//327

